<svg id="Icon-1.svg" xmlns="http://www.w3.org/2000/svg" width="78" height="64.06" viewBox="0 0 78 64.06">
  <defs>
    <style>
      .cls-1, .cls-5 {
        fill: none;
        stroke: #bb241d;
        stroke-width: 2px;
      }

      .cls-1, .cls-3, .cls-4, .cls-5 {
        fill-rule: evenodd;
      }

      .cls-2, .cls-3 {
        fill: #bb241d;
      }

      .cls-4 {
        fill: #fb9996;
      }

      .cls-5 {
        stroke-linecap: round;
      }
    </style>
  </defs>
  <path id="Эллипс_609" data-name="Эллипс 609" class="cls-1" d="M949,5020a34.982,34.982,0,0,1,17.1-30.08m34.069,0.16A34.985,34.985,0,0,1,1017,5020" transform="translate(-944 -4962.94)"/>
  <rect id="Прямоугольник_587" data-name="Прямоугольник 587" class="cls-2" y="57.06" width="78" height="2" rx="1" ry="1"/>
  <path id="Прямоугольник_587-2" data-name="Прямоугольник 587" class="cls-3" d="M962,5025h26a1,1,0,1,1,0,2H962A1,1,0,0,1,962,5025Zm36,0h6a1,1,0,0,1,0,2h-6A1,1,0,0,1,998,5025Z" transform="translate(-944 -4962.94)"/>
  <g id="Shield">
    <path id="Фигура_610" data-name="Фигура 610" class="cls-4" d="M980.973,4967a41.544,41.544,0,0,0-12,2.09c0,1.58.031,1.06,0.031,2.91v13c3.77,9.51,8.89,11.55,14,14a11.919,11.919,0,0,0,4.992-2.97c2.7-2.32,5.1-5.71,7-11.03v-15c-2.063-1.38-9.21-3-14.023-3h0Z" transform="translate(-944 -4962.94)"/>
    <path id="Фигура_610-2" data-name="Фигура 610" class="cls-1" d="M982.971,4963.95c-5.175,0-12.817,1.72-15.037,3.18v15.93c3.7,10.22,9.121,13.74,15.037,15.93,5.916-2.19,11.385-5.71,15.084-15.93v-15.93c-2.22-1.46-9.909-3.18-15.084-3.18h0Z" transform="translate(-944 -4962.94)"/>
    <path class="cls-5" d="M989.989,4977.03l-8.055,7.89-3.945-3.87" transform="translate(-944 -4962.94)"/>
  </g>
</svg>
