<svg xmlns="http://www.w3.org/2000/svg" width="120" height="34" viewBox="0 0 120 34"><defs><style>.cls-1{fill:#bfbfbf;fill-rule:evenodd}</style></defs><path class="cls-1" d="M119.474,20.975h-9.357a4.078,4.078,0,0,0,1.2,2.852,3.609,3.609,0,0,0,2.577,1.042,3.185,3.185,0,0,0,3.236-2.043l1.982,0.827a5.339,5.339,0,0,1-1.908,2.323,5.561,5.561,0,0,1-3.262.928,5.685,5.685,0,0,1-4.359-1.8,6.42,6.42,0,0,1-1.679-4.551,6.593,6.593,0,0,1,1.63-4.477A5.276,5.276,0,0,1,113.7,14.21a5.422,5.422,0,0,1,4.215,1.728,6.629,6.629,0,0,1,1.581,4.623ZM116.2,17.162a3.26,3.26,0,0,0-2.549-.9,3.177,3.177,0,0,0-2.138.779,3.984,3.984,0,0,0-1.243,2.091l6.86-.019A3.175,3.175,0,0,0,116.2,17.162Zm-12.813,2.517a4.369,4.369,0,0,1,2.464,1.331,3.248,3.248,0,0,1,.8,2.14,3.324,3.324,0,0,1-1.3,2.677,5.1,5.1,0,0,1-3.357,1.076,5.282,5.282,0,0,1-3.272-.974A5.751,5.751,0,0,1,96.824,23.5l1.981-.827a3.275,3.275,0,0,0,3.208,2.239,2.916,2.916,0,0,0,1.7-.462,1.417,1.417,0,0,0,.664-1.216q0-1.167-1.618-1.582l-2.391-.584a5.67,5.67,0,0,1-2.149-1.106,2.67,2.67,0,0,1-1.015-2.2,3.014,3.014,0,0,1,1.388-2.566,5.548,5.548,0,0,1,3.3-.985,5.467,5.467,0,0,1,2.8.721,4.04,4.04,0,0,1,1.762,2.057l-1.93.795a2.619,2.619,0,0,0-2.706-1.581,3.139,3.139,0,0,0-1.666.414,1.261,1.261,0,0,0-.675,1.12q0,1.023,1.57,1.388Zm-10.07,5.19h-0.1A4.356,4.356,0,0,1,89.328,26.9a4.642,4.642,0,0,1-3.151-1.095,3.652,3.652,0,0,1-1.268-2.9,3.585,3.585,0,0,1,1.5-3.053A6.046,6.046,0,0,1,90.1,18.753a6.3,6.3,0,0,1,3.207.73v-0.34a2.67,2.67,0,0,0-.894-2.1,3.194,3.194,0,0,0-2.194-.781,3.385,3.385,0,0,0-1.751.462,2.381,2.381,0,0,0-1.075,1.266l-2.028-.876a4.666,4.666,0,0,1,1.619-1.992,5.109,5.109,0,0,1,3.189-.912,5.5,5.5,0,0,1,3.774,1.33,4.733,4.733,0,0,1,1.5,3.772v7.216H93.313V24.868ZM90.494,20.61a3.656,3.656,0,0,0-2.44.705,2.123,2.123,0,0,0-.821,1.654,1.6,1.6,0,0,0,.755,1.388,2.966,2.966,0,0,0,1.7.511V24.859a3.6,3.6,0,0,0,2.5-1.024,3.22,3.22,0,0,0,1.132-2.445A4.366,4.366,0,0,0,90.494,20.61ZM78.041,26.9a5,5,0,0,1-2.419-.57,4.113,4.113,0,0,1-1.606-1.46h-0.1v1.65H71.794V9.1h2.223v5.5l-0.1,1.654h0.1a4.113,4.113,0,0,1,1.606-1.46,5,5,0,0,1,2.419-.584A5.194,5.194,0,0,1,82,16.035a6.452,6.452,0,0,1,1.666,4.526A6.462,6.462,0,0,1,82,25.087,5.16,5.16,0,0,1,78.041,26.9Zm2.294-9.478a3.606,3.606,0,0,0-5.325-.012,4.4,4.4,0,0,0-1.1,3.139A4.4,4.4,0,0,0,75.022,23.7a3.527,3.527,0,0,0,2.664,1.169l-0.008-.009a3.522,3.522,0,0,0,2.657-1.18,4.376,4.376,0,0,0,1.112-3.127A4.376,4.376,0,0,0,80.335,17.424Zm-19.7,3.551a4.078,4.078,0,0,0,1.2,2.852A3.61,3.61,0,0,0,64.4,24.872a3.186,3.186,0,0,0,3.236-2.044l1.981,0.827a5.338,5.338,0,0,1-1.908,2.323,5.572,5.572,0,0,1-3.258.924A5.684,5.684,0,0,1,60.1,25.1a6.408,6.408,0,0,1-1.679-4.541,6.593,6.593,0,0,1,1.63-4.477,5.268,5.268,0,0,1,4.167-1.874,5.441,5.441,0,0,1,4.215,1.728,6.569,6.569,0,0,1,1.581,4.623l-0.024.414H60.637Zm6.077-3.813a3.265,3.265,0,0,0-2.553-.9,3.17,3.17,0,0,0-2.138.779,3.983,3.983,0,0,0-1.244,2.091l6.864-.019A3.179,3.179,0,0,0,66.714,17.162Zm-10.378-.643a2.894,2.894,0,0,0-2.138.962A3.47,3.47,0,0,0,53.269,20l0,6.522H51.048V14.6h2.125v1.947h0.1a3.049,3.049,0,0,1,1.389-1.606,3.952,3.952,0,0,1,2.041-.633,4.206,4.206,0,0,1,1.666.293L57.52,16.691A3.335,3.335,0,0,0,56.337,16.519Zm-7.943-4.912a1.565,1.565,0,0,1-1.987.2,1.592,1.592,0,0,1-.583-1.925,1.572,1.572,0,0,1,3.028.6,1.525,1.525,0,0,1-.461,1.12h0ZM36.342,16.96h7.1v2.091h-7.1v7.471H34.12V9.1H44.214v2.14H36.342v5.72ZM11.5,33.639L0.5,27.483,20.389,7.611a0.761,0.761,0,0,1,1.287.409L24.83,27.483l-11.1,6.156A2.288,2.288,0,0,1,11.5,33.639ZM11.992,5.658a0.761,0.761,0,0,1,1.346,0l2.549,4.84L0.8,25.565ZM4.616,1.2A0.761,0.761,0,0,1,6.038.962L9.6,7.6,1.3,22.351ZM48.394,26.522H46.171V14.6h2.223V26.522Z"/></svg>