<svg xmlns="http://www.w3.org/2000/svg" width="833" height="240" viewBox="0 0 833 240">
  <metadata><?xpacket begin="﻿" id="W5M0MpCehiHzreSzNTczkc9d"?>
<x:xmpmeta xmlns:x="adobe:ns:meta/" x:xmptk="Adobe XMP Core 5.6-c140 79.160451, 2017/05/06-01:08:21        ">
   <rdf:RDF xmlns:rdf="http://www.w3.org/1999/02/22-rdf-syntax-ns#">
      <rdf:Description rdf:about=""/>
   </rdf:RDF>
</x:xmpmeta>
                                                                                                    
                                                                                                    
                                                                                                    
                                                                                                    
                                                                                                    
                                                                                                    
                                                                                                    
                                                                                                    
                                                                                                    
                                                                                                    
                                                                                                    
                                                                                                    
                                                                                                    
                                                                                                    
                                                                                                    
                                                                                                    
                                                                                                    
                                                                                                    
                                                                                                    
                                                                                                    
                           
<?xpacket end="w"?></metadata>
<defs>
    <style>
      .cls-1 {
        fill: #fff;
        opacity: 0;
      }

      .cls-2 {
        fill: #d9d9d9;
        fill-rule: evenodd;
      }
    </style>
  </defs>
  <rect id="BG" class="cls-1" width="833" height="240"/>
  <path id="Logo" class="cls-2" d="M0,51.646H26.044V72.739h0.592C33.245,58.25,50.608,48.2,71.719,48.2c26.635,0,49.719,15.869,49.719,52.239v88.116H95.395V107.63c0-25.725-14.7-35.286-31.173-35.286-21.7,0-38.177,13.9-38.177,45.635v70.473H0V51.646ZM161.49,129.61c0,23.951,22.295,39.82,46.267,39.82,15.882,0,27.425-8.083,37.586-20.5l19.631,14.982c-14.5,18.727-34.429,27.992-60.67,27.992-43.406,0-70.534-31.146-70.534-71.951,0-41,29.792-71.952,70.83-71.952,48.24,0,66.786,36.961,66.786,72.247v9.265H161.49v0.1Zm82.077-20.8c-0.592-22.768-13.318-39.82-39.559-39.82-25.747,0-42.518,21.684-42.518,39.82h82.077Zm77.637,6.6L272.668,51.548h33.541l33.245,48.494,32.654-48.493h31.469l-46.859,63.87,55.54,73.035H378.717L338.271,130.99l-40.447,57.462H265.763Zm98.058-63.771H443.53V73.034h0.592c2.565-8.082,19.335-24.838,43.9-24.838,20.223,0,34.133,8.674,42.814,25.429C539.812,56.87,557.766,48.2,574.241,48.2c42.222,0,51.989,30.062,51.989,60.617v79.738H600.186V112.263c0-20.8-4.341-39.82-29.5-39.82s-35.021,17.052-35.021,41.3v74.81H509.625V116.9c0-26.021-3.748-44.452-28.9-44.452-18.744,0-35.514,14.193-35.514,45.044v71.064H419.163V51.646h0.1Zm298.021,50.169a16.657,16.657,0,1,1-16.672,16.657A16.665,16.665,0,0,1,717.283,101.815Zm-0.592-29.372a47.679,47.679,0,0,1,46.958,39.13h-9.175l22.295,21.979,22.394-21.979H788.015A71.9,71.9,0,0,0,650.4,92.353l22.393,8.772A47.959,47.959,0,0,1,716.691,72.443Zm0,95.508a47.9,47.9,0,0,1-46.76-37.848h10.161L657.8,108.123,635.4,130.1h10.161a71.869,71.869,0,0,0,137.32,18.135l-22.393-8.772A48.012,48.012,0,0,1,716.691,167.951ZM833,65.445a16.673,16.673,0,1,1-16.574-16.854A16.876,16.876,0,0,1,833,65.445Zm-3.256,0a13.4,13.4,0,0,0-13.416-13.6A13.652,13.652,0,1,0,829.744,65.445Zm-10.851,1.873,4.735,6.9h-3.354l-4.44-6.6H813.27v6.6h-2.763V56.377h6.413c4.143,0,5.919,2.464,5.919,5.618C822.839,64.952,821.359,66.726,818.893,67.318Zm-5.623-2.267h2.959c2.664,0,3.65-1.38,3.65-3.056,0-1.774-1.282-3.055-3.453-3.055H813.27v6.111Z"/>
</svg>
