<svg xmlns="http://www.w3.org/2000/svg" width="833" height="240"><path d="M0 51.646h26.044v21.093h.592C33.245 58.25 50.608 48.2 71.719 48.2c26.635 0 49.719 15.869 49.719 52.239v88.116H95.395V107.63c0-25.725-14.7-35.286-31.173-35.286-21.7 0-38.177 13.9-38.177 45.635v70.473H0V51.646zm161.49 77.964c0 23.951 22.295 39.82 46.267 39.82 15.882 0 27.425-8.083 37.586-20.5l19.631 14.982c-14.5 18.727-34.429 27.992-60.67 27.992-43.406 0-70.534-31.146-70.534-71.951 0-41 29.792-71.952 70.83-71.952 48.24 0 66.786 36.961 66.786 72.247v9.265H161.49v.1zm82.077-20.8c-.592-22.768-13.318-39.82-39.559-39.82-25.747 0-42.518 21.684-42.518 39.82h82.077zm77.637 6.6l-48.536-63.862h33.541l33.245 48.494 32.654-48.493h31.469l-46.859 63.87 55.54 73.035h-33.541l-40.446-57.464-40.447 57.462h-32.061zm98.058-63.771h24.268v21.395h.592c2.565-8.082 19.335-24.838 43.9-24.838 20.223 0 34.133 8.674 42.814 25.429 8.976-16.755 26.93-25.425 43.405-25.425 42.222 0 51.989 30.062 51.989 60.617v79.738h-26.044v-76.292c0-20.8-4.341-39.82-29.5-39.82s-35.021 17.052-35.021 41.3v74.81h-26.04V116.9c0-26.021-3.748-44.452-28.9-44.452-18.744 0-35.514 14.193-35.514 45.044v71.064h-26.048V51.646h.1zm298.021 50.169a16.657 16.657 0 1 1-16.672 16.657 16.665 16.665 0 0 1 16.672-16.65zm-.592-29.372a47.679 47.679 0 0 1 46.958 39.13h-9.175l22.295 21.979 22.394-21.979h-11.148A71.9 71.9 0 0 0 650.4 92.353l22.393 8.772a47.959 47.959 0 0 1 43.898-28.682zm0 95.508a47.9 47.9 0 0 1-46.76-37.848h10.161L657.8 108.123 635.4 130.1h10.161a71.869 71.869 0 0 0 137.32 18.135l-22.393-8.772a48.012 48.012 0 0 1-43.797 28.488zM833 65.445a16.673 16.673 0 1 1-16.574-16.854A16.876 16.876 0 0 1 833 65.445zm-3.256 0a13.4 13.4 0 0 0-13.416-13.6 13.652 13.652 0 1 0 13.416 13.6zm-10.851 1.873l4.735 6.9h-3.354l-4.44-6.6h-2.564v6.6h-2.763V56.377h6.413c4.143 0 5.919 2.464 5.919 5.618 0 2.957-1.48 4.731-3.946 5.323zm-5.623-2.267h2.959c2.664 0 3.65-1.38 3.65-3.056 0-1.774-1.282-3.055-3.453-3.055h-3.156v6.111z" fill="#d9d9d9" fill-rule="evenodd"/></svg>