<svg xmlns="http://www.w3.org/2000/svg" width="654" height="240" viewBox="0 0 654 240">
  <metadata><?xpacket begin="﻿" id="W5M0MpCehiHzreSzNTczkc9d"?>
<x:xmpmeta xmlns:x="adobe:ns:meta/" x:xmptk="Adobe XMP Core 5.6-c140 79.160451, 2017/05/06-01:08:21        ">
   <rdf:RDF xmlns:rdf="http://www.w3.org/1999/02/22-rdf-syntax-ns#">
      <rdf:Description rdf:about=""/>
   </rdf:RDF>
</x:xmpmeta>
                                                                                                    
                                                                                                    
                                                                                                    
                                                                                                    
                                                                                                    
                                                                                                    
                                                                                                    
                                                                                                    
                                                                                                    
                                                                                                    
                                                                                                    
                                                                                                    
                                                                                                    
                                                                                                    
                                                                                                    
                                                                                                    
                                                                                                    
                                                                                                    
                                                                                                    
                                                                                                    
                           
<?xpacket end="w"?></metadata>
<defs>
    <style>
      .cls-1 {
        fill: #fff;
        opacity: 0;
      }

      .cls-2 {
        fill: #d9d9d9;
        fill-rule: evenodd;
      }
    </style>
  </defs>
  <rect id="BG" class="cls-1" width="654" height="240"/>
  <path id="Logo" class="cls-2" d="M648.7,171.8V156a49.893,49.893,0,0,1-23.507,5.9c-14.9,0-25.207-7.5-25.908-24.6H652.2a90.524,90.524,0,0,0,.9-13.2c0-19.1-11.2-33.6-31.21-33.8-24.407-.2-39.712,17.6-39.712,45v0.4c0,25.9,16.7,41.2,41.513,41.2,8.3-.1,17.7-1.6,25.007-5.1M621.289,104c10.7,0,16,7.5,16,19.1V124H600.383c2.4-13,9.7-20,20.906-20m-80.824,35.5,1.8,0.7c12.1,4.4,14.9,7,14.9,12.5,0,6.4-4.8,9.9-14.9,9.9-8.1,0-17.605-2.6-27.208-7.2V172a78.072,78.072,0,0,0,26.508,4.8c21.306,0,32.21-10.1,32.21-24.4,0-12.5-5.9-20.2-23.507-26.5l-1.8-.7c-13.4-4.8-16-7.5-16-12.3,0-5.3,4.4-9.2,14-9.2,7.5,0,15.105,2.6,23.307,6.4V94.6a64.726,64.726,0,0,0-22.806-4.4c-18.806,0-30.61,10.3-30.61,24.8,0,11.6,5.9,17.9,24.108,24.5m-63.22-20.8c5.3-8.1,12.9-12.5,22.207-12.5a30.115,30.115,0,0,1,9.2,1.3V92.6a29.089,29.089,0,0,0-9.2-1.5c-9.7,0-16.9,4.2-23.507,12.7l-0.8-11.7H460.84v83.1h16.205V118.7h0.2Zm-46.214,56.6h14.305v-56c0-19.7-9.9-29.2-30.51-29.2a62.061,62.061,0,0,0-27.908,7.2v16c9.2-5.5,19.106-8.8,27.008-8.8,11,0,15.405,4.8,15.405,13.6v6.6c-22.607.9-36.211,4.6-43.213,11.6a25.443,25.443,0,0,0-7.5,18.4c0,14.3,10.5,22.4,24.808,22.4,9.2,0,18.406-3.7,26.508-11.4Zm-24.207-11.9c-7,0-11.8-3.7-11.8-9.9,0-9.7,8.1-15.1,34.211-16V152c-6.1,6.8-13.4,11.4-22.407,11.4m-93.028-39V81.6H335.1c14.505,0,22.807,6.8,22.807,21.1v0.2c0,14.5-8.3,21.3-22.807,21.3H313.8v0.2ZM296.69,175.3H313.8V139.7H333.8c25.708,0,40.812-13.6,40.812-36.6v-0.2c0-22.8-15.4-36.4-40.812-36.4H296.69V175.3ZM140.043,149.2H81.025c-8.6,0-13.6,5.3-13.6,12.9,0,6.8,4.6,11.6,11.2,11.6,7.7,0,12.1-5.3,12.5-12.9h17.105c-0.9,18.6-12.5,28.5-29.809,28.5-16.2,0-28.309-11-28.309-27.4,0-17.1,12.7-29,31.81-29h58.418c19.706,0,34.711-14.5,34.711-34,0-19.7-13.4-33.6-32.51-33.6-18.906,0-34.211,13.8-34.211,39.3v16.7h-17.3V104.6c0-33.8,21.707-55.7,51.816-55.7,28.708,0,49.615,20.6,49.615,49.8,0.2,29.2-22.207,50.5-52.416,50.5M120.037,240c67.12,0,120.036-53.1,120.036-120S187.157,0,120.037,0,0,53.3,0,120c0,66.9,52.916,120,120.037,120"/>
</svg>
