<svg xmlns="http://www.w3.org/2000/svg" width="797" height="240"><path d="M561.546 47.04h-42.2a2.064 2.064 0 0 0-1.918 1.92v24.48a2.064 2.064 0 0 0 1.918 1.92h42.2a2.064 2.064 0 0 0 1.918-1.92V48.96c.48-.96-.479-1.92-1.918-1.92zm-.479 36.48h-81.524a3.943 3.943 0 0 0-2.877 1.92l-10.55 39.84-.48 1.92-12.468-42.72a3.238 3.238 0 0 0-2.877-1.92h-31.65a3.943 3.943 0 0 0-2.878 1.92l-11.989 39.84-.479 1.92-.48-.96-4.8-19.68-5.276-19.68a3.236 3.236 0 0 0-2.872-1.92h-63.78V49.44a2.362 2.362 0 0 0-2.877-1.92L282.928 60c-1.439.48-1.918.961-1.918 1.92v21.6h-10.55a2.064 2.064 0 0 0-1.918 1.92v30.72a2.064 2.064 0 0 0 1.918 1.92h10.55v37.44c0 26.4 14.386 38.88 40.762 38.88 11.029 0 21.579-2.4 28.772-6.24v-31.68c0-1.44-1.438-1.92-2.4-1.92a26.118 26.118 0 0 1-11.509 2.4c-7.194 0-11.03-2.88-11.03-11.04v-27.36h23.018a2.064 2.064 0 0 0 1.918-1.92V90.72l30.215 100.32a3.239 3.239 0 0 0 2.877 1.92H417.2a3.941 3.941 0 0 0 2.877-1.92l14.387-44.64 7.193 23.04 6.714 21.12a3.236 3.236 0 0 0 2.877 1.92h33.568a3.945 3.945 0 0 0 2.878-1.92l30.691-100.8v100.8a2.064 2.064 0 0 0 1.918 1.92h40.762a2.064 2.064 0 0 0 1.918-1.92V85.92a2.2 2.2 0 0 0-1.918-2.4zm53.709-36.48h-40.761a2.064 2.064 0 0 0-1.919 1.92v141.6a2.064 2.064 0 0 0 1.919 1.92h40.761a2.064 2.064 0 0 0 1.918-1.92V48.96a2.064 2.064 0 0 0-1.918-1.92zm54.189 0h-42.2a2.064 2.064 0 0 0-1.918 1.92v24.48a2.064 2.064 0 0 0 1.918 1.92h42.2a2.065 2.065 0 0 0 1.919-1.92V48.96c.479-.96-.484-1.92-1.919-1.92zm-.479 36.48h-40.762a2.064 2.064 0 0 0-1.918 1.92v105.12a2.064 2.064 0 0 0 1.918 1.92h40.762a2.064 2.064 0 0 0 1.918-1.92V85.92a2.2 2.2 0 0 0-1.918-2.4zm67.616-2.4c-35.966 0-61.382 26.4-61.382 57.12v.48c0 30.72 25.416 56.64 60.9 56.64 35.966 0 61.382-26.4 61.382-57.12v-.48c.003-30.72-25.413-56.64-60.902-56.64zm17.264 57.12c0 10.56-7.193 18.72-17.264 18.72s-17.743-8.64-17.743-19.2v-.48c0-10.56 7.193-18.72 17.264-18.72s17.743 8.64 17.743 19.68zM119.881 0a120 120 0 1 0 119.888 120A119.987 119.987 0 0 0 119.881 0zm0 208.32A88.32 88.32 0 1 1 208.118 120a88.046 88.046 0 0 1-88.237 88.32zm29.732-143.04a24.96 24.96 0 1 1-24.936 24.96 24.949 24.949 0 0 1 24.936-24.96zm0 59.52a24.96 24.96 0 1 1-24.936 24.96 24.949 24.949 0 0 1 24.936-24.96zm-59.464 0a24.96 24.96 0 1 1-24.937 24.96 24.949 24.949 0 0 1 24.937-24.96zm0-59.52a24.96 24.96 0 1 1-24.937 24.96 24.949 24.949 0 0 1 24.937-24.96z" fill="#d9d9d9" fill-rule="evenodd"/></svg>