<?xml version="1.0" encoding="UTF-8" standalone="no"?>
<svg width="350px" height="142px" viewBox="0 0 350 142" version="1.1" xmlns="http://www.w3.org/2000/svg" xmlns:xlink="http://www.w3.org/1999/xlink" xmlns:sketch="http://www.bohemiancoding.com/sketch/ns">
    <!-- Generator: Sketch 3.4 (15575) - http://www.bohemiancoding.com/sketch -->
    <title>Shape + Group + C# Copy + 4 + 4 copy</title>
    <desc>Created with Sketch.</desc>
    <defs></defs>
    <g id="Welcome" stroke="none" stroke-width="1" fill="none" fill-rule="evenodd" sketch:type="MSPage">
        <g id="VirgilSecurity---404" sketch:type="MSArtboardGroup" transform="translate(-545.000000, -235.000000)">
            <g id="Shape-+-Group-+-C#-Copy-+-4-+-4-copy" sketch:type="MSLayerGroup" transform="translate(545.000000, 235.000000)">
                <g id="Shape-+-Group-+-C#-Copy" transform="translate(120.000000, 0.000000)" stroke-width="8" stroke="#888888" sketch:type="MSShapeGroup">
                    <g id="Shape-+-Group">
                        <path d="M54.7780143,0.617384058 L54.7780143,0.617384058 L55.4949832,0.485328907 L56.2119566,0.617359295 L107.25294,10.0165371 L110.5,10.6144819 L110.5,13.9206877 L110.5,87.2498453 C110.5,93.8787495 107.631932,100.779341 102.1257,107.82363 C97.4486551,113.797639 90.9225845,119.827428 82.7158597,125.784093 C74.3785321,131.82242 65.3770142,137.037512 57.2522186,141.061171 L55.493532,141.932129 L53.7354439,141.059961 C45.5943465,137.021248 36.614351,131.817422 28.2751238,125.780628 C20.0638912,119.814974 13.5340691,113.786516 8.8600047,107.821618 C3.36546598,100.794106 0.5,93.8827938 0.5,87.2498453 L0.5,13.9206877 L0.5,10.6145979 L3.74692556,10.0165618 L54.7780143,0.617384058 Z" id="Path"></path>
                    </g>
                </g>
                <path d="M82.9390299,125.79264 L82.9390299,101.214852 L98.2556222,101.214852 L98.2556222,78.9523636 L82.9390299,78.9523636 L82.9390299,7 L48.0314476,7 L0.834971514,81.2676624 L0.834971514,101.214852 L57.6488427,101.214852 L57.6488427,125.79264 L82.9390299,125.79264 Z M57.6488427,78.9523636 L25.590859,78.9523636 L57.6488427,29.4405886 L57.6488427,78.9523636 Z" id="4" fill="#888888" sketch:type="MSShapeGroup"></path>
                <path d="M333.93903,125.79264 L333.93903,101.214852 L349.255622,101.214852 L349.255622,78.9523636 L333.93903,78.9523636 L333.93903,7 L299.031448,7 L251.834972,81.2676624 L251.834972,101.214852 L308.648843,101.214852 L308.648843,125.79264 L333.93903,125.79264 Z M308.648843,78.9523636 L276.590859,78.9523636 L308.648843,29.4405886 L308.648843,78.9523636 Z" id="4" fill="#888888" sketch:type="MSShapeGroup"></path>
            </g>
        </g>
    </g>
</svg>