<?xml version="1.0" encoding="UTF-8" standalone="no"?>
<svg width="36px" height="36px" viewBox="0 0 36 36" version="1.1" xmlns="http://www.w3.org/2000/svg" xmlns:xlink="http://www.w3.org/1999/xlink" xmlns:sketch="http://www.bohemiancoding.com/sketch/ns">
    <!-- Generator: Sketch 3.3.3 (12072) - http://www.bohemiancoding.com/sketch -->
    <title>path4863</title>
    <desc>Created with Sketch.</desc>
    <defs>
        <linearGradient x1="0%" y1="0%" x2="101.999998%" y2="100.999999%" id="linearGradient-1">
            <stop stop-color="#DFE3E5" offset="0%"></stop>
            <stop stop-color="#C5CBCD" offset="100%"></stop>
        </linearGradient>
    </defs>
    <g id="Welcome" stroke="none" stroke-width="1" fill="none" fill-rule="evenodd" sketch:type="MSPage">
        <g id="VirgilSecurity---Apps" sketch:type="MSArtboardGroup" transform="translate(-455.000000, -675.000000)" fill="url(#linearGradient-1)">
            <g id="V-Pass" sketch:type="MSLayerGroup" transform="translate(273.000000, 235.000000)">
                <g id="Group" transform="translate(22.000000, 440.000000)" sketch:type="MSShapeGroup">
                    <g id="path4863">
                        <path d="M196,17.9999999 C196,27.9411255 187.941125,36 177.999997,36 C168.058875,36 160,27.9411255 160,17.9999999 C160,8.05887435 168.058875,0 177.999997,0 C187.941125,0 196,8.05887435 196,17.9999999 Z M184.476556,23.8697686 L184.476556,15.6664625 L184.476556,14.6827234 L184.476556,13.5704496 L184.479147,13.5704496 L171.536097,13.5704496 L171.523443,13.5704496 L171.523443,14.7120174 L171.523443,15.6663629 L171.523443,23.8696689 C171.523443,24.689601 172.100454,25.3277909 172.920386,25.3277909 L173.994598,25.3277909 C173.957532,25.4274302 174.014426,25.6112648 174.014426,25.7463757 L174.014426,25.825589 L174.014426,26.2947906 L174.014426,28.7206097 C174.014426,29.4976968 174.58247,30.128912 175.359557,30.128912 C176.136644,30.128912 176.704688,29.4977965 176.704688,28.7206097 L176.704688,26.2947906 L176.704688,25.825589 L176.704688,25.7463757 C176.704688,25.6120619 176.734779,25.4274302 176.699208,25.3277909 L179.315239,25.3277909 C179.278173,25.4274302 179.295211,25.6112648 179.295211,25.7463757 L179.295211,25.825589 L179.295211,26.2947906 L179.295211,28.7206097 C179.295211,29.4976968 179.863255,30.128912 180.640342,30.128912 C181.418924,30.128912 181.985473,29.4977965 181.985473,28.7206097 L181.985473,26.2947906 L181.985473,25.825589 L181.985473,25.7463757 C181.985473,25.6120619 182.05542,25.4274302 182.019849,25.3277909 L183.092566,25.3277909 C183.914092,25.3278905 184.476556,24.6897006 184.476556,23.8697686 Z M185.572589,14.9488601 L185.572589,20.9733529 C185.572589,21.7519346 186.140234,22.3816552 186.918816,22.3816552 C187.6967,22.3816552 188.262851,21.7519346 188.262851,20.9733529 L188.262851,14.9488601 C188.262851,14.1702783 187.695903,13.5405578 186.918816,13.5405578 C186.140234,13.5405578 185.572589,14.1702783 185.572589,14.9488601 Z M169.081582,22.3815555 C169.859466,22.3815555 170.42741,21.7518349 170.42741,20.9732532 L170.42741,14.9487604 C170.42741,14.1701787 169.859366,13.5404581 169.081582,13.5404581 C168.303797,13.5404581 167.737148,14.1701787 167.737148,14.9487604 L167.737148,20.9732532 C167.737148,21.7519346 168.303698,22.3815555 169.081582,22.3815555 Z M181.764274,7.1144188 L182.348958,6.23629739 C182.421595,6.12808908 182.391105,5.98281493 182.285089,5.91087534 C182.176183,5.83823827 182.030211,5.86803043 181.958969,5.97623874 L181.330743,6.91822896 L181.067098,7.31409602 L180.799068,7.71574216 C179.952223,7.38673309 179.004464,7.20230069 178.005779,7.20230069 C177.008588,7.20230069 176.062214,7.38673309 175.213984,7.71574216 L174.945954,7.31409602 L174.683793,6.91822896 L174.055577,5.97623874 C173.983628,5.86803043 173.837666,5.83973286 173.729458,5.91087534 C173.621249,5.98201782 173.592952,6.12798944 173.664094,6.23629739 L174.248778,7.1144188 L174.510929,7.50590173 L174.774575,7.88981207 C172.781688,8.81725496 171.434365,10.5812697 171.434365,12.5740563 L184.579284,12.5740563 C184.579284,10.5812697 183.231264,8.81655747 181.238378,7.88981207 L181.503418,7.4992259 L181.764274,7.1144188 Z M175.190768,10.7233553 C174.801677,10.7233553 174.486318,10.4079969 174.486318,10.0189053 C174.486318,9.62981369 174.801776,9.31445522 175.190768,9.31445522 C175.57986,9.31445522 175.895218,9.62991333 175.895218,10.0189053 C175.895218,10.4078972 175.57986,10.7233553 175.190768,10.7233553 Z M181.529025,10.0188057 C181.529025,10.4078972 181.213567,10.7232557 180.824575,10.7232557 C180.435583,10.7232557 180.120125,10.4078972 180.120125,10.0188057 C180.120125,9.62971405 180.435583,9.31435558 180.824575,9.31435558 C181.213567,9.31435558 181.529025,9.62971405 181.529025,10.0188057 Z"></path>
                    </g>
                </g>
            </g>
        </g>
    </g>
</svg>