<?xml version="1.0" encoding="UTF-8" standalone="no"?>
<svg width="117px" height="151px" viewBox="0 0 117 151" version="1.1" xmlns="http://www.w3.org/2000/svg" xmlns:xlink="http://www.w3.org/1999/xlink" xmlns:sketch="http://www.bohemiancoding.com/sketch/ns">
    <!-- Generator: Sketch 3.3.3 (12072) - http://www.bohemiancoding.com/sketch -->
    <title>Shape + Group + C# Copy + Untitled-1</title>
    <desc>Created with Sketch.</desc>
    <defs>
        <path id="path-1" d="M54.2785216,2.84217094e-14 L0,9.99730727 L0,87.9928658 C0,93.995767 2.68520967,100.478961 7.99548994,107.270806 C12.702876,113.278224 19.3677889,119.430181 27.8022941,125.558049 C38.332646,133.180996 49.0674708,138.858683 54.2785216,141.443831 C59.4985933,138.858683 70.2334181,133.182501 80.760763,125.558049 C89.2012821,119.431687 95.8541672,113.27973 100.558546,107.270806 C105.873337,100.471432 108.567568,93.9972727 108.567568,87.9928658 L108.567568,9.99730727 L54.2785216,2.84217094e-14 L54.2785216,2.84217094e-14 Z"></path>
    </defs>
    <g id="Welcome" stroke="none" stroke-width="1" fill="none" fill-rule="evenodd" sketch:type="MSPage">
        <g id="VirgilSecurity---Apps" sketch:type="MSArtboardGroup" transform="translate(-663.000000, -266.000000)">
            <g id="V-Sync" sketch:type="MSLayerGroup" transform="translate(600.000000, 235.000000)">
                <g id="virgil-sync" transform="translate(50.000000, 30.000000)">
                    <g id="Shape-+-Group-+-C#-Copy-+-Untitled-1" transform="translate(13.000000, 0.000000)">
                        <g id="Shape-+-Group-+-C#-Copy">
                            <g id="Shape-+-Group">
                                <path d="M57.7320697,1.12520755 L57.7320697,1.12520755 L58.4946639,0.984748889 L59.2572629,1.12518121 L113.546309,11.1224885 L117,11.7584844 L117,15.2750851 L117,93.2706436 C117,100.321387 113.949419,107.661107 108.09279,115.153669 C103.118115,121.507842 96.176749,127.921345 87.4477781,134.257071 C78.5798933,140.679655 69.0055515,146.226616 60.3637234,150.506327 L58.4931204,151.432709 L56.6231539,150.505039 C47.9639867,146.209318 38.412537,140.674339 29.5426317,134.253386 C20.8088661,127.908098 13.8635098,121.496011 8.892005,115.151529 C3.04781382,107.676812 0,100.325689 0,93.2706436 L0,15.2750851 L0,11.7586077 L3.4535481,11.1225148 L57.7320697,1.12520755 Z" id="Path" fill="#9E0B0F" sketch:type="MSShapeGroup"></path>
                                <g id="Shape-+-Rectangle-215" transform="translate(4.216216, 5.277778)">
                                    <mask id="mask-2" sketch:name="Mask" fill="white">
                                        <use xlink:href="#path-1"></use>
                                    </mask>
                                    <use id="Mask" fill="#BB241D" sketch:type="MSShapeGroup" xlink:href="#path-1"></use>
                                    <rect id="Rectangle-215" fill="#DA322C" sketch:type="MSShapeGroup" mask="url(#mask-2)" x="-62.1891892" y="-69.6666667" width="117" height="231.166667"></rect>
                                </g>
                            </g>
                        </g>
                        <g id="Untitled-1" transform="translate(22.000000, 37.000000)" stroke="#2C302E" stroke-width="2" fill="#FFFFFF" sketch:type="MSShapeGroup">
                            <path d="M74.7482353,1.43448276 C74.2117647,0.627586207 73.3176471,0.0896551724 72.3341176,0.0896551724 L54.1835294,0.0896551724 C53.1105882,0.0896551724 52.1270588,0.717241379 51.68,1.70344828 L37.9105882,29.4965517 L24.1411765,1.70344828 C23.6941176,0.717241379 22.7105882,0.0896551724 21.6376471,0.0896551724 L3.48705882,0.0896551724 C2.50352941,0.0896551724 1.60941176,0.627586207 1.07294118,1.43448276 C0.536470588,2.24137931 0.536470588,3.31724138 0.894117647,4.12413793 L23.1576471,50.7448276 L18.5082353,49.5793103 C18.0611765,49.4 17.7035294,49.4 17.3458824,49.4 C16.8988235,49.4 16.3623529,49.5793103 16.0941176,50.0275862 C15.4682353,50.7448276 15.5576471,51.8206897 16.2729412,52.4482759 L16.2729412,52.4482759 C16.6305882,52.8068966 17.0776471,53.0758621 17.6141176,53.2551724 L27.5388235,57.2896552 C27.9858824,57.4689655 28.3435294,57.4689655 28.7905882,57.3793103 C29.3270588,57.2896552 29.8635294,57.0206897 30.3105882,56.5724138 C30.4,56.4827586 30.4,56.3931034 30.4894118,56.3034483 C30.5788235,56.1241379 30.7576471,55.9448276 30.7576471,55.6758621 L33.5294118,45.0068966 C33.7976471,44.1103448 33.7082353,43.3931034 33.3505882,42.8551724 L33.3505882,42.8551724 C33.2611765,42.7655172 33.1717647,42.6758621 33.0823529,42.5862069 C32.3670588,41.9586207 31.2941176,42.0482759 30.6682353,42.7655172 C30.5788235,42.8551724 30.4894118,43.0344828 30.4,43.1241379 L30.1317647,43.662069 L28.1647059,48.5034483 L7.95764706,5.73793103 L19.9388235,5.73793103 L35.4070588,37.0275862 C35.8541176,38.0137931 36.8376471,38.6413793 37.9105882,38.6413793 C38.9835294,38.6413793 39.9670588,38.0137931 40.4141176,37.0275862 L55.8823529,5.73793103 L67.8635294,5.73793103 L65.0023529,11.7448276 C64.2870588,13.1793103 64.9129412,14.8827586 66.3435294,15.5103448 C67.7741176,16.2275862 69.3835294,15.6 70.0988235,14.1655172 L74.9270588,4.12413793 C75.2847059,3.22758621 75.2847059,2.24137931 74.7482353,1.43448276 L74.7482353,1.43448276 Z M68.9364706,30.662069 L65.5388235,20.5310345 C65.36,20.0827586 65.0917647,19.8137931 64.8235294,19.5448276 C64.3764706,19.1862069 63.84,18.9172414 63.2141176,18.9172414 L62.8564706,18.9172414 C62.6776471,18.9172414 62.4094118,19.0068966 62.2305882,19.0965517 L52.3058824,23.937931 C51.5011765,24.2965517 50.9647059,24.8344828 50.7858824,25.462069 L50.7858824,25.462069 C50.7858824,25.5517241 50.6964706,25.7310345 50.6964706,25.8206897 C50.6964706,26.8068966 51.5011765,27.5241379 52.3952941,27.5241379 C52.5741176,27.5241379 52.6635294,27.5241379 52.8423529,27.4344828 C53.0211765,27.4344828 53.2,27.3448276 53.3788235,27.2551724 L58.3858824,25.5517241 L37.8211765,68.3172414 L34.8705882,62.0413793 C34.1552941,60.6068966 32.5458824,60.0689655 31.1152941,60.6965517 C29.6847059,61.4137931 29.1482353,63.0275862 29.7741176,64.462069 L35.3176471,76.0275862 C35.7647059,77.0137931 36.7482353,77.6413793 37.8211765,77.6413793 L37.8211765,77.6413793 C38.8941176,77.6413793 39.8776471,77.0137931 40.3247059,76.0275862 L63.3929412,27.7931034 L65.4494118,32.0068966 C65.6282353,32.4551724 65.8070588,32.7241379 66.0752941,32.9931034 C66.3435294,33.3517241 66.88,33.6206897 67.3270588,33.6206897 C68.3105882,33.6206897 69.0258824,32.8137931 69.0258824,31.9172414 L69.0258824,31.9172414 C69.2941176,31.737931 69.2047059,31.2 68.9364706,30.662069 L68.9364706,30.662069 Z" id="Shape"></path>
                        </g>
                    </g>
                </g>
            </g>
        </g>
    </g>
</svg>