<?xml version="1.0" encoding="UTF-8" standalone="no"?>
<svg width="37px" height="37px" viewBox="0 0 37 37" version="1.1" xmlns="http://www.w3.org/2000/svg" xmlns:xlink="http://www.w3.org/1999/xlink" xmlns:sketch="http://www.bohemiancoding.com/sketch/ns">
    <!-- Generator: Sketch 3.3.3 (12072) - http://www.bohemiancoding.com/sketch -->
    <title>Oval Copy</title>
    <desc>Created with Sketch.</desc>
    <defs>
        <linearGradient x1="0%" y1="0%" x2="101.999998%" y2="100.999999%" id="linearGradient-1">
            <stop stop-color="#DFE3E5" offset="0%"></stop>
            <stop stop-color="#C5CBCD" offset="100%"></stop>
        </linearGradient>
    </defs>
    <g id="Welcome" stroke="none" stroke-width="1" fill="none" fill-rule="evenodd" sketch:type="MSPage">
        <g id="VirgilSecurity---Apps" sketch:type="MSArtboardGroup" transform="translate(-674.000000, -675.000000)" fill="url(#linearGradient-1)">
            <g id="V-Sync" sketch:type="MSLayerGroup" transform="translate(600.000000, 235.000000)">
                <path d="M92.047093,476.895131 C101.988219,476.895131 110.047093,468.836256 110.047093,458.895131 C110.047093,448.954005 101.988219,440.895131 92.047093,440.895131 C82.1059675,440.895131 74.047093,448.954005 74.047093,458.895131 C74.047093,468.836256 82.1059675,476.895131 92.047093,476.895131 L92.047093,476.895131 Z M100.327093,458.427131 L90.607093,458.499131 L90.607093,451.299131 L100.327093,449.895131 L100.327093,458.427131 L100.327093,458.427131 Z M82.399093,459.291131 L82.399093,465.411131 L89.743093,466.419131 L89.743093,459.327131 L82.399093,459.291131 L82.399093,459.291131 Z M90.571093,459.399131 L90.571093,466.527131 L100.327093,467.895131 L100.327093,459.399131 L90.571093,459.399131 L90.571093,459.399131 Z M82.399093,452.451131 L82.399093,458.571131 L89.707093,458.535131 L89.707093,451.479131 L82.399093,452.451131 L82.399093,452.451131 Z" id="Oval-Copy" sketch:type="MSShapeGroup"></path>
            </g>
        </g>
    </g>
</svg>