<?xml version="1.0" encoding="UTF-8" standalone="no"?>
<svg width="117px" height="151px" viewBox="0 0 117 151" version="1.1" xmlns="http://www.w3.org/2000/svg" xmlns:xlink="http://www.w3.org/1999/xlink" xmlns:sketch="http://www.bohemiancoding.com/sketch/ns">
    <!-- Generator: Sketch 3.3.3 (12072) - http://www.bohemiancoding.com/sketch -->
    <title>Shape + Group + C# Copy + Imported Layers Copy</title>
    <desc>Created with Sketch.</desc>
    <defs>
        <path id="path-1" d="M54.2785216,2.84217094e-14 L0,9.99730727 L0,87.9928658 C0,93.995767 2.68520967,100.478961 7.99548994,107.270806 C12.702876,113.278224 19.3677889,119.430181 27.8022941,125.558049 C38.332646,133.180996 49.0674708,138.858683 54.2785216,141.443831 C59.4985933,138.858683 70.2334181,133.182501 80.760763,125.558049 C89.2012821,119.431687 95.8541672,113.27973 100.558546,107.270806 C105.873337,100.471432 108.567568,93.9972727 108.567568,87.9928658 L108.567568,9.99730727 L54.2785216,2.84217094e-14 L54.2785216,2.84217094e-14 Z"></path>
    </defs>
    <g id="Welcome" stroke="none" stroke-width="1" fill="none" fill-rule="evenodd" sketch:type="MSPage">
        <g id="VirgilSecurity---Apps" sketch:type="MSArtboardGroup" transform="translate(-984.000000, -266.000000)">
            <g id="V-Mail" sketch:type="MSLayerGroup" transform="translate(920.000000, 235.000000)">
                <g id="virgil-pass-copy" transform="translate(50.000000, 30.000000)">
                    <g id="Shape-+-Group-+-C#-Copy-+-Imported-Layers-Copy" transform="translate(14.000000, 0.000000)">
                        <g id="Shape-+-Group-+-C#-Copy">
                            <g id="Shape-+-Group">
                                <path d="M57.7320697,1.12520755 L57.7320697,1.12520755 L58.4946639,0.984748889 L59.2572629,1.12518121 L113.546309,11.1224885 L117,11.7584844 L117,15.2750851 L117,93.2706436 C117,100.321387 113.949419,107.661107 108.09279,115.153669 C103.118115,121.507842 96.176749,127.921345 87.4477781,134.257071 C78.5798933,140.679655 69.0055515,146.226616 60.3637234,150.506327 L58.4931204,151.432709 L56.6231539,150.505039 C47.9639867,146.209318 38.412537,140.674339 29.5426317,134.253386 C20.8088661,127.908098 13.8635098,121.496011 8.892005,115.151529 C3.04781382,107.676812 0,100.325689 0,93.2706436 L0,15.2750851 L0,11.7586077 L3.4535481,11.1225148 L57.7320697,1.12520755 Z" id="Path" fill="#9E0B0F" sketch:type="MSShapeGroup"></path>
                                <g id="Shape-+-Rectangle-215" transform="translate(4.216216, 5.277778)">
                                    <mask id="mask-2" sketch:name="Mask" fill="white">
                                        <use xlink:href="#path-1"></use>
                                    </mask>
                                    <use id="Mask" fill="#BB241D" sketch:type="MSShapeGroup" xlink:href="#path-1"></use>
                                    <rect id="Rectangle-215" fill="#DA322C" sketch:type="MSShapeGroup" mask="url(#mask-2)" x="-62.1891892" y="-69.6666667" width="117" height="231.166667"></rect>
                                </g>
                            </g>
                        </g>
                        <g id="Imported-Layers-Copy" transform="translate(18.000000, 28.000000)" stroke="#2C302E" stroke-width="2" fill="#FFFFFF" sketch:type="MSShapeGroup">
                            <path d="M75.509,0.088 L5.47,0.088 L5.469,0.088 C2.719,0.088 0.489,2.317 0.489,5.068 L0.489,75.088 C0.489,77.849 2.728,80.088 5.489,80.088 L75.489,80.088 C78.251,80.088 80.489,77.849 80.489,75.088 L80.489,5.068 C80.489,2.318 78.26,0.088 75.509,0.088 L75.509,0.088 Z M52.929,5.221 L40.489,29.681 L28.049,5.221 L52.929,5.221 L52.929,5.221 Z M22.4,75.088 L22.4,59.204 C22.4,57.786 21.24,56.626 19.822,56.626 C18.405,56.626 17.245,57.786 17.245,59.204 L17.245,75.088 L5.489,75.088 L5.489,8.607 L37.528,75.088 L22.4,75.088 L22.4,75.088 Z M9.495,5.221 L22.229,5.221 L38.161,36.85 C38.583,37.756 39.49,38.334 40.489,38.334 C41.487,38.334 42.395,37.756 42.817,36.85 L58.75,5.221 L71.484,5.221 L40.489,69.232 L9.495,5.221 L9.495,5.221 Z M75.489,75.088 L63.901,75.088 L63.901,59.204 C63.901,57.786 62.741,56.626 61.323,56.626 C59.905,56.626 58.745,57.786 58.745,59.204 L58.745,75.088 L43.449,75.088 L75.489,8.607 L75.489,75.088 L75.489,75.088 Z" id="Fill-2"></path>
                        </g>
                    </g>
                </g>
            </g>
        </g>
    </g>
</svg>