<?xml version="1.0" encoding="UTF-8" standalone="no"?>
<svg width="39px" height="36px" viewBox="0 0 39 36" version="1.1" xmlns="http://www.w3.org/2000/svg" xmlns:xlink="http://www.w3.org/1999/xlink" xmlns:sketch="http://www.bohemiancoding.com/sketch/ns">
    <!-- Generator: Sketch 3.3.3 (12072) - http://www.bohemiancoding.com/sketch -->
    <title>Shape</title>
    <desc>Created with Sketch.</desc>
    <defs>
        <linearGradient x1="0%" y1="0%" x2="101.999998%" y2="100.999999%" id="linearGradient-1">
            <stop stop-color="#1B70BC" offset="0%"></stop>
            <stop stop-color="#234DA5" offset="100%"></stop>
        </linearGradient>
    </defs>
    <g id="Welcome" stroke="none" stroke-width="1" fill="none" fill-rule="evenodd" sketch:type="MSPage">
        <g id="VirgilSecurity---Apps" sketch:type="MSArtboardGroup" transform="translate(-964.000000, -675.000000)" fill="url(#linearGradient-1)">
            <g id="V-Mail" sketch:type="MSLayerGroup" transform="translate(920.000000, 235.000000)">
                <g id="outlook" transform="translate(44.000000, 440.000000)" sketch:type="MSShapeGroup">
                    <path d="M0.195322709,31.8559618 L21.6337434,35.6804351 L21.6337434,0.153529749 L0.195322709,4.31828311 L0.195322709,31.8559618 Z M10.6178092,23.589706 C8.27774808,23.296006 6.38106184,20.7561635 6.38106184,17.9172276 C6.38106184,15.0782916 8.27774808,12.5384491 10.6178092,12.2447492 C12.9578703,11.9510492 14.8545565,14.4908918 14.8545565,17.9172276 C14.8545565,21.3435634 12.9578703,23.8834059 10.6178092,23.589706 Z M38.5382041,8.51637801 L26.7601735,18.3114425 L23.5402064,15.7083491 L23.5402064,7.59065936 L38.5382041,7.59065936 L38.5382041,8.51637801 Z M38.5382041,10.3918409 L26.7601735,20.1869054 L23.5402064,17.5838119 L23.5402064,28.6689008 L38.5382041,28.6689008 L38.5382041,10.3918409 Z M10.6178092,14.4001831 C9.16694197,14.5820907 7.99080097,16.1569892 7.99080097,17.9172276 C7.99080097,19.6774659 9.16694197,21.2523644 10.6178092,21.434272 C12.0686764,21.6161797 13.2448174,20.0417715 13.2448174,17.9172276 C13.2448174,15.7926836 12.0686764,14.2182754 10.6178092,14.4001831 Z" id="Shape"></path>
                </g>
            </g>
        </g>
    </g>
</svg>