<?xml version="1.0" encoding="UTF-8" standalone="no"?>
<svg width="36px" height="36px" viewBox="0 0 36 36" version="1.1" xmlns="http://www.w3.org/2000/svg" xmlns:xlink="http://www.w3.org/1999/xlink" xmlns:sketch="http://www.bohemiancoding.com/sketch/ns">
    <!-- Generator: Sketch 3.3.3 (12072) - http://www.bohemiancoding.com/sketch -->
    <title>path5-5</title>
    <desc>Created with Sketch.</desc>
    <defs>
        <linearGradient x1="0%" y1="0%" x2="101.999998%" y2="100.999999%" id="linearGradient-1">
            <stop stop-color="#DFE3E5" offset="0%"></stop>
            <stop stop-color="#C5CBCD" offset="100%"></stop>
        </linearGradient>
    </defs>
    <g id="Welcome" stroke="none" stroke-width="1" fill="none" fill-rule="evenodd" sketch:type="MSPage">
        <g id="VirgilSecurity---Apps" sketch:type="MSArtboardGroup" transform="translate(-295.000000, -676.000000)" fill="url(#linearGradient-1)">
            <g id="V-Pass" sketch:type="MSLayerGroup" transform="translate(273.000000, 235.000000)">
                <g id="Group" transform="translate(22.000000, 440.000000)" sketch:type="MSShapeGroup">
                    <g id="path5-5">
                        <path d="M18.3469446,27.6870068 C16.5540556,27.6870068 14.9222513,27.2037544 13.4504279,26.2394563 C11.9786045,25.2740549 10.8752886,24.0328244 10.1404801,22.515765 L2.90052042,9.82652803 C1.38346104,12.5395818 0.693888592,15.5737006 0.693888592,18.653056 C0.693888592,23.0663197 2.13040592,26.9168922 5.00344055,30.2036712 C7.87647589,33.4904491 11.4512195,35.4554547 15.7265686,36.0997914 L20.8470585,27.2390605 C20.3318099,27.3902148 19.4723269,27.6870068 18.3469446,27.6870068 Z M12.7961616,11.5157047 C14.4268625,10.252408 16.2782266,9.82652803 18.3469446,9.82652803 L33.5175391,9.82652803 C31.9541406,7.16091676 29.8280506,4.90794498 27.1392692,3.34454632 C24.449385,1.78225098 21.5189779,1 18.3469446,1 C15.5886541,1 13.0135148,1.58586075 10.6237325,2.75868557 C8.23284692,3.93040706 6.02069782,5.6372368 4.39992675,7.82731957 L9.52041661,16.4464235 C10.0257353,14.4703847 11.163254,12.781208 12.7961616,11.5157047 Z M34.672711,12.0331599 L24.4151822,12.0331599 C26.2080705,13.8260482 27.3808953,16.1253586 27.3808953,18.653056 C27.3808953,20.5386229 26.852407,22.2620024 25.7943271,23.825401 L18.554368,36.3061113 C23.3813751,36.259772 27.4956402,34.5132231 30.8982673,31.0653608 C34.2986869,27.6174978 36,23.4800632 36,18.653056 C36,16.4011876 35.6204593,14.0323683 34.672711,12.0331599 Z M18.3469443,25.2729517 C22.0030119,25.2729517 24.9668403,22.3091233 24.9668403,18.6530557 C24.9668403,14.9969882 22.0030119,12.0331598 18.3469443,12.0331598 C14.6908768,12.0331598 11.7270484,14.9969882 11.7270484,18.6530557 C11.7270484,22.3091233 14.6908768,25.2729517 18.3469443,25.2729517 Z"></path>
                    </g>
                </g>
            </g>
        </g>
    </g>
</svg>