<?xml version="1.0" encoding="UTF-8" standalone="no"?>
<svg width="36px" height="36px" viewBox="0 0 36 36" version="1.1" xmlns="http://www.w3.org/2000/svg" xmlns:xlink="http://www.w3.org/1999/xlink" xmlns:sketch="http://www.bohemiancoding.com/sketch/ns">
    <!-- Generator: Sketch 3.3.3 (12072) - http://www.bohemiancoding.com/sketch -->
    <title>path4884-0</title>
    <desc>Created with Sketch.</desc>
    <defs>
        <linearGradient x1="0%" y1="0%" x2="101.999998%" y2="100.999999%" id="linearGradient-1">
            <stop stop-color="#DFE3E5" offset="0%"></stop>
            <stop stop-color="#C5CBCD" offset="100%"></stop>
        </linearGradient>
    </defs>
    <g id="Welcome" stroke="none" stroke-width="1" fill="none" fill-rule="evenodd" sketch:type="MSPage">
        <g id="VirgilSecurity---Apps" sketch:type="MSArtboardGroup" transform="translate(-402.000000, -675.000000)" fill="url(#linearGradient-1)">
            <g id="V-Pass" sketch:type="MSLayerGroup" transform="translate(273.000000, 235.000000)">
                <g id="Group" transform="translate(22.000000, 440.000000)" sketch:type="MSShapeGroup">
                    <g id="path4884-0">
                        <path d="M143,17.9999999 C143,27.9411256 134.941125,36 124.999997,36 C115.058875,36 107,27.9411256 107,17.9999999 C107,8.05887434 115.058875,0 124.999997,0 C134.941125,0 143,8.05887434 143,17.9999999 L143,17.9999999 L143,17.9999999 Z M122.4408,11.4918382 C121.475067,11.5045138 120.643628,11.6938088 119.826753,12.1007598 C117.74082,13.1399261 116.536104,15.3282364 116.536104,18.0854133 C116.536104,20.849008 117.721119,22.9722614 119.814451,23.9655051 C120.379942,24.2338302 120.946756,24.3798512 121.807287,24.4821668 C122.242853,24.4997984 122.650083,24.5305736 123.074333,24.4821668 C123.934864,24.3798512 124.501677,24.2338302 125.067169,23.9655051 C127.160501,22.9722614 128.345495,20.849008 128.345495,18.0854133 C128.345495,15.3282364 127.1408,13.1399261 125.054867,12.1007598 C124.237992,11.6938088 123.406553,11.5045138 122.4408,11.4918382 L122.4408,11.4918382 L122.4408,11.4918382 Z M123.271159,13.4354664 C124.523641,13.7693124 125.432471,14.8993671 125.780652,16.5477301 C126.025223,17.7053819 125.958561,19.0431147 125.608434,20.0966975 C125.063194,21.7375135 123.879419,22.6641277 122.4408,22.6492513 C121.0022,22.6641277 119.818426,21.7375135 119.273186,20.0966975 C118.923059,19.0431147 118.856392,17.7053819 119.100968,16.5477301 C119.449148,14.8993671 120.357979,13.7693124 121.610461,13.4354664 C122.178375,13.3151003 122.74424,13.3367846 123.271159,13.4354664 L123.271159,13.4354664 Z M114.12319,11.4918382 C113.431666,11.4918382 112.871077,12.052431 112.871077,12.7439508 C112.871077,13.4354746 113.431666,13.9960633 114.12319,13.9960633 C114.814714,13.9960633 115.375303,13.4354746 115.375303,12.7439508 C115.375303,12.052431 114.814714,11.4918382 114.12319,11.4918382 L114.12319,11.4918382 Z M112.953183,15.3123212 L112.953183,24.5081584 L115.293197,24.5081584 L115.293197,15.3123212 L112.953183,15.3123212 L112.953183,15.3123212 Z M131.747736,24.4889172 C130.745204,24.3172537 129.780933,24.1842163 128.962473,23.7196568 C128.951547,23.710065 129.445666,21.8638458 129.467974,21.8309149 C130.783473,22.2775676 132.635379,22.90417 133.883989,22.3301831 C134.564742,21.9896154 134.900063,21.3601101 134.78742,20.6341196 C134.660694,19.8173764 134.0951,19.3467399 132.542918,18.7664666 C130.811735,18.1192722 129.796408,17.3236711 129.381479,16.2891981 C129.17746,15.7805474 129.1098,15.1329547 129.201575,14.5672949 C129.456822,12.9941023 130.682409,11.8996104 132.563309,11.5651485 C133.108237,11.4682487 134.273538,11.4672386 134.846901,11.5631775 C135.67322,11.7014297 136.620767,12.0139364 136.620767,12.1482057 C136.620767,12.1977868 136.136576,13.9048053 136.111783,13.9426266 C135.29479,13.619054 134.37856,13.38777 133.603157,13.3833272 C132.505827,13.3680156 131.316054,14.0192627 131.525805,15.1694373 C131.674347,15.8902581 132.134386,16.2421833 133.82744,16.9301595 C135.074399,17.4368639 135.672748,17.7863623 136.185706,18.307631 C136.898363,19.0193445 137.123648,19.8543271 137.128884,20.6819105 C137.130773,21.3713156 137.0665,21.6929254 136.820524,22.2251082 C136.222981,23.5179162 135.004686,24.2692822 133.174985,24.473466 C132.832122,24.5117225 132.024511,24.5204685 131.747736,24.4889213 L131.747736,24.4889172 L131.747736,24.4889172 Z"></path>
                    </g>
                </g>
            </g>
        </g>
    </g>
</svg>