<?xml version="1.0" encoding="UTF-8" standalone="no"?>
<svg width="223px" height="46px" viewBox="0 0 223 46" version="1.1" xmlns="http://www.w3.org/2000/svg" xmlns:xlink="http://www.w3.org/1999/xlink" xmlns:sketch="http://www.bohemiancoding.com/sketch/ns">
    <!-- Generator: Sketch 3.3.3 (12072) - http://www.bohemiancoding.com/sketch -->
    <title>Bloomberg_logo</title>
    <desc>Created with Sketch.</desc>
    <defs></defs>
    <g id="Welcome" stroke="none" stroke-width="1" fill="none" fill-rule="evenodd" sketch:type="MSPage">
        <g id="VirgilSecurity-Landing-Page-New" sketch:type="MSArtboardGroup" transform="translate(-510.000000, -1696.000000)">
            <g id="Bloomberg_logo" sketch:type="MSLayerGroup" transform="translate(510.000000, 1696.000000)">
                <path d="M6.66895994,6.04321766 L11.4788666,6.04321766 C15.8749147,6.04321766 17.8121562,7.44545755 17.8121562,10.2938737 C17.8121562,12.7692031 15.8749147,14.4499548 11.986415,14.4499548 L6.66895994,14.4499548 L6.66895994,6.04321766 L6.66895994,6.04321766 Z M0.84321875,34.0507812 L12.6319163,34.0507812 C18.827253,34.0507812 25.0225898,31.8167293 25.0225898,24.6253164 C25.0225898,20.3746604 22.0702514,17.1114553 17.9560108,16.6393256 L17.9560108,16.5410274 C21.3222077,15.5230444 23.6437991,13.0484596 23.6437991,9.31312491 C23.6437991,3.29012109 18.5513474,1.00468603 13.6034879,1.00468603 L0.84321875,1.00468603 L0.84321875,34.0507812 L0.84321875,34.0507812 Z M6.66895994,19.4884865 L12.2623207,19.4884865 C16.9777997,19.4884865 19.2049635,20.7038107 19.2049635,24.1606336 C19.2049635,28.4954389 15.0339187,29.0122495 12.0299402,29.0122495 L6.66895994,29.0122495 L6.66895994,19.4884865 L6.66895994,19.4884865 Z" id="Shape" fill="#888888" sketch:type="MSShapeGroup"></path>
                <path d="M31.026087,34.0507812 L31.026087,0.225001934" id="Shape" stroke="#888888" stroke-width="5.33617021" sketch:type="MSShapeGroup"></path>
                <path d="M43.6388465,22.8499898 C43.6388465,19.3492306 46.0910136,16.1314512 50.1609913,16.1314512 C54.2309691,16.1314512 56.675759,19.3499752 56.675759,22.8499898 C56.675759,26.3500044 54.2309691,29.5692731 50.1609913,29.5692731 C46.0902759,29.5692731 43.6388465,26.3507491 43.6388465,22.8499898 M38.089011,22.8499898 C38.089011,29.8984234 43.4499913,34.6078048 50.1609913,34.6078048 C56.8638766,34.6078048 62.2329717,29.8991681 62.2329717,22.8499898 C62.2329717,15.8008115 56.8646143,11.0854727 50.1609913,11.0854727 C43.4499913,11.084728 38.089011,15.8015562 38.089011,22.8499898" id="Shape" fill="#888888" sketch:type="MSShapeGroup"></path>
                <path d="M70.285139,22.8499898 C70.285139,19.3492306 72.7373061,16.1314512 76.8072838,16.1314512 C80.8772616,16.1314512 83.3220515,19.3499752 83.3220515,22.8499898 C83.3220515,26.3500044 80.8772616,29.5692731 76.8072838,29.5692731 C72.7373061,29.5692731 70.285139,26.3507491 70.285139,22.8499898 M64.7353035,22.8499898 C64.7353035,29.8984234 70.0970215,34.6078048 76.8072838,34.6078048 C83.510169,34.6078048 88.8792642,29.8991681 88.8792642,22.8499898 C88.8792642,15.8008115 83.5109068,11.0854727 76.8072838,11.0854727 C70.0962838,11.084728 64.7353035,15.8015562 64.7353035,22.8499898" id="Shape" fill="#888888" sketch:type="MSShapeGroup"></path>
                <path d="M92.2594777,11.645475 L97.5334075,11.645475 L97.5334075,15.1499577 L97.620458,15.1499577 C98.5927673,13.0484596 100.718126,11.0817493 104.417771,11.0817493 C107.842247,11.0817493 110.207364,12.432606 111.360414,15.2378304 C112.978224,12.3961165 115.335964,11.0817493 118.658635,11.0817493 C124.578067,11.0817493 126.661376,15.3361287 126.661376,20.7045553 L126.661376,34.0515259 L121.11154,34.0515259 L121.11154,21.3561538 C121.11154,18.5583762 120.284561,16.1307065 116.998037,16.1307065 C113.530773,16.1307065 112.231656,19.023059 112.231656,21.9124327 L112.231656,34.0507812 L106.689198,34.0507812 L106.689198,20.7038107 C106.689198,17.9425226 105.578935,16.1307065 102.895126,16.1307065 C99.2456458,16.1307065 97.8093132,18.8294412 97.8093132,21.8208366 L97.8093132,34.0507812 L92.2594777,34.0507812 L92.2594777,11.645475 L92.2594777,11.645475 Z" id="Shape" fill="#888888" sketch:type="MSShapeGroup"></path>
                <path d="M149.564499,22.8499898 C149.564499,26.3544725 147.119709,29.5692731 143.042354,29.5692731 C138.971638,29.5692731 136.520209,26.3544725 136.520209,22.8499898 C136.520209,19.3492306 138.971638,16.1232597 143.042354,16.1232597 C147.119709,16.1232597 149.564499,19.3492306 149.564499,22.8499898 L149.564499,22.8499898 Z M131.159229,34.0507812 L136.433158,34.0507812 L136.433158,30.6922565 L136.520209,30.6922565 C138.144659,33.3909912 141.05421,34.6070601 144.158518,34.6070601 C150.992716,34.6070601 155.113596,29.4732089 155.113596,22.8492451 C155.113596,16.2215579 150.717548,11.084728 144.384259,11.084728 C140.226493,11.084728 138.000067,13.0402681 136.846279,14.4976146 L136.708326,14.4976146 L136.708326,0.225001934 L131.158491,0.225001934 L131.158491,34.0507812 L131.159229,34.0507812 Z" id="Shape" fill="#888888" sketch:type="MSShapeGroup"></path>
                <path d="M163.173879,20.6092358 C163.587737,17.3832649 165.626046,15.2854902 168.905192,15.2854902 C172.373194,15.2854902 174.498553,17.3400732 174.549455,20.6092358 L163.173879,20.6092358 L163.173879,20.6092358 Z M180.099291,24.8092533 L180.099291,23.2714809 C180.099291,15.4724059 175.892098,11.0854727 169.696023,11.0854727 C162.978384,11.0854727 157.624043,15.8015562 157.624043,22.8499898 C157.624043,29.8984234 162.978384,34.6078048 169.696023,34.6078048 C173.200173,34.6078048 176.493336,33.3485442 179.076079,30.1329989 L175.100529,27.1051139 C173.715099,28.8230998 171.908433,30.1329989 169.136835,30.1329989 C166.039904,30.1329989 163.536097,28.1230969 163.173879,24.8092533 L180.099291,24.8092533 L180.099291,24.8092533 Z" id="Shape" fill="#888888" sketch:type="MSShapeGroup"></path>
                <path d="M183.711885,11.645475 L189.26172,11.645475 L189.26172,15.1938941 L189.356148,15.1938941 C190.5601,12.6269685 193.00489,11.0817493 195.92108,11.0817493 C196.617484,11.0817493 197.262985,11.2247286 197.908486,11.414623 L197.908486,16.826986 C196.987079,16.596134 196.102558,16.4092183 195.223939,16.4092183 C190.000911,16.4092183 189.260983,20.84679 189.260983,22.0628589 L189.260983,34.0515259 L183.711147,34.0515259 L183.711147,11.645475 L183.711885,11.645475 Z" id="Shape" fill="#888888" sketch:type="MSShapeGroup"></path>
                <path d="M210.322767,16.1307065 C214.341842,16.1307065 216.887699,18.8294412 216.887699,22.7137127 C216.887699,26.4416005 214.392007,29.2900167 210.278504,29.2900167 C206.535334,29.2900167 203.756359,26.3500044 203.756359,22.8015854 C203.756359,18.8294412 206.43353,16.1307065 210.322767,16.1307065 L210.322767,16.1307065 Z M216.887699,11.645475 L216.887699,15.0069784 L216.800649,15.0069784 C215.176199,12.2970735 212.260008,11.0817493 209.16234,11.0817493 C202.321502,11.0817493 198.207261,16.2185792 198.207261,22.8499898 C198.207261,29.1917184 202.603309,34.329293 209.256768,34.329293 C212.035005,34.329293 214.900293,33.2599268 216.526219,31.0668326 L216.605154,31.0668326 L216.605154,32.7036479 C216.605154,37.1337727 214.951195,40.217509 209.582838,40.217509 C206.48517,40.217509 204.170218,39.0453764 201.950431,36.9803678 L198.627759,41.5638976 C201.761576,44.3758242 205.512123,45.2552959 209.633003,45.2552959 C218.281244,45.2552959 222.161629,40.1147426 222.161629,32.0438579 L222.161629,11.645475 L216.887699,11.645475 L216.887699,11.645475 Z" id="Shape" fill="#888888" sketch:type="MSShapeGroup"></path>
            </g>
        </g>
    </g>
</svg>