<?xml version="1.0" encoding="UTF-8" standalone="no"?>
<svg width="26px" height="22px" viewBox="0 0 26 22" version="1.1" xmlns="http://www.w3.org/2000/svg" xmlns:xlink="http://www.w3.org/1999/xlink" xmlns:sketch="http://www.bohemiancoding.com/sketch/ns">
    <!-- Generator: Sketch 3.3.3 (12081) - http://www.bohemiancoding.com/sketch -->
    <title>Shape</title>
    <desc>Created with Sketch.</desc>
    <defs></defs>
    <g id="Welcome" stroke="none" stroke-width="1" fill="none" fill-rule="evenodd" sketch:type="MSPage">
        <g id="VirgilSecurity-Landing-Page-New" sketch:type="MSArtboardGroup" transform="translate(-240.000000, -725.000000)" fill="#FACB63">
            <g id="noun_3766_cc" sketch:type="MSLayerGroup" transform="translate(240.000000, 725.000000)">
                <path d="M4.8152,0 C2.49106,0.038372093 0,1.52644186 0,4.74253488 L0,12.5627674 C0.02782,14.7128837 1.39724,16.9852791 4.27674,17.2538837 L4.27674,21.9260698 C4.27674,21.9260698 11.0487,17.4897442 11.34042,17.3055581 L21.18012,17.3055581 C23.50894,17.2758837 26,15.778093 26,12.5627674 L26,4.73639535 C25.96776,2.44737209 24.44468,0 21.18012,0 L4.8152,0 L4.8152,0 Z M1.21888,12.5576512 L1.21888,4.74253488 C1.21888,1.34686047 4.45614,1.20206977 4.82534,1.199 L21.18012,1.199 C24.62694,1.199 24.778,4.37493023 24.78138,4.74202326 L24.78138,12.5627674 C24.78138,15.9574186 21.53866,16.1032326 21.17492,16.1063023 L10.97252,16.1063023 C10.97252,16.1063023 6.85802,18.7897907 5.49562,19.6846279 L5.49562,16.1063023 L4.8152,16.1063023 C1.36916,16.1060465 1.22174,12.9155349 1.21888,12.5576512 L1.21888,12.5576512 Z" id="Shape" sketch:type="MSShapeGroup"></path>
            </g>
        </g>
    </g>
</svg>