<?xml version="1.0" encoding="UTF-8" standalone="no"?>
<svg width="119px" height="128px" viewBox="0 0 119 128" version="1.1" xmlns="http://www.w3.org/2000/svg" xmlns:xlink="http://www.w3.org/1999/xlink" xmlns:sketch="http://www.bohemiancoding.com/sketch/ns">
    <!-- Generator: Sketch 3.5.1 (25234) - http://www.bohemiancoding.com/sketch -->
    <title>Group 6</title>
    <desc>Created with Sketch.</desc>
    <defs>
        <path id="path-1" d="M46.3830304,0.903127112 L46.3830304,0.903127112 L46.9957129,0.790390556 L47.6083993,0.903105972 L91.2252396,8.92726049 L94,9.4377309 L94,12.2602656 L94,74.8619639 C94,80.5211134 91.5491059,86.4122041 86.8437796,92.4259712 C82.8470326,97.5260313 77.2702086,102.673711 70.2571892,107.758964 C63.1325638,112.913934 55.4403576,117.3661 48.4973504,120.801131 L46.9944728,121.544675 L45.4921066,120.800097 C38.5351688,117.352216 30.8613545,112.909667 23.7351058,107.756007 C16.7182343,102.663079 11.1382045,97.5165354 7.14400402,92.4242537 C2.44867093,86.4248097 0,80.5245661 0,74.8619639 L0,12.2602656 L0,9.43782987 L2.77464548,8.92728163 L46.3830304,0.903127112 Z"></path>
    </defs>
    <g id="Page-1" stroke="none" stroke-width="1" fill="none" fill-rule="evenodd" sketch:type="MSPage">
        <g id="VirgilSecurity---developers" sketch:type="MSArtboardGroup" transform="translate(-432.000000, -194.000000)">
            <g id="V-Pass-+-V-Pass-Copy" sketch:type="MSLayerGroup" transform="translate(339.000000, 197.000000)">
                <g id="V-Pass">
                    <g id="Group-6" transform="translate(88.000000, 0.000000)">
                        <g id="Shape-+-Group-+-C#-Copy-+-Untitled-1" transform="translate(15.000000, 0.000000)">
                            <g id="Shape-+-Group-+-C#-Copy">
                                <g id="Shape-+-Group">
                                    <mask id="mask-2" sketch:name="Mask" fill="white">
                                        <use xlink:href="#path-1"></use>
                                    </mask>
                                    <use id="Mask" stroke="#2C302E" stroke-width="3" fill="#BB241D" sketch:type="MSShapeGroup" xlink:href="#path-1"></use>
                                    <g id="Shape-+-Rectangle-215" mask="url(#mask-2)" fill="#DA322C" sketch:type="MSShapeGroup">
                                        <g transform="translate(-46.612613, -51.763889)" id="Rectangle-215">
                                            <rect x="0.036036036" y="0.0833333333" width="94" height="185.541667"></rect>
                                        </g>
                                    </g>
                                </g>
                            </g>
                        </g>
                        <g id="noun_18125_cc-+-noun_18125_cc-copy" transform="translate(0.000000, 14.000000)" stroke="#2C302E" sketch:type="MSShapeGroup">
                            <g id="noun_18125_cc" transform="translate(49.600645, 0.000000)">
                                <path d="M41.4757035,0 L32.8622035,0 L31.2059612,0 C30.1022638,0 28.9037793,0.845683541 28.5284188,1.89070288 L27.9786891,3.42117349 L26.1001807,8.67887205 C25.6944108,8.83621945 25.2880334,9.00172114 24.8880341,9.17990726 L19.8235026,6.77771676 L18.3266494,6.07203111 C17.3291667,5.60177179 15.8811175,5.85630703 15.1060579,6.62691324 L13.9337638,7.79247161 L7.84296232,13.8432494 L6.67080581,15.0105871 C5.88969664,15.788485 5.6440294,17.2310357 6.11377901,18.2151965 L6.82428534,19.7037607 L9.23187401,24.7482399 C9.05662756,25.1456856 8.89018898,25.5434332 8.73407689,25.945107 L3.44874093,27.8172693 L1.8858197,28.3672004 C0.844310241,28.7336671 -7.10542736e-15,29.9306295 -7.10542736e-15,31.0213866 L-7.10542736e-15,32.67118 L-7.10542736e-15,41.2383082 L-7.10542736e-15,42.8891966 C-7.10542736e-15,43.9893261 0.852497967,45.1815661 1.8858197,45.5456947 L3.44874093,46.0964471 L8.73407689,47.9664953 C8.89018898,48.3636389 9.05662756,48.7698429 9.23187401,49.1633624 L6.82428534,54.2036135 L6.11364137,55.692862 C5.64007788,56.685277 5.89553353,58.1260666 6.67050209,58.8973063 L7.8426586,60.0638227 L13.9340675,66.1188287 L15.1063617,67.2826078 C15.8875626,68.0581343 17.3373121,68.3018308 18.3269531,67.8351779 L19.8238063,67.1293554 L24.8883378,64.7335071 C25.2901594,64.905049 25.6944108,65.0708527 26.1004844,65.2285021 L27.9789928,70.4883147 L28.5287225,72.0186502 C28.903791,73.0627644 30.1117697,73.9091862 31.2074274,73.9091862 L32.8646332,73.9091862 L41.4778295,73.9091862 L43.1331083,73.9091862 C44.2361636,73.9091862 45.4341277,73.0635773 45.8094881,72.0186502 L46.3592178,70.4883147 L48.2377262,65.2285021 C48.645926,65.0711547 49.0501773,64.905351 49.4495691,64.7335071 L54.5144044,67.1293554 L56.0112576,67.8351779 C57.0087402,68.3055284 58.4567144,68.0520376 59.2316829,67.2826078 L60.4038394,66.1188287 L66.4973744,60.0638227 L67.6695309,58.8973063 C68.4506401,58.1199556 68.6957067,56.6774752 68.2252291,55.692862 L67.5136216,54.2036135 L65.1063367,49.1633624 C65.2812794,48.7659167 65.447718,48.3639409 65.6062598,47.9664953 L70.8915958,46.0964471 L72.4543794,45.5456947 C73.4957971,45.1786808 74.340033,43.9806775 74.340033,42.8891966 L74.340033,41.2383082 L74.340033,32.67118 L74.340033,31.0213866 C74.340033,29.9219867 73.4876101,28.7307861 72.4543794,28.3672004 L70.8915958,27.8172693 L65.6062598,25.945107 C65.4480217,25.5434332 65.2815831,25.1414574 65.1063367,24.7482399 L67.5136216,19.7037607 L68.2252291,18.2153333 C68.6994346,17.2234656 68.4444995,15.7826716 67.6695309,15.0108891 L66.4973744,13.8435514 L60.4035357,7.79247161 L59.2313792,6.62691324 C58.45027,5.85020098 57.00067,5.60546869 56.0111199,6.07203111 L54.5144044,6.77771676 L49.4495691,9.17990726 C49.0480513,9.00202315 48.645926,8.83621945 48.2377262,8.67887205 L46.3592178,3.42117349 L45.8085371,1.89070288 C45.4328197,0.846496512 44.225366,0 43.1309823,0 L41.4757035,0 Z" id="Shape" stroke-width="3" stroke-linejoin="round" fill="#A6A9A8"></path>
                                <ellipse id="Oval-89" stroke-width="2" fill="#FFFFFF" cx="37.7418629" cy="36.3921569" rx="9.14954252" ry="9.09803922"></ellipse>
                                <path d="M37.7418629,51.1764706 C45.9532362,51.1764706 52.6098695,44.5573079 52.6098695,36.3921569 C52.6098695,28.2270059 45.9532362,21.6078431 37.7418629,21.6078431 C29.5304896,21.6078431 22.8738563,28.2270059 22.8738563,36.3921569 C22.8738563,44.5573079 29.5304896,51.1764706 37.7418629,51.1764706 Z" id="Oval-89"></path>
                            </g>
                            <g id="noun_18125_cc-copy" transform="translate(30.718175, 61.752186) rotate(-14.000000) translate(-30.718175, -61.752186) translate(5.718175, 37.252186)">
                                <path d="M27.4377731,-4.97379915e-14 L21.7396115,-4.97379915e-14 L21.3184803,-4.97379915e-14 C20.2158057,-4.97379915e-14 19.0192053,0.842746239 18.6432182,1.88951015 L18.5089789,2.26323785 L17.2662734,5.74140766 C16.997841,5.84549902 16.7290067,5.95498475 16.4643918,6.07286172 L13.1140094,4.48372032 L12.7334059,4.30428626 C11.7368476,3.83446271 10.2917686,4.08714304 9.51579884,4.8586542 L9.21772066,5.15501968 L5.18842123,9.15784192 L4.89037804,9.45465981 C4.1099927,10.2318369 3.86356617,11.6709831 4.33858686,12.6661872 L4.51452723,13.0347955 L6.10723973,16.3719126 C5.99130746,16.6348381 5.88120194,16.8979635 5.77792779,17.1636862 L2.28147477,18.4021935 L1.8840722,18.542024 C0.843527854,18.9081511 1.01962883e-12,20.1017127 1.01962883e-12,21.2047092 L1.01962883e-12,21.6132422 L1.01962883e-12,27.280727 L1.01962883e-12,27.7004969 C1.01962883e-12,28.799607 0.849536997,29.9899771 1.8840722,30.3545334 L2.28147477,30.4945727 L5.77792779,31.7316815 C5.88120194,31.9944073 5.99130746,32.2631268 6.10723973,32.5234551 L4.51452723,35.8577751 L4.33855277,36.2265528 C3.86282114,37.2235115 4.1142985,38.6657745 4.89017712,39.4379198 L5.1882203,39.7345289 L9.21792158,43.7401482 L9.51599976,44.0360613 C10.2964767,44.8108692 11.7428036,45.0553203 12.7336068,44.5881193 L13.1142103,44.4086505 L16.4645927,42.8237047 C16.7304131,42.9371862 16.997841,43.0468718 17.2664743,43.1511629 L18.5091799,46.6307313 L18.6434191,47.004426 C19.018251,48.0478815 20.2228983,48.8937693 21.3198427,48.8937693 L21.7412189,48.8937693 L27.4391795,48.8937693 L27.8600658,48.8937693 C28.9620989,48.8937693 30.1581793,48.0510975 30.5341664,47.004426 L30.6684057,46.6307313 L31.9111112,43.1511629 C32.181151,43.0470716 32.4485788,42.937386 32.7127919,42.8237047 L36.0633752,44.4086505 L36.4439787,44.5881193 C37.440537,45.058034 38.8855412,44.8063947 39.6614198,44.0360613 L39.959463,43.7401482 L43.9905708,39.7345289 L44.2886139,39.4379198 C45.0689993,38.6612894 45.3148273,37.2222144 44.8390704,36.2265528 L44.6628574,35.8577751 L43.0703458,32.5234551 C43.1860771,32.2605295 43.2961827,31.9946071 43.4010642,31.7316815 L46.8975172,30.4945727 L47.2948848,30.3545334 C48.3353375,29.9878596 49.1787911,28.7932596 49.1787911,27.7004969 L49.1787911,27.280727 L49.1787911,21.6132422 L49.1787911,21.2047092 C49.1787911,20.1002758 48.3293289,18.9060367 47.2948848,18.542024 L46.8975172,18.4021935 L43.4010642,17.1636862 C43.2963836,16.8979635 43.1862781,16.6320411 43.0703458,16.3719126 L44.6628574,13.0347955 L44.8390704,12.6662211 C45.315447,11.6698122 45.0644926,10.2275485 44.2886139,9.4548596 L43.9905708,9.15804171 L39.9592621,5.15501968 L39.6612189,4.8586542 C38.8808336,4.08266169 37.4346558,3.83717594 36.4439437,4.30428626 L36.0633752,4.48372032 L32.7127919,6.07286172 C32.4471724,5.95518454 32.181151,5.84549902 31.9111112,5.74140766 L30.6684057,2.26323785 L30.5339342,1.88951015 C30.1584538,0.845962509 28.9543282,-4.97379915e-14 27.8586593,-4.97379915e-14 L27.4377731,-4.97379915e-14 Z" id="Shape" stroke-width="3" fill="#A6A9A8"></path>
                                <ellipse id="Oval-89" stroke-width="2" fill="#FFFFFF" cx="24.9676939" cy="24.0748115" rx="6.05277428" ry="6.01870287"></ellipse>
                                <ellipse id="Oval-89" cx="24.9676939" cy="24.0748115" rx="10.5219739" ry="10.4627451"></ellipse>
                            </g>
                        </g>
                    </g>
                </g>
            </g>
        </g>
    </g>
</svg>