<?xml version="1.0" encoding="UTF-8" standalone="no"?>
<svg width="36px" height="36px" viewBox="0 0 36 36" version="1.1" xmlns="http://www.w3.org/2000/svg" xmlns:xlink="http://www.w3.org/1999/xlink" xmlns:sketch="http://www.bohemiancoding.com/sketch/ns">
    <!-- Generator: Sketch 3.3.3 (12081) - http://www.bohemiancoding.com/sketch -->
    <title>Fill 183 + Path</title>
    <desc>Created with Sketch.</desc>
    <defs></defs>
    <g id="Welcome" stroke="none" stroke-width="1" fill="none" fill-rule="evenodd" sketch:type="MSPage">
        <g id="VirgilSecurity-Landing-Page-New" sketch:type="MSArtboardGroup" transform="translate(-989.000000, -3612.000000)" fill="#FFFFFF">
            <g id="Group" sketch:type="MSLayerGroup" transform="translate(2.000000, 3403.000000)">
                <g id="Fill-183-+-Path" transform="translate(987.000000, 209.000000)" sketch:type="MSShapeGroup">
                    <path d="M18,2 C9.164,2 2,9.163 2,18 C2,26.836 9.164,34 18,34 C26.837,34 34,26.836 34,18 C34,9.163 26.837,2 18,2 L18,2 L18,2 Z M18,0 L18,0 C27.9415695,0 36,8.0584305 36,18 C36,27.9408956 27.9412435,36 18,36 C8.0594305,36 0,27.9405695 0,18 C0,8.05875653 8.05910445,0 18,0 L18,0 Z" id="Shape"></path>
                    <path d="M22.155,12.656 L20.649,12.657 C19.468,12.657 19.239,13.218 19.239,14.041 L19.239,15.857 L22.056,15.857 L21.689,18.702 L19.239,18.702 L19.239,26 L16.302,26 L16.302,18.702 L13.846,18.702 L13.846,15.857 L16.302,15.857 L16.302,13.76 C16.302,11.325 17.789,10 19.96,10 C21,10 21.894,10.077 22.155,10.112 L22.155,12.656 Z" id="Path"></path>
                </g>
            </g>
        </g>
    </g>
</svg>