<?xml version="1.0" encoding="UTF-8" standalone="no"?>
<svg width="90px" height="51px" viewBox="0 0 90 51" version="1.1" xmlns="http://www.w3.org/2000/svg" xmlns:xlink="http://www.w3.org/1999/xlink" xmlns:sketch="http://www.bohemiancoding.com/sketch/ns">
    <!-- Generator: Sketch 3.5.1 (25234) - http://www.bohemiancoding.com/sketch -->
    <title>Group 3</title>
    <desc>Created with Sketch.</desc>
    <defs>
        <path id="path-1" d="M10.7914235,0.217380143 L0.17407182,2.11922162 L0.17407182,16.9567358 C0.17407182,18.0986999 0.699322224,19.3320327 1.73805931,20.6240819 C2.65886503,21.7669053 3.96258006,22.9372253 5.61244275,24.1029624 C7.67227133,25.5531166 9.77209657,26.6332136 10.7914235,27.125 C11.812515,26.6332136 13.9123402,25.553403 15.9715806,24.1029624 C17.6226197,22.9375117 18.923982,21.7671918 19.8441995,20.6240819 C20.8838189,19.3306006 21.4108338,18.0989864 21.4108338,16.9567358 L21.4108338,2.11922162 L10.7914235,0.217380143 L10.7914235,0.217380143 Z"></path>
    </defs>
    <g id="Page-1" stroke="none" stroke-width="1" fill="none" fill-rule="evenodd" sketch:type="MSPage">
        <g id="VirgilSecurity---developers" sketch:type="MSArtboardGroup" transform="translate(-1015.000000, -710.000000)">
            <g id="Group-2-Copy-2" sketch:type="MSLayerGroup" transform="translate(920.000000, 713.000000)">
                <g id="Group-3" transform="translate(98.000000, 0.000000)">
                    <rect id="Rectangle-829" stroke="#2C302E" stroke-width="3" sketch:type="MSShapeGroup" x="0" y="0" width="84" height="45" rx="6"></rect>
                    <g id="Group" transform="translate(9.000000, 7.000000)">
                        <g id="shield-copy-2" transform="translate(0.245283, 0.000000)">
                            <g id="Mask-+-Rectangle-94">
                                <path d="M12.4472036,0.486795029 L12.4472036,0.486795029 L12.7536579,0.431901158 L13.0601142,0.486784726 L23.6795245,2.3886262 L25.0900791,2.64124393 L25.0900791,4.05672162 L25.0900791,18.8942358 C25.0900791,20.4625502 24.4139974,22.0445237 23.1505688,23.6164648 C22.1208136,24.8956442 20.7025607,26.1700482 18.9309626,27.4205991 C17.1509996,28.6743286 15.2375307,29.7524575 13.5064268,30.5862059 L12.7530362,30.94906 L11.9998964,30.5856987 C10.2656586,29.7489951 8.35695076,28.6732999 6.57551975,27.4191393 C4.80402131,26.1674584 3.38523046,24.8935848 2.35552857,23.6156074 C1.09483054,22.0474686 0.419354839,20.4630203 0.419354839,18.8942358 L0.419354839,4.05672162 L0.419354839,2.64129291 L1.82985195,2.38863651 L12.4472036,0.486795029 Z" id="Shape" fill="#9E0B0F" sketch:type="MSShapeGroup"></path>
                                <g id="Path-+-Rectangle-94" transform="translate(1.962264, 1.937500)">
                                    <mask id="mask-2" sketch:name="Mask" fill="white">
                                        <use xlink:href="#path-1"></use>
                                    </mask>
                                    <use id="Mask" fill="#BB241D" sketch:type="MSShapeGroup" xlink:href="#path-1"></use>
                                    <rect id="Rectangle-94" fill="#DA322C" sketch:type="MSShapeGroup" mask="url(#mask-2)" x="-15.3183201" y="-10.171875" width="26.110773" height="45.7734375"></rect>
                                </g>
                            </g>
                            <path d="M12.7861471,19.7448586 L8.22973903,8.040625 L6.11298251,8.040625 L12.8040858,24.3486419 L19.495189,8.040625 L17.5040028,8.040625 L12.7861471,19.7448586 L12.7861471,19.7448586 Z" id="Shape-Copy" fill="#FFFFFF" sketch:type="MSShapeGroup"></path>
                        </g>
                    </g>
                    <rect id="Rectangle-831" fill="#D8D8D8" sketch:type="MSShapeGroup" x="42" y="10" width="31" height="5"></rect>
                    <rect id="Rectangle-831" fill="#D8D8D8" sketch:type="MSShapeGroup" x="42" y="20" width="31" height="5"></rect>
                    <rect id="Rectangle-831" fill="#D8D8D8" sketch:type="MSShapeGroup" x="42" y="30" width="31" height="5"></rect>
                </g>
            </g>
        </g>
    </g>
</svg>