<?xml version="1.0" encoding="UTF-8" standalone="no"?>
<svg width="36px" height="36px" viewBox="0 0 36 36" version="1.1" xmlns="http://www.w3.org/2000/svg" xmlns:xlink="http://www.w3.org/1999/xlink" xmlns:sketch="http://www.bohemiancoding.com/sketch/ns">
    <!-- Generator: Sketch 3.3.3 (12081) - http://www.bohemiancoding.com/sketch -->
    <title>Imported Layers</title>
    <desc>Created with Sketch.</desc>
    <defs></defs>
    <g id="Welcome" stroke="none" stroke-width="1" fill="none" fill-rule="evenodd" sketch:type="MSPage">
        <g id="VirgilSecurity-Landing-Page-New" sketch:type="MSArtboardGroup" transform="translate(-1119.000000, -3673.000000)" fill="#FFFFFF">
            <g id="Group" sketch:type="MSLayerGroup" transform="translate(2.000000, 3403.000000)">
                <path d="M1134.51351,270 C1124.84119,270 1117,277.840216 1117,287.513514 C1117,297.184865 1124.84119,305.027027 1134.51351,305.027027 C1144.18584,305.027027 1152.02703,297.184865 1152.02703,287.513514 C1152.02703,277.840216 1144.18584,270 1134.51351,270 L1134.51351,270 Z M1126.98562,284.903027 L1130.21492,284.903027 L1130.21492,295.282703 L1126.98562,295.282703 L1126.98562,284.903027 Z M1128.60173,283.485405 C1127.56551,283.485405 1126.72973,282.646703 1126.72973,281.614378 C1126.72973,280.582054 1127.56551,279.743351 1128.60173,279.743351 C1129.63308,279.743351 1130.47081,280.582054 1130.47081,281.614378 C1130.47081,282.646703 1129.63308,283.485405 1128.60173,283.485405 L1128.60173,283.485405 Z M1142.2973,295.282703 L1139.07189,295.282703 L1139.07189,290.234919 C1139.07189,289.031351 1139.05049,287.483351 1137.39546,287.483351 C1135.71708,287.483351 1135.46119,288.794919 1135.46119,290.149297 L1135.46119,295.282703 L1132.2387,295.282703 L1132.2387,284.903027 L1135.33081,284.903027 L1135.33081,286.322595 L1135.37557,286.322595 C1135.80562,285.50627 1136.85838,284.645189 1138.42778,284.645189 C1141.69405,284.645189 1142.2973,286.794486 1142.2973,289.589838 L1142.2973,295.282703 L1142.2973,295.282703 Z" id="Imported-Layers" sketch:type="MSShapeGroup"></path>
            </g>
        </g>
    </g>
</svg>