<?xml version="1.0" encoding="UTF-8" standalone="no"?>
<svg width="36px" height="36px" viewBox="0 0 36 36" version="1.1" xmlns="http://www.w3.org/2000/svg" xmlns:xlink="http://www.w3.org/1999/xlink" xmlns:sketch="http://www.bohemiancoding.com/sketch/ns">
    <!-- Generator: Sketch 3.3.3 (12081) - http://www.bohemiancoding.com/sketch -->
    <title>Fill 209 + Shape Copy 6</title>
    <desc>Created with Sketch.</desc>
    <defs></defs>
    <g id="Welcome" stroke="none" stroke-width="1" fill="none" fill-rule="evenodd" sketch:type="MSPage">
        <g id="VirgilSecurity-Landing-Page-New" sketch:type="MSArtboardGroup" transform="translate(-1110.000000, -3615.000000)" fill="#FFFFFF">
            <g id="Group" sketch:type="MSLayerGroup" transform="translate(2.000000, 3403.000000)">
                <g id="Fill-209-+-Shape-Copy-6" transform="translate(1108.000000, 212.000000)" sketch:type="MSShapeGroup">
                    <path d="M26,25.971 L22.685,25.971 L22.685,20.783 C22.685,19.546 22.663,17.955 20.962,17.955 C19.237,17.955 18.974,19.303 18.974,20.695 L18.974,25.971 L15.662,25.971 L15.662,15.303 L18.84,15.303 L18.84,16.762 L18.886,16.762 C19.328,15.923 20.41,15.038 22.023,15.038 C25.38,15.038 26,17.247 26,20.12 L26,25.971 Z M11.924,13.846 C10.859,13.846 10,12.984 10,11.923 C10,10.862 10.859,10 11.924,10 C12.984,10 13.845,10.862 13.845,11.923 C13.845,12.984 12.984,13.846 11.924,13.846 L11.924,13.846 Z M13.582,25.971 L10.263,25.971 L10.263,15.303 L13.582,15.303 L13.582,25.971 Z" id="Fill-209"></path>
                    <path d="M18,2 C9.164,2 2,9.163 2,18 C2,26.836 9.164,34 18,34 C26.837,34 34,26.836 34,18 C34,9.163 26.837,2 18,2 L18,2 L18,2 Z M18,0 L18,0 C27.9415695,0 36,8.0584305 36,18 C36,27.9408956 27.9412435,36 18,36 C8.0594305,36 0,27.9405695 0,18 C0,8.05875653 8.05910445,0 18,0 L18,0 Z" id="Shape-Copy-6"></path>
                </g>
            </g>
        </g>
    </g>
</svg>