<?xml version="1.0" encoding="UTF-8" standalone="no"?>
<svg width="913px" height="350px" viewBox="0 0 913 350" version="1.1" xmlns="http://www.w3.org/2000/svg" xmlns:xlink="http://www.w3.org/1999/xlink" xmlns:sketch="http://www.bohemiancoding.com/sketch/ns">
    <!-- Generator: Sketch 3.5.1 (25234) - http://www.bohemiancoding.com/sketch -->
    <title>Group Copy</title>
    <desc>Created with Sketch.</desc>
    <defs>
        <path id="path-1" d="M61.9912917,17.1501771 L61.9912917,17.1501771 L61.9912917,16.9980425 C62.0242917,16.5326306 62.0462917,15.9991585 62.0432917,15.4216475 C62.0772917,12.0086271 61.2502917,6.83104517 56.1462917,5.57193091 C48.3672917,3.65423384 41.9152917,0.73064659 41.9152917,0.73064659 C36.9605494,1.91252524 34.2229685,4.787929 31.3919301,4.88777395 C28.5671794,4.98739715 25.6493858,2.31489485 20.3432917,0.411364039 C20.2962917,0.434384411 13.6482917,3.66124004 5.8972917,5.5729318 C0.781291705,6.83304694 -0.0377082951,12.0336492 0.0012917049,15.4466696 C-0.0017082951,15.8960673 0.0112917049,16.319442 0.0272917049,16.7027812 C0.0272917049,16.7027812 0.0252917049,16.8669265 0.0262917049,17.1441718 C0.0252917049,17.3983968 0.0262917049,18.0209477 0.0552917049,18.7936315 C9.3922917,23.1034455 19.8812917,25.5225864 30.9672917,25.5225864 C42.0862917,25.5225864 52.6052917,23.0884322 61.9642917,18.754597 C61.9922917,18.0059345 61.9922917,17.4034012 61.9912917,17.1501771 L61.9912917,17.1501771 Z"></path>
        <path id="path-3" d="M15.2485455,0.3128234 L0.245967742,3.0496903 L0.245967742,24.4017861 C0.245967742,26.0451427 0.988159419,27.8199844 2.45592034,29.6793228 C3.75704136,31.323916 5.59922261,33.0080783 7.93051897,34.6856459 C10.8411072,36.7725069 13.8082116,38.3268329 15.2485455,39.0345438 C16.6913728,38.3268329 19.6584773,36.772919 22.5682343,34.6856459 C24.901193,33.0084905 26.7400497,31.3243282 28.0403396,29.6793228 C29.5093472,27.8179235 30.2540323,26.0455549 30.2540323,24.4017861 L30.2540323,3.0496903 L15.2485455,0.3128234 L15.2485455,0.3128234 Z"></path>
        <path id="path-5" d="M61.9912917,17.1501771 L61.9912917,17.1501771 L61.9912917,16.9980425 C62.0242917,16.5326306 62.0462917,15.9991585 62.0432917,15.4216475 C62.0772917,12.0086271 61.2502917,6.83104517 56.1462917,5.57193091 C48.3672917,3.65423384 41.9152917,0.73064659 41.9152917,0.73064659 C36.9605494,1.91252524 34.2229685,4.787929 31.3919301,4.88777395 C28.5671794,4.98739715 25.6493858,2.31489485 20.3432917,0.411364039 C20.2962917,0.434384411 13.6482917,3.66124004 5.8972917,5.5729318 C0.781291705,6.83304694 -0.0377082951,12.0336492 0.0012917049,15.4466696 C-0.0017082951,15.8960673 0.0112917049,16.319442 0.0272917049,16.7027812 C0.0272917049,16.7027812 0.0252917049,16.8669265 0.0262917049,17.1441718 C0.0252917049,17.3983968 0.0262917049,18.0209477 0.0552917049,18.7936315 C9.3922917,23.1034455 19.8812917,25.5225864 30.9672917,25.5225864 C42.0862917,25.5225864 52.6052917,23.0884322 61.9642917,18.754597 C61.9922917,18.0059345 61.9922917,17.4034012 61.9912917,17.1501771 L61.9912917,17.1501771 Z"></path>
        <path id="path-7" d="M15.2485455,0.3128234 L0.245967742,3.0496903 L0.245967742,24.4017861 C0.245967742,26.0451427 0.988159419,27.8199844 2.45592034,29.6793228 C3.75704136,31.323916 5.59922261,33.0080783 7.93051897,34.6856459 C10.8411072,36.7725069 13.8082116,38.3268329 15.2485455,39.0345438 C16.6913728,38.3268329 19.6584773,36.772919 22.5682343,34.6856459 C24.901193,33.0084905 26.7400497,31.3243282 28.0403396,29.6793228 C29.5093472,27.8179235 30.2540323,26.0455549 30.2540323,24.4017861 L30.2540323,3.0496903 L15.2485455,0.3128234 L15.2485455,0.3128234 Z"></path>
        <path id="path-9" d="M8.59072988,0.175743483 L0.138573376,1.71330916 L0.138573376,13.7088686 C0.138573376,14.6321027 0.556709532,15.6292047 1.38361709,16.6737768 C2.11664302,17.5977056 3.15449161,18.5438642 4.46789801,19.4863179 C6.10766601,20.6587117 7.77927416,21.5319286 8.59072988,21.929519 C9.40359031,21.5319286 11.0751985,20.6589433 12.7144982,19.4863179 C14.0288411,18.5440958 15.0648167,17.5979372 15.7973744,16.6737768 C16.6249843,15.6280469 17.0445252,14.6323342 17.0445252,13.7088686 L17.0445252,1.71330916 L8.59072988,0.175743483 L8.59072988,0.175743483 Z"></path>
        <path id="path-11" d="M15.2485455,0.3128234 L0.245967742,3.0496903 L0.245967742,24.4017861 C0.245967742,26.0451427 0.988159419,27.8199844 2.45592034,29.6793228 C3.75704136,31.323916 5.59922261,33.0080783 7.93051897,34.6856459 C10.8411072,36.7725069 13.8082116,38.3268329 15.2485455,39.0345438 C16.6913728,38.3268329 19.6584773,36.772919 22.5682343,34.6856459 C24.901193,33.0084905 26.7400497,31.3243282 28.0403396,29.6793228 C29.5093472,27.8179235 30.2540323,26.0455549 30.2540323,24.4017861 L30.2540323,3.0496903 L15.2485455,0.3128234 L15.2485455,0.3128234 Z"></path>
        <path id="path-13" d="M8.59072988,0.175743483 L0.138573376,1.71330916 L0.138573376,13.7088686 C0.138573376,14.6321027 0.556709532,15.6292047 1.38361709,16.6737768 C2.11664302,17.5977056 3.15449161,18.5438642 4.46789801,19.4863179 C6.10766601,20.6587117 7.77927416,21.5319286 8.59072988,21.929519 C9.40359031,21.5319286 11.0751985,20.6589433 12.7144982,19.4863179 C14.0288411,18.5440958 15.0648167,17.5979372 15.7973744,16.6737768 C16.6249843,15.6280469 17.0445252,14.6323342 17.0445252,13.7088686 L17.0445252,1.71330916 L8.59072988,0.175743483 L8.59072988,0.175743483 Z"></path>
        <path id="path-15" d="M8.59072988,0.175743483 L0.138573376,1.71330916 L0.138573376,13.7088686 C0.138573376,14.6321027 0.556709532,15.6292047 1.38361709,16.6737768 C2.11664302,17.5977056 3.15449161,18.5438642 4.46789801,19.4863179 C6.10766601,20.6587117 7.77927416,21.5319286 8.59072988,21.929519 C9.40359031,21.5319286 11.0751985,20.6589433 12.7144982,19.4863179 C14.0288411,18.5440958 15.0648167,17.5979372 15.7973744,16.6737768 C16.6249843,15.6280469 17.0445252,14.6323342 17.0445252,13.7088686 L17.0445252,1.71330916 L8.59072988,0.175743483 L8.59072988,0.175743483 Z"></path>
    </defs>
    <g id="Page-1" stroke="none" stroke-width="1" fill="none" fill-rule="evenodd" sketch:type="MSPage">
        <g id="VirgilSecurity---What-is-Virgil" sketch:type="MSArtboardGroup" transform="translate(-264.000000, -933.000000)">
            <g id="Group-Copy" sketch:type="MSLayerGroup" transform="translate(264.000000, 933.000000)">
                <g id="sender_icon" transform="translate(0.000000, 234.242693)">
                    <g id="Group">
                        <g id="Shape-+-Rectangle-95" transform="translate(0.000000, 42.537644)">
                            <path d="M65.9912917,19.1519486 C65.9932759,19.6504498 65.986578,20.1979313 65.9628919,20.8312486 L65.9170205,22.0577574 L64.8040804,22.5731222 C54.9701783,27.1268685 44.145775,29.5261293 32.9672917,29.5261293 C21.8208326,29.5261293 11.0274039,27.1411792 1.21771813,22.6131808 L0.102790085,22.0985474 L0.0567013249,20.8705461 C0.032129613,20.2158508 0.024377157,19.6287287 0.0263047377,19.1531699 C0.0257697322,19.0048421 0.0259912321,18.8752386 0.0266939789,18.7670604 C0.0272186828,18.6987276 0.00142249585,18.9998133 0.00142249585,18.9998133 L0.0290346128,18.7881047 C0.00822555923,18.2895468 -0.00155588826,17.868321 0.0014224959,17.4713338 C-0.0257774958,15.0909716 0.31833269,12.8447482 1.18950014,10.8890856 C2.37278892,8.23274945 4.44333589,6.36394771 7.41876664,5.63107343 C10.7143692,4.81825233 14.0585049,3.70278704 17.2708117,2.42535319 C18.3987778,1.97679636 19.4294964,1.53997058 20.3408083,1.13268443 C20.6595619,0.990226125 20.9404692,0.861707342 21.1805264,0.749470679 C21.323237,0.682747553 21.4230499,0.635126476 21.464186,0.615110902 L22.2229256,0.2434839 L23.0181079,0.528750971 C24.1432598,0.932392751 25.2223266,1.38709645 26.3402771,1.91592979 C27.3337366,2.38587408 30.2421585,3.8965039 30.7449969,4.13296737 C31.9275457,4.68906964 32.6977526,4.91101384 33.3215003,4.88901552 C34.0008384,4.82001052 34.5823642,4.6226228 35.390874,4.23549336 C35.8816059,4.00052182 37.8579031,2.95380988 38.210098,2.77570711 C40.039392,1.8506445 41.6343748,1.2186613 43.45163,0.785182637 L44.1170159,0.626464899 L44.7401521,0.908825841 C44.7620334,0.918740898 44.8107134,0.940511961 44.8851526,0.973347214 C45.0129245,1.02970755 45.1643928,1.09555607 45.3385165,1.17010089 C45.8403321,1.38493523 46.4203928,1.62510833 47.0703449,1.88428514 C48.9324824,2.62683656 50.9752163,3.37006569 53.1310038,4.06335396 C54.9690599,4.6544617 56.8077794,5.18213228 58.6249148,5.63009672 C61.5941614,6.36258512 63.6622353,8.22519095 64.8468513,10.8726593 C65.7198556,12.8237147 66.066883,15.0652341 66.0432647,17.4130113 C66.0463244,18.0020255 66.026018,18.5809972 65.9862742,19.1415188 L65.9912916,18.9998133 L65.9912917,19.1519486 Z" id="Shape" fill="#2C302E" sketch:type="MSShapeGroup"></path>
                            <g id="Path-+-Rectangle-95-+-Rectangle-95-Copy" transform="translate(2.000000, 2.001771)">
                                <mask id="mask-2" sketch:name="Mask" fill="white">
                                    <use xlink:href="#path-1"></use>
                                </mask>
                                <use id="Mask" fill="#D8D8D8" sketch:type="MSShapeGroup" xlink:href="#path-1"></use>
                            </g>
                        </g>
                        <path d="M20.967041,23.8531402 L20.9019905,23.7151543 C19.9614344,21.7200367 18.0803223,17.7298014 18.0803223,17.7298014 L19.3393555,9.62937118 L22.7226562,5.70499984 L27.4143066,1.75912511 L31.484375,0.832768213 L36.1455078,0.66440633 L41.4719238,3.16002304 L44.3127441,4.91694894 L48.3203125,8.26585984 L49.5522461,15.7825215 L48.987793,19.081828 L47.6716309,22.1968894 L46.6540527,22.5932362 L45.4057617,22.4221864 L46.0083008,17.8810583 L46.7817383,13.4814129 L46.2416992,11.721066 L45.2512207,11.2648517 L40.4101562,11.873056 L36.4626465,13.700601 L33.0654297,14.1272481 L27.6687012,12.6525544 L24.0874023,10.3793024 L23.0751953,9.92577606 L20.7770996,14.0099568 L20.5410156,16.8506054 L20.7119141,19.123613 L21.5559082,21.4950964 L20.967041,23.8531402 Z" id="Path-536" fill="#424B54" sketch:type="MSShapeGroup"></path>
                        <path d="M23.4752917,39.3157927 C21.4972917,36.720496 20.5782917,33.6067405 20.1702917,30.9343756 C19.4422917,30.8753233 18.4802917,29.8384057 17.4472917,26.1421346 C16.1212917,21.3979362 17.3602917,20.4460939 18.5682917,20.4460939 C18.6482917,20.4460939 18.7282917,20.4500974 18.8072917,20.4581045 C17.8722917,17.8017538 17.8532917,15.1874402 18.4792917,12.7693003 C19.1382917,9.92178034 20.6582917,7.64176262 22.3632917,5.87820195 C23.7521974,3.95345974 24.9631349,3.5971774 29.4452917,1.06193977 C30.4402917,0.720637733 31.4982917,0.501443756 32.6192917,0.448396811 C33.0892917,0.407360496 33.5432917,0.387342781 33.9822917,0.387342781 C36.7782917,0.387342781 38.9582917,1.17503986 40.5862917,2.15190434 C41.6153586,2.72659711 42.4107291,3.36938324 43.005632,3.95345962 C43.2460944,4.18954589 44.4652917,5.80113375 44.4652917,5.80113375 C44.4652917,5.80113375 45.19389,5.85297962 46.0811113,6.41955197 C46.4304337,6.64262644 46.8043458,6.94549405 47.168059,7.35640701 C48.7591898,9.15402212 50.1551328,13.0193957 48.4432917,21.3178654 C49.3952917,21.6511603 50.0662917,22.9733304 48.9632917,26.918822 C47.8982917,30.7301949 46.9092917,31.7140655 46.1732917,31.7140655 C45.9712917,31.7140655 45.7892917,31.64 45.6292917,31.5299026 C45.1932917,34.0120992 44.3022917,36.7985651 42.5452917,39.1726661 C36.0639641,43.9329206 32.6192915,46.7171228 23.4752917,39.3157927 Z" id="Shape-Copy-2" stroke="#2C302E" stroke-width="2" sketch:type="MSShapeGroup"></path>
                        <path d="M19.2670898,20.705335 L21.095459,24.1365942 L21.9001465,23.6928421 C21.9001465,23.6928421 19.8623047,17.0644177 20.6845703,14.6364878 C21.5068359,12.2085579 23.3310547,9.9199115 23.3310547,9.9199115 C23.3310547,9.9199115 30.9902344,16.4014775 36.8183594,13.4713942 C42.6464844,10.541311 46.1765137,11.6841681 46.1765137,11.6841681 C46.1765137,11.6841681 47.0275879,14.1252932 46.6020508,16.1219332 C46.1765137,18.1185732 45.5107422,22.3965289 45.5107422,22.3965289 L47.1984863,22.6352656 L48.2541504,20.5689839" id="Path-535" stroke="#2C302E" sketch:type="MSShapeGroup"></path>
                        <text id="SENDER" sketch:type="MSTextLayer" font-family="Proxima Nova" font-size="7.5" font-weight="bold" sketch:alignment="middle" letter-spacing="0.600000024" fill="#1F363D">
                            <tspan x="17.5399999" y="85.0682019">SENDE</tspan>
                            <tspan x="44.6375001" y="85.0682019">R</tspan>
                        </text>
                    </g>
                    <g id="Rectangle-144-+-Rectangle-95-Copy-3-+-Rectangle-95-Copy-2" transform="translate(79.000000, 39.034544)">
                        <path d="M15.7954545,21.623975 L34.7912179,21.623975 C37.6765364,21.623975 40,19.2927223 40,16.4169764 L40,5.20699861 C40,2.33468961 37.6679488,0 34.7912179,0 L5.20878212,0 C2.32346356,0 0,2.33125269 0,5.20699861 L0,16.4169764 C0,19.2892854 2.33205119,21.623975 5.20878212,21.623975 L6.32575758,21.623975 L8.40909091,28.5252436 L15.7954545,21.623975 Z" id="Mask" stroke="#2C302E" stroke-width="1.6" fill="#FFFFFF" sketch:type="MSShapeGroup"></path>
                        <path d="M11.75,13.0115146 C12.9926407,13.0115146 14,12.003263 14,10.7595217 C14,9.51578036 12.9926407,8.50752879 11.75,8.50752879 C10.5073593,8.50752879 9.5,9.51578036 9.5,10.7595217 C9.5,12.003263 10.5073593,13.0115146 11.75,13.0115146 Z" id="Oval-64" fill="#2C302E" sketch:type="MSShapeGroup"></path>
                        <ellipse id="Oval-64" fill="#2C302E" sketch:type="MSShapeGroup" cx="20.25" cy="10.7595217" rx="2.25" ry="2.25199291"></ellipse>
                        <ellipse id="Oval-64" fill="#2C302E" sketch:type="MSShapeGroup" cx="28.75" cy="10.7595217" rx="2.25" ry="2.25199291"></ellipse>
                        <text id="MESSAGE" sketch:type="MSTextLayer" font-family="Proxima Nova" font-size="7" font-weight="bold" sketch:alignment="middle" letter-spacing="0.560000002" fill="#1F363D">
                            <tspan x="2.50649999" y="45.534101">MESSAGE</tspan>
                        </text>
                    </g>
                </g>
                <g id="Virgil-Keys" transform="translate(324.500000, 0.000000)">
                    <rect id="Rectangle-522" stroke="#DA322C" stroke-dasharray="2,2,2,2" sketch:type="MSShapeGroup" x="0" y="20.0177148" width="263.5" height="145.628875" rx="5"></rect>
                    <g id="shield" transform="translate(114.000000, 0.000000)">
                        <g id="Mask-+-Rectangle-94">
                            <path d="M17.3092337,0.402611351 L17.3092337,0.402611351 L17.748503,0.322477032 L18.1877749,0.402596315 L33.1932616,3.13946321 L35.2040323,3.50620984 L35.2040323,5.55190465 L35.2040323,26.9040004 C35.2040323,29.1615461 34.2481831,31.4393641 32.4617374,33.7029923 C31.0056284,35.5451255 29.0002718,37.3802888 26.495451,39.1809936 C23.9790507,40.9860978 21.2740434,42.5382968 18.8267049,43.7387233 L17.7476125,44.2680212 L16.6688819,43.7379848 C14.2171239,42.5333086 11.5188527,40.9846167 9.00034979,39.1788723 C6.4956976,37.3765604 4.48958514,35.5421652 3.03354215,33.7017511 C1.25095842,31.4435998 0.295967742,29.1622223 0.295967742,26.9040004 L0.295967742,5.55190465 L0.295967742,3.50628094 L2.30665595,3.13947825 L17.3092337,0.402611351 Z" id="Shape" fill="#9E0B0F" sketch:type="MSShapeGroup"></path>
                            <g id="Path-+-Rectangle-94" transform="translate(2.500000, 2.502214)">
                                <mask id="mask-4" sketch:name="Mask" fill="white">
                                    <use xlink:href="#path-3"></use>
                                </mask>
                                <use id="Mask" fill="#BB241D" sketch:type="MSShapeGroup" xlink:href="#path-3"></use>
                                <rect id="Rectangle-94" fill="#DA322C" sketch:type="MSShapeGroup" mask="url(#mask-4)" x="-21.6451613" y="-14.6379539" width="36.8951613" height="65.8707927"></rect>
                            </g>
                        </g>
                        <path d="M17.7944116,28.128099 L11.3560954,11.2849867 L8.36506663,11.2849867 L17.8197593,34.7532263 L27.2744519,11.2849867 L24.4608571,11.2849867 L17.7944116,28.128099 L17.7944116,28.128099 Z" id="Shape-Copy" fill="#FFFFFF" sketch:type="MSShapeGroup"></path>
                    </g>
                    <text id="VIRGIL-KEYS-SERVICE" sketch:type="MSTextLayer" font-family="Proxima Nova" font-size="7.5" font-weight="bold" sketch:alignment="middle" letter-spacing="0.600000024" fill="#1F363D">
                        <tspan x="88.1299998" y="56.0425155">VIRGIL KEYS SERVICE</tspan>
                    </text>
                    <g id="Rectangle-244-+-public-key-+-VIRGIL-PUBLIC-KEYS-+-Rectangle-244-+-public-key-+-VIRGIL-PUBLIC-KEYS" transform="translate(20.500000, 77.068202)">
                        <g id="Rectangle-244-+-public-key-+-VIRGIL-PUBLIC-KEYS">
                            <rect id="Rectangle-244" stroke="#DA322C" fill="#FFFFFF" sketch:type="MSShapeGroup" x="0" y="0" width="102.5" height="68.5606732" rx="4"></rect>
                            <g id="public-key" transform="translate(29.000000, 17.515500)" stroke="#2C302E" sketch:type="MSShapeGroup">
                                <path d="M16.1028978,5.05853063 L45,5.05853063 L45,9.47091202 L42.2568996,12.2453572 L39.5531243,12.2453572 L37.8143513,10.4867157 L34.5421876,10.4867157 L33.1070301,11.9382723 L30.2135024,11.9382723 L28.0657549,9.76598305 L22.1764073,9.76598305 L20.4604778,11.50152 L16.2871763,11.50152 C15.0894809,14.7229512 12.0150982,17.0150576 8.41141367,17.0150576 C3.76591818,17.0150576 0,13.2061072 0,8.50752879 C0,3.80895038 3.76591818,0 8.41141367,0 C11.8430062,0 14.7946427,2.0784168 16.1028978,5.05853063 Z" id="Oval-248" stroke-width="1.5"></path>
                                <ellipse id="Oval" fill="#FFFFFF" cx="5.90984424" cy="8.737462" rx="2.72802606" ry="2.75919853"></ellipse>
                            </g>
                            <text id="VIRGIL-PUBLIC-KEYS" sketch:type="MSTextLayer" font-family="Proxima Nova" font-size="7" font-weight="bold" sketch:alignment="middle" letter-spacing="0.550000012" fill="#1F363D">
                                <tspan x="13.0689999" y="49.0372011">VIRGIL PUBLIC KEYS</tspan>
                            </text>
                        </g>
                        <g id="Rectangle-244-+-public-key-+-VIRGIL-PUBLIC-KEYS" transform="translate(120.500000, 0.000000)">
                            <rect id="Rectangle-244" stroke="#DA322C" fill="#FFFFFF" sketch:type="MSShapeGroup" x="0" y="0" width="102.5" height="68.5606732" rx="4"></rect>
                            <text id="VIRGIL-PRIVATE-KEY" sketch:type="MSTextLayer" font-family="Proxima Nova" font-size="7" font-weight="bold" sketch:alignment="middle" letter-spacing="0.550000012" fill="#1F363D">
                                <tspan x="13.2179999" y="49.5376439">VIRGIL PRIVATE KEY</tspan>
                            </text>
                            <g id="private-key" transform="translate(29.000000, 17.515500)" stroke="#2C302E" sketch:type="MSShapeGroup">
                                <path d="M16.1028978,5.05853063 L45,5.05853063 L45,9.47091202 L42.2568996,12.2453572 L39.5531243,12.2453572 L37.8143513,10.4867157 L34.5421876,10.4867157 L33.1070301,11.9382723 L30.2135024,11.9382723 L28.0657549,9.76598305 L22.1764073,9.76598305 L20.4604778,11.50152 L16.2871763,11.50152 C15.0894809,14.7229512 12.0150982,17.0150576 8.41141367,17.0150576 C3.76591818,17.0150576 0,13.2061072 0,8.50752879 C0,3.80895038 3.76591818,0 8.41141367,0 C11.8430062,0 14.7946427,2.0784168 16.1028978,5.05853063 Z" id="Oval-248" stroke-width="1.5" fill="#FACB63"></path>
                                <ellipse id="Oval" fill="#FFFFFF" cx="5.90984424" cy="8.737462" rx="2.72802606" ry="2.75919853"></ellipse>
                            </g>
                        </g>
                    </g>
                </g>
                <g id="Virgil-Keys" transform="translate(367.500000, 199.211692)" stroke="#424B54" sketch:type="MSShapeGroup" stroke-dasharray="2,2,2,2">
                    <rect id="Rectangle-522" x="0" y="0.197977399" width="176" height="149.934884" rx="8"></rect>
                </g>
                <g id="sender_icon" transform="translate(795.500000, 234.242693)">
                    <g id="Group" transform="translate(51.000000, 0.000000)">
                        <g id="Shape-+-Rectangle-95" transform="translate(0.000000, 42.537644)">
                            <path d="M65.9912917,19.1519486 C65.9932759,19.6504498 65.986578,20.1979313 65.9628919,20.8312486 L65.9170205,22.0577574 L64.8040804,22.5731222 C54.9701783,27.1268685 44.145775,29.5261293 32.9672917,29.5261293 C21.8208326,29.5261293 11.0274039,27.1411792 1.21771813,22.6131808 L0.102790085,22.0985474 L0.0567013249,20.8705461 C0.032129613,20.2158508 0.024377157,19.6287287 0.0263047377,19.1531699 C0.0257697322,19.0048421 0.0259912321,18.8752386 0.0266939789,18.7670604 C0.0272186828,18.6987276 0.00142249585,18.9998133 0.00142249585,18.9998133 L0.0290346128,18.7881047 C0.00822555923,18.2895468 -0.00155588826,17.868321 0.0014224959,17.4713338 C-0.0257774958,15.0909716 0.31833269,12.8447482 1.18950014,10.8890856 C2.37278892,8.23274945 4.44333589,6.36394771 7.41876664,5.63107343 C10.7143692,4.81825233 14.0585049,3.70278704 17.2708117,2.42535319 C18.3987778,1.97679636 19.4294964,1.53997058 20.3408083,1.13268443 C20.6595619,0.990226125 20.9404692,0.861707342 21.1805264,0.749470679 C21.323237,0.682747553 21.4230499,0.635126476 21.464186,0.615110902 L22.2229256,0.2434839 L23.0181079,0.528750971 C24.1432598,0.932392751 25.2223266,1.38709645 26.3402771,1.91592979 C27.3337366,2.38587408 30.2421585,3.8965039 30.7449969,4.13296737 C31.9275457,4.68906964 32.6977526,4.91101384 33.3215003,4.88901552 C34.0008384,4.82001052 34.5823642,4.6226228 35.390874,4.23549336 C35.8816059,4.00052182 37.8579031,2.95380988 38.210098,2.77570711 C40.039392,1.8506445 41.6343748,1.2186613 43.45163,0.785182637 L44.1170159,0.626464899 L44.7401521,0.908825841 C44.7620334,0.918740898 44.8107134,0.940511961 44.8851526,0.973347214 C45.0129245,1.02970755 45.1643928,1.09555607 45.3385165,1.17010089 C45.8403321,1.38493523 46.4203928,1.62510833 47.0703449,1.88428514 C48.9324824,2.62683656 50.9752163,3.37006569 53.1310038,4.06335396 C54.9690599,4.6544617 56.8077794,5.18213228 58.6249148,5.63009672 C61.5941614,6.36258512 63.6622353,8.22519095 64.8468513,10.8726593 C65.7198556,12.8237147 66.066883,15.0652341 66.0432647,17.4130113 C66.0463244,18.0020255 66.026018,18.5809972 65.9862742,19.1415188 L65.9912916,18.9998133 L65.9912917,19.1519486 Z" id="Shape" fill="#2C302E" sketch:type="MSShapeGroup"></path>
                            <g id="Path-+-Rectangle-95-+-Rectangle-95-Copy" transform="translate(2.000000, 2.001771)">
                                <mask id="mask-6" sketch:name="Mask" fill="white">
                                    <use xlink:href="#path-5"></use>
                                </mask>
                                <use id="Mask" fill="#CBDBEA" sketch:type="MSShapeGroup" xlink:href="#path-5"></use>
                            </g>
                        </g>
                        <path d="M20.967041,23.8531402 L20.9019905,23.7151543 C19.9614344,21.7200367 18.0803223,17.7298014 18.0803223,17.7298014 L19.3393555,9.62937118 L22.7226562,5.70499984 L27.4143066,1.75912511 L31.484375,0.832768213 L36.1455078,0.66440633 L41.4719238,3.16002304 L44.3127441,4.91694894 L48.3203125,8.26585984 L49.5522461,15.7825215 L48.987793,19.081828 L47.6716309,22.1968894 L46.6540527,22.5932362 L45.4057617,22.4221864 L46.0083008,17.8810583 L46.7817383,13.4814129 L46.2416992,11.721066 L45.2512207,11.2648517 L40.4101562,11.873056 L36.4626465,13.700601 L33.0654297,14.1272481 L27.6687012,12.6525544 L24.0874023,10.3793024 L23.0751953,9.92577606 L20.7770996,14.0099568 L20.5410156,16.8506054 L20.7119141,19.123613 L21.5559082,21.4950964 L20.967041,23.8531402 Z" id="Path-536" fill="#F7F4E7" sketch:type="MSShapeGroup"></path>
                        <path d="M23.4752917,39.3157927 C21.4972917,36.720496 20.5782917,33.6067405 20.1702917,30.9343756 C19.4422917,30.8753233 18.4802917,29.8384057 17.4472917,26.1421346 C16.1212917,21.3979362 17.3602917,20.4460939 18.5682917,20.4460939 C18.6482917,20.4460939 18.7282917,20.4500974 18.8072917,20.4581045 C17.8722917,17.8017538 17.8532917,15.1874402 18.4792917,12.7693003 C19.1382917,9.92178034 20.6582917,7.64176262 22.3632917,5.87820195 C23.7521974,3.95345974 24.9631349,3.5971774 29.4452917,1.06193977 C30.4402917,0.720637733 31.4982917,0.501443756 32.6192917,0.448396811 C33.0892917,0.407360496 33.5432917,0.387342781 33.9822917,0.387342781 C36.7782917,0.387342781 38.9582917,1.17503986 40.5862917,2.15190434 C41.6153586,2.72659711 42.4107291,3.36938324 43.005632,3.95345962 C43.2460944,4.18954589 44.4652917,5.80113375 44.4652917,5.80113375 C44.4652917,5.80113375 45.19389,5.85297962 46.0811113,6.41955197 C46.4304337,6.64262644 46.8043458,6.94549405 47.168059,7.35640701 C48.7591898,9.15402212 50.1551328,13.0193957 48.4432917,21.3178654 C49.3952917,21.6511603 50.0662917,22.9733304 48.9632917,26.918822 C47.8982917,30.7301949 46.9092917,31.7140655 46.1732917,31.7140655 C45.9712917,31.7140655 45.7892917,31.64 45.6292917,31.5299026 C45.1932917,34.0120992 44.3022917,36.7985651 42.5452917,39.1726661 C36.0639641,43.9329206 32.6192915,46.7171228 23.4752917,39.3157927 Z" id="Shape-Copy-2" stroke="#2C302E" stroke-width="2" sketch:type="MSShapeGroup"></path>
                        <path d="M19.2670898,20.705335 L21.095459,24.1365942 L21.9001465,23.6928421 C21.9001465,23.6928421 19.8623047,17.0644177 20.6845703,14.6364878 C21.5068359,12.2085579 23.3310547,9.9199115 23.3310547,9.9199115 C23.3310547,9.9199115 30.9902344,16.4014775 36.8183594,13.4713942 C42.6464844,10.541311 46.1765137,11.6841681 46.1765137,11.6841681 C46.1765137,11.6841681 47.0275879,14.1252932 46.6020508,16.1219332 C46.1765137,18.1185732 45.5107422,22.3965289 45.5107422,22.3965289 L47.1984863,22.6352656 L48.2541504,20.5689839" id="Path-535" stroke="#2C302E" sketch:type="MSShapeGroup"></path>
                        <text id="RECIPIENT" sketch:type="MSTextLayer" font-family="Proxima Nova" font-size="7.5" font-weight="bold" sketch:alignment="middle" letter-spacing="0.600000024" fill="#1F363D">
                            <tspan x="12.1249999" y="85.0682019">RECIPIENT</tspan>
                        </text>
                    </g>
                    <g id="Rectangle-144-+-Rectangle-95-Copy-3-+-Rectangle-95-Copy-2" transform="translate(0.000000, 39.034544)">
                        <path d="M15.7954545,21.623975 L34.7912179,21.623975 C37.6765364,21.623975 40,19.2927223 40,16.4169764 L40,5.20699861 C40,2.33468961 37.6679488,0 34.7912179,0 L5.20878212,0 C2.32346356,0 0,2.33125269 0,5.20699861 L0,16.4169764 C0,19.2892854 2.33205119,21.623975 5.20878212,21.623975 L6.32575758,21.623975 L8.40909091,28.5252436 L15.7954545,21.623975 Z" id="Mask" stroke="#2C302E" stroke-width="1.6" fill="#FFFFFF" sketch:type="MSShapeGroup"></path>
                        <path d="M11.75,13.0115146 C12.9926407,13.0115146 14,12.003263 14,10.7595217 C14,9.51578036 12.9926407,8.50752879 11.75,8.50752879 C10.5073593,8.50752879 9.5,9.51578036 9.5,10.7595217 C9.5,12.003263 10.5073593,13.0115146 11.75,13.0115146 Z" id="Oval-64" fill="#2C302E" sketch:type="MSShapeGroup"></path>
                        <ellipse id="Oval-64" fill="#2C302E" sketch:type="MSShapeGroup" cx="20.25" cy="10.7595217" rx="2.25" ry="2.25199291"></ellipse>
                        <ellipse id="Oval-64" fill="#2C302E" sketch:type="MSShapeGroup" cx="28.75" cy="10.7595217" rx="2.25" ry="2.25199291"></ellipse>
                        <text id="MESSAGE" sketch:type="MSTextLayer" font-family="Proxima Nova" font-size="7" font-weight="bold" sketch:alignment="middle" letter-spacing="0.560000002" fill="#1F363D">
                            <tspan x="2.50649999" y="45.534101">MESSAGE</tspan>
                        </text>
                    </g>
                </g>
                <g id="Path-5-+-Triangle-7-+-Triangle-7-Copy" transform="translate(275.215456, 138.399911) scale(1, -1) rotate(-90.000000) translate(-275.215456, -138.399911) translate(246.715456, 97.399911)" sketch:type="MSShapeGroup">
                    <path d="M6.39306076,5.63964998 L20.3846284,5.63964999 C20.3846284,5.63964999 48.0296846,4.10194469 47.2720535,31.568075 C47.2720547,31.5680742 47.2720529,70.3034926 47.2720529,70.3034926" id="Path-5" stroke="#DA322C" stroke-width="2" transform="translate(26.840204, 37.963775) scale(1, -1) rotate(-180.000000) translate(-26.840204, -37.963775) "></path>
                    <path d="M45.5716288,11.251234 L45.5716288,0.241490821 L56.5716288,5.74636239 L45.5716288,11.251234 Z" id="Triangle-7" fill="#DA322C"></path>
                    <path d="M1,81.0097431 L1,70 L12,75.5048716 L1,81.0097431 Z" id="Triangle-7-Copy" fill="#DA322C" transform="translate(6.500000, 75.504872) rotate(-270.000000) translate(-6.500000, -75.504872) "></path>
                </g>
                <g id="Virgil-Keys" transform="translate(174.500000, 181.696191)">
                    <rect id="Rectangle-522" stroke="#DA322C" stroke-dasharray="2,2,2,2" fill-opacity="0.05" fill="#DA322C" sketch:type="MSShapeGroup" x="0" y="20.0177148" width="130" height="147.630647" rx="5"></rect>
                    <g id="shield" transform="translate(47.500000, 0.000000)">
                        <g id="Mask-+-Rectangle-94">
                            <path d="M17.3092337,0.402611351 L17.3092337,0.402611351 L17.748503,0.322477032 L18.1877749,0.402596315 L33.1932616,3.13946321 L35.2040323,3.50620984 L35.2040323,5.55190465 L35.2040323,26.9040004 C35.2040323,29.1615461 34.2481831,31.4393641 32.4617374,33.7029923 C31.0056284,35.5451255 29.0002718,37.3802888 26.495451,39.1809936 C23.9790507,40.9860978 21.2740434,42.5382968 18.8267049,43.7387233 L17.7476125,44.2680212 L16.6688819,43.7379848 C14.2171239,42.5333086 11.5188527,40.9846167 9.00034979,39.1788723 C6.4956976,37.3765604 4.48958514,35.5421652 3.03354215,33.7017511 C1.25095842,31.4435998 0.295967742,29.1622223 0.295967742,26.9040004 L0.295967742,5.55190465 L0.295967742,3.50628094 L2.30665595,3.13947825 L17.3092337,0.402611351 Z" id="Shape" fill="#9E0B0F" sketch:type="MSShapeGroup"></path>
                            <g id="Path-+-Rectangle-94" transform="translate(2.500000, 2.502214)">
                                <mask id="mask-8" sketch:name="Mask" fill="white">
                                    <use xlink:href="#path-7"></use>
                                </mask>
                                <use id="Mask" fill="#BB241D" sketch:type="MSShapeGroup" xlink:href="#path-7"></use>
                                <rect id="Rectangle-94" fill="#DA322C" sketch:type="MSShapeGroup" mask="url(#mask-8)" x="-21.6451613" y="-14.6379539" width="36.8951613" height="65.8707927"></rect>
                            </g>
                        </g>
                        <path d="M17.7944116,28.128099 L11.3560954,11.2849867 L8.36506663,11.2849867 L17.8197593,34.7532263 L27.2744519,11.2849867 L24.4608571,11.2849867 L17.7944116,28.128099 L17.7944116,28.128099 Z" id="Shape-Copy" fill="#FFFFFF" sketch:type="MSShapeGroup"></path>
                    </g>
                    <text id="VIRGIL-CRYPTO--LIBRA" sketch:type="MSTextLayer" font-family="Proxima Nova" font-size="7.5" font-weight="bold" sketch:alignment="middle" line-spacing="8" letter-spacing="0.600000024" fill="#1F363D">
                        <tspan x="34" y="56.0425155">VIRGIL CRYPTO </tspan>
                        <tspan x="48.1862501" y="66.5425155">LIBRARY</tspan>
                    </text>
                    <g id="Rectangle-144-+-Rectangle-95-Copy-3-+-Rectangle-95-Copy-2-Copy" transform="translate(28.500000, 91.581045)">
                        <path d="M27.7954545,21.623975 L46.7912179,21.623975 C49.6765364,21.623975 52,19.2927223 52,16.4169764 L52,5.20699861 C52,2.33468961 49.6679488,0 46.7912179,0 L17.2087821,0 C14.3234636,0 12,2.33125269 12,5.20699861 L12,16.4169764 C12,19.2892854 14.3320512,21.623975 17.2087821,21.623975 L18.3257576,21.623975 L20.4090909,28.5252436 L27.7954545,21.623975 Z" id="Mask" stroke="#2C302E" stroke-width="1.6" fill="#FFFFFF" sketch:type="MSShapeGroup"></path>
                        <path d="M23.75,13.0115146 C24.9926407,13.0115146 26,12.003263 26,10.7595217 C26,9.51578036 24.9926407,8.50752879 23.75,8.50752879 C22.5073593,8.50752879 21.5,9.51578036 21.5,10.7595217 C21.5,12.003263 22.5073593,13.0115146 23.75,13.0115146 Z" id="Oval-64" fill="#2C302E" sketch:type="MSShapeGroup"></path>
                        <ellipse id="Oval-64" fill="#2C302E" sketch:type="MSShapeGroup" cx="32.25" cy="10.7595217" rx="2.25" ry="2.25199291"></ellipse>
                        <ellipse id="Oval-64" fill="#2C302E" sketch:type="MSShapeGroup" cx="40.75" cy="10.7595217" rx="2.25" ry="2.25199291"></ellipse>
                        <g id="shield" transform="translate(44.000000, 11.009743)">
                            <g id="Mask-+-Rectangle-94">
                                <path d="M9.75168098,0.226186152 L9.75168098,0.226186152 L9.99915659,0.181166872 L10.2466337,0.226177705 L18.7004291,1.76374338 L19.8332576,1.96978081 L19.8332576,3.11904755 L19.8332576,15.114607 C19.8332576,16.3828911 19.294751,17.6625641 18.2883028,18.9342653 C17.4679596,19.9691716 16.3381813,21.0001622 14.9270147,22.0117941 C13.5093243,23.0258977 11.9853765,23.8979195 10.6065943,24.5723164 L9.99865492,24.8696748 L9.3909194,24.5719016 C8.00964725,23.8951172 6.48949449,23.0250656 5.0706196,22.0106024 C3.65954794,20.9980676 2.52934374,19.9675085 1.70903783,18.933568 C0.704765307,17.6649437 0.16674239,16.3832709 0.16674239,15.114607 L0.16674239,3.11904755 L0.16674239,1.96982076 L1.29952448,1.76375182 L9.75168098,0.226186152 Z" id="Shape" fill="#9E0B0F" sketch:type="MSShapeGroup"></path>
                                <g id="Path-+-Rectangle-94" transform="translate(1.408451, 1.405738)">
                                    <mask id="mask-10" sketch:name="Mask" fill="white">
                                        <use xlink:href="#path-9"></use>
                                    </mask>
                                    <use id="Mask" fill="#BB241D" sketch:type="MSShapeGroup" xlink:href="#path-9"></use>
                                    <rect id="Rectangle-94" fill="#DA322C" sketch:type="MSShapeGroup" mask="url(#mask-10)" x="-12.1944571" y="-8.22356963" width="20.7860064" height="37.0060633"></rect>
                                </g>
                            </g>
                            <path d="M10.0250206,15.8023028 L6.39780023,6.33988018 L4.7127136,6.33988018 L10.039301,19.5242845 L15.3658884,6.33988018 L13.7807646,6.33988018 L10.0250206,15.8023028 L10.0250206,15.8023028 Z" id="Shape-Copy" fill="#FFFFFF" sketch:type="MSShapeGroup"></path>
                        </g>
                        <text id="ENCRYPT-MESSAGE" sketch:type="MSTextLayer" font-family="Proxima Nova" font-size="7" font-weight="bold" sketch:alignment="middle" letter-spacing="0.550000012" fill="#1F363D">
                            <tspan x="0.210999973" y="48.5367582">EN</tspan>
                            <tspan x="10.495" y="48.5367582" letter-spacing="0.560000002">CRYPT MESSAGE</tspan>
                        </text>
                    </g>
                </g>
                <g id="Virgil-Keys-Copy-2" transform="translate(606.000000, 181.696191)">
                    <rect id="Rectangle-522" stroke="#DA322C" stroke-dasharray="2,2,2,2" fill-opacity="0.05" fill="#DA322C" sketch:type="MSShapeGroup" x="0" y="20.0177148" width="130" height="147.630647" rx="5"></rect>
                    <g id="shield" transform="translate(47.500000, 0.000000)">
                        <g id="Mask-+-Rectangle-94">
                            <path d="M17.3092337,0.402611351 L17.3092337,0.402611351 L17.748503,0.322477032 L18.1877749,0.402596315 L33.1932616,3.13946321 L35.2040323,3.50620984 L35.2040323,5.55190465 L35.2040323,26.9040004 C35.2040323,29.1615461 34.2481831,31.4393641 32.4617374,33.7029923 C31.0056284,35.5451255 29.0002718,37.3802888 26.495451,39.1809936 C23.9790507,40.9860978 21.2740434,42.5382968 18.8267049,43.7387233 L17.7476125,44.2680212 L16.6688819,43.7379848 C14.2171239,42.5333086 11.5188527,40.9846167 9.00034979,39.1788723 C6.4956976,37.3765604 4.48958514,35.5421652 3.03354215,33.7017511 C1.25095842,31.4435998 0.295967742,29.1622223 0.295967742,26.9040004 L0.295967742,5.55190465 L0.295967742,3.50628094 L2.30665595,3.13947825 L17.3092337,0.402611351 Z" id="Shape" fill="#9E0B0F" sketch:type="MSShapeGroup"></path>
                            <g id="Path-+-Rectangle-94" transform="translate(2.500000, 2.502214)">
                                <mask id="mask-12" sketch:name="Mask" fill="white">
                                    <use xlink:href="#path-11"></use>
                                </mask>
                                <use id="Mask" fill="#BB241D" sketch:type="MSShapeGroup" xlink:href="#path-11"></use>
                                <rect id="Rectangle-94" fill="#DA322C" sketch:type="MSShapeGroup" mask="url(#mask-12)" x="-21.6451613" y="-14.6379539" width="36.8951613" height="65.8707927"></rect>
                            </g>
                        </g>
                        <path d="M17.7944116,28.128099 L11.3560954,11.2849867 L8.36506663,11.2849867 L17.8197593,34.7532263 L27.2744519,11.2849867 L24.4608571,11.2849867 L17.7944116,28.128099 L17.7944116,28.128099 Z" id="Shape-Copy" fill="#FFFFFF" sketch:type="MSShapeGroup"></path>
                    </g>
                    <text id="VIRGIL-CRYPTO--LIBRA" sketch:type="MSTextLayer" font-family="Proxima Nova" font-size="7.5" font-weight="bold" sketch:alignment="middle" line-spacing="8" letter-spacing="0.600000024" fill="#1F363D">
                        <tspan x="34" y="56.0425155">VIRGIL CRYPTO </tspan>
                        <tspan x="48.1862501" y="66.5425155">LIBRARY</tspan>
                    </text>
                    <g id="Rectangle-144-+-Rectangle-95-Copy-3-+-Rectangle-95-Copy-2-Copy" transform="translate(28.500000, 91.581045)">
                        <path d="M27.7954545,21.623975 L46.7912179,21.623975 C49.6765364,21.623975 52,19.2927223 52,16.4169764 L52,5.20699861 C52,2.33468961 49.6679488,0 46.7912179,0 L17.2087821,0 C14.3234636,0 12,2.33125269 12,5.20699861 L12,16.4169764 C12,19.2892854 14.3320512,21.623975 17.2087821,21.623975 L18.3257576,21.623975 L20.4090909,28.5252436 L27.7954545,21.623975 Z" id="Mask" stroke="#2C302E" stroke-width="1.6" fill="#FFFFFF" sketch:type="MSShapeGroup"></path>
                        <path d="M23.75,13.0115146 C24.9926407,13.0115146 26,12.003263 26,10.7595217 C26,9.51578036 24.9926407,8.50752879 23.75,8.50752879 C22.5073593,8.50752879 21.5,9.51578036 21.5,10.7595217 C21.5,12.003263 22.5073593,13.0115146 23.75,13.0115146 Z" id="Oval-64" fill="#2C302E" sketch:type="MSShapeGroup"></path>
                        <ellipse id="Oval-64" fill="#2C302E" sketch:type="MSShapeGroup" cx="32.25" cy="10.7595217" rx="2.25" ry="2.25199291"></ellipse>
                        <ellipse id="Oval-64" fill="#2C302E" sketch:type="MSShapeGroup" cx="40.75" cy="10.7595217" rx="2.25" ry="2.25199291"></ellipse>
                        <g id="shield" transform="translate(44.000000, 11.009743)">
                            <g id="Mask-+-Rectangle-94">
                                <path d="M9.75168098,0.226186152 L9.75168098,0.226186152 L9.99915659,0.181166872 L10.2466337,0.226177705 L18.7004291,1.76374338 L19.8332576,1.96978081 L19.8332576,3.11904755 L19.8332576,15.114607 C19.8332576,16.3828911 19.294751,17.6625641 18.2883028,18.9342653 C17.4679596,19.9691716 16.3381813,21.0001622 14.9270147,22.0117941 C13.5093243,23.0258977 11.9853765,23.8979195 10.6065943,24.5723164 L9.99865492,24.8696748 L9.3909194,24.5719016 C8.00964725,23.8951172 6.48949449,23.0250656 5.0706196,22.0106024 C3.65954794,20.9980676 2.52934374,19.9675085 1.70903783,18.933568 C0.704765307,17.6649437 0.16674239,16.3832709 0.16674239,15.114607 L0.16674239,3.11904755 L0.16674239,1.96982076 L1.29952448,1.76375182 L9.75168098,0.226186152 Z" id="Shape" fill="#9E0B0F" sketch:type="MSShapeGroup"></path>
                                <g id="Path-+-Rectangle-94" transform="translate(1.408451, 1.405738)">
                                    <mask id="mask-14" sketch:name="Mask" fill="white">
                                        <use xlink:href="#path-13"></use>
                                    </mask>
                                    <use id="Mask" fill="#BB241D" sketch:type="MSShapeGroup" xlink:href="#path-13"></use>
                                    <rect id="Rectangle-94" fill="#DA322C" sketch:type="MSShapeGroup" mask="url(#mask-14)" x="-12.1944571" y="-8.22356963" width="20.7860064" height="37.0060633"></rect>
                                </g>
                            </g>
                            <path d="M10.0250206,15.8023028 L6.39780023,6.33988018 L4.7127136,6.33988018 L10.039301,19.5242845 L15.3658884,6.33988018 L13.7807646,6.33988018 L10.0250206,15.8023028 L10.0250206,15.8023028 Z" id="Shape-Copy" fill="#FFFFFF" sketch:type="MSShapeGroup"></path>
                        </g>
                        <text id="DECRYPT-MESSAGE" sketch:type="MSTextLayer" font-family="Proxima Nova" font-size="7" font-weight="bold" sketch:alignment="middle" letter-spacing="0.550000012" fill="#1F363D">
                            <tspan x="0.249499973" y="48.5367582">DE</tspan>
                            <tspan x="10.4565" y="48.5367582" letter-spacing="0.560000002">CRYPT MESSAGE</tspan>
                        </text>
                    </g>
                </g>
                <g id="Rectangle-144-+-Rectangle-95-Copy-3-+-Rectangle-95-Copy-2" transform="translate(416.500000, 273.277236)">
                    <path d="M32.7954545,21.623975 L51.7912179,21.623975 C54.6765364,21.623975 57,19.2927223 57,16.4169764 L57,5.20699861 C57,2.33468961 54.6679488,0 51.7912179,0 L22.2087821,0 C19.3234636,0 17,2.33125269 17,5.20699861 L17,16.4169764 C17,19.2892854 19.3320512,21.623975 22.2087821,21.623975 L23.3257576,21.623975 L25.4090909,28.5252436 L32.7954545,21.623975 Z" id="Mask" stroke="#2C302E" stroke-width="1.6" fill="#FACB63" sketch:type="MSShapeGroup"></path>
                    <path d="M28.75,13.0115146 C29.9926407,13.0115146 31,12.003263 31,10.7595217 C31,9.51578036 29.9926407,8.50752879 28.75,8.50752879 C27.5073593,8.50752879 26.5,9.51578036 26.5,10.7595217 C26.5,12.003263 27.5073593,13.0115146 28.75,13.0115146 Z" id="Oval-64" fill="#2C302E" sketch:type="MSShapeGroup"></path>
                    <ellipse id="Oval-64" fill="#2C302E" sketch:type="MSShapeGroup" cx="37.25" cy="10.7595217" rx="2.25" ry="2.25199291"></ellipse>
                    <ellipse id="Oval-64" fill="#2C302E" sketch:type="MSShapeGroup" cx="45.75" cy="10.7595217" rx="2.25" ry="2.25199291"></ellipse>
                    <g id="shield" transform="translate(49.000000, 11.009743)">
                        <g id="Mask-+-Rectangle-94">
                            <path d="M9.75168098,0.226186152 L9.75168098,0.226186152 L9.99915659,0.181166872 L10.2466337,0.226177705 L18.7004291,1.76374338 L19.8332576,1.96978081 L19.8332576,3.11904755 L19.8332576,15.114607 C19.8332576,16.3828911 19.294751,17.6625641 18.2883028,18.9342653 C17.4679596,19.9691716 16.3381813,21.0001622 14.9270147,22.0117941 C13.5093243,23.0258977 11.9853765,23.8979195 10.6065943,24.5723164 L9.99865492,24.8696748 L9.3909194,24.5719016 C8.00964725,23.8951172 6.48949449,23.0250656 5.0706196,22.0106024 C3.65954794,20.9980676 2.52934374,19.9675085 1.70903783,18.933568 C0.704765307,17.6649437 0.16674239,16.3832709 0.16674239,15.114607 L0.16674239,3.11904755 L0.16674239,1.96982076 L1.29952448,1.76375182 L9.75168098,0.226186152 Z" id="Shape" fill="#9E0B0F" sketch:type="MSShapeGroup"></path>
                            <g id="Path-+-Rectangle-94" transform="translate(1.408451, 1.405738)">
                                <mask id="mask-16" sketch:name="Mask" fill="white">
                                    <use xlink:href="#path-15"></use>
                                </mask>
                                <use id="Mask" fill="#BB241D" sketch:type="MSShapeGroup" xlink:href="#path-15"></use>
                                <rect id="Rectangle-94" fill="#DA322C" sketch:type="MSShapeGroup" mask="url(#mask-16)" x="-12.1944571" y="-8.22356963" width="20.7860064" height="37.0060633"></rect>
                            </g>
                        </g>
                        <path d="M10.0250206,15.8023028 L6.39780023,6.33988018 L4.7127136,6.33988018 L10.039301,19.5242845 L15.3658884,6.33988018 L13.7807646,6.33988018 L10.0250206,15.8023028 L10.0250206,15.8023028 Z" id="Shape-Copy" fill="#FFFFFF" sketch:type="MSShapeGroup"></path>
                    </g>
                    <text id="ENCRYPTED-MESSAGE" sketch:type="MSTextLayer" font-family="Proxima Nova" font-size="7" font-weight="bold" sketch:alignment="middle" letter-spacing="0.550000012" fill="#1F363D">
                        <tspan x="0.172499899" y="48.5367582">ENCRYPTED MESSAGE</tspan>
                    </text>
                </g>
                <g id="Line-+-Triangle-7" transform="translate(282.000000, 287.790080)" sketch:type="MSShapeGroup">
                    <path d="M3.99963228,5.755093 L108.502693,5.755093" id="Line" stroke="#2C302E" stroke-width="2"></path>
                    <ellipse id="Oval-257" fill="#2C302E" cx="4" cy="5.50487157" rx="4" ry="4.00354296"></ellipse>
                    <path d="M103.240234,11.2775583 L103.240234,0.26781513 L114.240234,5.7726867 L103.240234,11.2775583 Z" id="Triangle-7" fill="#2C302E"></path>
                </g>
                <g id="Line-+-Triangle-7-Copy-6" transform="translate(519.000000, 287.790080)" sketch:type="MSShapeGroup">
                    <path d="M3.99963228,5.755093 L108.502693,5.755093" id="Line" stroke="#2C302E" stroke-width="2"></path>
                    <ellipse id="Oval-257" fill="#2C302E" cx="4" cy="5.50487157" rx="4" ry="4.00354296"></ellipse>
                    <path d="M103.240234,11.2775583 L103.240234,0.26781513 L114.240234,5.7726867 L103.240234,11.2775583 Z" id="Triangle-7" fill="#2C302E"></path>
                </g>
                <g id="IP-MESSAGING-SERVICE-+-Rectangle-144-Copy-4-+-Rectangle-144-+-Rectangle-95-Copy-3-+-Rectangle-95-Copy-2" transform="translate(424.000000, 183.000000)">
                    <text id="IP-MESSAGING--SERVIC" sketch:type="MSTextLayer" font-family="Proxima Nova" font-size="7.5" font-weight="bold" sketch:alignment="middle" line-spacing="8" letter-spacing="0.600000024" fill="#1F363D">
                        <tspan x="0.021249845" y="56">IP MESSAGING </tspan>
                        <tspan x="12.4449999" y="66.5">SERVICE</tspan>
                    </text>
                    <g id="Rectangle-144-Copy-4-+-Rectangle-144-+-Rectangle-95-Copy-3-+-Rectangle-95-Copy-2" transform="translate(7.000000, 0.000000)" stroke="#2C302E" stroke-width="1.6" sketch:type="MSShapeGroup">
                        <path d="M11.8465909,31.5742802 L24.8086479,31.5742802 C27.6709136,31.5742802 30,29.2459183 30,26.3737383 L30,19.9749221 C30,17.1103343 27.6757525,14.7743802 24.8086479,14.7743802 L5.19135213,14.7743802 C2.32908642,14.7743802 0,17.1027421 0,19.9749221 L0,26.3737383 C0,29.0859222 2.08351383,31.3242257 4.7386169,31.5547164 L6.30681818,36.9359504 L11.8465909,31.5742802 Z" id="Rectangle-144-Copy-4" fill="#CBDBEA"></path>
                        <g id="Rectangle-144-+-Rectangle-95-Copy-3-+-Rectangle-95-Copy-2" transform="translate(12.500000, 0.000000)" fill="#FFFFFF">
                            <path d="M13.8210227,19.999881 L29.7979394,19.999881 C32.6764468,19.999881 35,17.6706317 35,14.7973572 L35,5.2025238 C35,2.33338249 32.6709581,0 29.7979394,0 L5.20206065,0 C2.3235532,0 0,2.32924925 0,5.2025238 L0,14.7973572 C0,17.6664985 2.32904189,19.999881 5.20206065,19.999881 L5.53503788,19.999881 L7.35795455,26.3828217 L13.8210227,19.999881 Z" id="Mask" transform="translate(17.500000, 13.191411) scale(-1, 1) translate(-17.500000, -13.191411) "></path>
                        </g>
                    </g>
                </g>
                <g id="Path-5-+-Triangle-7-+-Triangle-7-Copy" transform="translate(636.034544, 138.650133) scale(-1, -1) rotate(-90.000000) translate(-636.034544, -138.650133) translate(607.534544, 97.650133)" sketch:type="MSShapeGroup">
                    <path d="M6.39306076,5.63964998 L20.3846284,5.63964999 C20.3846284,5.63964999 48.0296846,4.10194469 47.2720535,31.568075 C47.2720547,31.5680742 47.2720529,70.3034926 47.2720529,70.3034926" id="Path-5" stroke="#DA322C" stroke-width="2" transform="translate(26.840204, 37.963775) scale(1, -1) rotate(-180.000000) translate(-26.840204, -37.963775) "></path>
                    <path d="M45.5716288,11.251234 L45.5716288,0.241490821 L56.5716288,5.74636239 L45.5716288,11.251234 Z" id="Triangle-7" fill="#DA322C"></path>
                    <path d="M0.571628798,81.251234 L0.571628798,70.2414908 L11.5716288,75.7463624 L0.571628798,81.251234 Z" id="Triangle-7" fill="#DA322C" transform="translate(6.071629, 75.746362) rotate(-270.000000) translate(-6.071629, -75.746362) "></path>
                </g>
                <g id="Line-+-Triangle-7" transform="translate(166.000000, 293.044730) scale(1, -1) translate(-166.000000, -293.044730) translate(131.500000, 287.289637)" sketch:type="MSShapeGroup">
                    <path d="M6.99768489,5.755093 L66.0428848,5.755093" id="Line" stroke="#DA322C" stroke-width="2"></path>
                    <ellipse id="Oval-257" fill="#DA322C" cx="4" cy="5.50487157" rx="4" ry="4.00354296"></ellipse>
                    <path d="M57.7402344,11.2775583 L57.7402344,0.26781513 L68.7402344,5.7726867 L57.7402344,11.2775583 Z" id="Triangle-7" fill="#DA322C"></path>
                </g>
                <g id="Line-+-Triangle-7-Copy-5" transform="translate(748.000000, 293.044730) scale(1, -1) translate(-748.000000, -293.044730) translate(713.500000, 287.289637)" sketch:type="MSShapeGroup">
                    <path d="M6.99768489,5.755093 L66.0428848,5.755093" id="Line" stroke="#DA322C" stroke-width="2"></path>
                    <ellipse id="Oval-257" fill="#DA322C" cx="4" cy="5.50487157" rx="4" ry="4.00354296"></ellipse>
                    <path d="M57.7402344,11.2775583 L57.7402344,0.26781513 L68.7402344,5.7726867 L57.7402344,11.2775583 Z" id="Triangle-7" fill="#DA322C"></path>
                </g>
                <g id="Rectangle-245-+-TWILIO-IP-MESSAGING-" transform="translate(291.000000, 270.265722)">
                    <rect id="Rectangle-245" stroke="#424B54" fill="#FFFFFF" sketch:type="MSShapeGroup" x="0" y="0" width="88" height="15" rx="4"></rect>
                    <text id="SERVICES-API" sketch:type="MSTextLayer" font-family="Proxima Nova" font-size="7.5" font-weight="bold" sketch:alignment="middle" letter-spacing="0.600000024" fill="#1F363D">
                        <tspan x="17.3287498" y="11.0026572">SERVICES API</tspan>
                    </text>
                </g>
                <g id="Rectangle-245-+-TWILIO-IP-MESSAGING-" transform="translate(531.000000, 270.265722)">
                    <rect id="Rectangle-245" stroke="#424B54" fill="#FFFFFF" sketch:type="MSShapeGroup" x="0" y="0" width="88" height="15" rx="4"></rect>
                    <text id="SERVICES-API" sketch:type="MSTextLayer" font-family="Proxima Nova" font-size="7.5" font-weight="bold" sketch:alignment="middle" letter-spacing="0.600000024" fill="#1F363D">
                        <tspan x="15.3287498" y="11">SERVICES API</tspan>
                    </text>
                </g>
            </g>
        </g>
    </g>
</svg>