<?xml version="1.0" encoding="UTF-8" standalone="no"?>
<svg width="180px" height="44px" viewBox="0 0 180 44" version="1.1" xmlns="http://www.w3.org/2000/svg" xmlns:xlink="http://www.w3.org/1999/xlink" xmlns:sketch="http://www.bohemiancoding.com/sketch/ns">
    <!-- Generator: Sketch 3.5.1 (25234) - http://www.bohemiancoding.com/sketch -->
    <title>Imported Layers</title>
    <desc>Created with Sketch.</desc>
    <defs></defs>
    <g id="Page-1" stroke="none" stroke-width="1" fill="none" fill-rule="evenodd" sketch:type="MSPage">
        <g id="VirgilSecurity-Landing-Page-revised" sketch:type="MSArtboardGroup" transform="translate(-241.000000, -1522.000000)" fill="#888888">
            <g id="Imported-Layers" sketch:type="MSLayerGroup" transform="translate(241.000000, 1522.000000)">
                <path d="M77.1085714,15.9324341 L77.1089143,15.9307287 L75.9596571,19.9828217 L77.1085714,15.9324341" id="Fill-1" sketch:type="MSShapeGroup"></path>
                <path id="Fill-2" sketch:type="MSShapeGroup" d="M83.0194286,24.7293643 L81.7529143,24.7218605 L83.0194286,24.7293643"></path>
                <path id="Fill-3" sketch:type="MSShapeGroup" d="M82.6937143,30.7805581 L82.6950857,30.7805581 L75.1073143,30.808186 L82.6940571,30.7805581 L82.6937143,30.7805581"></path>
                <path id="Fill-4" sketch:type="MSShapeGroup" d="M84.2845714,24.7368682 L83.0177143,24.7293643 L84.2845714,24.7368682"></path>
                <path d="M83.3588571,30.2662016 L84.6805714,25.2515659 L83.3588571,30.2672248 L83.3588571,30.2662016" id="Fill-5" sketch:type="MSShapeGroup"></path>
                <path d="M111.294857,7.17302326 L108.8328,18.688062 L111.294857,7.17302326" id="Fill-6" sketch:type="MSShapeGroup"></path>
                <path d="M104.965714,7.17302326 L103.096457,15.7751938 L104.965714,7.17234109 L104.965714,7.17302326" id="Fill-7" sketch:type="MSShapeGroup"></path>
                <path d="M110.873143,6.65491473 L105.608229,6.65491473 C105.316114,6.65491473 105.026057,6.88821705 104.963657,7.172 L101.225486,24.3777054 C101.163429,24.6618295 100.873714,24.8941085 100.5816,24.8941085 L96.8550857,24.8941085 C93.1683429,24.8941085 93.5948571,22.3574574 94.3498286,18.8817984 C94.3573714,18.8466667 94.3649143,18.8125581 94.3724571,18.7767442 L94.4554286,18.3387907 C94.4602286,18.3104806 94.4664,18.2821705 94.4708571,18.2562481 L94.8195429,16.4085891 C94.8744,16.1203721 94.9577143,15.6991318 95.0118857,15.4341085 L96.7121143,7.17370543 C96.7707429,6.88889922 96.5790857,6.65491473 96.2869714,6.65491473 L90.8828571,6.65491473 C90.5907429,6.65491473 90.3013714,6.88889922 90.2413714,7.17302326 L87.9178286,18.1409612 C87.9168,18.1433488 87.9164571,18.1467597 87.9161143,18.1491473 L87.8081143,18.6590698 C86.4696,24.7378915 86.8248,30.5346357 94.0985143,30.716093 C94.2174857,30.7195039 94.3093714,30.720186 94.3093714,30.720186 L105.7272,30.720186 C106.019314,30.720186 106.308686,30.4868837 106.369714,30.2020775 L111.294171,7.17302326 C111.354857,6.88821705 111.165257,6.65525581 110.873143,6.65525581 L110.873143,6.65491473" id="Fill-8" sketch:type="MSShapeGroup"></path>
                <path d="M131.876571,24.9541395 C132.169029,24.9541395 132.360343,25.1874419 132.301714,25.4722481 L131.790514,27.9577364" id="Fill-9" sketch:type="MSShapeGroup"></path>
                <path d="M131.28,30.4449302 L131.7912,27.9573953 L131.279657,30.4456124 C131.279657,30.4449302 131.28,30.4449302 131.28,30.4449302" id="Fill-10" sketch:type="MSShapeGroup"></path>
                <path id="Fill-11" sketch:type="MSShapeGroup" d="M130.638857,30.968155 C130.639543,30.968155 130.640571,30.9674729 130.641257,30.9674729 C129.091886,30.980093 124.435886,31.0148837 120.936343,31.0148837 C125.195314,31.0148837 130.638514,30.968155 130.638514,30.968155 L130.638857,30.968155"></path>
                <path d="M117.795429,21.7523721 C117.790971,21.480186 118.102629,21.0111938 118.395086,21.0111938 L117.737829,21.0002791 C117.441257,23.9649922 117.795429,21.7523721 117.795429,21.7523721" id="Fill-12" sketch:type="MSShapeGroup"></path>
                <path id="Fill-13" sketch:type="MSShapeGroup" d="M121.416,31.0138605 C121.3824,31.0138605 121.348114,31.0138605 121.314857,31.0145426 C121.348114,31.0138605 121.3824,31.0138605 121.416,31.0138605"></path>
                <path d="M131.876571,24.9541395 C132.169029,24.9541395 132.360343,25.1874419 132.301714,25.4722481 L131.7072,28.3632868" id="Fill-14" sketch:type="MSShapeGroup"></path>
                <path id="Fill-15" sketch:type="MSShapeGroup" d="M123.908571,31.008062 L123.887314,31.008062 L123.908571,31.008062"></path>
                <path id="Fill-16" sketch:type="MSShapeGroup" d="M122.616,31.012155 L122.540914,31.012155 L122.616,31.012155"></path>
                <path id="Fill-17" sketch:type="MSShapeGroup" d="M122.221714,31.0131783 C122.179886,31.0131783 122.138743,31.0131783 122.097943,31.0138605 C122.138743,31.0131783 122.179886,31.0131783 122.221714,31.0131783"></path>
                <path id="Fill-18" sketch:type="MSShapeGroup" d="M121.820571,31.0138605 L121.711886,31.0138605 L121.820571,31.0138605"></path>
                <path id="Fill-19" sketch:type="MSShapeGroup" d="M122.540571,31.012155 C122.433943,31.012155 122.326971,31.0128372 122.221714,31.0128372 C122.327314,31.0128372 122.433943,31.012155 122.540571,31.012155"></path>
                <path id="Fill-20" sketch:type="MSShapeGroup" d="M123.888,31.008062 C123.461829,31.0097674 123.036686,31.0114729 122.617714,31.012155 C123.036686,31.0114729 123.462514,31.0097674 123.888,31.008062"></path>
                <path id="Fill-21" sketch:type="MSShapeGroup" d="M130.642286,30.9671318 L130.642629,30.9671318 C129.507086,30.9763411 126.7032,30.9971473 123.906857,31.008062 C126.701829,30.9978295 129.5064,30.9763411 130.642286,30.9671318"></path>
                <path id="Fill-22" sketch:type="MSShapeGroup" d="M131.28,30.4459535 L131.708229,28.3632868 L131.279657,30.4476589 C131.279657,30.4469767 131.28,30.4469767 131.28,30.4459535"></path>
                <path id="Fill-23" sketch:type="MSShapeGroup" d="M122.098286,31.0138605 L121.820229,31.0138605 L122.098286,31.0138605"></path>
                <path id="Fill-24" sketch:type="MSShapeGroup" d="M121.313143,31.0145426 L120.937371,31.0145426 L121.313143,31.0145426"></path>
                <path id="Fill-25" sketch:type="MSShapeGroup" d="M121.710857,31.0138605 L121.414629,31.0138605 L121.710857,31.0138605"></path>
                <path d="M44.6948571,21.8147907 L45.5125714,18.208155 L44.5776,22.3308527 L43.6803429,26.5302946 L44.4668571,22.8489612 C44.5275429,22.564155 44.6304,22.0985736 44.6948571,21.8147907" id="Fill-26" sketch:type="MSShapeGroup"></path>
                <path d="M54.4834286,6.59420155 L48.7014857,6.59420155 C48.4090286,6.59420155 48.1172571,6.82648062 48.0521143,7.1095814 L46.9553143,11.9253643 C46.8908571,12.2084651 47.0773714,12.4407442 47.3698286,12.4407442 L53.1966857,12.4407442 C53.4888,12.4407442 53.7792,12.2084651 53.8419429,11.9243411 L54.9017143,7.11128682 L54.9017143,7.11060465 C54.9641143,6.82682171 54.7762286,6.59420155 54.4834286,6.59420155" id="Fill-27" sketch:type="MSShapeGroup"></path>
                <path d="M53.2251429,14.6025426 L53.2251429,14.6018605 L51.5293714,22.4069147 L53.2251429,14.6025426" id="Fill-28" sketch:type="MSShapeGroup"></path>
                <path id="Fill-29" sketch:type="MSShapeGroup" d="M36.4285714,40.4629457 C36.4285714,40.4629457 39.3432,40.5004651 41.196,40.5004651 C39.7885714,40.5004651 37.464,40.4745426 36.4261714,40.4622636 C36.4272,40.4622636 36.4278857,40.4629457 36.4289143,40.4629457 L36.4285714,40.4629457"></path>
                <path d="M46.3302857,14.6015194 L45.5115429,18.208155 L46.3302857,14.6015194" id="Fill-30" sketch:type="MSShapeGroup"></path>
                <path d="M52.8068571,14.0854574 L46.9793143,14.0854574 C46.6872,14.0854574 46.3950857,14.3177364 46.3306286,14.6018605 L44.6941714,21.8151318 C44.6297143,22.0989147 44.5268571,22.5644961 44.4661714,22.8493023 L42.8938286,30.211969 C42.8324571,30.4957519 42.7069714,30.9548527 42.6133714,31.2304496 C42.6133714,31.2304496 41.5248,34.4530233 39.6942857,34.416186 C39.6164571,34.4144806 39.5410286,34.4137984 39.4659429,34.412093 C38.5789714,34.3953798 37.8822857,34.3827597 37.8822857,34.3827597 L37.8809143,34.3827597 C37.5891429,34.3786667 37.2956571,34.6051473 37.2274286,34.8875659 L36.0195429,39.9414264 C35.952,40.2235039 36.1350857,40.4568062 36.4258286,40.4619225 C37.4636571,40.4742016 39.7882286,40.500124 41.1956571,40.500124 C45.7673143,40.500124 48.1772571,37.980186 49.7221714,30.7290543 L53.2258286,14.6018605 C53.2875429,14.3177364 53.0986286,14.0854574 52.8065143,14.0854574 L52.8068571,14.0854574" id="Fill-31" sketch:type="MSShapeGroup"></path>
                <path d="M135.589714,30.719845 C135.2976,30.719845 135.108,30.4865426 135.169371,30.2017364 L139.553143,9.77413953" id="Fill-32" sketch:type="MSShapeGroup"></path>
                <path d="M141.682286,30.2010543 L143.4552,21.4822326 L141.682286,30.2010543" id="Fill-33" sketch:type="MSShapeGroup"></path>
                <path d="M135.233143,30.4609612 C135.197486,30.3183876 135.2184,29.9697984 135.280457,29.6849922 L137.360914,19.9886202 L135.169029,30.2020775 C135.107657,30.4868837 135.297257,30.719845 135.589371,30.719845 L136.121829,30.719845 C135.829029,30.719845 135.268457,30.6031938 135.233143,30.4609612" id="Fill-34" sketch:type="MSShapeGroup"></path>
                <path d="M141.336,30.6031938 C141.176914,30.6673178 140.806971,30.719845 140.514514,30.719845 L141.046971,30.719845 C141.339086,30.719845 141.626057,30.4865426 141.683657,30.2010543 L141.789257,29.6829457 C141.730971,29.9677519 141.495429,30.5390698 141.336,30.6031938" id="Fill-35" sketch:type="MSShapeGroup"></path>
                <path d="M142.570286,25.8416434 L143.353029,21.9935194 C143.352686,21.995907 143.352343,21.9993178 143.351657,22.0010233 L142.570286,25.8416434" id="Fill-36" sketch:type="MSShapeGroup"></path>
                <path id="Fill-37" sketch:type="MSShapeGroup" d="M159.867429,11.1425736 L160.1088,12.1351318 C160.175314,12.4192558 159.990857,12.6498295 159.699086,12.6505116"></path>
                <path d="M141.788571,29.6832868 L142.569257,25.8419845 L141.788571,29.6832868" id="Fill-38" sketch:type="MSShapeGroup"></path>
                <path id="Fill-39" sketch:type="MSShapeGroup" d="M159.627429,10.1257984 L159.8664,11.1425736 L159.627429,10.1257984"></path>
                <path d="M143.352,21.9938605 C143.410286,21.7090543 143.506286,21.2475659 143.567314,20.9654884 L144.402857,17.0699535 L143.456229,21.4825736 L143.352,21.9938605" id="Fill-40" sketch:type="MSShapeGroup"></path>
                <path d="M139.625143,9.43953488 C139.566857,9.71444961 139.492457,10.0616744 139.443086,10.2915659 L137.362629,19.9886202 L139.554514,9.77448062 L139.625143,9.43953488" id="Fill-41" sketch:type="MSShapeGroup"></path>
                <path d="M160.107429,12.1351318 L159.866057,11.1425736 L159.506057,9.61110078 C159.032571,7.78151938 157.642971,6.72551938 154.626171,6.72551938 L149.929029,6.72074419 L145.6032,6.71562791 L140.735657,6.71562791 C140.443543,6.71562791 140.154171,6.94790698 140.094171,7.23271318 L140.093829,7.23271318 L139.624457,9.43953488 L139.553829,9.77448062 L135.281486,29.6849922 C135.219429,29.9694574 135.198514,30.3183876 135.234171,30.4609612 C135.269486,30.6031938 135.8304,30.719845 136.122857,30.719845 L140.514171,30.719845 C140.806629,30.719845 141.176571,30.6673178 141.335657,30.6031938 C141.495086,30.5390698 141.730629,29.968093 141.788914,29.6832868 L143.350971,22.0013643 C143.351314,21.9996589 143.351657,21.9962481 143.352343,21.9938605 L143.456571,21.4825736 L145.239429,13.1727132 C145.301143,12.8896124 145.589143,12.6580155 145.880914,12.6569922 L159.698057,12.6505116 C159.989829,12.6498295 160.174286,12.4189147 160.107771,12.1351318 L160.107429,12.1351318" id="Fill-42" sketch:type="MSShapeGroup"></path>
                <path d="M177.894857,3.15981395 C177.6024,3.16186047 177.124114,3.16390698 176.831314,3.16390698 L172.4088,3.16390698 C172.116343,3.16390698 171.7416,3.36037209 171.576686,3.60049612 L161.797371,17.8534264 C161.632114,18.0942326 161.443886,18.0584186 161.379086,17.7753178 L160.659429,14.6349457 C160.594629,14.3511628 160.301829,14.1195659 160.009371,14.1195659 L153.722743,14.1195659 C153.429943,14.1195659 153.2568,14.3477519 153.336686,14.6274419 L156.153943,24.4452403 C156.234171,24.7252713 156.24,25.1847132 156.167657,25.4661085 L154.939543,30.2177674 C154.866857,30.500186 155.046857,30.7307597 155.339314,30.7307597 L161.552914,30.7307597 C161.845029,30.7307597 162.144,30.500186 162.216343,30.2177674 L163.4448,25.4661085 C163.517143,25.1847132 163.720457,24.7634729 163.896686,24.5311938 L179.773029,3.56843411 C179.949257,3.33615504 179.853943,3.14685271 179.561829,3.14924031 L177.8952,3.15981395 L177.894857,3.15981395" id="Fill-43" sketch:type="MSShapeGroup"></path>
                <path d="M127.947429,15.455938 L127.947086,15.4501395 C127.9104,15.7656434 127.6176,15.9972403 127.325486,15.9972403 L119.354743,15.9972403 C119.079429,15.9972403 118.9392,15.8106667 118.979657,15.5807752 C118.982057,15.5742946 118.983086,15.5684961 118.9872,15.5623566 C118.9872,15.5623566 118.984457,15.5630388 118.9824,15.5647442 C118.984114,15.555876 118.984114,15.5473488 118.986514,15.5381395 C118.986514,15.5381395 119.0016,15.4825426 119.0232,15.4034109 C119.784343,13.3899845 121.335086,12.0682791 124.249371,12.0682791 C127.530171,12.0682791 128.170629,13.6628527 127.947771,15.455938 L127.947429,15.455938 L127.947429,15.455938 Z M125.609143,6.30325581 C115.377943,6.30325581 112.9536,12.4813333 111.593486,18.7167132 C110.233371,25.072155 110.350286,31.0145426 120.937371,31.0145426 L121.313143,31.0145426 C121.346743,31.0138605 121.381029,31.0138605 121.414629,31.0138605 L122.0976,31.0138605 C122.1384,31.0131783 122.179543,31.0131783 122.221371,31.0131783 C122.326971,31.0131783 122.4336,31.0124961 122.540229,31.0124961 L122.615314,31.0124961 C123.034286,31.011814 123.459429,31.0097674 123.8856,31.008062 L123.906857,31.008062 C126.702857,30.9974884 129.507086,30.9766822 130.642971,30.9674729 C130.933371,30.9630388 131.2176,30.7300775 131.277257,30.4476589 L132.300686,25.4722481 C132.359314,25.1874419 132.168,24.9541395 131.875543,24.9541395 L122.357486,24.9541395 C118.572,24.9541395 117.447771,23.9533953 117.861943,21.0111938 L133.076914,21.0111938 L133.075543,21.0132403 C133.079314,21.0132403 133.082743,21.0111938 133.085829,21.0111938 C133.327886,21.0071008 133.551429,20.8413333 133.640229,20.6206512 C133.656686,20.5783566 133.671086,20.5343566 133.676914,20.4883101 L133.6752,20.4900155 C135.934286,12.0126822 135.286629,6.3035969 125.608457,6.3035969 L125.609143,6.30325581 L125.609143,6.30325581 Z" id="Fill-44" sketch:type="MSShapeGroup"></path>
                <path d="M77.2525714,15.4235349 L77.1085714,15.9307287 C77.1085714,15.9324341 77.1082286,15.9324341 77.1082286,15.9324341 L74.8110857,24.0325271 C74.7315429,24.3122171 74.4277714,24.5410853 74.1346286,24.5410853 L68.0537143,24.5410853 C63.4412571,24.5410853 62.3180571,20.952186 63.4412571,15.6585426 C64.5641143,10.244155 66.7659429,6.87832558 71.3057143,6.5375814 C77.5093714,6.07234109 78.7505143,10.4129922 77.2525714,15.4235349 L77.2525714,15.4235349 Z M81.4227429,24.2296744 C81.4227429,24.2296744 84.2897143,17.3046202 84.9408,13.3043721 C85.8288,7.94967442 83.1339429,0.184186047 72.7248,0.184186047 C62.3749714,0.184186047 57.8808,7.59835659 56.1658286,15.6582016 C54.4512,23.7763721 56.6976,30.896186 66.9888,30.8378605 L75.1073143,30.807845 L82.6950857,30.7802171 C82.9872,30.7778295 83.2861714,30.5472558 83.3605714,30.2665426 L84.6822857,25.2508837 C84.756,24.9694884 84.5773714,24.7378915 84.2852571,24.736186 L83.0180571,24.7286822 L81.7518857,24.7211783 C81.5033143,24.7194729 81.3610286,24.559845 81.3908571,24.3473488 C81.3963429,24.3091473 81.4052571,24.2699225 81.4220571,24.2289922 L81.4227429,24.2296744 L81.4227429,24.2296744 Z" id="Fill-45" sketch:type="MSShapeGroup"></path>
                <path d="M132.658286,19.5946667 C132.658286,19.7860155 132.502286,19.9418915 132.309257,19.9418915 C132.116571,19.9418915 131.960229,19.7863566 131.960229,19.5946667 C131.960229,19.4029767 132.116571,19.248124 132.309257,19.248124 C132.502286,19.248124 132.658286,19.4029767 132.658286,19.5946667" id="Fill-46" sketch:type="MSShapeGroup"></path>
                <path d="M2.3928,10.5903566 C-0.465257143,14.6765581 -0.109371429,19.9927132 2.0736,24.3343876 C2.12571429,24.4384186 2.17988571,24.5407442 2.23371429,24.6434109 C2.268,24.7082171 2.30022857,24.7747287 2.33554286,24.8388527 C2.35577143,24.8773953 2.3784,24.9149147 2.39931429,24.9514109 C2.43668571,25.0206512 2.47474286,25.0864806 2.51314286,25.1536744 C2.58102857,25.2727132 2.65028571,25.3910698 2.7216,25.5094264 C2.76102857,25.5742326 2.79977143,25.6393798 2.84057143,25.704186 C2.91908571,25.8307287 3,25.9555659 3.08228571,26.0807442 C3.11657143,26.1339535 3.15017143,26.1871628 3.18514286,26.2386667 C3.29897143,26.407845 3.41554286,26.576 3.53554286,26.7417674 C3.53862857,26.7462016 3.54205714,26.7509767 3.54582857,26.7550698 C3.56468571,26.7816744 3.5856,26.8075969 3.6048,26.8342016 C3.70834286,26.9764341 3.81565714,27.1173023 3.924,27.2564651 C3.96377143,27.3072868 4.00388571,27.3581085 4.044,27.4089302 C4.14068571,27.5296744 4.23908571,27.6493953 4.3392,27.7694574 C4.37657143,27.8144806 4.41394286,27.8591628 4.45165714,27.9035039 C4.58605714,28.0607442 4.72285714,28.2173023 4.86274286,28.3704496 C4.86548571,28.3728372 4.86857143,28.3762481 4.87097143,28.3789767 C4.87714286,28.3854574 4.88194286,28.3895504 4.88708571,28.3963721 C5.02354286,28.5444031 5.16308571,28.6893643 5.30468571,28.8343256 C5.34857143,28.8793488 5.39348571,28.9243721 5.43874286,28.9683721 C5.54811429,29.0782016 5.65954286,29.1866667 5.772,29.2941085 C5.81794286,29.3374264 5.86285714,29.3814264 5.9088,29.4230388 C6.05897143,29.563907 6.21085714,29.7020465 6.36548571,29.8371163 C6.36822857,29.8395039 6.37028571,29.8412093 6.37268571,29.8429147 C6.39908571,29.8661085 6.42651429,29.887938 6.45222857,29.9101085 C6.58868571,30.0277829 6.72754286,30.144093 6.86742857,30.2590388 C6.92434286,30.3050853 6.98228571,30.3501085 7.03954286,30.395814 C7.15371429,30.4865426 7.26925714,30.5765891 7.38548571,30.6645891 C7.4472,30.7113178 7.50857143,30.7580465 7.57062857,30.8047752 C7.6992,30.8985736 7.82845714,30.9910078 7.95908571,31.0820775 C8.00674286,31.116186 8.05268571,31.1492713 8.10034286,31.1820155 C8.11371429,31.1908837 8.12605714,31.200093 8.13942857,31.2093023 C8.2632,31.2942326 8.39005714,31.3757519 8.51657143,31.4576124 C8.57074286,31.4934264 8.62491429,31.5306047 8.67977143,31.5657364 C8.87382857,31.688186 9.07097143,31.8089302 9.27017143,31.9255814 C9.32434286,31.9562791 9.3792,31.9862946 9.43337143,32.0169922 C9.57977143,32.1012403 9.7272,32.1837829 9.87668571,32.2642791 C9.9576,32.3075969 10.0402286,32.3485271 10.1218286,32.3901395 C10.2274286,32.4450543 10.332,32.5009922 10.4389714,32.5542016 C10.4633143,32.5657984 10.4886857,32.5773953 10.5123429,32.5889922 C10.5555429,32.6097984 10.5990857,32.6299225 10.6422857,32.6517519 C10.8082286,32.7308837 10.9755429,32.8083101 11.1449143,32.8830078 C11.1809143,32.8990388 11.2155429,32.9147287 11.2512,32.9304186 C11.4449143,33.0146667 11.6403429,33.0955039 11.8374857,33.1729302 C11.8848,33.192031 11.9324571,33.2104496 11.9801143,33.2285271 C12.1625143,33.2987907 12.3476571,33.3676899 12.5334857,33.4328372 C12.5568,33.4410233 12.5794286,33.4485271 12.6030857,33.4567132 C12.8067429,33.5276589 13.0128,33.5934884 13.2198857,33.6576124 C13.2692571,33.6715969 13.3189714,33.6876279 13.3690286,33.7016124 C13.5798857,33.7650543 13.7883429,33.8407752 14.0057143,33.8806822 C27.8262857,36.388 31.8408,25.6182326 31.8408,25.6182326 C28.4691429,29.9882171 22.4842286,31.1407442 16.8137143,29.8575814 C16.5990857,29.8091473 16.3906286,29.7426357 16.1811429,29.6808992 C16.128,29.6652093 16.0755429,29.6495194 16.0234286,29.6334884 C15.8184,29.5710698 15.6157714,29.5052403 15.4138286,29.4363411 C15.3864,29.4261085 15.3582857,29.4162171 15.3301714,29.4063256 C15.1494857,29.3428837 14.9705143,29.2763721 14.7929143,29.208155 C14.7425143,29.188031 14.6924571,29.1689302 14.6420571,29.1488062 C14.4469714,29.0724031 14.2532571,28.9922481 14.0619429,28.9090233 C14.0228571,28.8923101 13.9851429,28.8749147 13.9460571,28.8582016 C13.7814857,28.784186 13.6189714,28.7091473 13.4568,28.6317209 C13.4098286,28.6092093 13.3632,28.5877209 13.3155429,28.5645271 C13.1883429,28.5027907 13.0625143,28.4369612 12.9366857,28.3728372 C12.8530286,28.3288372 12.7673143,28.2872248 12.6843429,28.2411783 C12.5310857,28.1596589 12.3802286,28.0747287 12.2307429,27.988093 C12.18,27.9597829 12.1282286,27.9324961 12.0771429,27.9031628 C11.8782857,27.7865116 11.6814857,27.6657674 11.4867429,27.5433178 C11.4329143,27.5092093 11.3804571,27.4727132 11.3273143,27.4375814 C11.1860571,27.3468527 11.0454857,27.2544186 10.9069714,27.1595969 C10.8610286,27.1285581 10.8168,27.0954729 10.7715429,27.0647752 C10.6378286,26.9706357 10.5054857,26.8754729 10.3741714,26.7789457 C10.3141714,26.7349457 10.2558857,26.6906047 10.1979429,26.6466047 C10.0776,26.5548527 9.95794286,26.4624186 9.83931429,26.3675969 C9.78548571,26.3249612 9.732,26.2826667 9.6792,26.240031 C9.52868571,26.1168992 9.37954286,25.9927442 9.2328,25.8651783 C9.21737143,25.851876 9.20057143,25.8385736 9.18377143,25.8245891 C9.02468571,25.6854264 8.86868571,25.5431938 8.71405714,25.399938 C8.66948571,25.3573023 8.62594286,25.3156899 8.58205714,25.2733953 C8.46754286,25.1649302 8.35508571,25.0557829 8.24468571,24.9442481 C8.20011429,24.9002481 8.15588571,24.8569302 8.11234286,24.8125891 C7.97177143,24.6696744 7.8336,24.5247132 7.69851429,24.3773643 C7.69165714,24.3698605 7.68445714,24.3630388 7.67794286,24.3555349 C7.53462857,24.2 7.39508571,24.0407132 7.25794286,23.880062 C7.22091429,23.836062 7.18491429,23.7934264 7.14788571,23.7501085 C7.04605714,23.6276589 6.94457143,23.503845 6.84582857,23.3786667 C6.8088,23.3336434 6.77177143,23.2875969 6.73508571,23.2412093 C6.61611429,23.0877209 6.49988571,22.9345736 6.38605714,22.7790388 C3.23794286,18.5069457 2.10685714,12.6146977 4.62308571,7.77572093" id="Fill-47" sketch:type="MSShapeGroup"></path>
                <path d="M11.2635429,7.14778295 C9.1968,10.1063566 9.30891429,14.0670388 10.9213714,17.196155 C11.1915429,17.7207442 11.4953143,18.2296434 11.8354286,18.7143256 C12.1450286,19.1556899 12.4882286,19.6809612 12.8993143,20.0356899 C13.0481143,20.1990698 13.2037714,20.3580155 13.3628571,20.5145736 C13.4029714,20.5555039 13.4441143,20.5943876 13.4849143,20.6346357 C13.6395429,20.7836899 13.7965714,20.9300155 13.9587429,21.0725891 C13.9656,21.0773643 13.9714286,21.084186 13.9779429,21.0893023 C13.9796571,21.0910078 13.9813714,21.0916899 13.9827429,21.0933953 C14.1620571,21.2499535 14.3475429,21.4007132 14.5361143,21.5490853 C14.5779429,21.5804651 14.6190857,21.6138915 14.6616,21.6462946 C14.8501714,21.7905736 15.0428571,21.932124 15.2403429,22.0668527 C15.2461714,22.0712868 15.2513143,22.0750388 15.2571429,22.0794729 C15.3442286,22.1391628 15.4326857,22.1951008 15.5211429,22.2524031 C15.5633143,22.280031 15.6037714,22.3093643 15.6462857,22.3349457 C15.7872,22.4249922 15.9301714,22.5123101 16.0752,22.5965581 C16.0957714,22.6088372 16.116,22.6197519 16.1358857,22.6313488 C16.2610286,22.7029767 16.3878857,22.7739225 16.5150857,22.8421395 C16.5596571,22.8670388 16.6049143,22.8888682 16.6498286,22.912062 C16.7379429,22.9577674 16.8257143,23.0044961 16.9152,23.0484961 C16.9285714,23.0553178 16.9426286,23.0611163 16.9553143,23.0669147 C17.1373714,23.155938 17.3211429,23.2418915 17.5086857,23.3234109 C17.5488,23.3408062 17.5902857,23.3568372 17.6310857,23.3735504 C17.7809143,23.4366512 17.9324571,23.4983876 18.0846857,23.5567132 C18.1491429,23.5809302 18.2142857,23.604124 18.2787429,23.6273178 C18.4169143,23.6781395 18.5554286,23.7248682 18.6953143,23.7715969 C18.7584,23.7913798 18.8204571,23.812186 18.8835429,23.8312868 C19.0824,23.8930233 19.2785143,23.9704496 19.4859429,24.0045581 C30.1566857,25.7631938 32.6201143,17.5901085 32.6201143,17.5901085 C30.3994286,20.772093 26.0989714,22.2899225 21.5098286,21.1049922 C21.3058286,21.0517829 21.1049143,20.9934574 20.9053714,20.9310388 C20.8443429,20.9126202 20.7843429,20.8928372 20.7236571,20.8727132 C20.5817143,20.8270078 20.4408,20.7785736 20.3009143,20.7277519 C20.2371429,20.7045581 20.1730286,20.6813643 20.1102857,20.6571473 C19.9570286,20.5988217 19.8054857,20.5381085 19.6553143,20.4746667 C19.6141714,20.4572713 19.5726857,20.4415814 19.5325714,20.4231628 C19.3443429,20.3413023 19.1588571,20.2556899 18.9761143,20.1656434 C18.8818286,20.119938 18.7892571,20.0715039 18.6966857,20.024093 C18.6432,19.9968062 18.5893714,19.9691783 18.5355429,19.9418915 C18.4169143,19.8777674 18.2989714,19.8109147 18.1824,19.7437209 C18.1549714,19.7276899 18.1258286,19.7126822 18.0980571,19.695969 C17.9533714,19.612062 17.8110857,19.5254264 17.6701714,19.4364031 C17.6266286,19.4087752 17.5848,19.3787597 17.5412571,19.3504496 C17.4483429,19.2904186 17.3554286,19.2297054 17.2642286,19.1683101 C17.0674286,19.0332403 16.8761143,18.8916899 16.6875429,18.7484341 C16.644,18.7143256 16.6004571,18.6808992 16.5576,18.6467907 C14.5488,17.0689302 12.9565714,14.9129302 12.1995429,12.468031 C11.4061714,9.9324031 11.5772571,7.08604651 12.9517714,4.77621705" id="Fill-48" sketch:type="MSShapeGroup"></path>
                <path d="M18.7244571,4.57565891 C17.5062857,6.3591938 17.3862857,8.57454264 18.2317714,10.5446512 C19.1232,12.6355039 20.9502857,14.276124 23.0821714,15.0537984 C23.1702857,15.0862016 23.2580571,15.1155349 23.3472,15.1455504 C23.3859429,15.1571473 23.4246857,15.1704496 23.4641143,15.1820465 C23.5896,15.2212713 23.7144,15.2669767 23.844,15.2911938 C29.736,16.4235969 31.3340571,12.2831628 31.7595429,11.6739845 C30.3596571,13.6792248 28.0069714,14.1604961 25.1204571,13.4633178 C24.8924571,13.408062 24.6418286,13.3262016 24.4220571,13.2487752 C24.1402286,13.1488372 23.8625143,13.0349147 23.5926857,12.9059845 C23.0801143,12.6610853 22.5915429,12.3636589 22.1386286,12.0232558 C19.5555429,10.0736124 17.9509714,6.35407752 19.6364571,3.32489922" id="Fill-49" sketch:type="MSShapeGroup"></path>
                <path d="M85.0834286,39.3168992 L83.3849143,43.1650233 L81.5101714,43.1650233 L81.6637714,39.6685581 L80.2834286,43.1650233 L78.4676571,43.1650233 L78.42,39.3168992 L78.6205714,38.3666357 L79.9062857,38.3666357 L79.6584,42.1673488 L81.0857143,38.3666357 L82.8781714,38.3666357 L82.7485714,42.2147597 L84.1638857,38.3666357 L85.284,38.3666357 L85.0834286,39.3168992" id="Fill-50" sketch:type="MSShapeGroup"></path>
                <path d="M88.0422857,40.456124 C88.2075429,39.7050543 88.1602286,39.564186 87.7710857,39.564186 L87.1813714,39.564186 L86.8038857,41.3245271 L86.2258286,43.1657054 L85.1293714,43.1657054 L86.0252571,38.9894574 L86.1555429,38.3792558 L87.1580571,38.3792558 L87.2876571,38.6606512 C87.2876571,38.6606512 87.8657143,38.3209302 88.4310857,38.3209302 C89.6345143,38.3209302 89.5402286,39.2234419 89.2803429,40.456124 L88.0422857,40.456124" id="Fill-51" sketch:type="MSShapeGroup"></path>
                <path d="M91.6045714,37.7683721 C91.1214857,37.7683721 90.8149714,37.6275039 90.9325714,37.0415194 C91.0621714,36.4541705 91.4396571,36.3136434 91.9110857,36.3136434 C92.3835429,36.3136434 92.7017143,36.4541705 92.5717714,37.0415194 C92.4538286,37.615907 92.0766857,37.7683721 91.6045714,37.7683721 L91.6045714,37.7683721 Z M91.0861714,43.1653643 L90.0003429,43.1653643 L90.2129143,41.2883721 L90.5904,39.5522481 L89.8357714,39.3871628 L90.048,38.3673178 L92.1113143,38.3673178 L91.0861714,43.1653643 L91.0861714,43.1653643 Z" id="Fill-52" sketch:type="MSShapeGroup"></path>
                <path d="M95.7908571,39.3851163 L94.4348571,39.5498605 L94.0450286,41.3804651 C93.9387429,41.8849302 93.9387429,42.0257984 94.3875429,42.0257984 L95.2954286,42.0257984 L95.1065143,42.9873178 C95.1065143,42.9873178 94.2816,43.2339225 93.9270857,43.2339225 C92.5354286,43.2339225 92.5474286,42.4712558 92.7953143,41.3327132 L93.1731429,39.5382636 L92.4178286,39.3742016 L92.6417143,38.3533333 L93.4323429,38.3533333 L93.8808,37.144186 L94.9539429,37.144186 L94.6940571,38.3533333 L96.0147429,38.3533333 L95.7908571,39.3851163" id="Fill-53" sketch:type="MSShapeGroup"></path>
                <path d="M98.6091429,39.4465116 C97.9724571,39.4465116 97.6419429,39.7753178 97.5126857,40.3616434 L99.3284571,40.2091783 C99.4110857,39.8104496 99.3284571,39.4465116 98.6091429,39.4465116 L98.6091429,39.4465116 Z M97.3361143,41.2293643 C97.2528,41.8163721 97.4770286,42.0155659 98.2316571,42.0155659 L100.130057,42.0155659 L99.9418286,42.9071628 C99.9418286,42.9071628 98.7980571,43.2236899 97.9488,43.2236899 C95.8378286,43.2236899 95.8138286,42.0394419 96.0853714,40.7723101 C96.3565714,39.528031 96.84,38.2973953 98.88,38.2973953 C100.850057,38.2973953 100.944343,39.4816434 100.460571,41.2293643 L97.3361143,41.2293643 L97.3361143,41.2293643 Z" id="Fill-54" sketch:type="MSShapeGroup"></path>
                <path d="M104.787429,43.1643411 L103.702971,43.1643411 L103.9152,41.2873488 L104.681829,37.7206202 L103.926514,37.5449612 L104.150743,36.524093 L106.215086,36.524093 L104.787429,43.1643411" id="Fill-55" sketch:type="MSShapeGroup"></path>
                <path d="M108.706286,39.4465116 C108.068914,39.4465116 107.739086,39.7753178 107.6088,40.3616434 L109.425257,40.2091783 C109.5072,39.8104496 109.425257,39.4465116 108.706286,39.4465116 L108.706286,39.4465116 Z M107.432229,41.2293643 C107.349943,41.8163721 107.574171,42.0155659 108.328457,42.0155659 L110.2272,42.0155659 L110.038286,42.9071628 C110.038286,42.9071628 108.894171,43.2236899 108.044914,43.2236899 C105.933943,43.2236899 105.910971,42.0394419 106.182171,40.7723101 C106.453714,39.528031 106.937143,38.2973953 108.977143,38.2973953 C110.946514,38.2973953 111.0408,39.4816434 110.557714,41.2293643 L107.432229,41.2293643 L107.432229,41.2293643 Z" id="Fill-56" sketch:type="MSShapeGroup"></path>
                <path d="M115.532571,39.5044961 C115.532571,39.5044961 114.152571,39.516093 113.775771,39.516093 C112.973143,39.516093 112.890857,39.7616744 112.832229,40.019876 L112.784571,40.2548837 L115.332,40.4428217 C115.332,40.4428217 115.343657,41.2522171 115.237371,41.7096124 C115.084457,42.4722791 114.294171,43.2458605 112.867543,43.2458605 C112.1592,43.2458605 111.015429,42.9770853 111.015429,42.9770853 L111.216,42.0500155 L112.973143,42.0500155 C113.751771,42.0500155 113.858057,41.8385426 113.905714,41.628093 L113.964343,41.3231628 L111.463886,41.1348837 C111.463886,41.1348837 111.369943,40.5130853 111.4992,39.8916279 C111.688457,39.0464186 112.466057,38.3195659 113.893029,38.3195659 C114.601029,38.3195659 115.7448,38.5767442 115.7448,38.5767442 L115.532571,39.5044961" id="Fill-57" sketch:type="MSShapeGroup"></path>
                <path d="M120.274286,39.5044961 C120.274286,39.5044961 118.894971,39.516093 118.517486,39.516093 C117.715543,39.516093 117.632914,39.7616744 117.573943,40.019876 L117.526286,40.2548837 L120.074057,40.4428217 C120.074057,40.4428217 120.086057,41.2522171 119.979771,41.7096124 C119.826514,42.4722791 119.036229,43.2458605 117.609257,43.2458605 C116.901943,43.2458605 115.757486,42.9770853 115.757486,42.9770853 L115.958057,42.0500155 L117.715543,42.0500155 C118.493486,42.0500155 118.599771,41.8385426 118.647429,41.628093 L118.706057,41.3231628 L116.2056,41.1348837 C116.2056,41.1348837 116.111657,40.5130853 116.240914,39.8916279 C116.430171,39.0464186 117.207771,38.3195659 118.635429,38.3195659 C119.342743,38.3195659 120.486514,38.5767442 120.486514,38.5767442 L120.274286,39.5044961" id="Fill-58" sketch:type="MSShapeGroup"></path>
                <path d="M121.758857,43.9283721 L120.816,43.9283721 L120.850971,43.224031 C120.5088,43.2015194 120.332229,42.9549147 120.414514,42.5435659 C120.544457,41.9572403 120.909943,41.8167132 121.393371,41.8167132 C121.865143,41.8167132 122.182971,41.9572403 122.054057,42.5435659 L121.758857,43.9283721" id="Fill-59" sketch:type="MSShapeGroup"></path>
                <path d="M128.067429,39.5522481 C127.360114,39.5522481 127.112914,39.9745116 126.947314,40.7487752 C126.782057,41.5233798 126.829371,41.9804341 127.536686,41.9804341 L128.515543,41.9804341 L129.058629,39.5522481 L128.067429,39.5522481 L128.067429,39.5522481 Z M129.683314,42.5432248 L129.553371,43.1653643 L128.563543,43.1537674 L128.4216,42.8488372 C128.4216,42.8488372 127.548343,43.2236899 126.959657,43.2236899 C125.449714,43.2236899 125.378743,41.992031 125.649943,40.7487752 C125.921143,39.4813023 126.510857,38.2847752 128.0088,38.2847752 C128.551543,38.2847752 129.282514,38.5545736 129.282514,38.5545736 L129.883886,36.5251163 L130.969029,36.5251163 L129.683314,42.5432248 L129.683314,42.5432248 Z" id="Fill-60" sketch:type="MSShapeGroup"></path>
                <path d="M133.587429,39.5044961 C132.667886,39.5044961 132.372343,40.019876 132.207429,40.7709457 C132.054514,41.5339535 132.125486,42.0500155 133.033029,42.0500155 C133.976571,42.0500155 134.260114,41.5455504 134.424343,40.7709457 C134.590286,40.0434109 134.542629,39.5044961 133.587429,39.5044961 L133.587429,39.5044961 Z M132.785829,43.2352868 C130.839771,43.2352868 130.686171,42.0268217 130.945714,40.7712868 C131.217257,39.5164341 131.901257,38.3195659 133.847314,38.3195659 C135.781029,38.3195659 135.958286,39.5164341 135.6864,40.7712868 C135.415543,42.0503566 134.7312,43.2352868 132.785829,43.2352868 L132.785829,43.2352868 Z" id="Fill-61" sketch:type="MSShapeGroup"></path>
                <path d="M143.825143,43.1643411 L144.037714,41.3105426 L144.143657,40.7828837 C144.297257,40.0792248 144.391543,39.5628217 143.648229,39.5628217 L143.070514,39.5628217 C143.094514,39.9267597 143.0232,40.3370853 142.928914,40.7709457 L142.422171,43.1643411 L141.325371,43.1643411 L141.5376,41.3105426 L141.6432,40.7828837 C141.7968,40.0792248 141.890743,39.5628217 141.1488,39.5628217 L140.676686,39.5628217 L139.898057,43.1643411 L138.635657,43.1643411 L139.662171,38.3662946 L140.652686,38.3662946 L140.805943,38.6592868 C140.805943,38.6592868 141.478286,38.3072868 142.020686,38.3072868 C142.433486,38.3072868 142.740343,38.4952248 142.846629,38.7292093 C143.082171,38.6002791 143.754857,38.3072868 144.238629,38.3072868 C145.746857,38.3072868 145.700571,39.5270078 145.429029,40.7712868 L144.921943,43.1643411 L143.825143,43.1643411" id="Fill-62" sketch:type="MSShapeGroup"></path>
                <path d="M148.837714,39.5044961 C147.917486,39.5044961 147.622629,40.019876 147.457714,40.7709457 C147.3048,41.5339535 147.375771,42.0500155 148.282971,42.0500155 C149.226514,42.0500155 149.5104,41.5455504 149.675314,40.7709457 C149.840229,40.0434109 149.792914,39.5044961 148.837714,39.5044961 L148.837714,39.5044961 Z M148.035771,43.2352868 C146.089371,43.2352868 145.936457,42.0268217 146.196,40.7712868 C146.4672,39.5164341 147.1512,38.3195659 149.097257,38.3195659 C151.031657,38.3195659 151.208229,39.5164341 150.936686,40.7712868 C150.665829,42.0503566 149.981486,43.2352868 148.035771,43.2352868 L148.035771,43.2352868 Z" id="Fill-63" sketch:type="MSShapeGroup"></path>
                <path d="M154.213714,40.456124 C154.378629,39.7050543 154.331657,39.564186 153.942857,39.564186 L153.3528,39.564186 L152.975314,41.3245271 L152.397257,43.1657054 L151.3008,43.1657054 L152.196686,38.9894574 L152.326971,38.3792558 L153.329486,38.3792558 L153.458743,38.6606512 C153.458743,38.6606512 154.0368,38.3209302 154.603543,38.3209302 C155.805943,38.3209302 155.711314,39.2234419 155.451771,40.456124 L154.213714,40.456124" id="Fill-64" sketch:type="MSShapeGroup"></path>
                <path d="M158.437714,39.4465116 C157.801371,39.4465116 157.470857,39.7753178 157.3416,40.3616434 L159.156686,40.2091783 C159.24,39.8104496 159.156686,39.4465116 158.437714,39.4465116 L158.437714,39.4465116 Z M157.164,41.2293643 C157.082057,41.8163721 157.3056,42.0155659 158.060229,42.0155659 L159.958971,42.0155659 L159.770743,42.9071628 C159.770743,42.9071628 158.626286,43.2236899 157.777714,43.2236899 C155.666743,43.2236899 155.643086,42.0394419 155.9136,40.7723101 C156.185143,39.528031 156.668914,38.2973953 158.708914,38.2973953 C160.677943,38.2973953 160.773257,39.4816434 160.289143,41.2293643 L157.164,41.2293643 L157.164,41.2293643 Z" id="Fill-65" sketch:type="MSShapeGroup"></path>
                <path d="M161.348571,43.235969 C160.853143,43.235969 160.546971,43.0951008 160.676914,42.5207132 C160.794171,41.9326822 161.159657,41.7928372 161.655771,41.7928372 C162.1152,41.7928372 162.433371,41.9326822 162.316114,42.5207132 C162.185486,43.0835039 161.809029,43.235969 161.348571,43.235969" id="Fill-66" sketch:type="MSShapeGroup"></path>
            </g>
        </g>
    </g>
</svg>