<?xml version="1.0" encoding="UTF-8" standalone="no"?>
<svg width="130px" height="128px" viewBox="0 0 130 128" version="1.1" xmlns="http://www.w3.org/2000/svg" xmlns:xlink="http://www.w3.org/1999/xlink" xmlns:sketch="http://www.bohemiancoding.com/sketch/ns">
    <!-- Generator: Sketch 3.5.1 (25234) - http://www.bohemiancoding.com/sketch -->
    <title>Shape + Group + C# Copy + Untitled-1</title>
    <desc>Created with Sketch.</desc>
    <defs>
        <path id="path-1" d="M46.3830304,0.903127112 L46.3830304,0.903127112 L46.9957129,0.790390556 L47.6083993,0.903105972 L91.2252396,8.92726049 L94,9.4377309 L94,12.2602656 L94,74.8619639 C94,80.5211134 91.5491059,86.4122041 86.8437796,92.4259712 C82.8470326,97.5260313 77.2702086,102.673711 70.2571892,107.758964 C63.1325638,112.913934 55.4403576,117.3661 48.4973504,120.801131 L46.9944728,121.544675 L45.4921066,120.800097 C38.5351688,117.352216 30.8613545,112.909667 23.7351058,107.756007 C16.7182343,102.663079 11.1382045,97.5165354 7.14400402,92.4242537 C2.44867093,86.4248097 0,80.5245661 0,74.8619639 L0,12.2602656 L0,9.43782987 L2.77464548,8.92728163 L46.3830304,0.903127112 Z"></path>
    </defs>
    <g id="Page-1" stroke="none" stroke-width="1" fill="none" fill-rule="evenodd" sketch:type="MSPage">
        <g id="VirgilSecurity---developers" sketch:type="MSArtboardGroup" transform="translate(-890.000000, -194.000000)">
            <g id="V-Pass-+-V-Pass-Copy" sketch:type="MSLayerGroup" transform="translate(339.000000, 197.000000)">
                <g id="V-Pass-Copy" transform="translate(463.000000, 0.000000)">
                    <g id="virgil-pass" transform="translate(81.000000, 0.000000)">
                        <g id="Shape-+-Group-+-C#-Copy-+-Untitled-1" transform="translate(9.000000, 0.000000)">
                            <g id="Shape-+-Group-+-C#-Copy" transform="translate(14.000000, 0.000000)">
                                <g id="Shape-+-Group">
                                    <mask id="mask-2" sketch:name="Mask" fill="white">
                                        <use xlink:href="#path-1"></use>
                                    </mask>
                                    <use id="Mask" stroke="#2C302E" stroke-width="3" fill="#BB241D" sketch:type="MSShapeGroup" xlink:href="#path-1"></use>
                                    <g id="Shape-+-Rectangle-215" mask="url(#mask-2)" fill="#DA322C" sketch:type="MSShapeGroup">
                                        <g transform="translate(-46.612613, -51.763889)" id="Rectangle-215">
                                            <rect x="0.036036036" y="0.0833333333" width="94" height="185.541667"></rect>
                                        </g>
                                    </g>
                                </g>
                            </g>
                            <g id="private-key-copy" transform="translate(81.000000, 40.000000) scale(-1, 1) translate(-81.000000, -40.000000) translate(36.000000, 23.000000)" stroke="#2C302E" sketch:type="MSShapeGroup">
                                <path d="M32.2057956,10.1081081 L90,10.1081081 L90,18.9250614 L84.5137992,24.4690411 L79.1062485,24.4690411 L75.6287026,20.9548708 L69.0843752,20.9548708 L66.2140602,23.855415 L60.4270049,23.855415 L56.1315098,19.5146812 L44.3528145,19.5146812 L40.9209556,22.9826834 L32.5743526,22.9826834 C30.1789617,29.4198441 24.0301965,34 16.8228273,34 C7.53183636,34 0,26.3888407 0,17 C0,7.61115925 7.53183636,0 16.8228273,0 C23.6860123,0 29.5892854,4.15315498 32.2057956,10.1081081 Z" id="Oval-248" stroke-width="3" fill="#FACB63"></path>
                                <ellipse id="Oval" stroke-width="2.14285714" fill="#FFFFFF" cx="11.8196885" cy="17.4594595" rx="5.45605211" ry="5.51351351"></ellipse>
                                <path d="M88.3928571,14.53125 L59.4876828,14.53125" id="Line" stroke-linecap="square"></path>
                            </g>
                            <g id="private-key-copy-2" transform="translate(0.000000, 54.000000)" stroke="#2C302E" sketch:type="MSShapeGroup">
                                <path d="M32.2057956,10.1081081 L90,10.1081081 L90,18.9250614 L84.5137992,24.4690411 L79.1062485,24.4690411 L75.6287026,20.9548708 L69.0843752,20.9548708 L66.2140602,23.855415 L60.4270049,23.855415 L56.1315098,19.5146812 L44.3528145,19.5146812 L40.9209556,22.9826834 L32.5743526,22.9826834 C30.1789617,29.4198441 24.0301965,34 16.8228273,34 C7.53183636,34 0,26.3888407 0,17 C0,7.61115925 7.53183636,0 16.8228273,0 C23.6860123,0 29.5892854,4.15315498 32.2057956,10.1081081 Z" id="Oval-248" stroke-width="3" fill="#FFFFFF"></path>
                                <ellipse id="Oval" stroke-width="2.14285714" fill="#FFFFFF" cx="11.8196885" cy="17.4594595" rx="5.45605211" ry="5.51351351"></ellipse>
                                <path d="M88.3928571,14.5 L57.4353278,14.5" id="Line" stroke-linecap="square"></path>
                            </g>
                        </g>
                    </g>
                </g>
            </g>
        </g>
    </g>
</svg>