<?xml version="1.0" encoding="UTF-8" standalone="no"?>
<svg width="186px" height="54px" viewBox="0 0 186 54" version="1.1" xmlns="http://www.w3.org/2000/svg" xmlns:xlink="http://www.w3.org/1999/xlink" xmlns:sketch="http://www.bohemiancoding.com/sketch/ns">
    <!-- Generator: Sketch 3.5.1 (25234) - http://www.bohemiancoding.com/sketch -->
    <title>Group 3</title>
    <desc>Created with Sketch.</desc>
    <defs></defs>
    <g id="Page-1" stroke="none" stroke-width="1" fill="none" fill-rule="evenodd" sketch:type="MSPage">
        <g id="VirgilSecurity-Landing-Page-revised" sketch:type="MSArtboardGroup" transform="translate(-247.000000, -16.000000)" fill="#FFFFFF">
            <g id="logo" sketch:type="MSLayerGroup" transform="translate(241.000000, 0.000000)">
                <g id="Group-3" transform="translate(6.000000, 16.000000)" sketch:type="MSShapeGroup">
                    <g id="Shape-+-Shape">
                        <path d="M64.2785655,0.694235751 L63.6067176,1.13665803 C63.5659995,1.17687824 62.1408675,2.58458549 62.1408675,2.58458549 L62.6702023,3.10744819 L62.0594314,3.7107513 L63.2198961,4.8570272 L62.6091252,5.46033031 L61.4486606,4.3140544 L60.8378897,4.91735751 L61.9983543,6.06363342 L61.3875835,6.66693653 L60.2271189,5.52066062 L59.616348,6.12396373 L60.7768126,7.27023964 L60.1660418,7.87354275 L59.0055772,6.72726684 L58.3948063,7.33056995 L59.5552709,8.47684585 L58.9445001,9.08014896 L57.7840354,7.93387306 L56.9696743,8.7382772 L58.1301389,9.88455311 L57.5193681,10.4878562 L56.3589035,9.34158031 L51.5745318,14.0674547 L48.0727789,10.5884067 L45.8943628,11.6743523 L48.88714,14.6305376 L43.7770238,19.6781736 C35.9795159,17.4861723 28.6095476,18.6123381 24.1916384,19.758614 L19.1018813,14.7511982 L22.1760946,11.7145725 L19.9976786,10.6286269 L16.4959257,14.0674547 L11.6911949,9.34158031 L10.5307303,10.4878562 L9.91995946,9.88455311 L11.0804241,8.7382772 L10.2660629,7.93387306 L9.10559832,9.08014896 L8.49482746,8.47684585 L9.65529209,7.33056995 L9.04452123,6.72726684 L7.88405661,7.87354275 L7.27328575,7.27023964 L8.43375038,6.12396373 L7.82297952,5.52066062 L6.68287393,6.68704663 L6.07210307,6.08374352 L7.2325677,4.93746762 L6.62179684,4.33416451 L5.46133222,5.48044041 L4.85056136,4.87713731 L6.01102599,3.7308614 L5.40025513,3.12755829 L5.92958987,2.6046956 L4.52481691,1.21709845 C4.48409885,1.17687824 3.91404605,0.613795337 3.91404605,0.613795337 C3.0182488,0.392584197 2.06137446,0.553465026 1.40988555,1.19698834 C0.778755664,1.82040155 0.615883436,2.76557642 0.96198692,3.54987047 L2.85537657,5.66143135 L3.36435228,5.15867876 L14.4193048,16.1186852 L11.2840144,19.2156412 L12.3834019,21.3674223 L14.3989457,19.376522 L19.9773195,24.8866904 L19.9773195,36.0880181 C20.5270133,37.9180376 21.1988612,39.6072863 22.0132224,41.1557642 L14.7654082,48.3149611 L14.622895,52.5984132 L15.1522298,52.5984132 L15.1318708,48.676943 L22.2982488,41.6786269 C23.2347641,43.3879858 24.3137926,44.8962435 25.4946163,46.2235104 L19.0408042,52.5984132 L14.602536,52.5984132 L14.602536,53.141386 L19.4072667,53.141386 L25.8610788,46.6458225 C28.202367,49.1193653 30.9711949,50.8488342 33.902895,51.7940091 C37.1603396,50.5874028 39.7662952,48.8378238 41.9039932,46.6056023 L48.4392414,53.0609456 L53.2439721,53.1614961 L53.2439721,52.6185233 L48.7853449,52.6185233 L42.3111738,46.1631801 C43.5327155,44.8158031 44.611744,43.2874352 45.5686184,41.6182966 L52.7757144,48.7372733 L52.7553554,52.5783031 L53.2846902,52.5783031 L53.3050492,48.3551813 L45.8740038,41.115544 C46.6476469,39.6676166 47.3602129,38.1191386 47.9913427,36.45 C47.9913427,32.8100712 47.9506247,28.2450777 47.9099066,24.9269106 L53.6307936,19.2759715 L55.7277736,21.3473122 L56.8271611,19.1955311 L53.6918707,16.0985751 L64.7671822,5.15867876 L65.2761579,5.66143135 L67.2917018,3.67053109 C67.454574,2.74546632 67.2917018,1.80029145 66.6605719,1.15676813 C66.009083,0.513244819 65.0725676,0.372474093 64.2785655,0.694235751 Z M19.9773195,21.126101 L19.9773195,24.0822863 L14.8061263,18.9743199 L18.6947007,15.1332902 L23.5401495,19.9194948 C21.3006564,20.5630181 19.9773195,21.126101 19.9773195,21.126101 L19.9773195,21.126101 Z M33.902895,48.7573834 C28.8131379,47.1485751 24.7209732,42.6439119 22.6647113,35.7662565 L22.6647113,22.9762306 C22.6647113,22.9762306 33.6789457,17.9084845 45.1817968,22.9762306 C45.1817968,24.7660298 45.2225149,31.5029145 45.2225149,36.0477979 C42.9219446,42.1411593 39.8477313,46.5653821 33.902895,48.7573834 L33.902895,48.7573834 Z M47.8691886,24.1225065 C47.8488295,22.7952396 47.8488295,21.7495142 47.8488295,21.126101 C46.6883649,20.6233484 45.5482593,20.2010363 44.3877947,19.8390544 L49.2739615,15.0126295 L53.162536,18.8536593 L47.8691886,24.1225065 L47.8691886,24.1225065 Z" id="Shape"></path>
                        <path d="M35.8980798,34.0770078 C36.6717229,33.4737047 37.1603396,32.56875 37.1603396,31.6637953 C37.1603396,29.9745466 35.7555666,28.5869495 34.0454082,28.5869495 C32.3352498,28.5869495 30.9304769,29.9745466 30.9304769,31.6637953 C30.9304769,32.5888601 31.3987345,33.4938148 32.1927366,34.0770078 C32.0909415,34.7808614 31.7855561,36.651101 31.5412477,37.9783679 C31.5208887,38.1392487 31.5616067,38.3001295 31.6634019,38.4409003 C31.765197,38.5615609 31.9280693,38.6420013 32.0909415,38.6420013 L32.0909415,38.6420013 L34.0250492,38.6218912 L35.9795159,38.6420013 L35.9795159,38.6420013 C36.1423882,38.6420013 36.3052604,38.5615609 36.4070555,38.4409003 C36.5088507,38.3202396 36.5699278,38.1593588 36.5292097,37.9783679 C36.3052604,36.6712111 35.9795159,34.7808614 35.8980798,34.0770078 L35.8980798,34.0770078 Z M35.307668,37.5158355 L34.0250492,37.5158355 L32.7424304,37.5158355 C33.4142783,33.6546956 33.3939193,33.6345855 33.1292519,33.3932642 C33.1088929,33.3731541 33.0681749,33.353044 33.0478158,33.3329339 C32.4166859,32.950842 32.0298644,32.3073187 32.0298644,31.6637953 C32.0298644,30.5778497 32.9256617,29.6930052 34.0250492,29.6930052 C35.1244367,29.6930052 36.020234,30.5778497 36.020234,31.6637953 C36.020234,32.3073187 35.6334124,32.950842 35.0022826,33.3329339 C34.9615645,33.353044 34.9412055,33.3731541 34.9208464,33.3932642 C34.6561791,33.6546956 34.63582,33.6546956 35.307668,37.5158355 L35.307668,37.5158355 Z" id="Shape"></path>
                    </g>
                    <path d="M121.48264,39.1467018 L119.822968,39.1467018 C118.926364,39.1467018 118.182373,38.3852243 118.182373,37.4675462 C118.182373,36.5498681 118.926364,35.7883905 119.822968,35.7883905 L123.237696,35.7883905 L123.237696,34.2263852 L119.632201,34.2263852 C117.896223,34.2263852 116.503625,35.6712401 116.503625,37.4480211 C116.503625,39.2248021 117.896223,40.7477573 119.632201,40.7477573 L121.19649,40.7477573 C122.169401,40.7477573 122.932469,41.4506596 122.932469,42.446438 C122.932469,43.4226913 122.150324,44.1255937 121.19649,44.1255937 L117.114079,44.1255937 L117.114079,45.7852243 L121.501717,45.7852243 C123.256772,45.7852243 124.706601,44.2427441 124.706601,42.4269129 C124.687524,40.6306069 123.256772,39.1467018 121.48264,39.1467018 L121.48264,39.1467018 Z M128.273941,40.2010554 L132.985883,40.2010554 L132.985883,38.6195251 L128.273941,38.6195251 L128.273941,35.8274406 L133.214804,35.8274406 L133.214804,34.2068602 L126.614269,34.2068602 L126.614269,45.7852243 L133.310187,45.7852243 L133.310187,44.1255937 L128.273941,44.1255937 L128.273941,40.2010554 L128.273941,40.2010554 Z M134.874475,40.0058047 C134.874475,43.3055409 137.468905,45.9804749 140.673789,45.9804749 C141.379626,45.9804749 142.04731,45.8437995 142.676841,45.6094987 L142.676841,43.7350923 C142.085464,44.1060686 141.398703,44.3208443 140.673789,44.3208443 C138.460893,44.3208443 136.648607,42.3683377 136.648607,39.9862797 C136.648607,37.5846966 138.460893,35.63219 140.673789,35.63219 C141.398703,35.63219 142.085464,35.8469657 142.676841,36.217942 L142.676841,34.3240106 C142.04731,34.0897098 141.379626,33.9530343 140.673789,33.9530343 C137.449828,34.0116095 134.874475,36.6865435 134.874475,40.0058047 L134.874475,40.0058047 Z M151.08966,42.0949868 C151.08966,43.325066 150.078596,44.3794195 148.838611,44.3794195 C147.617703,44.3794195 146.606639,43.344591 146.606639,42.0949868 L146.606639,34.2068602 L144.966043,34.2068602 L144.966043,42.0949868 C144.966043,44.2817942 146.682945,46 148.819535,46 C150.9752,46 152.730256,44.2817942 152.730256,42.0949868 L152.730256,34.2068602 L151.08966,34.2068602 L151.08966,42.0949868 L151.08966,42.0949868 Z M163.184281,38.307124 C163.184281,35.925066 161.333842,34.2068602 158.930179,34.2068602 L155.267455,34.2068602 L155.267455,45.7852243 L156.927127,45.7852243 L156.927127,42.3878628 L158.930179,42.3878628 C160.570775,42.3878628 161.505532,44.0279683 161.505532,45.2970976 L161.505532,45.7852243 L163.184281,45.7852243 L163.184281,45.2970976 C163.184281,43.9108179 162.707364,42.4659631 161.295689,41.6459103 C162.192293,41.1577836 163.184281,39.9472296 163.184281,38.307124 L163.184281,38.307124 Z M159.120946,40.9039578 L156.927127,40.9039578 L156.927127,35.6907652 L159.120946,35.6907652 C160.456314,35.6907652 161.467379,36.9598945 161.467379,38.307124 C161.467379,39.5957784 160.475391,40.9039578 159.120946,40.9039578 L159.120946,40.9039578 Z M165.60702,45.7656992 L167.247615,45.7656992 L167.247615,34.1873351 L165.60702,34.1873351 L165.60702,45.7656992 L165.60702,45.7656992 Z M169.155284,35.8274406 L171.959557,35.8274406 L171.959557,45.7852243 L173.600153,45.7852243 L173.600153,35.8274406 L176.404426,35.8274406 L176.404426,34.2068602 L169.174361,34.2068602 L169.174361,35.8274406 L169.155284,35.8274406 Z M184.168638,34.2068602 L181.688668,39.2248021 L179.208699,34.2068602 L177.377337,34.2068602 L180.868371,40.9039578 L180.868371,45.7852243 L182.508966,45.7852243 L182.508966,40.9039578 L186,34.2068602 L184.168638,34.2068602 L184.168638,34.2068602 Z M120.090042,9.39050132 L116.999618,9.39050132 L116.999618,31.0437995 L120.090042,31.0437995 L120.090042,9.39050132 L120.090042,9.39050132 Z M136.019077,31.0633245 L139.16673,31.0633245 L139.16673,30.1651715 C139.16673,27.5683377 138.251049,24.8738786 135.618466,23.3313984 C137.316291,22.4332454 139.16673,20.1683377 139.16673,17.0833773 C139.16673,12.6316623 135.71385,9.41002639 131.211751,9.41002639 L124.344143,9.41002639 L124.344143,31.0633245 L127.453644,31.0633245 L127.453644,24.7176781 L131.211751,24.7176781 C134.302175,24.7176781 136.019077,27.7831135 136.019077,30.1651715 L136.019077,31.0633245 L136.019077,31.0633245 Z M131.555132,21.9255937 L127.453644,21.9255937 L127.453644,12.1825858 L131.574208,12.1825858 C134.092331,12.1825858 135.961847,14.5646438 135.961847,17.0638522 C135.94277,19.4849604 134.073254,21.9255937 131.555132,21.9255937 L131.555132,21.9255937 Z M152.196108,18.5477573 L152.196108,21.4569921 L159.998474,21.4569921 C159.78863,25.5182058 156.73636,28.3493404 152.463182,28.3493404 C148.323541,28.3493404 144.92789,24.698153 144.92789,20.246438 C144.92789,15.7556728 148.323541,12.1044855 152.463182,12.1044855 C154.981305,12.1044855 157.213277,13.4712401 158.567722,15.501847 C158.567722,15.5408971 161.143075,13.4907652 161.143075,13.4907652 C159.178176,10.776781 155.992369,9 152.463182,9 C146.434948,9 141.608546,14.017942 141.608546,20.2269129 C141.608546,26.4163588 146.454025,31.4343008 152.463182,31.4343008 C158.796643,31.4343008 163.317818,26.4163588 163.317818,20.2269129 C163.317818,19.6411609 163.279664,19.074934 163.203357,18.5282322 L152.196108,18.5282322 L152.196108,18.5477573 Z M169.670355,9.39050132 L166.579931,9.39050132 L166.579931,31.0437995 L169.670355,31.0437995 L169.670355,9.39050132 L169.670355,9.39050132 Z M185.637543,27.9588391 L176.976726,27.9588391 L176.976726,9.39050132 L173.886303,9.39050132 L173.886303,31.0437995 L185.637543,31.0437995 L185.637543,27.9588391 L185.637543,27.9588391 Z M100.193056,35.2026385 L90.5020984,9.39050132 L86,9.39050132 L100.231209,45.3556728 L114.462419,9.39050132 L110.227394,9.39050132 L100.193056,35.2026385 L100.193056,35.2026385 Z" id="Shape"></path>
                </g>
            </g>
        </g>
    </g>
</svg>