<?xml version="1.0" encoding="UTF-8" standalone="no"?>
<svg width="166px" height="48px" viewBox="0 0 166 48" version="1.1" xmlns="http://www.w3.org/2000/svg" xmlns:xlink="http://www.w3.org/1999/xlink" xmlns:sketch="http://www.bohemiancoding.com/sketch/ns">
    <!-- Generator: Sketch 3.3.3 (12081) - http://www.bohemiancoding.com/sketch -->
    <title>Shape + Shape + Shape</title>
    <desc>Created with Sketch.</desc>
    <defs></defs>
    <g id="Page-1" stroke="none" stroke-width="1" fill="none" fill-rule="evenodd" sketch:type="MSPage">
        <g id="VirgilSecurity-Landing-Page-New" sketch:type="MSArtboardGroup" transform="translate(-228.000000, -18.000000)" fill="#FFFFFF">
            <g id="logo" sketch:type="MSLayerGroup" transform="translate(218.000000, 0.000000)">
                <g id="Shape-+-Shape-+-Shape" transform="translate(10.000000, 18.000000)" sketch:type="MSShapeGroup">
                    <g id="Shape-+-Shape">
                        <path d="M56.7163814,0.617098446 L56.1235744,1.01036269 C56.0876467,1.04611399 54.8301772,2.29740933 54.8301772,2.29740933 L55.2972373,2.76217617 L54.7583219,3.2984456 L55.7822612,4.31735751 L55.2433458,4.85362694 L54.2194064,3.83471503 L53.6804909,4.37098446 L54.7044303,5.38989637 L54.1655148,5.9261658 L53.1415755,4.90725389 L52.60266,5.44352332 L53.6265994,6.46243523 L53.0876839,6.99870466 L52.0637446,5.97979275 L51.5248291,6.51606218 L52.5487685,7.53497409 L52.009853,8.07124352 L50.9859136,7.05233161 L50.2673597,7.76735751 L51.2912991,8.78626943 L50.7523836,9.32253886 L49.7284442,8.30362694 L45.5069398,12.5044041 L42.4171578,9.4119171 L40.495026,10.3772021 L43.1357118,13.0049223 L38.6267857,17.4917098 C31.7466317,15.5432642 25.2437185,16.5443005 21.3455633,17.5632124 L16.8546012,13.1121762 L19.5671423,10.4129534 L17.6450105,9.44766839 L14.5552285,12.5044041 L10.3157602,8.30362694 L9.29182086,9.32253886 L8.7529054,8.78626943 L9.77684478,7.76735751 L9.05829083,7.05233161 L8.03435146,8.07124352 L7.495436,7.53497409 L8.51937537,6.51606218 L7.98045991,5.97979275 L6.95652054,6.99870466 L6.41760508,6.46243523 L7.44154445,5.44352332 L6.90262899,4.90725389 L5.89665347,5.94404145 L5.35773801,5.40777202 L6.38167738,4.3888601 L5.84276192,3.85259067 L4.81882254,4.87150259 L4.27990708,4.33523316 L5.30384646,3.31632124 L4.764931,2.78005181 L5.23199106,2.31528497 L3.99248551,1.08186528 C3.95655781,1.04611399 3.45357005,0.545595855 3.45357005,0.545595855 C2.6631607,0.348963731 1.81885982,0.491968912 1.24401666,1.06398964 C0.687137351,1.61813472 0.543426561,2.45829016 0.848811989,3.15544041 L2.51944991,5.03238342 L2.96854613,4.58549223 L12.722916,14.3277202 L9.95648326,17.0805699 L10.9265311,18.9932642 L12.7049521,17.2235751 L17.6270466,22.1215026 L17.6270466,32.0782383 C18.1120706,33.7049223 18.7048776,35.2064767 19.4234315,36.5829016 L13.0283014,42.9466321 L12.9025544,46.7541451 L13.3696145,46.7541451 L13.3516507,43.2683938 L19.6749254,37.0476684 C20.5012624,38.5670984 21.4533464,39.907772 22.4952496,41.0875648 L16.8007096,46.7541451 L12.8845906,46.7541451 L12.8845906,47.2367876 L17.1240589,47.2367876 L22.8185989,41.4629534 C24.8844415,43.661658 27.3275249,45.1989637 29.9143191,46.0391192 C32.7885349,44.9665803 35.0879076,43.411399 36.9741117,41.4272021 L42.7405071,47.165285 L46.9799754,47.2546632 L46.9799754,46.7720207 L43.0458925,46.7720207 L37.3333886,41.0339378 C38.4112196,39.8362694 39.3633035,38.4777202 40.2076044,36.9940415 L46.5668069,43.3220207 L46.548843,46.7362694 L47.0159031,46.7362694 L47.0338669,42.9823834 L40.4770622,36.5471503 C41.1596884,35.2601036 41.7884231,33.8836788 42.3453024,32.4 C42.3453024,29.1645078 42.3093747,25.1067358 42.273447,22.1572539 L47.3212885,17.1341969 L49.1715649,18.9753886 L50.1416127,17.0626943 L47.37518,14.3098446 L57.1475137,4.58549223 L57.5966099,5.03238342 L59.375031,3.2626943 C59.5187417,2.44041451 59.375031,1.60025907 58.8181517,1.02823834 C58.2433085,0.456217617 57.4169715,0.331088083 56.7163814,0.617098446 Z M17.6270466,18.7787565 L17.6270466,21.4064767 L13.0642291,16.8660622 L16.4953242,13.4518135 L20.7707202,17.7062176 C18.7946968,18.2782383 17.6270466,18.7787565 17.6270466,18.7787565 L17.6270466,18.7787565 Z M29.9143191,43.3398964 C25.423357,41.9098446 21.8126234,37.9056995 19.9982747,31.792228 L19.9982747,20.4233161 C19.9982747,20.4233161 29.7167168,15.9186528 39.8662913,20.4233161 C39.8662913,22.0142487 39.902219,28.0025907 39.902219,32.042487 C37.8723041,37.4588083 35.159763,41.3914508 29.9143191,43.3398964 L29.9143191,43.3398964 Z M42.2375193,21.442228 C42.2195555,20.2624352 42.2195555,19.3329016 42.2195555,18.7787565 C41.1956161,18.3318653 40.1896406,17.9564767 39.1657012,17.634715 L43.4770249,13.3445596 L46.90812,16.7588083 L42.2375193,21.442228 L42.2375193,21.442228 Z" id="Shape"></path>
                        <path d="M31.6747763,30.2906736 C32.3574026,29.7544041 32.7885349,28.95 32.7885349,28.1455959 C32.7885349,26.6440415 31.5490294,25.4106218 30.0400661,25.4106218 C28.5311028,25.4106218 27.2915972,26.6440415 27.2915972,28.1455959 C27.2915972,28.9678756 27.7047658,29.7722798 28.4053559,30.2906736 C28.3155366,30.9163212 28.0460789,32.5787565 27.8305127,33.7585492 C27.8125488,33.9015544 27.8484765,34.0445596 27.9382958,34.1696891 C28.028115,34.276943 28.1718258,34.3484456 28.3155366,34.3484456 L28.3155366,34.3484456 L30.0221022,34.3305699 L31.7466317,34.3484456 L31.7466317,34.3484456 C31.8903425,34.3484456 32.0340533,34.276943 32.1238725,34.1696891 C32.2136918,34.0624352 32.2675833,33.9194301 32.2316556,33.7585492 C32.0340533,32.5966321 31.7466317,30.9163212 31.6747763,30.2906736 L31.6747763,30.2906736 Z M31.1538247,33.3474093 L30.0221022,33.3474093 L28.8903798,33.3474093 C29.4831868,29.915285 29.4652229,29.8974093 29.2316929,29.6829016 C29.213729,29.6650259 29.1778013,29.6471503 29.1598375,29.6292746 C28.6029582,29.2896373 28.2616451,28.7176166 28.2616451,28.1455959 C28.2616451,27.1803109 29.0520544,26.3937824 30.0221022,26.3937824 C30.9921501,26.3937824 31.7825594,27.1803109 31.7825594,28.1455959 C31.7825594,28.7176166 31.4412463,29.2896373 30.884367,29.6292746 C30.8484393,29.6471503 30.8304754,29.6650259 30.8125116,29.6829016 C30.5789815,29.915285 30.5610177,29.915285 31.1538247,33.3474093 L31.1538247,33.3474093 Z" id="Shape"></path>
                    </g>
                    <path d="M111.30547,32.565285 L109.898901,32.565285 C109.13903,32.565285 108.508499,31.9262306 108.508499,31.1560881 C108.508499,30.3859456 109.13903,29.7468912 109.898901,29.7468912 L112.792877,29.7468912 L112.792877,28.4360104 L109.737226,28.4360104 C108.265987,28.4360104 107.085762,29.6485751 107.085762,31.1397021 C107.085762,32.630829 108.265987,33.9089378 109.737226,33.9089378 L111.062958,33.9089378 C111.887499,33.9089378 112.534197,34.4988342 112.534197,35.3345207 C112.534197,36.1538212 111.871331,36.7437176 111.062958,36.7437176 L107.603121,36.7437176 L107.603121,38.1365285 L111.321637,38.1365285 C112.809044,38.1365285 114.037771,36.8420337 114.037771,35.3181347 C114.021604,33.8106218 112.809044,32.565285 111.30547,32.565285 L111.30547,32.565285 Z M117.061087,33.4501295 L121.054451,33.4501295 L121.054451,32.1228627 L117.061087,32.1228627 L117.061087,29.7796632 L121.24846,29.7796632 L121.24846,28.4196244 L115.654518,28.4196244 L115.654518,38.1365285 L121.329298,38.1365285 L121.329298,36.7437176 L117.061087,36.7437176 L117.061087,33.4501295 L117.061087,33.4501295 Z M122.65503,33.2862694 C122.65503,36.0555052 124.853805,38.3003886 127.569939,38.3003886 C128.168135,38.3003886 128.733996,38.1856865 129.267522,37.9890544 L129.267522,36.4159974 C128.766331,36.7273316 128.184302,36.9075777 127.569939,36.9075777 C125.694513,36.9075777 124.158604,35.2689767 124.158604,33.2698834 C124.158604,31.2544041 125.694513,29.6158031 127.569939,29.6158031 C128.184302,29.6158031 128.766331,29.7960492 129.267522,30.1073834 L129.267522,28.5179404 C128.733996,28.3213083 128.168135,28.2066062 127.569939,28.2066062 C124.837637,28.2557642 122.65503,30.5006477 122.65503,33.2862694 L122.65503,33.2862694 Z M136.397374,35.0395725 C136.397374,36.0718912 135.540498,36.9567358 134.489613,36.9567358 C133.454895,36.9567358 132.59802,36.0882772 132.59802,35.0395725 L132.59802,28.4196244 L131.207618,28.4196244 L131.207618,35.0395725 C131.207618,36.8748057 132.66269,38.3167746 134.473446,38.3167746 C136.300369,38.3167746 137.787776,36.8748057 137.787776,35.0395725 L137.787776,28.4196244 L136.397374,28.4196244 L136.397374,35.0395725 L136.397374,35.0395725 Z M146.647546,31.8606865 C146.647546,29.8615933 145.079302,28.4196244 143.042201,28.4196244 L139.938048,28.4196244 L139.938048,38.1365285 L141.344618,38.1365285 L141.344618,35.2853627 L143.042201,35.2853627 C144.432603,35.2853627 145.224809,36.6617876 145.224809,37.7268782 L145.224809,38.1365285 L146.647546,38.1365285 L146.647546,37.7268782 C146.647546,36.5634715 146.243359,35.3509067 145.046967,34.6626943 C145.806838,34.253044 146.647546,33.2371114 146.647546,31.8606865 L146.647546,31.8606865 Z M143.203876,34.0400259 L141.344618,34.0400259 L141.344618,29.6649611 L143.203876,29.6649611 C144.335599,29.6649611 145.192474,30.7300518 145.192474,31.8606865 C145.192474,32.9421632 144.351766,34.0400259 143.203876,34.0400259 L143.203876,34.0400259 Z M148.700814,38.1201425 L150.091216,38.1201425 L150.091216,28.4032383 L148.700814,28.4032383 L148.700814,38.1201425 L148.700814,38.1201425 Z M151.707962,29.7796632 L154.084579,29.7796632 L154.084579,38.1365285 L155.474981,38.1365285 L155.474981,29.7796632 L157.851598,29.7796632 L157.851598,28.4196244 L151.724129,28.4196244 L151.724129,29.7796632 L151.707962,29.7796632 Z M164.431756,28.4196244 L162.329986,32.630829 L160.228215,28.4196244 L158.676139,28.4196244 L161.634785,34.0400259 L161.634785,38.1365285 L163.025187,38.1365285 L163.025187,34.0400259 L165.983833,28.4196244 L164.431756,28.4196244 L164.431756,28.4196244 Z M110.125245,7.59300518 L107.506116,7.59300518 L107.506116,25.7650907 L110.125245,25.7650907 L110.125245,7.59300518 L110.125245,7.59300518 Z M123.625077,25.7814767 L126.292709,25.7814767 L126.292709,25.0277202 C126.292709,22.8483808 125.516671,20.5871114 123.285561,19.2926166 C124.724465,18.5388601 126.292709,16.6380829 126.292709,14.0490933 C126.292709,10.3130829 123.366398,7.60939119 119.550876,7.60939119 L113.73059,7.60939119 L113.73059,25.7814767 L116.365886,25.7814767 L116.365886,20.4560233 L119.550876,20.4560233 C122.170006,20.4560233 123.625077,23.0286269 123.625077,25.0277202 L123.625077,25.7814767 L123.625077,25.7814767 Z M119.841891,18.1128238 L116.365886,18.1128238 L116.365886,9.93620466 L119.858058,9.93620466 C121.992164,9.93620466 123.576575,11.9352979 123.576575,14.0327073 C123.560408,16.0645725 121.975996,18.1128238 119.841891,18.1128238 L119.841891,18.1128238 Z M137.335087,15.278044 L137.335087,17.7195596 L143.947579,17.7195596 C143.769737,21.1278497 141.182943,23.5038212 137.561431,23.5038212 C134.053092,23.5038212 131.175283,20.4396373 131.175283,16.7036269 C131.175283,12.9348446 134.053092,9.87066062 137.561431,9.87066062 C139.695536,9.87066062 141.58713,11.0176813 142.73502,12.7218264 C142.73502,12.7545984 144.917627,11.0340674 144.917627,11.0340674 C143.252378,8.75641192 140.552412,7.26528497 137.561431,7.26528497 C132.452513,7.26528497 128.362144,11.4764896 128.362144,16.6872409 C128.362144,21.8816062 132.46868,26.0928109 137.561431,26.0928109 C142.929029,26.0928109 146.760718,21.8816062 146.760718,16.6872409 C146.760718,16.1956606 146.728383,15.7204663 146.663713,15.261658 L137.335087,15.261658 L137.335087,15.278044 Z M152.144484,7.59300518 L149.525354,7.59300518 L149.525354,25.7650907 L152.144484,25.7650907 L152.144484,7.59300518 L152.144484,7.59300518 Z M165.676651,23.176101 L158.336622,23.176101 L158.336622,7.59300518 L155.717493,7.59300518 L155.717493,25.7650907 L165.676651,25.7650907 L165.676651,23.176101 L165.676651,23.176101 Z M93.2625803,29.2553109 L85.0495087,7.59300518 L81.2339873,7.59300518 L93.2949153,37.7760363 L105.355843,7.59300518 L101.766666,7.59300518 L93.2625803,29.2553109 L93.2625803,29.2553109 Z" id="Shape"></path>
                </g>
            </g>
        </g>
    </g>
</svg>