<?xml version="1.0" encoding="UTF-8" standalone="no"?>
<svg width="90px" height="116px" viewBox="0 0 90 116" version="1.1" xmlns="http://www.w3.org/2000/svg" xmlns:xlink="http://www.w3.org/1999/xlink" xmlns:sketch="http://www.bohemiancoding.com/sketch/ns">
    <!-- Generator: Sketch 3.3.3 (12081) - http://www.bohemiancoding.com/sketch -->
    <title>obj-off</title>
    <desc>Created with Sketch.</desc>
    <defs>
        <path id="path-1" d="M0,7.75960085 L0,67.6987713 C0,72.3119689 2.0655459,77.2942685 6.15037688,82.5137654 C9.77144307,87.1304342 14.8982992,91.8581806 21.3863801,96.5674142 C29.4866508,102.425608 37.7442083,106.788881 41.7527089,108.775552 C45.7681487,106.788881 54.0257062,102.426765 62.1236639,96.5674142 C68.6163709,91.8593377 73.7339748,87.1315912 77.3527279,82.5137654 C81.4410285,77.2884832 83.5135135,72.313126 83.5135135,67.6987713 L83.5135135,7.75960085 L41.7527089,0.0767235591 L0,7.75960085 L0,7.75960085 Z"></path>
    </defs>
    <g id="Welcome" stroke="none" stroke-width="1" fill="none" fill-rule="evenodd" sketch:type="MSPage">
        <g id="Artboard-13" sketch:type="MSArtboardGroup" transform="translate(-594.000000, -483.000000)">
            <g id="obj-off" sketch:type="MSLayerGroup" transform="translate(594.000000, 483.000000)">
                <g id="Group-+-C#-Copy-2">
                    <g id="Group">
                        <path d="M0,11.0043561 L0,11.0043561 L0,8.30196202 L2.65657546,7.81312803 L44.4092844,0.130250745 L44.9958953,0.0223090136 L45.5825099,0.130230504 L87.3433145,7.81310779 L90,8.30186725 L90,11.0043561 L90,70.9435266 C90,76.3619854 87.6533992,82.0025208 83.1482996,87.7605149 C79.3216269,92.643663 73.9821146,97.5724057 67.2675216,102.441377 C60.4460718,107.377099 53.0811935,111.639909 46.4336334,114.928844 L44.994708,115.640764 L43.5562722,114.927854 C36.8953744,111.626615 29.5481054,107.373013 22.7251013,102.438545 C16.0068201,97.5622257 10.6642383,92.634571 6.84000385,87.7588704 C2.34447217,82.0145902 0,76.3652912 0,70.9435266 L0,11.0043561 Z" id="Shape" fill="#535353" sketch:type="MSShapeGroup"></path>
                        <g id="Path-+-Rectangle-216" transform="translate(3.243243, 3.244755)">
                            <mask id="mask-2" sketch:name="Mask" fill="white">
                                <use xlink:href="#path-1"></use>
                            </mask>
                            <use id="Mask" fill="#696969" sketch:type="MSShapeGroup" xlink:href="#path-1"></use>
                            <rect id="Rectangle-216" fill="#7A7A7A" sketch:type="MSShapeGroup" mask="url(#mask-2)" x="-42.972973" y="-26.7692308" width="85.1351351" height="147.636364"></rect>
                        </g>
                    </g>
                    <g id="Imported-Layers" transform="translate(22.000000, 33.000000)" sketch:type="MSShapeGroup">
                        <path d="M43.456,29.484 C43.456,29.484 45.626,31.951 46.712,35.009 C47.797,38.068 47.785,41.817 47.588,41.916 C47.39,42.014 44.846,37.673 40.397,37.673 C35.949,37.673 33.688,41.916 25.795,41.916 C8.023,41.916 0.316,27.338 0.316,27.338 C0.316,27.338 8.135,32.937 16.324,32.74 C24.513,32.543 26.782,30.175 26.782,30.175 C26.782,30.175 23.12,27.111 16.817,20.95 C10.514,14.789 4.583,6.299 4.583,6.299 C4.583,6.299 14.085,13.829 17.132,16.044 C20.18,18.26 23.228,20.267 23.228,20.267 C23.228,20.267 20.276,17.083 18.198,14.521 C16.12,11.96 10.798,4.227 10.798,4.227 C10.798,4.227 18.96,11.595 22.674,14.521 C26.387,17.447 33.491,22.38 33.491,22.38 C33.491,22.38 37.77,12.613 29.483,0.083 C49.61,13.106 43.456,29.484 43.456,29.484" id="Fill-1" fill="#FFFFFF"></path>
                        <path d="M43.456,29.484 C43.456,29.484 45.626,31.951 46.712,35.009 C47.797,38.068 47.785,41.817 47.588,41.916 C47.39,42.014 44.846,37.673 40.397,37.673 C35.949,37.673 33.688,41.916 25.795,41.916 C8.023,41.916 0.316,27.338 0.316,27.338 C0.316,27.338 8.135,32.937 16.324,32.74 C24.513,32.543 26.782,30.175 26.782,30.175 C26.782,30.175 23.12,27.111 16.817,20.95 C10.514,14.789 4.583,6.299 4.583,6.299 C4.583,6.299 14.085,13.829 17.132,16.044 C20.18,18.26 23.228,20.267 23.228,20.267 C23.228,20.267 20.276,17.083 18.198,14.521 C16.12,11.96 10.798,4.227 10.798,4.227 C10.798,4.227 18.96,11.595 22.674,14.521 C26.387,17.447 33.491,22.38 33.491,22.38 C33.491,22.38 37.77,12.613 29.483,0.083 C49.61,13.106 43.456,29.484 43.456,29.484 L43.456,29.484 Z" id="Stroke-2" stroke="#2C302E" stroke-width="1.62"></path>
                    </g>
                </g>
            </g>
        </g>
    </g>
</svg>