<?xml version="1.0" encoding="UTF-8" standalone="no"?>
<svg width="135px" height="143px" viewBox="0 0 135 143" version="1.1" xmlns="http://www.w3.org/2000/svg" xmlns:xlink="http://www.w3.org/1999/xlink" xmlns:sketch="http://www.bohemiancoding.com/sketch/ns">
    <!-- Generator: Sketch 3.3.3 (12081) - http://www.bohemiancoding.com/sketch -->
    <title>Platforms</title>
    <desc>Created with Sketch.</desc>
    <defs>
        <path id="path-1" d="M51.4950077,0.0945816288 L0,9.56571484 L0,83.456244 C0,89.143203 2.54750661,95.2851759 7.58546482,101.719556 C12.0514465,107.410794 18.374569,113.238964 26.3765354,119.044312 C36.3668693,126.266051 46.5511903,131.644913 51.4950077,134.094 C56.4473834,131.644913 66.6317043,126.267478 76.6191854,119.044312 C84.6268574,113.24039 90.9385689,107.41222 95.4016978,101.719556 C100.443935,95.278044 103,89.1446294 103,83.456244 L103,9.56571484 L51.4950077,0.0945816288 L51.4950077,0.0945816288 Z"></path>
    </defs>
    <g id="Welcome" stroke="none" stroke-width="1" fill="none" fill-rule="evenodd" sketch:type="MSPage">
        <g id="VirgilSecurity-Landing-Page-New" sketch:type="MSArtboardGroup" transform="translate(-1009.000000, -1086.000000)">
            <g id="Platforms" sketch:type="MSLayerGroup" transform="translate(1010.000000, 1086.000000)">
                <g id="Shape-Copy-3-+-Group" transform="translate(23.000000, 0.000000)">
                    <path d="M54.7714508,0.160567728 L54.7714508,0.160567728 L55.4949376,0.0275016288 L56.2184289,0.160542776 L107.723421,9.63167598 L111,10.2341984 L111,13.5657148 L111,87.456244 C111,94.1358958 108.105859,101.089314 102.54957,108.187531 C97.8300066,114.207274 91.244608,120.283224 82.9632766,126.285491 C74.5501552,132.370045 65.4668053,137.62506 57.2681479,141.679523 L55.4934732,142.557149 L53.7194024,141.678303 C45.5042951,137.608672 36.4426633,132.365008 28.027625,126.282 C19.7417447,120.270675 13.1525606,114.196066 8.43600474,108.185504 C2.89151568,101.104193 0,94.1399711 0,87.456244 L0,13.5657148 L0,10.2343152 L3.27644307,9.63170094 L54.7714508,0.160567728 Z" id="Shape" fill="#9E0B0F" sketch:type="MSShapeGroup"></path>
                    <g id="Path-+-Rectangle-218" transform="translate(4.000000, 4.000000)">
                        <mask id="mask-2" sketch:name="Mask" fill="white">
                            <use xlink:href="#path-1"></use>
                        </mask>
                        <use id="Mask" fill="#BB241D" sketch:type="MSShapeGroup" xlink:href="#path-1"></use>
                        <rect id="Rectangle-218" fill="#DA322C" sketch:type="MSShapeGroup" mask="url(#mask-2)" x="-31" y="-36" width="83" height="186"></rect>
                    </g>
                    <circle id="Oval-128" stroke="#2C302E" stroke-width="2" fill="#FFFFFF" sketch:type="MSShapeGroup" cx="76.5" cy="71.5" r="30.5"></circle>
                    <g id="Group" transform="translate(61.000000, 51.000000)" stroke="#2C302E" fill="#FFFFFF" sketch:type="MSShapeGroup">
                        <g id="Shape-+-Shape">
                            <path d="M24.6641233,19.059358 C24.6235004,14.6028642 28.3608101,12.4347654 28.5317066,12.3338272 C26.4151118,9.2877037 23.1344598,8.87150617 21.981609,8.83832099 C19.2262535,8.55209877 16.5535447,10.4657778 15.1499524,10.4657778 C13.7183442,10.4657778 11.5569241,8.86597531 9.22740902,8.91298765 C6.22971678,8.95861728 3.42533366,10.6718025 1.88726539,13.3321481 C-1.28692649,18.7565432 1.08040991,26.7279012 4.12152667,31.1124938 C5.64278544,33.2598519 7.42038893,35.6574815 9.7471024,35.5731358 C12.0233874,35.4804938 12.8736674,34.140642 15.6206181,34.140642 C18.3423546,34.140642 19.1408053,35.5731358 21.5137449,35.5192099 C23.956724,35.4804938 25.4947922,33.3621728 26.9628209,31.1954568 C28.7208134,28.7342222 29.4268119,26.310321 29.4548277,26.1858765 C29.3973953,26.1665185 24.7103494,24.4007901 24.6641233,19.059358 L24.6641233,19.059358 Z" id="Shape"></path>
                            <path d="M20.1815928,5.95397531 C21.405884,4.44266667 22.2435568,2.3865679 22.0110256,0.300049383 C20.2390253,0.377481481 18.0229743,1.50992593 16.7468539,2.98804938 C15.6178165,4.2905679 14.6092472,6.42548148 14.8697942,8.43318519 C16.8603179,8.57975309 18.9040717,7.44177778 20.1815928,5.95397531 L20.1815928,5.95397531 Z" id="Shape"></path>
                        </g>
                    </g>
                </g>
                <circle id="Oval-128-Copy" stroke="#2C302E" stroke-width="2" fill="#FFFFFF" sketch:type="MSShapeGroup" cx="56" cy="77" r="25"></circle>
                <circle id="Oval-128-Copy-2" stroke="#2C302E" stroke-width="2" fill="#FFFFFF" sketch:type="MSShapeGroup" cx="20.5" cy="81.5" r="20.5"></circle>
                <path d="M18.9478184,75.4773676 L12.134944,76.4052106 L12.9999994,75.4132622 L13.0063408,81.2033404 L13.0017414,81.2033666 L12.0052562,80.2136246 L12.0052512,80.2090251 L18.9447034,80.169507 L17.9503981,81.169944 L17.9474227,74.60438 L18.0819093,74.5860643 L18.9477569,75.3416396 L18.9478184,75.4773676 L18.9478184,75.4773676 Z M12,75.4143574 L18.9473611,74.4681987 L18.950398,81.1694908 L12.0063464,81.2090351 L12,75.4143574 L12,75.4143574 Z M17.9493332,88.5112419 L17.9440519,81.9424141 L18.9375682,82.9415891 L12.0050703,82.8966422 L12.0050699,82.8900916 L12.9984531,81.9030618 L13.0050036,81.9031043 L13.0053925,87.6939704 L12.1415965,86.7033568 L18.9486324,87.639224 L18.9487436,87.7775285 L18.0863489,88.5300796 L17.9493332,88.5112419 L17.9493332,88.5112419 Z M18.9440516,81.9416101 L18.9494441,88.6487425 L12.0053925,87.6940376 L12.0050031,81.8966208 L18.9440516,81.9416101 L18.9440516,81.9416101 Z M28.9978586,74.0105944 L19.9306531,75.3339411 L20.7862344,74.3444245 L20.7862344,81.1494529 L20.7782958,81.1495159 L19.7862344,80.1652991 L19.7862344,80.1573602 L28.98992,80.0842937 L27.9978586,81.0842621 L27.9978586,73.1459487 L28.1422772,73.124871 L28.9978586,73.8646457 L28.9978586,74.0105944 L28.9978586,74.0105944 Z M19.7862344,74.3444245 L28.9978586,73 L28.9978586,81.0842621 L19.7862344,81.1573917 L19.7862344,74.3444245 L19.7862344,74.3444245 Z M27.997877,89.9114094 L28,82.0044163 L28.9983669,83.0046835 L19.7752165,82.9896214 L19.7752098,82.9860798 L20.7697714,81.9912443 L20.773313,81.99125 L20.7862131,88.7505178 L19.9259685,87.76224 L28.9981103,89.0426701 L28.9980724,89.1835349 L28.1373594,89.9310958 L27.997877,89.9114094 L27.997877,89.9114094 Z M29,82.0046848 L28.9978391,90.0525427 L19.786215,88.7524263 L19.773308,81.989617 L29,82.0046848 L29,82.0046848 Z" id="Shape" fill="#2C302E" sketch:type="MSShapeGroup"></path>
                <g id="system1" transform="translate(44.000000, 63.000000)" stroke-width="0.56" stroke="#2C302E" fill="#FFFFFF" sketch:type="MSShapeGroup">
                    <g id="Group">
                        <g id="Shape">
                            <path d="M1.82528935,9.44018775 L1.75040509,9.44018775 C0.790451389,9.44018775 0.00775462963,10.2178004 0.00775462963,11.1660316 L0.00775462963,18.6800692 C0.00775462963,19.6320257 0.790451389,20.4071166 1.75040509,20.4071166 L1.8265625,20.4071166 C2.7865162,20.4071166 3.56921296,19.629504 3.56921296,18.6800692 L3.56921296,11.1659743 C3.56793981,10.2178004 2.78402778,9.44018775 1.82528935,9.44018775 L1.82528935,9.44018775 Z"></path>
                            <path d="M4.40306713,21.5803557 C4.40306713,22.453164 5.12332176,23.1640079 6.00462963,23.1640079 L7.71608796,23.1640079 L7.71608796,27.2226897 C7.71608796,28.1758498 8.50127315,28.950998 9.45873843,28.950998 L9.53362269,28.950998 C10.4948495,28.950998 11.2787616,28.1746462 11.2787616,27.2226897 L11.2787616,23.1640079 L13.670544,23.1640079 L13.670544,27.2226897 C13.670544,28.1758498 14.4582176,28.950998 15.4156829,28.950998 L15.4893519,28.950998 C16.4505208,28.950998 17.2332176,28.1746462 17.2332176,27.2226897 L17.2332176,23.1640079 L18.9458912,23.1640079 C19.8259259,23.1640079 20.5462384,22.453164 20.5462384,21.5803557 L20.5462384,9.71585968 L4.40306713,9.71585968 L4.40306713,21.5803557 L4.40306713,21.5803557 Z"></path>
                            <path d="M16.4954282,2.52076482 L17.8548611,0.44262253 C17.9422454,0.311549407 17.9035301,0.132333992 17.7699653,0.0469960474 C17.6376736,-0.0395454545 17.4566551,-0.00366798419 17.3704861,0.131073123 L15.961169,2.28097036 C14.9038773,1.85198814 13.7229745,1.61093281 12.4758681,1.61093281 C11.2275463,1.61093281 10.0491319,1.85198814 8.98935185,2.28097036 L7.58252315,0.131073123 C7.49641204,-0.00366798419 7.31412037,-0.0395454545 7.18055556,0.0469960474 C7.04699074,0.13227668 7.00827546,0.311549407 7.09565972,0.44262253 L8.45630787,2.52076482 C6.00335648,3.71131225 4.34936343,5.95514427 4.34936343,8.52903755 C4.34936343,8.68727668 4.359375,8.84305138 4.37309028,8.99756522 L20.5798611,8.99756522 C20.5935764,8.84305138 20.6023148,8.68727668 20.6023148,8.52903755 C20.6023727,5.95514427 18.9471065,3.71131225 16.4954282,2.52076482 L16.4954282,2.52076482 Z M8.71846065,6.24193478 C8.28778935,6.24193478 7.93825231,5.8982332 7.93825231,5.47051186 C7.93825231,5.04279051 8.28778935,4.70029249 8.71846065,4.70029249 C9.15162037,4.70029249 9.49866898,5.0427332 9.49866898,5.47051186 C9.49866898,5.89829051 9.14913194,6.24193478 8.71846065,6.24193478 L8.71846065,6.24193478 Z M16.2320602,6.24193478 C15.8013889,6.24193478 15.4518519,5.8982332 15.4518519,5.47051186 C15.4518519,5.04279051 15.8013889,4.70029249 16.2320602,4.70029249 C16.6639468,4.70029249 17.0109954,5.0427332 17.0109954,5.47051186 C17.0109954,5.8982332 16.6639468,6.24193478 16.2320602,6.24193478 L16.2320602,6.24193478 Z"></path>
                            <path d="M23.1988426,9.44018775 L23.1264468,9.44018775 C22.1664931,9.44018775 21.3813079,10.2178004 21.3813079,11.1660316 L21.3813079,18.6800692 C21.3813079,19.6320257 22.1677662,20.4071166 23.1264468,20.4071166 L23.2001157,20.4071166 C24.1612847,20.4071166 24.9427662,19.629504 24.9427662,18.6800692 L24.9427662,11.1659743 C24.9427662,10.2178004 24.1587963,9.44018775 23.1988426,9.44018775 L23.1988426,9.44018775 Z"></path>
                        </g>
                    </g>
                </g>
                <text id="C#" sketch:type="MSTextLayer" font-family="Proxima Nova" font-size="16" font-weight="normal" fill="#FFFFFF">
                    <tspan x="37" y="47">C#</tspan>
                </text>
                <text id="PHP" sketch:type="MSTextLayer" font-family="Proxima Nova" font-size="15" font-weight="normal" fill="#FFFFFF">
                    <tspan x="54" y="25">PHP</tspan>
                </text>
                <text id="Python" sketch:type="MSTextLayer" font-family="Lucida Grande" font-size="7" font-weight="normal" fill="#FFFFFF">
                    <tspan x="66" y="39">Python</tspan>
                </text>
                <text id=".Net" sketch:type="MSTextLayer" font-family="Proxima Nova" font-size="15" font-weight="normal" fill="#FFFFFF">
                    <tspan x="71" y="119">.Net</tspan>
                </text>
                <text id="JS" sketch:type="MSTextLayer" font-family="Proxima Nova" font-size="10" font-weight="normal" fill="#FFFFFF">
                    <tspan x="54" y="116">JS</tspan>
                </text>
                <text id="C++" sketch:type="MSTextLayer" font-family="Proxima Nova" font-size="12" font-weight="normal" fill="#FFFFFF">
                    <tspan x="98" y="30">C++</tspan>
                </text>
            </g>
        </g>
    </g>
</svg>