<?xml version="1.0" encoding="UTF-8" standalone="no"?>
<svg width="91px" height="116px" viewBox="0 0 91 116" version="1.1" xmlns="http://www.w3.org/2000/svg" xmlns:xlink="http://www.w3.org/1999/xlink" xmlns:sketch="http://www.bohemiancoding.com/sketch/ns">
    <!-- Generator: Sketch 3.3.3 (12081) - http://www.bohemiancoding.com/sketch -->
    <title>pyth-on</title>
    <desc>Created with Sketch.</desc>
    <defs>
        <path id="path-1" d="M3.6,11.2797765 L3.6,71.218947 C3.6,75.8321446 5.6655459,80.8144442 9.75037688,86.0339411 C13.3714431,90.6506098 18.4982992,95.3783563 24.9863801,100.08759 C33.0866508,105.945784 41.3442083,110.309056 45.3527089,112.295728 C49.3681487,110.309056 57.6257062,105.946941 65.7236639,100.08759 C72.2163709,95.3795134 77.3339748,90.6517669 80.9527279,86.0339411 C85.0410285,80.8086589 87.1135135,75.8333016 87.1135135,71.218947 L87.1135135,11.2797765 L45.3527089,3.59689922 L3.6,11.2797765 L3.6,11.2797765 Z"></path>
    </defs>
    <g id="Welcome" stroke="none" stroke-width="1" fill="none" fill-rule="evenodd" sketch:type="MSPage">
        <g id="Artboard-13" sketch:type="MSArtboardGroup" transform="translate(-920.000000, -189.000000)">
            <g id="pyth-on" sketch:type="MSLayerGroup" transform="translate(920.500000, 189.000000)">
                <g id="Path-+-Rectangle-217-Copy">
                    <path d="M0,11.0043561 L0,11.0043561 L0,8.30196202 L2.65657546,7.81312803 L44.4092844,0.130250745 L44.9958953,0.0223090136 L45.5825099,0.130230504 L87.3433145,7.81310779 L90,8.30186725 L90,11.0043561 L90,70.9435266 C90,76.3619854 87.6533992,82.0025208 83.1482996,87.7605149 C79.3216269,92.643663 73.9821146,97.5724057 67.2675216,102.441377 C60.4460718,107.377099 53.0811935,111.639909 46.4336334,114.928844 L44.994708,115.640764 L43.5562722,114.927854 C36.8953744,111.626615 29.5481054,107.373013 22.7251013,102.438545 C16.0068201,97.5622257 10.6642383,92.634571 6.84000385,87.7588704 C2.34447217,82.0145902 0,76.3652912 0,70.9435266 L0,11.0043561 Z" id="Shape" fill="#9E0B0F" sketch:type="MSShapeGroup"></path>
                    <mask id="mask-2" sketch:name="Mask" fill="white">
                        <use xlink:href="#path-1"></use>
                    </mask>
                    <use id="Mask" fill="#BB241D" sketch:type="MSShapeGroup" xlink:href="#path-1"></use>
                    <rect id="Rectangle-217" fill="#DA322C" sketch:type="MSShapeGroup" mask="url(#mask-2)" x="-33.2432432" y="-23.5244755" width="78.6486486" height="154.937063"></rect>
                    <g id="g2303" mask="url(#mask-2)" stroke="#2C302E" fill="#FFFFFF" sketch:type="MSShapeGroup">
                        <g transform="translate(14.400000, 25.178295)">
                            <path d="M46.3867527,13.9396626 L46.3867527,20.5640591 C46.3867527,25.6998644 42.0250726,30.0225145 37.0513169,30.0225151 L22.1250697,30.0225151 C18.0365206,30.0225151 14.6532383,33.5157359 14.6532377,37.6031893 L14.6532377,51.8082584 C14.6532377,55.8511029 18.1748361,58.2290589 22.1250697,59.3889326 C26.8553941,60.7774395 31.3915275,61.0283779 37.0513169,59.3889326 C40.8134445,58.3015496 44.5231505,56.1131856 44.5231489,51.8082584 L44.5231489,46.1227544 L29.5969017,46.1227544 L29.5969017,44.2275858 L44.5231489,44.2275858 L51.9949831,44.2275858 C56.3380285,44.2275858 57.9564252,41.2034348 59.4668095,36.6642984 C61.0269866,31.9913283 60.9606019,27.4975101 59.4668095,21.50295 C58.3934964,17.1868668 56.3435517,13.9396626 51.9949831,13.9396626 L46.3867527,13.9396626 L46.3867527,13.9396626 Z" id="path1950" stroke-width="1.62"></path>
                            <path d="M30.9379998,0.221424067 C28.3833491,0.23327401 25.943715,0.450773652 23.7970881,0.82996443 C17.4733943,1.94522977 16.3252567,4.27957575 16.3252561,8.5845074 L16.3252561,14.2700131 L31.2689201,14.2700131 L31.2689201,16.1651816 L16.3252561,16.1651816 L10.7170279,16.1651816 C6.37398308,16.1651816 2.5710887,18.771107 1.38159199,23.728469 C0.00952259037,29.4107566 -0.0513361466,32.9565965 1.38159199,38.8898175 C2.44384102,43.3062777 4.98063557,46.4531037 9.32367926,46.4531049 L14.4616523,46.4531049 L14.4616523,39.6374528 C14.4616523,34.7135464 18.7292807,30.3702535 23.7970881,30.3702524 L38.7233352,30.3702524 C42.8782735,30.3702524 46.1951689,26.9551022 46.1951672,22.7895782 L46.1951672,8.5845074 C46.1951672,4.54166345 42.7786875,1.50469874 38.7233352,0.82996443 C36.156237,0.403373991 33.4926504,0.209574124 30.9379998,0.221424067 L30.9379998,0.221424067 Z" id="path1948" stroke-width="1.62"></path>
                            <path d="M22.8565778,4.79417028 C24.4001556,4.79417028 25.6606919,6.07309039 25.6606919,7.64561655 C25.6606908,9.2125689 24.4001556,10.479676 22.8565778,10.479676 C21.3074661,10.4796754 20.0524637,9.21256835 20.0524637,7.64561655 C20.0524631,6.07309095 21.3074661,4.79417028 22.8565778,4.79417028 L22.8565778,4.79417028 Z" id="path1948-path" stroke-width="0.81"></path>
                            <path d="M37.9918272,49.9130915 C39.5409399,49.9130932 40.7959413,51.1802002 40.7959413,52.7471492 C40.7959402,54.3196732 39.5409383,55.5985955 37.9918272,55.5985955 C36.4482477,55.5985955 35.1877131,54.3196732 35.1877131,52.7471492 C35.1877142,51.1802002 36.4482461,49.9130915 37.9918272,49.9130915 L37.9918272,49.9130915 Z" id="path1950-path" stroke-width="0.81"></path>
                        </g>
                    </g>
                </g>
                <g id="python-logo-generic" transform="translate(8.000000, 19.000000)"></g>
            </g>
        </g>
    </g>
</svg>