<?xml version="1.0" encoding="UTF-8" standalone="no"?>
<svg width="91px" height="116px" viewBox="0 0 91 116" version="1.1" xmlns="http://www.w3.org/2000/svg" xmlns:xlink="http://www.w3.org/1999/xlink" xmlns:sketch="http://www.bohemiancoding.com/sketch/ns">
    <!-- Generator: Sketch 3.3.3 (12081) - http://www.bohemiancoding.com/sketch -->
    <title>ruby-on</title>
    <desc>Created with Sketch.</desc>
    <defs>
        <path id="path-1" d="M3.6,11.2797765 L3.6,71.218947 C3.6,75.8321446 5.6655459,80.8144442 9.75037688,86.0339411 C13.3714431,90.6506098 18.4982992,95.3783563 24.9863801,100.08759 C33.0866508,105.945784 41.3442083,110.309056 45.3527089,112.295728 C49.3681487,110.309056 57.6257062,105.946941 65.7236639,100.08759 C72.2163709,95.3795134 77.3339748,90.6517669 80.9527279,86.0339411 C85.0410285,80.8086589 87.1135135,75.8333016 87.1135135,71.218947 L87.1135135,11.2797765 L45.3527089,3.59689922 L3.6,11.2797765 L3.6,11.2797765 Z"></path>
    </defs>
    <g id="Welcome" stroke="none" stroke-width="1" fill="none" fill-rule="evenodd" sketch:type="MSPage">
        <g id="Artboard-13" sketch:type="MSArtboardGroup" transform="translate(-1084.000000, -189.000000)">
            <g id="ruby-on" sketch:type="MSLayerGroup" transform="translate(1084.500000, 189.000000)">
                <g id="Path-+-Rectangle-217-Copy">
                    <path d="M0,11.0043561 L0,11.0043561 L0,8.30196202 L2.65657546,7.81312803 L44.4092844,0.130250745 L44.9958953,0.0223090136 L45.5825099,0.130230504 L87.3433145,7.81310779 L90,8.30186725 L90,11.0043561 L90,70.9435266 C90,76.3619854 87.6533992,82.0025208 83.1482996,87.7605149 C79.3216269,92.643663 73.9821146,97.5724057 67.2675216,102.441377 C60.4460718,107.377099 53.0811935,111.639909 46.4336334,114.928844 L44.994708,115.640764 L43.5562722,114.927854 C36.8953744,111.626615 29.5481054,107.373013 22.7251013,102.438545 C16.0068201,97.5622257 10.6642383,92.634571 6.84000385,87.7588704 C2.34447217,82.0145902 0,76.3652912 0,70.9435266 L0,11.0043561 Z" id="Shape" fill="#9E0B0F" sketch:type="MSShapeGroup"></path>
                    <mask id="mask-2" sketch:name="Mask" fill="white">
                        <use xlink:href="#path-1"></use>
                    </mask>
                    <use id="Mask" fill="#BB241D" sketch:type="MSShapeGroup" xlink:href="#path-1"></use>
                    <rect id="Rectangle-217" fill="#DA322C" sketch:type="MSShapeGroup" mask="url(#mask-2)" x="-33.2432432" y="-23.5244755" width="78.6486486" height="154.937063"></rect>
                    <g id="Ruby_logo" mask="url(#mask-2)">
                        <g transform="translate(12.600000, 21.581395)">
                            <path d="M59.5448249,6.26153012 C58.4512759,3.34678702 55.9999594,1.02056637 51.3603048,0.231002748 L51.3603048,0.231002748 L51.3919396,0.213769557 L36.0283952,0.144942222 L36.0283952,0.144942222 L35.8201544,0 L23.6817605,4.47805579 C19.8574623,7.98443178 12.4364256,14.9222256 12.168874,15.0527083 C11.9041387,15.1859673 7.26845505,23.8228126 5.04636855,27.942735 L5.24634963,28.501908 L4.50501716,43.78595 L4.50501716,43.78595 L4.5,43.794997 C4.50055245,43.8145874 4.50112994,43.8341427 4.50173256,43.8536685 L4.5,43.8893887 L4.50270655,43.8845229 C4.84277121,54.4219244 12.4744005,54.7347864 15.9077018,54.8320213 L15.8723515,54.8527132 L57.1228951,52.0934202 L57.1244824,52.0729346 L57.1244824,52.0729346 L57.2383647,52.0653802 L57.1899363,52.0616327 L57.1476508,51.7739325 L60.3,11.0910309 L60.2659381,11.1590874 C60.3049221,9.81928577 60.1886203,8.49540467 59.8599332,7.25262591 L59.8719174,7.25428381 C59.7818503,6.8780455 59.6728095,6.54927584 59.5448249,6.26153012 Z M42.832757,4.88099466 L42.8290716,4.87842953 L42.8452058,4.86964036 L42.8452058,4.86964036 L42.8554821,4.87792465 L42.832757,4.88099466 Z M42.8615842,4.90105934 L42.9598395,4.96944815 L42.9561806,4.98090439 L57.4983009,16.6888951 L57.4983009,16.6888951 L57.5006376,16.6842264 L42.8888602,4.90483273 L42.8615842,4.90105934 Z M40.7598347,28.129942 L38.440477,19.1744308 L38.4658372,19.1727977 L40.7598347,28.129942 L40.7598347,28.129942 Z M22.4570612,33.8671438 L22.2056034,33.9201464 L22.2056034,33.9201464 L22.3583657,33.8863616 L22.4542333,33.7985348 L22.4759754,33.8053858 L22.4570612,33.8671438 L22.4570612,33.8671438 Z M57.125743,52.0566653 L57.1292213,52.011776 L57.1858418,52.0613159 L57.125743,52.0566653 L57.125743,52.0566653 Z" id="polygon3282" stroke="#2C302E" stroke-width="1.62" fill="#FFFFFF" sketch:type="MSShapeGroup"></path>
                            <g id="Group" stroke="none" stroke-width="1" fill="none" sketch:type="MSLayerGroup" transform="translate(5.400000, 0.899225)">
                                <path d="M41.6532663,34.9434672 L10.9573869,52.9417242 L50.7027437,50.278561 L53.7639196,10.7046355 L41.6532663,34.9434672 Z" id="polygon3282" stroke="#2C302E" stroke-width="0.54" fill="#FFFFFF" sketch:type="MSShapeGroup"></path>
                                <path d="M50.7678693,50.2514979 L47.3517588,26.9692506 L38.0466633,39.1020641 L50.7678693,50.2514979 Z" id="polygon3293" stroke="#2C302E" stroke-width="0.54" fill="#FFFFFF" sketch:type="MSShapeGroup"></path>
                                <path d="M50.814,50.2514979 L25.7870352,48.3115339 L11.0903518,52.8910815 L50.814,50.2514979 Z" id="polygon3304" stroke="#2C302E" stroke-width="0.54" fill="#FFFFFF" sketch:type="MSShapeGroup"></path>
                                <path d="M11.1256281,52.8961726 L17.3776884,32.6712442 L3.6198995,35.5760991 L11.1256281,52.8961726 Z" id="polygon3319" stroke="#2C302E" stroke-width="0.54" fill="#FFFFFF" sketch:type="MSShapeGroup"></path>
                                <path d="M38.0442211,39.1690518 L32.2914573,16.9184152 L15.8282412,32.1567786 L38.0442211,39.1690518 Z" id="polygon3334" stroke="#2C302E" stroke-width="0.54" fill="#FFFFFF" sketch:type="MSShapeGroup"></path>
                                <path d="M52.4586935,17.2319176 L36.8963819,4.68110093 L32.5628141,18.5154021 L52.4586935,17.2319176 Z" id="polygon3349" stroke="#2C302E" stroke-width="0.54" fill="#FFFFFF" sketch:type="MSShapeGroup"></path>
                                <path d="M45.1809045,0.206322136 L36.0280402,5.20092553 L30.2535678,0.13933443 L45.1809045,0.206322136 Z" id="polygon3362" stroke="#2C302E" stroke-width="0.54" fill="#FFFFFF" sketch:type="MSShapeGroup"></path>
                                <path d="M0,42.3603461 L3.83427136,35.4552533 L0.732663317,27.2291629 L0,42.3603461 Z" id="polygon3375" stroke="#2C302E" stroke-width="0.54" fill="#FFFFFF" sketch:type="MSShapeGroup"></path>
                                <path d="M0.526432161,26.9692506 L3.64703518,35.7098066 L17.2067337,32.7058099 L32.6876382,18.4990571 L37.0564824,4.79631979 L30.1773166,0 L18.4818392,4.32204682 C14.7970854,7.70626576 7.64683417,14.4023569 7.38904523,14.5282938 C7.13396985,14.6569102 2.66743719,22.9928604 0.526432161,26.9692506 L0.526432161,26.9692506 Z" id="path3377" stroke="#2C302E" stroke-width="0.54" fill="#FFFFFF" sketch:type="MSShapeGroup"></path>
                                <path d="M11.4838191,11.2673322 C19.4698492,3.44852713 29.7651256,-1.17094511 33.7160804,2.76525253 C37.664593,6.70145016 33.4772864,16.2672947 25.4912563,24.0834202 C17.5052261,31.8995458 7.33748744,36.7735714 3.38924623,32.8373737 C-0.561708543,28.9038556 3.49778894,19.0834578 11.4838191,11.2673322 L11.4838191,11.2673322 Z" id="path3400" stroke="#2C302E" stroke-width="0.54" fill="#FFFFFF" sketch:type="MSShapeGroup"></path>
                                <path d="M11.1256281,52.8881341 L17.3288442,32.5988975 L37.9302513,39.1342182 C30.4815075,46.0312724 22.1969849,51.8618824 11.1256281,52.8881341 L11.1256281,52.8881341 Z" id="path3413" stroke="#2C302E" stroke-width="0.54" fill="#FFFFFF" sketch:type="MSShapeGroup"></path>
                                <path d="M32.7147739,18.4591324 L38.0035176,39.1449362 C44.2257286,32.6846418 49.8102513,25.7393564 52.5452563,17.1488529 L32.7147739,18.4591324 L32.7147739,18.4591324 Z" id="path3424" stroke="#2C302E" stroke-width="0.54" fill="#FFFFFF" sketch:type="MSShapeGroup"></path>
                                <path d="M52.4912563,17.2533537 C54.6078392,10.9457912 55.0962814,1.89709185 45.1155075,0.217040169 L36.9259598,4.68378044 L52.4912563,17.2533537 L52.4912563,17.2533537 Z" id="path3435" stroke="#2C302E" stroke-width="0.54" fill="#FFFFFF" sketch:type="MSShapeGroup"></path>
                                <path d="M0,42.2692428 C0.293065327,52.6794004 7.89919598,52.8345439 11.139196,52.9259151 L3.65517588,35.6669345 L0,42.2692428 L0,42.2692428 Z" id="path3437" stroke="#2C302E" stroke-width="0.54" fill="#FFFFFF" sketch:type="MSShapeGroup"></path>
                                <path d="M32.7443518,18.4912865 C37.5256583,21.393194 47.161809,27.2211244 47.3571859,27.3283048 C47.6608342,27.4971138 51.5116583,20.9162415 52.3854271,17.197084 L32.7443518,18.4912865 L32.7443518,18.4912865 Z" id="path3448" stroke="#2C302E" stroke-width="0.54" fill="#FFFFFF" sketch:type="MSShapeGroup"></path>
                                <path d="M17.3207035,32.5988975 L25.6133668,48.3972782 C30.5167839,45.7713601 34.3564824,42.5720272 37.8732663,39.1449362 L17.3207035,32.5988975 L17.3207035,32.5988975 Z" id="path3459" stroke="#2C302E" stroke-width="0.54" fill="#FFFFFF" sketch:type="MSShapeGroup"></path>
                                <path d="M3.62261307,35.6883705 L2.44763819,49.5039151 C4.66462312,52.4942463 7.71467337,52.7541586 10.9139698,52.5210414 C8.59929648,46.8324454 3.97537688,35.4579328 3.62261307,35.6883705 L3.62261307,35.6883705 Z" id="path3472" stroke="#2C302E" stroke-width="0.54" fill="#FFFFFF" sketch:type="MSShapeGroup"></path>
                                <path d="M36.8773869,4.71861405 L53.3514573,7.00155509 C52.4722613,3.32259024 49.7722613,0.948545924 45.1700503,0.206322136 L36.8773869,4.71861405 L36.8773869,4.71861405 Z" id="path3485" stroke="#2C302E" stroke-width="0.54" fill="#FFFFFF" sketch:type="MSShapeGroup"></path>
                            </g>
                            <g id="Group-Copy-5" stroke="none" stroke-width="1" fill="none" sketch:type="MSLayerGroup" transform="translate(0.000000, 0.899225)"></g>
                        </g>
                    </g>
                </g>
            </g>
        </g>
    </g>
</svg>