<?xml version="1.0" encoding="UTF-8" standalone="no"?>
<svg width="665px" height="357px" viewBox="0 0 665 357" version="1.1" xmlns="http://www.w3.org/2000/svg" xmlns:xlink="http://www.w3.org/1999/xlink" xmlns:sketch="http://www.bohemiancoding.com/sketch/ns">
    <!-- Generator: Sketch 3.3.3 (12081) - http://www.bohemiancoding.com/sketch -->
    <title>Group</title>
    <desc>Created with Sketch.</desc>
    <defs>
        <path id="path-1" d="M123.982583,34.27 L123.982583,34.27 L123.982583,33.966 C124.048583,33.036 124.092583,31.97 124.086583,30.816 C124.154583,23.996 122.500583,13.65 112.292583,11.134 C96.7345834,7.302 83.8305834,1.46 83.8305834,1.46 C73.9210987,3.82166548 68.445937,9.56738378 62.7838603,9.76689697 C57.1343588,9.96596705 51.2987717,4.62569255 40.6865834,0.822 C40.5925834,0.868 27.2965834,7.316 11.7945834,11.136 C1.56258341,13.654 -0.0754165902,24.046 0.0025834098,30.866 C-0.0034165902,31.764 0.0225834098,32.61 0.0545834098,33.376 C0.0545834098,33.376 0.0505834098,33.704 0.0525834098,34.258 C0.0505834098,34.766 0.0525834098,36.01 0.11058341,37.554 C18.7845834,46.166 39.7625834,51 61.9345834,51 C84.1725834,51 105.210583,46.136 123.928583,37.476 C123.984583,35.98 123.984583,34.776 123.982583,34.27 L123.982583,34.27 Z"></path>
        <path d="M105,68.4084507 C105,79.2285646 82.1665222,88 54,88 C25.8334778,88 3,79.2285646 3,68.4084507 L3,3.6056338 L105,3.6056338 L105,68.4084507 Z" id="path-3"></path>
        <path d="M104,33.8028169 C104,44.6229308 81.1665222,53.3943662 53,53.3943662 C24.8334778,53.3943662 2,44.6229308 2,33.8028169 L2,2.15492958 L104,2.15492958 L104,33.8028169 Z" id="path-5"></path>
        <path d="M0,20.1971831 L0,3.61971831 L23.8076953,3.61971831 C31.6784481,1.71051097 41.0033407,0.605633803 51,0.605633803 C60.9966593,0.605633803 70.3215519,1.71051097 78.1923047,3.61971831 L102,3.61971831 L102,20.1971831 C102,31.017297 79.1665222,39.7887324 51,39.7887324 C22.8334778,39.7887324 0,31.017297 0,20.1971831 Z" id="path-7"></path>
        <path id="path-9" d="M21.9979018,0.448784811 L0.35483871,4.37516722 L0.35483871,35.0074545 C0.35483871,37.365058 1.42554146,39.9112933 3.54296705,42.5787498 C5.41999409,44.9381272 8.07756704,47.3542715 11.4407487,49.7609547 C15.63963,52.7548213 19.920043,54.984699 21.9979018,56 C24.0793575,54.984699 28.3597705,52.7554126 32.5574528,49.7609547 C35.9230325,47.3548628 38.5758094,44.9387185 40.4516375,42.5787498 C42.5708616,39.9083367 43.6451613,37.3656493 43.6451613,35.0074545 L43.6451613,4.37516722 L21.9979018,0.448784811 L21.9979018,0.448784811 Z"></path>
        <path id="path-11" d="M21.9979018,0.448784811 L0.35483871,4.37516722 L0.35483871,35.0074545 C0.35483871,37.365058 1.42554146,39.9112933 3.54296705,42.5787498 C5.41999409,44.9381272 8.07756704,47.3542715 11.4407487,49.7609547 C15.63963,52.7548213 19.920043,54.984699 21.9979018,56 C24.0793575,54.984699 28.3597705,52.7554126 32.5574528,49.7609547 C35.9230325,47.3548628 38.5758094,44.9387185 40.4516375,42.5787498 C42.5708616,39.9083367 43.6451613,37.3656493 43.6451613,35.0074545 L43.6451613,4.37516722 L21.9979018,0.448784811 L21.9979018,0.448784811 Z"></path>
        <path id="path-13" d="M4,15.9935667 L4,15.9935667 L4,86.0064333 C4,92.6231118 9.37334291,98 15.9912208,98 L155.008779,98 C161.632763,98 167,92.6313935 167,86.0064333 L167,15.9935667 C167,9.37688815 161.626657,4 155.008779,4 L15.9912208,4 C9.36723664,4 4,9.36860651 4,15.9935667 L4,15.9935667 Z"></path>
        <path id="path-15" d="M21.9979018,0.448784811 L0.35483871,4.37516722 L0.35483871,35.0074545 C0.35483871,37.365058 1.42554146,39.9112933 3.54296705,42.5787498 C5.41999409,44.9381272 8.07756704,47.3542715 11.4407487,49.7609547 C15.63963,52.7548213 19.920043,54.984699 21.9979018,56 C24.0793575,54.984699 28.3597705,52.7554126 32.5574528,49.7609547 C35.9230325,47.3548628 38.5758094,44.9387185 40.4516375,42.5787498 C42.5708616,39.9083367 43.6451613,37.3656493 43.6451613,35.0074545 L43.6451613,4.37516722 L21.9979018,0.448784811 L21.9979018,0.448784811 Z"></path>
        <path id="path-17" d="M30.4970911,0.62509313 L0.491935484,6.09398291 L0.491935484,48.7603831 C0.491935484,52.0441879 1.97631884,55.5907299 4.91184068,59.3061158 C7.51408272,62.5923914 11.1984452,65.9577353 15.8610379,69.3099012 C21.6822143,73.4799297 27.6164233,76.5858308 30.4970911,78 C33.3827456,76.5858308 39.3169545,73.4807533 45.1364687,69.3099012 C49.8023859,65.9585589 53.4800994,62.593215 56.0806792,59.3061158 C59.0186944,55.5866118 60.5080645,52.0450115 60.5080645,48.7603831 L60.5080645,6.09398291 L30.4970911,0.62509313 L30.4970911,0.62509313 Z"></path>
    </defs>
    <g id="Welcome" stroke="none" stroke-width="1" fill="none" fill-rule="evenodd" sketch:type="MSPage">
        <g id="VirgilSecurity-Landing-Page-New" sketch:type="MSArtboardGroup" transform="translate(-387.000000, -2070.000000)">
            <g id="Group" sketch:type="MSLayerGroup" transform="translate(239.000000, 2071.500000)">
                <g transform="translate(148.000000, 0.000000)">
                    <g transform="translate(257.000000, 0.000000)">
                        <g id="Shape-+-Rectangle-95" transform="translate(0.000000, 85.000000)">
                            <path d="M132.982583,38.27 C132.986552,39.26612 132.973156,40.3601141 132.925784,41.6256278 L132.834041,44.0764746 L130.608161,45.106292 C110.940357,54.2057248 89.2915499,59 66.9345834,59 C44.6416652,59 23.0548077,54.234321 3.43543625,45.1863384 L1.20558017,44.1579823 L1.11340265,41.7041532 C1.06425923,40.3959213 1.04875431,39.2227163 1.05260948,38.2724403 C1.05153946,37.9760473 1.05198246,37.7170697 1.05338796,37.5009047 C1.05443737,37.3643601 1.00284499,37.9659985 1.00284499,37.9659985 L1.05806923,37.5429562 C1.01645112,36.5467228 0.996888223,35.7050167 1.00284499,34.9117448 C0.948445008,30.1552334 1.63666538,25.6667624 3.37900029,21.7588985 C5.74557783,16.4509277 9.88667178,12.7166318 15.8375333,11.2521804 C22.4287384,9.62797679 29.1170097,7.39902048 35.5416234,4.84641372 C37.7975557,3.95009397 39.8589928,3.07721556 41.6816166,2.2633641 C42.3191238,1.97869964 42.8809384,1.72188954 43.3610528,1.49761486 C43.6464741,1.3642867 43.8460998,1.26912883 43.928372,1.22913311 L45.4458513,0.486536854 L47.0362158,1.0565661 C49.2865195,1.86313525 51.4446532,2.77173787 53.6805543,3.82846855 C55.6674731,4.76752537 61.4843169,7.78611134 62.4899938,8.25861974 C64.8550915,9.36984005 66.3955051,9.81333561 67.6430007,9.76937792 C69.0016768,9.63149006 70.1647284,9.23706397 71.7817479,8.46349028 C72.7632118,7.99396307 76.7158062,5.90239177 77.420196,5.54650147 C81.078784,3.69801351 84.2687496,2.43516567 87.9032599,1.56897557 L89.2340319,1.25182101 L90.4803041,1.81604314 C90.5240668,1.83585571 90.6214267,1.8793593 90.7703053,1.94497169 C91.0258491,2.05759261 91.3287857,2.1891731 91.677033,2.3381308 C92.6806641,2.76741925 93.8407856,3.24734037 95.1406898,3.76523525 C98.8649648,5.24902386 102.950433,6.73416666 107.262008,8.11951614 C110.93812,9.30068541 114.615559,10.3550926 118.24983,11.2502287 C124.188323,12.713909 128.324471,16.435824 130.693703,21.726075 C132.439711,25.6247325 133.133766,30.103804 133.086529,34.7952031 C133.092649,35.9721889 133.052036,37.1291077 132.972548,38.2491588 L132.982583,37.9659985 L132.982583,38.27 Z" id="Shape" fill="#2C302E" sketch:type="MSShapeGroup"></path>
                            <g id="Path-+-Rectangle-95-+-Rectangle-95-Copy" transform="translate(5.000000, 4.000000)">
                                <mask id="mask-2" sketch:name="Mask" fill="white">
                                    <use xlink:href="#path-1"></use>
                                </mask>
                                <use id="Mask" fill="#FFFFFF" sketch:type="MSShapeGroup" xlink:href="#path-1"></use>
                                <path d="M104.995252,-24.5019531 L66.5108767,56.3925781 L114.188548,56.3925781 L114.188548,-25.8755685 L104.995252,-24.5019531 Z" id="Path-1269-Copy" fill="#E1E2E2" sketch:type="MSShapeGroup" mask="url(#mask-2)"></path>
                                <path d="M127.385156,-24.5019531 L88.9007812,56.3925781 L136.578452,56.3925781 L136.578452,-25.8755685 L127.385156,-24.5019531 Z" id="Path-1269" fill="#D8D8D8" sketch:type="MSShapeGroup" mask="url(#mask-2)"></path>
                            </g>
                        </g>
                        <path d="M42.934082,47.6640625 L42.8039809,47.3883349 C40.9228688,43.4016308 37.1606445,35.4282227 37.1606445,35.4282227 L39.6787109,19.2416992 L46.4453125,11.3999023 L55.8286133,3.51513672 L63.96875,1.6640625 L73.2910156,1.32763672 L83.9438477,6.31445312 L89.6254883,9.82519531 L97.640625,16.5170898 L100.104492,31.5371094 L98.9755859,38.1298828 L96.3432617,44.3544922 L94.3081055,45.1464844 L91.8115234,44.8046875 L93.0166016,35.7304688 L94.5634766,26.9389648 L93.4833984,23.4213867 L91.5024414,22.5097656 L81.8203125,23.7250977 L73.925293,27.3769531 L67.1308594,28.2294922 L56.3374023,25.2827148 L49.1748047,20.7402344 L47.1503906,19.8339844 L42.5541992,27.9951172 L42.0820312,33.6713867 L42.4238281,38.2133789 L44.1118164,42.9521484 L42.934082,47.6640625 Z" id="Path-536" fill="#EBECEC" sketch:type="MSShapeGroup"></path>
                        <path d="M47.9505834,78.562 C43.9945834,73.376 42.1565834,67.154 41.3405834,61.814 C39.8845834,61.696 37.9605834,59.624 35.8945834,52.238 C33.2425834,42.758 35.7205834,40.856 38.1365834,40.856 C38.2965834,40.856 38.4565834,40.864 38.6145834,40.88 C36.7445834,35.572 36.7065834,30.348 37.9585834,25.516 C39.2765834,19.826 42.3165834,15.27 45.7265834,11.746 C48.5043949,7.8999222 50.9262699,7.18798811 59.8905834,2.122 C61.8805834,1.44 63.9965834,1.002 66.2385834,0.896 C67.1785834,0.814 68.0865834,0.774 68.9645834,0.774 C74.5565834,0.774 78.9165834,2.348 82.1725834,4.3 C84.2307172,5.44836838 85.8214582,6.73280297 87.011264,7.89992197 C87.4921887,8.37167665 89.9305834,11.592 89.9305834,11.592 C89.9305834,11.592 91.3877801,11.6956 93.1622225,12.8277419 C93.8608673,13.273496 94.6086917,13.8786952 95.336118,14.6997938 C98.5183796,18.2918424 101.310266,26.0157483 97.8865834,42.598 C99.7905834,43.264 101.132583,45.906 98.9265834,53.79 C96.7965834,61.406 94.8185834,63.372 93.3465834,63.372 C92.9425834,63.372 92.5785834,63.224 92.2585834,63.004 C91.3865834,67.964 89.6045834,73.532 86.0905834,78.276 C73.1279281,87.7880839 66.2385829,93.3515604 47.9505834,78.562 Z" id="Shape-Copy-2" stroke="#2C302E" stroke-width="4" sketch:type="MSShapeGroup"></path>
                        <path d="M39.5341797,41.3740234 L43.190918,48.2304688 L44.800293,47.34375 C44.800293,47.34375 40.7246094,34.0986328 42.3691406,29.2470703 C44.0136719,24.3955078 47.6621094,19.8222656 47.6621094,19.8222656 C47.6621094,19.8222656 62.9804688,32.7739258 74.6367188,26.9189453 C86.2929688,21.0639648 93.3530273,23.3476562 93.3530273,23.3476562 C93.3530273,23.3476562 95.0551758,28.2255859 94.2041016,32.215332 C93.3530273,36.2050781 92.0214844,44.753418 92.0214844,44.753418 L95.3969727,45.2304688 L97.5083008,41.1015625" id="Path-535" stroke="#2C302E" stroke-width="2" sketch:type="MSShapeGroup"></path>
                    </g>
                    <g transform="translate(271.000000, 227.000000)">
                        <g id="Group-Copy-2">
                            <g id="Oval-120-Copy-+-Rectangle-95-Copy-3-+-Rectangle-95-Copy-2" transform="translate(0.000000, 22.000000)">
                                <path d="M54,91 L54,91 C24.290028,91 0,81.6690337 0,68.4084507 C0,55.1478677 24.290028,45.8169014 54,45.8169014 C83.709972,45.8169014 108,55.1478677 108,68.4084507 C108,81.6690337 83.709972,91 54,91 L54,91 Z M3,0.605633803 L105,0.605633803 L108,0.605633803 L108,3.6056338 L108,68.4084507 L106.95459,68.4084521 L105.614258,68.4084521 L3,71.4084507 L0,71.4084507 L0,68.4084507 L0,3.6056338 L0,0.605633803 L3,0.605633803 Z" id="Shape" fill="#2C302E" sketch:type="MSShapeGroup"></path>
                                <mask id="mask-4" sketch:name="Mask" fill="white">
                                    <use xlink:href="#path-3"></use>
                                </mask>
                                <use id="Mask" fill="#EDEEEE" sketch:type="MSShapeGroup" xlink:href="#path-3"></use>
                                <path d="M91.9952517,25.4980469 L53.5108767,106.392578 L101.188548,106.392578 L101.188548,24.1244315 L91.9952517,25.4980469 Z" id="Path-1269-Copy-7" fill="#E1E2E2" sketch:type="MSShapeGroup" mask="url(#mask-4)"></path>
                                <path d="M114.385156,25.4980469 L75.9007812,106.392578 L123.578452,106.392578 L123.578452,24.1244315 L114.385156,25.4980469 Z" id="Path-1269-Copy-6" fill="#D8D8D8" sketch:type="MSShapeGroup" mask="url(#mask-4)"></path>
                            </g>
                            <g id="Oval-120-Copy-3-+-Rectangle-95-Copy-5-+-Rectangle-95-Copy-4" transform="translate(1.000000, 34.000000)">
                                <path d="M53,54.8943662 L53,54.8943662 C24.0617529,54.8943662 0.5,45.8431654 0.5,33.8028169 C0.5,21.7624684 24.0617529,12.7112676 53,12.7112676 C81.9382471,12.7112676 105.5,21.7624684 105.5,33.8028169 C105.5,45.8431654 81.9382471,54.8943662 53,54.8943662 L53,54.8943662 Z M2,0.654929577 L2,0.654929577 L104,0.654929577 L105.5,0.654929577 L105.5,2.15492958 L105.5,33.8028169 L105.5,35.3028169 L104,35.3028169 L2,35.3028169 L0.5,35.3028169 L0.5,33.8028169 L0.5,2.15492958 L0.5,0.654929577 L2,0.654929577 Z" id="Shape" fill="#2C302E" sketch:type="MSShapeGroup"></path>
                                <mask id="mask-6" sketch:name="Mask" fill="white">
                                    <use xlink:href="#path-5"></use>
                                </mask>
                                <use id="Mask" fill="#EDEEEE" sketch:type="MSShapeGroup" xlink:href="#path-5"></use>
                                <path d="M96.9952517,-22.5019531 L58.5108767,58.3925781 L106.188548,58.3925781 L106.188548,-23.8755685 L96.9952517,-22.5019531 Z" id="Path-1269-Copy-5" fill="#E1E2E2" sketch:type="MSShapeGroup" mask="url(#mask-6)"></path>
                                <path d="M119.385156,-22.5019531 L80.9007812,58.3925781 L128.578452,58.3925781 L128.578452,-23.8755685 L119.385156,-22.5019531 Z" id="Path-1269-Copy-4" fill="#D8D8D8" sketch:type="MSShapeGroup" mask="url(#mask-6)"></path>
                            </g>
                            <g id="Oval-120-Copy-2-+-Rectangle-95-Copy-7-+-Rectangle-95-Copy-6" transform="translate(1.000000, 24.000000)">
                                <path d="M53,42.2887324 L53,42.2887324 C24.0617529,42.2887324 0.5,33.2375316 0.5,21.1971831 C0.5,9.15683464 24.0617529,0.105633803 53,0.105633803 C81.9382471,0.105633803 105.5,9.15683464 105.5,21.1971831 C105.5,33.2375316 81.9382471,42.2887324 53,42.2887324 L53,42.2887324 Z M2,3.11971831 L2,3.11971831 L104,3.11971831 L105.5,3.11971831 L105.5,4.61971831 L105.5,21.1971831 L105.5,22.6971831 L104,22.6971831 L2,22.6971831 L0.5,22.6971831 L0.5,21.1971831 L0.5,4.61971831 L0.5,3.11971831 L2,3.11971831 Z" id="Shape" fill="#2C302E" sketch:type="MSShapeGroup"></path>
                                <g id="Path-+-Path-1269-Copy-3-+-Path-1269-Copy-2" transform="translate(2.000000, 1.000000)">
                                    <mask id="mask-8" sketch:name="Mask" fill="white">
                                        <use xlink:href="#path-7"></use>
                                    </mask>
                                    <use id="Mask" fill="#EDEEEE" sketch:type="MSShapeGroup" xlink:href="#path-7"></use>
                                    <path d="M88.9952517,-23.5019531 L50.5108767,57.3925781 L98.1885476,57.3925781 L98.1885476,-24.8755685 L88.9952517,-23.5019531 Z" id="Path-1269-Copy-3" fill="#E1E2E2" sketch:type="MSShapeGroup" mask="url(#mask-8)"></path>
                                    <path d="M111.385156,-23.5019531 L72.9007812,57.3925781 L120.578452,57.3925781 L120.578452,-24.8755685 L111.385156,-23.5019531 Z" id="Path-1269-Copy-2" fill="#D8D8D8" sketch:type="MSShapeGroup" mask="url(#mask-8)"></path>
                                </g>
                            </g>
                            <path d="M54,45.1830986 L54,45.1830986 C24.290028,45.1830986 0,35.8521323 0,22.5915493 C0,9.33096629 24.290028,0 54,0 C83.709972,0 108,9.33096629 108,22.5915493 C108,35.8521323 83.709972,45.1830986 54,45.1830986 L54,45.1830986 Z" id="Shape" fill="#2C302E" sketch:type="MSShapeGroup"></path>
                            <path d="M54,42.1830986 C82.1665222,42.1830986 105,33.4116632 105,22.5915493 C105,11.7714354 82.1665222,3 54,3 C25.8334778,3 3,11.7714354 3,22.5915493 C3,33.4116632 25.8334778,42.1830986 54,42.1830986 L54,42.1830986 Z" id="Path" fill="#EDEEEE" sketch:type="MSShapeGroup"></path>
                        </g>
                        <ellipse id="Oval-124" stroke="#2C302E" stroke-width="1.5" fill="#FFB0AD" sketch:type="MSShapeGroup" cx="18.75" cy="48.9647887" rx="2.25" ry="2.26056338"></ellipse>
                        <ellipse id="Oval-124-Copy" stroke="#2C302E" stroke-width="1.5" fill="#FFB0AD" sketch:type="MSShapeGroup" cx="18.75" cy="71.5704225" rx="2.25" ry="2.26056338"></ellipse>
                        <ellipse id="Oval-124-Copy-2" stroke="#2C302E" stroke-width="1.5" fill="#FFB0AD" sketch:type="MSShapeGroup" cx="18.75" cy="94.1760563" rx="2.25" ry="2.26056338"></ellipse>
                    </g>
                    <g id="shield-copy-4" transform="translate(254.000000, 291.000000)">
                        <g id="Mask-+-Rectangle-94">
                            <path d="M25.3731459,1.00499619 L25.3731459,1.00499619 L25.9978412,0.891666908 L26.6225404,1.00497492 L48.2697999,4.93135733 L51.1451613,5.4528907 L51.1451613,8.37516722 L51.1451613,39.0074545 C51.1451613,42.2452648 49.7669946,45.5112747 47.191544,48.7565725 C45.0924276,51.3974591 42.2013737,54.0284865 38.5900392,56.6102691 C34.9616531,59.1986139 31.0611202,61.4244284 27.5323316,63.1457153 L25.9965739,63.8948335 L24.4613272,63.1446683 C20.9261503,61.4172801 17.0353227,59.19649 13.4039441,56.6072553 C9.79281267,54.0231399 6.90066209,51.3932073 4.80165438,48.7548024 C2.23176995,45.5173545 0.85483871,42.2462354 0.85483871,39.0074545 L0.85483871,8.37516722 L0.85483871,5.45299182 L3.73008282,4.9313786 L25.3731459,1.00499619 Z" id="Shape" fill="#9E0B0F" sketch:type="MSShapeGroup"></path>
                            <g id="Path-+-Rectangle-94" transform="translate(4.000000, 4.000000)">
                                <mask id="mask-10" sketch:name="Mask" fill="white">
                                    <use xlink:href="#path-9"></use>
                                </mask>
                                <use id="Mask" fill="#BB241D" sketch:type="MSShapeGroup" xlink:href="#path-9"></use>
                                <rect id="Rectangle-94" fill="#DA322C" sketch:type="MSShapeGroup" mask="url(#mask-10)" x="-31.2258065" y="-21" width="53.2258065" height="94.5"></rect>
                            </g>
                        </g>
                        <path d="M26.0640692,40.7635791 L16.7760065,16.6 L12.4610797,16.6 L26.1006363,50.2681639 L39.740193,16.6 L35.6812364,16.6 L26.0640692,40.7635791 L26.0640692,40.7635791 Z" id="Shape-Copy" fill="#FFFFFF" sketch:type="MSShapeGroup"></path>
                    </g>
                    <path d="M315.5,69.5 C315.5,69.5 321.785482,72.6074219 325,72.6074219 C328.118815,72.6074219 334.5,69.5 334.5,69.5" id="Line" stroke="#2C302E" stroke-width="2" stroke-linecap="square" sketch:type="MSShapeGroup"></path>
                    <g transform="translate(0.000000, 207.000000)">
                        <path d="M17,0.716187676 L153,0.716187676 L153,137.716188 C153,137.716188 137.012309,131.063926 124.779297,131.706422 C112.446387,132.354165 100.611791,140.088122 87.3183594,139.215211 C65.8141889,137.803143 61.1369738,131.706422 44.5585938,131.706422 C36.2174479,131.706422 17,137.716188 17,137.716188 L17,0.716187676 Z" id="Rectangle-97-Copy" stroke="#2C302E" stroke-width="4" fill="#CBDBEA" sketch:type="MSShapeGroup"></path>
                        <path d="M26,9 L162,9 L162,146 C162,146 146.012309,139.347739 133.779297,139.990234 C121.446387,140.637977 109.611791,148.371934 96.3183594,147.499023 C74.8141889,146.086956 70.1369738,139.990234 53.5585938,139.990234 C45.2174479,139.990234 26,146 26,146 L26,9 Z" id="Rectangle-97" stroke="#2C302E" stroke-width="4" fill="#424B54" sketch:type="MSShapeGroup"></path>
                        <text id="public-class-Hello1" sketch:type="MSTextLayer" font-family="Consolas" font-size="11" font-weight="normal">
                            <tspan x="36" y="30" fill="#F6A623">public class</tspan>
                            <tspan x="108.574219" y="30" fill="#000000"> </tspan>
                            <tspan x="114.62207" y="30" fill="#F8E81C">Hello1</tspan>
                            <tspan x="150.90918" y="30" fill="#000000"></tspan>
                            <tspan x="36" y="43" fill="#B8E986">{</tspan>
                            <tspan x="42.0478516" y="43" fill="#000000"></tspan>
                            <tspan x="36" y="56" fill="#000000">  </tspan>
                            <tspan x="48.0957031" y="56" fill="#F6A623">public static</tspan>
                            <tspan x="126.717773" y="56" fill="#000000"> </tspan>
                            <tspan x="36" y="69" fill="#C07DFA">void Main()</tspan>
                            <tspan x="102.526367" y="69" fill="#000000"></tspan>
                            <tspan x="36" y="82" fill="#000000">   </tspan>
                            <tspan x="36" y="95" fill="#B8E986">{</tspan>
                            <tspan x="42.0478516" y="95" fill="#CB99F8">System.Console.Wri</tspan>
                            <tspan x="36" y="108" fill="#CB99F8">teLine</tspan>
                            <tspan x="72.2871094" y="108" fill="#F8E81C">("Hello, </tspan>
                            <tspan x="36" y="121" fill="#F8E81C">World!");</tspan>
                            <tspan x="90.4306641" y="121" fill="#B8E986">}</tspan>
                            <tspan x="96.4785156" y="121" fill="#000000"></tspan>
                            <tspan x="36" y="134" fill="#B8E986">}</tspan>
                            <tspan x="42.0478516" y="134" fill="#000000"></tspan>
                        </text>
                        <g id="shield-copy" transform="translate(0.000000, 84.000000)">
                            <g id="Mask-+-Rectangle-94">
                                <path d="M25.3731459,1.00499619 L25.3731459,1.00499619 L25.9978412,0.891666908 L26.6225404,1.00497492 L48.2697999,4.93135733 L51.1451613,5.4528907 L51.1451613,8.37516722 L51.1451613,39.0074545 C51.1451613,42.2452648 49.7669946,45.5112747 47.191544,48.7565725 C45.0924276,51.3974591 42.2013737,54.0284865 38.5900392,56.6102691 C34.9616531,59.1986139 31.0611202,61.4244284 27.5323316,63.1457153 L25.9965739,63.8948335 L24.4613272,63.1446683 C20.9261503,61.4172801 17.0353227,59.19649 13.4039441,56.6072553 C9.79281267,54.0231399 6.90066209,51.3932073 4.80165438,48.7548024 C2.23176995,45.5173545 0.85483871,42.2462354 0.85483871,39.0074545 L0.85483871,8.37516722 L0.85483871,5.45299182 L3.73008282,4.9313786 L25.3731459,1.00499619 Z" id="Shape" fill="#9E0B0F" sketch:type="MSShapeGroup"></path>
                                <g id="Path-+-Rectangle-94" transform="translate(4.000000, 4.000000)">
                                    <mask id="mask-12" sketch:name="Mask" fill="white">
                                        <use xlink:href="#path-11"></use>
                                    </mask>
                                    <use id="Mask" fill="#BB241D" sketch:type="MSShapeGroup" xlink:href="#path-11"></use>
                                    <rect id="Rectangle-94" fill="#DA322C" sketch:type="MSShapeGroup" mask="url(#mask-12)" x="-31.2258065" y="-21" width="53.2258065" height="94.5"></rect>
                                </g>
                            </g>
                            <path d="M26.0640692,40.7635791 L16.7760065,16.6 L12.4610797,16.6 L26.1006363,50.2681639 L39.740193,16.6 L35.6812364,16.6 L26.0640692,40.7635791 L26.0640692,40.7635791 Z" id="Shape-Copy" fill="#FFFFFF" sketch:type="MSShapeGroup"></path>
                        </g>
                    </g>
                    <g transform="translate(478.000000, 226.000000)">
                        <g id="Group-Copy" transform="translate(15.500000, 0.000000)">
                            <path d="M0,15.9935667 C0,7.16056373 7.15700158,0 15.9912208,0 L155.008779,0 C163.840487,0 171,7.17244193 171,15.9935667 L171,86.0064333 C171,94.8394363 163.842998,102 155.008779,102 L15.9912208,102 C7.15951341,102 0,94.8275581 0,86.0064333 L0,15.9935667 L0,15.9935667 Z" id="Shape" fill="#2C302E" sketch:type="MSShapeGroup"></path>
                            <mask id="mask-14" sketch:name="Mask" fill="white">
                                <use xlink:href="#path-13"></use>
                            </mask>
                            <use id="Mask" fill="#FFFFFF" sketch:type="MSShapeGroup" xlink:href="#path-13"></use>
                            <g id="Rectangle-71-Copy-3-+-Rectangle-71-Copy-4-+-Rectangle-71-Copy-5" mask="url(#mask-14)" fill-opacity="0.18" fill="#424B54" sketch:type="MSShapeGroup">
                                <g transform="translate(-38.000000, 4.000000)">
                                    <path d="M40,0 L114,0 L69.1515152,98 L40,98 L40,0 Z" id="Rectangle-71-Copy-3" opacity="0.6"></path>
                                    <path d="M20,0 L94,0 L49.1515152,98 L20,98 L20,0 Z" id="Rectangle-71-Copy-4" opacity="0.5"></path>
                                    <path d="M0,0 L74,0 L29.1515152,98 L0,98 L0,0 Z" id="Rectangle-71-Copy-5" opacity="0.5"></path>
                                </g>
                            </g>
                            <rect id="Rectangle-81" stroke="#424B54" stroke-width="2" fill="#FFFFFF" sketch:type="MSShapeGroup" mask="url(#mask-14)" x="72" y="20" width="79" height="18"></rect>
                            <rect id="Rectangle-85" stroke="#424B54" stroke-width="2" sketch:type="MSShapeGroup" mask="url(#mask-14)" x="99" y="70" width="52" height="18"></rect>
                            <rect id="Rectangle-81-Copy" stroke="#424B54" stroke-width="2" fill="#FFFFFF" sketch:type="MSShapeGroup" mask="url(#mask-14)" x="72" y="44" width="79" height="18"></rect>
                        </g>
                        <text id="Login" sketch:type="MSTextLayer" font-family="Consolas" font-size="10" font-weight="normal" fill="#2C302E">
                            <tspan x="33.5" y="31">Login</tspan>
                        </text>
                        <text id="root" sketch:type="MSTextLayer" font-family="Consolas" font-size="10" font-weight="normal" fill="#2C302E">
                            <tspan x="92.5" y="31">root</tspan>
                        </text>
                        <text id="Password" sketch:type="MSTextLayer" font-family="Consolas" font-size="10" font-weight="normal" fill="#2C302E">
                            <tspan x="33.5" y="56">Password</tspan>
                        </text>
                        <text id="Sign-In" sketch:type="MSTextLayer" font-family="Consolas" font-size="10" font-weight="normal" fill="#2C302E">
                            <tspan x="121.5" y="82">Sign In</tspan>
                        </text>
                        <text id="*******" sketch:type="MSTextLayer" font-family="Consolas" font-size="10" font-weight="normal" fill="#2C302E">
                            <tspan x="93.5" y="56">*******</tspan>
                        </text>
                        <g id="shield-copy-5" transform="translate(0.000000, 65.000000)">
                            <g id="Mask-+-Rectangle-94">
                                <path d="M25.3731459,1.00499619 L25.3731459,1.00499619 L25.9978412,0.891666908 L26.6225404,1.00497492 L48.2697999,4.93135733 L51.1451613,5.4528907 L51.1451613,8.37516722 L51.1451613,39.0074545 C51.1451613,42.2452648 49.7669946,45.5112747 47.191544,48.7565725 C45.0924276,51.3974591 42.2013737,54.0284865 38.5900392,56.6102691 C34.9616531,59.1986139 31.0611202,61.4244284 27.5323316,63.1457153 L25.9965739,63.8948335 L24.4613272,63.1446683 C20.9261503,61.4172801 17.0353227,59.19649 13.4039441,56.6072553 C9.79281267,54.0231399 6.90066209,51.3932073 4.80165438,48.7548024 C2.23176995,45.5173545 0.85483871,42.2462354 0.85483871,39.0074545 L0.85483871,8.37516722 L0.85483871,5.45299182 L3.73008282,4.9313786 L25.3731459,1.00499619 Z" id="Shape" fill="#9E0B0F" sketch:type="MSShapeGroup"></path>
                                <g id="Path-+-Rectangle-94" transform="translate(4.000000, 4.000000)">
                                    <mask id="mask-16" sketch:name="Mask" fill="white">
                                        <use xlink:href="#path-15"></use>
                                    </mask>
                                    <use id="Mask" fill="#BB241D" sketch:type="MSShapeGroup" xlink:href="#path-15"></use>
                                    <rect id="Rectangle-94" fill="#DA322C" sketch:type="MSShapeGroup" mask="url(#mask-16)" x="-31.2258065" y="-21" width="53.2258065" height="94.5"></rect>
                                </g>
                            </g>
                            <path d="M26.0640692,40.7635791 L16.7760065,16.6 L12.4610797,16.6 L26.1006363,50.2681639 L39.740193,16.6 L35.6812364,16.6 L26.0640692,40.7635791 L26.0640692,40.7635791 Z" id="Shape-Copy" fill="#FFFFFF" sketch:type="MSShapeGroup"></path>
                        </g>
                    </g>
                    <path d="M77.8572289,150 L290.53199,150 L290.53199,208.706829" id="Line-Copy" stroke="#2C302E" stroke-width="2" stroke-linecap="square" sketch:type="MSShapeGroup" transform="translate(184.194609, 179.353415) scale(-1, 1) translate(-184.194609, -179.353415) "></path>
                    <path d="M358.857229,150 L582.53199,150 L582.53199,228.706829" id="Line-Copy-2" stroke="#2C302E" stroke-width="2" stroke-linecap="square" sketch:type="MSShapeGroup"></path>
                    <path d="M325.53199,150 L325.53199,228.706829" id="Line-Copy-3" stroke="#2C302E" stroke-width="2" stroke-linecap="square" sketch:type="MSShapeGroup"></path>
                    <g id="shield" transform="translate(290.000000, 105.000000)">
                        <g id="Mask-+-Rectangle-94">
                            <path d="M34.6184675,0.804510115 L34.6184675,0.804510115 L35.4970059,0.644383308 L36.3755498,0.804480071 L66.3865232,6.27336985 L70.4080645,7.00621399 L70.4080645,11.0939829 L70.4080645,53.7603831 C70.4080645,58.2714789 68.4963662,62.8230833 64.9234748,67.3463332 C62.0112567,71.0273392 58.0005435,74.6944177 52.9909021,78.2926402 C47.9581014,81.8996539 42.5480867,85.0013045 37.6534099,87.4000329 L35.495225,88.4576919 L33.3377639,87.3985573 C28.4342477,84.9913371 23.0377054,81.8966943 18.0006996,78.2884015 C12.9913952,74.6869676 8.97917028,71.0214239 6.0670843,67.3438531 C2.50191684,62.8315472 0.591935484,58.27283 0.591935484,53.7603831 L0.591935484,11.0939829 L0.591935484,7.00635608 L4.6133119,6.2733999 L34.6184675,0.804510115 Z" id="Shape" fill="#9E0B0F" sketch:type="MSShapeGroup"></path>
                            <g id="Path-+-Rectangle-94" transform="translate(5.000000, 5.000000)">
                                <mask id="mask-18" sketch:name="Mask" fill="white">
                                    <use xlink:href="#path-17"></use>
                                </mask>
                                <use id="Mask" fill="#BB241D" sketch:type="MSShapeGroup" xlink:href="#path-17"></use>
                                <rect id="Rectangle-94" fill="#DA322C" sketch:type="MSShapeGroup" mask="url(#mask-18)" x="-43.2903226" y="-29.25" width="73.7903226" height="131.625"></rect>
                            </g>
                        </g>
                        <path d="M35.5888232,56.2064137 L22.7121908,22.55 L16.7301333,22.55 L35.6395186,69.4449425 L54.5489039,22.55 L48.9217142,22.55 L35.5888232,56.2064137 L35.5888232,56.2064137 Z" id="Shape-Copy" fill="#FFFFFF" sketch:type="MSShapeGroup"></path>
                    </g>
                    <rect id="Rectangle-273" fill="#2C302E" sketch:type="MSShapeGroup" x="376" y="309" width="3" height="10"></rect>
                </g>
            </g>
        </g>
    </g>
</svg>