<?xml version="1.0" encoding="UTF-8" standalone="no"?>
<svg width="599px" height="357px" viewBox="0 0 599 357" version="1.1" xmlns="http://www.w3.org/2000/svg" xmlns:xlink="http://www.w3.org/1999/xlink" xmlns:sketch="http://www.bohemiancoding.com/sketch/ns">
    <!-- Generator: Sketch 3.3.3 (12081) - http://www.bohemiancoding.com/sketch -->
    <title>Group Copy 6</title>
    <desc>Created with Sketch.</desc>
    <defs>
        <path id="path-1" d="M123.982583,34.27 L123.982583,34.27 L123.982583,33.966 C124.048583,33.036 124.092583,31.97 124.086583,30.816 C124.154583,23.996 122.500583,13.65 112.292583,11.134 C96.7345834,7.302 83.8305834,1.46 83.8305834,1.46 C73.9210987,3.82166548 68.445937,9.56738378 62.7838603,9.76689697 C57.1343588,9.96596705 51.2987717,4.62569255 40.6865834,0.822 C40.5925834,0.868 27.2965834,7.316 11.7945834,11.136 C1.56258341,13.654 -0.0754165902,24.046 0.0025834098,30.866 C-0.0034165902,31.764 0.0225834098,32.61 0.0545834098,33.376 C0.0545834098,33.376 0.0505834098,33.704 0.0525834098,34.258 C0.0505834098,34.766 0.0525834098,36.01 0.11058341,37.554 C18.7845834,46.166 39.7625834,51 61.9345834,51 C84.1725834,51 105.210583,46.136 123.928583,37.476 C123.984583,35.98 123.984583,34.776 123.982583,34.27 L123.982583,34.27 Z"></path>
        <rect id="path-3" x="0" y="0" width="131.320242" height="71.3388788"></rect>
        <path id="path-5" d="M21.9979018,0.448784811 L0.35483871,4.37516722 L0.35483871,35.0074545 C0.35483871,37.365058 1.42554146,39.9112933 3.54296705,42.5787498 C5.41999409,44.9381272 8.07756704,47.3542715 11.4407487,49.7609547 C15.63963,52.7548213 19.920043,54.984699 21.9979018,56 C24.0793575,54.984699 28.3597705,52.7554126 32.5574528,49.7609547 C35.9230325,47.3548628 38.5758094,44.9387185 40.4516375,42.5787498 C42.5708616,39.9083367 43.6451613,37.3656493 43.6451613,35.0074545 L43.6451613,4.37516722 L21.9979018,0.448784811 L21.9979018,0.448784811 Z"></path>
        <path id="path-7" d="M21.9979018,0.448784811 L0.35483871,4.37516722 L0.35483871,35.0074545 C0.35483871,37.365058 1.42554146,39.9112933 3.54296705,42.5787498 C5.41999409,44.9381272 8.07756704,47.3542715 11.4407487,49.7609547 C15.63963,52.7548213 19.920043,54.984699 21.9979018,56 C24.0793575,54.984699 28.3597705,52.7554126 32.5574528,49.7609547 C35.9230325,47.3548628 38.5758094,44.9387185 40.4516375,42.5787498 C42.5708616,39.9083367 43.6451613,37.3656493 43.6451613,35.0074545 L43.6451613,4.37516722 L21.9979018,0.448784811 L21.9979018,0.448784811 Z"></path>
        <path id="path-9" d="M21.9979018,0.448784811 L0.35483871,4.37516722 L0.35483871,35.0074545 C0.35483871,37.365058 1.42554146,39.9112933 3.54296705,42.5787498 C5.41999409,44.9381272 8.07756704,47.3542715 11.4407487,49.7609547 C15.63963,52.7548213 19.920043,54.984699 21.9979018,56 C24.0793575,54.984699 28.3597705,52.7554126 32.5574528,49.7609547 C35.9230325,47.3548628 38.5758094,44.9387185 40.4516375,42.5787498 C42.5708616,39.9083367 43.6451613,37.3656493 43.6451613,35.0074545 L43.6451613,4.37516722 L21.9979018,0.448784811 L21.9979018,0.448784811 Z"></path>
        <path id="path-11" d="M30.4970911,0.62509313 L0.491935484,6.09398291 L0.491935484,48.7603831 C0.491935484,52.0441879 1.97631884,55.5907299 4.91184068,59.3061158 C7.51408272,62.5923914 11.1984452,65.9577353 15.8610379,69.3099012 C21.6822143,73.4799297 27.6164233,76.5858308 30.4970911,78 C33.3827456,76.5858308 39.3169545,73.4807533 45.1364687,69.3099012 C49.8023859,65.9585589 53.4800994,62.593215 56.0806792,59.3061158 C59.0186944,55.5866118 60.5080645,52.0450115 60.5080645,48.7603831 L60.5080645,6.09398291 L30.4970911,0.62509313 L30.4970911,0.62509313 Z"></path>
    </defs>
    <g id="Welcome" stroke="none" stroke-width="1" fill="none" fill-rule="evenodd" sketch:type="MSPage">
        <g id="Comixes" sketch:type="MSArtboardGroup" transform="translate(-162.000000, -1900.000000)">
            <g id="Group-Copy-6" sketch:type="MSLayerGroup" transform="translate(162.000000, 1902.000000)">
                <g id="Group" transform="translate(244.000000, 0.000000)">
                    <g id="Shape-+-Rectangle-95" transform="translate(0.000000, 85.000000)">
                        <path d="M132.982583,38.27 C132.986552,39.26612 132.973156,40.3601141 132.925784,41.6256278 L132.834041,44.0764746 L130.608161,45.106292 C110.940357,54.2057248 89.2915499,59 66.9345834,59 C44.6416652,59 23.0548077,54.234321 3.43543625,45.1863384 L1.20558017,44.1579823 L1.11340265,41.7041532 C1.06425923,40.3959213 1.04875431,39.2227163 1.05260948,38.2724403 C1.05153946,37.9760473 1.05198246,37.7170697 1.05338796,37.5009047 C1.05443737,37.3643601 1.00284499,37.9659985 1.00284499,37.9659985 L1.05806923,37.5429562 C1.01645112,36.5467228 0.996888223,35.7050167 1.00284499,34.9117448 C0.948445008,30.1552334 1.63666538,25.6667624 3.37900029,21.7588985 C5.74557783,16.4509277 9.88667178,12.7166318 15.8375333,11.2521804 C22.4287384,9.62797679 29.1170097,7.39902048 35.5416234,4.84641372 C37.7975557,3.95009397 39.8589928,3.07721556 41.6816166,2.2633641 C42.3191238,1.97869964 42.8809384,1.72188954 43.3610528,1.49761486 C43.6464741,1.3642867 43.8460998,1.26912883 43.928372,1.22913311 L45.4458513,0.486536854 L47.0362158,1.0565661 C49.2865195,1.86313525 51.4446532,2.77173787 53.6805543,3.82846855 C55.6674731,4.76752537 61.4843169,7.78611134 62.4899938,8.25861974 C64.8550915,9.36984005 66.3955051,9.81333561 67.6430007,9.76937792 C69.0016768,9.63149006 70.1647284,9.23706397 71.7817479,8.46349028 C72.7632118,7.99396307 76.7158062,5.90239177 77.420196,5.54650147 C81.078784,3.69801351 84.2687496,2.43516567 87.9032599,1.56897557 L89.2340319,1.25182101 L90.4803041,1.81604314 C90.5240668,1.83585571 90.6214267,1.8793593 90.7703053,1.94497169 C91.0258491,2.05759261 91.3287857,2.1891731 91.677033,2.3381308 C92.6806641,2.76741925 93.8407856,3.24734037 95.1406898,3.76523525 C98.8649648,5.24902386 102.950433,6.73416666 107.262008,8.11951614 C110.93812,9.30068541 114.615559,10.3550926 118.24983,11.2502287 C124.188323,12.713909 128.324471,16.435824 130.693703,21.726075 C132.439711,25.6247325 133.133766,30.103804 133.086529,34.7952031 C133.092649,35.9721889 133.052036,37.1291077 132.972548,38.2491588 L132.982583,37.9659985 L132.982583,38.27 Z" id="Shape" fill="#2C302E" sketch:type="MSShapeGroup"></path>
                        <g id="Path-+-Rectangle-95-+-Rectangle-95-Copy" transform="translate(5.000000, 4.000000)">
                            <mask id="mask-2" sketch:name="Mask" fill="white">
                                <use xlink:href="#path-1"></use>
                            </mask>
                            <use id="Mask" fill="#FFFFFF" sketch:type="MSShapeGroup" xlink:href="#path-1"></use>
                            <path d="M104.995252,-24.5019531 L66.5108767,56.3925781 L114.188548,56.3925781 L114.188548,-25.8755685 L104.995252,-24.5019531 Z" id="Path-1269-Copy" fill="#E1E2E2" sketch:type="MSShapeGroup" mask="url(#mask-2)"></path>
                            <path d="M127.385156,-24.5019531 L88.9007812,56.3925781 L136.578452,56.3925781 L136.578452,-25.8755685 L127.385156,-24.5019531 Z" id="Path-1269" fill="#D8D8D8" sketch:type="MSShapeGroup" mask="url(#mask-2)"></path>
                        </g>
                    </g>
                    <path d="M42.934082,47.6640625 L42.8039809,47.3883349 C40.9228688,43.4016308 37.1606445,35.4282227 37.1606445,35.4282227 L39.6787109,19.2416992 L46.4453125,11.3999023 L55.8286133,3.51513672 L63.96875,1.6640625 L73.2910156,1.32763672 L83.9438477,6.31445312 L89.6254883,9.82519531 L97.640625,16.5170898 L100.104492,31.5371094 L98.9755859,38.1298828 L96.3432617,44.3544922 L94.3081055,45.1464844 L91.8115234,44.8046875 L93.0166016,35.7304688 L94.5634766,26.9389648 L93.4833984,23.4213867 L91.5024414,22.5097656 L81.8203125,23.7250977 L73.925293,27.3769531 L67.1308594,28.2294922 L56.3374023,25.2827148 L49.1748047,20.7402344 L47.1503906,19.8339844 L42.5541992,27.9951172 L42.0820312,33.6713867 L42.4238281,38.2133789 L44.1118164,42.9521484 L42.934082,47.6640625 Z" id="Path-536" fill="#EBECEC" sketch:type="MSShapeGroup"></path>
                    <path d="M47.9505834,78.562 C43.9945834,73.376 42.1565834,67.154 41.3405834,61.814 C39.8845834,61.696 37.9605834,59.624 35.8945834,52.238 C33.2425834,42.758 35.7205834,40.856 38.1365834,40.856 C38.2965834,40.856 38.4565834,40.864 38.6145834,40.88 C36.7445834,35.572 36.7065834,30.348 37.9585834,25.516 C39.2765834,19.826 42.3165834,15.27 45.7265834,11.746 C48.5043949,7.8999222 50.9262699,7.18798811 59.8905834,2.122 C61.8805834,1.44 63.9965834,1.002 66.2385834,0.896 C67.1785834,0.814 68.0865834,0.774 68.9645834,0.774 C74.5565834,0.774 78.9165834,2.348 82.1725834,4.3 C84.2307172,5.44836838 85.8214582,6.73280297 87.011264,7.89992197 C87.4921887,8.37167665 89.9305834,11.592 89.9305834,11.592 C89.9305834,11.592 91.3877801,11.6956 93.1622225,12.8277419 C93.8608673,13.273496 94.6086917,13.8786952 95.336118,14.6997938 C98.5183796,18.2918424 101.310266,26.0157483 97.8865834,42.598 C99.7905834,43.264 101.132583,45.906 98.9265834,53.79 C96.7965834,61.406 94.8185834,63.372 93.3465834,63.372 C92.9425834,63.372 92.5785834,63.224 92.2585834,63.004 C91.3865834,67.964 89.6045834,73.532 86.0905834,78.276 C73.1279281,87.7880839 66.2385829,93.3515604 47.9505834,78.562 Z" id="Shape-Copy-2" stroke="#2C302E" stroke-width="4" sketch:type="MSShapeGroup"></path>
                    <path d="M39.5341797,41.3740234 L43.190918,48.2304688 L44.800293,47.34375 C44.800293,47.34375 40.7246094,34.0986328 42.3691406,29.2470703 C44.0136719,24.3955078 47.6621094,19.8222656 47.6621094,19.8222656 C47.6621094,19.8222656 62.9804688,32.7739258 74.6367188,26.9189453 C86.2929688,21.0639648 93.3530273,23.3476562 93.3530273,23.3476562 C93.3530273,23.3476562 95.0551758,28.2255859 94.2041016,32.215332 C93.3530273,36.2050781 92.0214844,44.753418 92.0214844,44.753418 L95.3969727,45.2304688 L97.5083008,41.1015625" id="Path-535" stroke="#2C302E" stroke-width="2" sketch:type="MSShapeGroup"></path>
                    <path d="M58.5,69.5 C58.5,69.5 64.7854818,72.6074219 68,72.6074219 C71.1188151,72.6074219 77.5,69.5 77.5,69.5" id="Line" stroke="#2C302E" stroke-width="2" stroke-linecap="square" sketch:type="MSShapeGroup"></path>
                </g>
                <g id="Group-Copy-7-+-ipad-+-iphone-Copy" transform="translate(24.000000, 224.000000)">
                    <g id="Group-Copy-7" transform="translate(213.035361, 4.670886)">
                        <path d="M61.5216989,98.9016275 L89.253394,98.9016275 L95.6530159,113.493671 L55.122077,113.493671 L61.5216989,98.9016275 Z" id="Rectangle-66" stroke="#2C302E" stroke-width="1.8" fill="#FFFFFF" sketch:type="MSShapeGroup"></path>
                        <rect id="Rectangle-67" stroke="#2C302E" stroke-width="1.8" fill="#D8D8D8" sketch:type="MSShapeGroup" x="53.5008394" y="110.250995" width="43.7734141" height="3.24267631"></rect>
                        <rect id="Rectangle-63" stroke="#2C302E" stroke-width="3.6" fill="#FFFFFF" sketch:type="MSShapeGroup" x="0" y="0" width="150.775093" height="100.522966" rx="7.2"></rect>
                        <g id="Rectangle-64-+-Rectangle-67" transform="translate(9.727425, 9.728029)">
                            <mask id="mask-4" sketch:name="Mask" fill="white">
                                <use xlink:href="#path-3"></use>
                            </mask>
                            <use id="Mask" stroke="#2C302E" stroke-width="1.8" fill="#FFFFFF" sketch:type="MSShapeGroup" xlink:href="#path-3"></use>
                        </g>
                        <ellipse id="Oval-116" stroke="#2C302E" stroke-width="1.8" fill="#FFFFFF" sketch:type="MSShapeGroup" cx="76.1981652" cy="89.1735986" rx="3.24247512" ry="3.24267631"></ellipse>
                        <ellipse id="Oval-116-Copy" fill="#2C302E" sketch:type="MSShapeGroup" cx="75.3875464" cy="5.67468354" rx="0.810618779" ry="0.810669078"></ellipse>
                        <path d="M9.72742535,9.72802893 L63.2282647,9.72802893 L30.8035136,81.0669078 L9.72742535,81.0669078 L9.72742535,9.72802893 Z" id="Rectangle-71" opacity="0.6" fill-opacity="0.18" fill="#424B54" sketch:type="MSShapeGroup"></path>
                    </g>
                    <g id="ipad" transform="translate(0.167665, 0.627209)" sketch:type="MSShapeGroup">
                        <rect id="Rectangle-67" stroke="#2C302E" stroke-width="3.6" fill="#FFFFFF" x="0" y="0" width="75.9642303" height="95.9607713" rx="7.2"></rect>
                        <path d="M35.9830565,86.9644489 C35.9830565,85.3082717 37.3255701,83.9656748 38.9816445,83.9656748 C40.6377189,83.9656748 41.9802325,85.3082717 41.9802325,86.9644489 C41.9802325,88.6206262 40.6377189,89.963223 38.9816445,89.963223 C37.3255701,89.963223 35.9830565,88.6206262 35.9830565,86.9644489 Z" id="Shape" fill="#2C302E"></path>
                        <path d="M37.9821152,86.9644489 C37.9821152,86.4123899 38.4296197,85.9648576 38.9816445,85.9648576 C39.5336693,85.9648576 39.9811739,86.4123899 39.9811739,86.9644489 C39.9811739,87.516508 39.5336693,87.9640403 38.9816445,87.9640403 C38.4296197,87.9640403 37.9821152,87.516508 37.9821152,86.9644489 Z" id="Shape-Copy-3" fill="#FFFFFF"></path>
                        <rect id="Rectangle-68" stroke="#2C302E" stroke-width="1.8" fill="#FFFFFF" x="7.99623477" y="7.99673094" width="59.9717608" height="73.9697612"></rect>
                        <path d="M9.99529346,7.99673094 L49.9764673,7.99673094 L17.2645978,79.9673094 L9.99529346,79.9673094 L9.99529346,7.99673094 Z" id="Rectangle-71-Copy" opacity="0.6" fill-opacity="0.18" fill="#424B54"></path>
                    </g>
                    <g id="iphone" transform="translate(515.947177, 5.670886)" sketch:type="MSShapeGroup">
                        <path d="M3.6,7.19221096 L3.6,7.19221096 L3.6,78.6812068 C3.6,80.6638885 5.20876437,82.2734177 7.19050663,82.2734177 L51.6904691,82.2734177 C53.6679434,82.2734177 55.2809757,80.6614293 55.2809757,78.6812068 L55.2809757,7.19221096 C55.2809757,5.2095292 53.6722113,3.6 51.6904691,3.6 L7.19050663,3.6 C5.21303236,3.6 3.6,5.21198845 3.6,7.19221096 L3.6,7.19221096 Z M0,7.19221096 C0,3.22006253 3.22850976,0 7.19050663,0 L51.6904691,0 C55.6616762,0 58.8809757,3.22254411 58.8809757,7.19221096 L58.8809757,78.6812068 C58.8809757,82.6533552 55.652466,85.8734177 51.6904691,85.8734177 L7.19050663,85.8734177 C3.21929947,85.8734177 0,82.6508736 0,78.6812068 L0,7.19221096 L0,7.19221096 Z" id="Shape" fill="#2C302E"></path>
                        <path d="M28.2138009,78.5128391 L28.2138009,78.5128391 C26.1813593,78.5128391 24.5337399,76.8651174 24.5337399,74.8325497 C24.5337399,72.7999821 26.1813593,71.1522604 28.2138009,71.1522604 C30.2462424,71.1522604 31.8938618,72.7999821 31.8938618,74.8325497 C31.8938618,76.8651174 30.2462424,78.5128391 28.2138009,78.5128391 L28.2138009,78.5128391 Z" id="Shape" fill="#2C302E"></path>
                        <path d="M28.2138009,76.0593128 L28.2138009,76.0593128 C27.5363203,76.0593128 26.9871139,75.5100723 26.9871139,74.8325497 C26.9871139,74.1550272 27.5363203,73.6057866 28.2138009,73.6057866 C28.8912814,73.6057866 29.4404879,74.1550272 29.4404879,74.8325497 C29.4404879,75.5100723 28.8912814,76.0593128 28.2138009,76.0593128 L28.2138009,76.0593128 Z" id="Shape-Copy-4" fill="#FFFFFF"></path>
                        <path d="M28.2138009,8.58734177 L30.6671749,8.58734177" id="Line" stroke="#2C302E" stroke-width="1.8" stroke-linecap="square"></path>
                        <rect id="Rectangle-70" stroke="#2C302E" stroke-width="1.8" fill="#FFFFFF" x="9.81349595" y="12.2676311" width="39.2539838" height="56.4311031"></rect>
                        <path d="M12.2668699,14.7211573 L39.2539838,14.7211573 L17.1736179,68.6987342 L12.2668699,68.6987342 L12.2668699,14.7211573 Z" id="Rectangle-71-Copy-2" opacity="0.6" fill-opacity="0.18" fill="#424B54"></path>
                    </g>
                </g>
                <g id="shield-copy-4" transform="translate(226.000000, 291.000000)">
                    <g id="Mask-+-Rectangle-94">
                        <path d="M25.3731459,1.00499619 L25.3731459,1.00499619 L25.9978412,0.891666908 L26.6225404,1.00497492 L48.2697999,4.93135733 L51.1451613,5.4528907 L51.1451613,8.37516722 L51.1451613,39.0074545 C51.1451613,42.2452648 49.7669946,45.5112747 47.191544,48.7565725 C45.0924276,51.3974591 42.2013737,54.0284865 38.5900392,56.6102691 C34.9616531,59.1986139 31.0611202,61.4244284 27.5323316,63.1457153 L25.9965739,63.8948335 L24.4613272,63.1446683 C20.9261503,61.4172801 17.0353227,59.19649 13.4039441,56.6072553 C9.79281267,54.0231399 6.90066209,51.3932073 4.80165438,48.7548024 C2.23176995,45.5173545 0.85483871,42.2462354 0.85483871,39.0074545 L0.85483871,8.37516722 L0.85483871,5.45299182 L3.73008282,4.9313786 L25.3731459,1.00499619 Z" id="Shape" fill="#9E0B0F" sketch:type="MSShapeGroup"></path>
                        <g id="Path-+-Rectangle-94" transform="translate(4.000000, 4.000000)">
                            <mask id="mask-6" sketch:name="Mask" fill="white">
                                <use xlink:href="#path-5"></use>
                            </mask>
                            <use id="Mask" fill="#BB241D" sketch:type="MSShapeGroup" xlink:href="#path-5"></use>
                            <rect id="Rectangle-94" fill="#DA322C" sketch:type="MSShapeGroup" mask="url(#mask-6)" x="-31.2258065" y="-21" width="53.2258065" height="94.5"></rect>
                        </g>
                    </g>
                    <path d="M26.0640692,40.7635791 L16.7760065,16.6 L12.4610797,16.6 L26.1006363,50.2681639 L39.740193,16.6 L35.6812364,16.6 L26.0640692,40.7635791 L26.0640692,40.7635791 Z" id="Shape-Copy" fill="#FFFFFF" sketch:type="MSShapeGroup"></path>
                </g>
                <g id="shield-copy-6" transform="translate(0.000000, 291.000000)">
                    <g id="Mask-+-Rectangle-94">
                        <path d="M25.3731459,1.00499619 L25.3731459,1.00499619 L25.9978412,0.891666908 L26.6225404,1.00497492 L48.2697999,4.93135733 L51.1451613,5.4528907 L51.1451613,8.37516722 L51.1451613,39.0074545 C51.1451613,42.2452648 49.7669946,45.5112747 47.191544,48.7565725 C45.0924276,51.3974591 42.2013737,54.0284865 38.5900392,56.6102691 C34.9616531,59.1986139 31.0611202,61.4244284 27.5323316,63.1457153 L25.9965739,63.8948335 L24.4613272,63.1446683 C20.9261503,61.4172801 17.0353227,59.19649 13.4039441,56.6072553 C9.79281267,54.0231399 6.90066209,51.3932073 4.80165438,48.7548024 C2.23176995,45.5173545 0.85483871,42.2462354 0.85483871,39.0074545 L0.85483871,8.37516722 L0.85483871,5.45299182 L3.73008282,4.9313786 L25.3731459,1.00499619 Z" id="Shape" fill="#9E0B0F" sketch:type="MSShapeGroup"></path>
                        <g id="Path-+-Rectangle-94" transform="translate(4.000000, 4.000000)">
                            <mask id="mask-8" sketch:name="Mask" fill="white">
                                <use xlink:href="#path-7"></use>
                            </mask>
                            <use id="Mask" fill="#BB241D" sketch:type="MSShapeGroup" xlink:href="#path-7"></use>
                            <rect id="Rectangle-94" fill="#DA322C" sketch:type="MSShapeGroup" mask="url(#mask-8)" x="-31.2258065" y="-21" width="53.2258065" height="94.5"></rect>
                        </g>
                    </g>
                    <path d="M26.0640692,40.7635791 L16.7760065,16.6 L12.4610797,16.6 L26.1006363,50.2681639 L39.740193,16.6 L35.6812364,16.6 L26.0640692,40.7635791 L26.0640692,40.7635791 Z" id="Shape-Copy" fill="#FFFFFF" sketch:type="MSShapeGroup"></path>
                </g>
                <g id="shield-copy-5" transform="translate(505.000000, 291.000000)">
                    <g id="Mask-+-Rectangle-94">
                        <path d="M25.3731459,1.00499619 L25.3731459,1.00499619 L25.9978412,0.891666908 L26.6225404,1.00497492 L48.2697999,4.93135733 L51.1451613,5.4528907 L51.1451613,8.37516722 L51.1451613,39.0074545 C51.1451613,42.2452648 49.7669946,45.5112747 47.191544,48.7565725 C45.0924276,51.3974591 42.2013737,54.0284865 38.5900392,56.6102691 C34.9616531,59.1986139 31.0611202,61.4244284 27.5323316,63.1457153 L25.9965739,63.8948335 L24.4613272,63.1446683 C20.9261503,61.4172801 17.0353227,59.19649 13.4039441,56.6072553 C9.79281267,54.0231399 6.90066209,51.3932073 4.80165438,48.7548024 C2.23176995,45.5173545 0.85483871,42.2462354 0.85483871,39.0074545 L0.85483871,8.37516722 L0.85483871,5.45299182 L3.73008282,4.9313786 L25.3731459,1.00499619 Z" id="Shape" fill="#9E0B0F" sketch:type="MSShapeGroup"></path>
                        <g id="Path-+-Rectangle-94" transform="translate(4.000000, 4.000000)">
                            <mask id="mask-10" sketch:name="Mask" fill="white">
                                <use xlink:href="#path-9"></use>
                            </mask>
                            <use id="Mask" fill="#BB241D" sketch:type="MSShapeGroup" xlink:href="#path-9"></use>
                            <rect id="Rectangle-94" fill="#DA322C" sketch:type="MSShapeGroup" mask="url(#mask-10)" x="-31.2258065" y="-21" width="53.2258065" height="94.5"></rect>
                        </g>
                    </g>
                    <path d="M26.0640692,40.7635791 L16.7760065,16.6 L12.4610797,16.6 L26.1006363,50.2681639 L39.740193,16.6 L35.6812364,16.6 L26.0640692,40.7635791 L26.0640692,40.7635791 Z" id="Shape-Copy" fill="#FFFFFF" sketch:type="MSShapeGroup"></path>
                </g>
                <path d="M64.8572289,150 L277.53199,150 L277.53199,225.706829" id="Line-Copy" stroke="#2C302E" stroke-width="2" stroke-linecap="square" sketch:type="MSShapeGroup" transform="translate(171.194609, 187.853415) scale(-1, 1) translate(-171.194609, -187.853415) "></path>
                <path d="M345.857229,150 L569.53199,150 L569.53199,228.706829" id="Line-Copy-2" stroke="#2C302E" stroke-width="2" stroke-linecap="square" sketch:type="MSShapeGroup"></path>
                <path d="M312.53199,150 L312.53199,228.706829" id="Line-Copy-3" stroke="#2C302E" stroke-width="2" stroke-linecap="square" sketch:type="MSShapeGroup"></path>
                <g id="shield" transform="translate(277.000000, 105.000000)">
                    <g id="Mask-+-Rectangle-94">
                        <path d="M34.6184675,0.804510115 L34.6184675,0.804510115 L35.4970059,0.644383308 L36.3755498,0.804480071 L66.3865232,6.27336985 L70.4080645,7.00621399 L70.4080645,11.0939829 L70.4080645,53.7603831 C70.4080645,58.2714789 68.4963662,62.8230833 64.9234748,67.3463332 C62.0112567,71.0273392 58.0005435,74.6944177 52.9909021,78.2926402 C47.9581014,81.8996539 42.5480867,85.0013045 37.6534099,87.4000329 L35.495225,88.4576919 L33.3377639,87.3985573 C28.4342477,84.9913371 23.0377054,81.8966943 18.0006996,78.2884015 C12.9913952,74.6869676 8.97917028,71.0214239 6.0670843,67.3438531 C2.50191684,62.8315472 0.591935484,58.27283 0.591935484,53.7603831 L0.591935484,11.0939829 L0.591935484,7.00635608 L4.6133119,6.2733999 L34.6184675,0.804510115 Z" id="Shape" fill="#9E0B0F" sketch:type="MSShapeGroup"></path>
                        <g id="Path-+-Rectangle-94" transform="translate(5.000000, 5.000000)">
                            <mask id="mask-12" sketch:name="Mask" fill="white">
                                <use xlink:href="#path-11"></use>
                            </mask>
                            <use id="Mask" fill="#BB241D" sketch:type="MSShapeGroup" xlink:href="#path-11"></use>
                            <rect id="Rectangle-94" fill="#DA322C" sketch:type="MSShapeGroup" mask="url(#mask-12)" x="-43.2903226" y="-29.25" width="73.7903226" height="131.625"></rect>
                        </g>
                    </g>
                    <path d="M35.5888232,56.2064137 L22.7121908,22.55 L16.7301333,22.55 L35.6395186,69.4449425 L54.5489039,22.55 L48.9217142,22.55 L35.5888232,56.2064137 L35.5888232,56.2064137 Z" id="Shape-Copy" fill="#FFFFFF" sketch:type="MSShapeGroup"></path>
                </g>
            </g>
        </g>
    </g>
</svg>