<?xml version="1.0" encoding="UTF-8" standalone="no"?>
<svg width="36px" height="36px" viewBox="0 0 36 36" version="1.1" xmlns="http://www.w3.org/2000/svg" xmlns:xlink="http://www.w3.org/1999/xlink" xmlns:sketch="http://www.bohemiancoding.com/sketch/ns">
    <!-- Generator: Sketch 3.3.3 (12072) - http://www.bohemiancoding.com/sketch -->
    <title>Fill 184</title>
    <desc>Created with Sketch.</desc>
    <defs></defs>
    <g id="Welcome" stroke="none" stroke-width="1" fill="none" fill-rule="evenodd" sketch:type="MSPage">
        <g id="VirgilSecurity-Landing-Page-New" sketch:type="MSArtboardGroup" transform="translate(-1047.000000, -3612.000000)" fill="#FFFFFF">
            <g id="Group" sketch:type="MSLayerGroup" transform="translate(0.000000, 3403.000000)">
                <path d="M1072.15725,223.329125 C1072.164,223.48775 1072.1685,223.646375 1072.1685,223.80725 C1072.1685,228.686375 1068.45375,234.313625 1061.661,234.313625 C1059.57525,234.313625 1057.63462,233.70275 1056,232.655375 C1056.28913,232.689125 1056.58275,232.706 1056.88088,232.706 C1058.61112,232.706 1060.203,232.1165 1061.4675,231.125375 C1059.85088,231.096125 1058.48737,230.0285 1058.01713,228.5615 C1058.24325,228.60425 1058.47387,228.62675 1058.71238,228.62675 C1059.04875,228.62675 1059.375,228.58175 1059.6855,228.497375 C1057.99575,228.15875 1056.72338,226.665875 1056.72338,224.877125 L1056.72338,224.829875 C1057.22062,225.106625 1057.791,225.273125 1058.39625,225.29225 C1057.40512,224.629625 1056.75263,223.499 1056.75263,222.21875 C1056.75263,221.5415 1056.93487,220.907 1057.25325,220.361375 C1059.07462,222.595625 1061.796,224.066 1064.865,224.220125 C1064.802,223.950125 1064.76938,223.66775 1064.76938,223.378625 C1064.76938,221.339 1066.42313,219.68525 1068.46162,219.68525 C1069.52475,219.68525 1070.48438,220.134125 1071.15712,220.851875 C1071.99862,220.6865 1072.7895,220.379375 1073.50275,219.956375 C1073.22712,220.818125 1072.641,221.5415 1071.87937,221.999375 C1072.62638,221.909375 1073.33738,221.711375 1074,221.41775 C1073.505,222.158 1072.87838,222.80825 1072.15725,223.329125 M1065,209 C1055.05838,209 1047,217.058375 1047,227 C1047,236.9405 1055.05838,245 1065,245 C1074.94162,245 1083,236.9405 1083,227 C1083,217.058375 1074.94162,209 1065,209" id="Fill-184" sketch:type="MSShapeGroup"></path>
            </g>
        </g>
    </g>
</svg>