<svg xmlns="http://www.w3.org/2000/svg" width="66" height="79" viewBox="0 0 66 79">
  <defs>
    <style>
      .cls-1 {
        fill: #fff;
        fill-rule: evenodd;
      }
    </style>
  </defs>
  <path id="СryptoLibary-Icon.svg" class="cls-1" d="M1000,3629l-0.223-.05-30.815-7.07A2.479,2.479,0,0,1,967,3619.5l0-39.44a3.138,3.138,0,0,1,.977-2.22,3.073,3.073,0,0,1,2.245-.86,2.762,2.762,0,0,1,.635.08l17.351,3.85a1,1,0,1,1-.433,1.95l-17.361-3.85a1.079,1.079,0,0,0-.241-0.03,1.122,1.122,0,0,0-.819.31,1.134,1.134,0,0,0-.355.8v39.4a0.464,0.464,0,0,0,.382.43l30.618,7.03,30.59-7.02a0.489,0.489,0,0,0,.41-0.47v-39.39a0.808,0.808,0,0,0-.03-0.2,1.124,1.124,0,0,0-.51-0.71,1.135,1.135,0,0,0-.86-0.14c-0.01,0-9.18,2.02-17.27,3.82a1.006,1.006,0,0,1-1.2-.76,1,1,0,0,1,.76-1.19c8.09-1.8,17.26-3.82,17.26-3.82a3.152,3.152,0,0,1,3.77,2.34,3.4,3.4,0,0,1,.08.64v39.44a2.483,2.483,0,0,1-1.99,2.4Zm-12-27.01a1,1,0,1,1-1,1,1,1,0,0,1,1-1m0-2a3,3,0,1,0,3,3,3,3,0,0,0-3-3h0Zm12,2a1,1,0,1,1-1,1,1,1,0,0,1,1-1m0-2a3,3,0,1,0,3,3,3,3,0,0,0-3-3h0Zm12,2a1,1,0,1,1-1,1,1,1,0,0,1,1-1m0-2a3,3,0,1,0,3,3,3,3,0,0,0-3-3h0Zm-24-2a1,1,0,0,1-1-1v-5a0.993,0.993,0,0,1,.553-0.89l5.447-2.73v-14.38a1,1,0,0,1,2,0v15a1.007,1.007,0,0,1-.553.9L989,3592.61v4.38A1,1,0,0,1,988,3597.99Zm24,0a1,1,0,0,1-1-1v-4.38l-5.45-2.72a1,1,0,0,1-.55-0.9v-15a1,1,0,0,1,2,0v14.38l5.45,2.73a0.988,0.988,0,0,1,.55.89v5A1,1,0,0,1,1012,3597.99Zm-12,0a1,1,0,0,1-1-1v-15a1,1,0,1,1,2,0v15A1,1,0,0,1,1000,3597.99Zm24-22.99a13.3,13.3,0,0,0-.28-2.67l-2.45-.58a4.911,4.911,0,0,1-4.17-5.49,4.989,4.989,0,0,1,.93-2.3l1.33-2.15a23.914,23.914,0,0,0-5.18-5.16l-2.19,1.33a5.916,5.916,0,0,1-3.02.92c-2.29,0-4.1-1.58-4.72-4.11l-0.6-2.52a24.705,24.705,0,0,0-3.65-.27h-0.009a24.648,24.648,0,0,0-3.642.27l-0.605,2.51a4.935,4.935,0,0,1-4.693,4.12,5.977,5.977,0,0,1-3.063-.93l-2.2-1.34a24.4,24.4,0,0,0-5.145,5.18l1.322,2.15a4.9,4.9,0,0,1-.939,6.83,4.923,4.923,0,0,1-2.286.96l-2.465.59a13.563,13.563,0,0,0-.269,2.66l-2-.01a15.414,15.414,0,0,1,.321-3.11,1.851,1.851,0,0,1,1.373-1.46l2.724-.65a2.82,2.82,0,0,0,1.384-.57,2.891,2.891,0,0,0,.536-4.06l-0.058-.09-1.4-2.28a1.854,1.854,0,0,1,.084-2.06,25.8,25.8,0,0,1,5.742-5.74,1.836,1.836,0,0,1,1.09-.36h0.012a1.8,1.8,0,0,1,.983.29l2.251,1.37a3.9,3.9,0,0,0,2.022.63c1.309,0,2.337-.97,2.728-2.59l0.629-2.61a1.842,1.842,0,0,1,1.523-1.39,25.955,25.955,0,0,1,4.039-.31H1000a26.114,26.114,0,0,1,4.05.31,1.863,1.863,0,0,1,1.52,1.39l0.62,2.62c0.4,1.61,1.43,2.58,2.76,2.58a3.931,3.931,0,0,0,1.98-.61l2.3-1.41a1.723,1.723,0,0,1,.97-0.27,1.844,1.844,0,0,1,1.1.37,25.955,25.955,0,0,1,5.73,5.73,1.864,1.864,0,0,1,.09,2.05l-1.47,2.37a2.984,2.984,0,0,0-.57,1.39,2.895,2.895,0,0,0,2.5,3.25l0.1,0.02,2.6,0.62a1.861,1.861,0,0,1,1.4,1.52,14.637,14.637,0,0,1,.32,3.06Zm-0.29-2.71h0Zm-47.416-.04a0.034,0.034,0,0,0,0,.01A0.034,0.034,0,0,1,976.294,3572.25Zm9.436-15.66h0Zm28.37,0h0Zm0.21-.02-0.02.01A0.035,0.035,0,0,1,1014.31,3556.57Zm-18.055-4.28h0Z" transform="translate(-967 -3550)"/>
</svg>
