<svg xmlns="http://www.w3.org/2000/svg" width="48" height="63" viewBox="0 0 48 63">
  <metadata><?xpacket begin="﻿" id="W5M0MpCehiHzreSzNTczkc9d"?>
<x:xmpmeta xmlns:x="adobe:ns:meta/" x:xmptk="Adobe XMP Core 5.6-c138 79.159824, 2016/09/14-01:09:01        ">
   <rdf:RDF xmlns:rdf="http://www.w3.org/1999/02/22-rdf-syntax-ns#">
      <rdf:Description rdf:about=""/>
   </rdf:RDF>
</x:xmpmeta>
                                                                                                    
                                                                                                    
                                                                                                    
                                                                                                    
                                                                                                    
                                                                                                    
                                                                                                    
                                                                                                    
                                                                                                    
                                                                                                    
                                                                                                    
                                                                                                    
                                                                                                    
                                                                                                    
                                                                                                    
                                                                                                    
                                                                                                    
                                                                                                    
                                                                                                    
                                                                                                    
                           
<?xpacket end="w"?></metadata>
<defs>
    <style>
      .cls-1 {
        fill: #fff;
        fill-rule: evenodd;
      }
    </style>
  </defs>
  <path id="Book_Icon.svg" data-name="Book Icon.svg" class="cls-1" d="M1329,1668v-45a3,3,0,0,0-3-3l-31-9h0a3,3,0,0,0-3,3v7l2-.6V1614a1,1,0,0,1,.8-0.98l30.66,8.9,0.26,0.08H1326a1,1,0,0,1,1,1v45h2Zm-3-46a1,1,0,0,1,1,1v48a1,1,0,0,1-1,1h-36a1,1,0,0,1-1-1v-48a1,1,0,0,1,1-1h36m0-2h-36a3,3,0,0,0-3,3v48a3,3,0,0,0,3,3h36a3,3,0,0,0,3-3v-48a3,3,0,0,0-3-3h0Zm8,52a1,1,0,0,1-1-1v-8a1,1,0,0,1,2,0v8A1,1,0,0,1,1334,1672Zm0-16a1,1,0,0,1-1-1v-32a1,1,0,0,1,2,0v32A1,1,0,0,1,1334,1656Zm-30-34v9a1,1,0,0,1-1,1h-6a1,1,0,0,1-1-1v-9h8m2-2h-12v11a3,3,0,0,0,3,3h6a3,3,0,0,0,3-3v-11h0Zm-9,21h16a1,1,0,0,1,1,1h0a1,1,0,0,1-1,1h-16a1,1,0,0,1-1-1h0A1,1,0,0,1,1297,1641Zm0,8h16a1,1,0,0,1,1,1h0a1,1,0,0,1-1,1h-16a1,1,0,0,1-1-1h0A1,1,0,0,1,1297,1649Zm22-8a1,1,0,1,1-.01,0H1319Zm-22,16h16a1,1,0,0,1,1,1h0a1,1,0,0,1-1,1h-16a1,1,0,0,1-1-1h0A1,1,0,0,1,1297,1657Zm22,0a1,1,0,1,1-.01,0H1319Zm0-8a1,1,0,1,1-.01,0H1319Z" transform="translate(-1287 -1611)"/>
</svg>
