<svg xmlns="http://www.w3.org/2000/svg" width="57.969" height="58" viewBox="0 0 57.969 58"><defs><style>.cls-1{fill:#fff;fill-rule:evenodd}</style></defs><path id="Open_Source.svg" data-name="Open Source.svg" class="cls-1" d="M893 1617a26 26 0 1 0 26 26 26 26 0 0 0-26-26zm-8.71 48.36l5.99-15.95a7 7 0 1 1 5.44 0l5.98 15.95a23.923 23.923 0 0 1-17.41 0zm19.25-.8l-5.32-14.27a8.977 8.977 0 1 0-10.45 0l-5.32 14.27a24.005 24.005 0 1 1 21.09 0zm20.426-20.56a1 1 0 0 1-1-1 29.678 29.678 0 0 0-5.759-17.63 1 1 0 0 1 .223-1.4 1.02 1.02 0 0 1 1.405.22 31.7 31.7 0 0 1 6.141 18.81 1 1 0 0 1-1.01 1zm-54.859-20.15a.961.961 0 0 1-.653-.24 1 1 0 0 1-.111-1.41 32.317 32.317 0 0 1 41.427-6.39 1 1 0 0 1 .321 1.38 1.018 1.018 0 0 1-1.384.32 30.292 30.292 0 0 0-38.835 5.99.977.977 0 0 1-.765.35z" transform="translate(-867 -1611)"/></svg>