<svg xmlns="http://www.w3.org/2000/svg" width="46" height="60" viewBox="0 0 46 60"><defs><style>.cls-1{fill:#fff;fill-rule:evenodd}</style></defs><path id="Paper_Icon.svg" data-name="Paper Icon.svg" class="cls-1" d="M1321 1491h-25.01a3 3 0 0 0-3 3v48.01a3.007 3.007 0 0 0 3 2.99H1330a3 3 0 0 0 3-3v-39zm9.17 12H1321v-9.17zm-.17 40h-34.01a1 1 0 0 1-1-1v-48a1 1 0 0 1 1-1H1319v12h12v37a1 1 0 0 1-1 1zm-31.71 6H1291a2.006 2.006 0 0 1-2-2v-38a1 1 0 0 0-2 0v38a4 4 0 0 0 4 4h7.29a1 1 0 0 0 0-2zm30.71 0h-22.71a1 1 0 0 0 0 2H1329a1 1 0 0 0 0-2zm-9-31.52l-1.5 1.48 2.98 3.02-2.96 2.98 1.5 1.48 3.68-3.72a1.063 1.063 0 0 0 0-1.48zm-12.59 1.53l-1.48-1.48-3.69 3.71a1.053 1.053 0 0 0-.01 1.48l3.71 3.76 1.5-1.48-2.98-3.02zm8.69-4.96a.993.993 0 0 0-1.28.59v.01l-5 13.98a1 1 0 0 0 .59 1.28h.01a.974.974 0 0 0 .34.06.992.992 0 0 0 .94-.66l5-13.98a.993.993 0 0 0-.59-1.28h-.01z" transform="translate(-1287 -1491)"/></svg>