<svg xmlns="http://www.w3.org/2000/svg" width="48" height="63" viewBox="0 0 48 63"><defs><style>.cls-1{fill:#fff;fill-rule:evenodd}</style></defs><path id="Book_Icon.svg" data-name="Book Icon.svg" class="cls-1" d="M1329 1668v-45a3 3 0 0 0-3-3l-31-9a3 3 0 0 0-3 3v7l2-.6v-6.4a1 1 0 0 1 .8-.98l30.66 8.9.26.08h.28a1 1 0 0 1 1 1v45h2zm-3-46a1 1 0 0 1 1 1v48a1 1 0 0 1-1 1h-36a1 1 0 0 1-1-1v-48a1 1 0 0 1 1-1h36m0-2h-36a3 3 0 0 0-3 3v48a3 3 0 0 0 3 3h36a3 3 0 0 0 3-3v-48a3 3 0 0 0-3-3zm8 52a1 1 0 0 1-1-1v-8a1 1 0 0 1 2 0v8a1 1 0 0 1-1 1zm0-16a1 1 0 0 1-1-1v-32a1 1 0 0 1 2 0v32a1 1 0 0 1-1 1zm-30-34v9a1 1 0 0 1-1 1h-6a1 1 0 0 1-1-1v-9h8m2-2h-12v11a3 3 0 0 0 3 3h6a3 3 0 0 0 3-3v-11zm-9 21h16a1 1 0 0 1 1 1 1 1 0 0 1-1 1h-16a1 1 0 0 1-1-1 1 1 0 0 1 1-1zm0 8h16a1 1 0 0 1 1 1 1 1 0 0 1-1 1h-16a1 1 0 0 1-1-1 1 1 0 0 1 1-1zm22-8a1 1 0 1 1-.01 0h.01zm-22 16h16a1 1 0 0 1 1 1 1 1 0 0 1-1 1h-16a1 1 0 0 1-1-1 1 1 0 0 1 1-1zm22 0a1 1 0 1 1-.01 0h.01zm0-8a1 1 0 1 1-.01 0h.01z" transform="translate(-1287 -1611)"/></svg>