<svg xmlns="http://www.w3.org/2000/svg" width="48" height="63" viewBox="0 0 48 63"><defs><style>.cls-1{fill:#fff;fill-rule:evenodd}</style></defs><path id="Book_Icon.svg" data-name="Book Icon.svg" class="cls-1" d="M1313 1649h-16a1 1 0 0 0 0 2h16a1 1 0 0 0 0-2zm0 8h-16a1 1 0 0 0 0 2h16a1 1 0 0 0 0-2zm6 0h-.01a1 1 0 1 0 0 2 1 1 0 0 0 .01-2zm-6-16h-16a1 1 0 0 0 0 2h16a1 1 0 0 0 0-2zm21-19a1 1 0 0 0-1 1v32a1 1 0 0 0 2 0v-32a1 1 0 0 0-1-1zm0 40a1 1 0 0 0-1 1v8a1 1 0 0 0 2 0v-8a1 1 0 0 0-1-1zm-15-13h-.01a1 1 0 1 0 0 2 1 1 0 0 0 .01-2zm7-29l-31-9a3 3 0 0 0-3 3v6h-2a3 3 0 0 0-3 3v48a3 3 0 0 0 3 3h36a3 3 0 0 0 3-3v-48a3 3 0 0 0-3-3zm-32-6a.988.988 0 0 1 .8-.98l24.05 6.98H1294v-6zm2 8h8v9a1 1 0 0 1-1 1h-6a1 1 0 0 1-1-1v-9zm31 49a1 1 0 0 1-1 1h-36a1 1 0 0 1-1-1v-48a1 1 0 0 1 1-1h4v9a3 3 0 0 0 3 3h6a3 3 0 0 0 3-3v-9h20a1 1 0 0 1 1 1v48zm-8-30h-.01a1 1 0 1 0 0 2 1 1 0 0 0 .01-2z" transform="translate(-1287 -1611)"/></svg>