<svg xmlns="http://www.w3.org/2000/svg" viewBox="0 0 125 63.4"><defs><style>.cls-1{fill:#fff}</style></defs><title>php</title><g id="Слой_2" data-name="Слой 2"><path class="cls-1" d="M62.5 0C28 0 0 14.2 0 31.7s28 31.7 62.5 31.7S125 49.2 125 31.7 97 0 62.5 0zM46.2 37.9a12 12 0 0 1-5 2.6c-1.8.6-4.1.5-7 .5h-6.4L26 51.2h-7.5l6.7-34.8h14.4c4.3 0 7.5 1.2 9.5 3.5s2.6 5.5 1.8 9.6a14.09 14.09 0 0 1-1.7 4.6 14.73 14.73 0 0 1-3 3.8zm21.8 3l2.9-14.8c.3-1.7.2-3-.4-3.6s-1.8-1-3.7-1h-5.9l-3.8 19.4h-7.4l6.7-33.8h7.4L62 16.3h6.6c4.2 0 7 .8 8.6 2.3s2 3.4 1.4 6.7l-3.1 15.6zm41.2-11.4a14.09 14.09 0 0 1-1.7 4.6 15.73 15.73 0 0 1-3 3.8 12 12 0 0 1-5 2.6c-1.8.6-4.1.5-7 .5h-6.4l-1.8 10.2h-7.5l6.7-34.8h14.4c4.3 0 7.5 1.2 9.5 3.5s2.6 5.5 1.8 9.6zm-14-8h-5.1l-2.8 14.3h4.5c3 0 5.3-.3 6.7-1.4a8.42 8.42 0 0 0 3-5.5c.5-2.5.3-4.5-.7-5.6s-2.8-1.8-5.6-1.8zm-58.3 0h-5.1L29 35.8h4.5c3 0 5.3-.3 6.7-1.4a8.42 8.42 0 0 0 3-5.5c.5-2.5.3-4.5-.7-5.6s-2.8-1.8-5.6-1.8z" id="Layer_1" data-name="Layer 1"/></g></svg>