<svg xmlns="http://www.w3.org/2000/svg" viewBox="0 0 78 65.96"><defs><style>.cls-1{fill:#fb9996}.cls-2,.cls-3{fill:none;stroke:#bb241d;stroke-width:2px}.cls-3{stroke-linecap:round}.cls-4{fill:#bb241d}</style></defs><title>Icon-3</title><g id="Слой_2" data-name="Слой 2"><g id="Icon-3.svg"><circle class="cls-1" cx="16" cy="46.96" r="9"/><circle class="cls-2" cx="17.5" cy="45.46" r="10.59"/><path class="cls-3" d="M22 44l-5.06 4.89L14 46"/><path class="cls-2" d="M71 60v-2.1C71 47.35 57.83 43.32 52 42a.17.17 0 0 1-.12-.16v-2.31a16.59 16.59 0 0 0 2.72-5.76 12.45 12.45 0 0 0 2.76-5.09c.62-2 1.19-5-.45-7.16l-.07-.1c.32-3.73 1.58-12.54-5.24-17a4 4 0 0 0 1.13-3 .35.35 0 0 0-.14-.28.4.4 0 0 0-.3-.09c-.09 0-8.56 1-12.67.11s-8.85 2.29-9.8 5.5a6.26 6.26 0 0 0-4 2.24c-1.87 2.25-2.15 5.88-1.92 10.66.05.61.07 1.22.18 1.84l-.07.09c-1.64 2.12-.88 7 1.2 9.1"/><path id="Прямоугольник_587" data-name="Прямоугольник 587" class="cls-4" d="M1 59h76a1 1 0 0 1 1 1 1 1 0 0 1-1 1H1a1 1 0 0 1-1-1 1 1 0 0 1 1-1z"/><path id="Прямоугольник_587-2" data-name="Прямоугольник 587-2" class="cls-4" d="M18 64h26a1 1 0 0 1 0 2H18a1 1 0 0 1 0-2zm36 0h6a1 1 0 0 1 0 2h-6a1 1 0 0 1 0-2z"/></g></g></svg>