<svg xmlns="http://www.w3.org/2000/svg" viewBox="0 0 254.73 345.38"><defs><style>.cls-1{fill:#fff}</style></defs><title>java</title><g id="Слой_2" data-name="Слой 2"><g id="Layer_1" data-name="Layer 1"><path class="cls-1" d="M82 267.1s-13.2 7.68 9.39 10.27c27.37 3.12 41.36 2.67 71.52-3a124.43 124.43 0 0 0 19 9.28c-67.61 29-153-1.68-99.91-16.52m-8.22-37.84s-14.8 11 7.8 13.3c29.24 3 52.32 3.26 92.28-4.43a41 41 0 0 0 14.21 8.67c-81.75 23.9-172.8 1.89-114.3-17.53m69.65-64.16c16.66 19.18-4.38 36.44-4.38 36.44s42.3-21.84 22.87-49.18c-18.14-25.5-32.06-38.17 43.27-81.86 0 0-118.24 29.53-61.76 94.6"/><path class="cls-1" d="M232.85 295.07s9.77 8-10.76 14.27c-39 11.82-162.43 15.39-196.71.47-12.32-5.36 10.79-12.8 18.06-14.36a46.88 46.88 0 0 1 11.91-1.34c-13.7-9.65-88.58 19-38 27.15 137.85 22.36 251.29-10.07 215.54-26.2M88.38 190.11S25.61 205 66.15 210.43c17.12 2.29 51.24 1.77 83-.89 26-2.19 52.06-6.85 52.06-6.85a110.2 110.2 0 0 0-15.79 8.45C121.72 227.9-1.42 220.11 34 203c30-14.49 54.36-12.85 54.36-12.85M201 253.05c64.8-33.67 34.84-66 13.93-61.67a48.5 48.5 0 0 0-7.41 2 11.81 11.81 0 0 1 5.48-4.28c41.37-14.54 73.19 42.9-13.35 65.65a5.64 5.64 0 0 0 1.3-1.7M161.92 0s35.89 35.9-34 91.1c-56.07 44.28-12.79 69.53 0 98.38-32.79-29.53-56.81-55.48-40.69-79.72C110.88 74.24 176.4 57 161.92 0"/><path class="cls-1" d="M94.75 344.29c62.2 4 157.71-2.21 160-31.64 0 0-4.35 11.16-51.4 20-53.09 10-118.56 8.82-157.4 2.42 0 0 7.95 6.58 48.83 9.2"/></g></g></svg>