<svg xmlns="http://www.w3.org/2000/svg" viewBox="0 0 124 118.9"><defs><style>.cls-1{fill:#fff}</style></defs><title>ruby</title><g id="Слой_2" data-name="Слой 2"><path class="cls-1" d="M34 106.8c27.5 3.8 54.4 7.4 82 11.2-9.4-15.6-18.5-30.8-27.7-46.1zm89.7-86.4c-2.4 3.6-4.8 7.3-7.3 10.9L91.5 68.8c-.5.7-1.1 1.2-.4 2.3q12 19.8 23.9 39.8a48.34 48.34 0 0 0 4.2 6.2l4.8-96.6zM14.3 61.7a1.57 1.57 0 0 0 1.7.3c7.7-3.8 15.4-7.5 22.9-11.6 2.5-1.3 4.3-3.7 6.5-5.7 7-6.4 14-12.8 21-19.3a7.41 7.41 0 0 0 1.2-1.3c2.5-4.9 5-9.8 7.5-14.9-3-1.1-5.9-2.3-8.8-3.3a1.9 1.9 0 0 0-1.4.4c-6.8 3.8-13.6 7.4-20.2 11.5-3.3 2.1-5.9 5.1-8.8 7.7-4.7 4.3-9.3 8.5-13.9 12.9a30.92 30.92 0 0 0-3.3 3.9c-3.1 4.6-6.2 9.2-9.4 14a43.2 43.2 0 0 0 5 5.4zm28.1-6.3c-3.8 16.2-7.6 32.2-11.6 48.8 18.4-11.9 36.4-23.5 54.3-35-14.2-4.5-28.4-9.1-42.7-13.8zM119 20.6c-15.6 2.6-30.8 5.1-46.2 7.7C78 41.1 83.2 53.5 88.5 66.4 98.7 51 108.7 36 119 20.6zM43 52.1c14 4.5 27.8 9 41.9 13.6C79.7 52.9 74.6 40.6 69.4 28 60.6 36.1 51.9 44 43 52.1zm-28.2 19C9.8 83 5 94.5.1 106.1c9.4-.3 18.5-.5 27.9-.8-4.3-11.3-8.7-22.5-13.2-34.2zm13.6 26.1l.3-.1c3.4-13.9 6.8-27.8 10.2-42.3-7.6 4-14.9 7.8-22.4 11.6 3.9 10.1 7.9 20.5 11.9 30.8zm85-78.9c-4.5-1.2-8.9-2.4-13.4-3.5L80.8 9.7c-.8-.2-1.4-.4-1.9.6-2.3 4.6-4.6 9.2-6.9 13.9-.1.1-.1.3-.1.7 13.9-2.1 27.7-4.2 41.5-6.3-.1 0 0-.3 0-.3zM87.5 7.8l36.3 10.1c-2.1-5.9-4-11.4-6-17.1L87.5 7.5zm-56 101.7c-4.5-.5-9.1 0-13.7 0l-11.2.3a1.58 1.58 0 0 0-1.2.5c31 2.9 62 5.7 93 8.6l.1-.4c-9.9-1.4-19.9-2.7-29.8-4.1-12.4-1.6-24.8-3.5-37.2-4.9zM.8 95.5c4-9.3 8-18.5 12-27.8a1.72 1.72 0 0 0-.4-2.3c-1.7-1.6-3.2-3.3-5.1-5.2C4.8 72.4 2.4 84.3 0 96.3l.3.1a4.05 4.05 0 0 1 .5-.9zM79.5 5.3C86.2 3.6 93.1 2.2 99.9.7a6.47 6.47 0 0 0 1.3-.4l-.1-.3C91.6 1.3 82 2.6 71.9 4c2.8 1.2 4.9 2 7.6 1.3z" id="Layer_1" data-name="Layer 1"/></g></svg>