<svg id="Слой_1" xmlns="http://www.w3.org/2000/svg" viewBox="0 0 254.9 347.2"><style>.st0{fill:#e3e3e3}.st1{fill:#c2c2c2}.st2{fill:#fff}.st3{fill:#231f20}</style><title>go</title><path class="st0" d="M3.3 188c.5 10.3 10.8 5.5 15.3 2.3 4.4-3.1 5.7-.5 6.1-6.5.4-3.9.6-7.9.5-11.9-6.8-.7-13.7 1.1-19.3 5-2.9 2-8.1 8.6-2.6 11.1m204.5 126.1c7.9 4.9 22.3 19.6 10.5 26.8-11.4 10.4-17.7-11.5-27.7-14.4 4.2-6 9.6-11.3 17.2-12.4zM66.9 330.7c-9.3 1.4-14.4 9.8-22.2 14-7.3 4.3-10.1-1.4-10.7-2.6-1.1-.5-1 .5-2.8-1.3-6.8-10.7 7-18.4 14.1-23.7 10.1-2 16.4 6.7 21.6 13.6zm184.6-144c-.5 10.3-10.8 5.5-15.3 2.3-4.4-3.1-5.7-.5-6.1-6.5-.4-3.9-.6-7.9-.5-11.9 6.8-.7 13.7 1.1 19.3 5 2.8 2 8.1 8.6 2.6 11.1"/><path class="st1" d="M224.3 61.6C259.9 49 232.1.3 201.1 21.8 180.8 4.4 152.8 1.2 123.4 1.2 94.6 3.5 67.2 8.8 48.1 25.5 17.2 5.6-11.3 53.4 25 65.4c-10.2 39.4 1.4 79.7-.2 119.8-1.5 36.1-11 84.4 9.1 116.7 17 27.7 53.7 37.5 83.9 38.6 38.5 1.4 85.3-8.1 104-45.4 17.9-35.6 12.9-79.9 10.7-118.2-2.4-38.6 1.9-78-8.2-115.3z"/><path d="M254.2 180.6c-1.1-2.3-2.7-4.2-4.7-5.8-4.9-3.3-10.6-5.2-16.5-5.3-.2-6.2-.4-12.9-.4-21.5v-7.8c-.1-24.5-.4-35.3-1.8-48.7-1-9.9-2.7-19.8-5.2-29.5 8-3.1 13.4-8.2 15.4-14.7 2-6.1 1-13-2.4-19s-8.9-10.4-15.5-12.3c-7-1.9-14.5-.5-21.8 4.4-6.7-5.5-14.2-9.8-22.3-12.8C164.1 2.1 146.9 0 123.5 0v1l-.1-1c-25 2-43.5 5.9-58.9 13.4-5.9 2.8-11.5 6.5-16.4 10.8-7.4-4.6-15-5.7-22.1-3.5-6.7 2.1-12.3 6.6-15.6 12.7-3.4 6.1-4.2 13-1.9 19S16 63 23.9 65.9c-2.6 10.6-3.9 21.5-4 32.5-.2 11.5.3 20.6 2.1 41.3 1.3 15.4 1.8 22.5 2 31.1-6.6-.4-13.2 1.4-18.6 5.2-2 1.5-3.6 3.5-4.7 5.8-1.3 2.8-.8 5.3 1.8 6.8.4 4.8 3.1 7 7.2 6.6 3.5-.6 6.8-2 9.7-4.1.7-.5 1.4-.9 2.1-1.2.3-.1.5-.2.8-.3 0 0 .6-.2.8-.3.3-.1.6-.2.8-.4-.2 4.7-.6 9.6-1.5 20.7-1 12.6-1.5 19.4-1.7 27.1-.9 28.5 2.5 49.2 12.6 65.6 3.2 5.2 7.1 9.9 11.7 14-.9.6-4.7 3.4-5.9 4.3-4.2 3.2-7.1 5.9-8.8 8.9-2.2 3.7-2.1 8.3.3 11.9l.1.1.1.1c1.1 1.1 1.7 1.4 2.5 1.4h.3c.1.2.2.3.3.5.3.4.6.9.9 1.3 2.5 2.9 6 3.6 10.7.8 2.5-1.3 4.3-2.8 8.1-6l.2-.2c6.1-5.2 9.1-7.1 13.5-7.8l1.6-.3c.6.3 1.2.5 1.9.8 14.1 5.7 30.6 8.8 47.2 9.4 21.5.8 42.2-1.9 59.8-8.3 4.5-1.7 9-3.6 13.3-5.9 2.6 1 4.8 3.1 9 8 .1.1.2.2.3.4.2.2.2.3.3.4.2.3.5.5.7.8 3.3 3.9 5.5 5.8 8 6.9 3.3 1.4 6.5.7 9.8-2.3 5.8-3.6 6.2-9.2 2.4-15.5-3.1-4.8-7.1-8.9-11.8-12.1 5.3-5.2 9.8-11.3 13.1-18 9.6-19.1 13.3-41.4 13-70.1-.1-10.2-.5-19-1.6-36v-.8c.5.2 1 .5 1.5.9 3.1 2.1 6.7 3.8 9.7 4.1 4.1.4 6.8-1.8 7.2-6.6 2.3-1.6 2.8-4.1 1.5-6.8zM222.5 18.1c6.1 1.7 11.3 5.8 14.3 11.4 3.2 5.2 4 11.6 2.3 17.4-1.9 5.9-6.7 10.6-14.1 13.3-1.5-5.3-3.3-10.6-5.3-15.7 2.9-2.5 4.3-5.6 2-10s-6.3-4.9-10.4-3.6c-2.6-3.3-5.4-6.3-8.5-9.2 6.7-4.1 13.5-5.3 19.7-3.6zM10.1 51.8c-2-5.4-1.3-11.8 1.8-17.3 3.2-5.7 8.4-9.9 14.6-11.8 6.4-1.9 13.2-1 20 3-3.9 3.5-7.4 7.5-10.3 11.8-5.2-2.7-10.5-3.2-13.5 2.3-3.1 5.9.5 9.6 5.6 12.4-.7 1.7-1.4 3.5-2 5.3-.7 2.2-1.4 4.5-2 6.8-7.3-2.8-12.1-7.1-14.2-12.5zm12.1 135.8c-.1 0-.7.2-.7.3-.3.1-.6.2-.9.4-.9.3-1.7.8-2.4 1.4-2.6 1.9-5.6 3.2-8.8 3.7-3 .3-4.7-1-5-4.6 2.1-.7 3-1.2 3.8-2.4l-1.6-1.2c-.6.8-1.2 1.1-3 1.7-.1 0-.1 0-.2.1-1.6-.9-1.9-2.3-1-4.3 1-2 2.4-3.7 4.1-5 5.1-3.6 11.3-5.2 17.5-4.8 0 2.5.1 5 0 7.4 0 .3 0 .5-.1.8-.1 1.4-.1 2-.2 2.7-.2 2.9-.4 3.3-1.5 3.8zm30.1 150.3l-.2.2c-2.4 2.2-5 4.1-7.8 5.8-3.8 2.3-6.4 1.8-8.2-.4-.3-.3-.5-.6-.7-1-.1-.1-.2-.3-.3-.4v-.1c.2-1.8.9-3.1 2.7-5.9.1-.1.1-.1.1-.2.8-1.1 1.5-2.3 2.1-3.6l-1.8-.8c-.6 1.1-1.2 2.2-1.9 3.3-.1.1-.1.1-.1.2-1.4 1.8-2.4 3.8-3 6h-.4c-.3-.2-.6-.4-.9-.7-3.9-6.2-.8-11.5 8-18 1.1-.8 4.8-3.4 5.8-4.2.2 0 .4-.1.6-.2 5.7 4.8 11.9 8.7 18.6 11.9 0 .1.1.2.2.3-4.1 1-7.2 3-12.8 7.8zM219.5 327c3.1 5.2 3 9.4-.9 12.3-.3-.6-.5-1.3-.9-2.3 0-.1 0-.1-.1-.2-1.4-3.8-2.3-5.4-4-7.2l-1.4 1.4c1.5 1.4 2.2 2.9 3.6 6.4 0 .1 0 .1.1.2.5 1.3.8 2.1 1.1 2.8-2.6 2.2-4.9 2.6-7.3 1.5-2.1-.9-4.1-2.8-7.3-6.4-.2-.2-.4-.5-.6-.8-.1-.1-.2-.2-.3-.4-.1-.1-.2-.2-.3-.4-3.7-4.3-5.9-6.6-8.3-7.9 5.4-3.1 10.4-6.8 15-11 4.3 3.1 9 7.7 11.6 12zm1.4-32.3c-8.6 17.2-23.7 29.4-44 36.8-17.3 6.3-37.8 8.9-59.1 8.1-36.6-1.3-68.2-14-83.1-38.1-10-16-13.3-36.5-12.4-64.6.3-7.7.7-14.5 1.7-27.1 1.1-14.1 1.4-18.2 1.7-24.6.2-4.6.2-9.3.1-14.2-.2-8.8-.7-15.7-2-31.4-1.8-20.7-2.3-29.8-2.1-41.1C22 83.6 24 70.4 28.2 58 35 37.7 47.5 24 65.4 15.1 80.5 7.8 98.7 4 123.5 2c23.2 0 40.1 2.1 54.8 7.5 17.5 6.5 30.6 17.8 39.6 35.3 5.8 14.1 9.2 29.4 11 46.9 1.4 13.3 1.7 24.1 1.8 48.5v7.8c.1 12.1.3 20.5.8 29 .2 3.3.3 4.7.8 12.6 1.1 16.9 1.5 25.7 1.6 35.9.1 28.4-3.5 50.4-13 69.2zm30.5-109c-.1 0-.2-.1-.3-.1-1.2-.2-2.2-.8-3-1.7l-1.6 1.2c.9 1.2 1.8 1.7 3.8 2.4-.4 3.6-2.1 4.9-5 4.6-2.6-.2-6-1.8-8.8-3.7-.8-.5-1.6-1-2.4-1.4-.1 0-.2-.1-.3-.1-.4-5.5-.4-6.9-.6-9.8l-.3-5.4c5.5 0 10.8 1.7 15.2 4.9 1.7 1.3 3.1 3 4.1 5 1.1 1.7.9 3.2-.8 4.1z"/><path class="st2" d="M138.5 103.9c.1 5.1 1.1 10.7.2 16-1.4 2.6-4 2.9-6.3 3.9-3.2-.5-5.9-2.6-7.2-5.6-.8-6.1.2-11.8.5-17.9 0-.2 3.8.1 7.2 1.1 2 .6 3.9 1.4 5.6 2.5zm-28.2.4c-2.8 10.6 3.7 27.8 14.3 13.7-.8-6 .1-11.8.4-17.6.2-.6-14.6 3.2-14.7 3.9z"/><path d="M139.7 108.6c-.2-3-.3-4.2-.3-5.7v-.7l-.7-.2-12.6-3.9v-.7l-1.3.3h-.1v.1l-14.1 3.6-.5.1-.2.5c-2.2 5.3-1.7 13.3 1.1 18.1 3.2 5.6 8.4 5.7 13.7-.7 1.5 2.9 4.3 4.9 7.5 5.4h.3l.3-.1c.4-.2.8-.3 1.5-.6.1 0 .1 0 .2-.1 2.9-1 4.1-1.8 5.1-3.7l.1-.1v-.2c.3-1.9.4-3.8.4-5.8l-.4-5.6zm-15.9-3.7c-.1 1.8-.2 2.5-.3 3.5-.2 3.1-.2 6.2.1 9.3-4.7 6-8.4 6-10.9 1.5-2.4-4.2-2.9-11.3-1.1-15.9l12.6-3.2c-.1 1.2-.2 2.5-.4 4.8zm13.9 14.8c-.7 1.2-1.6 1.8-4 2.6-.1 0-.1 0-.2.1-.6.2-1 .4-1.3.5-2.7-.5-5-2.3-6.1-4.8-.3-3-.3-6.1-.1-9.2.1-1 .1-1.7.3-3.5.2-2.3.3-3.7.3-5l10.9 3.3c0 1.3.1 2.5.3 5.1s.3 4.1.3 5.7c0 1.7-.1 3.4-.4 5.2z"/><path class="st2" d="M50.4 60.5c9.2 35.7 66.2 26.5 64-9.3-2.6-42.8-72.9-34.5-64 9.3"/><path d="M115.4 51.2c-.6-10.4-5.2-18.4-12.8-23.5-6.8-4.6-15.7-6.4-24.6-5.3s-17 5.1-22.4 11.4c-6 7-8.3 16.1-6.2 26.7l.9-.2-.9.2c9.4 36.7 68.2 27.8 66-9.3zm-64.1 9.1c-2-10.1.2-18.6 5.8-25.1 5.1-5.9 12.7-9.8 21.2-10.9s16.9.6 23.3 5c7.1 4.8 11.4 12.3 12 22.1 2.1 34.8-53.4 43.2-62.3 8.9z"/><ellipse cx="66.1" cy="54.7" rx="9.7" ry="10.5"/><ellipse class="st2" cx="70.5" cy="57" rx="2.3" ry="2.7"/><path class="st2" d="M130.4 53.9c7.1 40.9 74 30.1 64.4-11.2-8.7-37-66.8-26.8-64.4 11.2"/><path d="M195.6 42.5C186.8 4.3 127 14.8 129.4 54v.1c3.3 19.3 20.5 29.2 39.6 26 8.7-1.5 16.4-5.7 21.5-11.8 5.6-6.9 7.6-15.8 5.1-25.8zM189 67c-4.8 5.8-12.1 9.8-20.3 11.2-18 3-34.2-6.3-37.4-24.4-2.2-36.9 54.2-46.8 62.5-10.9 2.3 9.5.5 17.7-4.8 24.1z"/><ellipse cx="146.8" cy="52.1" rx="9.5" ry="10.5"/><ellipse class="st2" cx="151.2" cy="54.5" rx="2.2" ry="2.7"/><path class="st0" d="M112.4 82.8c-7.9.7-14.2 10-10.2 17.3 5.4 9.8 17.4-.9 24.9.1 8.7.2 15.7 9.2 22.6 1.6 7.7-8.4-3.3-16.5-12-20.1l-25.3 1.1z"/><path class="st3" d="M150.7 89.5c-2.7-3.4-7.4-6.5-12.4-8.6l-.2-.1h-.2l-25.5 1c-8.9.8-15.2 11.1-11 18.8 1.3 2.7 4 4.5 7.1 4.7 2.3.1 4.7-.4 8.4-1.7.3-.1.7-.2 1.2-.4 5-1.7 7-2.2 9-1.9h.1c2.4 0 4.4.7 8.2 2.2 4.2 1.7 5.5 2.2 7.6 2.4 2.9.2 5.8-1 7.7-3.3 3.7-4.2 3.5-8.8 0-13.1zm-1.7 11.7c-1.5 1.8-3.7 2.8-6.1 2.7-1.8-.1-3-.6-7-2.2s-6.2-2.3-8.8-2.4c-2.5-.3-4.6.2-9.9 2-.5.2-.9.3-1.2.4-7.3 2.5-10.8 2.3-13.2-2.1-3.6-6.5 1.9-15.2 9.4-15.9l25.2-1c4.8 2 9.1 4.9 11.6 8 3.1 3.6 3.1 7.2 0 10.5z"/><path d="M139.8 78.5c-3.1-11.4-29-9.7-28.4 3.9 1.3 10.1 31.4 7.4 28.4-3.9z"/></svg>