<svg xmlns="http://www.w3.org/2000/svg" viewBox="0 0 122.11 123.62"><defs><style>.cls-1{fill:#fff}</style></defs><title>python</title><g id="Слой_2" data-name="Слой 2"><g id="Layer_1" data-name="Layer 1"><path class="cls-1" d="M60.36 0a87.23 87.23 0 0 0-14.1 1.2c-12.5 2.2-14.7 6.8-14.7 15.3v11.3h29.5v3.7h-40.6c-8.6 0-16.1 5.1-18.4 14.9-2.7 11.2-2.8 18.2 0 30 2.1 8.7 7.1 14.9 15.7 14.9h10.1V77.9a18.73 18.73 0 0 1 18.4-18.3h29.4a14.85 14.85 0 0 0 14.7-15V16.5c0-8-6.7-14-14.7-15.3A98.59 98.59 0 0 0 60.36 0zm-16 9a5.6 5.6 0 0 1 0 11.2 5.51 5.51 0 0 1-5.5-5.6 5.64 5.64 0 0 1 5.5-5.6z"/><path class="cls-1" d="M94.06 31.5v13.1c0 10.1-8.6 18.7-18.4 18.7h-29.4a15 15 0 0 0-14.7 15v28.1c0 8 6.9 12.7 14.7 15a49.84 49.84 0 0 0 29.4 0c7.4-2.2 14.7-6.5 14.7-15V95.1H61v-3.7h44.2c8.6 0 11.8-6 14.7-14.9 3.1-9.2 2.9-18.1 0-30-2.1-8.5-6.2-14.9-14.7-14.9l-11.1-.1zm-16.5 71.1a5.51 5.51 0 0 1 5.5 5.6 5.5 5.5 0 1 1-11 0 5.51 5.51 0 0 1 5.5-5.6z"/></g></g></svg>