<svg xmlns="http://www.w3.org/2000/svg" width="25" height="24" viewBox="0 0 25 24"><defs><style>.cls-1{fill-rule:evenodd}</style></defs><path id="GH" class="cls-1" d="M986.493 1476a12.282 12.282 0 0 0-3.95 23.98 1.339 1.339 0 0 0 1.435-.58c0-.29.007-.95 0-1.98-3.474 0-4.32-1.75-4.32-1.75a3.039 3.039 0 0 0-1.19-1.7c-1.134-.77.087-1 .087-1a2.9 2.9 0 0 1 2 1.24 2.6 2.6 0 0 0 3.552 1.02c.115-.8.864-.97.864-2.21-3.994 0-6.016-2.02-6.016-5.36a4.948 4.948 0 0 1 1.288-3.4 4.313 4.313 0 0 1 .121-3.25s1.05-.24 3.437 1.35a9.316 9.316 0 0 1 2.694-.38 9.094 9.094 0 0 1 2.661.38c2.388-1.59 3.435-1.35 3.435-1.35a4.336 4.336 0 0 1 .124 3.25 4.946 4.946 0 0 1 1.286 3.4c0 3.35-2.054 5.35-6 5.35 0 1.21 1 1.84 1 2.99v3.4a.721.721 0 0 0 .98.57c4.962-1.63 9.011-6.23 9.011-11.67a12.4 12.4 0 0 0-12.499-12.3z" transform="translate(-974 -1476)"/></svg>