<svg xmlns="http://www.w3.org/2000/svg" width="22" height="22" viewBox="0 0 22 22"><defs><style>.cls-1{fill:#3b5998;fill-rule:evenodd}</style></defs><path id="FB" class="cls-1" d="M3062.99 6207.37v19.25a1.366 1.366 0 0 1-1.37 1.37h-5.65v-9h2.9l1.12-2.99h-4v-1.96c0-1.37 1.08-2.06 2.46-2.06h1.55v-2.99h-2.88c-2.52 0-4.13 1.98-4.13 4.81v2.19h-3.01v3h3.02v9h-10.63a1.374 1.374 0 0 1-1.38-1.37v-19.25a1.374 1.374 0 0 1 1.38-1.37h19.25a1.366 1.366 0 0 1 1.37 1.37z" transform="translate(-3041 -6206)"/></svg>