<svg xmlns="http://www.w3.org/2000/svg" width="25" height="24" viewBox="0 0 25 24"><defs><style>.cls-1{fill:#fff;fill-rule:evenodd}</style></defs><path id="GH" class="cls-1" d="M2972.49 3358a12.276 12.276 0 0 0-3.95 23.97 1.325 1.325 0 0 0 1.44-.57c0-.3.01-.96 0-1.98-3.48 0-4.32-1.75-4.32-1.75a3.05 3.05 0 0 0-1.19-1.7c-1.14-.77.08-1 .08-1a2.852 2.852 0 0 1 2 1.23 2.6 2.6 0 0 0 3.55 1.03c.12-.8.87-.97.87-2.22-4 0-6.02-2.01-6.02-5.35a4.949 4.949 0 0 1 1.29-3.4 4.332 4.332 0 0 1 .12-3.25s1.05-.24 3.44 1.35a8.928 8.928 0 0 1 2.69-.38 8.734 8.734 0 0 1 2.66.38c2.39-1.59 3.44-1.35 3.44-1.35a4.332 4.332 0 0 1 .12 3.25 4.949 4.949 0 0 1 1.29 3.4c0 3.35-2.06 5.34-6 5.34 0 1.22 1 1.85 1 2.99v3.41a.722.722 0 0 0 .98.57c4.96-1.63 9.01-6.24 9.01-11.67a12.4 12.4 0 0 0-12.5-12.3z" transform="translate(-2960 -3358)"/></svg>