<svg xmlns="http://www.w3.org/2000/svg" width="22.25" height="18" viewBox="0 0 22.25 18"><defs><style>.cls-1{fill:#fff;fill-rule:evenodd}</style></defs><path id="TW" class="cls-1" d="M3032.24 3363.12a9.05 9.05 0 0 1-2.59.72 5.691 5.691 0 0 0 1.99-2.51 9 9 0 0 1-2.87 1.1 4.679 4.679 0 0 0-3.39-1.44 4.457 4.457 0 0 0-4.42 4.55 8.95 8.95 0 0 0 .06 1.47 12.132 12.132 0 0 1-9.43-4.72 2.827 2.827 0 0 0-.61 1.76c0 1.57 1.35 3.03 2.02 3.94-.74-.03-1.2-.01-2.03-.04v.05c0 2.21 2.34 3.01 4.03 3.99-.51-.02-1.28 0-1.69 0a3.968 3.968 0 0 1-.85-.05 4.8 4.8 0 0 0 4.5 3.07 9.915 9.915 0 0 1-5.89 2.01 9.633 9.633 0 0 1-1.08-.07 12.714 12.714 0 0 0 6.92 2.04 13.015 13.015 0 0 0 13.09-12.93c0-.19 0-.39-.01-.58a9.027 9.027 0 0 0 2.25-2.36z" transform="translate(-3010 -3361)"/></svg>