<svg xmlns="http://www.w3.org/2000/svg" width="22.25" height="18" viewBox="0 0 22.25 18"><defs><style>.cls-1{fill:#bb241d;fill-rule:evenodd}</style></defs><path id="TW" class="cls-1" d="M429.244 1539.13a9.015 9.015 0 0 1-2.591.71 5.656 5.656 0 0 0 1.984-2.51 8.941 8.941 0 0 1-2.866 1.1 4.713 4.713 0 0 0-3.388-1.43 4.446 4.446 0 0 0-4.42 4.54 9.136 9.136 0 0 0 .055 1.47 12.114 12.114 0 0 1-9.429-4.72 2.856 2.856 0 0 0-.612 1.76c0 1.57 1.348 3.03 2.028 3.94-.74-.03-1.2-.01-2.032-.04v.06c0 2.2 2.337 3 4.026 3.98-.5-.02-1.277.01-1.689.01a4.761 4.761 0 0 1-.849-.05 4.818 4.818 0 0 0 4.5 3.06 9.886 9.886 0 0 1-5.887 2.01 9.6 9.6 0 0 1-1.078-.07 12.715 12.715 0 0 0 6.919 2.04 13.02 13.02 0 0 0 13.093-12.92c0-.2 0-.4-.013-.59a9.152 9.152 0 0 0 2.249-2.35z" transform="translate(-407 -1537)"/></svg>