<svg id="Medium" xmlns="http://www.w3.org/2000/svg" width="26.03" height="22" viewBox="0 0 26.03 22"><defs><style>.cls-1,.cls-2{fill:#e5e5e5;fill-rule:evenodd}.cls-2{fill:#fff}</style></defs><path class="cls-1" d="M3129.31 3380.96l-8.33-3.96.01-17.46a.546.546 0 0 1 .8-.49l7.87 3.65a.581.581 0 0 1 .32.49v17.35a.485.485 0 0 1-.67.42z" transform="translate(-3103.97 -3359)"/><path class="cls-2" d="M3121.61 3377.22l-8.92-4.35 8.33-13.6a.524.524 0 0 1 .7-.21l7.98 3.6a.573.573 0 0 1 .24.77z" transform="translate(-3103.97 -3359)"/><path class="cls-1" d="M3121.32 3377.01l-8.63-4.14-7.97-12.92a.436.436 0 0 1 .57-.6l7.4 3.54z" transform="translate(-3103.97 -3359)"/><path class="cls-2" d="M3112.31 3380.96l-8.33-3.96.01-17.46a.546.546 0 0 1 .8-.49l7.87 3.65a.581.581 0 0 1 .32.49v17.35a.485.485 0 0 1-.67.42z" transform="translate(-3103.97 -3359)"/></svg>