<svg xmlns="http://www.w3.org/2000/svg" width="22.25" height="18" viewBox="0 0 22.25 18"><defs><style>.cls-1{fill:#1da1f2;fill-rule:evenodd}</style></defs><path id="TW:hover" class="cls-1" d="M429.245 1539.13a9.031 9.031 0 0 1-2.592.71 5.649 5.649 0 0 0 1.984-2.51 8.932 8.932 0 0 1-2.866 1.1 4.71 4.71 0 0 0-3.388-1.43 4.446 4.446 0 0 0-4.42 4.54 9.252 9.252 0 0 0 .055 1.47 12.111 12.111 0 0 1-9.429-4.71 2.806 2.806 0 0 0-.612 1.75c0 1.58 1.348 3.03 2.029 3.94-.74-.02-1.2-.01-2.033-.04v.06c0 2.2 2.336 3.01 4.026 3.99-.5-.02-1.277 0-1.688 0a4.756 4.756 0 0 1-.85-.05 4.817 4.817 0 0 0 4.5 3.06 9.886 9.886 0 0 1-5.887 2.01 7.706 7.706 0 0 1-1.078-.07 12.724 12.724 0 0 0 6.92 2.05 13.027 13.027 0 0 0 13.092-12.93c0-.2 0-.4-.013-.59a9.185 9.185 0 0 0 2.25-2.35z" transform="translate(-407 -1537)"/></svg>