<svg xmlns="http://www.w3.org/2000/svg" width="22" height="22" viewBox="0 0 22 22"><defs><style>.cls-1{fill:#0077b5;fill-rule:evenodd}</style></defs><path id="IN:hover" class="cls-1" d="M380.431 1535h-18.877a1.541 1.541 0 0 0-1.559 1.52v18.95a1.549 1.549 0 0 0 1.559 1.53h18.877a1.551 1.551 0 0 0 1.562-1.53v-18.95a1.542 1.542 0 0 0-1.562-1.52zM367 1554.02h-3v-10.03h3v10.03zm11.983-.03h-3.007v-4.62c0-1.33-.373-2.68-1.985-2.68-1.632 0-2.018 1.34-1.987 2.59v4.71h-3.037v-10h3.043v1.6h.045a3.48 3.48 0 0 1 3.065-1.63c3.083 0 3.863 1.05 3.863 4.81v5.22zM365.5 1539a1.5 1.5 0 1 1-1.5 1.5 1.5 1.5 0 0 1 1.5-1.5z" transform="translate(-360 -1535)"/></svg>