<svg id="Tools" xmlns="http://www.w3.org/2000/svg" width="80" height="80" viewBox="0 0 80 80"><defs><style>.cls-1{fill:#bb241d}.cls-2{fill:#fff;fill-rule:evenodd}</style></defs><rect id="Прямоугольник_1642" data-name="Прямоугольник 1642" class="cls-1" width="80" height="80" rx="3" ry="3"/><path id="Tool-Icon.svg" class="cls-2" d="M1303.86 2898a3.983 3.983 0 0 0-7.72 0H1291v2h5.14a3.983 3.983 0 0 0 7.72 0H1335v-2h-31.14zm-3.86 3a2 2 0 1 1 2-2 2.006 2.006 0 0 1-2 2zm-9 25v2h5v-2h-5zm36-17a4 4 0 0 0-3.86 3H1291v2h32.14a3.983 3.983 0 0 0 7.72 0h4.14v-2h-4.14a4 4 0 0 0-3.86-3zm0 6a2 2 0 1 1 2-2 2.006 2.006 0 0 1-2 2zm-27 8a4 4 0 1 0 3.86 5H1335v-2h-31.14a4 4 0 0 0-3.86-3zm0 6a2 2 0 1 1 2-2 2.006 2.006 0 0 1-2 2z" transform="translate(-1273 -2873)"/></svg>