<svg id="Control_Panell" data-name="Control Panell" xmlns="http://www.w3.org/2000/svg" width="80" height="80" viewBox="0 0 80 80"><defs><style>.cls-1{fill:#bb241d}.cls-2{fill:#fff;fill-rule:evenodd}</style></defs><rect id="Прямоугольник_1642" data-name="Прямоугольник 1642" class="cls-1" width="80" height="80" rx="3" ry="3"/><path id="Browser-icon.svg" class="cls-2" d="M917 2894h-48a3 3 0 0 0-3 3v32a3 3 0 0 0 3 3h48a3 3 0 0 0 3-3v-32a3 3 0 0 0-3-3zm-48 2h48a1 1 0 0 1 1 1v4h-50v-4a1 1 0 0 1 1-1zm-1 33v-26h8v27h-7a1 1 0 0 1-1-1zm49 1h-39v-27h40v26a1 1 0 0 1-1 1z" transform="translate(-853 -2873)"/></svg>