<svg id="Stats" xmlns="http://www.w3.org/2000/svg" width="80" height="80" viewBox="0 0 80 80"><defs><style>.cls-1{fill:#bb241d}.cls-2{fill:#fff;fill-rule:evenodd}</style></defs><rect id="Прямоугольник_1642" data-name="Прямоугольник 1642" class="cls-1" width="80" height="80" rx="3" ry="3"/><path id="Stats-Icon.svg" class="cls-2" d="M1759 2931h-48a2.024 2.024 0 0 1-.7-.13l10.08-14.65 12.88 4.95 23.46-24.48a1 1 0 0 0-1.44-1.38l-22.54 23.52-13.12-5.05-10.6 15.42a1.231 1.231 0 0 1-.02-.2v-34a1 1 0 0 0-2 0v34a4 4 0 0 0 4 4h48a1 1 0 0 0 0-2z" transform="translate(-1693 -2873)"/></svg>