<svg id="Icon" xmlns="http://www.w3.org/2000/svg" width="62" height="62" viewBox="0 0 62 62">
  <metadata><?xpacket begin="﻿" id="W5M0MpCehiHzreSzNTczkc9d"?>
<x:xmpmeta xmlns:x="adobe:ns:meta/" x:xmptk="Adobe XMP Core 5.6-c140 79.160451, 2017/05/06-01:08:21        ">
   <rdf:RDF xmlns:rdf="http://www.w3.org/1999/02/22-rdf-syntax-ns#">
      <rdf:Description rdf:about=""/>
   </rdf:RDF>
</x:xmpmeta>
                                                                                                    
                                                                                                    
                                                                                                    
                                                                                                    
                                                                                                    
                                                                                                    
                                                                                                    
                                                                                                    
                                                                                                    
                                                                                                    
                                                                                                    
                                                                                                    
                                                                                                    
                                                                                                    
                                                                                                    
                                                                                                    
                                                                                                    
                                                                                                    
                                                                                                    
                                                                                                    
                           
<?xpacket end="w"?></metadata>
<defs>
    <style>
      .cls-1 {
        opacity: 0;
      }

      .cls-2, .cls-3 {
        fill: #fff;
        fill-rule: evenodd;
      }

      .cls-2 {
        opacity: 0.33;
      }
    </style>
  </defs>
  <rect class="cls-1" width="62" height="62"/>
  <path class="cls-2" d="M45.047,54.256a32.9,32.9,0,0,1-29.955,2.01,1,1,0,0,1-.527-1.313,0.992,0.992,0,0,1,1.307-.522,30.81,30.81,0,0,0,34.193-6.662,1,1,0,0,1,1.422,1.4A32.819,32.819,0,0,1,45.047,54.256Zm10.8-10.814a1,1,0,0,1-1.372-1.373,31.179,31.179,0,0,0,4.318-13.546,1,1,0,1,1,1.987.164,33.183,33.183,0,0,1-4.6,14.418A0.993,0.993,0,0,1,55.847,43.442Z"/>
  <path class="cls-2" d="M28,1A25.035,25.035,0,0,0,17.01,48.513L18,49l0.386-1.036,5.32-14.286,0.267-.718-0.622-.446a8.006,8.006,0,1,1,9.287,0l-0.624.446,0.268,0.719L37.6,47.963,37.989,49l0.991-.485A25.032,25.032,0,0,0,28,1h0Z"/>
  <path id="Open_Source" data-name="Open Source" class="cls-3" d="M28,0A26,26,0,1,0,54,26,26,26,0,0,0,28,0Zm-8.71,48.36L25.28,32.41a7,7,0,1,1,5.44,0l5.98,15.95A23.916,23.916,0,0,1,19.29,48.359Zm19.25-.8L33.22,33.29a8.977,8.977,0,1,0-10.45,0L17.45,47.559A24.005,24.005,0,1,1,38.54,47.559Z"/>
</svg>
