<svg id="Icon" xmlns="http://www.w3.org/2000/svg" width="62" height="62"><defs><style>.cls-2{fill:#fff;fill-rule:evenodd;opacity:.33}</style></defs><path id="Box_Icon" data-name="Box Icon" class="cls-2" d="M30.986 58.033a2 2 0 0 1-.7-.128L5.307 48.583a1 1 0 1 1 .7-1.873l24.976 9.322 4.335-1.615a1 1 0 1 1 .7 1.873l-4.33 1.61a1.968 1.968 0 0 1-.702.133zm12.175-4.478a1 1 0 0 1-.35-1.936l13.153-4.909a1 1 0 1 1 .7 1.873L43.51 53.492a1 1 0 0 1-.349.063z"/><path class="cls-2" d="M59.8 17.536l-2.6-5.248a.993.993 0 0 0-1.227-.495l-23.964 8.59a6.1 6.1 0 0 1-1.936 0l-23.965-8.59a1 1 0 0 0-1.215.472L2.084 17.58a1 1 0 0 0 .519 1.4l3.51 1.36v19.67a1 1 0 0 0 .648.934L29.733 49.5a13.693 13.693 0 0 0 2.267.062.99.99 0 0 0 .348-.063l22.9-8.555a1 1 0 0 0 .652-.934V20.235l3.38-1.328a1 1 0 0 0 .52-1.371z"/><path id="Box_Icon-2" data-name="Box Icon" d="M61.674 18.347L57.968 11.2a.988.988 0 0 0-.615-.736L31.376.006a1 1 0 0 0-.706 0L4.695 10.464a.99.99 0 0 0-.616.734L.373 18.347a1 1 0 0 0 .575 1.309l4.1 1.415v19.664a1 1 0 0 0 .645.935l24.977 9.322a1 1 0 0 0 .354.064.993.993 0 0 0 .352-.064l24.976-9.322a1 1 0 0 0 .648-.935v-19.7l4.1-1.38a1 1 0 0 0 .574-1.308zM31.024 2.01l23.122 9.381-23.122 8.386-23.1-8.394zM5.636 12.679L29.714 21.3l-3.824 5.67-23.076-8.959zm1.342 9.249l18.922 7.05a1 1 0 0 0 1.28-.562l2.849-4.544v24.5a1 1 0 0 0 .036.253L6.978 40.043V21.928zM55 40.043l-23.013 8.582a1 1 0 0 0 .035-.253v-24.5l2.85 4.477a1 1 0 0 0 .926.627.984.984 0 0 0 .353-.065L55 21.945v18.1zM36.02 26.966L32.333 21.3l24.079-8.617 2.619 5.264z" fill="#fff" fill-rule="evenodd"/></svg>