<svg id="Icon" xmlns="http://www.w3.org/2000/svg" width="62" height="62"><defs><style>.cls-2{fill:#fff;fill-rule:evenodd;opacity:.33}</style></defs><path class="cls-2" d="M45.047 54.256a32.9 32.9 0 0 1-29.955 2.01 1 1 0 0 1-.527-1.313.992.992 0 0 1 1.307-.522 30.81 30.81 0 0 0 34.193-6.662 1 1 0 0 1 1.422 1.4 32.819 32.819 0 0 1-6.44 5.087zm10.8-10.814a1 1 0 0 1-1.372-1.373 31.179 31.179 0 0 0 4.318-13.546 1 1 0 1 1 1.987.164 33.183 33.183 0 0 1-4.6 14.418.993.993 0 0 1-.333.337zM28 1a25.035 25.035 0 0 0-10.99 47.513L18 49l.386-1.036 5.32-14.286.267-.718-.622-.446a8.006 8.006 0 1 1 9.287 0l-.624.446.268.719L37.6 47.963 37.989 49l.991-.485A25.032 25.032 0 0 0 28 1z"/><path id="Open_Source" data-name="Open Source" d="M28 0a26 26 0 1 0 26 26A26 26 0 0 0 28 0zm-8.71 48.36l5.99-15.95a7 7 0 1 1 5.44 0l5.98 15.95a23.916 23.916 0 0 1-17.41-.001zm19.25-.8l-5.32-14.27a8.977 8.977 0 1 0-10.45 0l-5.32 14.269a24.005 24.005 0 1 1 21.09 0z" fill="#fff" fill-rule="evenodd"/></svg>