<svg id="Icon" xmlns="http://www.w3.org/2000/svg" width="62" height="62"><defs><style>.cls-2{fill:#fff;fill-rule:evenodd;opacity:.33}</style></defs><path class="cls-2" d="M27.1 58.129l-2.514-2.514A1 1 0 0 1 26 54.2l2.514 2.514 7.315-7.314a1 1 0 0 1 1.414 1.414l-7.315 7.315a2 2 0 0 1-2.828 0zm-7.44-7.442L7.009 38.036a1 1 0 0 1 1.414-1.414l12.651 12.65a1 1 0 1 1-1.414 1.415zM51 2.966H34.2L8.748 28.422l19.8 19.8L54 22.766v-16.8a3 3 0 0 0-3-3zm-9.018 7.023a5 5 0 1 1-3.536 1.462 4.984 4.984 0 0 1 3.536-1.462z"/><path d="M54.971 22.357a1.988 1.988 0 0 1-.586 1.416l-1.3 1.3c.019.069.042.135.061.2a20.787 20.787 0 0 1 .406 9.9c-.73 3.09-2.332 5.112-4.51 5.7-2.086.558-4.375-.29-6.477-2.391a15.022 15.022 0 0 1-.277-.285 14.714 14.714 0 0 1-1.051-1.274L29.929 48.23a2 2 0 0 1-2.827 0L8.716 29.843a2 2 0 0 1 0-2.827L33.172 2.56a1.986 1.986 0 0 1 1.416-.586h16.384a4 4 0 0 1 4 4v16.383zM43.746 36.821c1.636 1.759 3.346 2.5 4.779 2.117s2.529-1.884 3.081-4.222a18.24 18.24 0 0 0-.19-7.974l-8.746 8.746a13.145 13.145 0 0 0 1.076 1.333zm7.226-32.847H34.587L10.131 28.43l18.385 18.385L50.827 24.5a18.323 18.323 0 0 0-3.678-6.564 5.921 5.921 0 0 1-.956 1.3 6.06 6.06 0 1 1 1.674-3.4 18.3 18.3 0 0 1 4.524 7.1l.58-.58V5.974a2 2 0 0 0-1.999-2zm-11 10.8a5 5 0 0 1 1.823-.946 5.578 5.578 0 0 1 4.1.594 3.963 3.963 0 0 0-1.114-2.251 4.025 4.025 0 1 0 .838 4.409 4.018 4.018 0 0 0-3.3-.819 3.193 3.193 0 0 0-1.472.9 1.971 1.971 0 0 1-.874-1.891z" fill="#fff" fill-rule="evenodd"/></svg>