<svg id="Icon" xmlns="http://www.w3.org/2000/svg" width="62" height="62" viewBox="0 0 62 62">
  <metadata><?xpacket begin="﻿" id="W5M0MpCehiHzreSzNTczkc9d"?>
<x:xmpmeta xmlns:x="adobe:ns:meta/" x:xmptk="Adobe XMP Core 5.6-c140 79.160451, 2017/05/06-01:08:21        ">
   <rdf:RDF xmlns:rdf="http://www.w3.org/1999/02/22-rdf-syntax-ns#">
      <rdf:Description rdf:about=""/>
   </rdf:RDF>
</x:xmpmeta>
                                                                                                    
                                                                                                    
                                                                                                    
                                                                                                    
                                                                                                    
                                                                                                    
                                                                                                    
                                                                                                    
                                                                                                    
                                                                                                    
                                                                                                    
                                                                                                    
                                                                                                    
                                                                                                    
                                                                                                    
                                                                                                    
                                                                                                    
                                                                                                    
                                                                                                    
                                                                                                    
                           
<?xpacket end="w"?></metadata>
<defs>
    <style>
      .cls-1 {
        opacity: 0;
      }

      .cls-2, .cls-3 {
        fill: #fff;
        fill-rule: evenodd;
      }

      .cls-2 {
        opacity: 0.33;
      }
    </style>
  </defs>
  <rect class="cls-1" width="62" height="62"/>
  <path id="Box_Icon" data-name="Box Icon" class="cls-2" d="M30.986,58.033a2,2,0,0,1-.7-0.128L5.307,48.583a1,1,0,1,1,.7-1.873l24.976,9.322,4.335-1.615a1,1,0,1,1,.7,1.873L31.688,57.9A1.968,1.968,0,0,1,30.986,58.033Zm12.175-4.478a1,1,0,0,1-.35-1.936l13.153-4.909a1,1,0,1,1,.7,1.873L43.51,53.492A1,1,0,0,1,43.161,53.555Z"/>
  <path class="cls-2" d="M59.8,17.536L57.2,12.288a0.993,0.993,0,0,0-1.227-.495l-23.964,8.59a6.1,6.1,0,0,1-1.936,0L6.108,11.793a1,1,0,0,0-1.215.472L2.084,17.58a1,1,0,0,0,.519,1.4L6.113,20.34V40.01a1,1,0,0,0,.648.934L29.733,49.5A13.693,13.693,0,0,0,32,49.562a0.99,0.99,0,0,0,.348-0.063l22.9-8.555A1,1,0,0,0,55.9,40.01V20.235l3.38-1.328A1,1,0,0,0,59.8,17.536Z"/>
  <path id="Box_Icon-2" data-name="Box Icon" class="cls-3" d="M61.674,18.347L57.968,11.2a0.988,0.988,0,0,0-.615-0.736L31.376,0.006a1,1,0,0,0-.706,0L4.695,10.464a0.99,0.99,0,0,0-.616.734L0.373,18.347a1,1,0,0,0,.575,1.309l4.1,1.415V40.735a1,1,0,0,0,.645.935L30.67,50.992a1,1,0,0,0,.354.064,0.993,0.993,0,0,0,.352-0.064L56.352,41.67A1,1,0,0,0,57,40.735v-19.7l4.1-1.38A1,1,0,0,0,61.674,18.347ZM31.024,2.01l23.122,9.381L31.024,19.777l-23.1-8.394ZM5.636,12.679L29.714,21.3l-3.824,5.67L2.814,18.011Zm1.342,9.249L25.9,28.978a1,1,0,0,0,1.28-.562l2.849-4.544v24.5a1,1,0,0,0,.036.253L6.978,40.043V21.928ZM55,40.043L31.987,48.625a1,1,0,0,0,.035-0.253v-24.5l2.85,4.477a1,1,0,0,0,.926.627,0.984,0.984,0,0,0,.353-0.065L55,21.945v18.1ZM36.02,26.966L32.333,21.3l24.079-8.617,2.619,5.264Z"/>
</svg>
