<svg xmlns="http://www.w3.org/2000/svg" width="112" height="112" viewBox="0 0 112 112"><defs><style>.cls-1{opacity:.1}.cls-2{fill:#9e3621;opacity:0}.cls-2,.cls-3,.cls-4,.cls-5{fill-rule:evenodd}.cls-3,.cls-5{fill:none;stroke:#000;stroke-width:4px}.cls-5{stroke-linecap:round}</style></defs><g id="icon-lock.svg" class="cls-1"><path class="cls-2" d="M989.99,3217.99h100a6,6,0,0,1,6,6v100a6,6,0,0,1-6,6h-100a6,6,0,0,1-6-6v-100A6,6,0,0,1,989.99,3217.99Z" transform="translate(-984 -3218)"/><path class="cls-3" d="M1044,3308H988a2,2,0,0,1-2-2v-36a2,2,0,0,1,2-2h56" transform="translate(-984 -3218)"/><g><path class="cls-3" d="M1019,3276h30a1,1,0,0,1,1,1v22a1,1,0,0,1-1,1h-30a1,1,0,0,1-1-1v-22A1,1,0,0,1,1019,3276Z" transform="translate(-984 -3218)"/><path class="cls-4" d="M1024,3282h4v4h-4v-4Zm8,0h4v4h-4v-4Zm8,0h4v4h-4v-4Zm-16,8h4v4h-4v-4Zm8,0h4v4h-4v-4Zm8,0h4v4h-4v-4Z" transform="translate(-984 -3218)"/></g><path class="cls-5" d="M993.9,3266.11v-7.71c0-10.23,8.639-18.51,19.289-18.51h1.61c10.66,0,19.3,8.28,19.3,18.51v7.71" transform="translate(-984 -3218)"/></g></svg>