<svg xmlns="http://www.w3.org/2000/svg" width="112" height="112" viewBox="0 0 112 112"><defs><style>.cls-1{opacity:.1}.cls-2{fill:#9e3621;opacity:0;fill-rule:evenodd}.cls-3,.cls-4{fill-rule:evenodd;fill:none;stroke:#000;stroke-width:4px}.cls-4{stroke-linecap:square}</style></defs><g id="icon-cloud.svg" class="cls-1"><path class="cls-2" d="M1395.5,2407.99h98.98a6.513,6.513,0,0,1,6.52,6.51v98.99a6.519,6.519,0,0,1-6.52,6.51H1395.5a6.517,6.517,0,0,1-6.51-6.51V2414.5A6.51,6.51,0,0,1,1395.5,2407.99Z" transform="translate(-1389 -2408)"/><path class="cls-3" d="M1418.88,2445.84a20.074,20.074,0,0,0-19.96,20.17v0.13a14.945,14.945,0,0,0-6.22,20.06,14.5,14.5,0,0,0,13.01,7.79h44.77a14.631,14.631,0,0,0,14.6-14.78,14.884,14.884,0,0,0-8.35-13.3,16.015,16.015,0,0,0-19.6-11.52,15.154,15.154,0,0,0-1.61.53,19.948,19.948,0,0,0-16.64-9.04v-0.04Z" transform="translate(-1389 -2408)"/><path class="cls-4" d="M1474,2476.08h4.42a12.947,12.947,0,0,0,5.41-24.59,14.125,14.125,0,0,0-4.61-7.29,13.648,13.648,0,0,0-8.77-3.19,13.408,13.408,0,0,0-4.97.93,17.23,17.23,0,0,0-14.4-7.88h0.01a17.641,17.641,0,0,0-14.38,7.79" transform="translate(-1389 -2408)"/></g></svg>