<svg xmlns="http://www.w3.org/2000/svg" width="112" height="112" viewBox="0 0 112 112"><defs><style>.cls-1{opacity:.1}.cls-2{fill:#9e3621;opacity:0}.cls-2,.cls-3,.cls-5{fill-rule:evenodd}.cls-3,.cls-4,.cls-5{fill:none;stroke:#000;stroke-width:4px}.cls-3,.cls-4{stroke-linecap:round}.cls-5{stroke-linecap:square}</style></defs><g id="icon-person.svg" class="cls-1"><path class="cls-2" d="M1799.99,2812.99h100a6,6,0,0,1,6,6v100a6,6,0,0,1-6,6h-100a6,6,0,0,1-6-6v-100A6,6,0,0,1,1799.99,2812.99Z" transform="translate(-1794 -2813)"/><path class="cls-3" d="M1833.08,2830.89c-4.87,0-9.87,3.58-10.98,7.25a8.15,8.15,0,0,0-5.26,2.89c-2.43,2.96-3.18,7.58-2.17,13.78,0.07,0.79.17,1.58,0.31,2.37l-0.09.12c-2.14,2.73-1.34,6.56-.59,9.19a14.972,14.972,0,0,0,3.35,6.57,22.872,22.872,0,0,0,4.31,7.47m8.04,26.56,43.26-.01c0.04,0,.08.01,0.11,0.01a2.656,2.656,0,0,0,2.67-2.53v-0.08c0-13.65-18.27-18.61-25.91-20.32l-0.13-.22v-3.38c1.75-2.21,3.63-4.73,4.43-7.42a15.026,15.026,0,0,0,3.35-6.57c0.81-2.63,1.54-6.48-.59-9.2l-0.09-.18c1.02-4.81,2.3-16.16-6.59-21.91a5.226,5.226,0,0,0,1.52-3.82,0.556,0.556,0,0,0-.19-0.37,0.51,0.51,0,0,0-.35-0.17c-0.07,0-5.45.59-10.53,0.59a32.858,32.858,0,0,1-6.06-.45,9.272,9.272,0,0,0-1.82-.17" transform="translate(-1794 -2813)"/><circle class="cls-4" cx="15.005" cy="85.005" r="12.875"/><path class="cls-5" d="M1805.85,2898.85l2.09,2.15,4.75-4.76" transform="translate(-1794 -2813)"/></g></svg>