<svg xmlns="http://www.w3.org/2000/svg" width="112" height="112" viewBox="0 0 112 112"><defs><style>.cls-1{opacity:.1}.cls-2,.cls-3{fill-rule:evenodd}.cls-2{opacity:0;fill:#9e3621}.cls-3{fill:none;stroke:#000;stroke-linecap:round;stroke-width:4px}</style></defs><g id="icon-box.svg" class="cls-1"><path class="cls-2" d="M1395.5,2812.99h98.98a6.513,6.513,0,0,1,6.52,6.51v98.99a6.519,6.519,0,0,1-6.52,6.51H1395.5a6.517,6.517,0,0,1-6.51-6.51V2819.5A6.51,6.51,0,0,1,1395.5,2812.99Z" transform="translate(-1389 -2813)"/><g id="box"><path class="cls-3" d="M1391,2854.91h75.97V2906a1,1,0,0,1-1,1H1392a1,1,0,0,1-1-1v-51.09Z" transform="translate(-1389 -2813)"/><path class="cls-3" d="M1390.99,2854.82l10.58-22.76a1.063,1.063,0,0,1,1.05-1.08h53.91a1.071,1.071,0,0,1,1.06,1.08l9.44,22.76" transform="translate(-1389 -2813)"/><path class="cls-3" d="M1438.94,2854.89v22.16a2,2,0,0,1-2,2h-15.95a2.006,2.006,0,0,1-2-2v-22.16" transform="translate(-1389 -2813)"/><path class="cls-3" d="M1419.25,2854.99l3.25-24.04h12.98l3.24,24.04" transform="translate(-1389 -2813)"/></g></g></svg>