<svg xmlns="http://www.w3.org/2000/svg" width="419.97" height="412" viewBox="0 0 419.97 412"><defs><style>.cls-1{fill:#f2f2f2;fill-rule:evenodd}</style></defs><path id="GH-big.svg" class="cls-1" d="M1987.51,1702.34c-112.07-30.04-226.96,35.08-256.52,145.44-23.66,88.31,14.47,178.82,88.04,226.87,9.68,4.54,24.44,2.16,25.86-3.13,1.27-4.76,4.27-15.45,8.62-32.18-56.44-15.13-62.62-47.14-62.62-47.14-3-25.57-11.87-32.89-11.87-32.89-15.11-17.35,5.72-15.85,5.72-15.85,19.99,6.86,27.07,28.8,27.07,28.8,9.95,35.36,40.34,34.07,53.27,32.06,5.3-12.43,18.24-11.9,23.67-32.17-64.88-17.39-88.95-58.98-74.42-113.24,5.84-21.81,18.97-39.03,35.69-49.53-0.75-5.61-2.29-27.8,16.16-52.36,0,0,18.09.73,49.89,36.99,17.38-.11,28.18.98,45.45,5.52,17.23,4.71,26.48,8.99,41.55,17.8,45.65-15.48,61.67-7.09,61.67-7.09,3.69,30.49-8.73,48.94-12.16,53.44,9.24,17.45,11.95,38.91,6.1,60.73-14.59,54.47-56.61,77.93-120.63,60.77-5.28,19.71,8.2,34.27,3.21,52.92-6.7,24.98-13.07,48.76-14.82,55.32-1.44,5.35,2.61,12.75,13.43,13.59,87.69-4.88,173.5-62.11,197.15-150.41C2166.58,1846.25,2099.64,1732.4,1987.51,1702.34Z" transform="translate(-1724.03 -1695)"/></svg>