<svg xmlns="http://www.w3.org/2000/svg" width="25" height="24" viewBox="0 0 25 24"><defs><style>.cls-1{fill:#9e3621;fill-rule:evenodd}</style></defs><path id="GH.svg" class="cls-1" d="M956.492,1967.99a12.281,12.281,0,0,0-3.951,23.98,1.327,1.327,0,0,0,1.438-.58c0-.29.008-0.95,0-1.98-3.476,0-4.323-1.74-4.323-1.74a3.1,3.1,0,0,0-1.188-1.71c-1.136-.76.085-0.99,0.085-0.99a2.866,2.866,0,0,1,2,1.23,2.585,2.585,0,0,0,3.554,1.02c0.113-.79.865-0.96,0.865-2.21-4,0-6.019-2.02-6.019-5.36a4.945,4.945,0,0,1,1.288-3.39,4.356,4.356,0,0,1,.123-3.26s1.051-.23,3.436,1.36a8.99,8.99,0,0,1,2.7-.38,8.78,8.78,0,0,1,2.661.38c2.384-1.59,3.434-1.36,3.434-1.36a4.375,4.375,0,0,1,.124,3.26,4.943,4.943,0,0,1,1.285,3.39c0,3.36-2.053,5.35-6,5.35,0,1.21,1,1.84,1,2.99v3.41a0.721,0.721,0,0,0,.981.57c4.963-1.63,9.012-6.24,9.012-11.67A12.407,12.407,0,0,0,956.492,1967.99Z" transform="translate(-944 -1968)"/></svg>