<svg id="Control_Panell" data-name="Control Panell" xmlns="http://www.w3.org/2000/svg" width="80" height="80" viewBox="0 0 80 80">
  <metadata><?xpacket begin="﻿" id="W5M0MpCehiHzreSzNTczkc9d"?>
<x:xmpmeta xmlns:x="adobe:ns:meta/" x:xmptk="Adobe XMP Core 5.6-c138 79.159824, 2016/09/14-01:09:01        ">
   <rdf:RDF xmlns:rdf="http://www.w3.org/1999/02/22-rdf-syntax-ns#">
      <rdf:Description rdf:about=""/>
   </rdf:RDF>
</x:xmpmeta>
                                                                                                    
                                                                                                    
                                                                                                    
                                                                                                    
                                                                                                    
                                                                                                    
                                                                                                    
                                                                                                    
                                                                                                    
                                                                                                    
                                                                                                    
                                                                                                    
                                                                                                    
                                                                                                    
                                                                                                    
                                                                                                    
                                                                                                    
                                                                                                    
                                                                                                    
                                                                                                    
                           
<?xpacket end="w"?></metadata>
<defs>
    <style>
      .cls-1 {
        fill: #bb241d;
      }

      .cls-2 {
        fill: #fff;
        fill-rule: evenodd;
      }
    </style>
  </defs>
  <rect id="Прямоугольник_1642" data-name="Прямоугольник 1642" class="cls-1" width="80" height="80" rx="3" ry="3"/>
  <path id="Browser-icon.svg" class="cls-2" d="M917,2894H869a3,3,0,0,0-3,3v32a3,3,0,0,0,3,3h48a3,3,0,0,0,3-3v-32A3,3,0,0,0,917,2894Zm-48,2h48a1,1,0,0,1,1,1v4H868v-4A1,1,0,0,1,869,2896Zm-1,33v-26h8v27h-7A1,1,0,0,1,868,2929Zm49,1H878v-27h40v26A1,1,0,0,1,917,2930Z" transform="translate(-853 -2873)"/>
</svg>
