<svg id="Tools" xmlns="http://www.w3.org/2000/svg" width="80" height="80" viewBox="0 0 80 80">
  <metadata><?xpacket begin="﻿" id="W5M0MpCehiHzreSzNTczkc9d"?>
<x:xmpmeta xmlns:x="adobe:ns:meta/" x:xmptk="Adobe XMP Core 5.6-c138 79.159824, 2016/09/14-01:09:01        ">
   <rdf:RDF xmlns:rdf="http://www.w3.org/1999/02/22-rdf-syntax-ns#">
      <rdf:Description rdf:about=""/>
   </rdf:RDF>
</x:xmpmeta>
                                                                                                    
                                                                                                    
                                                                                                    
                                                                                                    
                                                                                                    
                                                                                                    
                                                                                                    
                                                                                                    
                                                                                                    
                                                                                                    
                                                                                                    
                                                                                                    
                                                                                                    
                                                                                                    
                                                                                                    
                                                                                                    
                                                                                                    
                                                                                                    
                                                                                                    
                                                                                                    
                           
<?xpacket end="w"?></metadata>
<defs>
    <style>
      .cls-1 {
        fill: #bb241d;
      }

      .cls-2 {
        fill: #fff;
        fill-rule: evenodd;
      }
    </style>
  </defs>
  <rect id="Прямоугольник_1642" data-name="Прямоугольник 1642" class="cls-1" width="80" height="80" rx="3" ry="3"/>
  <path id="Tool-Icon.svg" class="cls-2" d="M1303.86,2898a3.983,3.983,0,0,0-7.72,0H1291v2h5.14a3.983,3.983,0,0,0,7.72,0H1335v-2h-31.14Zm-3.86,3a2,2,0,1,1,2-2A2.006,2.006,0,0,1,1300,2901Zm-9,25v2h5v-2h-5Zm36-17a4,4,0,0,0-3.86,3H1291v2h32.14a3.983,3.983,0,0,0,7.72,0H1335v-2h-4.14A4,4,0,0,0,1327,2909Zm0,6a2,2,0,1,1,2-2A2.006,2.006,0,0,1,1327,2915Zm-27,8a4,4,0,1,0,3.86,5H1335v-2h-31.14A4,4,0,0,0,1300,2923Zm0,6a2,2,0,1,1,2-2A2.006,2.006,0,0,1,1300,2929Z" transform="translate(-1273 -2873)"/>
</svg>
