<svg xmlns="http://www.w3.org/2000/svg" width="74.38" height="69.91" viewBox="0 0 74.38 69.91"><defs><style>.cls-1{fill:#fff;fill-rule:evenodd}</style></defs><path id="Key-Icon.svg" class="cls-1" d="M988.06 3241.81a20.91 20.91 0 1 1 5.749-41.03l19.551-19.41a5.694 5.694 0 0 1 2.69-1.46l7.67-1.81a6.17 6.17 0 0 1 .62-.07 5.493 5.493 0 0 1 4.01 1.38 5.412 5.412 0 0 1 1.85 3.79l.03 9.89-.01.04a6.133 6.133 0 0 1-1.79 3.98l-19.74 19.6a20.841 20.841 0 0 1-20.63 25.1zm0-39.83a18.921 18.921 0 1 0 19.06 18.92 18.728 18.728 0 0 0-.51-4.28l-.12-.54 20.52-20.37a4.234 4.234 0 0 0 1.21-2.68l-.02-9.77a3.532 3.532 0 0 0-3.74-3.24c-.11.01-.23.02-.35.04l-7.6 1.79a3.754 3.754 0 0 0-1.74.94l-20.4 20.24-.581-.18a19.172 19.172 0 0 0-5.729-.87zm-6.019 28.88a4.98 4.98 0 1 1 5.016-4.98 5.008 5.008 0 0 1-5.016 4.98zm0-7.97a2.99 2.99 0 1 0 3.01 2.99 3 3 0 0 0-3.01-2.99zm22.2-20.1a1.005 1.005 0 0 1-.71-1.71l14.92-14.74a1.008 1.008 0 0 1 1.42 0 1 1 0 0 1 0 1.41l-14.92 14.74a.992.992 0 0 1-.711.3zm-4.877 45.16a15.931 15.931 0 0 1-7.981-2.14 1 1 0 1 1 1.008-1.72 14.014 14.014 0 0 0 19.05-5.01 13.53 13.53 0 0 0 1.24-2.87l.16-.54 21.04-5.53a2.879 2.879 0 0 0 1.64-1.18l3.63-6.25a2.354 2.354 0 0 0-1.12-3.11c-.06-.03-.13-.06-.2-.09l-5.57-1.67a2.536 2.536 0 0 0-1.34-.03l-18.07 4.77a1 1 0 1 1-.52-1.93l18.09-4.77a4.619 4.619 0 0 1 2.42.05l5.63 1.7a3.492 3.492 0 0 1 .45.18 4.357 4.357 0 0 1 2 5.84l-3.7 6.36a4.9 4.9 0 0 1-2.82 2.06l-19.97 5.25a15.19 15.19 0 0 1-1.25 2.76 15.989 15.989 0 0 1-13.818 7.87zm15.787-20.08a1 1 0 0 1-.26-1.96l15-3.95a1 1 0 0 1 1.22.7.982.982 0 0 1-.71 1.22l-15 3.96a1.068 1.068 0 0 1-.251.03z" transform="translate(-967 -3178.03)"/></svg>