<svg xmlns="http://www.w3.org/2000/svg" width="144.87" height="46.87" viewBox="0 0 144.87 46.87"><defs><style>.cls-1{fill:#fff;fill-rule:evenodd}</style></defs><path id="logo" class="cls-1" d="M2970.02 3214.29l-.6.39c-.03.04-1.28 1.29-1.28 1.29l.46.46-.54.54 1.02 1.02-.53.54-1.02-1.02-.54.53 1.02 1.03-.54.53-1.02-1.02-.54.54 1.02 1.02-.53.54-1.02-1.02-.54.53 1.02 1.02-.54.54-1.02-1.02-.72.72 1.03 1.02-.54.53-1.02-1.02-4.21 4.21-3.09-3.1-1.91.97 2.63 2.63-4.5 4.5a33.1 33.1 0 0 0-17.23.07l-4.48-4.46 2.7-2.7-1.91-.97-3.08 3.06-4.23-4.21-1.02 1.02-.54-.53 1.02-1.02-.72-.72-1.02 1.02-.54-.54 1.03-1.02-.54-.53-1.02 1.02-.54-.54 1.02-1.02-.54-.54-1 1.04-.54-.54 1.02-1.02-.53-.53-1.02 1.02-.54-.54 1.02-1.02-.54-.54.47-.46-1.24-1.24-.54-.54a2.31 2.31 0 0 0-2.2.52 1.891 1.891 0 0 0-.39 2.1l1.66 1.88.45-.45 9.73 9.76-2.76 2.75.97 1.92 1.77-1.77 4.91 4.9v9.98a25.233 25.233 0 0 0 1.79 4.51l-6.38 6.37-.12 3.81h.46l-.01-3.49 6.3-6.23a22.668 22.668 0 0 0 2.81 4.05l-5.67 5.67h-3.91v.49h4.23l5.68-5.79a16.793 16.793 0 0 0 7.07 4.59 18.47 18.47 0 0 0 7.05-4.62l5.75 5.75 4.23.09v-.49h-3.93l-5.7-5.74a22.658 22.658 0 0 0 2.87-4.05l6.34 6.34-.01 3.42h.46l.02-3.76-6.54-6.45a35.136 35.136 0 0 0 1.86-4.15c0-3.24-.03-7.31-.07-10.26l5.04-5.03 1.84 1.84.97-1.91-2.76-2.76 9.75-9.74.44.45 1.78-1.78a2.519 2.519 0 0 0-.56-2.23 1.885 1.885 0 0 0-2.09-.41zm-38.99 18.19v2.63l-4.55-4.55 3.42-3.42 4.26 4.26a27.674 27.674 0 0 0-3.13 1.08zm12.25 24.59c-4.47-1.43-8.08-5.44-9.89-11.56v-11.39s9.7-4.51 19.82 0c0 1.6.04 7.59.04 11.64-2.03 5.42-4.73 9.36-9.97 11.31zm12.3-21.93c-.02-1.18-.02-2.11-.02-2.66a29.135 29.135 0 0 0-3.05-1.15l4.3-4.3 3.42 3.42-4.65 4.69zm-10.54 8.87a2.831 2.831 0 0 0 1.11-2.15 2.74 2.74 0 1 0-5.48 0 2.711 2.711 0 0 0 1.11 2.15c-.09.62-.36 2.29-.57 3.47a.564.564 0 0 0 .1.41.51.51 0 0 0 .38.18l1.7-.02 1.72.02a.5.5 0 0 0 .49-.59c-.2-1.16-.49-2.85-.56-3.47zm-.52 3.06h-2.26c.59-3.44.58-3.46.34-3.67a.435.435 0 0 0-.07-.06 1.794 1.794 0 0 1-.89-1.48 1.755 1.755 0 1 1 3.51 0 1.782 1.782 0 0 1-.9 1.48.435.435 0 0 0-.07.06c-.23.23-.25.23.34 3.67zm59.94 3.21h-1.4a1.41 1.41 0 0 1 0-2.82h2.89v-1.31h-3.05a2.674 2.674 0 0 0-2.65 2.71 2.733 2.733 0 0 0 2.65 2.77h1.32a1.421 1.421 0 1 1 0 2.84h-3.45v1.39h3.71a2.791 2.791 0 0 0-.02-5.58zm5.74.89h3.99v-1.33h-3.99v-2.35h4.18v-1.36h-5.58v9.73h5.66v-1.39h-4.26v-3.3zm5.58-.16a4.96 4.96 0 0 0 4.9 5.02 5.072 5.072 0 0 0 1.7-.31v-1.58a3.213 3.213 0 0 1-1.7.49 3.659 3.659 0 0 1 0-7.3 3.213 3.213 0 0 1 1.7.49v-1.59a4.835 4.835 0 0 0-1.7-.31 5.034 5.034 0 0 0-4.9 5.09zm13.71 1.75a1.9 1.9 0 1 1-3.79 0v-6.63h-1.39v6.63a3.28 3.28 0 1 0 6.56 0v-6.63h-1.38v6.63zm10.22-3.18a3.437 3.437 0 0 0-3.6-3.45h-3.09v9.73h1.4v-2.85h1.69a2.373 2.373 0 0 1 2.18 2.44v.41h1.42v-.41a3.356 3.356 0 0 0-1.6-3.07 3.221 3.221 0 0 0 1.6-2.8zm-3.43 2.18h-1.86v-4.38h1.86a2.2 2.2 0 0 1 0 4.38zm5.48 4.09h1.39v-9.73h-1.39v9.73zm3-8.36h2.37v8.37h1.39v-8.37h2.37v-1.36h-6.12v1.36h-.01zm12.69-1.36l-2.1 4.22-2.09-4.22h-1.55l2.95 5.63v4.1h1.39v-4.1l2.95-5.63h-1.55zm-54.17-20.86h-2.61v18.2h2.61v-18.2zm13.47 18.22h2.66v-.76a6.308 6.308 0 0 0-3-5.74 5.981 5.981 0 0 0 3-5.25 6.425 6.425 0 0 0-6.72-6.45h-5.81v18.2h2.63v-5.33h3.18c2.61 0 4.06 2.57 4.06 4.57v.76zm-3.77-7.68h-3.47v-8.19h3.48a3.97 3.97 0 0 1 3.71 4.1 4.03 4.03 0 0 1-3.72 4.09zm17.44-2.84v2.44h6.6a6.019 6.019 0 0 1-6.37 5.8 6.847 6.847 0 0 1 0-13.66 6.257 6.257 0 0 1 5.16 2.86c0 .03 2.18-1.69 2.18-1.69a9.142 9.142 0 0 0-7.34-3.78 9.433 9.433 0 0 0 0 18.86 9.12 9.12 0 0 0 9.17-9.42 11.089 11.089 0 0 0-.09-1.43h-9.31v.02zm14.77-7.7h-2.61v18.2h2.61v-18.2zm13.5 15.61h-7.32v-15.61h-2.61v18.2h9.93v-2.59zm-72.22 6.09l-8.2-21.7h-3.8l12.03 30.23 12.03-30.23h-3.58l-8.48 21.7z" transform="translate(-2914.13 -3214.13)"/></svg>