<svg xmlns="http://www.w3.org/2000/svg" width="62" height="44" viewBox="0 0 62 44">
  <defs>
    <style>
      .cls-1 {
        fill: #fff;
        fill-rule: evenodd;
      }
    </style>
  </defs>
  <path id="Cards-Icon.svg" class="cls-1" d="M1481.97,637h-48a4.008,4.008,0,0,1-4-4V603a4.008,4.008,0,0,1,4-4h48a4.01,4.01,0,0,1,4.01,4v30A4.01,4.01,0,0,1,1481.97,637Zm-48-36a2,2,0,0,0-2,2v30a2,2,0,0,0,2,2h48a2,2,0,0,0,2-2V603a2,2,0,0,0-2-2h-48Zm-6,30a4.008,4.008,0,0,1-4-4V597a4.008,4.008,0,0,1,4-4h48a4,4,0,0,1,4,4h-2a2,2,0,0,0-2-2h-48a2,2,0,0,0-2,2v30a2,2,0,0,0,2,2v2Z" transform="translate(-1423.97 -593)"/>
</svg>
