<svg xmlns="http://www.w3.org/2000/svg" width="83" height="44.031" viewBox="0 0 83 44.031">
  <defs>
    <style>
      .cls-1 {
        fill: #fff;
        fill-rule: evenodd;
      }
    </style>
  </defs>
  <path id="Accounts-Icon.svg" class="cls-1" d="M858,637h-2c0-7.368-9.784-9.8-13.99-10.759a1.127,1.127,0,0,1-.867-1.121v-2.04l0.208-.267a12.2,12.2,0,0,0,2.089-4.078l0.06-.2,0.139-.161a7.99,7.99,0,0,0,1.739-3.466c0.65-2.172.591-3.674-.163-4.661l-0.274-.359,0.037-.515c0.541-2.57,1.292-8.883-3.417-11.984l-1.01-.665,0.851-.855a2.158,2.158,0,0,0,.512-0.824c-2.354.211-6.663,0.49-9.112-.009a5.911,5.911,0,0,0-6.331,3.6l-0.219.534-0.578.076a3.723,3.723,0,0,0-2.423,1.351c-1.237,1.5-1.6,3.981-1.084,7.389,0.046,0.532.1,0.96,0.175,1.374l0.079,0.442-0.282.35c-1.013,1.317-.606,3.285-0.216,4.654a8.024,8.024,0,0,0,1.749,3.515l0.14,0.164,0.06,0.206a12.215,12.215,0,0,0,2.088,4.1l0.206,0.267v2.046a1.089,1.089,0,0,1-.849,1.083c-4.217,1-14.008,3.52-14.008,10.8h-2c0-8.063,9.007-11.079,14.858-12.564v-0.7A14.184,14.184,0,0,1,822,619.439a9.923,9.923,0,0,1-2.026-4.153c-0.469-1.638-.944-4.067.32-6-0.052-.345-0.092-0.7-0.123-1.075-0.594-3.917-.087-6.921,1.516-8.862a5.7,5.7,0,0,1,3.15-1.967,7.928,7.928,0,0,1,8.311-4.3,37.462,37.462,0,0,0,9.31-.083c0.137-.014.215-0.017,0.224-0.017a1.276,1.276,0,0,1,.862.29,1.309,1.309,0,0,1,.481.931,4.181,4.181,0,0,1-.52,2.148c4.577,3.719,4.081,9.991,3.512,13,0.975,1.542,1.057,3.507.294,6.045a9.839,9.839,0,0,1-2.013,4.089,14.135,14.135,0,0,1-2.157,4.26v0.726C848.045,625.679,858,628.59,858,637Zm-33.84-11.946a0.8,0.8,0,0,0,0,.12v-0.12Zm18.982,0.046v0.053A0.469,0.469,0,0,0,843.137,625.1ZM777,635.985h-2c0-5.508,4.609-10.151,13.7-12.409v-0.532a12.91,12.91,0,0,1-1.976-3.89,9.049,9.049,0,0,1-1.877-3.8c-0.434-1.494-.875-3.714.288-5.5-0.045-.3-0.081-0.616-0.108-0.948-0.553-3.588-.079-6.347,1.418-8.134a5.348,5.348,0,0,1,2.917-1.808,7.4,7.4,0,0,1,7.725-3.921,34.864,34.864,0,0,0,8.567-.077c0.131-.013.205-0.016,0.213-0.016a1.241,1.241,0,0,1,.835.274,1.284,1.284,0,0,1,.485.914,3.894,3.894,0,0,1-.451,1.942c4.175,3.4,3.74,9.072,3.217,11.835,0.9,1.428.972,3.233,0.261,5.55a9.041,9.041,0,0,1-1.862,3.738,12.892,12.892,0,0,1-1.976,3.858V623.6a35.649,35.649,0,0,1,5.838,1.914l-0.794,1.82a33.709,33.709,0,0,0-6.175-1.955,1.11,1.11,0,0,1-.873-1.1v-1.893l0.212-.269a10.945,10.945,0,0,0,1.907-3.677l0.062-.206,0.14-.162a7.168,7.168,0,0,0,1.585-3.114c0.593-1.946.544-3.283-.133-4.157l-0.28-.362,0.042-.513c0.5-2.319,1.184-8.014-3.112-10.8l-1.03-.669,0.871-.86a1.849,1.849,0,0,0,.4-0.581,35.061,35.061,0,0,1-8.3-.02,5.387,5.387,0,0,0-5.756,3.232l-0.223.529-0.575.073a3.374,3.374,0,0,0-2.188,1.2c-1.121,1.339-1.449,3.574-.977,6.646,0.04,0.46.088,0.853,0.161,1.246l0.08,0.443-0.282.351c-0.912,1.171-.541,2.928-0.186,4.151a7.158,7.158,0,0,0,1.592,3.162l0.144,0.164,0.061,0.208A10.951,10.951,0,0,0,790.5,622.1l0.21,0.268v1.894a1.088,1.088,0,0,1-.834,1.068C781.325,627.328,777,631.381,777,635.985Zm29.374-11.725v0Zm-17.675-.017a0.434,0.434,0,0,0,0,.051v-0.051Z" transform="translate(-775 -592.969)"/>
</svg>
