<svg xmlns="http://www.w3.org/2000/svg" width="49.97" height="53.969" viewBox="0 0 49.97 53.969">
  <defs>
    <style>
      .cls-1 {
        fill: #fff;
        fill-rule: evenodd;
      }
    </style>
  </defs>
  <path id="Apps-Icon.svg" class="cls-1" d="M1128.97,619a12.8,12.8,0,0,1-5.87-1.418l-16.36-9.536a4.334,4.334,0,0,1,0-8.069l16.31-9.511a12.947,12.947,0,0,1,11.83-.026l16.36,9.537a4.34,4.34,0,0,1,0,8.069l-16.31,9.511A13.056,13.056,0,0,1,1128.97,619Zm-21.22-17.295a2.391,2.391,0,0,0,0,4.613l16.31,9.511a10.9,10.9,0,0,0,9.91-.026l16.26-9.485a2.395,2.395,0,0,0,0-4.613l-16.31-9.511a10.9,10.9,0,0,0-9.91.026Zm21.22,29.3a12.813,12.813,0,0,1-5.87-1.418l-16.36-9.537a4.334,4.334,0,0,1,0-8.069,1,1,0,0,1,1.01,1.728,2.392,2.392,0,0,0,0,4.614l16.31,9.51a10.9,10.9,0,0,0,9.91-.026l16.26-9.485a2.395,2.395,0,0,0,0-4.613,1,1,0,0,1,1.01-1.728,4.34,4.34,0,0,1,0,8.068l-16.31,9.512A13.057,13.057,0,0,1,1128.97,631Zm0,12a12.812,12.812,0,0,1-5.87-1.417l-16.36-9.537a4.334,4.334,0,0,1,0-8.068,1,1,0,1,1,1.01,1.727,2.392,2.392,0,0,0,0,4.614l16.31,9.51a10.9,10.9,0,0,0,9.91-.026l16.26-9.485a2.395,2.395,0,0,0,0-4.613,1,1,0,1,1,1.01-1.727,4.339,4.339,0,0,1,0,8.067l-16.31,9.512A13.056,13.056,0,0,1,1128.97,643Z" transform="translate(-1104 -589.031)"/>
</svg>
