<svg xmlns="http://www.w3.org/2000/svg" viewBox="0 0 125 111.5"><defs><style>.cls-1{fill:#fff;}</style></defs><title>swift</title><g id="Слой_2" data-name="Слой 2"><g id="Layer_1" data-name="Layer 1"><path class="cls-1" d="M77,0c54.9,37.3,37.2,78.5,37.2,78.5s15.6,17.6,9.3,33c0,0-6.5-10.8-17.2-10.8-10.4,0-16.5,10.8-37.5,10.8-46.7,0-68.8-39-68.8-39,42,27.7,70.7,8.1,70.7,8.1C51.8,69.7,11.5,17.1,11.5,17.1,46.6,47,61.8,54.8,61.8,54.8c-9.1-7.5-34.5-44-34.5-44C47.6,31.4,88,60,88,60,99.5,28.4,77,0,77,0Z"/></g></g></svg>