<svg xmlns="http://www.w3.org/2000/svg" viewBox="0 0 125 63.4"><defs><style>.cls-1{fill:#fff;}</style></defs><title>php</title><g id="Слой_2" data-name="Слой 2"><g id="Layer_1" data-name="Layer 1"><path class="cls-1" d="M62.5,0C28,0,0,14.2,0,31.7S28,63.4,62.5,63.4,125,49.2,125,31.7,97,0,62.5,0ZM46.2,37.9a12,12,0,0,1-5,2.6c-1.8.6-4.1.5-7,.5H27.8L26,51.2H18.5l6.7-34.8H39.6c4.3,0,7.5,1.2,9.5,3.5s2.6,5.5,1.8,9.6a14.09,14.09,0,0,1-1.7,4.6A14.73,14.73,0,0,1,46.2,37.9Zm21.8,3,2.9-14.8c.3-1.7.2-3-.4-3.6s-1.8-1-3.7-1H60.9L57.1,40.9H49.7L56.4,7.1h7.4L62,16.3h6.6c4.2,0,7,.8,8.6,2.3s2,3.4,1.4,6.7L75.5,40.9Zm41.2-11.4a14.09,14.09,0,0,1-1.7,4.6,15.73,15.73,0,0,1-3,3.8,12,12,0,0,1-5,2.6c-1.8.6-4.1.5-7,.5H86.1L84.3,51.2H76.8l6.7-34.8H97.9c4.3,0,7.5,1.2,9.5,3.5S110,25.4,109.2,29.5Zm-14-8H90.1L87.3,35.8h4.5c3,0,5.3-.3,6.7-1.4a8.42,8.42,0,0,0,3-5.5c.5-2.5.3-4.5-.7-5.6S98,21.5,95.2,21.5Zm-58.3,0H31.8L29,35.8h4.5c3,0,5.3-.3,6.7-1.4a8.42,8.42,0,0,0,3-5.5c.5-2.5.3-4.5-.7-5.6S39.7,21.5,36.9,21.5Z"/></g></g></svg>