<svg xmlns="http://www.w3.org/2000/svg" viewBox="0 0 136.46 162"><defs><style>.cls-1{fill:#fff;}</style></defs><title>objective-c</title><g id="Слой_2" data-name="Слой 2"><g id="Layer_1" data-name="Layer 1"><path class="cls-1" d="M133.6,126.25a88.08,88.08,0,0,1-8.71,15.66q-6.87,9.79-11.22,13.56-6.72,6.18-14.42,6.35c-3.69,0-8.14-1.05-13.32-3.18a38.22,38.22,0,0,0-14.34-3.17,39.52,39.52,0,0,0-14.75,3.17Q49,161.84,44.1,162q-7.39.32-14.75-6.52-4.7-4.09-11.74-14A97.1,97.1,0,0,1,5.21,116.78,90.26,90.26,0,0,1,0,87.4Q0,71.12,7,59.34A41.33,41.33,0,0,1,21.8,44.41a39.69,39.69,0,0,1,19.95-5.63c3.92,0,9,1.21,15.43,3.59S67.62,46,69.41,46c1.34,0,5.88-1.42,13.57-4.24q10.91-3.93,18.44-3.28,20.45,1.65,30.68,16.15-18.29,11.08-18.1,31a34.2,34.2,0,0,0,11.23,25.77,36.9,36.9,0,0,0,11.22,7.36q-1.35,3.92-2.86,7.51Zm-31.26-123q0,12.15-8.86,22.67C86.36,34.23,77.75,39,68.41,38.29a25.22,25.22,0,0,1-.19-3.07c0-7.78,3.39-16.1,9.4-22.91a36.19,36.19,0,0,1,11.45-8.6A34.14,34.14,0,0,1,102.17,0a29.43,29.43,0,0,1,.17,3.24Z"/></g></g></svg>