<svg xmlns="http://www.w3.org/2000/svg" viewBox="0 0 109.5 123.5"><defs><style>.cls-1{fill:#fff;}</style></defs><title>js</title><g id="Слой_2" data-name="Слой 2"><g id="Layer_1" data-name="Layer 1"><path class="cls-1" d="M105,27.4,59.8,1.2a9.8,9.8,0,0,0-9.4,0L4.9,27.4A9.84,9.84,0,0,0,0,35.7V88a9.73,9.73,0,0,0,5,8.3l12,6.8c5.8,2.8,7.3,2.8,10,2.8,8.5,0,12.9-5.2,12.9-14.1V40.1c0-.7.5-1.8-.3-1.8H33.9c-.7,0-2.2,1.1-2.2,1.8V91.7c0,4-3.7,7.9-10.4,4.6L8.9,89.1a1.39,1.39,0,0,1-.7-1.2V35.6a1.59,1.59,0,0,1,.9-1.2L54.5,8.3a1.71,1.71,0,0,1,1.4,0l44.9,26.1c.4.3.4.7.4,1.2V87.9c0,.5.1,1-.3,1.2L55.8,115.2a1.48,1.48,0,0,1-1.3,0l-11.6-6.9a1.1,1.1,0,0,0-1.1-.1,28.91,28.91,0,0,1-6.8,3.1c-.7.3-1.8.7.4,2l15.1,8.9a9.85,9.85,0,0,0,4.8,1.3,9.12,9.12,0,0,0,4.8-1.3l45-26.1a9.39,9.39,0,0,0,4.4-8.3V35.6A9.52,9.52,0,0,0,105,27.4ZM69.2,79.6c-12,0-14.6-3.3-15.5-9.3-.1-.6-.6-1.4-1.3-1.4H46.5c-.7,0-1.3.9-1.3,1.6,0,7.6,4.2,16.9,24,16.9,14.3,0,22.6-5.6,22.6-15.4S85.2,59.6,71.3,57.8C57.2,55.9,55.8,55,55.8,51.7c0-2.7,1.2-6.3,11.6-6.3,9.3,0,12.7,2,14.1,8.3a1.3,1.3,0,0,0,1.3,1h5.9a1.28,1.28,0,0,0,1-.4,1.21,1.21,0,0,0,.3-1c-.9-10.8-8.1-15.8-22.6-15.8-12.9,0-20.6,5.5-20.6,14.6,0,9.9,7.7,12.7,20.1,13.9,14.8,1.5,16,3.6,16,6.5C82.8,77.5,78.8,79.6,69.2,79.6Z"/></g></g></svg>