<svg xmlns="http://www.w3.org/2000/svg" viewBox="0 0 124 118.9"><defs><style>.cls-1{fill:#fff;}</style></defs><title>ruby</title><g id="Слой_2" data-name="Слой 2"><g id="Layer_1" data-name="Layer 1"><path class="cls-1" d="M34,106.8c27.5,3.8,54.4,7.4,82,11.2-9.4-15.6-18.5-30.8-27.7-46.1Zm89.7-86.4c-2.4,3.6-4.8,7.3-7.3,10.9L91.5,68.8c-.5.7-1.1,1.2-.4,2.3q12,19.8,23.9,39.8a48.34,48.34,0,0,0,4.2,6.2L124,20.5ZM14.3,61.7A1.57,1.57,0,0,0,16,62c7.7-3.8,15.4-7.5,22.9-11.6,2.5-1.3,4.3-3.7,6.5-5.7,7-6.4,14-12.8,21-19.3a7.41,7.41,0,0,0,1.2-1.3c2.5-4.9,5-9.8,7.5-14.9-3-1.1-5.9-2.3-8.8-3.3a1.9,1.9,0,0,0-1.4.4c-6.8,3.8-13.6,7.4-20.2,11.5-3.3,2.1-5.9,5.1-8.8,7.7C31.2,29.8,26.6,34,22,38.4a30.92,30.92,0,0,0-3.3,3.9c-3.1,4.6-6.2,9.2-9.4,14A43.2,43.2,0,0,0,14.3,61.7Zm28.1-6.3c-3.8,16.2-7.6,32.2-11.6,48.8,18.4-11.9,36.4-23.5,54.3-35C70.9,64.7,56.7,60.1,42.4,55.4ZM119,20.6c-15.6,2.6-30.8,5.1-46.2,7.7C78,41.1,83.2,53.5,88.5,66.4,98.7,51,108.7,36,119,20.6ZM43,52.1c14,4.5,27.8,9,41.9,13.6C79.7,52.9,74.6,40.6,69.4,28,60.6,36.1,51.9,44,43,52.1Zm-28.2,19C9.8,83,5,94.5.1,106.1c9.4-.3,18.5-.5,27.9-.8C23.7,94,19.3,82.8,14.8,71.1ZM28.4,97.2l.3-.1c3.4-13.9,6.8-27.8,10.2-42.3-7.6,4-14.9,7.8-22.4,11.6C20.4,76.5,24.4,86.9,28.4,97.2Zm85-78.9c-4.5-1.2-8.9-2.4-13.4-3.5L80.8,9.7c-.8-.2-1.4-.4-1.9.6-2.3,4.6-4.6,9.2-6.9,13.9-.1.1-.1.3-.1.7,13.9-2.1,27.7-4.2,41.5-6.3C113.3,18.6,113.4,18.3,113.4,18.3ZM87.5,7.8l36.3,10.1c-2.1-5.9-4-11.4-6-17.1L87.5,7.5Zm-56,101.7c-4.5-.5-9.1,0-13.7,0l-11.2.3a1.58,1.58,0,0,0-1.2.5c31,2.9,62,5.7,93,8.6l.1-.4c-9.9-1.4-19.9-2.7-29.8-4.1C56.3,112.8,43.9,110.9,31.5,109.5ZM.8,95.5c4-9.3,8-18.5,12-27.8a1.72,1.72,0,0,0-.4-2.3c-1.7-1.6-3.2-3.3-5.1-5.2C4.8,72.4,2.4,84.3,0,96.3l.3.1A4.05,4.05,0,0,1,.8,95.5ZM79.5,5.3C86.2,3.6,93.1,2.2,99.9.7a6.47,6.47,0,0,0,1.3-.4l-.1-.3C91.6,1.3,82,2.6,71.9,4,74.7,5.2,76.8,6,79.5,5.3Z"/></g></g></svg>