<svg xmlns="http://www.w3.org/2000/svg" xmlns:xlink="http://www.w3.org/1999/xlink" viewBox="0 0 254.4 101.6"><defs><style>.cls-1{fill:url(#Безымянный_градиент_19);}.cls-2{fill:url(#Безымянный_градиент_2);}.cls-3{fill:#14559a;}.cls-4{fill:url(#Безымянный_градиент_3);}.cls-5{fill:#3092c4;}.cls-6{fill:#1969bc;}.cls-7{fill:url(#Безымянный_градиент_4);}.cls-8{fill:url(#Безымянный_градиент_5);}.cls-9{fill:url(#Безымянный_градиент_6);}.cls-10{fill:#2b74b1;}.cls-11{fill:#125a9e;}.cls-12{fill:url(#Безымянный_градиент_7);}.cls-13{fill:url(#Безымянный_градиент_8);}.cls-14{fill:#0d82ca;}.cls-15{fill:url(#Безымянный_градиент_9);}.cls-16{fill:#127bca;}.cls-17{fill:url(#Безымянный_градиент_10);}.cls-18{fill:url(#Безымянный_градиент_11);}.cls-19{fill:#05a1e6;}.cls-20{fill:url(#Безымянный_градиент_12);}.cls-21{fill:url(#Безымянный_градиент_13);}.cls-22{fill:url(#Безымянный_градиент_14);}.cls-23{fill:#079ae1;}.cls-24{fill:#1e5cb3;}.cls-25{fill:#1d60b5;}.cls-26{fill:#175fab;}.cls-27{fill:url(#Безымянный_градиент_15);}.cls-28{fill:#7dcbec;}.cls-29{fill:#5ec5ed;}.cls-30{fill:url(#Безымянный_градиент_16);}.cls-31{fill:url(#Безымянный_градиент_17);}.cls-32{fill:url(#Безымянный_градиент_18);}</style><linearGradient id="Безымянный_градиент_19" x1="45.76" y1="-41.75" x2="45.76" y2="-40.25" gradientTransform="translate(-1976.02 3396.92) scale(45.61 81.33)" gradientUnits="userSpaceOnUse"><stop offset="0" stop-color="#0994dc"/><stop offset="0.35" stop-color="#66cef5"/><stop offset="0.85" stop-color="#127bca"/><stop offset="1" stop-color="#127bca"/></linearGradient><linearGradient id="Безымянный_градиент_2" x1="45.81" y1="-41.86" x2="45.81" y2="-40.37" gradientTransform="translate(-2077.24 3489.68) scale(47.87 83.41)" gradientUnits="userSpaceOnUse"><stop offset="0" stop-color="#0e76bc"/><stop offset="0.36" stop-color="#36aee8"/><stop offset="0.85" stop-color="#00adef"/><stop offset="1" stop-color="#00adef"/></linearGradient><linearGradient id="Безымянный_градиент_3" x1="45.76" y1="-40.61" x2="45.76" y2="-41.78" gradientTransform="translate(-1939.12 3527.42) scale(45.45 84.5)" gradientUnits="userSpaceOnUse"><stop offset="0" stop-color="#1c63b7"/><stop offset="0.5" stop-color="#33bdf2"/><stop offset="1" stop-color="#33bdf2" stop-opacity="0.42"/></linearGradient><linearGradient id="Безымянный_градиент_4" x1="45.75" y1="-42.02" x2="45.75" y2="-40.53" gradientTransform="translate(-1924.96 3624.54) scale(45.01 86.6)" gradientUnits="userSpaceOnUse"><stop offset="0" stop-color="#166ab8"/><stop offset="0.4" stop-color="#36aee8"/><stop offset="0.85" stop-color="#0798dd"/><stop offset="1" stop-color="#0798dd"/></linearGradient><linearGradient id="Безымянный_градиент_5" x1="45.99" y1="-42.27" x2="45.99" y2="-40.78" gradientTransform="translate(-2559.47 3878.72) scale(58.35 92.08)" gradientUnits="userSpaceOnUse"><stop offset="0" stop-color="#124379"/><stop offset="0.39" stop-color="#1487cb"/><stop offset="0.78" stop-color="#165197"/><stop offset="1" stop-color="#165197"/></linearGradient><linearGradient id="Безымянный_градиент_6" x1="43.87" y1="-33.75" x2="44.87" y2="-33.75" gradientTransform="translate(-782.84 1072.23) scale(19.42 30.92)" gradientUnits="userSpaceOnUse"><stop offset="0" stop-color="#33bdf2" stop-opacity="0.7"/><stop offset="1" stop-color="#1dacd8"/></linearGradient><linearGradient id="Безымянный_градиент_7" x1="46.2" y1="-41.39" x2="46.2" y2="-42.37" gradientTransform="translate(-3441.85 4177.87) scale(79.14 98.68)" gradientUnits="userSpaceOnUse"><stop offset="0" stop-color="#136ab4"/><stop offset="0.6" stop-color="#59caf5" stop-opacity="0.55"/><stop offset="1" stop-color="#59caf5" stop-opacity="0.24"/></linearGradient><linearGradient id="Безымянный_градиент_8" x1="45.64" y1="-41.85" x2="46.64" y2="-41.85" gradientTransform="translate(-3287.36 4202.21) scale(72.02 99.16)" gradientUnits="userSpaceOnUse"><stop offset="0" stop-color="#05a1e6" stop-opacity="0.25"/><stop offset="1" stop-color="#05a1e6"/></linearGradient><linearGradient id="Безымянный_градиент_9" x1="45.84" y1="-39.85" x2="45.84" y2="-41.19" gradientTransform="translate(-2208.42 3037.82) scale(49.05 73.82)" gradientUnits="userSpaceOnUse"><stop offset="0" stop-color="#318ed5"/><stop offset="1" stop-color="#38a7e4"/></linearGradient><linearGradient id="Безымянный_градиент_10" x1="45.76" y1="-38.74" x2="45.76" y2="-40.42" gradientTransform="translate(-2040.86 2309.43) scale(45.6 57.13)" gradientUnits="userSpaceOnUse"><stop offset="0" stop-color="#05a1e6"/><stop offset="1" stop-color="#05a1e6" stop-opacity="0.55"/></linearGradient><linearGradient id="Безымянный_градиент_11" x1="45.9" y1="-40.54" x2="45.9" y2="-41.54" gradientTransform="translate(-2359.35 3388.43) scale(52.52 81.09)" gradientUnits="userSpaceOnUse"><stop offset="0" stop-color="#1959a6"/><stop offset="0.5" stop-color="#05a1e6"/><stop offset="0.92" stop-color="#7ec5ea"/><stop offset="1" stop-color="#7ec5ea"/></linearGradient><linearGradient id="Безымянный_градиент_12" x1="46.25" y1="-41.4" x2="46.04" y2="-42.29" gradientTransform="translate(-3306.74 4195.17) scale(72.68 99)" gradientUnits="userSpaceOnUse"><stop offset="0" stop-color="#165096"/><stop offset="1" stop-color="#0d82ca"/></linearGradient><linearGradient id="Безымянный_градиент_13" x1="45.36" y1="-38.89" x2="45.36" y2="-39.7" gradientTransform="translate(-1287.95 2271.96) scale(32.77 57.23)" gradientUnits="userSpaceOnUse"><stop offset="0" stop-color="#05a1e6"/><stop offset="0.87" stop-color="#0495d6"/><stop offset="1" stop-color="#0495d6"/></linearGradient><linearGradient id="Безымянный_градиент_14" x1="46.17" y1="-42.29" x2="45.86" y2="-41.19" gradientTransform="translate(-2562.68 4069.45) scale(60.27 96.32)" gradientUnits="userSpaceOnUse"><stop offset="0" stop-color="#38a7e4" stop-opacity="0.33"/><stop offset="0.96" stop-color="#0e88d3"/><stop offset="1" stop-color="#0e88d3"/></linearGradient><linearGradient id="Безымянный_градиент_15" x1="46.13" y1="-42.32" x2="46.13" y2="-41.3" gradientTransform="translate(-3038.81 4151.72) scale(70.28 98.11)" gradientUnits="userSpaceOnUse"><stop offset="0" stop-color="#168cd4"/><stop offset="0.5" stop-color="#1c87cc"/><stop offset="1" stop-color="#154b8d"/></linearGradient><linearGradient id="Безымянный_градиент_16" x1="45.01" y1="-129.72" x2="45.72" y2="-131.98" gradientTransform="matrix(32.46, 0, 0, -4.25, -1385.76, -553.5)" gradientUnits="userSpaceOnUse"><stop offset="0" stop-color="#97d6ee"/><stop offset="0.7" stop-color="#55c1ea"/><stop offset="1" stop-color="#55c1ea"/></linearGradient><linearGradient id="Безымянный_градиент_17" x1="44.59" y1="-94.65" x2="45.27" y2="-93.55" gradientTransform="matrix(26.47, 0, 0, -7.48, -1091.62, -699.16)" gradientUnits="userSpaceOnUse"><stop offset="0" stop-color="#7accec"/><stop offset="1" stop-color="#3fb7ed"/></linearGradient><linearGradient id="Безымянный_градиент_18" x1="45.89" y1="-41.45" x2="45.89" y2="-40.23" gradientTransform="translate(-2198.89 3347.49) scale(52.04 80.64)" gradientUnits="userSpaceOnUse"><stop offset="0" stop-color="#1da7e7"/><stop offset="1" stop-color="#37abe7" stop-opacity="0"/></linearGradient></defs><title>dotnet</title><g id="Слой_2" data-name="Слой 2"><g id="Layer_1" data-name="Layer 1"><path class="cls-1" d="M88.4,20.7c9.2,28,12.6,78,39.4,78h0a33.35,33.35,0,0,0,6.2-.6h0C109.6,92.4,106.8,43,91.9,17.4h0c-1.2,1.1-2.3,2.2-3.5,3.3"/><path class="cls-2" d="M91.9,17.4C106.8,43,109.7,92.5,134,98.1h0a46,46,0,0,0,5.8-1.6h0C117.9,85.8,111.9,37.8,95,14.6h0l-3.1,2.8"/><path class="cls-3" d="M113.3,2.2a33.35,33.35,0,0,0-6.2.6A48.14,48.14,0,0,0,90.6,9.7a36.18,36.18,0,0,1,4.3,5.1A57.32,57.32,0,0,1,111.7,4.6,29.49,29.49,0,0,1,118,2.9a14.05,14.05,0,0,0-4.7-.7"/><path class="cls-4" d="M156.8,86.7a88.51,88.51,0,0,0,6.7-5.9c-9.3-27.9-12.6-78.6-39.6-78.6a37.85,37.85,0,0,0-5.8.5c24.6,6.2,27.7,59.7,38.7,84"/><path class="cls-5" d="M118.1,2.8a18.57,18.57,0,0,0-4.8-.6h10.6a28.56,28.56,0,0,0-5.8.6"/><path class="cls-6" d="M156.4,92.7a23.52,23.52,0,0,1-3-3.3,52.74,52.74,0,0,1-13.6,7.2,18,18,0,0,0,5.1,1.7,20.24,20.24,0,0,0,4.3.4c5,0,9-.6,12.4-2.2a23.92,23.92,0,0,1-5.2-3.8"/><path class="cls-7" d="M111.8,4.5c22,11.5,23.9,63.7,41.5,84.8h0c1.2-.8,2.3-1.7,3.5-2.6h0c-11-24.4-14.1-77.9-38.7-84h0a49.66,49.66,0,0,0-6.3,1.8"/><path class="cls-8" d="M95,14.8c16.9,23.1,22.9,71.1,44.8,81.9h0a57.89,57.89,0,0,0,13.6-7.2h0c-17.6-21.2-19.5-73.3-41.5-84.8h0c-5.7,1.9-11.3,5.4-16.9,10.1"/><path class="cls-9" d="M77.6,20.1c-2.6,6-5.3,13.8-8.6,24.1A179.87,179.87,0,0,1,88.4,20.8a65.17,65.17,0,0,0-2.9-7.5,79.66,79.66,0,0,0-7.9,6.8"/><path class="cls-10" d="M87.9,11.5c-.8.6-1.6,1.1-2.3,1.7a78.7,78.7,0,0,1,2.9,7.5c1.2-1.1,2.3-2.3,3.5-3.3-1.4-2.1-2.7-4.1-4.1-5.9"/><path class="cls-11" d="M90.6,9.7c-.9.6-1.8,1.2-2.8,1.8a50.78,50.78,0,0,1,4,5.9c1-.9,2.1-1.8,3.1-2.7a34.34,34.34,0,0,0-4.3-5"/><path class="cls-12" d="M240.8.1c-12.5,48-38.5,86.6-60.3,96.3h0c-.4.2-.8.3-1.2.5-.1,0-.1,0-.1.1s-.2.1-.3.1-.1,0-.2.1-.4.1-.5.2a.35.35,0,0,0-.2.1c-.1,0-.2.1-.3.1s-.2.1-.3.1-.2,0-.2.1c-.2,0-.3.1-.5.1s-.1,0-.2.1-.2.1-.3.1-.1,0-.2.1-.2.1-.3.1-.3.1-.4.1a8.08,8.08,0,0,0,3.1.5c20.7,0,41.5-37.1,76-98.7L240.8.1Z"/><path class="cls-13" d="M64.5,4.1h0l.1-.1c.1,0,.2-.1.3-.1h.2c.1,0,.2-.1.4-.1h0c.3-.1.5-.2.8-.3h.1c.1,0,.2-.1.3-.1h.2c.1,0,.2-.1.3-.1h.1c.4-.1.8-.2,1.1-.3h.2a.37.37,0,0,0,.3-.1h.2a.37.37,0,0,0,.3-.1h.1c.2,0,.5-.1.7-.1h.1a.37.37,0,0,0,.3-.1h.7a1.7,1.7,0,0,0,.7-.1,16.2,16.2,0,0,0-2.2-.1C46.5,2.4,14.4,45.6,0,101.6H2.8c4.6-8.2,8.8-16.1,12.6-23.4C25.6,38.3,46.2,11.3,64.5,4.1"/><path class="cls-14" d="M77.6,20.1a95.59,95.59,0,0,1,7.9-6.8c-.6-1.3-1.2-2.5-1.9-3.7a47.08,47.08,0,0,0-6,10.5"/><path class="cls-14" d="M79.5,4.5a19.51,19.51,0,0,1,4.1,5.1,15.38,15.38,0,0,1,1.2-1.3,23.51,23.51,0,0,0-5.6-3.9.37.37,0,0,1,.3.1h0"/><path class="cls-15" d="M15.4,78C36.6,37.1,46.7,11.2,64.5,4.2h0C46.2,11.3,25.6,38.3,15.4,78"/><path class="cls-16" d="M84.8,8.3c-.4.4-.8.9-1.2,1.3a25.52,25.52,0,0,1,1.9,3.7c.8-.6,1.6-1.2,2.3-1.7a16,16,0,0,0-3-3.3"/><path class="cls-17" d="M25.1,101.2h-.9a2.2,2.2,0,0,0-.8.1h-.1c21.5-.6,31.3-11.4,36.2-27,3.7-11.8,6.7-21.8,9.4-30.2-9,12.7-18,27.8-27.1,44.7-4.3,8.2-11,11.6-16.7,12.4"/><path class="cls-18" d="M25.1,101.1h0c5.7-.7,12.4-4.1,16.8-12.3h0C51,71.9,60,56.8,69,44.1h0C72.3,33.8,75,26,77.6,20h0C59.7,37.1,41.7,65.5,25.1,101.1"/><path class="cls-19" d="M15.4,78Q9.7,89,2.8,101.4h8.1A216,216,0,0,1,15.4,78"/><path class="cls-20" d="M71.4,2.4h-.7a.37.37,0,0,0-.3.1h-.1c-.2,0-.5.1-.7.1h-.1a.37.37,0,0,0-.3.1H69a.37.37,0,0,0-.3.1h-.2c-.4.1-.8.2-1.1.3h-.1c-.1,0-.2.1-.3.1h-.2c-.1,0-.2.1-.3.1h-.1c-.3.1-.5.2-.8.3h0c-.1,0-.2.1-.4.1h0a.31.31,0,0,0-.2.1h0c-.1,0-.2.1-.3.1h0a.1.1,0,0,0-.1.1h0C46.8,11,36.8,36.9,15.5,77.8h0A202.16,202.16,0,0,0,11,101.2H23.5a2.2,2.2,0,0,0,.8-.1h.8C41.7,65.4,59.7,37.1,77.6,20h0a47.08,47.08,0,0,1,6-10.5h0a18,18,0,0,0-4.1-5.1h0c-.1,0-.2-.1-.3-.1h0a.35.35,0,0,1-.2-.1h0a.35.35,0,0,1-.2-.1h0c-.1,0-.2-.1-.3-.1h0c-.1,0-.1-.1-.2-.1h0c-.2-.1-.3-.1-.5-.2h0c-.1,0-.1,0-.2-.1h0c-.1,0-.2-.1-.4-.1h0c-.1,0-.1,0-.2-.1h0c-.2-.1-.3-.1-.5-.2h0c-.2-.1-.4-.1-.6-.2h-.1c-.2,0-.3-.1-.5-.1h-.1L74,2.6h-.1c-.2,0-.3-.1-.5-.1h-.1c-.2,0-.4-.1-.6-.1h-.1a.9.9,0,0,1-.5-.1h0a1.7,1.7,0,0,1-.7.1"/><path class="cls-21" d="M192.2,26.6c-4.1,13.1-7.4,23.9-10.3,32.8h0C193.1,44,204.2,24.6,214.7,2.2h0C202.4,6,195.9,14.9,192.2,26.6"/><path class="cls-22" d="M182.3,95.6a13,13,0,0,1-1.7.8c21.8-9.7,47.8-48.3,60.3-96.3h-2.6c-28.6,51.1-37.8,85.3-56,95.5"/><path class="cls-23" d="M168,91.3c4.7-5.8,8.6-15.6,13.9-31.9a162.55,162.55,0,0,1-18.3,21.4v.1A60.22,60.22,0,0,0,168,91.3"/><path class="cls-6" d="M168,91.3a18.54,18.54,0,0,1-5.2,4.6c-.4.2-.8.5-1.3.7a18.16,18.16,0,0,0,6.7,2.1h0c.4,0,.7.1,1.1.1h3.6a.9.9,0,0,0,.5-.1h.1c.2,0,.3-.1.5-.1h0c.3-.1.7-.1,1-.2-2.6-1.2-4.9-3.6-7-7.1"/><path class="cls-24" d="M127.8,98.8a35.5,35.5,0,0,0,12-2.2,18,18,0,0,0,5.1,1.7,20.24,20.24,0,0,0,4.3.4H127.8Z"/><path class="cls-24" d="M149.1,98.8c5,0,9-.6,12.4-2.2a18.16,18.16,0,0,0,6.7,2.1h0c.4,0,.7.1,1.1.1H149.1Z"/><path class="cls-25" d="M170.5,98.8H173a.9.9,0,0,0,.5-.1h.1a.9.9,0,0,0,.5-.1h0c.3-.1.7-.1,1-.2h0a8.08,8.08,0,0,0,3.1.5l-7.7-.1Z"/><path class="cls-26" d="M163.6,80.9h0c-2.2,2.1-4.5,4.1-6.7,5.9-1.2.9-2.3,1.8-3.5,2.6q1.5,1.8,3,3.3a21.46,21.46,0,0,0,5.2,3.9,8.27,8.27,0,0,0,1.3-.7,18.54,18.54,0,0,0,5.2-4.6,53.23,53.23,0,0,1-4.5-10.4"/><path class="cls-27" d="M230.3.1H217.6c-.7,0-1.4.1-2,.1h0c-.3.7-.6,1.3-.9,2h0C204.2,24.6,193.1,44,181.9,59.4h0c-5.3,16.2-9.1,26.1-13.9,31.9h0c2,3.5,4.4,5.9,7.2,6.9h.4c.1,0,.2-.1.4-.1h0c.1,0,.1,0,.2-.1h0c.1,0,.2-.1.3-.1h0c.1,0,.1,0,.2-.1h0a.9.9,0,0,1,.5-.1h0a.35.35,0,0,0,.2-.1h0c.1,0,.2-.1.3-.1h0a.37.37,0,0,0,.3-.1h0a.35.35,0,0,0,.2-.1h0c.2-.1.4-.1.5-.2h0a.31.31,0,0,0,.2-.1h0c.1,0,.2-.1.3-.1h0a.1.1,0,0,0,.1-.1h0c.4-.2.8-.3,1.2-.5h0a13,13,0,0,0,1.7-.8h0c18.2-10.2,27.4-44.4,56-95.5h0l-7.9.1Z"/><path class="cls-28" d="M72.1,2.3h.5a1.27,1.27,0,0,1,.6.1h.1c.2,0,.3.1.5.1h.1l1.2.3h.1c.2,0,.3.1.5.1h.1a1.42,1.42,0,0,1,.6.2h0c.2,0,.3.1.5.2s.1,0,.2.1.2.1.4.1.1,0,.2.1.3.1.5.2a.35.35,0,0,1,.2.1c.1,0,.2.1.3.1a.35.35,0,0,1,.2.1.35.35,0,0,1,.2.1,23.51,23.51,0,0,1,5.6,3.9,11.23,11.23,0,0,1,2-1.8,21.94,21.94,0,0,0-13-4.2,3.9,3.9,0,0,1-1.6.2"/><path class="cls-29" d="M84.8,8.3a23.52,23.52,0,0,1,3,3.3,26.75,26.75,0,0,1,2.8-1.8,28,28,0,0,0-3.8-3.2,10.06,10.06,0,0,0-2,1.7"/><path class="cls-30" d="M72.1,2.3c.6,0,1.2-.1,1.7-.1a21.94,21.94,0,0,1,13,4.2c4-3.1,8.8-4.2,15.5-4.2H69.9a16.2,16.2,0,0,1,2.2.1"/><path class="cls-31" d="M102.4,2.2c-6.7,0-11.5,1.1-15.5,4.2a28,28,0,0,1,3.8,3.2,48.14,48.14,0,0,1,16.5-6.9,32.56,32.56,0,0,1,6.2-.6h-11Z"/><path class="cls-32" d="M181.9,59.4c2.9-8.9,6.2-19.7,10.3-32.8C195.9,14.8,202.4,6,214.7,2.1c.3-.7.6-1.3.9-2-20,1.2-29.3,11.4-34,26.4-8.2,26.3-13.2,43.3-18,54.2a149.28,149.28,0,0,0,18.3-21.3"/></g></g></svg>