<?xml version="1.0" encoding="utf-8"?>
<!-- Generator: Adobe Illustrator 21.1.0, SVG Export Plug-In . SVG Version: 6.00 Build 0)  -->
<svg version="1.1" id="Слой_1" xmlns="http://www.w3.org/2000/svg" xmlns:xlink="http://www.w3.org/1999/xlink" x="0px" y="0px"
	 viewBox="0 0 254.9 347.2" style="enable-background:new 0 0 254.9 347.2;" xml:space="preserve">
<style type="text/css">
	.st0{fill:#E3E3E3;}
	.st1{fill:#C2C2C2;}
	.st2{fill:#FFFFFF;}
	.st3{fill:#231F20;}
</style>
<title>go</title>
<path class="st0" d="M3.3,188c0.5,10.3,10.8,5.5,15.3,2.3c4.4-3.1,5.7-0.5,6.1-6.5c0.4-3.9,0.6-7.9,0.5-11.9
	c-6.8-0.7-13.7,1.1-19.3,5C3,178.9-2.2,185.5,3.3,188"/>
<path class="st0" d="M207.8,314.1c7.9,4.9,22.3,19.6,10.5,26.8c-11.4,10.4-17.7-11.5-27.7-14.4C194.8,320.5,200.2,315.2,207.8,314.1
	L207.8,314.1z"/>
<path class="st0" d="M66.9,330.7c-9.3,1.4-14.4,9.8-22.2,14c-7.3,4.3-10.1-1.4-10.7-2.6c-1.1-0.5-1,0.5-2.8-1.3
	c-6.8-10.7,7-18.4,14.1-23.7C55.4,315.1,61.7,323.8,66.9,330.7L66.9,330.7z"/>
<path class="st0" d="M251.5,186.7c-0.5,10.3-10.8,5.5-15.3,2.3c-4.4-3.1-5.7-0.5-6.1-6.5c-0.4-3.9-0.6-7.9-0.5-11.9
	c6.8-0.7,13.7,1.1,19.3,5C251.7,177.6,257,184.2,251.5,186.7"/>
<path class="st1" d="M224.3,61.6c35.6-12.6,7.8-61.3-23.2-39.8C180.8,4.4,152.8,1.2,123.4,1.2C94.6,3.5,67.2,8.8,48.1,25.5
	C17.2,5.6-11.3,53.4,25,65.4c-10.2,39.4,1.4,79.7-0.2,119.8c-1.5,36.1-11,84.4,9.1,116.7c17,27.7,53.7,37.5,83.9,38.6
	c38.5,1.4,85.3-8.1,104-45.4c17.9-35.6,12.9-79.9,10.7-118.2C230.1,138.3,234.4,98.9,224.3,61.6L224.3,61.6z"/>
<path d="M254.2,180.6c-1.1-2.3-2.7-4.2-4.7-5.8c-4.9-3.3-10.6-5.2-16.5-5.3c-0.2-6.2-0.4-12.9-0.4-21.5v-7.8
	c-0.1-24.5-0.4-35.3-1.8-48.7c-1-9.9-2.7-19.8-5.2-29.5c8-3.1,13.4-8.2,15.4-14.7c2-6.1,1-13-2.4-19c-3.4-6-8.9-10.4-15.5-12.3
	c-7-1.9-14.5-0.5-21.8,4.4c-6.7-5.5-14.2-9.8-22.3-12.8C164.1,2.1,146.9,0,123.5,0v1l-0.1-1c-25,2-43.5,5.9-58.9,13.4
	c-5.9,2.8-11.5,6.5-16.4,10.8c-7.4-4.6-15-5.7-22.1-3.5c-6.7,2.1-12.3,6.6-15.6,12.7c-3.4,6.1-4.2,13-1.9,19S16,63,23.9,65.9
	c-2.6,10.6-3.9,21.5-4,32.5c-0.2,11.5,0.3,20.6,2.1,41.3c1.3,15.4,1.8,22.5,2,31.1c-6.6-0.4-13.2,1.4-18.6,5.2
	c-2,1.5-3.6,3.5-4.7,5.8c-1.3,2.8-0.8,5.3,1.8,6.8c0.4,4.8,3.1,7,7.2,6.6c3.5-0.6,6.8-2,9.7-4.1c0.7-0.5,1.4-0.9,2.1-1.2
	c0.3-0.1,0.5-0.2,0.8-0.3c0,0,0.6-0.2,0.8-0.3c0.3-0.1,0.6-0.2,0.8-0.4c-0.2,4.7-0.6,9.6-1.5,20.7c-1,12.6-1.5,19.4-1.7,27.1
	c-0.9,28.5,2.5,49.2,12.6,65.6c3.2,5.2,7.1,9.9,11.7,14c-0.9,0.6-4.7,3.4-5.9,4.3c-4.2,3.2-7.1,5.9-8.8,8.9
	c-2.2,3.7-2.1,8.3,0.3,11.9l0.1,0.1l0.1,0.1c1.1,1.1,1.7,1.4,2.5,1.4h0.3c0.1,0.2,0.2,0.3,0.3,0.5c0.3,0.4,0.6,0.9,0.9,1.3
	c2.5,2.9,6,3.6,10.7,0.8c2.5-1.3,4.3-2.8,8.1-6l0.2-0.2c6.1-5.2,9.1-7.1,13.5-7.8l1.6-0.3c0.6,0.3,1.2,0.5,1.9,0.8
	c14.1,5.7,30.6,8.8,47.2,9.4c21.5,0.8,42.2-1.9,59.8-8.3c4.5-1.7,9-3.6,13.3-5.9c2.6,1,4.8,3.1,9,8c0.1,0.1,0.2,0.2,0.3,0.4
	c0.2,0.2,0.2,0.3,0.3,0.4c0.2,0.3,0.5,0.5,0.7,0.8c3.3,3.9,5.5,5.8,8,6.9c3.3,1.4,6.5,0.7,9.8-2.3c5.8-3.6,6.2-9.2,2.4-15.5
	c-3.1-4.8-7.1-8.9-11.8-12.1c5.3-5.2,9.8-11.3,13.1-18c9.6-19.1,13.3-41.4,13-70.1c-0.1-10.2-0.5-19-1.6-36V189
	c0.5,0.2,1,0.5,1.5,0.9c3.1,2.1,6.7,3.8,9.7,4.1c4.1,0.4,6.8-1.8,7.2-6.6l0,0C255,185.8,255.5,183.3,254.2,180.6L254.2,180.6z
	 M222.5,18.1c6.1,1.7,11.3,5.8,14.3,11.4c3.2,5.2,4,11.6,2.3,17.4c-1.9,5.9-6.7,10.6-14.1,13.3c-1.5-5.3-3.3-10.6-5.3-15.7
	c2.9-2.5,4.3-5.6,2-10s-6.3-4.9-10.4-3.6c-2.6-3.3-5.4-6.3-8.5-9.2C209.5,17.6,216.3,16.4,222.5,18.1L222.5,18.1z M10.1,51.8
	C8.1,46.4,8.8,40,11.9,34.5c3.2-5.7,8.4-9.9,14.6-11.8c6.4-1.9,13.2-1,20,3c-3.9,3.5-7.4,7.5-10.3,11.8c-5.2-2.7-10.5-3.2-13.5,2.3
	c-3.1,5.9,0.5,9.6,5.6,12.4c-0.7,1.7-1.4,3.5-2,5.3c-0.7,2.2-1.4,4.5-2,6.8C17,61.5,12.2,57.2,10.1,51.8z M22.2,187.6
	c-0.1,0-0.7,0.2-0.7,0.3c-0.3,0.1-0.6,0.2-0.9,0.4c-0.9,0.3-1.7,0.8-2.4,1.4c-2.6,1.9-5.6,3.2-8.8,3.7c-3,0.3-4.7-1-5-4.6
	c2.1-0.7,3-1.2,3.8-2.4l-1.6-1.2c-0.6,0.8-1.2,1.1-3,1.7l0,0c-0.1,0-0.1,0-0.2,0.1c-1.6-0.9-1.9-2.3-1-4.3c1-2,2.4-3.7,4.1-5
	c5.1-3.6,11.3-5.2,17.5-4.8c0,2.5,0.1,5,0,7.4c0,0.3,0,0.5-0.1,0.8c-0.1,1.4-0.1,2-0.2,2.7l0,0C23.5,186.7,23.3,187.1,22.2,187.6
	L22.2,187.6z M52.3,337.9l-0.2,0.2c-2.4,2.2-5,4.1-7.8,5.8c-3.8,2.3-6.4,1.8-8.2-0.4c-0.3-0.3-0.5-0.6-0.7-1
	c-0.1-0.1-0.2-0.3-0.3-0.4V342c0.2-1.8,0.9-3.1,2.7-5.9c0.1-0.1,0.1-0.1,0.1-0.2c0.8-1.1,1.5-2.3,2.1-3.6l-1.8-0.8
	c-0.6,1.1-1.2,2.2-1.9,3.3c-0.1,0.1-0.1,0.1-0.1,0.2c-1.4,1.8-2.4,3.8-3,6h-0.4c-0.3-0.2-0.6-0.4-0.9-0.7c-3.9-6.2-0.8-11.5,8-18
	c1.1-0.8,4.8-3.4,5.8-4.2c0.2,0,0.4-0.1,0.6-0.2c5.7,4.8,11.9,8.7,18.6,11.9l0,0c0,0.1,0.1,0.2,0.2,0.3
	C61,331.1,57.9,333.1,52.3,337.9L52.3,337.9z M219.5,327c3.1,5.2,3,9.4-0.9,12.3c-0.3-0.6-0.5-1.3-0.9-2.3c0-0.1,0-0.1-0.1-0.2
	c-1.4-3.8-2.3-5.4-4-7.2l-1.4,1.4c1.5,1.4,2.2,2.9,3.6,6.4c0,0.1,0,0.1,0.1,0.2c0.5,1.3,0.8,2.1,1.1,2.8c-2.6,2.2-4.9,2.6-7.3,1.5
	c-2.1-0.9-4.1-2.8-7.3-6.4c-0.2-0.2-0.4-0.5-0.6-0.8c-0.1-0.1-0.2-0.2-0.3-0.4c-0.1-0.1-0.2-0.2-0.3-0.4c-3.7-4.3-5.9-6.6-8.3-7.9
	c5.4-3.1,10.4-6.8,15-11C212.2,318.1,216.9,322.7,219.5,327L219.5,327z M220.9,294.7c-8.6,17.2-23.7,29.4-44,36.8
	c-17.3,6.3-37.8,8.9-59.1,8.1c-36.6-1.3-68.2-14-83.1-38.1c-10-16-13.3-36.5-12.4-64.6c0.3-7.7,0.7-14.5,1.7-27.1
	c1.1-14.1,1.4-18.2,1.7-24.6c0.2-4.6,0.2-9.3,0.1-14.2c-0.2-8.8-0.7-15.7-2-31.4c-1.8-20.7-2.3-29.8-2.1-41.1
	c0.3-14.9,2.3-28.1,6.5-40.5C35,37.7,47.5,24,65.4,15.1C80.5,7.8,98.7,4,123.5,2c23.2,0,40.1,2.1,54.8,7.5
	c17.5,6.5,30.6,17.8,39.6,35.3c5.8,14.1,9.2,29.4,11,46.9c1.4,13.3,1.7,24.1,1.8,48.5v7.8c0.1,12.1,0.3,20.5,0.8,29
	c0.2,3.3,0.3,4.7,0.8,12.6c1.1,16.9,1.5,25.7,1.6,35.9C234,253.9,230.4,275.9,220.9,294.7L220.9,294.7z M251.4,185.7L251.4,185.7
	c-0.1,0-0.2-0.1-0.3-0.1c-1.2-0.2-2.2-0.8-3-1.7l-1.6,1.2c0.9,1.2,1.8,1.7,3.8,2.4c-0.4,3.6-2.1,4.9-5,4.6c-2.6-0.2-6-1.8-8.8-3.7
	c-0.8-0.5-1.6-1-2.4-1.4c-0.1,0-0.2-0.1-0.3-0.1c-0.4-5.5-0.4-6.9-0.6-9.8l-0.3-5.4c5.5,0,10.8,1.7,15.2,4.9c1.7,1.3,3.1,3,4.1,5
	C253.3,183.3,253.1,184.8,251.4,185.7L251.4,185.7z"/>
<path class="st2" d="M138.5,103.9c0.1,5.1,1.1,10.7,0.2,16c-1.4,2.6-4,2.9-6.3,3.9c-3.2-0.5-5.9-2.6-7.2-5.6
	c-0.8-6.1,0.2-11.8,0.5-17.9c0-0.2,3.8,0.1,7.2,1.1C134.9,102,136.8,102.8,138.5,103.9L138.5,103.9z"/>
<path class="st2" d="M110.3,104.3c-2.8,10.6,3.7,27.8,14.3,13.7c-0.8-6,0.1-11.8,0.4-17.6C125.2,99.8,110.4,103.6,110.3,104.3
	L110.3,104.3z"/>
<path d="M139.7,108.6c-0.2-3-0.3-4.2-0.3-5.7v-0.7l-0.7-0.2l-12.6-3.9v-0.7l-1.3,0.3h-0.1v0.1l-14.1,3.6l-0.5,0.1l-0.2,0.5
	c-2.2,5.3-1.7,13.3,1.1,18.1c3.2,5.6,8.4,5.7,13.7-0.7c1.5,2.9,4.3,4.9,7.5,5.4h0.3l0.3-0.1c0.4-0.2,0.8-0.3,1.5-0.6
	c0.1,0,0.1,0,0.2-0.1c2.9-1,4.1-1.8,5.1-3.7l0.1-0.1v-0.2c0.3-1.9,0.4-3.8,0.4-5.8C140,112.8,139.9,111.4,139.7,108.6L139.7,108.6z
	 M123.8,104.9c-0.1,1.8-0.2,2.5-0.3,3.5c-0.2,3.1-0.2,6.2,0.1,9.3c-4.7,6-8.4,6-10.9,1.5c-2.4-4.2-2.9-11.3-1.1-15.9l12.6-3.2
	C124.1,101.3,124,102.6,123.8,104.9L123.8,104.9z M137.7,119.7c-0.7,1.2-1.6,1.8-4,2.6c-0.1,0-0.1,0-0.2,0.1c-0.6,0.2-1,0.4-1.3,0.5
	c-2.7-0.5-5-2.3-6.1-4.8c-0.3-3-0.3-6.1-0.1-9.2c0.1-1,0.1-1.7,0.3-3.5c0.2-2.3,0.3-3.7,0.3-5l10.9,3.3c0,1.3,0.1,2.5,0.3,5.1
	s0.3,4.1,0.3,5.7C138.1,116.2,138,117.9,137.7,119.7L137.7,119.7z"/>
<path class="st2" d="M50.4,60.5c9.2,35.7,66.2,26.5,64-9.3C111.8,8.4,41.5,16.7,50.4,60.5"/>
<path d="M115.4,51.2c-0.6-10.4-5.2-18.4-12.8-23.5c-6.8-4.6-15.7-6.4-24.6-5.3S61,27.5,55.6,33.8c-6,7-8.3,16.1-6.2,26.7l0.9-0.2
	l-0.9,0.2C58.8,97.2,117.6,88.3,115.4,51.2L115.4,51.2z M51.3,60.3c-2-10.1,0.2-18.6,5.8-25.1c5.1-5.9,12.7-9.8,21.2-10.9
	s16.9,0.6,23.3,5c7.1,4.8,11.4,12.3,12,22.1C115.7,86.2,60.2,94.6,51.3,60.3L51.3,60.3z"/>
<ellipse cx="66.1" cy="54.7" rx="9.7" ry="10.5"/>
<ellipse class="st2" cx="70.5" cy="57" rx="2.3" ry="2.7"/>
<path class="st2" d="M130.4,53.9c7.1,40.9,74,30.1,64.4-11.2C186.1,5.7,128,15.9,130.4,53.9"/>
<path d="M195.6,42.5C186.8,4.3,127,14.8,129.4,54v0.1c3.3,19.3,20.5,29.2,39.6,26c8.7-1.5,16.4-5.7,21.5-11.8
	C196.1,61.4,198.1,52.5,195.6,42.5L195.6,42.5z M189,67c-4.8,5.8-12.1,9.8-20.3,11.2c-18,3-34.2-6.3-37.4-24.4
	c-2.2-36.9,54.2-46.8,62.5-10.9C196.1,52.4,194.3,60.6,189,67L189,67z"/>
<ellipse cx="146.8" cy="52.1" rx="9.5" ry="10.5"/>
<ellipse class="st2" cx="151.2" cy="54.5" rx="2.2" ry="2.7"/>
<path class="st0" d="M112.4,82.8c-7.9,0.7-14.2,10-10.2,17.3c5.4,9.8,17.4-0.9,24.9,0.1c8.7,0.2,15.7,9.2,22.6,1.6
	c7.7-8.4-3.3-16.5-12-20.1L112.4,82.8L112.4,82.8z"/>
<path class="st3" d="M150.7,89.5c-2.7-3.4-7.4-6.5-12.4-8.6l-0.2-0.1h-0.2l-25.5,1c-8.9,0.8-15.2,11.1-11,18.8
	c1.3,2.7,4,4.5,7.1,4.7c2.3,0.1,4.7-0.4,8.4-1.7c0.3-0.1,0.7-0.2,1.2-0.4c5-1.7,7-2.2,9-1.9h0.1c2.4,0,4.4,0.7,8.2,2.2
	c4.2,1.7,5.5,2.2,7.6,2.4c2.9,0.2,5.8-1,7.7-3.3C154.4,98.4,154.2,93.8,150.7,89.5L150.7,89.5z M149,101.2c-1.5,1.8-3.7,2.8-6.1,2.7
	c-1.8-0.1-3-0.6-7-2.2s-6.2-2.3-8.8-2.4c-2.5-0.3-4.6,0.2-9.9,2c-0.5,0.2-0.9,0.3-1.2,0.4c-7.3,2.5-10.8,2.3-13.2-2.1
	c-3.6-6.5,1.9-15.2,9.4-15.9l25.2-1c4.8,2,9.1,4.9,11.6,8C152.1,94.3,152.1,97.9,149,101.2L149,101.2z"/>
<path d="M139.8,78.5c-3.1-11.4-29-9.7-28.4,3.9C112.7,92.5,142.8,89.8,139.8,78.5z"/>
</svg>
