<?xml version="1.0" encoding="UTF-8" standalone="no"?>
<svg width="34px" height="36px" viewBox="0 0 34 36" version="1.1" xmlns="http://www.w3.org/2000/svg" xmlns:xlink="http://www.w3.org/1999/xlink" xmlns:sketch="http://www.bohemiancoding.com/sketch/ns">
    <!-- Generator: Sketch 3.3.3 (12072) - http://www.bohemiancoding.com/sketch -->
    <title>thunder copy</title>
    <desc>Created with Sketch.</desc>
    <defs>
        <linearGradient x1="0%" y1="0%" x2="101.999998%" y2="100.999999%" id="linearGradient-1">
            <stop stop-color="#DFE3E5" offset="0%"></stop>
            <stop stop-color="#C5CBCD" offset="100%"></stop>
        </linearGradient>
    </defs>
    <g id="Welcome" stroke="none" stroke-width="1" fill="none" fill-rule="evenodd" sketch:type="MSPage">
        <g id="VirgilSecurity---Apps" sketch:type="MSArtboardGroup" transform="translate(-1079.000000, -675.000000)" fill="url(#linearGradient-1)">
            <g id="V-Mail" sketch:type="MSLayerGroup" transform="translate(920.000000, 235.000000)">
                <g id="thunder-copy" transform="translate(159.000000, 440.000000)" sketch:type="MSShapeGroup">
                    <path d="M0.102766393,17.8044291 L0.102766393,17.0803562 C0.168408139,16.6513028 0.168408139,16.2221689 0.102766393,15.7931155 L0.102766393,15.2299477 C0.184758464,14.8926906 0.177785531,14.5452965 0.210165586,14.2030514 C0.406770228,12.1241576 1.30507631,10.3389961 2.52910652,8.70661393 C4.11236298,6.59497596 6.10790411,4.96975409 8.47517468,3.80898477 C8.73742105,3.68034114 8.91607241,3.4817038 9.07236227,3.23688673 C9.85453297,2.0118358 10.7983635,0.957022479 12.1585662,0.351456169 C12.4050233,0.241718896 12.6564497,0.16376038 12.9247874,0.13753285 C13.0175995,0.128522165 13.1156213,0.0948930006 13.1782174,0.194251894 C13.2445003,0.299322919 13.2112386,0.401256293 13.1424711,0.491926312 C12.9881048,0.695310349 12.7978319,0.865226124 12.6197416,1.0463248 C12.2995477,1.37175535 12.0377822,1.73652719 11.8035077,2.20822047 C12.1284304,2.04618904 12.3313668,1.82985215 12.5785452,1.68069313 C12.7272209,1.59106899 12.8642751,1.48100991 13.0234504,1.41021167 C13.2020216,1.33080501 13.3960614,1.18188735 13.5758349,1.36668684 C13.771638,1.56805956 13.5847314,1.73073461 13.4716416,1.89155925 C13.4490397,1.92365981 13.4294033,1.95913939 13.4576156,2.02792631 C13.9761774,1.9848842 14.4951399,1.87297471 15.0221974,1.82542725 C16.4600642,1.6956573 17.8950457,1.72695334 19.332111,1.82920852 C21.067169,1.95262273 22.7295322,2.37789489 24.3258529,3.05474216 C27.5588892,4.42541216 29.9885153,6.68130153 31.6375738,9.7913556 C32.6724533,11.7432148 33.2918421,13.8233958 33.5747667,16.0088088 C33.6254209,16.4003713 33.6375232,16.7966805 33.6436948,17.1932312 C33.6616479,18.3432198 33.6514691,19.4928867 33.647702,20.6428754 C33.643294,22.003167 33.3594074,23.3101991 32.9829491,24.6017843 C32.4514034,26.4258044 31.6843807,28.1518334 30.6675349,29.7521149 C29.3223199,31.8692235 27.6586743,33.6786818 25.4181988,34.8775052 C24.3922961,35.4264329 23.3255977,35.8570953 22.1299401,35.8233053 C22.044662,35.8204091 21.9708451,35.7964342 21.9289273,35.7137288 C21.8600796,35.4961853 22.015568,35.3926429 22.1549465,35.2923184 C22.4365087,35.0895781 22.7285704,34.9020433 22.9361554,34.7535279 C21.6956947,35.2619073 20.3487165,35.7173492 18.9002701,35.7846075 C18.3760979,35.7699653 17.8539294,35.7447031 17.3408979,35.6293342 C17.1870926,35.3636799 17.4004483,35.2698723 17.5669171,35.1675366 C18.376178,34.67034 19.1532192,34.1310664 19.8650194,33.4970199 C20.4151597,33.0068227 20.9348436,32.4895127 21.3958586,31.9144379 C21.583166,31.6808037 21.5474999,31.5913407 21.2055056,31.4742017 C20.2835557,31.1584253 19.36393,30.8350867 18.4401367,30.5255858 C15.857667,29.6602381 13.2860173,28.7615026 10.6845524,27.9540005 C10.5657721,27.9171532 10.4162147,27.7947849 10.3200363,27.9283361 C10.2386855,28.041211 10.3512142,28.1819224 10.4081197,28.2999463 C10.5575168,28.6095279 10.8381974,28.8080043 11.0570833,29.0589357 C11.1807527,29.2006931 11.3341572,29.340922 11.2069613,29.5502595 C11.0820096,29.7558963 10.8806762,29.7069006 10.7025859,29.6513883 C9.7182001,29.3447835 8.86149118,28.8120268 8.08661401,28.1387196 C7.99588573,28.0599564 7.91653857,27.9679992 7.81410861,27.9029936 C7.78044616,27.8815932 7.7455815,27.8608364 7.67344771,27.8746743 C7.63169028,28.3801577 7.76105019,28.8720444 7.86139631,29.36369 C7.97665007,29.9283865 8.13622603,30.4821413 8.37723302,31.0087836 C8.45008814,31.1680797 8.53696929,31.3383173 8.39109875,31.4953607 C8.22791609,31.6711496 8.04357419,31.5815252 7.87734588,31.4926253 C7.0973392,31.0757202 6.36502097,30.584477 5.69986732,30.0010351 C3.25020394,27.8523085 1.79326175,25.0967283 0.839893542,22.0227975 C0.423200703,20.6792399 0.173056761,19.3176611 0.142359827,17.9132814 C0.141478192,17.8720897 0.131379462,17.8350816 0.102766393,17.8044291 L0.102766393,17.8044291 Z M7.07153133,18.1358936 C8.46195015,19.8850124 9.88827554,21.6042833 11.3327145,23.3085901 C11.5333266,23.5452814 11.7331372,23.5387648 12.0041999,23.444233 C15.6812598,22.1610954 19.361766,20.8879338 23.041631,19.6128415 C23.204974,19.5562029 23.3699199,19.5043914 23.5817528,19.4346391 C23.502085,20.5493895 23.0952505,21.5270489 22.6103511,22.5675416 C24.015357,22.4326227 24.8863324,21.4604342 25.9666561,20.6846303 C25.9430924,21.0467472 25.9378026,21.3305033 25.9043004,21.6108804 C25.5069234,24.9360646 24.4757309,28.026086 22.5457513,30.7892286 C22.3525129,31.0659854 22.1930171,31.0966379 21.8931009,30.9979225 C15.9012678,29.0250653 9.9064693,27.061299 3.9097472,25.1033254 C3.65832088,25.0212638 3.51261062,24.893827 3.41386749,24.6453896 C2.5959505,22.5877352 2.03162384,20.4793958 2.08965146,18.2404015 C2.09373905,18.0837604 2.11177249,17.9274411 2.12964564,17.6856812 C2.7231464,18.2512626 3.26968006,18.7714687 4.04616019,19.1105762 C3.85732996,18.7503902 3.68324709,18.461646 3.54899812,18.1553631 C2.55034591,15.8769471 2.66255402,13.6249194 3.74375934,11.4078886 C3.90069038,11.085998 4.04888526,10.7541312 4.29774681,10.4812362 C4.45579997,10.3080219 4.60287273,10.2336837 4.85397845,10.2895178 C5.49156097,10.4312752 6.13667747,10.5421388 6.78211455,10.6439917 C7.03746815,10.6842984 7.13941726,10.7888867 7.15897353,11.0544606 C7.22405421,11.9369445 7.03201806,12.7862016 6.87548775,13.6422167 C6.79389641,14.0884065 6.69050464,14.5371708 6.83052434,14.9930149 C6.90121546,15.2232701 6.97775741,15.4484568 7.20978776,15.618453 C7.74478002,14.7222921 8.58040986,14.2004769 9.46468991,13.7396447 C10.4855433,13.2075316 11.4265686,12.5452462 12.3942033,11.9268075 C12.5856784,11.8044392 12.7621658,11.7501337 12.9919519,11.7931758 C16.1125397,12.3783072 19.2341693,12.9575655 22.3569211,13.530629 C22.5565714,13.5672349 22.6957896,13.6175982 22.7766596,13.8281425 C23.3878732,15.4199766 23.7501451,17.0533242 23.6758473,18.7725146 C23.6628632,19.0733267 23.5794285,19.2137968 23.2825579,19.3053518 C19.5611759,20.4530879 15.8432402,21.6120068 12.1279495,22.7792123 C11.8548029,22.8650552 11.6771133,22.8044744 11.4932523,22.6096183 C10.1524455,21.1887459 8.8069901,19.7722984 7.46193541,18.3554486 C7.36118856,18.2493317 7.25226655,18.1511796 7.14711152,18.0493267 C7.06023037,18.0239037 7.03121658,18.0494876 7.07153133,18.1358936 L7.07153133,18.1358936 Z M9.85686475,10.1513807 C10.1646956,10.1513807 10.4142418,9.90149316 10.4142418,9.59324121 C10.4142418,9.28498926 10.1646956,9.03510167 9.85686475,9.03510167 C9.54903391,9.03510167 9.2994877,9.28498926 9.2994877,9.59324121 C9.2994877,9.90149316 9.54903391,10.1513807 9.85686475,10.1513807 Z M0.102766393,15.7931155 C0.231725574,16.2221689 0.227637993,16.6513028 0.102766393,17.0803562 L0.102766393,15.7931155 Z M19.0217754,35.5950614 C18.4927142,35.7513807 17.9546763,35.666825 17.4197642,35.6500909 C17.356607,35.6480796 17.2488071,35.619358 17.3362493,35.5047131 C17.7396374,35.6969947 18.1684327,35.5657767 18.5843241,35.600854 C18.7289123,35.6130022 18.8758247,35.5977968 19.0217754,35.5950614 Z M7.07153133,18.1358936 C6.99835561,18.0684744 6.92526004,18.0009747 6.83308911,17.9160168 C7.01021762,17.8484367 7.08523676,17.9344405 7.14711152,18.0493267 C7.12194483,18.0782092 7.09669802,18.1070916 7.07153133,18.1358936 Z M22.1551068,35.7536333 C22.0607718,35.8005371 21.9489645,35.8602329 21.8665717,35.7821135 C21.825215,35.7428528 21.9114549,35.6763991 21.9815048,35.6623197 C22.0393721,35.6927308 22.0972395,35.7232222 22.1551068,35.7536333 Z M6.31925611,17.1845423 C6.187652,17.1284668 6.11824329,17.0795517 6.12834201,16.9628955 C6.23670299,16.9811583 6.29465048,17.0395668 6.31925611,17.1845423 Z" id="Fill-1"></path>
                </g>
            </g>
        </g>
    </g>
</svg>