<?xml version="1.0" encoding="UTF-8" standalone="no"?>
<svg width="36px" height="36px" viewBox="0 0 36 36" version="1.1" xmlns="http://www.w3.org/2000/svg" xmlns:xlink="http://www.w3.org/1999/xlink" xmlns:sketch="http://www.bohemiancoding.com/sketch/ns">
    <!-- Generator: Sketch 3.3.3 (12072) - http://www.bohemiancoding.com/sketch -->
    <title>Oval</title>
    <desc>Created with Sketch.</desc>
    <defs>
        <linearGradient x1="0%" y1="0%" x2="101.999998%" y2="100.999999%" id="linearGradient-1">
            <stop stop-color="#DFE3E5" offset="0%"></stop>
            <stop stop-color="#C5CBCD" offset="100%"></stop>
        </linearGradient>
    </defs>
    <g id="Welcome" stroke="none" stroke-width="1" fill="none" fill-rule="evenodd" sketch:type="MSPage">
        <g id="VirgilSecurity---Apps" sketch:type="MSArtboardGroup" transform="translate(-730.000000, -675.000000)" fill="url(#linearGradient-1)">
            <g id="V-Sync" sketch:type="MSLayerGroup" transform="translate(600.000000, 235.000000)">
                <path d="M148.092442,475.72093 C157.956504,475.72093 165.952907,467.724528 165.952907,457.860465 C165.952907,447.996403 157.956504,440 148.092442,440 C138.228379,440 130.231977,447.996403 130.231977,457.860465 C130.231977,467.724528 138.228379,475.72093 148.092442,475.72093 L148.092442,475.72093 Z M149.199791,450.716279 C148.878302,450.823442 148.449651,450.894884 147.842395,450.930605 C147.878116,449.644651 148.199605,448.537302 148.842581,447.608558 C149.485558,446.679814 150.557186,446.036837 152.057465,445.715349 C152.057465,445.75107 152.093186,445.786791 152.093186,445.858233 C152.093186,445.929674 152.128907,445.965395 152.128907,446.001116 L152.128907,446.144 L152.128907,446.286884 C152.128907,446.822698 152.021744,447.394233 151.771698,448.037209 C151.521651,448.680186 151.128721,449.287442 150.592907,449.823256 C150.128535,450.251907 149.664163,450.573395 149.199791,450.716279 L149.199791,450.716279 Z M154.986581,459.753674 C154.379326,458.896372 154.093558,457.931907 154.093558,456.896 C154.093558,455.931535 154.379326,455.038512 154.91514,454.21693 C155.200907,453.788279 155.701,453.288186 156.379698,452.68093 C155.915326,452.145116 155.486674,451.716465 155.022302,451.394977 C154.200721,450.823442 153.307698,450.573395 152.271791,450.573395 C151.664535,450.573395 150.914395,450.716279 150.057093,451.002047 C149.199791,451.287814 148.592535,451.430698 148.199605,451.430698 C147.913837,451.430698 147.306581,451.287814 146.413558,451.037767 C145.520535,450.787721 144.734674,450.644837 144.127419,450.644837 C142.66286,450.644837 141.448349,451.252093 140.483884,452.502326 C139.519419,453.752558 139.019326,455.36 139.019326,457.324651 C139.019326,459.396465 139.662302,461.575442 140.912535,463.79014 C142.198488,466.004837 143.484442,467.112186 144.806116,467.112186 C145.234767,467.112186 145.806302,466.969302 146.520721,466.683535 C147.199419,466.397767 147.842395,466.254884 148.342488,466.254884 C148.914023,466.254884 149.557,466.397767 150.271419,466.683535 C151.057279,466.969302 151.664535,467.112186 152.057465,467.112186 C153.164814,467.112186 154.272163,466.254884 155.379512,464.576 C156.09393,463.504372 156.629744,462.432744 156.951233,461.361116 C156.272535,461.146791 155.593837,460.575256 154.986581,459.753674 L154.986581,459.753674 Z" id="Oval" sketch:type="MSShapeGroup"></path>
            </g>
        </g>
    </g>
</svg>