<?xml version="1.0" encoding="UTF-8" standalone="no"?>
<svg width="90px" height="116px" viewBox="0 0 90 116" version="1.1" xmlns="http://www.w3.org/2000/svg" xmlns:xlink="http://www.w3.org/1999/xlink" xmlns:sketch="http://www.bohemiancoding.com/sketch/ns">
    <!-- Generator: Sketch 3.3.3 (12081) - http://www.bohemiancoding.com/sketch -->
    <title>Cpp-off</title>
    <desc>Created with Sketch.</desc>
    <defs>
        <path id="path-1" d="M0,7.75960085 L0,67.6987713 C0,72.3119689 2.0655459,77.2942685 6.15037688,82.5137654 C9.77144307,87.1304342 14.8982992,91.8581806 21.3863801,96.5674142 C29.4866508,102.425608 37.7442083,106.788881 41.7527089,108.775552 C45.7681487,106.788881 54.0257062,102.426765 62.1236639,96.5674142 C68.6163709,91.8593377 73.7339748,87.1315912 77.3527279,82.5137654 C81.4410285,77.2884832 83.5135135,72.313126 83.5135135,67.6987713 L83.5135135,7.75960085 L41.7527089,0.0767235591 L0,7.75960085 L0,7.75960085 Z"></path>
    </defs>
    <g id="Welcome" stroke="none" stroke-width="1" fill="none" fill-rule="evenodd" sketch:type="MSPage">
        <g id="Artboard-13" sketch:type="MSArtboardGroup" transform="translate(-429.000000, -344.000000)">
            <g id="Cpp-off" sketch:type="MSLayerGroup" transform="translate(429.000000, 344.000000)">
                <g id="Group-+-C#-Copy-2">
                    <g id="Group">
                        <path d="M0,11.0043561 L0,11.0043561 L0,8.30196202 L2.65657546,7.81312803 L44.4092844,0.130250745 L44.9958953,0.0223090136 L45.5825099,0.130230504 L87.3433145,7.81310779 L90,8.30186725 L90,11.0043561 L90,70.9435266 C90,76.3619854 87.6533992,82.0025208 83.1482996,87.7605149 C79.3216269,92.643663 73.9821146,97.5724057 67.2675216,102.441377 C60.4460718,107.377099 53.0811935,111.639909 46.4336334,114.928844 L44.994708,115.640764 L43.5562722,114.927854 C36.8953744,111.626615 29.5481054,107.373013 22.7251013,102.438545 C16.0068201,97.5622257 10.6642383,92.634571 6.84000385,87.7588704 C2.34447217,82.0145902 0,76.3652912 0,70.9435266 L0,11.0043561 Z" id="Shape" fill="#525252" sketch:type="MSShapeGroup"></path>
                        <g id="Path-+-Rectangle-216" transform="translate(3.243243, 3.244755)">
                            <mask id="mask-2" sketch:name="Mask" fill="white">
                                <use xlink:href="#path-1"></use>
                            </mask>
                            <use id="Mask" fill="#686868" sketch:type="MSShapeGroup" xlink:href="#path-1"></use>
                            <rect id="Rectangle-216" fill="#7A7A7A" sketch:type="MSShapeGroup" mask="url(#mask-2)" x="-42.972973" y="-26.7692308" width="85.1351351" height="147.636364"></rect>
                        </g>
                    </g>
                    <g id="C#-Copy-2" transform="translate(16.351351, 24.335664)" stroke="#2C302E" fill="#FFFFFF" sketch:type="MSShapeGroup">
                        <path d="M55.0694783,14.6352852 C49.9037865,6.14082646 40.5844187,0.470240047 29.9441892,0.470240047 C13.6959749,0.470240047 0.523832046,13.690881 0.523832046,29.998919 C0.523832046,46.3080324 13.6959749,59.527598 29.9441892,59.527598 C40.5742799,59.527598 49.8845971,53.8683836 55.0534329,45.3889377 L43.9524811,39.8354785 C40.8564345,44.2660481 35.7336428,47.1683312 29.9441892,47.1683312 C20.5124035,47.1683312 12.838832,39.4665067 12.838832,29.9999944 C12.838832,20.5334821 20.5124035,12.8316576 29.9441892,12.8316576 C35.7433888,12.8316576 40.8749781,15.744732 43.9688249,20.1885952 L55.0694783,14.6352852 Z" id="Path" stroke-width="1.62"></path>
                        <path d="M52.1638422,31.1321766 L52.1638422,28.6790073 L47.5266449,28.6790073 L47.5266449,23.5860145 L44.8349385,23.5860145 L44.8349385,28.6790073 L40.1977412,28.6790073 L40.1977412,31.1321766 L44.8349385,31.1321766 L44.8349385,36.4118236 L47.5266449,36.4118236 L47.5266449,31.1321766 L52.1638422,31.1321766 Z M65.6756757,31.1321766 L65.6756757,28.6790073 L61.0384784,28.6790073 L61.0384784,23.5860145 L58.3467719,23.5860145 L58.3467719,28.6790073 L53.7095746,28.6790073 L53.7095746,31.1321766 L58.3467719,31.1321766 L58.3467719,36.4118236 L61.0384784,36.4118236 L61.0384784,31.1321766 L65.6756757,31.1321766 Z" id="++" stroke-width="0.81"></path>
                    </g>
                </g>
            </g>
        </g>
    </g>
</svg>