<?xml version="1.0" encoding="UTF-8" standalone="no"?>
<svg width="119px" height="128px" viewBox="0 0 119 128" version="1.1" xmlns="http://www.w3.org/2000/svg" xmlns:xlink="http://www.w3.org/1999/xlink" xmlns:sketch="http://www.bohemiancoding.com/sketch/ns">
    <!-- Generator: Sketch 3.5.2 (25235) - http://www.bohemiancoding.com/sketch -->
    <title>Group 6</title>
    <desc>Created with Sketch.</desc>
    <defs>
        <path id="path-1" d="M46.995643,0.667016001 L46.995643,0.667016001 L3.3872581,8.69117052 L0.612612613,9.20171876 L0.612612613,12.0241545 L0.612612613,74.6258528 C0.612612613,80.2884549 3.06128355,86.1886986 7.75661663,92.1881426 C11.7508171,97.2804243 17.3308469,102.426968 24.3477184,107.519896 C31.4739671,112.673556 39.1477814,117.116105 46.1047192,120.563986 L47.6070854,121.308564 L49.1099631,120.56502 C56.0529702,117.129989 63.7451764,112.677823 70.8698018,107.522853 C77.8828212,102.4376 83.4596452,97.2899201 87.4563922,92.1898601 C92.1617185,86.176093 94.6126126,80.2850023 94.6126126,74.6258528 L94.6126126,12.0241545 L94.6126126,9.20161979 L91.8378522,8.69114938 L48.2210119,0.666994861 L47.6083255,0.554279444 L46.995643,0.667016001 L46.995643,0.667016001 Z"></path>
    </defs>
    <g id="Page-1" stroke="none" stroke-width="1" fill="none" fill-rule="evenodd" sketch:type="MSPage">
        <g id="VirgilSecurity---Developers-2" sketch:type="MSArtboardGroup" transform="translate(-432.000000, -535.000000)">
            <g id="Group-6" sketch:type="MSLayerGroup" transform="translate(427.000000, 535.000000)">
                <g id="Shape-+-Group-+-C#-Copy-+-Untitled-1" transform="translate(12.000000, 0.000000)">
                    <g id="Shape-+-Group-+-C#-Copy">
                        <g id="Shape-+-Group">
                            <path d="M48.84013,0.952659489 L48.84013,0.952659489 L49.4528125,0.839922933 L49.9956603,0.740036313 L50.5385114,0.839904203 L51.1511978,0.95261962 L94.7680382,8.97677414 L97.5427986,9.48724455 L100,9.93929389 L100,12.4377309 L100,15.2602656 L100,77.8619639 C100,84.2134613 97.3348748,90.7201781 92.2050816,97.2764449 C88.0296619,102.604501 82.2576557,107.938272 75.0157692,113.189478 C68.2011962,118.120111 60.5039518,122.692227 52.8276792,126.490039 L51.3248015,127.233583 L49.9933215,127.892328 L48.662295,127.232667 L47.1599287,126.488089 C39.4666789,122.675289 31.7909536,118.114673 24.9729115,113.183901 C17.7261898,107.924145 11.9536746,102.59238 7.7815112,97.2732068 C2.66447426,90.7349323 0,84.2179476 0,77.8619639 L0,15.2602656 L0,12.4378299 L0,9.93948051 L2.45709963,9.48736225 L5.23174512,8.97681401 L48.84013,0.952659489 Z" id="Shape" fill="#2C302E" sketch:type="MSShapeGroup"></path>
                            <g id="Shape-+-Rectangle-215" transform="translate(2.387387, 3.236111)">
                                <mask id="mask-2" sketch:name="Mask" fill="white">
                                    <use xlink:href="#path-1"></use>
                                </mask>
                                <use id="Mask" fill="#BB241D" sketch:type="MSShapeGroup" xlink:href="#path-1"></use>
                                <rect id="Rectangle-215" fill="#DA322C" sketch:type="MSShapeGroup" mask="url(#mask-2)" x="-45.963964" y="-51.9166667" width="94" height="185.541667"></rect>
                            </g>
                        </g>
                    </g>
                </g>
                <g id="noun_18125_cc-+-noun_18125_cc-copy" transform="translate(0.000000, 17.000000)" sketch:type="MSShapeGroup">
                    <g id="noun_18125_cc" transform="translate(49.600645, 0.000000)">
                        <path d="M41.4757035,0 L41.4757035,0 L43.1309823,0 C44.225366,0 45.4328197,0.846496512 45.8085371,1.89070288 L46.3592178,3.42117349 L48.2377262,8.67887205 C48.645926,8.83621945 49.0480513,9.00202315 49.4495691,9.17990726 L54.5144044,6.77771676 L56.0111199,6.07203111 C57.00067,5.60546869 58.45027,5.85020098 59.2313792,6.62691324 L60.4035357,7.79247161 L66.4973744,13.8435514 L67.6695309,15.0108891 C68.4444995,15.7826716 68.6994346,17.2234656 68.2252291,18.2153333 L67.5136216,19.7037607 L65.1063367,24.7482399 C65.2815831,25.1414574 65.4480217,25.5434332 65.6062598,25.945107 L70.8915958,27.8172693 L72.4543794,28.3672004 C73.4876101,28.7307861 74.340033,29.9219867 74.340033,31.0213866 L74.340033,32.67118 L74.340033,41.2383082 L74.340033,42.8891966 C74.340033,43.9806775 73.4957971,45.1786808 72.4543794,45.5456947 L70.8915958,46.0964471 L65.6062598,47.9664953 C65.447718,48.3639409 65.2812794,48.7659167 65.1063367,49.1633624 L67.5136216,54.2036135 L68.2252291,55.692862 C68.6957067,56.6774752 68.4506401,58.1199556 67.6695309,58.8973063 L66.4973744,60.0638227 L60.4038394,66.1188287 L59.2316829,67.2826078 C58.4567144,68.0520376 57.0087402,68.3055284 56.0112576,67.8351779 L54.5144044,67.1293554 L49.4495691,64.7335071 C49.0501773,64.905351 48.645926,65.0711547 48.2377262,65.2285021 L46.3592178,70.4883147 L45.8094881,72.0186502 C45.4341277,73.0635773 44.2361636,73.9091862 43.1331083,73.9091862 L41.4778295,73.9091862 L32.8646332,73.9091862 L31.2074274,73.9091862 C30.1117697,73.9091862 28.903791,73.0627644 28.5287225,72.0186502 L27.9789928,70.4883147 L26.1004844,65.2285021 C25.6944108,65.0708527 25.2901594,64.905049 24.8883378,64.7335071 L19.8238063,67.1293554 L18.3269531,67.8351779 C17.3373121,68.3018308 15.8875626,68.0581343 15.1063617,67.2826078 L13.9340675,66.1188287 L7.8426586,60.0638227 L6.67050209,58.8973063 C5.89553353,58.1260666 5.64007788,56.685277 6.11364137,55.692862 L6.82428534,54.2036135 L9.23187401,49.1633624 C9.05662756,48.7698429 8.89018898,48.3636389 8.73407689,47.9664953 L3.44874093,46.0964471 L1.8858197,45.5456947 C0.852497967,45.1815661 -7.10542736e-15,43.9893261 -7.10542736e-15,42.8891966 L-7.10542736e-15,41.2383082 L-7.10542736e-15,32.67118 L-7.10542736e-15,31.0213866 C-7.10542736e-15,29.9306295 0.844310241,28.7336671 1.8858197,28.3672004 L3.44874093,27.8172693 L8.73407689,25.945107 C8.89018898,25.5434332 9.05662756,25.1456856 9.23187401,24.7482399 L6.82428534,19.7037607 L6.11377901,18.2151965 C5.6440294,17.2310357 5.88969664,15.788485 6.67080581,15.0105871 L7.84296232,13.8432494 L13.9337638,7.79247161 L15.1060579,6.62691324 C15.8811175,5.85630703 17.3291667,5.60177179 18.3266494,6.07203111 L19.8235026,6.77771676 L24.8880341,9.17990726 C25.2880334,9.00172114 25.6944108,8.83621945 26.1001807,8.67887205 L27.9786891,3.42117349 L28.5284188,1.89070288 C28.9037793,0.845683541 30.1022638,0 31.2059612,0 L32.8622035,0 L41.4757035,0 Z" id="Shape" fill="#2C302E"></path>
                        <path d="M41.4757035,3 L41.4757035,3 L32.8622035,3 L31.2059612,3 C31.369914,3 31.2998641,3.04945365 31.3518092,2.90483641 L30.8037857,4.43054432 L28.9252773,9.68824288 C28.6321851,10.5085695 27.9969996,11.1609915 27.1848124,11.4759373 C26.7834419,11.6315787 26.4323759,11.7761539 26.108787,11.9203018 C25.3089914,12.2765836 24.393461,12.2656822 23.6023756,11.8904574 L18.5442059,9.49127532 L17.0473527,8.78558967 C17.1954089,8.85539021 17.1036131,8.87130515 17.2212576,8.75433666 L16.0480799,9.92077314 L9.9599087,15.9689347 L8.78775218,17.1362724 C8.91103419,17.0134972 8.89864619,17.0852169 8.82118308,16.9229259 L9.53172922,18.4115735 L11.9393179,23.4560528 C12.3158253,24.2449267 12.3295402,25.1587813 11.9768753,25.9585985 C11.8121477,26.3321883 11.6643325,26.6870447 11.5303128,27.0318751 C11.2140028,27.8457354 10.5588056,28.4814008 9.73574785,28.7729428 L4.44448278,30.6471983 L2.88156155,31.1971294 C3.04319968,31.1402553 3,31.2011932 3,31.0213866 L3,32.67118 L3,41.2383082 L3,42.8891966 C3,42.7109683 3.04418577,42.7730719 2.88288434,42.7162315 L4.4494067,43.2682554 L9.73474266,45.1383036 C10.5544574,45.4283336 11.2080126,46.0597462 11.5261127,46.8689816 C11.6844089,47.2716815 11.8305374,47.6243491 11.9724061,47.9429183 C12.3297163,48.7452657 12.3174693,49.6638955 11.9388964,50.4564322 L9.53182297,55.4956042 L8.821179,56.9848527 C8.89835694,56.8231161 8.91082263,56.8944012 8.78670039,56.7708762 L9.95761182,57.9361543 L16.0476415,63.9897902 L17.2199357,65.1535693 C17.1020294,65.0365195 17.1946431,65.0523096 17.0474534,65.121715 L18.5409208,64.4174917 L23.6054523,62.0216434 C24.3811991,61.6546654 25.2769665,61.6374735 26.0662232,61.9744156 C26.4535055,62.1397505 26.8254017,62.2917851 27.186219,62.4318647 C27.9980213,62.7470296 28.6328158,63.3993904 28.9257095,64.2194911 L30.8023547,69.4741019 L31.3520844,71.0044374 C31.2984325,70.8550813 31.3752655,70.9091862 31.2074274,70.9091862 L32.8646332,70.9091862 L41.4778295,70.9091862 L43.1331083,70.9091862 C42.9683304,70.9091862 43.0380228,70.859968 42.9861263,71.0044374 L43.5339928,69.4793037 L45.4125012,64.2194911 C45.7062413,63.3970205 46.3438081,62.7433833 47.1587133,62.4292645 C47.519164,62.2903228 47.8869221,62.1399515 48.2638721,61.9777635 C49.0548713,61.6374251 49.9539792,61.6533966 50.7323918,62.0216136 L55.793904,64.4158925 L57.2907572,65.121715 C57.1436936,65.052369 57.2361094,65.0364122 57.1179839,65.1536934 L58.2892575,63.9907913 L64.3811761,57.9373927 L65.5533326,56.7708762 C65.428823,56.8947867 65.4409706,56.8242928 65.5183725,56.986279 L64.8065357,55.4965505 L62.3992508,50.4562994 C62.0226888,49.6678729 62.0085616,48.7544554 62.3605613,47.9547608 C62.5100625,47.6151148 62.6613042,47.2522312 62.819776,46.8549613 C63.1399898,46.0522232 63.7908406,45.4265783 64.6055941,45.1383036 L69.894453,43.2670114 L71.4572366,42.716259 C71.2959987,42.7730821 71.340033,42.7109073 71.340033,42.8891966 L71.340033,41.2383082 L71.340033,32.67118 L71.340033,31.0213866 C71.340033,31.201009 71.2966936,31.1401427 71.4585595,31.197102 L69.8899248,30.6451051 L64.6045889,28.7729428 C63.7860629,28.483006 63.133322,27.8526255 62.8150418,27.0446986 C62.6627005,26.6579936 62.5139845,26.30117 62.366153,25.969466 C62.0086521,25.1673066 62.0205943,24.2487793 62.3988294,23.4561855 L64.8070427,18.4097628 L65.5186501,16.9213355 C65.440972,17.0838102 65.4286392,17.0131386 65.5525845,17.1365744 L64.3835357,15.9723271 L58.2882112,9.91977085 L57.1160547,8.75421248 C57.2336891,8.87118476 57.142127,8.85550668 57.2905129,8.78554429 L55.7999999,9.48829679 L50.7351647,11.8904873 C49.9460194,12.2647694 49.0329434,12.2765603 48.2343963,11.9227808 C47.8841438,11.7676087 47.5278433,11.620397 47.1587133,11.4781097 C46.3439326,11.1640388 45.7064296,10.5105504 45.4126297,9.68824288 L43.536386,4.43686062 L42.9857052,2.90639001 C43.0389323,3.0543206 42.9618331,3 43.1309823,3 L41.4757035,3 Z" id="Path" fill="#A6A9A7"></path>
                        <path d="M37.7418629,46.4901961 C43.3460408,46.4901961 47.8914054,41.9704175 47.8914054,36.3921569 C47.8914054,30.8138962 43.3460408,26.2941176 37.7418629,26.2941176 C32.1376851,26.2941176 27.5923204,30.8138962 27.5923204,36.3921569 C27.5923204,41.9704175 32.1376851,46.4901961 37.7418629,46.4901961 L37.7418629,46.4901961 Z" id="Shape" fill="#2C302E"></path>
                        <path d="M37.7418629,44.4901961 C33.2397351,44.4901961 29.5923204,40.8633128 29.5923204,36.3921569 C29.5923204,31.9210009 33.2397351,28.2941176 37.7418629,28.2941176 C42.2439907,28.2941176 45.8914054,31.9210009 45.8914054,36.3921569 C45.8914054,40.8633128 42.2439907,44.4901961 37.7418629,44.4901961 L37.7418629,44.4901961 Z" id="Path" fill="#FFFFFF"></path>
                        <path d="M37.7418629,51.6764706 C46.2287487,51.6764706 53.1098695,44.834084 53.1098695,36.3921569 C53.1098695,27.9502297 46.2287487,21.1078431 37.7418629,21.1078431 C29.2549771,21.1078431 22.3738563,27.9502297 22.3738563,36.3921569 C22.3738563,44.834084 29.2549771,51.6764706 37.7418629,51.6764706 L37.7418629,51.6764706 Z M37.7418629,50.6764706 C29.8060021,50.6764706 23.3738563,44.2805317 23.3738563,36.3921569 C23.3738563,28.503782 29.8060021,22.1078431 37.7418629,22.1078431 C45.6777237,22.1078431 52.1098695,28.503782 52.1098695,36.3921569 C52.1098695,44.2805317 45.6777237,50.6764706 37.7418629,50.6764706 L37.7418629,50.6764706 Z" id="Shape" fill="#2C302E"></path>
                    </g>
                    <g id="noun_18125_cc-copy" transform="translate(30.718175, 61.752186) rotate(-14.000000) translate(-30.718175, -61.752186) translate(5.718175, 37.252186)">
                        <path d="M27.4377731,-3.69482223e-13 L27.4377731,-3.69482223e-13 L27.8586593,-3.69482223e-13 C28.9543282,-3.69482223e-13 30.1584538,0.845962509 30.5339342,1.88951015 L30.6684057,2.26323785 L31.9111112,5.74140766 C32.181151,5.84549902 32.4471724,5.95518454 32.7127919,6.07286172 L36.0633752,4.48372032 L36.4439437,4.30428626 C37.4346558,3.83717594 38.8808336,4.08266169 39.6612189,4.8586542 L39.9592621,5.15501968 L43.9905708,9.15804171 L44.2886139,9.4548596 C45.0644926,10.2275485 45.315447,11.6698122 44.8390704,12.6662211 L44.6628574,13.0347955 L43.0703458,16.3719126 C43.1862781,16.6320411 43.2963836,16.8979635 43.4010642,17.1636862 L46.8975172,18.4021935 L47.2948848,18.542024 C48.3293289,18.9060367 49.1787911,20.1002758 49.1787911,21.2047092 L49.1787911,21.6132422 L49.1787911,27.280727 L49.1787911,27.7004969 C49.1787911,28.7932596 48.3353375,29.9878596 47.2948848,30.3545334 L46.8975172,30.4945727 L43.4010642,31.7316815 C43.2961827,31.9946071 43.1860771,32.2605295 43.0703458,32.5234551 L44.6628574,35.8577751 L44.8390704,36.2265528 C45.3148273,37.2222144 45.0689993,38.6612894 44.2886139,39.4379198 L43.9905708,39.7345289 L39.959463,43.7401482 L39.6614198,44.0360613 C38.8855412,44.8063947 37.440537,45.058034 36.4439787,44.5881193 L36.0633752,44.4086505 L32.7127919,42.8237047 C32.4485788,42.937386 32.181151,43.0470716 31.9111112,43.1511629 L30.6684057,46.6307313 L30.5341664,47.004426 C30.1581793,48.0510975 28.9620989,48.8937693 27.8600658,48.8937693 L27.4391795,48.8937693 L21.7412189,48.8937693 L21.3198427,48.8937693 C20.2228983,48.8937693 19.018251,48.0478815 18.6434191,47.004426 L18.5091799,46.6307313 L17.2664743,43.1511629 C16.997841,43.0468718 16.7304131,42.9371862 16.4645927,42.8237047 L13.1142103,44.4086505 L12.7336068,44.5881193 C11.7428036,45.0553203 10.2964767,44.8108692 9.51599976,44.0360613 L9.21792158,43.7401482 L5.1882203,39.7345289 L4.89017712,39.4379198 C4.1142985,38.6657745 3.86282114,37.2235115 4.33855277,36.2265528 L4.51452723,35.8577751 L6.10723973,32.5234551 C5.99130746,32.2631268 5.88120194,31.9944073 5.77792779,31.7316815 L2.28147477,30.4945727 L1.8840722,30.3545334 C0.849536997,29.9899771 8.95283847e-13,28.799607 8.95283847e-13,27.7004969 L8.95283847e-13,27.280727 L8.95283847e-13,21.6132422 L8.95283847e-13,21.2047092 C8.95283847e-13,20.1017127 0.843527854,18.9081511 1.8840722,18.542024 L2.28147477,18.4021935 L5.77792779,17.1636862 C5.88120194,16.8979635 5.99130746,16.6348381 6.10723973,16.3719126 L4.51452723,13.0347955 L4.33858686,12.6661872 C3.86356617,11.6709831 4.1099927,10.2318369 4.89037804,9.45465981 L5.18842123,9.15784192 L9.21772066,5.15501968 L9.51579884,4.8586542 C10.2917686,4.08714304 11.7368476,3.83446271 12.7334059,4.30428626 L13.1140094,4.48372032 L16.4643918,6.07286172 C16.7290067,5.95498475 16.997841,5.84549902 17.2662734,5.74140766 L18.5089789,2.26323785 L18.6432182,1.88951015 C19.0192053,0.842746239 20.2158057,-3.69482223e-13 21.3184803,-3.69482223e-13 L21.7396115,-3.69482223e-13 L27.4377731,-3.69482223e-13 Z" id="Shape" fill="#2C302E"></path>
                        <path d="M27.4377731,3 L27.4377731,3 L21.7396115,3 L21.3184803,3 C21.4823302,3 21.4149092,3.047577 21.4666086,2.90364368 L21.3340755,3.27260868 L20.09137,6.75077849 L19.6298426,8.04253308 L18.3509051,8.53847293 C18.0999059,8.6358041 17.8826623,8.72526887 17.6851447,8.81325629 L16.4250776,9.37457347 L15.1787333,8.7834119 L11.8347128,7.19727888 L11.4541092,7.01784482 C11.6020705,7.08760059 11.5134635,7.10293726 11.6309985,6.98607762 L11.3320368,7.28332121 L7.3053676,11.2835272 L7.00732442,11.5803451 C7.13047234,11.4577035 7.11870572,11.5262596 7.04599092,11.3739166 L7.22197111,11.7426084 L8.81468362,15.0797254 L9.40776751,16.3223793 L8.85224103,17.5822711 C8.74914442,17.8160864 8.65713042,18.0369822 8.57416369,18.2504542 L8.07595853,19.5323277 L6.77959875,19.991522 L3.27721662,21.2321225 L2.87981404,21.371953 C3.04126931,21.3151432 3,21.3734893 3,21.2047092 L3,21.6132422 L3,27.280727 L3,27.7004969 C3,27.5223799 3.04229375,27.5818597 2.88113683,27.5250701 L3.28214054,27.666381 L6.77859356,28.9034898 L8.06914834,29.3601116 L8.56996357,30.6341679 C8.669563,30.8875453 8.76066116,31.1074022 8.84777186,31.3030111 L9.41088747,32.5674987 L8.81426217,33.8165249 L7.22206485,37.1497658 L7.0460904,37.5185435 C7.11960836,37.3644769 7.13204765,37.4365573 7.00637542,37.3114897 L7.30317352,37.6068605 L11.3314956,41.6111097 L11.6295738,41.9070228 C11.5117428,41.7900477 11.6011555,41.8053176 11.4541072,41.8746565 L11.8313248,41.6967868 L15.1817072,40.111841 L16.4014714,39.5348143 L17.6424781,40.0646132 C17.8886926,40.1697247 18.1243756,40.2660742 18.3522089,40.3545256 L19.6304994,40.8507945 L20.0916994,42.1421519 L21.3325418,45.6165184 L21.466781,45.9902132 C21.413317,45.8413802 21.4876529,45.8937693 21.3198427,45.8937693 L21.7412189,45.8937693 L27.4391795,45.8937693 L27.8600658,45.8937693 C27.6953911,45.8937693 27.7624554,45.8464277 27.7108045,45.9902132 L27.8431806,45.6217202 L29.0858861,42.1421519 L29.5485522,40.8466896 L30.8320983,40.3519253 C31.0580807,40.2648166 31.2893679,40.1702465 31.5270949,40.0679611 L32.7712534,39.5326446 L33.9956145,40.1118112 L37.3428748,41.6951876 L37.7234784,41.8746565 C37.5765091,41.805355 37.665737,41.7899742 37.5477208,41.9071469 L37.8448811,41.6121108 L41.8743725,37.6080988 L42.1724156,37.3114897 C42.0480379,37.435269 42.0595673,37.3679355 42.1322138,37.5199698 L41.9557715,37.1507121 L40.3632599,33.8163921 L39.7701159,32.5744973 L40.3245705,31.3148535 C40.4183503,31.1017987 40.5139075,30.8725223 40.6145803,30.6201476 L41.1184219,29.3570765 L42.4003984,28.9034898 L45.9003745,27.665137 L46.297742,27.5250977 C46.1366058,27.5818849 46.1787911,27.5223564 46.1787911,27.7004969 L46.1787911,27.280727 L46.1787911,21.6132422 L46.1787911,21.2047092 C46.1787911,21.3758308 46.1351445,21.3142433 46.2990649,21.3719256 L45.8958462,21.2300293 L42.3993932,19.991522 L41.1108792,19.5351068 L40.6098461,18.2632778 C40.5142625,18.0206471 40.4215399,17.7981719 40.3301621,17.5931387 L39.766752,16.3289608 L40.3628385,15.0798582 L41.9562784,11.7407977 L42.1324915,11.3722233 C42.0584798,11.5270291 42.046173,11.4555663 42.1716676,11.5805449 L41.8767321,11.2868174 L37.8439375,7.28231892 L37.5458944,6.98595344 C37.6634537,7.10285098 37.5750914,7.0876955 37.7233366,7.01779944 L37.3489707,7.19430035 L33.9983874,8.78344175 L32.7554076,9.37297216 L31.4976191,8.81573523 C31.2813305,8.71991307 31.060983,8.6288727 30.8320983,8.54064526 L29.5487679,8.04596411 L29.0860146,6.75077849 L27.8455738,3.27892497 L27.7111023,2.90519727 C27.7641416,3.05260578 27.689537,3 27.8586593,3 L27.4377731,3 Z" id="Path" fill="#A6A9A7"></path>
                        <path d="M24.9676939,31.0935143 C28.8615739,31.0935143 32.0204682,27.9524016 32.0204682,24.0748115 C32.0204682,20.1972213 28.8615739,17.0561086 24.9676939,17.0561086 C21.073814,17.0561086 17.9149196,20.1972213 17.9149196,24.0748115 C17.9149196,27.9524016 21.073814,31.0935143 24.9676939,31.0935143 L24.9676939,31.0935143 Z" id="Shape" fill="#2C302E"></path>
                        <path d="M24.9676939,29.0935143 C22.175864,29.0935143 19.9149196,26.8452969 19.9149196,24.0748115 C19.9149196,21.304326 22.175864,19.0561086 24.9676939,19.0561086 C27.7595238,19.0561086 30.0204682,21.304326 30.0204682,24.0748115 C30.0204682,26.8452969 27.7595238,29.0935143 24.9676939,29.0935143 L24.9676939,29.0935143 Z" id="Path" fill="#FFFFFF"></path>
                        <path d="M24.9676939,35.0375566 C31.0543322,35.0375566 35.9896678,30.1300022 35.9896678,24.0748115 C35.9896678,18.0196207 31.0543322,13.1120664 24.9676939,13.1120664 C18.8810557,13.1120664 13.94572,18.0196207 13.94572,24.0748115 C13.94572,30.1300022 18.8810557,35.0375566 24.9676939,35.0375566 L24.9676939,35.0375566 Z M24.9676939,34.0375566 C19.4320807,34.0375566 14.94572,29.5764498 14.94572,24.0748115 C14.94572,18.5731731 19.4320807,14.1120664 24.9676939,14.1120664 C30.5033071,14.1120664 34.9896678,18.5731731 34.9896678,24.0748115 C34.9896678,29.5764498 30.5033071,34.0375566 24.9676939,34.0375566 L24.9676939,34.0375566 Z" id="Shape" fill="#2C302E"></path>
                    </g>
                </g>
            </g>
        </g>
    </g>
</svg>