<?xml version="1.0" encoding="UTF-8" standalone="no"?>
<svg width="142px" height="143px" viewBox="0 0 142 143" version="1.1" xmlns="http://www.w3.org/2000/svg" xmlns:xlink="http://www.w3.org/1999/xlink" xmlns:sketch="http://www.bohemiancoding.com/sketch/ns">
    <!-- Generator: Sketch 3.3.3 (12081) - http://www.bohemiancoding.com/sketch -->
    <title>Shape Copy 2 + Group</title>
    <desc>Created with Sketch.</desc>
    <defs>
        <path id="path-1" d="M0,9.56571484 L0,83.456244 C0,89.143203 2.54750661,95.2851759 7.58546482,101.719556 C12.0514465,107.410794 18.374569,113.238964 26.3765354,119.044312 C36.3668693,126.266051 46.5511903,131.644913 51.4950077,134.094 C56.4473834,131.644913 66.6317043,126.267478 76.6191854,119.044312 C84.6268574,113.24039 90.9385689,107.41222 95.4016978,101.719556 C100.443935,95.278044 103,89.1446294 103,83.456244 L103,9.56571484 L51.4950077,0.0945816288 L0,9.56571484 L0,9.56571484 Z"></path>
    </defs>
    <g id="Welcome" stroke="none" stroke-width="1" fill="none" fill-rule="evenodd" sketch:type="MSPage">
        <g id="VirgilSecurity-Landing-Page-New" sketch:type="MSArtboardGroup" transform="translate(-511.000000, -1086.000000)">
            <g id="Shape-Copy-2-+-Group" sketch:type="MSLayerGroup" transform="translate(511.000000, 1086.000000)">
                <g id="Group" transform="translate(31.000000, 0.000000)">
                    <path d="M0,13.5657148 L0,13.5657148 L0,10.2343152 L3.27644307,9.63170094 L54.7714508,0.160567728 L55.4949376,0.0275016288 L56.2184289,0.160542776 L107.723421,9.63167598 L111,10.2341984 L111,13.5657148 L111,87.456244 C111,94.1358958 108.105859,101.089314 102.54957,108.187531 C97.8300066,114.207274 91.244608,120.283224 82.9632766,126.285491 C74.5501552,132.370045 65.4668053,137.62506 57.2681479,141.679523 L55.4934732,142.557149 L53.7194024,141.678303 C45.5042951,137.608672 36.4426633,132.365008 28.027625,126.282 C19.7417447,120.270675 13.1525606,114.196066 8.43600474,108.185504 C2.89151568,101.104193 0,94.1399711 0,87.456244 L0,13.5657148 Z" id="Shape" fill="#9E0B0F" sketch:type="MSShapeGroup"></path>
                    <g id="Path-+-Rectangle-216" transform="translate(4.000000, 4.000000)">
                        <mask id="mask-2" sketch:name="Mask" fill="white">
                            <use xlink:href="#path-1"></use>
                        </mask>
                        <use id="Mask" fill="#BB241D" sketch:type="MSShapeGroup" xlink:href="#path-1"></use>
                        <rect id="Rectangle-216" fill="#DA322C" sketch:type="MSShapeGroup" mask="url(#mask-2)" x="-53" y="-33" width="105" height="182"></rect>
                        <path d="M58,107 L58,107 L90,107 L92,107 L92,109 L92,113 L92,115 L90,115 L58,115 L56,115 L56,113 L56,109 L56,107 L58,107 Z" id="Shape" fill="#2C302E" sketch:type="MSShapeGroup" mask="url(#mask-2)"></path>
                        <path d="M58,109 L58,109 L58,113 L90,113 L90,109 L58,109 Z" id="Path" fill="#FFFFFF" sketch:type="MSShapeGroup" mask="url(#mask-2)"></path>
                    </g>
                    <g transform="translate(22.000000, 31.000000)" stroke="#2C302E" fill="#FFFFFF" sketch:type="MSShapeGroup">
                        <path d="M68,58 C68,65.1797017 52.7776815,71 34,71 C15.2223185,71 0,65.1797017 0,58 L0,15 L68,15 L68,58 Z" id="Oval-120-Copy" stroke-width="2"></path>
                        <path d="M68,43 C68,50.1797017 52.7776815,56 34,56 C15.2223185,56 0,50.1797017 0,43 L0,22 L68,22 L68,43 Z" id="Oval-120-Copy-3"></path>
                        <path d="M68,28 C68,35.1797017 52.7776815,41 34,41 C15.2223185,41 0,35.1797017 0,28 L0,17 L15.8717968,17 C21.1189654,15.7331428 27.3355604,15 34,15 C40.6644396,15 46.8810346,15.7331428 52.1282032,17 L68,17 L68,28 Z" id="Oval-120-Copy-2"></path>
                        <ellipse id="Oval-120" stroke-width="2" cx="34" cy="13" rx="34" ry="13"></ellipse>
                    </g>
                    <circle id="Oval-124" stroke="#2C302E" fill="#FFFFFF" sketch:type="MSShapeGroup" cx="32.5" cy="61.5" r="1.5"></circle>
                    <rect id="Rectangle-77" stroke="#2C302E" fill="#F7F4E7" sketch:type="MSShapeGroup" x="56" y="102" width="4" height="11"></rect>
                    <circle id="Oval-124-Copy" stroke="#2C302E" fill="#FFFFFF" sketch:type="MSShapeGroup" cx="32.5" cy="76.5" r="1.5"></circle>
                    <circle id="Oval-124-Copy-2" stroke="#2C302E" fill="#FFFFFF" sketch:type="MSShapeGroup" cx="32.5" cy="91.5" r="1.5"></circle>
                </g>
                <g id="Rectangle-77-Copy-+-Oval-127-+-⟶" transform="translate(0.000000, 109.000000)" sketch:type="MSShapeGroup">
                    <path d="M22,10 L22,2 L89,2 L89,10 L22,10 L22,10 Z" id="Path" fill="#2C302E"></path>
                    <path d="M24,8 L24,4 L91,4 L91,8 L24,8 L24,8 Z" id="Path-Copy" fill="#FFFFFF"></path>
                    <circle id="Oval-127" stroke="#2C302E" fill="#FFFFFF" cx="89" cy="6" r="6"></circle>
                    <path d="M0,5.51331719 L13.4691076,5.51331719 L11.8970252,3.39951574 L12.3020595,3 L15,5.76755448 L15,6.23244552 L12.3020595,9 L11.8970252,8.60048426 L13.4691076,6.47941889 L0,6.47941889 L0,5.51331719 Z" id="⟶" fill="#2C302E" transform="translate(7.500000, 6.000000) scale(-1, 1) translate(-7.500000, -6.000000) "></path>
                </g>
            </g>
        </g>
    </g>
</svg>