<?xml version="1.0" encoding="UTF-8" standalone="no"?>
<svg width="182px" height="46px" viewBox="0 0 182 46" version="1.1" xmlns="http://www.w3.org/2000/svg" xmlns:xlink="http://www.w3.org/1999/xlink" xmlns:sketch="http://www.bohemiancoding.com/sketch/ns">
    <!-- Generator: Sketch 3.5.1 (25234) - http://www.bohemiancoding.com/sketch -->
    <title>Evernote_logo</title>
    <desc>Created with Sketch.</desc>
    <defs></defs>
    <g id="Page-1" stroke="none" stroke-width="1" fill="none" fill-rule="evenodd" sketch:type="MSPage">
        <g id="VirgilSecurity-Landing-Page-revised" sketch:type="MSArtboardGroup" transform="translate(-1015.000000, -1521.000000)">
            <g id="Evernote_logo" sketch:type="MSLayerGroup" transform="translate(1015.000000, 1521.000000)">
                <path d="M3.7786,8.95917182 L3.7814,8.95917182 L8.01616667,8.95917182 C8.25883333,8.95917182 8.45397778,8.75833677 8.45444444,8.51363574 C8.45444444,8.51205498 8.40303333,4.82375601 8.40303333,3.79808247 L8.40303333,3.78591065 C8.40303333,2.94352577 8.57702222,2.20910653 8.88004444,1.59363918 L9.02486667,1.31724399 C9.00868889,1.32001031 8.99243333,1.32807216 8.97633333,1.34451203 L0.748066667,9.63620962 C0.731966667,9.64964605 0.721933333,9.6671134 0.717266667,9.68505498 C0.887444444,9.59945704 1.12015556,9.4824811 1.15305556,9.46778007 C1.86962222,9.13921993 2.73847778,8.95917182 3.7786,8.95917182 L3.7786,8.95917182 Z M36.7305556,8.05632302 C36.3941667,6.22643986 35.3235556,5.32461856 34.3556111,4.97005498 C33.3112889,4.58648454 31.1937111,4.18916151 28.5330889,3.8704811 C26.3925667,3.61431959 23.8766889,3.63471134 22.3569889,3.68245017 C22.1746,2.41294502 21.2983556,1.25314433 20.3178889,0.851632302 C17.7055667,-0.216879725 13.6694444,0.041257732 12.6331333,0.33638488 C11.8097,0.570257732 10.8982222,1.04954296 10.3909556,1.7881512 C10.0507556,2.28150515 9.83064444,2.91357045 9.82893333,3.79658076 C9.82893333,4.29633677 9.84262222,5.47360481 9.85514444,6.51959107 C9.86758889,7.56881787 9.88112222,8.50723368 9.88112222,8.51363574 C9.88065556,9.44778351 9.13562222,10.2080481 8.21232222,10.2092337 L3.97685556,10.2092337 C3.07338889,10.2092337 2.38311111,10.3635155 1.85577778,10.6069519 C1.32766667,10.8506254 0.953633333,11.1791065 0.669433333,11.5677354 C0.103755556,12.3394605 0.00552222222,13.2917869 0.00785555556,14.2636357 C0.00785555556,14.2636357 0.0161777778,15.0578076 0.204477778,16.5949347 C0.361044444,17.7842955 1.6303,26.0929072 2.83585556,28.6198247 C3.3033,29.6029759 3.61464444,30.0124708 4.53296667,30.4458351 C6.57906667,31.3360378 11.2526556,32.3263814 13.4431111,32.6099691 C15.6296,32.894268 17.0019111,33.4918729 17.8197444,31.7493265 C17.8224667,31.7449794 17.9835444,31.3158041 18.2051333,30.686189 C18.9151667,28.4997663 19.0139444,26.5597835 19.0139444,25.1559141 C19.0139444,25.0131718 19.2200556,25.0066117 19.2200556,25.1559141 C19.2200556,26.1470481 19.0337778,29.6543505 21.6409667,30.5952955 C22.6702,30.9662199 24.8053556,31.2969141 26.9748111,31.5552887 C28.9364444,31.7843402 30.3600111,32.5687904 30.3600111,37.6830103 C30.3600111,40.7944914 29.7168667,41.2211375 26.3548444,41.2211375 C23.6295111,41.2211375 22.5907889,41.2928247 22.5907889,39.0925704 C22.5907889,37.314299 24.3215,37.5006701 25.6042111,37.5006701 C26.1771222,37.5006701 25.7613222,37.067622 25.7613222,35.9704983 C25.7613222,34.8791443 26.4330111,34.2482646 25.7977222,34.232299 C21.3622111,34.1082887 18.7523778,34.2271615 18.7523778,39.8642165 C18.7523778,44.981677 20.6795556,45.9319485 26.9747333,45.9319485 C31.9105111,45.9319485 33.6504,45.7677079 35.6884111,39.3416976 C36.0918444,38.0731409 37.0671,34.2017904 37.6573556,27.7017216 C38.0306111,23.5918351 37.3056444,11.1871684 36.7305556,8.05632302 L36.7305556,8.05632302 Z M28.1265444,21.7674055 C27.5167667,21.7457491 26.9302444,21.7848729 26.3833111,21.8741856 C26.5372333,20.6109244 27.0503333,19.0608351 28.868,19.1257251 C30.8801111,19.1960687 31.1620556,21.128622 31.1692111,22.437646 C30.3208111,22.0532062 29.2705,21.808268 28.1265444,21.7674055 L28.1265444,21.7674055 Z" id="Shape" fill="#807F83" sketch:type="MSShapeGroup"></path>
                <path d="M180.547811,14.0730756 C181.328544,14.0730756 181.957767,14.7159691 181.957767,15.5056357 C181.957767,16.2979897 181.328544,16.942543 180.547811,16.942543 C179.765756,16.942543 179.136611,16.2979897 179.136611,15.5056357 C179.136689,14.7159691 179.765756,14.0730756 180.547811,14.0730756 L180.547811,14.0730756 Z M180.547811,16.6894639 C181.177889,16.6894639 181.693789,16.1667869 181.693789,15.5056357 C181.693789,14.8451168 181.177811,14.3234674 180.547811,14.3234674 C179.916722,14.3234674 179.401056,14.8451168 179.401056,15.5056357 C179.401056,16.1667869 179.916722,16.6894639 180.547811,16.6894639 L180.547811,16.6894639 Z M179.946044,14.6861718 L180.566322,14.6861718 C180.964856,14.6861718 181.171589,14.8276495 181.171589,15.1582646 C181.171589,15.4573436 180.984533,15.5819072 180.754856,15.6250619 L181.189167,16.325811 L180.885756,16.325811 L180.461633,15.6382612 L180.211967,15.6382612 L180.211967,16.325811 L179.946122,16.325811 L179.946122,14.6861718 L179.946044,14.6861718 Z M180.211889,15.3877113 L180.566322,15.3877113 C180.823456,15.3877113 180.903722,15.2983986 180.903722,15.1446701 C180.903722,14.9924433 180.7764,14.9379072 180.566322,14.9379072 L180.211889,14.9379072 L180.211889,15.3877113 L180.211889,15.3877113 Z" id="Shape" fill="#7AC143" sketch:type="MSShapeGroup"></path>
                <g id="Group" transform="translate(43.477778, 13.673540)" fill="#888888" sketch:type="MSShapeGroup">
                    <path d="M0.0468222222,15.0814399 L1.94296667,15.0814399 L2.03443333,2.77019588 L0.0468222222,2.77019588 L0.0468222222,0.408151203 L12.6186667,0.408151203 L12.7718889,5.19554983 L10.2940444,5.19554983 L10.0803111,2.77019588 L5.3382,2.77019588 L5.30747778,7.58834021 L10.1106444,7.58834021 L10.1106444,9.95172852 L5.27722222,9.95172852 L5.24712222,15.0813608 L10.0191,15.0813608 L10.3253889,12.3442818 L13.0170444,12.3442818 L12.7112222,17.4431684 L0.0468222222,17.4431684 L0.0468222222,15.0814399 L0.0468222222,15.0814399 Z" id="Shape"></path>
                    <path d="M32.7779667,2.77011684 L31.1876444,2.77011684 L25.2212333,17.4431684 L21.7959778,17.4431684 L15.7997,2.77011684 L14.1171333,2.77011684 L14.1171333,0.408072165 L21.2765,0.408072165 L21.2765,2.77011684 L19.5937,2.77011684 L23.7230778,14.3350859 L23.7837444,14.3350859 L27.8832556,2.77011684 L25.8650778,2.77011684 L25.8650778,0.408072165 L32.7779667,0.408072165 L32.7779667,2.77011684 L32.7779667,2.77011684 Z" id="Shape"></path>
                    <path d="M34.4295,15.0814399 L36.3257222,15.0814399 L36.4177333,2.77019588 L34.4295,2.77019588 L34.4295,0.408151203 L47.0012667,0.408151203 L47.1544889,5.19554983 L44.6770333,5.19554983 L44.4625222,2.77019588 L39.7207222,2.77019588 L39.6903111,7.58834021 L44.4934778,7.58834021 L44.4934778,9.95172852 L39.6604444,9.95172852 L39.6291778,15.0813608 L44.4009222,15.0813608 L44.7079111,12.3442818 L47.3998,12.3442818 L47.0934333,17.4431684 L34.4295778,17.4431684 L34.4295778,15.0814399 L34.4295,15.0814399 Z" id="Shape"></path>
                    <path d="M50.5505,15.0814399 L52.4467222,15.0814399 L52.5383444,2.77019588 L50.5505,2.77019588 L50.5505,0.408151203 L58.2897778,0.408151203 C62.1758667,0.408151203 63.4287889,2.67764261 63.4287889,4.88429897 C63.4287889,6.84293471 62.4813,8.61504124 59.4825,9.39206186 L59.4825,9.45402749 C61.0424889,9.88881443 61.4415667,10.293488 63.0013222,13.0293024 C64.0402,14.801646 64.4074667,15.0814399 64.9896333,15.0814399 C65.2338556,15.0814399 65.4782333,15.0186838 65.6927444,14.9881753 L65.6927444,17.4432474 L63.9790667,17.4432474 C61.7150333,17.4432474 61.4414889,17.1644811 59.6674556,13.5883368 C58.0752667,10.4178144 57.7080778,10.2006976 56.4844778,10.2006976 L55.8127111,10.2006976 L55.7814444,15.0815189 L57.7688222,15.0815189 L57.7688222,17.4433265 L50.5504222,17.4433265 L50.5504222,15.0814399 L50.5505,15.0814399 Z M55.8436667,7.8371512 L57.1582667,7.8371512 C58.9624,7.8371512 60.1854556,6.84285567 60.1854556,5.25798969 C60.1854556,3.70339519 59.4221444,2.77019588 57.8916333,2.77019588 L55.8719778,2.77019588 L55.8436667,7.8371512 L55.8436667,7.8371512 Z" id="Shape"></path>
                    <path d="M81.0802222,2.77011684 L79.0910556,2.77011684 L79.0910556,0.408072165 L85.6675556,0.408072165 L85.6675556,2.77011684 L83.7707889,2.77011684 L83.6791667,17.4431684 L81.1708333,17.4431684 L72.2075667,5.31956014 L72.1468222,5.31956014 L72.0542667,15.0813608 L74.0435889,15.0813608 L74.0435889,17.4431684 L67.4666222,17.4431684 L67.4666222,15.0813608 L69.3633111,15.0813608 L69.4549333,2.77011684 L67.4667,2.77011684 L67.4667,0.408072165 L72.4225444,0.408072165 L80.9266889,11.9413471 L80.9878222,11.9413471 L81.0802222,2.77011684 L81.0802222,2.77011684 Z" id="Shape"></path>
                    <path d="M95.1811,0.0649690722 C100.963489,0.0649690722 103.502156,3.95102062 103.502156,8.67724399 C103.502156,14.0549759 100.350444,17.7845326 95.1811,17.7845326 C89.3991778,17.7845326 86.8602,13.8992715 86.8602,9.14412027 C86.8601222,3.7972921 90.0099667,0.0649690722 95.1811,0.0649690722 L95.1811,0.0649690722 Z M95.1811,15.0497457 C98.3003778,15.0497457 100.074411,12.3443608 100.074411,8.89396564 C100.074411,5.00941581 97.9959556,2.80204811 95.1811,2.80204811 C92.0604222,2.80204811 90.2865444,5.50616838 90.2865444,9.01916151 C90.2865444,12.8429313 92.3667889,15.0497457 95.1811,15.0497457 L95.1811,15.0497457 Z" id="Shape"></path>
                    <path d="M108.762967,15.0814399 L110.658256,15.0814399 L110.749722,2.77019588 L107.386767,2.77019588 L107.261778,5.19554983 L104.725133,5.19554983 L104.906822,0.408151203 L119.928822,0.408151203 L120.112222,5.19554983 L117.572078,5.19554983 L117.449889,2.77019588 L114.084989,2.77019588 L113.993056,15.0814399 L115.980433,15.0814399 L115.980433,17.4432474 L108.763044,17.4432474 L108.763044,15.0814399 L108.762967,15.0814399 Z" id="Shape"></path>
                    <path d="M121.976089,15.0814399 L123.872933,15.0814399 L123.965567,2.77019588 L121.976089,2.77019588 L121.976089,0.408151203 L134.550578,0.408151203 L134.702322,5.19554983 L132.225333,5.19554983 L132.011211,2.77019588 L127.269722,2.77019588 L127.239078,7.58834021 L132.040144,7.58834021 L132.040144,9.95172852 L127.2082,9.95172852 L127.176933,15.0813608 L131.948756,15.0813608 L132.256522,12.3442818 L134.946622,12.3442818 L134.641967,17.4431684 L121.976089,17.4431684 L121.976089,15.0814399 L121.976089,15.0814399 Z" id="Shape"></path>
                </g>
            </g>
        </g>
    </g>
</svg>