<?xml version="1.0" encoding="UTF-8" standalone="no"?>
<svg width="138px" height="46px" viewBox="0 0 138 46" version="1.1" xmlns="http://www.w3.org/2000/svg" xmlns:xlink="http://www.w3.org/1999/xlink" xmlns:sketch="http://www.bohemiancoding.com/sketch/ns">
    <!-- Generator: Sketch 3.5.1 (25234) - http://www.bohemiancoding.com/sketch -->
    <title>Imported Layers</title>
    <desc>Created with Sketch.</desc>
    <defs></defs>
    <g id="Page-1" stroke="none" stroke-width="1" fill="none" fill-rule="evenodd" sketch:type="MSPage">
        <g id="VirgilSecurity-Landing-Page-revised" sketch:type="MSArtboardGroup" transform="translate(-806.000000, -1522.000000)" fill="#888888">
            <g id="Imported-Layers" sketch:type="MSLayerGroup" transform="translate(806.000000, 1522.000000)">
                <path d="M33.96318,16.2290244 L17.87652,16.2290244 L17.87652,21.0802012 L29.285394,21.0802012 C28.721802,27.882872 23.152674,30.7839573 17.89584,30.7839573 C11.170272,30.7839573 5.301408,25.4061646 5.301408,17.8686159 C5.301408,10.5258659 10.895928,4.87095122 17.910606,4.87095122 C23.322552,4.87095122 26.511594,8.37704878 26.511594,8.37704878 L29.853954,4.85959146 C29.853954,4.85959146 25.563948,0.0060304878 17.739762,0.0060304878 C7.776576,0.0058902439 0.068862,8.5515122 0.068862,17.7819451 C0.068862,26.8266951 7.319244,35.6462134 17.993682,35.6462134 C27.38196,35.6462134 34.254222,29.1102866 34.254222,19.4452378 C34.254222,17.4062317 33.962904,16.2277622 33.962904,16.2277622 L33.96318,16.2290244" id="Fill-1" sketch:type="MSShapeGroup"></path>
                <path d="M47.1408,12.7157744 C40.539984,12.7157744 35.809482,17.9601951 35.809482,24.0766524 C35.809482,30.2835671 40.397844,35.6254573 47.218356,35.6254573 C53.392752,35.6254573 58.451142,30.8295366 58.451142,24.2100244 C58.451142,16.6231098 52.567098,12.7157744 47.1408,12.7157744 L47.1408,12.7157744 Z M47.206488,17.2152195 C50.452524,17.2152195 53.528544,19.8822378 53.528544,24.1797317 C53.528544,28.3860671 50.465634,31.1290976 47.191584,31.1290976 C43.5942,31.1290976 40.75623,28.2010854 40.75623,24.1463537 C40.75623,20.1785732 43.55901,17.2152195 47.206488,17.2152195 L47.206488,17.2152195 Z" id="Fill-2" sketch:type="MSShapeGroup"></path>
                <path d="M71.78484,12.7157744 C65.184024,12.7157744 60.453522,17.9601951 60.453522,24.0766524 C60.453522,30.2835671 65.041884,35.6254573 71.862396,35.6254573 C78.036792,35.6254573 83.095182,30.8295366 83.095182,24.2100244 C83.095182,16.6231098 77.211138,12.7157744 71.78484,12.7157744 L71.78484,12.7157744 Z M71.850528,17.2152195 C75.096564,17.2152195 78.172584,19.8822378 78.172584,24.1797317 C78.172584,28.3860671 75.109674,31.1290976 71.835624,31.1290976 C68.23824,31.1290976 65.40027,28.2010854 65.40027,24.1463537 C65.40027,20.1785732 68.20305,17.2152195 71.850528,17.2152195 L71.850528,17.2152195 Z" id="Fill-3" sketch:type="MSShapeGroup"></path>
                <path d="M95.95692,12.7278354 C89.898168,12.7278354 85.135788,18.1206341 85.135788,24.173561 C85.135788,31.068372 90.65703,35.6406037 95.852454,35.6406037 C99.064956,35.6406037 100.77312,34.34475 102.034302,32.8571829 L102.034302,35.1159512 C102.034302,39.0680244 99.673122,41.4346402 96.109134,41.4346402 C92.666172,41.4346402 90.93924,38.8329756 90.339078,37.356628 L86.00712,39.1970488 C87.543888,42.499372 90.637572,45.9432012 96.145014,45.9432012 C102.16899,45.9432012 106.76025,42.0871951 106.76025,34.0001707 L106.76025,13.4165732 L102.03444,13.4165732 L102.03444,15.3569878 C100.5813,13.7656402 98.5941,12.7281159 95.95692,12.7281159 L95.95692,12.7278354 L95.95692,12.7278354 Z M96.395484,17.2181646 C99.365934,17.2181646 102.416148,19.7958476 102.416148,24.1978232 C102.416148,28.6721646 99.37242,31.1380732 96.329796,31.1380732 C93.099768,31.1380732 90.094266,28.4727378 90.094266,24.2403171 C90.094266,19.8425488 93.215688,17.2181646 96.395346,17.2181646 L96.395484,17.2181646 L96.395484,17.2181646 Z" id="Fill-4" sketch:type="MSShapeGroup"></path>
                <path d="M127.77282,12.7004878 C122.057688,12.7004878 117.259014,17.3215244 117.259014,24.1401829 C117.259014,31.355311 122.607756,35.6344329 128.321784,35.6344329 C133.090788,35.6344329 136.017768,32.9829817 137.764572,30.6073902 L133.868142,27.972628 C132.857016,29.5673415 131.166654,31.125872 128.345658,31.125872 C125.176902,31.125872 123.719898,29.3624451 122.81724,27.6542744 L137.931,21.2810305 L137.146332,19.4132622 C135.686292,15.7557012 132.280452,12.701189 127.773372,12.701189 L127.77282,12.7004878 L127.77282,12.7004878 Z M127.969746,17.1059695 C130.02912,17.1059695 131.51124,18.2186646 132.140658,19.5528049 L122.047476,23.840061 C121.612362,20.5209085 124.706598,17.1059695 127.969746,17.1059695 L127.969746,17.1059695 Z" id="Fill-5" sketch:type="MSShapeGroup"></path>
                <path d="M110.05362,1.19067073 L115.01817,1.19067073 L115.01817,34.9543902 L110.05362,34.9543902 L110.05362,1.19067073 Z" id="Fill-6" sketch:type="MSShapeGroup"></path>
            </g>
        </g>
    </g>
</svg>