<?xml version="1.0" encoding="UTF-8" standalone="no"?>
<svg width="131px" height="143px" viewBox="0 0 131 143" version="1.1" xmlns="http://www.w3.org/2000/svg" xmlns:xlink="http://www.w3.org/1999/xlink" xmlns:sketch="http://www.bohemiancoding.com/sketch/ns">
    <!-- Generator: Sketch 3.3.3 (12081) - http://www.bohemiancoding.com/sketch -->
    <title>Shape Copy + Group</title>
    <desc>Created with Sketch.</desc>
    <defs>
        <path id="path-1" d="M0,9.56571484 L0,83.456244 C0,89.143203 2.54750661,95.2851759 7.58546482,101.719556 C12.0514465,107.410794 18.374569,113.238964 26.3765354,119.044312 C36.3668693,126.266051 46.5511903,131.644913 51.4950077,134.094 C56.4473834,131.644913 66.6317043,126.267478 76.6191854,119.044312 C84.6268574,113.24039 90.9385689,107.41222 95.4016978,101.719556 C100.443935,95.278044 103,89.1446294 103,83.456244 L103,9.56571484 L51.4950077,0.0945816288 L0,9.56571484 L0,9.56571484 Z"></path>
        <path id="path-3" d="M0,5.99678336 L0,5.99678336 L0,41.0032166 C0,44.3111082 2.6898076,47 6.00361087,47 L62.9963891,47 C66.3128298,47 69,44.3149882 69,41.0032166 L69,5.99678336 C69,2.68889176 66.3101924,0 62.9963891,0 L6.00361087,0 C2.68717016,0 0,2.6850118 0,5.99678336 L0,5.99678336 Z"></path>
    </defs>
    <g id="Welcome" stroke="none" stroke-width="1" fill="none" fill-rule="evenodd" sketch:type="MSPage">
        <g id="VirgilSecurity-Landing-Page-New" sketch:type="MSArtboardGroup" transform="translate(-767.000000, -1086.000000)">
            <g id="Shape-Copy-+-Group" sketch:type="MSLayerGroup" transform="translate(767.000000, 1086.000000)">
                <path d="M20,13.5657148 L20,13.5657148 L20,10.2343152 L23.2764431,9.63170094 L74.7714508,0.160567728 L75.4949376,0.0275016288 L76.2184289,0.160542776 L127.723421,9.63167598 L131,10.2341984 L131,13.5657148 L131,87.456244 C131,94.1358958 128.105859,101.089314 122.54957,108.187531 C117.830007,114.207274 111.244608,120.283224 102.963277,126.285491 C94.5501552,132.370045 85.4668053,137.62506 77.2681479,141.679523 L75.4934732,142.557149 L73.7194024,141.678303 C65.5042951,137.608672 56.4426633,132.365008 48.027625,126.282 C39.7417447,120.270675 33.1525606,114.196066 28.4360047,108.185504 C22.8915157,101.104193 20,94.1399711 20,87.456244 L20,13.5657148 Z" id="Shape" fill="#9E0B0F" sketch:type="MSShapeGroup"></path>
                <g id="Path-+-Rectangle-217" transform="translate(24.000000, 4.000000)">
                    <mask id="mask-2" sketch:name="Mask" fill="white">
                        <use xlink:href="#path-1"></use>
                    </mask>
                    <use id="Mask" fill="#BB241D" sketch:type="MSShapeGroup" xlink:href="#path-1"></use>
                    <rect id="Rectangle-217" fill="#DA322C" sketch:type="MSShapeGroup" mask="url(#mask-2)" x="-45" y="-33" width="97" height="191"></rect>
                </g>
                <g id="Group" transform="translate(61.000000, 36.000000)" sketch:type="MSShapeGroup">
                    <path d="M61.9912917,61.635 C61.9922917,61.888 61.9922917,62.49 61.9642917,63.238 C52.6052917,67.568 42.0862917,70 30.9672917,70 C19.8812917,70 9.3922917,67.583 0.0552917049,63.277 C0.0262917049,62.505 0.0252917049,61.883 0.0262917049,61.629 C0.0252917049,61.352 0.0272917049,61.188 0.0272917049,61.188 C0.0112917049,60.805 -0.0017082951,60.382 0.0012917049,59.933 C-0.0377082951,56.523 0.781291705,51.327 5.8972917,50.068 C13.6482917,48.158 20.2962917,44.934 20.3432917,44.911 C30.9672909,48.7189259 32.0168114,47.5890429 41.9152917,45.23 C41.9152917,45.23 48.3672917,48.151 56.1462917,50.067 C61.2502917,51.325 62.0772917,56.498 62.0432917,59.908 C62.0462917,60.485 62.0242917,61.018 61.9912917,61.483 L61.9912917,61.635 Z" id="Shape" stroke="#2C302E" stroke-width="2" fill="#FFFFFF"></path>
                    <path d="M18.967041,23.8320312 L18.9019905,23.6941674 C17.9614344,21.7008154 16.0803223,17.7141113 16.0803223,17.7141113 L17.3393555,9.62084961 L20.7226562,5.69995117 L25.4143066,1.75756836 L29.484375,0.83203125 L34.1455078,0.663818359 L39.4719238,3.15722656 L42.3127441,4.91259766 L46.3203125,8.25854492 L47.5522461,15.7685547 L46.987793,19.0649414 L45.6716309,22.1772461 L44.6540527,22.5732422 L43.4057617,22.4023438 L44.0083008,17.8652344 L44.7817383,13.4694824 L44.2416992,11.7106934 L43.2512207,11.2548828 L38.4101562,11.8625488 L34.4626465,13.6884766 L31.0654297,14.1147461 L25.6687012,12.6413574 L22.0874023,10.3701172 L21.0751953,9.91699219 L18.7770996,13.9975586 L18.5410156,16.8356934 L18.7119141,19.1066895 L19.5559082,21.4760742 L18.967041,23.8320312 Z" id="Path-536" fill="#EBECEC"></path>
                    <path d="M21.4752917,39.281 C19.4972917,36.688 18.5782917,33.577 18.1702917,30.907 C17.4422917,30.848 16.4802917,29.812 15.4472917,26.119 C14.1212917,21.379 15.3602917,20.428 16.5682917,20.428 C16.6482917,20.428 16.7282917,20.432 16.8072917,20.44 C15.8722917,17.786 15.8532917,15.174 16.4792917,12.758 C17.1382917,9.913 18.6582917,7.635 20.3632917,5.873 C21.7521974,3.9499611 22.9631349,3.59399406 27.4452917,1.061 C28.4402917,0.72 29.4982917,0.501 30.6192917,0.448 C31.0892917,0.407 31.5432917,0.387 31.9822917,0.387 C34.7782917,0.387 36.9582917,1.174 38.5862917,2.15 C39.6153586,2.72418419 40.4107291,3.36640148 41.005632,3.94996099 C41.2460944,4.18583833 42.4652917,5.796 42.4652917,5.796 C42.4652917,5.796 43.19389,5.8478 44.0811113,6.41387095 C44.4304337,6.63674801 44.8043458,6.9393476 45.168059,7.34989692 C46.7591898,9.14592121 48.1551328,13.0078741 46.4432917,21.299 C47.3952917,21.632 48.0662917,22.953 46.9632917,26.895 C45.8982917,30.703 44.9092917,31.686 44.1732917,31.686 C43.9712917,31.686 43.7892917,31.612 43.6292917,31.502 C43.1932917,33.982 42.3022917,36.766 40.5452917,39.138 C34.0639641,43.8940419 30.6192915,46.6757802 21.4752917,39.281 Z" id="Shape-Copy-2" stroke="#2C302E" stroke-width="2" fill="#FFFFFF"></path>
                    <path d="M17.2670898,20.6870117 L19.095459,24.1152344 L19.9001465,23.671875 C19.9001465,23.671875 17.8623047,17.0493164 18.6845703,14.6235352 C19.5068359,12.1977539 21.3310547,9.91113281 21.3310547,9.91113281 C21.3310547,9.91113281 28.9902344,16.3869629 34.8183594,13.4594727 C40.6464844,10.5319824 44.1765137,11.6738281 44.1765137,11.6738281 C44.1765137,11.6738281 45.0275879,14.112793 44.6020508,16.107666 C44.1765137,18.1025391 43.5107422,22.376709 43.5107422,22.376709 L45.1984863,22.6152344 L46.2541504,20.5507812" id="Path-535" stroke="#2C302E"></path>
                </g>
                <g id="Group" transform="translate(0.000000, 50.000000)">
                    <path d="M0,7.99678336 C0,3.58028186 3.58276062,0 8.00361087,0 L64.9963891,0 C69.4166614,0 73,3.58622096 73,7.99678336 L73,43.0032166 C73,47.4197181 69.4172394,51 64.9963891,51 L8.00361087,51 C3.58333864,51 0,47.413779 0,43.0032166 L0,7.99678336 L0,7.99678336 Z" id="Shape" fill="#2C302E" sketch:type="MSShapeGroup"></path>
                    <g id="Path-+-Rectangle-71-Copy-3" transform="translate(2.000000, 2.000000)">
                        <mask id="mask-4" sketch:name="Mask" fill="white">
                            <use xlink:href="#path-3"></use>
                        </mask>
                        <use id="Mask" fill="#FFFFFF" sketch:type="MSShapeGroup" xlink:href="#path-3"></use>
                        <path d="M-1,0 L36,0 L13.5757576,49 L-1,49 L-1,0 Z" id="Rectangle-71-Copy-3" opacity="0.6" fill-opacity="0.18" fill="#424B54" sketch:type="MSShapeGroup" mask="url(#mask-4)"></path>
                    </g>
                    <rect id="Rectangle-81" stroke="#424B54" fill="#FFFFFF" sketch:type="MSShapeGroup" x="23" y="10" width="41" height="9"></rect>
                    <rect id="Rectangle-85" stroke="#424B54" sketch:type="MSShapeGroup" x="42" y="35" width="22" height="9"></rect>
                    <rect id="Rectangle-83" stroke="#424B54" fill="#FFFFFF" sketch:type="MSShapeGroup" x="7" y="13" width="12" height="3"></rect>
                    <rect id="Rectangle-83-Copy" stroke="#424B54" fill="#FFFFFF" sketch:type="MSShapeGroup" x="7" y="25" width="12" height="3"></rect>
                    <rect id="Rectangle-83-Copy-2" fill="#424B54" sketch:type="MSShapeGroup" x="47" y="39" width="12" height="1"></rect>
                    <rect id="Rectangle-81-Copy" stroke="#424B54" fill="#FFFFFF" sketch:type="MSShapeGroup" x="23" y="22" width="41" height="9"></rect>
                </g>
            </g>
        </g>
    </g>
</svg>