<?xml version="1.0" encoding="UTF-8" standalone="no"?>
<svg width="72px" height="93px" viewBox="0 0 72 93" version="1.1" xmlns="http://www.w3.org/2000/svg" xmlns:xlink="http://www.w3.org/1999/xlink" xmlns:sketch="http://www.bohemiancoding.com/sketch/ns">
    <!-- Generator: Sketch 3.5.1 (25234) - http://www.bohemiancoding.com/sketch -->
    <title>Path + Rectangle 217</title>
    <desc>Created with Sketch.</desc>
    <defs>
        <path id="path-1" d="M2.88,9.0432691 L2.88,57.0979489 C2.88,60.7964607 4.53243672,64.7908906 7.8003015,68.9754873 C10.6971545,72.676782 14.7986393,76.4671305 19.9891041,80.2426367 C26.4693206,84.9392921 33.0753667,88.4374331 36.2821671,90.0301958 C39.4945189,88.4374331 46.100565,84.9402198 52.5789311,80.2426367 C57.7730967,76.4680581 61.8671798,72.6777097 64.7621824,68.9754873 C68.0328228,64.7862524 69.6908108,60.7973884 69.6908108,57.0979489 L69.6908108,9.0432691 L36.2821671,2.88372093 L2.88,9.0432691 L2.88,9.0432691 Z"></path>
    </defs>
    <g id="Page-1" stroke="none" stroke-width="1" fill="none" fill-rule="evenodd" sketch:type="MSPage">
        <g id="VirgilSecurity---developers" sketch:type="MSArtboardGroup" transform="translate(-766.000000, -1108.000000)">
            <g id="PHP-Copy" sketch:type="MSLayerGroup" transform="translate(730.000000, 1108.000000)">
                <g id="Path-+-Rectangle-217" transform="translate(36.000000, 0.000000)">
                    <path d="M0,8.8224579 L0,8.8224579 L0,6.65588334 L2.12526037,6.26397334 L35.5274275,0.104425166 L35.9967163,0.0178856747 L36.466008,0.104408938 L69.8746516,6.26395711 L72,6.65580737 L72,8.8224579 L72,56.8771377 C72,61.2212469 70.1227194,65.7434003 66.5186397,70.3597231 C63.4573016,74.2746609 59.1856917,78.2261529 53.8140173,82.1297246 C48.3568574,86.0868122 42.4649548,89.5044097 37.1469067,92.1412281 L35.9957664,92.7119917 L34.8450178,92.1404346 C29.5162995,89.4937519 23.6384843,86.0835366 18.1800811,82.1274543 C12.8054561,78.2179913 8.53139067,74.2673716 5.47200308,70.3584047 C1.87557774,65.7530766 0,61.2238973 0,56.8771377 L0,8.8224579 Z" id="Shape" fill="#535353" sketch:type="MSShapeGroup"></path>
                    <mask id="mask-2" sketch:name="Mask" fill="white">
                        <use xlink:href="#path-1"></use>
                    </mask>
                    <use id="Mask" fill="#696969" sketch:type="MSShapeGroup" xlink:href="#path-1"></use>
                    <rect id="Rectangle-217" fill="#7A7A7A" sketch:type="MSShapeGroup" mask="url(#mask-2)" x="-26.5945946" y="-18.8601399" width="62.9189189" height="124.216783"></rect>
                    <path d="M50.6048177,48.2487845 C50.6048177,44.4389785 48.0368824,43.4243787 42.6306172,42.7079603 C37.1680606,41.9830597 36.6126291,41.6095173 36.6126291,40.32675 C36.6126291,39.2677818 37.0831352,37.8545193 41.1289673,37.8545193 C44.7430141,37.8545193 46.0748133,38.6352066 46.6227609,41.0780758 C46.6709178,41.3077473 46.8798148,41.476086 47.1166947,41.476086 L49.3995931,41.476086 C49.5414608,41.476086 49.6758446,41.4147533 49.7718331,41.3136196 C49.8681469,41.2053086 49.9195577,41.0663313 49.9062169,40.9211554 C49.5528493,36.7136654 46.7646286,34.7529758 41.1289673,34.7529758 C36.1131637,34.7529758 33.1219031,36.8748269 33.1219031,40.433756 C33.1219031,44.2944551 36.0985214,45.3602743 40.9119358,45.8378865 C46.6709178,46.4029305 47.1179963,47.2469079 47.1179963,48.3831945 C47.1179963,50.35465 45.5405317,51.195365 41.8344011,51.195365 C37.179449,51.195365 36.1554637,50.0235186 35.8121829,47.7020098 C35.7731368,47.4530903 35.560986,47.2703971 35.3068606,47.2703971 L33.0324223,47.2703971 C32.7506392,47.2703971 32.5241715,47.4958274 32.5241715,47.7783494 C32.5241715,50.7497241 34.1367776,54.2926675 41.8344011,54.2926675 C47.4085647,54.2926675 50.6048177,52.0912143 50.6048177,48.2487845 L50.6048177,48.2487845 Z M36.4008037,68.3153504 C35.7581691,68.3153504 35.118463,68.1470116 34.5561984,67.8204475 L28.6823556,64.3359007 C27.8060948,63.843934 28.234301,63.6700492 28.5232425,63.5689154 C29.6936509,63.1620968 29.9302055,63.0681403 31.1790316,62.3575942 C31.3091854,62.2845169 31.4813139,62.3125733 31.6153724,62.3911967 L36.1274806,65.0777656 C36.2914745,65.1684598 36.5221721,65.1684598 36.6724998,65.0777656 L54.2637675,54.8978388 C54.4271106,54.8038822 54.5322098,54.6146643 54.5322098,54.4202265 L54.5322098,34.0659188 C54.5322098,33.8665874 54.4271106,33.6806318 54.2595375,33.5794981 L36.6754283,23.4083796 C36.5133867,23.3131182 36.2973314,23.3131182 36.1336629,23.4083796 L18.5541091,33.5827605 C18.3832822,33.6806318 18.2752545,33.8724597 18.2752545,34.0659188 L18.2752545,54.4202265 C18.2752545,54.6146643 18.3832822,54.7993149 18.5528075,54.891314 L23.3714281,57.6832578 C25.9862188,58.9937554 27.587111,57.4503239 27.587111,55.8990628 L27.587111,35.8028093 C27.587111,35.5186561 27.8148802,35.2945306 28.0982902,35.2945306 L30.3288016,35.2945306 C30.6076562,35.2945306 30.8383539,35.5186561 30.8383539,35.8028093 L30.8383539,55.8990628 C30.8383539,59.3982903 28.9381079,61.4046533 25.6299226,61.4046533 C24.6130957,61.4046533 23.8126496,61.4046533 21.5779082,60.3003381 L16.9649307,57.6375845 C15.8254338,56.977279 15.12,55.7421424 15.12,54.4202265 L15.12,34.0659188 C15.12,32.7433504 15.8254338,31.50854 16.9649307,30.8511707 L34.5561984,20.6594992 C35.6690137,20.0282289 37.1488629,20.0282289 38.2532182,20.6594992 L55.8425336,30.8511707 C56.9823558,31.5118024 57.6903927,32.7433504 57.6903927,34.0659188 L57.6903927,54.4202265 C57.6903927,55.7421424 56.9823558,56.9727117 55.8425336,57.6375845 L38.2532182,67.8204475 C37.6909536,68.1470116 37.052549,68.3153504 36.4008037,68.3153504 L36.4008037,68.3153504 Z" id="Fill-1" stroke="#2C302E" stroke-width="1.296" fill="#FFFFFF" sketch:type="MSShapeGroup" mask="url(#mask-2)"></path>
                </g>
            </g>
        </g>
    </g>
</svg>