<?xml version="1.0" encoding="UTF-8" standalone="no"?>
<svg width="90px" height="116px" viewBox="0 0 90 116" version="1.1" xmlns="http://www.w3.org/2000/svg" xmlns:xlink="http://www.w3.org/1999/xlink" xmlns:sketch="http://www.bohemiancoding.com/sketch/ns">
    <!-- Generator: Sketch 3.3.3 (12081) - http://www.bohemiancoding.com/sketch -->
    <title>js-on</title>
    <desc>Created with Sketch.</desc>
    <defs>
        <path id="path-1" d="M0,7.75960085 L0,67.6987713 C0,72.3119689 2.0655459,77.2942685 6.15037688,82.5137654 C9.77144307,87.1304342 14.8982992,91.8581806 21.3863801,96.5674142 C29.4866508,102.425608 37.7442083,106.788881 41.7527089,108.775552 C45.7681487,106.788881 54.0257062,102.426765 62.1236639,96.5674142 C68.6163709,91.8593377 73.7339748,87.1315912 77.3527279,82.5137654 C81.4410285,77.2884832 83.5135135,72.313126 83.5135135,67.6987713 L83.5135135,7.75960085 L41.7527089,0.0767235591 L0,7.75960085 L0,7.75960085 Z"></path>
    </defs>
    <g id="Welcome" stroke="none" stroke-width="1" fill="none" fill-rule="evenodd" sketch:type="MSPage">
        <g id="Artboard-13" sketch:type="MSArtboardGroup" transform="translate(-756.000000, -484.000000)">
            <g id="js-on" sketch:type="MSLayerGroup" transform="translate(756.000000, 484.000000)">
                <g id="Group-+-C#-Copy-2">
                    <g id="Group">
                        <path d="M0,11.0043561 L0,11.0043561 L0,8.30196202 L2.65657546,7.81312803 L44.4092844,0.130250745 L44.9958953,0.0223090136 L45.5825099,0.130230504 L87.3433145,7.81310779 L90,8.30186725 L90,11.0043561 L90,70.9435266 C90,76.3619854 87.6533992,82.0025208 83.1482996,87.7605149 C79.3216269,92.643663 73.9821146,97.5724057 67.2675216,102.441377 C60.4460718,107.377099 53.0811935,111.639909 46.4336334,114.928844 L44.994708,115.640764 L43.5562722,114.927854 C36.8953744,111.626615 29.5481054,107.373013 22.7251013,102.438545 C16.0068201,97.5622257 10.6642383,92.634571 6.84000385,87.7588704 C2.34447217,82.0145902 0,76.3652912 0,70.9435266 L0,11.0043561 Z" id="Shape" fill="#9E0B0F" sketch:type="MSShapeGroup"></path>
                        <g id="Path-+-Rectangle-216" transform="translate(3.243243, 3.244755)">
                            <mask id="mask-2" sketch:name="Mask" fill="white">
                                <use xlink:href="#path-1"></use>
                            </mask>
                            <use id="Mask" fill="#BB241D" sketch:type="MSShapeGroup" xlink:href="#path-1"></use>
                            <rect id="Rectangle-216" fill="#DA322C" sketch:type="MSShapeGroup" mask="url(#mask-2)" x="-42.972973" y="-26.7692308" width="85.1351351" height="147.636364"></rect>
                        </g>
                    </g>
                </g>
                <g id="Imported-Layers" transform="translate(15.000000, 33.000000)" sketch:type="MSShapeGroup">
                    <path d="M12.357,39.445 C8.265,39.445 4.895,38.096 2.339,35.434 L1.905,34.981 L5.729,28.794 L6.451,29.627 C7.997,31.41 9.823,32.315 11.88,32.315 C15.154,32.315 17.27,30.115 17.27,26.712 L17.27,1.844 L25.09,1.844 L25.09,26.766 C25.09,34.705 20.33,39.445 12.357,39.445" id="Fill-1" fill="#FFFFFF"></path>
                    <path d="M24.28,2.653 L24.28,26.766 C24.28,34.82 19.193,38.636 12.357,38.636 C8.7,38.636 5.468,37.523 2.924,34.873 L5.838,30.157 C7.216,31.747 9.177,33.125 11.88,33.125 C15.643,33.125 18.08,30.528 18.08,26.712 L18.08,2.653 L24.28,2.653 M25.9,1.033 L16.46,1.033 L16.46,26.712 C16.46,29.668 14.705,31.505 11.88,31.505 C10.043,31.505 8.467,30.717 7.063,29.096 L5.619,27.431 L0.886,35.089 L1.755,35.995 C4.469,38.822 8.036,40.256 12.357,40.256 C20.711,40.256 25.9,35.087 25.9,26.766 L25.9,1.033" id="Fill-2" fill="#2C302E"></path>
                    <path d="M43.944,39.445 C37.845,39.445 32.66,37.418 28.948,33.582 L28.475,33.094 L32.954,26.918 L33.624,27.648 C34.913,29.052 38.523,32.315 44.209,32.315 C48.809,32.315 50.447,30.215 50.447,28.249 C50.447,25.858 47.599,24.965 42.908,23.777 C37.106,22.309 29.886,20.481 29.886,12.457 C29.886,5.864 35.514,1.261 43.573,1.261 C49.11,1.261 53.869,3.063 57.336,6.475 L57.844,6.974 L53.355,12.892 L52.698,12.235 C50.22,9.757 46.772,8.392 42.99,8.392 C39.877,8.392 37.865,9.801 37.865,11.98 C37.865,14.102 41.146,14.939 44.945,15.909 C50.951,17.442 58.426,19.351 58.426,27.666 C58.426,33.36 54.622,39.445 43.944,39.445" id="Fill-3" fill="#FFFFFF"></path>
                    <path d="M43.573,2.07 C49.031,2.07 53.536,3.872 56.769,7.052 L53.271,11.662 C50.462,8.854 46.7,7.582 42.99,7.582 C39.387,7.582 37.055,9.384 37.055,11.98 C37.055,18.604 57.616,14.523 57.616,27.666 C57.616,33.549 53.43,38.636 43.944,38.636 C37.426,38.636 32.71,36.305 29.53,33.019 L33.027,28.196 C35.412,30.793 39.281,33.125 44.209,33.125 C49.296,33.125 51.257,30.634 51.257,28.249 C51.257,20.83 30.696,25.44 30.696,12.457 C30.696,6.574 35.783,2.07 43.573,2.07 M43.573,0.45 C35.173,0.45 29.076,5.5 29.076,12.457 C29.076,21.112 36.955,23.106 42.709,24.563 C47.02,25.654 49.637,26.446 49.637,28.249 C49.637,30.257 47.557,31.505 44.209,31.505 C38.845,31.505 35.437,28.425 34.221,27.1 L32.88,25.641 L27.42,33.168 L28.366,34.145 C32.234,38.143 37.621,40.256 43.944,40.256 C48.764,40.256 52.732,38.978 55.42,36.562 C57.881,34.349 59.236,31.19 59.236,27.666 C59.236,18.722 51.092,16.642 45.145,15.124 C41.818,14.275 38.675,13.472 38.675,11.98 C38.675,9.93 40.999,9.202 42.99,9.202 C46.556,9.202 49.8,10.482 52.126,12.808 L53.439,14.121 L58.92,6.896 L57.905,5.897 C54.282,2.334 49.327,0.45 43.573,0.45" id="Fill-4" fill="#2C302E"></path>
                </g>
            </g>
        </g>
    </g>
</svg>