<?xml version="1.0" encoding="UTF-8" standalone="no"?>
<svg width="130px" height="128px" viewBox="0 0 130 128" version="1.1" xmlns="http://www.w3.org/2000/svg" xmlns:xlink="http://www.w3.org/1999/xlink" xmlns:sketch="http://www.bohemiancoding.com/sketch/ns">
    <!-- Generator: Sketch 3.5.2 (25235) - http://www.bohemiancoding.com/sketch -->
    <title>Shape + Group + C# Copy + Untitled-1</title>
    <desc>Created with Sketch.</desc>
    <defs>
        <path id="path-1" d="M46.995643,0.667016001 L46.995643,0.667016001 L3.3872581,8.69117052 L0.612612613,9.20171876 L0.612612613,12.0241545 L0.612612613,74.6258528 C0.612612613,80.2884549 3.06128355,86.1886986 7.75661663,92.1881426 C11.7508171,97.2804243 17.3308469,102.426968 24.3477184,107.519896 C31.4739671,112.673556 39.1477814,117.116105 46.1047192,120.563986 L47.6070854,121.308564 L49.1099631,120.56502 C56.0529702,117.129989 63.7451764,112.677823 70.8698018,107.522853 C77.8828212,102.4376 83.4596452,97.2899201 87.4563922,92.1898601 C92.1617185,86.176093 94.6126126,80.2850023 94.6126126,74.6258528 L94.6126126,12.0241545 L94.6126126,9.20161979 L91.8378522,8.69114938 L48.2210119,0.666994861 L47.6083255,0.554279444 L46.995643,0.667016001 L46.995643,0.667016001 Z"></path>
    </defs>
    <g id="Page-1" stroke="none" stroke-width="1" fill="none" fill-rule="evenodd" sketch:type="MSPage">
        <g id="VirgilSecurity---Developers-2" sketch:type="MSArtboardGroup" transform="translate(-890.000000, -535.000000)">
            <g id="Shape-+-Group-+-C#-Copy-+-Untitled-1" sketch:type="MSLayerGroup" transform="translate(892.000000, 535.000000)">
                <g id="Shape-+-Group-+-C#-Copy" transform="translate(11.000000, 0.000000)">
                    <g id="Shape-+-Group">
                        <path d="M48.84013,0.952659489 L48.84013,0.952659489 L49.4528125,0.839922933 L49.9956603,0.740036313 L50.5385114,0.839904203 L51.1511978,0.95261962 L94.7680382,8.97677414 L97.5427986,9.48724455 L100,9.93929389 L100,12.4377309 L100,15.2602656 L100,77.8619639 C100,84.2134613 97.3348748,90.7201781 92.2050816,97.2764449 C88.0296619,102.604501 82.2576557,107.938272 75.0157692,113.189478 C68.2011962,118.120111 60.5039518,122.692227 52.8276792,126.490039 L51.3248015,127.233583 L49.9933215,127.892328 L48.662295,127.232667 L47.1599287,126.488089 C39.4666789,122.675289 31.7909536,118.114673 24.9729115,113.183901 C17.7261898,107.924145 11.9536746,102.59238 7.7815112,97.2732068 C2.66447426,90.7349323 0,84.2179476 0,77.8619639 L0,15.2602656 L0,12.4378299 L0,9.93948051 L2.45709963,9.48736225 L5.23174512,8.97681401 L48.84013,0.952659489 Z" id="Shape" fill="#2C302E" sketch:type="MSShapeGroup"></path>
                        <g id="Shape-+-Rectangle-215" transform="translate(2.387387, 3.236111)">
                            <mask id="mask-2" sketch:name="Mask" fill="white">
                                <use xlink:href="#path-1"></use>
                            </mask>
                            <use id="Mask" fill="#BB241D" sketch:type="MSShapeGroup" xlink:href="#path-1"></use>
                            <rect id="Rectangle-215" fill="#DA322C" sketch:type="MSShapeGroup" mask="url(#mask-2)" x="-45.963964" y="-51.9166667" width="94" height="185.541667"></rect>
                        </g>
                    </g>
                </g>
                <g id="private-key-copy" transform="translate(81.000000, 43.000000) scale(-1, 1) translate(-81.000000, -43.000000) translate(36.000000, 26.000000)" stroke="#2C302E" sketch:type="MSShapeGroup">
                    <path d="M32.2057956,10.1081081 L90,10.1081081 L90,18.9250614 L84.5137992,24.4690411 L79.1062485,24.4690411 L75.6287026,20.9548708 L69.0843752,20.9548708 L66.2140602,23.855415 L60.4270049,23.855415 L56.1315098,19.5146812 L44.3528145,19.5146812 L40.9209556,22.9826834 L32.5743526,22.9826834 C30.1789617,29.4198441 24.0301965,34 16.8228273,34 C7.53183636,34 0,26.3888407 0,17 C0,7.61115925 7.53183636,0 16.8228273,0 C23.6860123,0 29.5892854,4.15315498 32.2057956,10.1081081 Z" id="Oval-248" stroke-width="3" fill="#FACB63"></path>
                    <ellipse id="Oval" stroke-width="2.14285714" fill="#FFFFFF" cx="11.8196885" cy="17.4594595" rx="5.45605211" ry="5.51351351"></ellipse>
                    <path d="M88.3928571,14.53125 L59.4876828,14.53125" id="Line" stroke-linecap="square"></path>
                </g>
                <g id="private-key-copy-2" transform="translate(0.000000, 57.000000)" stroke="#2C302E" sketch:type="MSShapeGroup">
                    <path d="M32.2057956,10.1081081 L90,10.1081081 L90,18.9250614 L84.5137992,24.4690411 L79.1062485,24.4690411 L75.6287026,20.9548708 L69.0843752,20.9548708 L66.2140602,23.855415 L60.4270049,23.855415 L56.1315098,19.5146812 L44.3528145,19.5146812 L40.9209556,22.9826834 L32.5743526,22.9826834 C30.1789617,29.4198441 24.0301965,34 16.8228273,34 C7.53183636,34 0,26.3888407 0,17 C0,7.61115925 7.53183636,0 16.8228273,0 C23.6860123,0 29.5892854,4.15315498 32.2057956,10.1081081 Z" id="Oval-248" stroke-width="3" fill="#FFFFFF"></path>
                    <ellipse id="Oval" stroke-width="2.14285714" fill="#FFFFFF" cx="11.8196885" cy="17.4594595" rx="5.45605211" ry="5.51351351"></ellipse>
                    <path d="M88.3928571,14.5 L57.4353278,14.5" id="Line" stroke-linecap="square"></path>
                </g>
            </g>
        </g>
    </g>
</svg>