<?xml version="1.0" encoding="UTF-8" standalone="no"?>
<svg width="95px" height="103px" viewBox="0 0 95 103" version="1.1" xmlns="http://www.w3.org/2000/svg" xmlns:xlink="http://www.w3.org/1999/xlink" xmlns:sketch="http://www.bohemiancoding.com/sketch/ns">
    <!-- Generator: Sketch 3.5.2 (25235) - http://www.bohemiancoding.com/sketch -->
    <title>Group 6</title>
    <desc>Created with Sketch.</desc>
    <defs>
        <path id="path-1" d="M37.0673263,0.306291542 L37.0673263,0.306291542 L2.33498432,6.75192386 L0.125089691,7.16203638 L0.125089691,9.42923888 L0.125089691,59.715849 C0.125089691,64.2644966 2.07535858,69.0040366 5.8150044,73.8232621 C8.99622601,77.9137834 13.4404975,82.0478922 19.0291563,86.1389327 C24.7049296,90.2787578 30.8168171,93.8473627 36.3577409,96.6169723 L37.5543158,97.2150757 L38.751298,96.6178026 C44.2811267,93.8585155 50.4076627,90.2821855 56.0821431,86.1413084 C61.6677337,82.0564328 66.1094519,77.9214113 69.2927018,73.8246417 C73.0403067,68.9939108 74.9923463,64.2617232 74.9923463,59.715849 L74.9923463,9.42923888 L74.9923463,7.16195688 L72.7823602,6.75190688 L38.0432838,0.306274561 L37.5553035,0.215732668 L37.0673263,0.306291542 L37.0673263,0.306291542 Z"></path>
    </defs>
    <g id="Page-1" stroke="none" stroke-width="1" fill="none" fill-rule="evenodd" sketch:type="MSPage">
        <g id="VirgilSecurity---What-is-Virgil" sketch:type="MSArtboardGroup" transform="translate(-661.000000, -222.000000)">
            <g id="V-Pass-+-V-Pass-Copy" sketch:type="MSLayerGroup" transform="translate(403.000000, 222.000000)">
                <g id="V-Pass" transform="translate(221.000000, 0.000000)">
                    <g id="virgil-pass-copy">
                        <g id="Group-6" transform="translate(39.000000, 0.000000)">
                            <g id="Shape-+-Group-+-C#-Copy-+-Untitled-1" transform="translate(12.132743, 0.000000)">
                                <g id="Shape-+-Group-+-C#-Copy-3">
                                    <g id="Shape-+-Group">
                                        <path d="M39.5043213,0.365752982 L39.5043213,0.365752982 L39.9922986,0.275194108 L40.4301714,0.193933622 L40.868047,0.27517888 L41.3560273,0.365720772 L76.0951037,6.81135309 L78.3050898,7.22140309 L80.2672566,7.58547166 L80.2672566,9.5811281 L80.2672566,11.8484101 L80.2672566,62.1350202 C80.2672566,67.2302463 78.1464138,72.4524639 74.0627581,77.7163691 C70.7373882,81.9960439 66.1400334,86.2807177 60.3717881,90.4991714 C54.9436789,94.4602623 48.8124171,98.1333725 42.6977723,101.184473 L41.5007902,101.781746 L40.4282988,102.3169 L39.3561777,101.781004 L38.1596028,101.182901 C32.0314428,98.1197635 25.9173247,94.4558935 20.4864414,90.4946831 C14.7143564,86.2693699 10.1165959,81.9863065 6.79382306,77.7137716 C2.72032364,72.464314 0.6,67.2338585 0.6,62.1350202 L0.6,11.8484101 L0.6,9.5812076 L0.6,7.58562176 L2.56208477,7.22149782 L4.7719794,6.8113853 L39.5043213,0.365752982 Z" id="Shape" fill="#2C302E" sketch:type="MSShapeGroup"></path>
                                        <g id="Shape-+-Rectangle-215" transform="translate(2.874910, 2.419171)">
                                            <mask id="mask-2" sketch:name="Mask" fill="white">
                                                <use xlink:href="#path-1"></use>
                                            </mask>
                                            <use id="Mask" fill="#BB241D" sketch:type="MSShapeGroup" xlink:href="#path-1"></use>
                                            <rect id="Rectangle-215" fill="#DA322C" sketch:type="MSShapeGroup" mask="url(#mask-2)" x="-36.9712987" y="-41.9330601" width="74.8672566" height="149.041667"></rect>
                                        </g>
                                    </g>
                                </g>
                            </g>
                            <g id="private-key-copy" transform="translate(0.000000, 18.065574)" stroke="#2C302E" sketch:type="MSShapeGroup">
                                <path d="M25.6506336,8.11962782 L71.6814159,8.11962782 L71.6814159,15.2020985 L67.3118754,19.6554593 L63.0049767,19.6554593 L60.2352499,16.8326011 L55.0229537,16.8326011 L52.7368621,19.1625465 L48.127703,19.1625465 L44.7065123,15.6757275 L35.3252505,15.6757275 L32.5919115,18.4614997 L25.9441746,18.4614997 C24.0363412,23.6323338 19.1390945,27.3114754 13.398712,27.3114754 C5.99880772,27.3114754 0,21.1975934 0,13.6557377 C0,6.11388202 5.99880772,0 13.398712,0 C18.8649656,0 23.5666875,3.33614088 25.6506336,8.11962782 Z" id="Oval-248" stroke-width="2.4" fill="#FACB63"></path>
                                <ellipse id="Oval" stroke-width="1.71428571" fill="#FFFFFF" cx="9.41391118" cy="14.0248117" rx="4.34552823" ry="4.4288879"></ellipse>
                                <path d="M70.4013906,11.6726434 L47.3795704,11.6726434" id="Line" stroke-width="0.8" stroke-linecap="square"></path>
                            </g>
                            <path d="M59.0995211,91.1173443 L59.0995211,91.1173443 L59.0995211,93.5173443 L56.6995211,93.5173443 L53.7866123,93.5173443 C47.8632205,93.5173443 43.1333706,89.0510875 43.1333706,82.7444823 L43.1333706,75.1060819 C43.1333706,74.6503019 43.0492304,74.3362561 42.9607655,74.2134139 C42.9750967,74.2333141 43.0557054,74.2744509 43.0088496,74.2744509 L40.6088496,74.2744509 L40.6088496,71.8744509 L40.6088496,67.8593943 L40.6088496,65.4593943 L43.0088496,65.4593943 C43.0557054,65.4593943 42.9750967,65.5005311 42.9607655,65.5204313 C43.0492304,65.3975891 43.1333706,65.0835433 43.1333706,64.6277633 L43.1333706,57.038327 C43.1333706,50.7278474 47.8706541,46.2165009 53.7866123,46.2165009 L56.6995211,46.2165009 L59.0995211,46.2165009 L59.0995211,48.6165009 L59.0995211,53.4639474 L59.0995211,55.8639474 L56.6995211,55.8639474 L53.7866123,55.8639474 C53.458141,55.8639474 53.1766065,56.1825965 53.1766065,57.038327 L53.1766065,65.4601531 C53.1766065,68.5436642 52.0232394,70.9884421 49.4874831,72.0734272 L48.5433764,69.8669226 L49.4874831,67.660418 C52.0232394,68.7454031 53.1766065,71.190181 53.1766065,74.2736921 L53.1766065,82.6955182 C53.1766065,83.4958285 53.5006887,83.8698978 53.7866123,83.8698978 L56.6995211,83.8698978 L59.0995211,83.8698978 L59.0995211,86.2698978 L59.0995211,91.1173443 Z M70.7785805,93.5173443 L70.7785805,93.5173443 L68.3785805,93.5173443 L68.3785805,91.1173443 L68.3785805,86.2698978 L68.3785805,83.8698978 L70.7785805,83.8698978 L73.6914894,83.8698978 C73.9774129,83.8698978 74.3014952,83.4958285 74.3014952,82.6955182 L74.3014952,74.2736921 C74.3014952,71.190181 75.4548623,68.7454031 77.9906185,67.660418 L78.9347253,69.8669226 L77.9906185,72.0734272 C75.4548623,70.9884421 74.3014952,68.5436642 74.3014952,65.4601531 L74.3014952,57.038327 C74.3014952,56.1825965 74.0199606,55.8639474 73.6914894,55.8639474 L70.7785805,55.8639474 L68.3785805,55.8639474 L68.3785805,53.4639474 L68.3785805,48.6165009 L68.3785805,46.2165009 L70.7785805,46.2165009 L73.6914894,46.2165009 C79.6074475,46.2165009 84.3447311,50.7278474 84.3447311,57.038327 L84.3447311,64.6277633 C84.3447311,65.0835433 84.4288713,65.3975891 84.5173361,65.5204313 C84.503005,65.5005311 84.4223963,65.4593943 84.4692521,65.4593943 L86.8692521,65.4593943 L86.8692521,67.8593943 L86.8692521,71.8744509 L86.8692521,74.2744509 L84.4692521,74.2744509 C84.4223963,74.2744509 84.503005,74.2333141 84.5173361,74.2134139 C84.4288713,74.3362561 84.3447311,74.6503019 84.3447311,75.1060819 L84.3447311,82.7444823 C84.3447311,89.0510875 79.6148811,93.5173443 73.6914894,93.5173443 L70.7785805,93.5173443 Z" id="Shape" fill="#2C302E" sketch:type="MSShapeGroup"></path>
                            <path d="M70.7785805,91.1173443 L73.6914894,91.1173443 C78.0123041,91.1173443 81.9447311,87.9836415 81.9447311,82.7444823 L81.9447311,75.1060819 C81.9447311,73.29441 82.7700552,71.8744509 84.4692521,71.8744509 L84.4692521,67.8593943 C82.7700552,67.8593943 81.9447311,66.4394352 81.9447311,64.6277633 L81.9447311,57.038327 C81.9447311,51.7991678 78.0123041,48.6165009 73.6914894,48.6165009 L70.7785805,48.6165009 L70.7785805,53.4639474 L73.6914894,53.4639474 C75.3421377,53.4639474 76.7014952,54.8349423 76.7014952,57.038327 L76.7014952,65.4601531 C76.7014952,67.5166456 77.3326254,69.1814251 78.9347253,69.8669226 C77.3326254,70.5524201 76.7014952,72.2171997 76.7014952,74.2736921 L76.7014952,82.6955182 C76.7014952,84.8009747 75.3421377,86.2698978 73.6914894,86.2698978 L70.7785805,86.2698978 L70.7785805,91.1173443 L70.7785805,91.1173443 Z" id="Path" fill="#FFFFFF" sketch:type="MSShapeGroup"></path>
                            <path d="M56.6995211,91.1173443 L56.6995211,86.2698978 L53.7866123,86.2698978 C52.1359639,86.2698978 50.7766065,84.8009747 50.7766065,82.6955182 L50.7766065,74.2736921 C50.7766065,72.2171997 50.1454762,70.5524201 48.5433764,69.8669226 C50.1454762,69.1814251 50.7766065,67.5166456 50.7766065,65.4601531 L50.7766065,57.038327 C50.7766065,54.8349423 52.1359639,53.4639474 53.7866123,53.4639474 L56.6995211,53.4639474 L56.6995211,48.6165009 L53.7866123,48.6165009 C49.4657975,48.6165009 45.5333706,51.7991678 45.5333706,57.038327 L45.5333706,64.6277633 C45.5333706,66.4394352 44.7080464,67.8593943 43.0088496,67.8593943 L43.0088496,71.8744509 C44.7080464,71.8744509 45.5333706,73.29441 45.5333706,75.1060819 L45.5333706,82.7444823 C45.5333706,87.9836415 49.4657975,91.1173443 53.7866123,91.1173443 L56.6995211,91.1173443 L56.6995211,91.1173443 Z" id="Path" fill="#FFFFFF" sketch:type="MSShapeGroup"></path>
                        </g>
                    </g>
                </g>
            </g>
        </g>
    </g>
</svg>