<?xml version="1.0" encoding="UTF-8" standalone="no"?>
<svg width="127px" height="40px" viewBox="0 0 127 40" version="1.1" xmlns="http://www.w3.org/2000/svg" xmlns:xlink="http://www.w3.org/1999/xlink" xmlns:sketch="http://www.bohemiancoding.com/sketch/ns">
    <!-- Generator: Sketch 3.3.3 (12072) - http://www.bohemiancoding.com/sketch -->
    <title>logo</title>
    <desc>Created with Sketch.</desc>
    <defs></defs>
    <g id="Welcome" stroke="none" stroke-width="1" fill="none" fill-rule="evenodd" sketch:type="MSPage">
        <g id="iPhone-6" sketch:type="MSArtboardGroup" transform="translate(-20.000000, -10.000000)" fill="#FFFFFF">
            <g id="logo" sketch:type="MSLayerGroup" transform="translate(20.000000, 10.000000)">
                <g id="Shape-+-Shape" sketch:type="MSShapeGroup">
                    <path d="M47.3880292,0.514248705 L46.8927233,0.841968912 C46.8627048,0.871761658 45.812056,1.91450777 45.812056,1.91450777 L46.202297,2.30181347 L45.7520189,2.74870466 L46.6075472,3.59779793 L46.1572692,4.04468912 L45.3017409,3.19559585 L44.8514628,3.64248705 L45.7069911,4.49158031 L45.2567131,4.9384715 L44.4011848,4.08937824 L43.9509067,4.53626943 L44.806435,5.38536269 L44.356157,5.83225389 L43.5006287,4.98316062 L43.0503506,5.43005181 L43.9058789,6.27914508 L43.4556009,6.72603627 L42.6000726,5.87694301 L41.9997018,6.47279793 L42.8552301,7.32189119 L42.4049521,7.76878238 L41.5494238,6.91968912 L38.0222457,10.4203368 L35.4406516,7.84326425 L33.8346599,8.64766839 L36.0410223,10.8374352 L32.273696,14.5764249 C26.5251462,12.9527202 21.0917911,13.7869171 17.8347799,14.6360104 L14.0824628,10.9268135 L16.3488623,8.67746114 L14.7428706,7.87305699 L12.1612765,10.4203368 L8.61908915,6.91968912 L7.76356085,7.76878238 L7.3132828,7.32189119 L8.1688111,6.47279793 L7.56844037,5.87694301 L6.71291207,6.72603627 L6.26263402,6.27914508 L7.11816232,5.43005181 L6.66788427,4.98316062 L5.81235597,5.83225389 L5.36207793,5.38536269 L6.21760622,4.53626943 L5.76732817,4.08937824 L4.92680915,4.95336788 L4.4765311,4.50647668 L5.33205939,3.65738342 L4.88178134,3.21049223 L4.02625305,4.05958549 L3.575975,3.6126943 L4.43150329,2.76360104 L3.98122524,2.31670984 L4.37146622,1.92940415 L3.33582671,0.901554404 C3.30580817,0.871761658 2.88554866,0.454663212 2.88554866,0.454663212 C2.22514085,0.290803109 1.51970524,0.409974093 1.03940866,0.886658031 C0.574121339,1.3484456 0.454047193,2.04857513 0.709204754,2.62953368 L2.10506671,4.19365285 L2.48029841,3.82124352 L10.6303311,11.9397668 L8.31890378,14.2338083 L9.12940427,15.8277202 L10.6153218,14.3529793 L14.7278613,18.4345855 L14.7278613,26.7318653 C15.1331116,28.0874352 15.6284174,29.3387306 16.2287882,30.4857513 L10.8854887,35.7888601 L10.7804238,38.9617876 L11.1706648,38.9617876 L11.1556555,36.0569948 L16.4389179,30.873057 C17.1293443,32.1392487 17.9248355,33.2564767 18.7953731,34.2396373 L14.037435,38.9617876 L10.7654145,38.9617876 L10.7654145,39.3639896 L14.3076018,39.3639896 L19.0655399,34.5524611 C20.7916057,36.384715 22.8328662,37.6658031 24.9942009,38.3659326 C27.3956838,37.4721503 29.3168701,36.1761658 30.8928433,34.5226684 L35.7108184,39.3044041 L39.2530057,39.378886 L39.2530057,38.9766839 L35.965976,38.9766839 L31.1930287,34.1949482 C32.0935848,33.1968912 32.889076,32.0647668 33.5945116,30.8283679 L38.9077926,36.1016839 L38.8927833,38.9468912 L39.2830243,38.9468912 L39.2980335,35.8186528 L33.8196506,30.4559585 C34.3900028,29.3834197 34.9153272,28.236399 35.3806145,27 C35.3806145,24.3037565 35.350596,20.9222798 35.3205774,18.4643782 L39.5381818,14.2784974 L41.0841365,15.8128238 L41.894637,14.2189119 L39.5832096,11.9248705 L47.7482516,3.82124352 L48.1234833,4.19365285 L49.6094009,2.71891192 C49.729475,2.03367876 49.6094009,1.33354922 49.1441136,0.856865285 C48.663817,0.380181347 47.9733906,0.275906736 47.3880292,0.514248705 Z M14.7278613,15.6489637 L14.7278613,17.8387306 L10.9155072,14.0550518 L13.7822774,11.2098446 L17.3544833,14.7551813 C15.7034638,15.2318653 14.7278613,15.6489637 14.7278613,15.6489637 L14.7278613,15.6489637 Z M24.9942009,36.1165803 C21.2418838,34.9248705 18.2250209,31.5880829 16.7090848,26.4935233 L16.7090848,17.0194301 C16.7090848,17.0194301 24.8290989,13.265544 33.3093355,17.0194301 C33.3093355,18.3452073 33.339354,23.3354922 33.339354,26.7020725 C31.6433067,31.2156736 29.3769072,34.4928756 24.9942009,36.1165803 L24.9942009,36.1165803 Z M35.2905589,17.8685233 C35.2755496,16.8853627 35.2755496,16.1107513 35.2755496,15.6489637 C34.4200214,15.2765544 33.5795023,14.9637306 32.723974,14.6955959 L36.3261984,11.1204663 L39.1929687,13.9656736 L35.2905589,17.8685233 L35.2905589,17.8685233 Z" id="Shape"></path>
                    <path d="M26.4651092,25.242228 C27.0354613,24.7953368 27.3956838,24.125 27.3956838,23.4546632 C27.3956838,22.2033679 26.3600443,21.1755181 25.0992657,21.1755181 C23.8384872,21.1755181 22.8028477,22.2033679 22.8028477,23.4546632 C22.8028477,24.1398964 23.1480609,24.8102332 23.7334223,25.242228 C23.658376,25.763601 23.433237,27.1489637 23.2531257,28.1321244 C23.2381165,28.2512953 23.268135,28.3704663 23.3431813,28.4747409 C23.4182277,28.5641192 23.5383018,28.6237047 23.658376,28.6237047 L23.658376,28.6237047 L25.0842565,28.6088083 L26.5251462,28.6237047 L26.5251462,28.6237047 C26.6452204,28.6237047 26.7652945,28.5641192 26.8403409,28.4747409 C26.9153872,28.3853627 26.960415,28.2661917 26.9303965,28.1321244 C26.7652945,27.1638601 26.5251462,25.763601 26.4651092,25.242228 L26.4651092,25.242228 Z M26.0298404,27.7895078 L25.0842565,27.7895078 L24.1386726,27.7895078 C24.6339784,24.9294041 24.6189692,24.9145078 24.4238487,24.7357513 C24.4088394,24.7208549 24.3788209,24.7059585 24.3638116,24.6910622 C23.8985243,24.4080311 23.6133482,23.9313472 23.6133482,23.4546632 C23.6133482,22.6502591 24.273756,21.9948187 25.0842565,21.9948187 C25.894757,21.9948187 26.5551648,22.6502591 26.5551648,23.4546632 C26.5551648,23.9313472 26.2699887,24.4080311 25.8047013,24.6910622 C25.7746828,24.7059585 25.7596735,24.7208549 25.7446643,24.7357513 C25.5495438,24.9294041 25.5345345,24.9294041 26.0298404,27.7895078 L26.0298404,27.7895078 Z" id="Shape"></path>
                </g>
                <path d="M81.3012808,30.4710708 L80.1260551,30.4710708 C79.4911631,30.4710708 78.9643377,29.9385255 78.9643377,29.2967401 C78.9643377,28.6549547 79.4911631,28.1224093 80.1260551,28.1224093 L82.5440482,28.1224093 L82.5440482,27.0300086 L79.9909717,27.0300086 C78.7617126,27.0300086 77.7756037,28.0404793 77.7756037,29.2830851 C77.7756037,30.5256908 78.7617126,31.5907815 79.9909717,31.5907815 L81.0986557,31.5907815 C81.7875811,31.5907815 82.3279148,32.0823618 82.3279148,32.7787673 C82.3279148,33.4615177 81.7740728,33.953098 81.0986557,33.953098 L78.2078706,33.953098 L78.2078706,35.1137737 L81.3147892,35.1137737 C82.5575566,35.1137737 83.5841905,34.0350281 83.5841905,32.7651123 C83.5706822,31.5088515 82.5575566,30.4710708 81.3012808,30.4710708 L81.3012808,30.4710708 Z M86.1102504,31.2084413 L89.4468107,31.2084413 L89.4468107,30.1023856 L86.1102504,30.1023856 L86.1102504,28.1497193 L89.6089108,28.1497193 L89.6089108,27.0163536 L84.9350247,27.0163536 L84.9350247,35.1137737 L89.6764525,35.1137737 L89.6764525,33.953098 L86.1102504,33.953098 L86.1102504,31.2084413 L86.1102504,31.2084413 Z M90.7841365,31.0718912 C90.7841365,33.3795877 92.621271,35.2503238 94.8906723,35.2503238 C95.390481,35.2503238 95.8632729,35.1547388 96.3090482,34.9908787 L96.3090482,33.6799978 C95.8902896,33.939443 95.4039893,34.0896481 94.8906723,34.0896481 C93.3237047,34.0896481 92.0404123,32.7241472 92.0404123,31.0582362 C92.0404123,29.3786701 93.3237047,28.0131693 94.8906723,28.0131693 C95.4039893,28.0131693 95.8902896,28.1633744 96.3090482,28.4228195 L96.3090482,27.0982837 C95.8632729,26.9344236 95.390481,26.8388385 94.8906723,26.8388385 C92.6077626,26.8798035 90.7841365,28.7505397 90.7841365,31.0718912 L90.7841365,31.0718912 Z M102.266227,32.5329771 C102.266227,33.3932427 101.550285,34.1306131 100.672242,34.1306131 C99.8077086,34.1306131 99.0917665,33.4068977 99.0917665,32.5329771 L99.0917665,27.0163536 L97.9300492,27.0163536 L97.9300492,32.5329771 C97.9300492,34.0623381 99.1457999,35.2639788 100.658734,35.2639788 C102.185177,35.2639788 103.427944,34.0623381 103.427944,32.5329771 L103.427944,27.0163536 L102.266227,27.0163536 L102.266227,32.5329771 L102.266227,32.5329771 Z M110.830515,29.8839054 C110.830515,28.2179944 109.520206,27.0163536 107.818155,27.0163536 L105.224554,27.0163536 L105.224554,35.1137737 L106.399779,35.1137737 L106.399779,32.7378022 L107.818155,32.7378022 C108.979872,32.7378022 109.641781,33.884823 109.641781,34.7723985 L109.641781,35.1137737 L110.830515,35.1137737 L110.830515,34.7723985 C110.830515,33.8028929 110.492807,32.7924223 109.493189,32.2189119 C110.128082,31.8775367 110.830515,31.0309262 110.830515,29.8839054 L110.830515,29.8839054 Z M107.953239,31.7000216 L106.399779,31.7000216 L106.399779,28.0541343 L107.953239,28.0541343 C108.898822,28.0541343 109.614765,28.9417098 109.614765,29.8839054 C109.614765,30.785136 108.912331,31.7000216 107.953239,31.7000216 L107.953239,31.7000216 Z M112.546075,35.1001187 L113.707792,35.1001187 L113.707792,27.0026986 L112.546075,27.0026986 L112.546075,35.1001187 L112.546075,35.1001187 Z M115.058626,28.1497193 L117.044352,28.1497193 L117.044352,35.1137737 L118.20607,35.1137737 L118.20607,28.1497193 L120.191796,28.1497193 L120.191796,27.0163536 L115.072134,27.0163536 L115.072134,28.1497193 L115.058626,28.1497193 Z M125.689691,27.0163536 L123.933606,30.5256908 L122.177522,27.0163536 L120.880721,27.0163536 L123.352748,31.7000216 L123.352748,35.1137737 L124.514465,35.1137737 L124.514465,31.7000216 L126.986492,27.0163536 L125.689691,27.0163536 L125.689691,27.0163536 Z M80.3151719,9.66083765 L78.1268206,9.66083765 L78.1268206,24.8042422 L80.3151719,24.8042422 L80.3151719,9.66083765 L80.3151719,9.66083765 Z M91.594637,24.8178972 L93.8235134,24.8178972 L93.8235134,24.1897668 C93.8235134,22.3736507 93.175113,20.4892595 91.3109618,19.4105138 C92.5132042,18.7823834 93.8235134,17.1984024 93.8235134,15.0409111 C93.8235134,11.9275691 91.3785035,9.67449266 88.190535,9.67449266 L83.327532,9.67449266 L83.327532,24.8178972 L85.5293917,24.8178972 L85.5293917,20.3800194 L88.190535,20.3800194 C90.3788863,20.3800194 91.594637,22.5238558 91.594637,24.1897668 L91.594637,24.8178972 L91.594637,24.8178972 Z M88.4336851,18.4273532 L85.5293917,18.4273532 L85.5293917,11.6135039 L88.4471935,11.6135039 C90.2302945,11.6135039 91.554112,13.2794149 91.554112,15.027256 C91.5406036,16.7204771 90.2167862,18.4273532 88.4336851,18.4273532 L88.4336851,18.4273532 Z M103.049711,16.0650367 L103.049711,18.099633 L108.574622,18.099633 C108.42603,20.9398748 106.264696,22.919851 103.238827,22.919851 C100.307517,22.919851 97.9030325,20.3663644 97.9030325,17.2530225 C97.9030325,14.1123705 100.307517,11.5588839 103.238827,11.5588839 C105.021928,11.5588839 106.602404,12.5147345 107.561497,13.9348554 C107.561497,13.9621654 109.385123,12.5283895 109.385123,12.5283895 C107.993764,10.6303433 105.737871,9.38773748 103.238827,9.38773748 C98.9701915,9.38773748 95.5525811,12.8970747 95.5525811,17.2393674 C95.5525811,21.5680052 98.9836998,25.0773424 103.238827,25.0773424 C107.723597,25.0773424 110.925074,21.5680052 110.925074,17.2393674 C110.925074,16.8297172 110.898057,16.4337219 110.844024,16.0513817 L103.049711,16.0513817 L103.049711,16.0650367 Z M115.423351,9.66083765 L113.235,9.66083765 L113.235,24.8042422 L115.423351,24.8042422 L115.423351,9.66083765 L115.423351,9.66083765 Z M126.729833,22.6467509 L120.597046,22.6467509 L120.597046,9.66083765 L118.408695,9.66083765 L118.408695,24.8042422 L126.729833,24.8042422 L126.729833,22.6467509 L126.729833,22.6467509 Z M66.2259717,27.7127591 L59.3637343,9.66083765 L56.1757657,9.66083765 L66.2529884,34.8133636 L76.3302112,9.66083765 L73.3313593,9.66083765 L66.2259717,27.7127591 L66.2259717,27.7127591 Z" id="Shape" sketch:type="MSShapeGroup"></path>
            </g>
        </g>
    </g>
</svg>