<?xml version="1.0" encoding="UTF-8" standalone="no"?>
<svg width="122px" height="144px" viewBox="0 0 122 144" version="1.1" xmlns="http://www.w3.org/2000/svg" xmlns:xlink="http://www.w3.org/1999/xlink" xmlns:sketch="http://www.bohemiancoding.com/sketch/ns">
    <!-- Generator: Sketch 3.3.3 (12081) - http://www.bohemiancoding.com/sketch -->
    <title>imac</title>
    <desc>Created with Sketch.</desc>
    <defs>
        <path id="path-1" d="M51.4950077,2.84217094e-14 L0,9.47113321 L0,83.3616624 C0,89.0486214 2.54750661,95.1905942 7.58546482,101.624974 C12.0514465,107.316212 18.374569,113.144382 26.3765354,118.949731 C36.3668693,126.17147 46.5511903,131.550332 51.4950077,133.999418 C56.4473834,131.550332 66.6317043,126.172896 76.6191854,118.949731 C84.6268574,113.145809 90.9385689,107.317639 95.4016978,101.624974 C100.443935,95.1834624 103,89.0500478 103,83.3616624 L103,9.47113321 L51.4950077,2.84217094e-14 L51.4950077,2.84217094e-14 Z"></path>
        <rect id="path-3" x="0" y="0" width="81" height="44"></rect>
    </defs>
    <g id="Welcome" stroke="none" stroke-width="1" fill="none" fill-rule="evenodd" sketch:type="MSPage">
        <g id="VirgilSecurity-Landing-Page-New" sketch:type="MSArtboardGroup" transform="translate(-284.000000, -1085.000000)">
            <g id="imac" sketch:type="MSLayerGroup" transform="translate(284.000000, 1085.000000)">
                <g id="Shape-+-Group" transform="translate(11.000000, 0.000000)">
                    <path d="M54.7714508,1.0659861 L54.7714508,1.0659861 L55.4949376,0.93292 L56.2184289,1.06596115 L107.723421,10.5370944 L111,11.1396168 L111,14.4711332 L111,88.3616624 C111,95.0413142 108.105859,101.994733 102.54957,109.09295 C97.8300066,115.112693 91.244608,121.188643 82.9632766,127.190909 C74.5501552,133.275463 65.4668053,138.530478 57.2681479,142.584941 L55.4934732,143.462567 L53.7194024,142.583721 C45.5042951,138.514091 36.4426633,133.270426 28.027625,127.187418 C19.7417447,121.176093 13.1525606,115.101484 8.43600474,109.090922 C2.89151568,102.009611 0,95.0453894 0,88.3616624 L0,14.4711332 L0,11.1397336 L3.27644307,10.5371193 L54.7714508,1.0659861 Z" id="Path" fill="#9E0B0F" sketch:type="MSShapeGroup"></path>
                    <g id="Shape-+-Rectangle-215" transform="translate(4.000000, 5.000000)">
                        <mask id="mask-2" sketch:name="Mask" fill="white">
                            <use xlink:href="#path-1"></use>
                        </mask>
                        <use id="Mask" fill="#BB241D" sketch:type="MSShapeGroup" xlink:href="#path-1"></use>
                        <rect id="Rectangle-215" fill="#DA322C" sketch:type="MSShapeGroup" mask="url(#mask-2)" x="-59" y="-66" width="111" height="219"></rect>
                    </g>
                    <g id="Group" transform="translate(9.000000, 32.000000)">
                        <path d="M37.9473684,61 L55.0526316,61 L59,70 L34,70 L37.9473684,61 Z" id="Rectangle-66" stroke="#2C302E" fill="#FFFFFF" sketch:type="MSShapeGroup"></path>
                        <rect id="Rectangle-67" stroke="#2C302E" fill="#D8D8D8" sketch:type="MSShapeGroup" x="33" y="68" width="27" height="2"></rect>
                        <rect id="Rectangle-63" stroke="#2C302E" stroke-width="2" fill="#FFFFFF" sketch:type="MSShapeGroup" x="0" y="0" width="93" height="62" rx="4"></rect>
                        <g id="Rectangle-64-+-Rectangle-67" transform="translate(6.000000, 6.000000)">
                            <mask id="mask-4" sketch:name="Mask" fill="white">
                                <use xlink:href="#path-3"></use>
                            </mask>
                            <use id="Mask" stroke="#2C302E" fill="#FFFFFF" sketch:type="MSShapeGroup" xlink:href="#path-3"></use>
                        </g>
                        <circle id="Oval-116" stroke="#2C302E" fill="#FFFFFF" sketch:type="MSShapeGroup" cx="47" cy="55" r="2"></circle>
                        <circle id="Oval-116-Copy" fill="#2C302E" sketch:type="MSShapeGroup" cx="46.5" cy="3.5" r="0.5"></circle>
                        <path d="M6,6 L39,6 L19,50 L6,50 L6,6 Z" id="Rectangle-71" opacity="0.6" fill-opacity="0.18" fill="#424B54" sketch:type="MSShapeGroup"></path>
                    </g>
                </g>
                <g id="ipad" transform="translate(0.000000, 58.000000)" sketch:type="MSShapeGroup">
                    <path d="M0,4.00989318 C0,1.79529033 1.78185079,0 3.99484381,0 L34.0051562,0 C36.2114475,0 38,1.79405245 38,4.00989318 L38,43.9901068 C38,46.2047097 36.2181492,48 34.0051562,48 L3.99484381,48 C1.7885525,48 0,46.2059475 0,43.9901068 L0,4.00989318 L0,4.00989318 Z" id="Shape" fill="#2C302E"></path>
                    <path d="M2,4.00989318 L2,4.00989318 L2,43.9901068 C2,45.1025354 2.89428707,46 3.99484381,46 L34.0051562,46 C35.1090566,46 36,45.1046627 36,43.9901068 L36,4.00989318 C36,2.89746462 35.1057129,2 34.0051562,2 L3.99484381,2 C2.89094341,2 2,2.89533727 2,4.00989318 L2,4.00989318 Z" id="Path" fill="#FFFFFF"></path>
                    <path d="M18,43.5 C18,42.6715729 18.6715729,42 19.5,42 C20.3284271,42 21,42.6715729 21,43.5 C21,44.3284271 20.3284271,45 19.5,45 C18.6715729,45 18,44.3284271 18,43.5 Z" id="Shape" fill="#2C302E"></path>
                    <path d="M19,43.5 C19,43.2238576 19.2238576,43 19.5,43 C19.7761424,43 20,43.2238576 20,43.5 C20,43.7761424 19.7761424,44 19.5,44 C19.2238576,44 19,43.7761424 19,43.5 Z" id="Shape-Copy-3" fill="#FFFFFF"></path>
                    <rect id="Rectangle-68" stroke="#2C302E" fill="#FFFFFF" x="4" y="4" width="30" height="37"></rect>
                    <path d="M5,4 L25,4 L8.63636364,40 L5,40 L5,4 Z" id="Rectangle-71-Copy" opacity="0.6" fill-opacity="0.18" fill="#424B54"></path>
                </g>
                <g id="iphone" transform="translate(30.000000, 76.000000)" sketch:type="MSShapeGroup">
                    <rect id="Rectangle-69" stroke="#2C302E" stroke-width="2" fill="#FFFFFF" x="0" y="0" width="24" height="35" rx="4"></rect>
                    <path d="M11.5,32 L11.5,32 C10.6715729,32 10,31.3284271 10,30.5 C10,29.6715729 10.6715729,29 11.5,29 C12.3284271,29 13,29.6715729 13,30.5 C13,31.3284271 12.3284271,32 11.5,32 L11.5,32 Z" id="Shape" fill="#2C302E"></path>
                    <path d="M11.5,31 L11.5,31 C11.2238576,31 11,30.7761424 11,30.5 C11,30.2238576 11.2238576,30 11.5,30 C11.7761424,30 12,30.2238576 12,30.5 C12,30.7761424 11.7761424,31 11.5,31 L11.5,31 Z" id="Shape-Copy-4" fill="#FFFFFF"></path>
                    <path d="M11.5,3.5 L12.5,3.5" id="Line" stroke="#2C302E" stroke-linecap="square"></path>
                    <rect id="Rectangle-70" stroke="#2C302E" fill="#FFFFFF" x="4" y="5" width="16" height="23"></rect>
                    <path d="M5,6 L16,6 L7,28 L5,28 L5,6 Z" id="Rectangle-71-Copy-2" opacity="0.6" fill-opacity="0.18" fill="#424B54"></path>
                </g>
            </g>
        </g>
    </g>
</svg>