<?xml version="1.0" encoding="UTF-8" standalone="no"?>
<svg width="90px" height="116px" viewBox="0 0 90 116" version="1.1" xmlns="http://www.w3.org/2000/svg" xmlns:xlink="http://www.w3.org/1999/xlink" xmlns:sketch="http://www.bohemiancoding.com/sketch/ns">
    <!-- Generator: Sketch 3.3.3 (12081) - http://www.bohemiancoding.com/sketch -->
    <title>Node-off</title>
    <desc>Created with Sketch.</desc>
    <defs>
        <path id="path-1" d="M3.6,11.2797765 L3.6,71.218947 C3.6,75.8321446 5.6655459,80.8144442 9.75037688,86.0339411 C13.3714431,90.6506098 18.4982992,95.3783563 24.9863801,100.08759 C33.0866508,105.945784 41.3442083,110.309056 45.3527089,112.295728 C49.3681487,110.309056 57.6257062,105.946941 65.7236639,100.08759 C72.2163709,95.3795134 77.3339748,90.6517669 80.9527279,86.0339411 C85.0410285,80.8086589 87.1135135,75.8333016 87.1135135,71.218947 L87.1135135,11.2797765 L45.3527089,3.59689922 L3.6,11.2797765 L3.6,11.2797765 Z"></path>
    </defs>
    <g id="Welcome" stroke="none" stroke-width="1" fill="none" fill-rule="evenodd" sketch:type="MSPage">
        <g id="Artboard-13" sketch:type="MSArtboardGroup" transform="translate(-757.000000, -344.000000)">
            <g id="Node-off" sketch:type="MSLayerGroup" transform="translate(757.000000, 344.000000)">
                <g id="Path-+-Rectangle-217">
                    <path d="M0,11.0043561 L0,11.0043561 L0,8.30196202 L2.65657546,7.81312803 L44.4092844,0.130250745 L44.9958953,0.0223090136 L45.5825099,0.130230504 L87.3433145,7.81310779 L90,8.30186725 L90,11.0043561 L90,70.9435266 C90,76.3619854 87.6533992,82.0025208 83.1482996,87.7605149 C79.3216269,92.643663 73.9821146,97.5724057 67.2675216,102.441377 C60.4460718,107.377099 53.0811935,111.639909 46.4336334,114.928844 L44.994708,115.640764 L43.5562722,114.927854 C36.8953744,111.626615 29.5481054,107.373013 22.7251013,102.438545 C16.0068201,97.5622257 10.6642383,92.634571 6.84000385,87.7588704 C2.34447217,82.0145902 0,76.3652912 0,70.9435266 L0,11.0043561 Z" id="Shape" fill="#535353" sketch:type="MSShapeGroup"></path>
                    <mask id="mask-2" sketch:name="Mask" fill="white">
                        <use xlink:href="#path-1"></use>
                    </mask>
                    <use id="Mask" fill="#696969" sketch:type="MSShapeGroup" xlink:href="#path-1"></use>
                    <rect id="Rectangle-217" fill="#7A7A7A" sketch:type="MSShapeGroup" mask="url(#mask-2)" x="-33.2432432" y="-23.5244755" width="78.6486486" height="154.937063"></rect>
                    <g id="Imported-Layers" mask="url(#mask-2)" sketch:type="MSShapeGroup">
                        <g transform="translate(17.000000, 23.000000)">
                            <path d="M28.462,63.291 C27.508,63.291 26.571,63.04 25.751,62.565 L18.401,58.215 C18.08,58.035 17.288,57.591 17.355,56.819 C17.417,56.122 18.094,55.886 18.349,55.797 C19.789,55.297 20.031,55.2 21.535,54.346 C21.722,54.241 21.933,54.188 22.149,54.188 C22.402,54.188 22.658,54.258 22.888,54.392 L28.462,57.704 L50.316,45.084 L50.316,19.819 L28.467,7.208 L6.615,19.828 L6.615,45.07 L12.581,48.519 C13.241,48.847 13.898,49.025 14.489,49.025 C15.898,49.025 16.635,48.004 16.635,46.994 L16.635,21.928 C16.635,21.132 17.285,20.484 18.084,20.484 L20.872,20.484 C21.67,20.484 22.319,21.132 22.319,21.928 L22.319,46.994 C22.319,51.802 19.582,54.671 14.999,54.671 C13.678,54.671 12.538,54.671 9.576,53.211 L3.763,49.865 C2.09,48.897 1.051,47.09 1.051,45.149 L1.051,19.762 C1.051,17.818 2.09,16.013 3.764,15.05 L25.751,2.338 C26.562,1.88 27.5,1.639 28.471,1.639 C29.443,1.639 30.379,1.88 31.179,2.336 L53.17,15.051 C54.844,16.019 55.884,17.824 55.884,19.762 L55.884,45.149 C55.884,47.083 54.845,48.89 53.172,49.863 L31.183,62.565 C30.363,63.04 29.422,63.291 28.462,63.291" id="Fill-1" fill="#FFFFFF"></path>
                            <path d="M28.471,2.449 C29.28,2.449 30.087,2.646 30.778,3.04 L52.764,15.752 C54.189,16.576 55.074,18.112 55.074,19.762 L55.074,45.15 C55.074,46.799 54.189,48.334 52.764,49.163 L30.778,61.864 C30.075,62.271 29.277,62.481 28.462,62.481 C27.659,62.481 26.859,62.271 26.156,61.864 L18.814,57.518 C17.719,56.904 18.254,56.687 18.615,56.561 C20.078,56.054 20.374,55.936 21.935,55.05 C22,55.014 22.074,54.997 22.15,54.997 C22.263,54.997 22.38,55.033 22.48,55.092 L28.12,58.443 C28.223,58.5 28.346,58.528 28.468,58.528 C28.589,58.528 28.708,58.5 28.802,58.443 L50.791,45.746 C50.995,45.628 51.126,45.392 51.126,45.15 L51.126,19.762 C51.126,19.513 50.995,19.281 50.785,19.155 L28.805,6.468 C28.704,6.409 28.586,6.379 28.468,6.379 C28.349,6.379 28.23,6.409 28.128,6.468 L6.154,19.159 C5.94,19.281 5.805,19.52 5.805,19.762 L5.805,45.15 C5.805,45.392 5.94,45.623 6.152,45.737 L12.175,49.22 C13.04,49.652 13.816,49.835 14.489,49.835 C16.362,49.835 17.445,48.417 17.445,46.994 L17.445,21.928 C17.445,21.574 17.73,21.294 18.084,21.294 L20.872,21.294 C21.221,21.294 21.509,21.574 21.509,21.928 L21.509,46.994 C21.509,51.359 19.134,53.862 14.999,53.862 C13.728,53.862 12.727,53.862 9.934,52.484 L4.167,49.163 C2.743,48.339 1.861,46.799 1.861,45.15 L1.861,19.762 C1.861,18.112 2.743,16.572 4.167,15.752 L26.156,3.04 C26.852,2.646 27.662,2.449 28.471,2.449 M28.471,0.829 C27.36,0.829 26.284,1.106 25.358,1.63 L3.356,14.349 C1.436,15.455 0.241,17.529 0.241,19.762 L0.241,45.15 C0.241,47.379 1.435,49.454 3.356,50.565 L9.125,53.888 L9.17,53.914 L9.217,53.937 C12.131,55.374 13.398,55.482 14.999,55.482 C20.014,55.482 23.129,52.229 23.129,46.994 L23.129,21.928 C23.129,20.685 22.117,19.674 20.872,19.674 L18.084,19.674 C16.838,19.674 15.825,20.685 15.825,21.928 L15.825,46.994 C15.825,47.417 15.546,48.215 14.489,48.215 C14.042,48.215 13.508,48.069 12.941,47.791 L7.425,44.602 L7.425,20.295 L28.467,8.143 L49.506,20.287 L49.506,44.617 L28.468,56.765 L23.308,53.699 C22.945,53.487 22.547,53.377 22.15,53.377 C21.794,53.377 21.446,53.467 21.143,53.637 C19.637,54.492 19.43,54.564 18.084,55.031 C16.902,55.443 16.597,56.193 16.548,56.749 C16.435,58.042 17.63,58.711 18.022,58.931 L25.331,63.258 C26.287,63.812 27.366,64.101 28.462,64.101 C29.565,64.101 30.647,63.812 31.59,63.266 L53.575,50.566 C55.501,49.445 56.694,47.37 56.694,45.15 L56.694,19.762 C56.694,17.536 55.499,15.462 53.575,14.35 L31.589,1.637 C30.659,1.107 29.584,0.829 28.471,0.829" id="Fill-2" fill="#2C302E"></path>
                            <path d="M35.254,45.8 C24.423,45.8 22.806,40.202 22.806,36.865 C22.806,36.069 23.455,35.422 24.252,35.422 L27.095,35.422 C27.814,35.422 28.416,35.937 28.526,36.646 C28.856,38.866 29.501,40.317 35.254,40.317 C40.346,40.317 41.048,39.02 41.048,37.62 C41.048,36.91 41.048,35.939 34.022,35.252 C28.957,34.75 23.553,33.712 23.553,27.704 C23.553,22.76 27.598,19.809 34.372,19.809 C41.821,19.809 45.673,22.568 46.151,28.244 C46.187,28.636 46.052,29.038 45.779,29.342 C45.487,29.648 45.104,29.814 44.71,29.814 L41.857,29.814 C41.179,29.814 40.585,29.335 40.447,28.674 C39.923,26.343 38.92,25.297 34.372,25.297 C29.537,25.297 29.537,26.891 29.537,27.571 C29.537,28.413 29.537,28.835 36.356,29.738 C42.402,30.537 47.027,31.613 47.027,37.452 C47.027,42.758 42.736,45.8 35.254,45.8" id="Fill-3" fill="#FFFFFF"></path>
                            <path d="M34.372,20.619 C41.417,20.619 44.902,23.064 45.344,28.312 C45.361,28.493 45.296,28.667 45.176,28.802 C45.056,28.928 44.888,29.004 44.711,29.004 L41.857,29.004 C41.561,29.004 41.3,28.794 41.24,28.508 C40.555,25.461 38.89,24.487 34.372,24.487 C29.315,24.487 28.727,26.25 28.727,27.571 C28.727,29.171 29.421,29.637 36.249,30.541 C43.007,31.434 46.217,32.7 46.217,37.452 C46.217,42.245 42.222,44.991 35.254,44.991 C25.632,44.991 23.616,40.572 23.616,36.865 C23.616,36.513 23.899,36.232 24.252,36.232 L27.095,36.232 C27.412,36.232 27.678,36.46 27.726,36.77 C28.155,39.666 29.435,41.127 35.254,41.127 C39.887,41.127 41.859,40.079 41.859,37.62 C41.859,36.202 41.3,35.15 34.101,34.445 C28.084,33.849 24.363,32.52 24.363,27.704 C24.363,23.265 28.103,20.619 34.372,20.619 L34.372,20.619 Z M34.372,18.999 C27.199,18.999 22.744,22.334 22.744,27.704 C22.744,31.507 24.751,33.512 27.224,34.615 C27.181,34.613 27.138,34.612 27.095,34.612 L24.252,34.612 C23.008,34.612 21.996,35.623 21.996,36.865 C21.996,40.505 23.719,46.611 35.254,46.611 C43.133,46.611 47.837,43.187 47.837,37.452 C47.837,33.781 46.187,31.801 43.626,30.624 L44.711,30.624 C45.325,30.624 45.923,30.367 46.35,29.918 L46.368,29.899 L46.385,29.88 C46.806,29.408 47.014,28.782 46.957,28.164 C46.446,22.086 42.211,18.999 34.372,18.999 L34.372,18.999 Z M30.352,27.732 C30.349,27.694 30.347,27.642 30.347,27.571 C30.347,26.107 33.377,26.107 34.372,26.107 C38.823,26.107 39.263,27.103 39.659,28.863 C39.706,29.085 39.786,29.294 39.895,29.486 C38.81,29.265 37.655,29.093 36.462,28.935 C34.986,28.74 31.152,28.232 30.352,27.732 L30.352,27.732 Z M35.254,39.507 C29.77,39.507 29.585,38.26 29.329,36.533 C29.236,35.943 28.931,35.441 28.5,35.098 C30.407,35.707 32.427,35.907 33.941,36.057 C39.261,36.578 40.111,37.253 40.235,37.398 L40.234,37.398 C40.228,37.398 40.239,37.462 40.239,37.62 C40.239,38.279 40.239,39.507 35.254,39.507 L35.254,39.507 Z" id="Fill-4" fill="#2C302E"></path>
                        </g>
                    </g>
                </g>
            </g>
        </g>
    </g>
</svg>