<?xml version="1.0" encoding="UTF-8" standalone="no"?>
<svg width="91px" height="116px" viewBox="0 0 91 116" version="1.1" xmlns="http://www.w3.org/2000/svg" xmlns:xlink="http://www.w3.org/1999/xlink" xmlns:sketch="http://www.bohemiancoding.com/sketch/ns">
    <!-- Generator: Sketch 3.3.3 (12081) - http://www.bohemiancoding.com/sketch -->
    <title>PHP-on</title>
    <desc>Created with Sketch.</desc>
    <defs>
        <path id="path-1" d="M3.24324324,11.0043561 L3.24324324,70.9435266 C3.24324324,75.5567241 5.30878915,80.5390238 9.39362012,85.7585207 C13.0146863,90.3751894 18.1415424,95.1029359 24.6296233,99.8121694 C32.729894,105.670363 40.9874516,110.033636 44.9959522,112.020308 C49.0113919,110.033636 57.2689494,105.67152 65.3669071,99.8121694 C71.8596141,95.1040929 76.977218,90.3763465 80.5959712,85.7585207 C84.6842717,80.5332385 86.7567568,75.5578812 86.7567568,70.9435266 L86.7567568,11.0043561 L44.9959522,3.3214788 L3.24324324,11.0043561 L3.24324324,11.0043561 Z"></path>
    </defs>
    <g id="Welcome" stroke="none" stroke-width="1" fill="none" fill-rule="evenodd" sketch:type="MSPage">
        <g id="Artboard-13" sketch:type="MSArtboardGroup" transform="translate(-594.000000, -189.000000)">
            <g id="PHP-on" sketch:type="MSLayerGroup" transform="translate(594.500000, 189.000000)">
                <g id="Path-+-Rectangle-217">
                    <path d="M0,11.0043561 L0,11.0043561 L0,8.30196202 L2.65657546,7.81312803 L44.4092844,0.130250745 L44.9958953,0.0223090136 L45.5825099,0.130230504 L87.3433145,7.81310779 L90,8.30186725 L90,11.0043561 L90,70.9435266 C90,76.3619854 87.6533992,82.0025208 83.1482996,87.7605149 C79.3216269,92.643663 73.9821146,97.5724057 67.2675216,102.441377 C60.4460718,107.377099 53.0811935,111.639909 46.4336334,114.928844 L44.994708,115.640764 L43.5562722,114.927854 C36.8953744,111.626615 29.5481054,107.373013 22.7251013,102.438545 C16.0068201,97.5622257 10.6642383,92.634571 6.84000385,87.7588704 C2.34447217,82.0145902 0,76.3652912 0,70.9435266 L0,11.0043561 Z" id="Shape" fill="#9E0B0F" sketch:type="MSShapeGroup"></path>
                    <mask id="mask-2" sketch:name="Mask" fill="white">
                        <use xlink:href="#path-1"></use>
                    </mask>
                    <use id="Mask" fill="#BB241D" sketch:type="MSShapeGroup" xlink:href="#path-1"></use>
                    <rect id="Rectangle-217" fill="#DA322C" sketch:type="MSShapeGroup" mask="url(#mask-2)" x="-33.2432432" y="-23.5244755" width="78.6486486" height="154.937063"></rect>
                    <g id="php-logo" mask="url(#mask-2)" stroke="#2C302E" stroke-width="1.62" fill="#FFFFFF" sketch:type="MSShapeGroup">
                        <g transform="translate(6.486486, 31.636364)">
                            <path d="M15.4038933,12.7678783 C17.7591855,12.7678783 19.3287946,13.2027059 20.1135015,14.0727517 C20.8976227,14.9426021 21.0844763,16.4357835 20.6742575,18.5517098 C20.24549,20.755344 19.4203665,22.3282242 18.1969345,23.2705459 C16.9735024,24.2128676 15.1118004,24.6836378 12.6124141,24.6836378 L8.84175977,24.6836378 L11.1564402,12.7678783 L15.4038933,12.7678783 L15.4038933,12.7678783 Z M0.299603149,36.7459025 L6.49876824,36.7459025 L7.96919067,29.1764652 L13.2791905,29.1764652 C15.622182,29.1764652 17.5494878,28.930727 19.0626698,28.4376881 C20.5758519,27.9458211 21.9509926,27.1199223 23.1886779,25.9607728 C24.2275994,25.005754 25.0679524,23.951893 25.7116893,22.7995804 C26.3546452,21.6482446 26.8115286,20.3769698 27.0815583,18.9867327 C27.7374007,15.6116427 27.2424438,12.982948 25.5980542,11.0998673 C23.9536646,9.21659131 21.3377146,8.27505097 17.7515708,8.27505097 L5.83062515,8.27505097 L0.299603149,36.7459025 L0.299603149,36.7459025 Z" id="Fill-11"></path>
                            <path d="M31.6343814,0.705613587 L37.7847341,0.705613587 L36.3143117,8.27505097 L41.7935927,8.27505097 C45.2409142,8.27505097 47.6190506,8.87708983 48.9278066,10.0796048 C50.2365626,11.2829012 50.6286232,13.2325929 50.1053551,15.9277033 L47.5319694,29.1764652 L41.283992,29.1764652 L43.7306609,16.5793586 C44.0090864,15.146342 43.906971,14.1688591 43.4233385,13.6476911 C42.9399013,13.1265231 41.9109375,12.8655485 40.3374234,12.8655485 L35.4220224,12.8655485 L32.2537121,29.1764652 L26.1033594,29.1764652 L31.6343814,0.705613587" id="Fill-12"></path>
                            <path d="M63.7897924,12.7678783 C66.1448894,12.7678783 67.7144984,13.2027059 68.4994006,14.0727517 C69.2835218,14.9426021 69.4703754,16.4357835 69.0599613,18.5517098 C68.6313891,20.755344 67.8062656,22.3282242 66.5826383,23.2705459 C65.3594015,24.2128676 63.4976994,24.6836378 60.9985085,24.6836378 L57.2276589,24.6836378 L59.5423392,12.7678783 L63.7897924,12.7678783 L63.7897924,12.7678783 Z M48.6855022,36.7459025 L54.8846673,36.7459025 L56.3550898,29.1764652 L61.6648943,29.1764652 C64.0078858,29.1764652 65.9351916,28.930727 67.4483737,28.4376881 C68.9615557,27.9458211 70.3366965,27.1199223 71.574577,25.9607728 C72.6133032,25.005754 73.4538515,23.951893 74.0975884,22.7995804 C74.7405443,21.6482446 75.1974276,20.3769698 75.4672622,18.9867327 C76.1232998,15.6116427 75.6283428,12.982948 73.9839533,11.0998673 C72.3395637,9.21659131 69.7236137,8.27505097 66.1372747,8.27505097 L54.216329,8.27505097 L48.6855022,36.7459025 L48.6855022,36.7459025 Z" id="Fill-13"></path>
                        </g>
                    </g>
                </g>
            </g>
        </g>
    </g>
</svg>