<?xml version="1.0" encoding="UTF-8" standalone="no"?>
<svg width="94px" height="38px" viewBox="0 0 94 38" version="1.1" xmlns="http://www.w3.org/2000/svg" xmlns:xlink="http://www.w3.org/1999/xlink" xmlns:sketch="http://www.bohemiancoding.com/sketch/ns">
    <!-- Generator: Sketch 3.5.1 (25234) - http://www.bohemiancoding.com/sketch -->
    <title>private key copy 2</title>
    <desc>Created with Sketch.</desc>
    <defs></defs>
    <g id="Page-1" stroke="none" stroke-width="1" fill="none" fill-rule="evenodd" sketch:type="MSPage">
        <g id="VirgilSecurity---developers" sketch:type="MSArtboardGroup" transform="translate(-673.000000, -717.000000)" stroke="#2C302E">
            <g id="Group-2-Copy" sketch:type="MSLayerGroup" transform="translate(580.000000, 719.000000)">
                <g id="private-key-copy-2" transform="translate(95.000000, 0.000000)" sketch:type="MSShapeGroup">
                    <path d="M32.2057956,10.1081081 L90,10.1081081 L90,18.9250614 L84.5137992,24.4690411 L79.1062485,24.4690411 L75.6287026,20.9548708 L69.0843752,20.9548708 L66.2140602,23.855415 L60.4270049,23.855415 L56.1315098,19.5146812 L44.3528145,19.5146812 L40.9209556,22.9826834 L32.5743526,22.9826834 C30.1789617,29.4198441 24.0301965,34 16.8228273,34 C7.53183636,34 0,26.3888407 0,17 C0,7.61115925 7.53183636,0 16.8228273,0 C23.6860123,0 29.5892854,4.15315498 32.2057956,10.1081081 Z" id="Oval-248" stroke-width="3" fill="#FACB63"></path>
                    <ellipse id="Oval" stroke-width="2.14285714" fill="#FFFFFF" cx="11.8196885" cy="17.4594595" rx="5.45605211" ry="5.51351351"></ellipse>
                    <path d="M88.3928571,14.5 L57.4353278,14.5" id="Line" stroke-linecap="square"></path>
                </g>
            </g>
        </g>
    </g>
</svg>