<?xml version="1.0" encoding="UTF-8" standalone="no"?>
<svg width="72px" height="93px" viewBox="0 0 72 93" version="1.1" xmlns="http://www.w3.org/2000/svg" xmlns:xlink="http://www.w3.org/1999/xlink" xmlns:sketch="http://www.bohemiancoding.com/sketch/ns">
    <!-- Generator: Sketch 3.5.1 (25234) - http://www.bohemiancoding.com/sketch -->
    <title>Path + Rectangle 217 Copy</title>
    <desc>Created with Sketch.</desc>
    <defs>
        <path id="path-1" d="M2.88,9.0432691 L2.88,57.0979489 C2.88,60.7964607 4.53243672,64.7908906 7.8003015,68.9754873 C10.6971545,72.676782 14.7986393,76.4671305 19.9891041,80.2426367 C26.4693206,84.9392921 33.0753667,88.4374331 36.2821671,90.0301958 C39.4945189,88.4374331 46.100565,84.9402198 52.5789311,80.2426367 C57.7730967,76.4680581 61.8671798,72.6777097 64.7621824,68.9754873 C68.0328228,64.7862524 69.6908108,60.7973884 69.6908108,57.0979489 L69.6908108,9.0432691 L36.2821671,2.88372093 L2.88,9.0432691 L2.88,9.0432691 Z"></path>
    </defs>
    <g id="Page-1" stroke="none" stroke-width="1" fill="none" fill-rule="evenodd" sketch:type="MSPage">
        <g id="PHP-Copy-2" sketch:type="MSLayerGroup" transform="translate(-35.000000, 0.000000)">
            <g id="Path-+-Rectangle-217-Copy" transform="translate(35.000000, 0.000000)">
                <path d="M0,8.8224579 L0,8.8224579 L0,6.65588334 L2.12526037,6.26397334 L35.5274275,0.104425166 L35.9967163,0.0178856747 L36.466008,0.104408938 L69.8746516,6.26395711 L72,6.65580737 L72,8.8224579 L72,56.8771377 C72,61.2212469 70.1227194,65.7434003 66.5186397,70.3597231 C63.4573016,74.2746609 59.1856917,78.2261529 53.8140173,82.1297246 C48.3568574,86.0868122 42.4649548,89.5044097 37.1469067,92.1412281 L35.9957664,92.7119917 L34.8450178,92.1404346 C29.5162995,89.4937519 23.6384843,86.0835366 18.1800811,82.1274543 C12.8054561,78.2179913 8.53139067,74.2673716 5.47200308,70.3584047 C1.87557774,65.7530766 0,61.2238973 0,56.8771377 L0,8.8224579 Z" id="Shape" fill="#535353" sketch:type="MSShapeGroup"></path>
                <mask id="mask-2" sketch:name="Mask" fill="white">
                    <use xlink:href="#path-1"></use>
                </mask>
                <use id="Mask" fill="#696969" sketch:type="MSShapeGroup" xlink:href="#path-1"></use>
                <rect id="Rectangle-217" fill="#7A7A7A" sketch:type="MSShapeGroup" mask="url(#mask-2)" x="-26.5945946" y="-18.8601399" width="62.9189189" height="124.216783"></rect>
                <g id="g2303" mask="url(#mask-2)" stroke="#2C302E" fill="#FFFFFF" sketch:type="MSShapeGroup">
                    <g transform="translate(11.520000, 20.186047)">
                        <path d="M37.1094021,11.175764 L37.1094021,16.4867026 C37.1094021,20.6042016 33.6200581,24.0697746 29.6410535,24.069775 L17.7000558,24.069775 C14.4292165,24.069775 11.7225906,26.8703745 11.7225902,30.1473845 L11.7225902,41.5359313 C11.7225902,44.7771773 14.5398689,46.683642 17.7000558,47.6135408 C21.4843153,48.7267403 25.113222,48.9279237 29.6410535,47.6135408 C32.6507556,46.7417596 35.6185204,44.9872953 35.6185191,41.5359313 L35.6185191,36.9777255 L23.6775214,36.9777255 L23.6775214,35.4583231 L35.6185191,35.4583231 L41.5959865,35.4583231 C45.0704228,35.4583231 46.3651401,33.0337883 47.5734476,29.3946531 C48.8215892,25.6482201 48.7684815,22.0454176 47.5734476,17.239434 C46.7147971,13.779126 45.0748414,11.175764 41.5959865,11.175764 L37.1094021,11.175764 L37.1094021,11.175764 Z" id="path1950" stroke-width="1.296"></path>
                        <path d="M24.7503998,0.177521019 C22.7066793,0.187021404 20.754972,0.361396118 19.0376705,0.665402517 C13.9787154,1.55953766 13.0602053,3.43103918 13.0602049,6.88240679 L13.0602049,11.4406139 L25.0151361,11.4406139 L25.0151361,12.9600163 L13.0602049,12.9600163 L8.57362231,12.9600163 C5.09918646,12.9600163 2.05687096,15.0492496 1.1052736,19.0236864 C0.00761807229,23.5793135 -0.0410689172,26.4220989 1.1052736,31.1789054 C1.95507282,34.7196881 3.98450845,37.2425746 7.45894341,37.2425754 L11.5693218,37.2425754 L11.5693218,31.7783027 C11.5693218,27.8306881 14.9834246,24.3485653 19.0376705,24.3485644 L30.9786682,24.3485644 C34.3026188,24.3485644 36.9561351,21.6105561 36.9561338,18.2709549 L36.9561338,6.88240679 C36.9561338,3.64116121 34.22295,1.2063533 30.9786682,0.665402517 C28.9249896,0.323394665 26.7941203,0.168020634 24.7503998,0.177521019 L24.7503998,0.177521019 Z" id="path1948" stroke-width="1.296"></path>
                        <path d="M18.2852622,3.84360203 C19.5201245,3.84360203 20.5285535,4.86894316 20.5285535,6.12967534 C20.5285526,7.38593886 19.5201245,8.40180917 18.2852622,8.40180917 C17.0459729,8.40180873 16.0419709,7.38593842 16.0419709,6.12967534 C16.0419705,4.8689436 17.0459729,3.84360203 18.2852622,3.84360203 L18.2852622,3.84360203 Z" id="path1948-path" stroke-width="0.648"></path>
                        <path d="M30.3934618,40.0165302 C31.6327519,40.0165316 32.636753,41.0324019 32.636753,42.2886627 C32.6367522,43.5493931 31.6327506,44.574736 30.3934618,44.574736 C29.1585982,44.574736 28.1501705,43.5493931 28.1501705,42.2886627 C28.1501714,41.0324019 29.1585968,40.0165302 30.3934618,40.0165302 L30.3934618,40.0165302 Z" id="path1950-path" stroke-width="0.648"></path>
                    </g>
                </g>
            </g>
        </g>
    </g>
</svg>