<?xml version="1.0" encoding="UTF-8" standalone="no"?>
<svg width="72px" height="94px" viewBox="0 0 72 94" version="1.1" xmlns="http://www.w3.org/2000/svg" xmlns:xlink="http://www.w3.org/1999/xlink" xmlns:sketch="http://www.bohemiancoding.com/sketch/ns">
    <!-- Generator: Sketch 3.5.1 (25234) - http://www.bohemiancoding.com/sketch -->
    <title>Shape + Group + C# Copy</title>
    <desc>Created with Sketch.</desc>
    <defs>
        <path id="path-1" d="M33.4021671,2.13162821e-14 L0,6.18254529 L0,54.4166407 C0,58.1289612 1.65243672,62.1383046 4.9203015,66.3385247 C7.81715446,70.0536385 11.9186393,73.8581385 17.1091041,77.6477408 C23.5893206,82.3619316 30.1953667,85.8731332 33.4021671,87.4718425 C36.6145189,85.8731332 43.220565,82.3628627 49.6989311,77.6477408 C54.8930967,73.8590696 58.9871798,70.0545696 61.8821824,66.3385247 C65.1528228,62.133649 66.8108108,58.1298923 66.8108108,54.4166407 L66.8108108,6.18254529 L33.4021671,2.13162821e-14 L33.4021671,2.13162821e-14 Z"></path>
    </defs>
    <g id="Page-1" stroke="none" stroke-width="1" fill="none" fill-rule="evenodd" sketch:type="MSPage">
        <g id="PHP-Copy-5" sketch:type="MSLayerGroup" transform="translate(-33.000000, 0.000000)">
            <g id="Shape-+-Group-+-C#-Copy" transform="translate(33.000000, 0.000000)">
                <g id="Shape-+-Group">
                    <path d="M35.5274275,0.695852037 L35.5274275,0.695852037 L35.9967163,0.608989444 L36.466008,0.695835749 L69.8746516,6.87838104 L72,7.2716943 L72,9.44643418 L72,57.6805296 C72,62.0408579 70.1227194,66.579895 66.5186397,71.2134532 C63.4573016,75.1430077 59.1856917,79.1092529 53.8140173,83.0273989 C48.3568574,86.9992605 42.4649548,90.4296179 37.1469067,93.0762811 L35.9957664,93.6491756 L34.8450178,93.0754846 C29.5162995,90.4189203 23.6384843,86.9959727 18.1800811,83.0251201 C12.8054561,79.1010608 8.53139067,75.1356912 5.47200308,71.2121299 C1.87557774,66.5896075 0,62.0435181 0,57.6805296 L0,9.44643418 L0,7.27177056 L2.12526037,6.87839733 L35.5274275,0.695852037 Z" id="Path" fill="#9E0B0F" sketch:type="MSShapeGroup"></path>
                    <g id="Shape-+-Rectangle-215" transform="translate(2.594595, 3.263889)">
                        <mask id="mask-2" sketch:name="Mask" fill="white">
                            <use xlink:href="#path-1"></use>
                        </mask>
                        <use id="Mask" fill="#BB241D" sketch:type="MSShapeGroup" xlink:href="#path-1"></use>
                        <rect id="Rectangle-215" fill="#DA322C" sketch:type="MSShapeGroup" mask="url(#mask-2)" x="-38.2702703" y="-43.0833333" width="72" height="142.958333"></rect>
                    </g>
                </g>
                <g id="g2303" transform="translate(11.000000, 21.000000)" stroke="#2C302E" fill="#FFFFFF" sketch:type="MSShapeGroup">
                    <path d="M37.1094021,11.175764 L37.1094021,16.4867026 C37.1094021,20.6042016 33.6200581,24.0697746 29.6410535,24.069775 L17.7000558,24.069775 C14.4292165,24.069775 11.7225906,26.8703745 11.7225902,30.1473845 L11.7225902,41.5359313 C11.7225902,44.7771773 14.5398689,46.683642 17.7000558,47.6135408 C21.4843153,48.7267403 25.113222,48.9279237 29.6410535,47.6135408 C32.6507556,46.7417596 35.6185204,44.9872953 35.6185191,41.5359313 L35.6185191,36.9777255 L23.6775214,36.9777255 L23.6775214,35.4583231 L35.6185191,35.4583231 L41.5959865,35.4583231 C45.0704228,35.4583231 46.3651401,33.0337883 47.5734476,29.3946531 C48.8215892,25.6482201 48.7684815,22.0454176 47.5734476,17.239434 C46.7147971,13.779126 45.0748414,11.175764 41.5959865,11.175764 L37.1094021,11.175764 L37.1094021,11.175764 Z" id="path1950" stroke-width="1.296"></path>
                    <path d="M24.7503998,0.177521019 C22.7066793,0.187021404 20.754972,0.361396118 19.0376705,0.665402517 C13.9787154,1.55953766 13.0602053,3.43103918 13.0602049,6.88240679 L13.0602049,11.4406139 L25.0151361,11.4406139 L25.0151361,12.9600163 L13.0602049,12.9600163 L8.57362231,12.9600163 C5.09918646,12.9600163 2.05687096,15.0492496 1.1052736,19.0236864 C0.00761807229,23.5793135 -0.0410689172,26.4220989 1.1052736,31.1789054 C1.95507282,34.7196881 3.98450845,37.2425746 7.45894341,37.2425754 L11.5693218,37.2425754 L11.5693218,31.7783027 C11.5693218,27.8306881 14.9834246,24.3485653 19.0376705,24.3485644 L30.9786682,24.3485644 C34.3026188,24.3485644 36.9561351,21.6105561 36.9561338,18.2709549 L36.9561338,6.88240679 C36.9561338,3.64116121 34.22295,1.2063533 30.9786682,0.665402517 C28.9249896,0.323394665 26.7941203,0.168020634 24.7503998,0.177521019 L24.7503998,0.177521019 Z" id="path1948" stroke-width="1.296"></path>
                    <path d="M18.2852622,3.84360203 C19.5201245,3.84360203 20.5285535,4.86894316 20.5285535,6.12967534 C20.5285526,7.38593886 19.5201245,8.40180917 18.2852622,8.40180917 C17.0459729,8.40180873 16.0419709,7.38593842 16.0419709,6.12967534 C16.0419705,4.8689436 17.0459729,3.84360203 18.2852622,3.84360203 L18.2852622,3.84360203 Z" id="path1948-path" stroke-width="0.648"></path>
                    <path d="M30.3934618,40.0165302 C31.6327519,40.0165316 32.636753,41.0324019 32.636753,42.2886627 C32.6367522,43.5493931 31.6327506,44.574736 30.3934618,44.574736 C29.1585982,44.574736 28.1501705,43.5493931 28.1501705,42.2886627 C28.1501714,41.0324019 29.1585968,40.0165302 30.3934618,40.0165302 L30.3934618,40.0165302 Z" id="path1950-path" stroke-width="0.648"></path>
                </g>
            </g>
        </g>
    </g>
</svg>