<svg xmlns="http://www.w3.org/2000/svg" xmlns:xlink="http://www.w3.org/1999/xlink" xmlns:sketch="http://www.bohemiancoding.com/sketch/ns" width="429" height="234" viewBox="0 0 429 234" version="1.1">
  <title>
    Group Copy 4
  </title>
  <desc>
    Created with Sketch.
  </desc>
  <defs>
    <path d="M24.32 32.93L52.48 32.93C57.52 32.93 61.59 28.85 61.59 23.82L61.59 9.11C61.59 4.07 57.51 0 52.48 0L9.1 0C4.06 0 0 4.08 0 9.11L0 23.82C0 28.86 4.08 32.93 9.1 32.93L9.74 32.93 12.95 43.44 24.32 32.93Z" id="path-1"/>
    <path id="path-3" d="M15.39 0.31L0.25 3.07 0.25 24.53C0.25 26.18 1 27.96 2.48 29.83 3.79 31.48 5.65 33.18 8.01 34.86 10.95 36.96 13.94 38.52 15.39 39.23 16.85 38.52 19.85 36.96 22.78 34.86 25.14 33.18 27 31.48 28.31 29.83 29.79 27.96 30.54 26.18 30.54 24.53L30.54 3.07 15.39 0.31 15.39 0.31Z"/>
    <path id="path-5" d="M15.39 0.31L0.25 3.07 0.25 24.53C0.25 26.18 1 27.96 2.48 29.83 3.79 31.48 5.65 33.18 8.01 34.86 10.95 36.96 13.94 38.52 15.39 39.23 16.85 38.52 19.85 36.96 22.78 34.86 25.14 33.18 27 31.48 28.31 29.83 29.79 27.96 30.54 26.18 30.54 24.53L30.54 3.07 15.39 0.31 15.39 0.31Z"/>
    <path id="path-7" d="M15.39 0.31L0.25 3.07 0.25 24.53C0.25 26.18 1 27.96 2.48 29.83 3.79 31.48 5.65 33.18 8.01 34.86 10.95 36.96 13.94 38.52 15.39 39.23 16.85 38.52 19.85 36.96 22.78 34.86 25.14 33.18 27 31.48 28.31 29.83 29.79 27.96 30.54 26.18 30.54 24.53L30.54 3.07 15.39 0.31 15.39 0.31Z"/>
    <path id="path-9" d="M21.34 0.44L0.34 4.27 0.34 34.16C0.34 36.46 1.38 38.95 3.44 41.55 5.26 43.85 7.84 46.21 11.1 48.56 15.17 51.48 19.33 53.66 21.34 54.65 23.36 53.66 27.52 51.48 31.59 48.56 34.85 46.21 37.43 43.85 39.25 41.55 41.3 38.94 42.35 36.46 42.35 34.16L42.35 4.27 21.34 0.44 21.34 0.44Z"/>
  </defs>
  <g id="Page-1" stroke="none" stroke-width="1" fill="none" fill-rule="evenodd" sketch:type="MSPage">
    <g id="Comixes-Copy" sketch:type="MSArtboardGroup" transform="translate(-245.000000, -781.000000)">
      <g id="Group-Copy-4" sketch:type="MSLayerGroup" transform="translate(245.000000, 781.000000)">
        <g id="Group">
          <g id="Oval-139-+-Rectangle-95-+-Rectangle-95-Copy" transform="translate(158.862969, 0.350299)" fill="#282B28" sketch:type="MSShapeGroup">
            <path d="M58.28 85.79C57.14 85.79 55.99 85.73 54.84 85.61 45.67 84.64 37.4 79.87 31.97 72.44 29.31 72.99 26.55 73.12 23.82 72.83 9.23 71.3-1.39 58.17 0.15 43.57 1.49 30.82 11.86 20.8 24.51 19.81 29.58 7.91 41.45 0 54.42 0 55.56 0 56.72 0.06 57.86 0.18 66.15 1.05 73.6 4.95 79.01 11.2 82.49 9.1 86.56 8.19 90.65 8.63 98.9 9.49 105.5 15.57 107.12 23.6 118.16 25.72 126.03 36.16 124.84 47.5 123.66 58.71 114.3 67.17 103.06 67.19 99.53 74.64 92.1 79.38 83.8 79.38 83.05 79.38 82.29 79.34 81.55 79.26 80.52 79.15 79.49 78.97 78.49 78.71 72.75 83.28 65.61 85.79 58.28 85.79L58.28 85.79ZM33.49 68.46L34.18 69.48C39 76.62 46.66 81.23 55.21 82.12 63.05 82.95 70.94 80.52 76.96 75.44L77.68 74.83 78.59 75.11C79.67 75.43 80.79 75.66 81.91 75.78 82.54 75.84 83.18 75.88 83.8 75.88 91.08 75.88 97.56 71.51 100.31 64.75L100.78 63.6 102.02 63.66C111.92 64.2 120.34 56.9 121.36 47.13 122.4 37.23 115.23 28.14 105.37 26.86L104.04 26.69 103.86 25.35C102.94 18.3 97.36 12.85 90.28 12.11 86.51 11.71 82.76 12.72 79.7 14.95L78.33 15.94 77.29 14.61C72.4 8.38 65.37 4.49 57.5 3.66 56.48 3.56 55.44 3.5 54.42 3.5 42.51 3.5 31.63 10.99 27.35 22.13L26.94 23.21 25.78 23.25C14.35 23.64 4.82 32.53 3.63 43.94 2.3 56.62 11.52 68.02 24.18 69.35 26.91 69.64 29.67 69.44 32.3 68.77L33.49 68.46 33.49 68.46Z" id="Imported-Layers"/>
          </g>
          <g id="cloud" transform="translate(161.662316, 7.706587)" sketch:type="MSShapeGroup">
            <path d="M23.83 11.01C23.83 11.01 57.1 2.51 80.64 23.4 104.18 44.29 94.86 66.29 94.86 66.29" id="Path-754" stroke="#2C302E" stroke-width="0.7"/>
            <path d="M71.63 0.14C71.63 0.14 50.91 22.16 58.27 45.05 65.63 67.93 70.76 70.24 70.76 70.24" id="Path-755" stroke="#2C302E" stroke-width="1.4"/>
            <ellipse id="Oval-145" fill="#2C302E" cx="56.69" cy="35.73" rx="4.2" ry="4.2"/>
            <ellipse id="Oval-145-Copy" fill="#2C302E" cx="21.69" cy="37.13" rx="4.2" ry="4.2"/>
            <ellipse id="Oval-145-Copy-2" fill="#2C302E" cx="94.48" cy="43.44" rx="3.5" ry="3.5"/>
            <ellipse id="Oval-145-Copy-3" fill="#2C302E" cx="52.49" cy="11.21" rx="3.5" ry="3.5"/>
            <ellipse id="Oval-145-Copy-4" fill="#2C302E" cx="92.38" cy="20.32" rx="2.8" ry="2.8"/>
            <path d="M100.78 9.09C100.78 9.09 71.83 49.95 37.85 49.95 3.87 49.95 0 36.42 0 36.42" id="Path-756" stroke="#2C302E" stroke-width="1.4"/>
            <path d="M22.67 13.09C22.67 13.09 14.32 31.18 26.51 45.66 38.7 60.14 89.8 69.57 89.8 69.57" id="Path-757" stroke="#2C302E" stroke-width="0.7"/>
          </g>
          <path d="M198.49 208.9L221.15 208.9C226.17 208.9 230.25 204.83 230.25 199.8L230.25 189.85C230.25 184.83 226.17 180.75 221.15 180.75L186.86 180.75C181.83 180.75 177.76 184.83 177.76 189.85L177.76 199.8C177.76 204.55 181.4 208.46 186.05 208.87L188.79 217.89 198.49 208.9Z" id="Rectangle-144-Copy-4" stroke="#2C302E" stroke-width="2.8" fill="#FFFFFF" sketch:type="MSShapeGroup"/>
          <g id="Rectangle-144-+-Rectangle-95-Copy-3-+-Rectangle-95-Copy-2" transform="translate(199.453507, 156.233533)">
            <mask id="mask-2" sketch:name="Mask" fill="white">
              <use xlink:href="#path-1"/>
            </mask>
            <use id="Mask" stroke="#2C302E" stroke-width="2.8" fill="#FFFFFF" sketch:type="MSShapeGroup" transform="translate(30.792822, 21.718563) scale(-1, 1) translate(-30.792822, -21.718563) " xlink:href="#path-1"/>
          </g>
          <g id="shield-copy-3" transform="translate(165.511419, 189.161677)">
            <g id="Mask-+-Rectangle-94">
              <path d="M17.76 0.7L17.76 0.7 18.19 0.62 18.63 0.7 33.78 3.45 35.79 3.82 35.79 5.87 35.79 27.33C35.79 29.6 34.83 31.89 33.03 34.16 31.56 36.01 29.53 37.85 27.01 39.66 24.47 41.47 21.74 43.03 19.27 44.24L18.19 44.76 17.12 44.24C14.64 43.03 11.92 41.47 9.38 39.66 6.85 37.85 4.83 36.01 3.36 34.16 1.56 31.89 0.6 29.6 0.6 27.33L0.6 5.87 0.6 3.82 2.61 3.45 17.76 0.7Z" id="Shape" fill="#9E0B0F" sketch:type="MSShapeGroup"/>
              <g id="Path-+-Rectangle-94" transform="translate(2.799347, 2.802395)">
                <mask id="mask-4" sketch:name="Mask" fill="white">
                  <use xlink:href="#path-3"/>
                </mask>
                <use id="Mask" fill="#BB241D" sketch:type="MSShapeGroup" xlink:href="#path-3"/>
                <rect id="Rectangle-94" fill="#DA322C" sketch:type="MSShapeGroup" mask="url(#mask-4)" x="-21.85" y="-14.71" width="37.25" height="66.21"/>
              </g>
            </g>
            <path d="M18.24 28.56L11.74 11.63 8.72 11.63 18.27 35.22 27.81 11.63 24.97 11.63 18.24 28.56 18.24 28.56Z" id="Shape-Copy" fill="#FFFFFF" sketch:type="MSShapeGroup"/>
          </g>
          <g id="Imported-Layers-Copy" transform="translate(13.296900, 142.922156)" sketch:type="MSShapeGroup">
            <path d="M36.07 69.87L9.47 56.3 9.47 14.69 35.6 0.29 62.66 14.54 62.66 56.29 36.07 69.87 36.07 69.87ZM12.37 54.65L36.07 66.74 59.76 54.64 59.76 16.18 35.62 3.47 12.37 16.28 12.37 54.65 12.37 54.65Z" id="Fill-1" fill="#2C302E"/>
            <path d="M25.88 42.14L2.99 29.07 10.3 16.99 33.19 30.06 25.88 42.14" id="Fill-2" fill="#FFFFFF"/>
            <path d="M26.52 44.53L0.52 29.69 9.66 14.59 35.66 29.43 26.52 44.53 26.52 44.53Z" id="Fill-3" fill="#2C302E"/>
            <path d="M4.47 28.35L25.8 40.54 31.72 30.77 10.38 18.58 4.47 28.35 4.47 28.35Z" id="Path" fill="#D8D8D8"/>
            <path d="M45.75 42.1L69.36 29.03 61.82 16.95 38.21 30.02 45.75 42.1" id="Fill-4" fill="#FFFFFF"/>
            <path d="M35.66 29.4L62.48 14.55 71.91 29.65 45.09 44.5 35.66 29.4 35.66 29.4Z" id="Fill-5" fill="#2C302E"/>
            <path d="M39.87 30.72L45.91 40.39 67.7 28.33 61.66 18.66 39.87 30.72Z" id="Path" fill="#D8D8D8"/>
            <path d="M34.93 4.27L36.33 4.27 36.33 29.43 34.93 29.43 34.93 4.27Z" id="Fill-6" fill="#1A1918"/>
            <path d="M33.88 29.43L36.68 29.43 36.68 66.73 33.88 66.73 33.88 29.43Z" id="Fill-7" fill="#2C302E"/>
          </g>
          <g transform="translate(0.000000, 185.658683)" id="shield-copy">
            <g id="Mask-+-Rectangle-94">
              <path d="M17.76 0.7L17.76 0.7 18.19 0.62 18.63 0.7 33.78 3.45 35.79 3.82 35.79 5.87 35.79 27.33C35.79 29.6 34.83 31.89 33.03 34.16 31.56 36.01 29.53 37.85 27.01 39.66 24.47 41.47 21.74 43.03 19.27 44.24L18.19 44.76 17.12 44.24C14.64 43.03 11.92 41.47 9.38 39.66 6.85 37.85 4.83 36.01 3.36 34.16 1.56 31.89 0.6 29.6 0.6 27.33L0.6 5.87 0.6 3.82 2.61 3.45 17.76 0.7Z" id="Shape" fill="#9E0B0F" sketch:type="MSShapeGroup"/>
              <g id="Path-+-Rectangle-94" transform="translate(2.799347, 2.802395)">
                <mask id="mask-6" sketch:name="Mask" fill="white">
                  <use xlink:href="#path-5"/>
                </mask>
                <use id="Mask" fill="#BB241D" sketch:type="MSShapeGroup" xlink:href="#path-5"/>
                <rect id="Rectangle-94" fill="#DA322C" sketch:type="MSShapeGroup" mask="url(#mask-6)" x="-21.85" y="-14.71" width="37.25" height="66.21"/>
              </g>
            </g>
            <path d="M18.24 28.56L11.74 11.63 8.72 11.63 18.27 35.22 27.81 11.63 24.97 11.63 18.24 28.56 18.24 28.56Z" id="Shape-Copy" fill="#FFFFFF" sketch:type="MSShapeGroup"/>
          </g>
          <g id="hand" transform="translate(368.814029, 150.628743)" sketch:type="MSShapeGroup">
            <rect id="Rectangle-147" fill="#CBDBEA" x="2.1" y="23.82" width="11.9" height="32.23" rx="2.1"/>
            <path d="M11.62 53.67C12.01 53.67 12.35 53.52 12.51 53.32L14.68 50.6 16.87 53.3C17.87 54.54 19.38 55.26 21.12 55.26L29.21 55.26 30.01 55.26 42.76 55.26 45.75 55.26 46.72 55.26C50.96 55.26 53.38 53.28 53.9 49.52L57.29 28.28 57.29 27.75C57.29 24.68 54.82 22.19 51.74 22.19L49.8 22.19 42.76 22.19 38.71 22.19 35.92 22.19 35.92 19.38 35.92 10.04C35.92 6.9 35.12 4.94 33.63 3.85 32.61 3.1 31.27 2.78 29.73 2.83 29.15 2.85 28.58 2.92 28.06 3.03 27.88 3.07 27.72 3.11 27.6 3.14 27.62 3.13 27.67 3.11 27.83 3.03L27.65 3.12 27.46 3.19 26.4 3.54 28.22 2.94 28.32 12.42C28.32 17.07 26.01 20.71 22.31 23.37 20.14 24.92 17.7 25.97 16.26 26.33L15.39 26.52 13.6 26.92 12.52 25.44C12.35 25.2 11.96 25.01 11.53 25.01L4.05 25.01C3.35 25.01 2.8 25.56 2.8 26.26L2.8 52.33 0 52.33 2.8 52.23C2.83 53.09 3.43 53.67 4.14 53.67L11.62 53.67ZM14.7 55.07L13.51 56.02C12.95 56.32 12.3 56.48 11.62 56.48L4.14 56.48C1.94 56.48 0.09 54.71 0 52.33L0 26.26C0 24.05 1.76 22.2 4.05 22.2L11.53 22.2C12.85 22.2 14.08 22.82 14.78 23.79L15.58 23.61C15.93 23.52 25.52 20.7 25.52 12.42L25.52 0.88 26.57 0.53C26.75 0.44 31.68-1.06 35.28 1.59 37.57 3.26 38.71 6.08 38.71 10.04L38.71 19.38 42.76 19.38 49.8 19.38 51.74 19.38C56.4 19.38 60.09 23.17 60.09 27.75L60.09 28.28 56.66 49.96C55.96 55.07 52.35 58.06 46.72 58.06L45.75 58.06 42.76 58.06 30.01 58.06 29.21 58.06 21.12 58.06C19.52 58.06 18.05 57.64 16.81 56.9L14.7 55.07Z" id="Shape" fill="#2C302E"/>
            <path d="M56.93 29.96L47.21 29.96" id="Line" stroke="#2C302E" stroke-width="1.4" stroke-linecap="square"/>
            <path d="M56.05 37.89L46.33 37.89" id="Line-Copy-17" stroke="#2C302E" stroke-width="1.4" stroke-linecap="square"/>
            <path d="M54.29 45.81L44.57 45.81" id="Line-Copy-18" stroke="#2C302E" stroke-width="1.4" stroke-linecap="square"/>
            <path d="M13.3 26.87L13.3 51.49 13.3 52.54 15.4 52.54 15.4 51.49 15.4 26.87 15.4 25.82 13.3 25.82 13.3 26.87 13.3 26.87Z" id="Shape" fill="#2C302E"/>
          </g>
          <g transform="translate(343.619902, 189.161677)" id="shield-copy-2">
            <g transform="translate(0.349918, 0.000000)">
              <g id="Mask-+-Rectangle-94">
                <path d="M17.76 0.7L17.76 0.7 18.19 0.62 18.63 0.7 33.78 3.45 35.79 3.82 35.79 5.87 35.79 27.33C35.79 29.6 34.83 31.89 33.03 34.16 31.56 36.01 29.53 37.85 27.01 39.66 24.47 41.47 21.74 43.03 19.27 44.24L18.19 44.76 17.12 44.24C14.64 43.03 11.92 41.47 9.38 39.66 6.85 37.85 4.83 36.01 3.36 34.16 1.56 31.89 0.6 29.6 0.6 27.33L0.6 5.87 0.6 3.82 2.61 3.45 17.76 0.7Z" id="Shape" fill="#9E0B0F" sketch:type="MSShapeGroup"/>
                <g id="Path-+-Rectangle-94" transform="translate(2.799347, 2.802395)">
                  <mask id="mask-8" sketch:name="Mask" fill="white">
                    <use xlink:href="#path-7"/>
                  </mask>
                  <use id="Mask" fill="#BB241D" sketch:type="MSShapeGroup" xlink:href="#path-7"/>
                  <rect id="Rectangle-94" fill="#DA322C" sketch:type="MSShapeGroup" mask="url(#mask-8)" x="-21.85" y="-14.71" width="37.25" height="66.21"/>
                </g>
              </g>
              <path d="M18.24 28.56L11.74 11.63 8.72 11.63 18.27 35.22 27.81 11.63 24.97 11.63 18.24 28.56 18.24 28.56Z" id="Shape-Copy" fill="#FFFFFF" sketch:type="MSShapeGroup"/>
            </g>
          </g>
          <path d="M48.89 90.38L197.73 90.38 197.73 153.23" id="Line-Copy" stroke="#2C302E" stroke-width="1.4" stroke-linecap="square" sketch:type="MSShapeGroup" transform="translate(123.307484, 121.801494) scale(-1, 1) translate(-123.307484, -121.801494) "/>
          <path d="M245.54 90.38L400.3 90.38 400.3 152.53" id="Line-Copy-2" stroke="#2C302E" stroke-width="1.4" stroke-linecap="square" sketch:type="MSShapeGroup"/>
          <path d="M222.22 90.38L222.22 155.53" id="Line-Copy-3" stroke="#2C302E" stroke-width="1.4" stroke-linecap="square" sketch:type="MSShapeGroup"/>
          <g id="shield" transform="translate(197.353997, 58.850299)">
            <g id="Mask-+-Rectangle-94">
              <path d="M24.23 0.56L24.23 0.56 24.84 0.45 25.46 0.56 46.46 4.4 49.27 4.91 49.27 7.77 49.27 37.66C49.27 40.82 47.94 44.01 45.44 47.18 43.4 49.76 40.59 52.33 37.08 54.85 33.56 57.38 29.78 59.55 26.35 61.23L24.84 61.97 23.33 61.23C19.9 59.54 16.12 57.38 12.6 54.85 9.09 52.33 6.28 49.76 4.25 47.18 1.75 44.02 0.41 40.83 0.41 37.66L0.41 7.77 0.41 4.91 3.23 4.4 24.23 0.56Z" id="Shape" fill="#9E0B0F" sketch:type="MSShapeGroup"/>
              <g id="Path-+-Rectangle-94" transform="translate(3.499184, 3.502994)">
                <mask id="mask-10" sketch:name="Mask" fill="white">
                  <use xlink:href="#path-9"/>
                </mask>
                <use id="Mask" fill="#BB241D" sketch:type="MSShapeGroup" xlink:href="#path-9"/>
                <rect id="Rectangle-94" fill="#DA322C" sketch:type="MSShapeGroup" mask="url(#mask-10)" x="-30.3" y="-20.49" width="51.64" height="92.22"/>
              </g>
            </g>
            <path d="M24.91 39.38L15.89 15.8 11.71 15.8 24.94 48.65 38.18 15.8 34.24 15.8 24.91 39.38 24.91 39.38Z" id="Shape-Copy" fill="#FFFFFF" sketch:type="MSShapeGroup"/>
          </g>
        </g>
      </g>
    </g>
  </g>
</svg>
