<svg xmlns="http://www.w3.org/2000/svg" xmlns:xlink="http://www.w3.org/1999/xlink" width="463" height="112" viewBox="0 0 463 112" version="1.1">
  <title>
    Group
  </title>
  <desc>
    Created with Sketch.
  </desc>
  <defs>
    <path id="path-1" d="M37.86 0.78L0.61 7.57 0.61 60.59C0.61 64.68 2.45 69.08 6.1 73.7 9.33 77.78 13.9 81.97 19.69 86.13 26.92 91.31 34.28 95.17 37.86 96.93 41.44 95.17 48.81 91.31 56.03 86.13 61.83 81.97 66.39 77.78 69.62 73.7 73.27 69.08 75.12 64.68 75.12 60.59L75.12 7.57 37.86 0.78 37.86 0.78Z"/>
    <rect id="path-3" x="0" y="0" width="101.84" height="55.36"/>
  </defs>
  <g id="Page-1" stroke="none" stroke-width="1" fill="none" fill-rule="evenodd">
    <g id="Comixes-Copy" transform="translate(-223.000000, -1426.000000)">
      <g id="Group" transform="translate(223.000000, 1426.000000)">
        <g id="Group-Copy-5" transform="translate(97.936267, 0.000000)">
          <g id="Group">
            <g id="shield">
              <g id="Mask-+-Rectangle-94">
                <path d="M0.37 53.9L142.1 53.9" id="Line-Copy-16" stroke="#2C302E" stroke-width="1.4" stroke-linecap="square" transform="translate(71.375944, 53.900000) scale(-1, 1) translate(-71.375944, -53.900000) "/>
                <path d="M183.88 53.9L297.68 53.9" id="Line-Copy-19" stroke="#2C302E" stroke-width="1.4" stroke-linecap="square" transform="translate(240.779537, 53.900000) scale(-1, 1) translate(-240.779537, -53.900000) "/>
                <path d="M148.61 0.3L148.61 0.3 149.7 0.1 150.79 0.3 188.05 7.1 193.04 8.01 193.04 13.09 193.04 66.11C193.04 71.71 190.67 77.37 186.23 82.99 182.61 87.57 177.64 92.12 171.42 96.59 165.17 101.08 158.45 104.93 152.38 107.91L149.7 109.23 147.02 107.91C140.93 104.92 134.23 101.07 127.98 96.59 121.76 92.11 116.78 87.56 113.16 82.99 108.74 77.38 106.37 71.72 106.37 66.11L106.37 13.09 106.37 8.01 111.36 7.1 148.61 0.3Z" id="Shape" fill="#9E0B0F"/>
                <g id="Path-+-Rectangle-94" transform="translate(111.838488, 5.513483)">
                  <mask id="mask-2" fill="white">
                    <use xlink:href="#path-1"/>
                  </mask>
                  <use id="Mask" fill="#BB241D" xlink:href="#path-1"/>
                  <rect id="Rectangle-94" fill="#DA322C" mask="url(#mask-2)" x="-53.74" y="-36.35" width="91.61" height="163.57"/>
                </g>
              </g>
              <path d="M149.81 69.15L133.83 27.32 126.4 27.32 149.88 85.6 173.35 27.32 166.36 27.32 149.81 69.15 149.81 69.15Z" id="Shape-Copy" fill="#FFFFFF"/>
            </g>
          </g>
        </g>
        <g id="Group-Copy-7-+-ipad-+-iphone" transform="translate(0.000000, 12.600000)">
          <g id="Group-Copy-7" transform="translate(25.775297, 0.000000)">
            <path d="M47.71 76.75L69.22 76.75 74.18 88.08 42.75 88.08 47.71 76.75Z" id="Rectangle-66" stroke="#2C302E" stroke-width="1.26" fill="#FFFFFF"/>
            <rect id="Rectangle-67" stroke="#2C302E" stroke-width="1.26" fill="#D8D8D8" x="41.49" y="85.56" width="33.95" height="2.52"/>
            <rect id="Rectangle-63" stroke="#2C302E" stroke-width="2.52" fill="#FFFFFF" x="0" y="0" width="116.93" height="78.01" rx="5.04"/>
            <g id="Rectangle-64-+-Rectangle-67" transform="translate(7.543989, 7.549367)">
              <mask id="mask-4" fill="white">
                <use xlink:href="#path-3"/>
              </mask>
              <use id="Mask" stroke="#2C302E" stroke-width="1.26" fill="#FFFFFF" xlink:href="#path-3"/>
            </g>
            <ellipse id="Oval-116" stroke="#2C302E" stroke-width="1.26" fill="#FFFFFF" cx="59.09" cy="69.2" rx="2.51" ry="2.52"/>
            <ellipse id="Oval-116-Copy" fill="#2C302E" cx="58.47" cy="4.4" rx="0.63" ry="0.63"/>
            <path d="M7.54 7.55L49.04 7.55 23.89 62.91 7.54 62.91 7.54 7.55Z" id="Rectangle-71" opacity="0.6" fill-opacity="0.18" fill="#424B54"/>
          </g>
          <g id="ipad" transform="translate(0.000000, 32.713924)">
            <rect id="Rectangle-67" stroke="#2C302E" stroke-width="2.52" fill="#FFFFFF" x="0" y="0" width="47.78" height="60.39" rx="5.04"/>
            <path d="M22.63 54.73C22.63 53.69 23.48 52.85 24.52 52.85 25.56 52.85 26.4 53.69 26.4 54.73 26.4 55.78 25.56 56.62 24.52 56.62 23.48 56.62 22.63 55.78 22.63 54.73Z" id="Shape" fill="#2C302E"/>
            <path d="M23.89 54.73C23.89 54.39 24.17 54.1 24.52 54.1 24.87 54.1 25.15 54.39 25.15 54.73 25.15 55.08 24.87 55.36 24.52 55.36 24.17 55.36 23.89 55.08 23.89 54.73Z" id="Shape-Copy-3" fill="#FFFFFF"/>
            <rect id="Rectangle-68" stroke="#2C302E" stroke-width="1.26" fill="#FFFFFF" x="5.03" y="5.03" width="37.72" height="46.55"/>
            <path d="M6.29 5.03L31.43 5.03 10.86 50.33 6.29 50.33 6.29 5.03Z" id="Rectangle-71-Copy" opacity="0.6" fill-opacity="0.18" fill="#424B54"/>
          </g>
          <g id="iphone" transform="translate(38.348613, 55.362025)">
            <rect id="Rectangle-69" stroke="#2C302E" stroke-width="2.52" fill="#FFFFFF" x="0" y="0" width="30.18" height="44.04" rx="5.04"/>
            <path d="M14.46 40.26L14.46 40.26C13.42 40.26 12.57 39.42 12.57 38.38 12.57 37.33 13.42 36.49 14.46 36.49 15.5 36.49 16.35 37.33 16.35 38.38 16.35 39.42 15.5 40.26 14.46 40.26L14.46 40.26Z" id="Shape" fill="#2C302E"/>
            <path d="M14.46 39.01L14.46 39.01C14.11 39.01 13.83 38.72 13.83 38.38 13.83 38.03 14.11 37.75 14.46 37.75 14.81 37.75 15.09 38.03 15.09 38.38 15.09 38.72 14.81 39.01 14.46 39.01L14.46 39.01Z" id="Shape-Copy-4" fill="#FFFFFF"/>
            <path d="M14.46 4.4L15.72 4.4" id="Line" stroke="#2C302E" stroke-width="1.26" stroke-linecap="square"/>
            <rect id="Rectangle-70" stroke="#2C302E" stroke-width="1.26" fill="#FFFFFF" x="5.03" y="6.29" width="20.12" height="28.94"/>
            <path d="M6.29 7.55L20.12 7.55 8.8 35.23 6.29 35.23 6.29 7.55Z" id="Rectangle-71-Copy-2" opacity="0.6" fill-opacity="0.18" fill="#424B54"/>
          </g>
        </g>
        <g transform="translate(414.480273, 52.500000) scale(-1, 1) translate(-414.480273, -52.500000) translate(367.960546, 5.600000)">
          <ellipse id="Oval-193" stroke="#2C302E" stroke-width="2.8" fill="#CBDBEA" cx="46.52" cy="47.25" rx="46.52" ry="46.55"/>
          <path d="M11.89 16.41C11.89 16.41 45.15 7.92 68.68 28.79 92.21 49.66 82.4 76.02 82.4 76.02" id="Path-754-Copy" stroke="#2C302E" stroke-width="0.7"/>
          <path d="M62.76 4.17C62.76 4.17 38.98 23.69 46.35 50.47 53.72 77.24 67.75 87.23 67.75 87.23" id="Path-755-Copy" stroke="#2C302E" stroke-width="1.4"/>
          <path d="M38.47 2.22C38.47 2.22 12.24 24.34 19.73 57 27.21 89.67 63.39 89.95 63.39 89.95" id="Path-755-Copy-2" stroke="#2C302E" stroke-width="1.4" transform="translate(40.887914, 46.084473) rotate(5.000000) translate(-40.887914, -46.084473) "/>
          <ellipse id="Oval-145-Copy-5" fill="#2C302E" cx="44.77" cy="41.3" rx="4.2" ry="4.2"/>
          <ellipse id="Oval-145-Copy-10" fill="#2C302E" cx="25.18" cy="70.7" rx="4.2" ry="4.2"/>
          <ellipse id="Oval-145-Copy-6" fill="#2C302E" cx="9.79" cy="42.7" rx="4.2" ry="4.2"/>
          <ellipse id="Oval-145-Copy-7" fill="#2C302E" cx="82.55" cy="49" rx="3.5" ry="3.5"/>
          <ellipse id="Oval-145-Copy-8" fill="#2C302E" cx="40.57" cy="16.8" rx="3.5" ry="3.5"/>
          <ellipse id="Oval-145-Copy-9" fill="#2C302E" cx="81.15" cy="30.1" rx="2.8" ry="2.8"/>
          <path d="M85.73 21.43C85.73 21.43 70.13 61.06 36.16 61.06 2.2 61.06 0.19 47.73 0.19 47.73" id="Path-756-Copy" stroke="#2C302E" stroke-width="1.4"/>
          <path d="M11.89 18.9C11.89 18.9 1.47 38.77 16.73 55.37 31.99 71.96 77.65 82.73 77.65 82.73" id="Path-757-Copy" stroke="#2C302E" stroke-width="0.7"/>
        </g>
      </g>
    </g>
  </g>
</svg>
