<svg xmlns="http://www.w3.org/2000/svg" xmlns:xlink="http://www.w3.org/1999/xlink" width="436" height="246" viewBox="0 0 436 246" version="1.1">
  <title>
    Group Copy 3
  </title>
  <desc>
    Created with Sketch.
  </desc>
  <defs>
    <path id="path-1" d="M15.41 0.31L0.25 3.06 0.25 24.47C0.25 26.11 1 27.89 2.48 29.76 3.8 31.41 5.66 33.09 8.02 34.78 10.96 36.87 13.96 38.43 15.41 39.14 16.87 38.43 19.87 36.87 22.81 34.78 25.17 33.09 27.03 31.41 28.34 29.76 29.83 27.89 30.58 26.11 30.58 24.47L30.58 3.06 15.41 0.31 15.41 0.31Z"/>
    <path id="path-3" d="M15.41 0.31L0.25 3.06 0.25 24.47C0.25 26.11 1 27.89 2.48 29.76 3.8 31.41 5.66 33.09 8.02 34.78 10.96 36.87 13.96 38.43 15.41 39.14 16.87 38.43 19.87 36.87 22.81 34.78 25.17 33.09 27.03 31.41 28.34 29.76 29.83 27.89 30.58 26.11 30.58 24.47L30.58 3.06 15.41 0.31 15.41 0.31Z"/>
    <path id="path-5" d="M63.93 17.67C63.94 17.93 63.94 18.55 63.91 19.32 54.25 23.78 43.41 26.29 31.94 26.29 20.5 26.29 9.69 23.8 0.06 19.36 0.03 18.56 0.03 17.92 0.03 17.66 0.03 17.37 0.03 17.2 0.03 17.2 0.01 16.81 0 16.37 0 15.91 -0.04 12.4 0.81 7.04 6.08 5.74 14.08 3.77 20.93 0.45 20.98 0.42 26.45 2.38 29.46 5.14 32.38 5.03 35.3 4.93 38.12 1.97 43.23 0.75 43.23 0.75 49.88 3.76 57.91 5.74 63.17 7.04 64.02 12.37 63.99 15.88 63.99 16.48 63.97 17.03 63.93 17.51L63.93 17.67Z"/>
    <path id="path-7" d="M15.41 0.31L0.25 3.06 0.25 24.47C0.25 26.11 1 27.89 2.48 29.76 3.8 31.41 5.66 33.09 8.02 34.78 10.96 36.87 13.96 38.43 15.41 39.14 16.87 38.43 19.87 36.87 22.81 34.78 25.17 33.09 27.03 31.41 28.34 29.76 29.83 27.89 30.58 26.11 30.58 24.47L30.58 3.06 15.41 0.31 15.41 0.31Z"/>
    <path id="path-9" d="M21.37 0.44L0.34 4.26 0.34 34.08C0.34 36.37 1.38 38.85 3.44 41.45 5.26 43.74 7.85 46.1 11.11 48.44 15.19 51.35 19.35 53.52 21.37 54.51 23.39 53.52 27.55 51.35 31.62 48.44 34.89 46.1 37.47 43.74 39.29 41.45 41.35 38.85 42.39 36.37 42.39 34.08L42.39 4.26 21.37 0.44 21.37 0.44Z"/>
  </defs>
  <g id="Page-1" stroke="none" stroke-width="1" fill="none" fill-rule="evenodd">
    <g id="Comixes-Copy" transform="translate(-246.000000, -136.000000)">
      <g id="Group-Copy-3" transform="translate(246.000000, 136.000000)">
        <g id="Group">
          <g transform="translate(170.257282, 0.000000)">
            <path d="M13.66 23.41L13.66 13.63" id="Line" stroke="#2C302E" stroke-width="0.7" stroke-linecap="square"/>
            <path d="M20.32 23.41L20.32 3.83" id="Line-Copy-11" stroke="#424B54" stroke-width="1.4" stroke-linecap="square"/>
            <path d="M2.8 23.76L2.8 23.76 31.53 23.76 34.33 23.76 34.33 26.56 34.33 93.65 34.33 96.44 31.53 96.44 2.8 96.44 0 96.44 0 93.65 0 26.56 0 23.76 2.8 23.76Z" id="Shape" fill="#2C302E"/>
            <path d="M2.8 26.56L2.8 26.56 2.8 93.65 31.53 93.65 31.53 26.56 2.8 26.56Z" id="Path" fill="#D8D8D8"/>
            <path d="M72.87 36.34L72.87 36.34 93.19 36.34 95.99 36.34 95.99 39.14 95.99 92.95 95.99 95.74 93.19 95.74 72.87 95.74 70.06 95.74 70.06 92.95 70.06 39.14 70.06 36.34 72.87 36.34Z" id="Shape" fill="#2C302E"/>
            <path d="M72.87 39.14L72.87 39.14 72.87 92.95 93.19 92.95 93.19 39.14 72.87 39.14Z" id="Path" fill="#CBDBEA"/>
            <path d="M79.52 39.49L79.52 92.71" id="Line" stroke="#2C302E" stroke-width="0.7" stroke-linecap="square"/>
            <path d="M86.53 39.49L86.53 92.71" id="Line-Copy-13" stroke="#2C302E" stroke-width="0.7" stroke-linecap="square"/>
            <rect id="Rectangle-144" stroke="#2C302E" stroke-width="1.4" fill="#CBDBEA" x="9.11" y="31.45" width="17.52" height="7.69"/>
            <rect id="Rectangle-144-Copy" stroke="#2C302E" stroke-width="1.4" fill="#CBDBEA" x="9.11" y="45.43" width="17.52" height="7.69"/>
            <rect id="Rectangle-144-Copy-2" stroke="#2C302E" stroke-width="1.4" fill="#CBDBEA" x="9.11" y="59.4" width="17.52" height="7.69"/>
            <rect id="Rectangle-144-Copy-3" stroke="#2C302E" stroke-width="1.4" fill="#CBDBEA" x="9.11" y="73.38" width="17.52" height="7.69"/>
            <path d="M35.03 0L35.03 0 70.06 0 73.57 0 73.57 3.49 73.57 92.95 73.57 96.44 70.06 96.44 35.03 96.44 31.53 96.44 31.53 92.95 31.53 3.49 31.53 0 35.03 0Z" id="Shape" fill="#2C302E"/>
            <path d="M35.03 3.49L35.03 3.49 35.03 92.95 70.06 92.95 70.06 3.49 35.03 3.49Z" id="Path" fill="#D8D8D8"/>
            <path d="M42.74 2.1L63.06 2.1 63.06 94.35 42.74 94.35 42.74 2.1 42.74 2.1Z" id="Shape" fill="#2C302E"/>
            <path d="M42.74 3.49L44.14 3.49 44.14 94.35 42.74 92.95 63.06 92.95 61.66 94.35 61.66 3.49 63.06 3.49 42.74 3.49Z" id="Path" fill="#F6EBC0"/>
            <rect id="Rectangle-142" fill="#EBD889" x="52.55" y="3.49" width="9.11" height="89.45"/>
            <path d="M43.79 11.53L62.02 11.53" id="Line-Copy-12" stroke="#2C302E" stroke-width="0.7" stroke-linecap="square"/>
            <path d="M43.79 20.62L62.02 20.62" id="Line-Copy-4" stroke="#2C302E" stroke-width="0.7" stroke-linecap="square"/>
            <path d="M43.79 29.7L62.02 29.7" id="Line-Copy-6" stroke="#2C302E" stroke-width="0.7" stroke-linecap="square"/>
            <path d="M43.79 38.79L62.02 38.79" id="Line-Copy-5" stroke="#2C302E" stroke-width="0.7" stroke-linecap="square"/>
            <path d="M43.79 47.87L62.02 47.87" id="Line-Copy-8" stroke="#2C302E" stroke-width="0.7" stroke-linecap="square"/>
            <path d="M43.79 56.96L62.02 56.96" id="Line-Copy-7" stroke="#2C302E" stroke-width="0.7" stroke-linecap="square"/>
            <path d="M43.79 66.04L62.02 66.04" id="Line-Copy-10" stroke="#2C302E" stroke-width="0.7" stroke-linecap="square"/>
            <path d="M43.79 75.13L62.02 75.13" id="Line-Copy-9" stroke="#2C302E" stroke-width="0.7" stroke-linecap="square"/>
          </g>
          <g transform="translate(181.467638, 168.426136)" stroke="#2C302E">
            <rect id="Rectangle-148" stroke-width="2.8" fill="#FFFFFF" x="0.53" y="0" width="80.65" height="56.61"/>
            <polygon id="Triangle-1" stroke-width="1.4" fill="#EDEEEE" transform="translate(40.859173, 21.571181) scale(1, -1) translate(-40.859173, -21.571181) " points="40.86 0.84 81.19 42.3 0.53 42.3 "/>
            <path d="M27.61 28.33L3.41 53.85" id="Line" stroke-width="1.4" stroke-linecap="square"/>
            <path d="M54.29 28.33L78.48 53.85" id="Line-Copy-14" stroke-width="1.4" stroke-linecap="square"/>
          </g>
          <g id="shield-copy-3" transform="translate(165.703074, 201.272727)">
            <g id="Mask-+-Rectangle-94">
              <path d="M17.78 0.7L17.78 0.7 18.22 0.62 18.65 0.7 33.82 3.45 35.83 3.81 35.83 5.85 35.83 27.26C35.83 29.52 34.87 31.81 33.06 34.07 31.59 35.92 29.57 37.76 27.04 39.56 24.5 41.37 21.76 42.93 19.29 44.13L18.21 44.65 17.14 44.13C14.66 42.92 11.94 41.37 9.39 39.56 6.86 37.75 4.83 35.92 3.36 34.07 1.56 31.81 0.6 29.52 0.6 27.26L0.6 5.85 0.6 3.81 2.61 3.45 17.78 0.7Z" id="Shape" fill="#9E0B0F"/>
              <g id="Path-+-Rectangle-94" transform="translate(2.802589, 2.795455)">
                <mask id="mask-2" fill="white">
                  <use xlink:href="#path-1"/>
                </mask>
                <use id="Mask" fill="#BB241D" xlink:href="#path-1"/>
                <rect id="Rectangle-94" fill="#DA322C" mask="url(#mask-2)" x="-21.88" y="-14.68" width="37.29" height="66.04"/>
              </g>
            </g>
            <path d="M18.26 28.49L11.75 11.6 8.73 11.6 18.29 35.13 27.84 11.6 25 11.6 18.26 28.49 18.26 28.49Z" id="Shape-Copy" fill="#FFFFFF"/>
          </g>
          <g transform="translate(0.000000, 168.426136)">
            <path d="M4.9 0.01L59.56 0.01 59.56 16.98 4.9 16.98 4.9 0.01 4.9 0.01Z" id="Shape" fill="#2C302E"/>
            <path d="M4.9 2.81L7.71 2.81 7.71 14.19 4.9 14.19 56.75 14.19 56.75 16.98 56.75 0.01 56.75 2.81 4.9 2.81Z" id="Path" fill="#FACB63"/>
            <path d="M20.32 20.28L84.78 20.28 84.78 37.25 20.32 37.25 20.32 20.28 20.32 20.28Z" id="Shape" fill="#2C302E"/>
            <path d="M20.32 23.08L23.12 23.08 23.12 37.25 20.32 34.46 84.78 34.46 81.98 34.46 81.98 23.08 84.78 23.08 20.32 23.08Z" id="Path" fill="#CBDBEA"/>
            <path d="M42.74 41.45L107.2 41.45 107.2 58.42 42.74 58.42 42.74 41.45 42.74 41.45Z" id="Shape" fill="#2C302E"/>
            <path d="M42.74 44.24L45.54 44.24 45.54 58.42 45.54 55.62 104.4 55.62 104.4 58.42 104.4 41.45 104.4 44.24 42.74 44.24Z" id="Path" fill="#C2EC98"/>
            <g id="shield-copy" transform="translate(0.000000, 29.352273)">
              <g id="Mask-+-Rectangle-94">
                <path d="M17.78 0.7L17.78 0.7 18.22 0.62 18.65 0.7 33.82 3.45 35.83 3.81 35.83 5.85 35.83 27.26C35.83 29.52 34.87 31.81 33.06 34.07 31.59 35.92 29.57 37.76 27.04 39.56 24.5 41.37 21.76 42.93 19.29 44.13L18.21 44.65 17.14 44.13C14.66 42.92 11.94 41.37 9.39 39.56 6.86 37.75 4.83 35.92 3.36 34.07 1.56 31.81 0.6 29.52 0.6 27.26L0.6 5.85 0.6 3.81 2.61 3.45 17.78 0.7Z" id="Shape" fill="#9E0B0F"/>
                <g id="Path-+-Rectangle-94" transform="translate(2.802589, 2.795455)">
                  <mask id="mask-4" fill="white">
                    <use xlink:href="#path-3"/>
                  </mask>
                  <use id="Mask" fill="#BB241D" xlink:href="#path-3"/>
                  <rect id="Rectangle-94" fill="#DA322C" mask="url(#mask-4)" x="-21.88" y="-14.68" width="37.29" height="66.04"/>
                </g>
              </g>
              <path d="M18.26 28.49L11.75 11.6 8.73 11.6 18.29 35.13 27.84 11.6 25 11.6 18.26 28.49 18.26 28.49Z" id="Shape-Copy" fill="#FFFFFF"/>
            </g>
            <path d="M59.41 4.11L73.33 4.11 73.33 17.47" id="Path-715" stroke="#2C302E" stroke-width="1.4"/>
            <path id="Path-715-decoration-1" d="M73.33 17.47L76.33 6.67 70.33 6.67 73.33 17.47Z" stroke="#2C302E" stroke-width="1.4"/>
            <path d="M83.93 25.78L97.85 25.78 97.85 39.14" id="Path-715-Copy" stroke="#2C302E" stroke-width="1.4"/>
            <path id="Path-715-Copy-decoration-1" d="M97.85 39.14L100.85 28.34 94.85 28.34 97.85 39.14Z" stroke="#2C302E" stroke-width="1.4"/>
          </g>
          <g transform="translate(346.119741, 153.750000)">
            <g id="Group-Copy" transform="translate(22.420712, 0.000000)">
              <g id="Shape-+-Rectangle-95" transform="translate(0.000000, 45.877176)">
                <mask id="mask-6" fill="white">
                  <use xlink:href="#path-5"/>
                </mask>
                <use id="Mask" stroke="#2C302E" stroke-width="2.8" fill="#424B54" xlink:href="#path-5"/>
                <text id="5132" mask="url(#mask-6)" font-family=".AppleSystemUIFont" font-size="7.7" font-weight="normal" fill="#FFFFFF">
                  <tspan x="32.93" y="18.88">
                    005132
                  </tspan>
                </text>
              </g>
              <path d="M19.56 24.57C19.56 24.57 19.52 24.47 19.49 24.43 18.52 22.37 16.58 18.26 16.58 18.26L17.88 9.92 21.37 5.88 26.21 1.81 30.41 0.86 35.22 0.68 40.71 3.25 43.64 5.06 47.77 8.51 49.04 16.26 48.46 19.65 47.1 22.86 46.05 23.27 44.77 23.1 45.39 18.42 46.19 13.89 45.63 12.07 44.61 11.6 39.61 12.23 35.54 14.11 32.04 14.55 26.47 13.03 22.78 10.69 21.74 10.22 19.37 14.43 19.12 17.36 19.3 19.7 20.17 22.14 19.56 24.57Z" id="Path-536" fill="#424B54"/>
              <path d="M22.15 40.5C20.11 37.82 19.16 34.62 18.74 31.86 17.99 31.8 17 30.73 15.93 26.93 14.56 22.04 15.84 21.06 17.09 21.06 17.17 21.06 17.25 21.06 17.33 21.07 16.37 18.34 16.35 15.64 17 13.15 17.68 10.22 19.24 7.87 21 6.05 22.43 4.07 23.68 3.71 28.31 1.09 29.33 0.74 30.42 0.52 31.58 0.46 32.06 0.42 32.53 0.4 32.99 0.4 35.87 0.4 38.12 1.21 39.8 2.22 40.86 2.81 41.68 3.47 42.29 4.07 42.54 4.32 43.8 5.98 43.8 5.98 43.8 5.98 44.55 6.03 45.46 6.61 45.82 6.84 46.21 7.15 46.58 7.58 48.23 9.43 49.66 13.41 47.9 21.96 48.88 22.3 49.57 23.66 48.44 27.73 47.34 31.65 46.32 32.67 45.56 32.67 45.35 32.67 45.16 32.59 45 32.48 44.55 35.03 43.63 37.9 41.82 40.35 35.13 45.25 31.58 48.12 22.15 40.5Z" id="Shape-Copy-2" stroke="#2C302E" stroke-width="2.8"/>
              <path d="M17.81 21.33L19.69 24.86 20.52 24.4C20.52 24.4 18.42 17.58 19.27 15.08 20.12 12.58 22 10.22 22 10.22 22 10.22 29.9 16.89 35.91 13.88 41.92 10.86 45.56 12.04 45.56 12.04 45.56 12.04 46.44 14.55 46 16.61 45.56 18.66 44.87 23.07 44.87 23.07L46.62 23.32 47.7 21.19" id="Path-535" stroke="#2C302E" stroke-width="1.4"/>
            </g>
            <g id="shield-copy-2" transform="translate(0.350324, 47.522727)">
              <g id="Mask-+-Rectangle-94">
                <path d="M17.78 0.7L17.78 0.7 18.22 0.62 18.65 0.7 33.82 3.45 35.83 3.81 35.83 5.85 35.83 27.26C35.83 29.52 34.87 31.81 33.06 34.07 31.59 35.92 29.57 37.76 27.04 39.56 24.5 41.37 21.76 42.93 19.29 44.13L18.21 44.65 17.14 44.13C14.66 42.92 11.94 41.37 9.39 39.56 6.86 37.75 4.83 35.92 3.36 34.07 1.56 31.81 0.6 29.52 0.6 27.26L0.6 5.85 0.6 3.81 2.61 3.45 17.78 0.7Z" id="Shape" fill="#9E0B0F"/>
                <g id="Path-+-Rectangle-94" transform="translate(2.802589, 2.795455)">
                  <mask id="mask-8" fill="white">
                    <use xlink:href="#path-7"/>
                  </mask>
                  <use id="Mask" fill="#BB241D" xlink:href="#path-7"/>
                  <rect id="Rectangle-94" fill="#DA322C" mask="url(#mask-8)" x="-21.88" y="-14.68" width="37.29" height="66.04"/>
                </g>
              </g>
              <path d="M18.26 28.49L11.75 11.6 8.73 11.6 18.29 35.13 27.84 11.6 25 11.6 18.26 28.49 18.26 28.49Z" id="Shape-Copy" fill="#FFFFFF"/>
            </g>
          </g>
          <path d="M48.95 102.73L197.96 102.73 197.96 169.62" id="Line-Copy" stroke="#2C302E" stroke-width="1.4" stroke-linecap="square" transform="translate(123.450268, 136.175966) scale(-1, 1) translate(-123.450268, -136.175966) "/>
          <path d="M245.83 102.73L400.77 102.73 400.77 154.95" id="Line-Copy-2" stroke="#2C302E" stroke-width="1.4" stroke-linecap="square"/>
          <path d="M222.48 102.73L222.48 167.73" id="Line-Copy-3" stroke="#2C302E" stroke-width="1.4" stroke-linecap="square"/>
          <g id="shield" transform="translate(197.582524, 71.284091)">
            <g id="Mask-+-Rectangle-94">
              <path d="M24.26 0.56L24.26 0.56 24.87 0.45 25.49 0.56 46.51 4.38 49.33 4.9 49.33 7.75 49.33 37.57C49.33 40.72 47.99 43.9 45.49 47.07 43.45 49.64 40.64 52.2 37.13 54.72 33.6 57.24 29.81 59.4 26.38 61.08L24.87 61.82 23.36 61.08C19.92 59.4 16.14 57.23 12.61 54.71 9.1 52.2 6.29 49.63 4.25 47.06 1.75 43.91 0.41 40.72 0.41 37.57L0.41 7.75 0.41 4.9 3.23 4.38 24.26 0.56Z" id="Shape" fill="#9E0B0F"/>
              <g id="Path-+-Rectangle-94" transform="translate(3.503236, 3.494318)">
                <mask id="mask-10" fill="white">
                  <use xlink:href="#path-9"/>
                </mask>
                <use id="Mask" fill="#BB241D" xlink:href="#path-9"/>
                <rect id="Rectangle-94" fill="#DA322C" mask="url(#mask-10)" x="-30.33" y="-20.44" width="51.7" height="91.99"/>
              </g>
            </g>
            <path d="M24.94 39.28L15.91 15.76 11.72 15.76 24.97 48.53 38.22 15.76 34.28 15.76 24.94 39.28 24.94 39.28Z" id="Shape-Copy" fill="#FFFFFF"/>
          </g>
        </g>
        <path d="M395.87 187.87C395.87 187.87 399.11 189.47 400.77 189.47 402.38 189.47 405.67 187.87 405.67 187.87" id="Line-Copy-15" stroke="#2C302E" stroke-width="1.4" stroke-linecap="square" transform="translate(400.770227, 188.667032) scale(1, -1) translate(-400.770227, -188.667032) "/>
        <g id="Path-723-+-Path-725-+-Path-725-Copy" transform="translate(388.158576, 174.017045)">
          <path d="M12.89 7.17C11.96 7.83 10.61 8.39 8.71 8.39 3.94 8.39 0.56 3.48 0.56 3.48 0.56 3.48 1.58 0 8.09 0 10.4 0 11.9 0.61 12.89 1.41 13.88 0.61 15.38 0 17.69 0 24.21 0 25.22 3.48 25.22 3.48 25.22 3.48 21.84 8.39 17.07 8.39 15.17 8.39 13.82 7.83 12.89 7.17Z" id="Path-723" stroke="#2C302E" stroke-width="0.7" fill="#2C302E"/>
          <path d="M4.32 3.63C4.32 3.63 5.76 1.44 7.83 2.53 9.89 3.63 10.4 4.56 10.4 4.56 10.4 4.56 8.66 6.17 7.05 5.36 5.44 4.56 4.32 3.63 4.32 3.63Z" id="Path-725" fill="#FFFFFF"/>
          <path d="M15.53 3.63C15.53 3.63 16.97 1.44 19.04 2.53 21.1 3.63 21.61 4.56 21.61 4.56 21.61 4.56 19.87 6.17 18.26 5.36 16.65 4.56 15.53 3.63 15.53 3.63Z" id="Path-725-Copy" fill="#FFFFFF" transform="translate(18.570435, 3.908934) scale(-1, 1) translate(-18.570435, -3.908934) "/>
        </g>
      </g>
    </g>
  </g>
</svg>
