<?xml version="1.0" encoding="UTF-8" standalone="no"?>
<svg width="36px" height="36px" viewBox="0 0 36 36" version="1.1" xmlns="http://www.w3.org/2000/svg" xmlns:xlink="http://www.w3.org/1999/xlink" xmlns:sketch="http://www.bohemiancoding.com/sketch/ns">
    <!-- Generator: Sketch 3.3.3 (12081) - http://www.bohemiancoding.com/sketch -->
    <title>Fill 184 Copy + Path</title>
    <desc>Created with Sketch.</desc>
    <defs></defs>
    <g id="Welcome" stroke="none" stroke-width="1" fill="none" fill-rule="evenodd" sketch:type="MSPage">
        <g id="VirgilSecurity-Landing-Page-New" sketch:type="MSArtboardGroup" transform="translate(-1050.000000, -3665.000000)" fill="#FFFFFF">
            <g id="Group" sketch:type="MSLayerGroup" transform="translate(2.000000, 3403.000000)">
                <g id="Fill-184-Copy-+-Path" transform="translate(1048.000000, 262.000000)" sketch:type="MSShapeGroup">
                    <path d="M25.15725,14.643875 C25.164,14.8025 25.1685,14.961125 25.1685,15.122 C25.1685,20.001125 21.45375,25.628375 14.661,25.628375 C12.57525,25.628375 10.634625,25.0175 9,23.970125 C9.289125,24.003875 9.58275,24.02075 9.880875,24.02075 C11.611125,24.02075 13.203,23.43125 14.4675,22.440125 C12.850875,22.410875 11.487375,21.34325 11.017125,19.87625 C11.24325,19.919 11.473875,19.9415 11.712375,19.9415 C12.04875,19.9415 12.375,19.8965 12.6855,19.812125 C10.99575,19.4735 9.723375,17.980625 9.723375,16.191875 L9.723375,16.144625 C10.220625,16.421375 10.791,16.587875 11.39625,16.607 C10.405125,15.944375 9.752625,14.81375 9.752625,13.5335 C9.752625,12.85625 9.934875,12.22175 10.25325,11.676125 C12.074625,13.910375 14.796,15.38075 17.865,15.534875 C17.802,15.264875 17.769375,14.9825 17.769375,14.693375 C17.769375,12.65375 19.423125,11 21.461625,11 C22.52475,11 23.484375,11.448875 24.157125,12.166625 C24.998625,12.00125 25.7895,11.694125 26.50275,11.271125 C26.227125,12.132875 25.641,12.85625 24.879375,13.314125 C25.626375,13.224125 26.337375,13.026125 27,12.7325 C26.505,13.47275 25.878375,14.123 25.15725,14.643875" id="Path"></path>
                    <path d="M18,2 C9.164,2 2,9.163 2,18 C2,26.836 9.164,34 18,34 C26.837,34 34,26.836 34,18 C34,9.163 26.837,2 18,2 L18,2 L18,2 Z M18,0 L18,0 C27.9415695,0 36,8.0584305 36,18 C36,27.9408956 27.9412435,36 18,36 C8.0594305,36 0,27.9405695 0,18 C0,8.05875653 8.05910445,0 18,0 L18,0 Z" id="Shape-Copy-5"></path>
                </g>
            </g>
        </g>
    </g>
</svg>