<?xml version="1.0" encoding="UTF-8" standalone="no"?>
<svg width="156px" height="50px" viewBox="0 0 156 50" version="1.1" xmlns="http://www.w3.org/2000/svg" xmlns:xlink="http://www.w3.org/1999/xlink" xmlns:sketch="http://www.bohemiancoding.com/sketch/ns">
    <!-- Generator: Sketch 3.3.3 (12081) - http://www.bohemiancoding.com/sketch -->
    <title>logo copy</title>
    <desc>Created with Sketch.</desc>
    <defs></defs>
    <g id="Welcome" stroke="none" stroke-width="1" fill="none" fill-rule="evenodd" sketch:type="MSPage">
        <g id="VirgilSecurity-Landing-Page-New" sketch:type="MSArtboardGroup" transform="translate(-244.000000, -3453.000000)" fill="#888888">
            <g id="Group" sketch:type="MSLayerGroup" transform="translate(2.000000, 3403.000000)">
                <g id="logo-copy-+-©-2015-Virgil-Securi-+-Virgil-Security-prov" transform="translate(242.000000, 50.000000)" sketch:type="MSShapeGroup">
                    <g id="logo-copy">
                        <path d="M58.9902019,0.65173881 L58.3662839,1.06707866 C58.3284707,1.10483682 57.0050083,2.4263727 57.0050083,2.4263727 L57.49658,2.91722888 L56.9293818,3.4836014 L58.0070584,4.55970918 L57.4398602,5.1260817 L56.3621836,4.04997391 L55.7949854,4.61634643 L56.872662,5.69245421 L56.3054638,6.25882673 L55.2277872,5.18271895 L54.660589,5.74909147 L55.7382656,6.82519925 L55.1710674,7.39157177 L54.0933908,6.31546398 L53.5261927,6.8818365 L54.6038692,7.95794428 L54.036671,8.5243168 L52.9589945,7.44820902 L52.2027302,8.20337237 L53.2804068,9.27948016 L52.7132086,9.84585267 L51.635532,8.76974489 L47.1924795,13.2063296 L43.9405431,9.94024809 L41.9175362,10.9597186 L44.6968074,13.734944 L39.9512492,18.473594 C32.7100189,16.4157739 25.8658273,17.4730026 21.7630937,18.5491104 L17.0364421,13.8482185 L19.8913396,10.9974768 L17.8683327,9.97800626 L14.6163964,13.2063296 L10.1544373,8.76974489 L9.07676072,9.84585267 L8.50956252,9.27948016 L9.58723909,8.20337237 L8.83097483,7.44820902 L7.75329826,8.5243168 L7.18610006,7.95794428 L8.26377664,6.8818365 L7.69657844,6.31546398 L6.61890187,7.39157177 L6.05170367,6.82519925 L7.12938024,5.74909147 L6.56218205,5.18271895 L5.50341208,6.27770581 L4.93621389,5.7113333 L6.01389046,4.63522551 L5.44669226,4.068853 L4.36901569,5.14496078 L3.8018175,4.57858826 L4.87949407,3.50248048 L4.31229587,2.93610796 L4.80386764,2.44525178 L3.49931179,1.14259499 C3.46149858,1.10483682 2.9321136,0.576222474 2.9321136,0.576222474 C2.10022291,0.368552551 1.2116124,0.519585222 0.606600995,1.12371591 C0.0204961925,1.70896751 -0.13075666,2.59628445 0.190655651,3.33256872 L1.94897006,5.31487254 L2.42163522,4.84289544 L12.6879226,15.1319962 L9.77630516,18.0393751 L10.7972619,20.0594371 L12.669016,18.1904078 L17.8494261,23.3632768 L17.8494261,33.8789265 C18.3599045,35.5969231 18.9838225,37.1827662 19.7400868,38.6364556 L13.0093349,45.3574095 L12.8769886,49.3786544 L13.3685604,49.3786544 L13.3496538,45.697233 L20.0047793,39.1273118 C20.8744832,40.7320339 21.8765333,42.1479652 22.9731165,43.3939848 L16.9797222,49.3786544 L12.858082,49.3786544 L12.858082,49.8883896 L17.3200412,49.8883896 L23.3134354,43.7904455 C25.4876952,46.1125729 28.0589937,47.7361741 30.781545,48.623491 C33.806602,47.490746 36.2266477,45.8482657 38.2118414,43.7526874 L44.2808621,49.8128733 L48.7428212,49.9072687 L48.7428212,49.3975335 L44.6022744,49.3975335 L38.5899735,43.3373475 C39.7243699,42.0724489 40.72642,40.6376385 41.6150305,39.0706746 L48.3079693,45.7538703 L48.2890626,49.3597753 L48.7806344,49.3597753 L48.799541,45.3951677 L41.8986296,38.5986975 C42.6170807,37.2394034 43.2788119,35.785714 43.8649167,34.21875 C43.8649167,30.8016358 43.8271035,26.5160838 43.7892903,23.4010349 L49.1020467,18.0960123 L51.0494272,20.040558 L52.0703839,18.020496 L49.1587665,15.1131171 L59.4439605,4.84289544 L59.9166257,5.31487254 L61.7883797,3.44584323 C61.9396326,2.57740537 61.7883797,1.69008842 61.2022749,1.08595774 C60.5972635,0.481827055 59.7275596,0.349673467 58.9902019,0.65173881 Z M17.8494261,19.8328881 L17.8494261,22.6081134 L13.0471481,17.8128261 L16.6583099,14.2069211 L21.1580823,18.700143 C19.0783556,19.3042737 17.8494261,19.8328881 17.8494261,19.8328881 L17.8494261,19.8328881 Z M30.781545,45.7727494 C26.0548934,44.2624226 22.2546655,40.0335078 20.3450982,33.5768611 L20.3450982,21.5697638 C20.3450982,21.5697638 30.5735723,16.8122346 41.255805,21.5697638 C41.255805,23.2500022 41.2936182,29.5744954 41.2936182,33.8411683 C39.1571717,39.5615307 36.3022741,43.7149292 30.781545,45.7727494 L30.781545,45.7727494 Z M43.7514771,22.6458716 C43.7325705,21.399852 43.7325705,20.4181397 43.7325705,19.8328881 C42.6548939,19.360911 41.5961239,18.9644502 40.5184474,18.6246267 L45.0560329,14.0936466 L48.6671948,17.6995516 L43.7514771,22.6458716 L43.7514771,22.6458716 Z" id="Shape"></path>
                        <path d="M32.6343924,31.9910181 C33.3528435,31.4246456 33.806602,30.5750868 33.806602,29.725528 C33.806602,28.139685 32.5020462,26.8370282 30.9138912,26.8370282 C29.3257363,26.8370282 28.0211805,28.139685 28.0211805,29.725528 C28.0211805,30.5939659 28.4560324,31.4435247 29.1933901,31.9910181 C29.098857,32.651786 28.8152579,34.4075408 28.5883786,35.6535604 C28.569472,35.804593 28.6072853,35.9556257 28.7018183,36.0877793 C28.7963513,36.2010538 28.9476042,36.2765701 29.098857,36.2765701 L29.098857,36.2765701 L30.8949846,36.2576911 L32.7100189,36.2765701 L32.7100189,36.2765701 C32.8612717,36.2765701 33.0125246,36.2010538 33.1070576,36.0877793 C33.2015906,35.9745048 33.2583105,35.8234721 33.2204972,35.6535604 C33.0125246,34.4264199 32.7100189,32.651786 32.6343924,31.9910181 L32.6343924,31.9910181 Z M32.0861009,35.2193414 L30.8949846,35.2193414 L29.7038684,35.2193414 C30.3277864,31.5945573 30.3088798,31.5756783 30.063094,31.3491292 C30.0441873,31.3302502 30.0063741,31.3113711 29.9874675,31.292492 C29.4013627,30.9337894 29.0421372,30.3296587 29.0421372,29.725528 C29.0421372,28.7060575 29.8740279,27.8753778 30.8949846,27.8753778 C31.9159414,27.8753778 32.7478321,28.7060575 32.7478321,29.725528 C32.7478321,30.3296587 32.3886066,30.9337894 31.8025018,31.292492 C31.7646885,31.3113711 31.7457819,31.3302502 31.7268753,31.3491292 C31.4810894,31.5945573 31.4621828,31.5945573 32.0861009,35.2193414 L32.0861009,35.2193414 Z" id="Shape"></path>
                        <path d="M92.0389501,43.2807103 L90.3940754,43.2807103 C89.5054649,43.2807103 88.7681072,42.544426 88.7681072,41.6571091 C88.7681072,40.7697921 89.5054649,40.0335078 90.3940754,40.0335078 L93.7783579,40.0335078 L93.7783579,38.5231811 L90.2050093,38.5231811 C88.4845081,38.5231811 87.1043258,39.9202333 87.1043258,41.63823 C87.1043258,43.3562266 88.4845081,44.8287952 90.2050093,44.8287952 L91.755351,44.8287952 C92.719588,44.8287952 93.4758522,45.5084422 93.4758522,46.4712755 C93.4758522,47.4152297 92.7006814,48.0948767 91.755351,48.0948767 L87.7093372,48.0948767 L87.7093372,49.6995988 L92.0578567,49.6995988 C93.7972645,49.6995988 95.2341666,48.2081512 95.2341666,46.4523964 C95.21526,44.7155207 93.7972645,43.2807103 92.0389501,43.2807103 L92.0389501,43.2807103 Z M98.7697021,44.3001808 L103.439634,44.3001808 L103.439634,42.770975 L98.7697021,42.770975 L98.7697021,40.071266 L103.666513,40.071266 L103.666513,38.504302 L97.1248273,38.504302 L97.1248273,49.6995988 L103.761046,49.6995988 L103.761046,48.0948767 L98.7697021,48.0948767 L98.7697021,44.3001808 L98.7697021,44.3001808 Z M105.311388,44.11139 C105.311388,47.3019551 107.882686,49.8883896 111.058996,49.8883896 C111.758541,49.8883896 112.420272,49.7562361 113.04419,49.5296871 L113.04419,47.717295 C112.458085,48.0759976 111.777447,48.2836675 111.058996,48.2836675 C108.86583,48.2836675 107.069702,46.3957591 107.069702,44.0925109 C107.069702,41.7703836 108.86583,39.8824752 111.058996,39.8824752 C111.777447,39.8824752 112.458085,40.0901451 113.04419,40.4488477 L113.04419,38.6175766 C112.420272,38.3910275 111.758541,38.258874 111.058996,38.258874 C107.86378,38.3155112 105.311388,40.9019457 105.311388,44.11139 L105.311388,44.11139 Z M121.382003,46.1314519 C121.382003,47.3208342 120.379953,48.3403048 119.151024,48.3403048 C117.941001,48.3403048 116.938951,47.3397133 116.938951,46.1314519 L116.938951,38.504302 L115.312983,38.504302 L115.312983,46.1314519 C115.312983,48.2459093 117.014577,49.9072687 119.132117,49.9072687 C121.268564,49.9072687 123.007972,48.2459093 123.007972,46.1314519 L123.007972,38.504302 L121.382003,38.504302 L121.382003,46.1314519 L121.382003,46.1314519 Z M133.368792,42.4689097 C133.368792,40.1656614 131.534851,38.504302 129.152619,38.504302 L125.52255,38.504302 L125.52255,49.6995988 L127.167425,49.6995988 L127.167425,46.4146382 L129.152619,46.4146382 C130.778587,46.4146382 131.705011,48.0004813 131.705011,49.2276217 L131.705011,49.6995988 L133.368792,49.6995988 L133.368792,49.2276217 C133.368792,47.8872068 132.896127,46.4901545 131.497038,45.697233 C132.385648,45.2252559 133.368792,44.0547527 133.368792,42.4689097 L133.368792,42.4689097 Z M129.341685,44.9798278 L127.167425,44.9798278 L127.167425,39.9391124 L129.341685,39.9391124 C130.665147,39.9391124 131.667197,41.1662529 131.667197,42.4689097 C131.667197,43.7149292 130.684054,44.9798278 129.341685,44.9798278 L129.341685,44.9798278 Z M135.769931,49.6807197 L137.395899,49.6807197 L137.395899,38.485423 L135.769931,38.485423 L135.769931,49.6807197 L135.769931,49.6807197 Z M139.28656,40.071266 L142.065831,40.071266 L142.065831,49.6995988 L143.691799,49.6995988 L143.691799,40.071266 L146.47107,40.071266 L146.47107,38.504302 L139.305466,38.504302 L139.305466,40.071266 L139.28656,40.071266 Z M154.166059,38.504302 L151.7082,43.3562266 L149.250341,38.504302 L147.435307,38.504302 L150.895216,44.9798278 L150.895216,49.6995988 L152.521184,49.6995988 L152.521184,44.9798278 L155.981093,38.504302 L154.166059,38.504302 L154.166059,38.504302 Z M90.6587679,14.5089864 L87.5958976,14.5089864 L87.5958976,35.4458905 L90.6587679,35.4458905 L90.6587679,14.5089864 L90.6587679,14.5089864 Z M106.445784,35.4647695 L109.565374,35.4647695 L109.565374,34.5963317 C109.565374,32.0854135 108.657857,29.4800999 106.048746,27.9886523 C107.731434,27.1202145 109.565374,24.9302407 109.565374,21.9473455 C109.565374,17.6429143 106.143279,14.5278655 101.681319,14.5278655 L94.8749411,14.5278655 L94.8749411,35.4647695 L97.956718,35.4647695 L97.956718,29.3290673 L101.681319,29.3290673 C104.74419,29.3290673 106.445784,32.2930834 106.445784,34.5963317 L106.445784,35.4647695 L106.445784,35.4647695 Z M102.021638,26.6293583 L97.956718,26.6293583 L97.956718,17.2086954 L102.040545,17.2086954 C104.536217,17.2086954 106.389064,19.5119436 106.389064,21.9284664 C106.370158,24.2694728 104.51731,26.6293583 102.021638,26.6293583 L102.021638,26.6293583 Z M122.478587,23.3632768 L122.478587,26.1762603 L130.211389,26.1762603 C130.003416,30.1031097 126.978359,32.8405769 122.743279,32.8405769 C118.640546,32.8405769 115.27517,29.3101882 115.27517,25.0057571 C115.27517,20.6635678 118.640546,17.1331791 122.743279,17.1331791 C125.238951,17.1331791 127.451024,18.4547149 128.793393,20.4181397 C128.793393,20.4558978 131.345785,18.473594 131.345785,18.473594 C129.398405,15.8494014 126.241001,14.1314047 122.743279,14.1314047 C116.768791,14.1314047 111.98542,18.9833293 111.98542,24.986878 C111.98542,30.9715476 116.787698,35.8234721 122.743279,35.8234721 C129.020272,35.8234721 133.501138,30.9715476 133.501138,24.986878 C133.501138,24.4205055 133.463325,23.873012 133.387699,23.3443977 L122.478587,23.3443977 L122.478587,23.3632768 Z M139.797038,14.5089864 L136.734168,14.5089864 L136.734168,35.4458905 L139.797038,35.4458905 L139.797038,14.5089864 L139.797038,14.5089864 Z M155.621868,32.4629952 L147.038269,32.4629952 L147.038269,14.5089864 L143.975398,14.5089864 L143.975398,35.4458905 L155.621868,35.4458905 L155.621868,32.4629952 L155.621868,32.4629952 Z M70.9391773,39.4671353 L61.3346211,14.5089864 L56.872662,14.5089864 L70.9769905,49.284259 L85.0813189,14.5089864 L80.8840523,14.5089864 L70.9391773,39.4671353 L70.9391773,39.4671353 Z" id="Shape"></path>
                    </g>
                </g>
            </g>
        </g>
    </g>
</svg>