<?xml version="1.0" encoding="UTF-8" standalone="no"?>
<svg width="90px" height="117px" viewBox="0 0 90 117" version="1.1" xmlns="http://www.w3.org/2000/svg" xmlns:xlink="http://www.w3.org/1999/xlink" xmlns:sketch="http://www.bohemiancoding.com/sketch/ns">
    <!-- Generator: Sketch 3.3.3 (12081) - http://www.bohemiancoding.com/sketch -->
    <title>Shape + Group + C# Copy</title>
    <desc>Created with Sketch.</desc>
    <defs>
        <path id="path-1" d="M41.7527089,2.13162821e-14 L0,7.69529573 L0,67.7313507 C0,72.3520049 2.0655459,77.3423578 6.15037688,82.5702914 C9.77144307,87.1944224 14.8982992,91.9298107 21.3863801,96.6466562 C29.4866508,102.514319 37.7442083,106.884644 41.7527089,108.874527 C45.7681487,106.884644 54.0257062,102.515478 62.1236639,96.6466562 C68.6163709,91.9309697 73.7339748,87.1955814 77.3527279,82.5702914 C81.4410285,77.3365632 83.5135135,72.3531638 83.5135135,67.7313507 L83.5135135,7.69529573 L41.7527089,2.13162821e-14 L41.7527089,2.13162821e-14 Z"></path>
    </defs>
    <g id="Welcome" stroke="none" stroke-width="1" fill="none" fill-rule="evenodd" sketch:type="MSPage">
        <g id="VirgilSecurity---Developers" sketch:type="MSArtboardGroup" transform="translate(-267.000000, -344.000000)">
            <g id="C#" sketch:type="MSLayerGroup" transform="translate(240.000000, 344.000000)">
                <g id="Shape-+-Group-+-C#-Copy" transform="translate(27.000000, 0.000000)">
                    <g id="Shape-+-Group">
                        <path d="M44.4092844,0.866113706 L44.4092844,0.866113706 L44.9958953,0.7579975 L45.5825099,0.866093432 L87.3433145,8.56138916 L90,9.05093865 L90,11.7577957 L90,71.7938507 C90,77.2210678 87.6533992,82.8707204 83.1482996,88.6380216 C79.3216269,93.5290628 73.9821146,98.4657722 67.2675216,103.342613 C60.4460718,108.286314 53.0811935,112.556014 46.4336334,115.850265 L44.994708,116.563336 L43.5562722,115.849273 C36.8953744,112.542699 29.5481054,108.282221 22.7251013,103.339777 C16.0068201,98.4555757 10.6642383,93.5199561 6.84000385,88.6363744 C2.34447217,82.8828093 0,77.2243789 0,71.7938507 L0,11.7577957 L0,9.05103357 L2.65657546,8.56140944 L44.4092844,0.866113706 Z" id="Path" fill="#9E0B0F" sketch:type="MSShapeGroup"></path>
                        <g id="Shape-+-Rectangle-215" transform="translate(3.243243, 4.062500)">
                            <mask id="mask-2" sketch:name="Mask" fill="white">
                                <use xlink:href="#path-1"></use>
                            </mask>
                            <use id="Mask" fill="#BB241D" sketch:type="MSShapeGroup" xlink:href="#path-1"></use>
                            <rect id="Rectangle-215" fill="#DA322C" sketch:type="MSShapeGroup" mask="url(#mask-2)" x="-47.8378378" y="-53.625" width="90" height="177.9375"></rect>
                        </g>
                    </g>
                    <g id="C#-Copy" transform="translate(14.594595, 25.187500)" stroke="#2C302E" fill="#FFFFFF" sketch:type="MSShapeGroup">
                        <path d="M55.0694783,14.6578968 C49.9037865,6.15031405 40.5844187,0.47096657 29.9441892,0.47096657 C13.6959749,0.47096657 0.523832046,13.7120334 0.523832046,30.0452674 C0.523832046,46.3795785 13.6959749,59.6195683 29.9441892,59.6195683 C40.5742799,59.6195683 49.8845971,53.9516104 55.0534329,45.4590638 L43.9524811,39.8970244 C40.8564345,44.3344393 35.7336428,47.2412064 29.9441892,47.2412064 C20.5124035,47.2412064 12.838832,39.5274826 12.838832,30.0463445 C12.838832,20.5652064 20.5124035,12.8514826 29.9441892,12.8514826 C35.7433888,12.8514826 40.8749781,15.7690576 43.9688249,20.2197867 L55.0694783,14.6578968 Z" id="Path" stroke-width="1.62"></path>
                        <path d="M53.8152855,37.199613 L55.0998031,33.290358 L57.4309647,33.290358 L58.1445856,31.0258506 L55.8609987,31.0258506 L57.0503669,27.4979863 L59.3101665,27.4979863 L60,25.2334789 L57.7877752,25.2334789 L59.1198675,21.300387 L56.4794702,21.300387 L55.1711652,25.2334789 L53.1254519,25.2334789 L54.4337569,21.300387 L51.8171469,21.300387 L50.508842,25.2334789 L48.2490424,25.2334789 L47.5354215,27.4979863 L49.7476463,27.4979863 L48.5820655,31.0258506 L46.3698407,31.0258506 L45.6324324,33.290358 L47.8208699,33.290358 L46.5125649,37.199613 L49.1291749,37.199613 L50.4136925,33.290358 L52.4831931,33.290358 L51.1748881,37.199613 L53.8152855,37.199613 Z M53.2206014,31.0258506 L51.1986755,31.0258506 L52.3642563,27.4979863 L54.4099696,27.4979863 L53.2206014,31.0258506 Z" id="#" stroke-width="0.81"></path>
                    </g>
                </g>
            </g>
        </g>
    </g>
</svg>