<svg id="icon-firmware.svg" xmlns="http://www.w3.org/2000/svg" width="78" height="60.53" viewBox="0 0 78 60.53"><defs><style>.cls-1,.cls-2,.cls-3,.cls-4{fill:none;stroke:#fff}.cls-1{stroke-linecap:round}.cls-1,.cls-2,.cls-4{stroke-width:2px}.cls-1,.cls-2,.cls-3{fill-rule:evenodd}.cls-3{stroke-width:1px}</style></defs><path id="Прямоугольник_601" data-name="Прямоугольник 601" class="cls-1" d="M1920,1582h14a2,2,0,0,1,2,2v41h-68v-41a1.993,1.993,0,0,1,2-2h14" transform="translate(-1863 -1574.97)"/><path id="Прямоугольник_594" data-name="Прямоугольник 594" class="cls-2" d="M1939.99,1625v1c0,1.65-.34,3-1.99,3h-72c-1.66,0-2-1.35-2-3v-1h75.99Z" transform="translate(-1863 -1574.97)"/><path id="Прямоугольник_587" data-name="Прямоугольник 587" class="cls-3" d="M1881,1633h26a1,1,0,0,1,0,2h-26A1,1,0,0,1,1881,1633Zm36,0h6a1,1,0,0,1,0,2h-6A1,1,0,0,1,1917,1633Z" transform="translate(-1863 -1574.97)"/><path id="Фигура_610" data-name="Фигура 610" class="cls-2" d="M1901.99,1575.96c-2.43,0-6.01.89-7.05,1.64v8.19c1.73,5.25,4.27,7.06,7.05,8.19,2.77-1.13,5.33-2.94,7.07-8.19v-8.19c-1.04-.75-4.65-1.64-7.07-1.64h0Z" transform="translate(-1863 -1574.97)"/><rect class="cls-4" x="21" y="26.03" width="8" height="8" rx="2" ry="2"/><rect id="Rectangle_933_copy" data-name="Rectangle 933 copy" class="cls-4" x="35" y="26.03" width="8" height="8" rx="2" ry="2"/><rect id="Rectangle_933_copy_2" data-name="Rectangle 933 copy 2" class="cls-4" x="49" y="26.03" width="8" height="8" rx="2" ry="2"/></svg>