<svg id="icon-folder.svg" xmlns="http://www.w3.org/2000/svg" width="78" height="78" viewBox="0 0 78 78"><defs><style>.cls-1{fill:#fff;fill-rule:evenodd}.cls-2{fill:#ebebeb;opacity:0}</style></defs><path id="Прямоугольник_587_copy" data-name="Прямоугольник 587 copy" class="cls-1" d="M1591,1633h26a1,1,0,0,1,0,2h-26A1,1,0,0,1,1591,1633Zm-16,0h6a1,1,0,0,1,0,2h-6A1,1,0,0,1,1575,1633Z" transform="translate(-1557 -1575)"/><path id="Link" class="cls-1" d="M1630,1589a1,1,0,0,1,1,1v37a1,1,0,0,1-1,1h-62a1,1,0,0,1-1-1v-37a1,1,0,0,1,1-1h62m0-2h-62a3,3,0,0,0-3,3v37a3,3,0,0,0,3,3h62a3,3,0,0,0,3-3v-37a3,3,0,0,0-3-3h0Zm-64.45,35H1562a1,1,0,0,1-1-1v-43a1,1,0,0,1,1-1h26.97a1,1,0,0,1,1,1v5H1624a1,1,0,0,1,1,1v4.08a5.728,5.728,0,0,1,2,.31V1584a3,3,0,0,0-3-3h-32.03v-3a3,3,0,0,0-3-3H1562a3,3,0,0,0-3,3v43a3,3,0,0,0,3,3h3.36A5.632,5.632,0,0,1,1565.55,1622Zm32.18-7.49-0.5.5a3,3,0,0,1-4.24-4.24l2.83-2.83a3,3,0,0,1,4.24,0,2.941,2.941,0,0,1,.56.81c0.05-.04.1-0.06,0.15-0.1l1.34-1.35a5.09,5.09,0,0,0-.64-0.78,5,5,0,0,0-7.07,0l-2.82,2.83a5,5,0,0,0,7.07,7.07l1.51-1.51A7,7,0,0,1,1597.73,1614.51Zm1.62-12.93-1.49,1.49a7.145,7.145,0,0,1,2.42.4l0.49-.48a3,3,0,0,1,4.24,4.24l-2.83,2.83a3,3,0,0,1-4.24,0,3.05,3.05,0,0,1-.56-0.8,1.191,1.191,0,0,0-.15.09l-1.34,1.35a5.054,5.054,0,0,0,.63.77,5,5,0,0,0,7.08,0l2.82-2.82A5,5,0,0,0,1599.35,1601.58Z" transform="translate(-1557 -1575)"/><rect id="Rectangle_930_copy_2" data-name="Rectangle 930 copy 2" class="cls-2" width="78" height="78"/></svg>