<svg id="icon-manufacturing.svg" xmlns="http://www.w3.org/2000/svg" width="78" height="78" viewBox="0 0 78 78"><defs><style>.cls-1{fill:#ebebeb;opacity:0}.cls-2{fill:none;stroke:#fff;stroke-width:2px}.cls-2,.cls-3{fill-rule:evenodd}.cls-3,.cls-4{fill:#fff}</style></defs><rect id="Rectangle_930_copy" data-name="Rectangle 930 copy" class="cls-1" width="78" height="78"/><path class="cls-2" d="M969.835,1629.06a20,20,0,1,1,26.7-.33" transform="translate(-944 -1575)"/><path id="Прямоугольник_587_copy" data-name="Прямоугольник 587 copy" class="cls-3" d="M1003,1633h1a1,1,0,0,1,0,2h-1A1,1,0,0,1,1003,1633Zm-41,0h33a1,1,0,0,1,0,2H962A1,1,0,0,1,962,1633Z" transform="translate(-944 -1575)"/><rect class="cls-4" y="53" width="78" height="2" rx="1" ry="1"/><path id="Manufacturing-Icon" class="cls-2" d="M1009.63,1627.97a6.561,6.561,0,0,1,.6-2.07,6.275,6.275,0,0,1,4.59-3.56l3.87-.95a1.248,1.248,0,0,0,.95-1.04,38.445,38.445,0,0,0,0-11.73,1.248,1.248,0,0,0-.95-1.05l-3.87-.95a6.275,6.275,0,0,1-4.59-3.56,6.411,6.411,0,0,1,.76-5.81l2.07-3.43a1.288,1.288,0,0,0-.06-1.42,37.112,37.112,0,0,0-8.2-8.3,1.274,1.274,0,0,0-.75-0.25,1.288,1.288,0,0,0-.65.19l-3.38,2.1a7.221,7.221,0,0,1-3.743,1.16c-2.661,0-4.779-1.93-5.525-5.04l-0.922-3.92a1.29,1.29,0,0,0-1.041-.96,36.207,36.207,0,0,0-5.793-.46h0a36.189,36.189,0,0,0-5.793.46,1.268,1.268,0,0,0-1.033.96l-0.931,3.92c-0.743,3.11-2.864,5.04-5.524,5.04a7.2,7.2,0,0,1-3.741-1.16l-3.385-2.1a1.235,1.235,0,0,0-1.4.06,37.355,37.355,0,0,0-8.2,8.3,1.293,1.293,0,0,0-.059,1.42l2.072,3.43a6.426,6.426,0,0,1,.759,5.81,6.273,6.273,0,0,1-4.593,3.56l-3.866.95a1.268,1.268,0,0,0-.954,1.05,38.445,38.445,0,0,0,0,11.73,1.266,1.266,0,0,0,.954,1.04l3.866,0.95a6.273,6.273,0,0,1,4.593,3.56,5.89,5.89,0,0,1,.605,2.07" transform="translate(-944 -1575)"/></svg>