<svg id="icon-onboarding.svg" xmlns="http://www.w3.org/2000/svg" width="78" height="78" viewBox="0 0 78 78"><defs><style>.cls-1,.cls-2{fill:#fff}.cls-1{opacity:0}.cls-2,.cls-3{fill-rule:evenodd}.cls-3{fill:none;stroke:#fff;stroke-linecap:round;stroke-width:2px}</style></defs><rect class="cls-1" width="78" height="78"/><path id="man" class="cls-2" d="M1287,1633h23a1,1,0,0,1,0,2h-23A1,1,0,0,1,1287,1633Zm-19,0h13a1,1,0,0,1,0,2h-13A1,1,0,0,1,1268,1633Zm59-5h-10.04c-0.74-9.01-11.33-14.58-17.15-16.15v-1.03a16.486,16.486,0,0,0,2.51-5.01,11.361,11.361,0,0,0,2.31-4.76c0.89-2.95.77-5.3-.35-7,0.66-3.48,1.28-10.91-4.11-15.23a4.743,4.743,0,0,0,.62-2.52,1.4,1.4,0,0,0-1.25-1.29l-0.1-.01c-0.01,0-.09.01-0.24,0.02-4.73.48-8.76,0.52-10.76,0.1a9.2,9.2,0,0,0-9.58,5.02,6.407,6.407,0,0,0-3.59,2.26c-1.83,2.3-2.39,5.78-1.67,10.28,0.04,0.48.08,0.91,0.15,1.31-1.45,2.19-.92,5.02-0.39,6.93a11.579,11.579,0,0,0,2.34,4.83,16.359,16.359,0,0,0,2.51,5.05v1.03c-5.82,1.62-16.43,7.25-17.17,16.17H1251a1.005,1.005,0,0,0,0,2.01h76A1.005,1.005,0,0,0,1327,1628Zm-47.64-14.4a1.151,1.151,0,0,0,.85-1.1v-2.38l-0.21-.27a14.581,14.581,0,0,1-2.44-4.85l-0.06-.21-0.14-.17a9.542,9.542,0,0,1-2.05-4.18c-0.5-1.78-.92-4.01.22-5.51l0.33-.43-0.08-.44c-0.08-.45-0.14-0.96-0.2-1.62-0.63-3.99-.21-6.95,1.25-8.78a4.459,4.459,0,0,1,2.91-1.65l0.64-.08,0.19-.63c0.69-2.39,4.35-4.86,7.47-4.22,2.89,0.6,8.03.25,10.69,0a2.683,2.683,0,0,1-.68,1.26l-0.83.86,1,0.67c5.52,3.67,4.65,11.14,4.02,14.18l-0.07.34,0.15,0.31,0.17,0.29c0.89,1.17.97,3.02,0.21,5.56a9.555,9.555,0,0,1-2.04,4.13l-0.14.16-0.06.21a14.438,14.438,0,0,1-2.44,4.82l-0.21.27v2.31a1.124,1.124,0,0,0,.76,1.15l0.1,0.03c4.92,1.13,15.46,6.26,16.27,14.37h-51.88C1263.87,1619.99,1274.42,1614.79,1279.36,1613.6Z" transform="translate(-1250 -1575)"/><path id="back-arrow" class="cls-3" d="M1292.48,1600.49l-3.46,3.45-3.5-3.45" transform="translate(-1250 -1575)"/><path id="line" class="cls-3" d="M1289,1602.97V1589" transform="translate(-1250 -1575)"/></svg>