<svg id="Case_Icon" data-name="Case Icon" xmlns="http://www.w3.org/2000/svg" width="80" height="80" viewBox="0 0 80 80">
  <metadata><?xpacket begin="﻿" id="W5M0MpCehiHzreSzNTczkc9d"?>
<x:xmpmeta xmlns:x="adobe:ns:meta/" x:xmptk="Adobe XMP Core 5.6-c138 79.159824, 2016/09/14-01:09:01        ">
   <rdf:RDF xmlns:rdf="http://www.w3.org/1999/02/22-rdf-syntax-ns#">
      <rdf:Description rdf:about=""/>
   </rdf:RDF>
</x:xmpmeta>
                                                                                                    
                                                                                                    
                                                                                                    
                                                                                                    
                                                                                                    
                                                                                                    
                                                                                                    
                                                                                                    
                                                                                                    
                                                                                                    
                                                                                                    
                                                                                                    
                                                                                                    
                                                                                                    
                                                                                                    
                                                                                                    
                                                                                                    
                                                                                                    
                                                                                                    
                                                                                                    
                           
<?xpacket end="w"?></metadata>
<defs>
    <style>
      .cls-1 {
        fill: #bb241d;
      }

      .cls-2 {
        fill: #fff;
        fill-rule: evenodd;
      }
    </style>
  </defs>
  <rect id="Прямоугольник_1642" data-name="Прямоугольник 1642" class="cls-1" width="80" height="80" rx="3" ry="3"/>
  <path id="Case-Icon.svg" class="cls-2" d="M877,2279H865v-6a3,3,0,0,0-3-3H844a3,3,0,0,0-3,3v6H829a3,3,0,0,0-3,3v28a3,3,0,0,0,3,3h48a3,3,0,0,0,3-3v-28A3,3,0,0,0,877,2279Zm-34-6a1,1,0,0,1,1-1h18a1,1,0,0,1,1,1v6H843v-6Zm22,8h3v30H838v-30h27Zm-37,29v-28a1,1,0,0,1,1-1h7v30h-7A1,1,0,0,1,828,2310Zm50,0a1,1,0,0,1-1,1h-7v-30h7a1,1,0,0,1,1,1v28Z" transform="translate(-813 -2253)"/>
</svg>
