<svg xmlns="http://www.w3.org/2000/svg" width="62" height="44" viewBox="0 0 62 44"><defs><style>.cls-1{fill:#fff;fill-rule:evenodd}</style></defs><path id="Cards-Icon.svg" class="cls-1" d="M1481.97 637h-48a4.008 4.008 0 0 1-4-4v-30a4.008 4.008 0 0 1 4-4h48a4.01 4.01 0 0 1 4.01 4v30a4.01 4.01 0 0 1-4.01 4zm-48-36a2 2 0 0 0-2 2v30a2 2 0 0 0 2 2h48a2 2 0 0 0 2-2v-30a2 2 0 0 0-2-2h-48zm-6 30a4.008 4.008 0 0 1-4-4v-30a4.008 4.008 0 0 1 4-4h48a4 4 0 0 1 4 4h-2a2 2 0 0 0-2-2h-48a2 2 0 0 0-2 2v30a2 2 0 0 0 2 2v2z" transform="translate(-1423.97 -593)"/></svg>