<svg xmlns="http://www.w3.org/2000/svg" width="55" height="70" viewBox="0 0 55 70"><defs><style>.cls-1{fill:#fff;fill-rule:evenodd}</style></defs><path id="Code-Icon.svg" class="cls-1" d="M1016 3379h-33.01a3 3 0 0 0-3 3v57.01a3 3 0 0 0 3 2.99H1025a3 3 0 0 0 3-3v-48zm9.17 12H1016v-9.17zm-.17 49h-42.01a1 1 0 0 1-1-1v-57a1 1 0 0 1 1-1H1014v12h12v46a1 1 0 0 1-1 1zm-46.991-54H976a3 3 0 0 0-3 3v57.01a3.005 3.005 0 0 0 3 2.99h42a3 3 0 0 0 3-3v-2h-2v2a1 1 0 0 1-1 1h-42a1 1 0 0 1-1-1v-57a1 1 0 0 1 1-1h2.01v-2zm22.281 36.97h-.05a7.387 7.387 0 0 1-5.4-2.37 7.093 7.093 0 0 1-1.817-4.83 7.182 7.182 0 0 1 7.249-7.05 6.9 6.9 0 0 1 1.44.15l6.68-6.56a2.559 2.559 0 0 1 1.2-.64l2.54-.59.24-.03a2.462 2.462 0 0 1 2.62 2.29l.01 3.21a2.635 2.635 0 0 1-.78 1.77l-6.78 6.66a6.934 6.934 0 0 1-2.07 5.92 7.222 7.222 0 0 1-5.082 2.07zm-.03-2a5.336 5.336 0 0 0 3.71-1.49 4.959 4.959 0 0 0 1.42-4.63l-.12-.54 7.54-7.4a.655.655 0 0 0 .19-.42l-.01-3.08a.4.4 0 0 0-.15-.25.435.435 0 0 0-.34-.12l-2.46.57a.581.581 0 0 0-.27.14l-7.48 7.36-.58-.18a4.448 4.448 0 0 0-1.44-.21h-.07a5.157 5.157 0 0 0-5.177 5.07 5.1 5.1 0 0 0 1.3 3.47 5.322 5.322 0 0 0 3.925 1.71h.01zM999 3416a1 1 0 1 1-1 1 1 1 0 0 1 1-1z" transform="translate(-973 -3379)"/></svg>