<svg xmlns="http://www.w3.org/2000/svg" width="60" height="60" viewBox="0 0 60 60"><defs><style>.cls-1{fill:#fff;fill-rule:evenodd}</style></defs><path id="Processor_Icon.svg" data-name="Processor Icon.svg" class="cls-1" d="M1756 1501a1 1 0 0 1 1 1v38a1 1 0 0 1-1 1h-38a1 1 0 0 1-1-1v-38a1 1 0 0 1 1-1h38m0-2h-38a3 3 0 0 0-3 3v38a3 3 0 0 0 3 3h38a3 3 0 0 0 3-3v-38a3 3 0 0 0-3-3zm-10 13a1 1 0 0 1 1 1v16a1 1 0 0 1-1 1h-18a1 1 0 0 1-1-1v-16a1 1 0 0 1 1-1h18m0-2h-18a3 3 0 0 0-3 3v16a3 3 0 0 0 3 3h18a3 3 0 0 0 3-3v-16a3 3 0 0 0-3-3zm-17-19a1 1 0 0 1 1 1v4a1 1 0 0 1-1 1 1 1 0 0 1-1-1v-4a1 1 0 0 1 1-1zm8 0a1 1 0 0 1 1 1v4a1 1 0 0 1-1 1 1 1 0 0 1-1-1v-4a1 1 0 0 1 1-1zm8 0a1 1 0 0 1 1 1v4a1 1 0 0 1-1 1 1 1 0 0 1-1-1v-4a1 1 0 0 1 1-1zm-16 54a1 1 0 0 1 1 1v4a1 1 0 0 1-1 1 1 1 0 0 1-1-1v-4a1 1 0 0 1 1-1zm8 0a1 1 0 0 1 1 1v4a1 1 0 0 1-1 1 1 1 0 0 1-1-1v-4a1 1 0 0 1 1-1zm8 0a1 1 0 0 1 1 1v4a1 1 0 0 1-1 1 1 1 0 0 1-1-1v-4a1 1 0 0 1 1-1zm17-21h4a1 1 0 0 1 1 1 1 1 0 0 1-1 1h-4a1 1 0 0 1-1-1 1 1 0 0 1 1-1zm0-8h4a1 1 0 0 1 1 1 1 1 0 0 1-1 1h-4a1 1 0 0 1-1-1 1 1 0 0 1 1-1zm-54 8h4a1 1 0 0 1 1 1 1 1 0 0 1-1 1h-4a1 1 0 0 1-1-1 1 1 0 0 1 1-1zm0-8h4a1 1 0 0 1 1 1 1 1 0 0 1-1 1h-4a1 1 0 0 1-1-1 1 1 0 0 1 1-1z" transform="translate(-1707 -1491)"/></svg>