<svg id="Icon-2.svg" xmlns="http://www.w3.org/2000/svg" width="78" height="78" viewBox="0 0 78 78"><defs><style>.cls-1,.cls-7{fill:none;stroke:#bb241d;stroke-width:2px}.cls-1,.cls-2,.cls-6{fill-rule:evenodd}.cls-2,.cls-3{fill:#bb241d}.cls-4{fill:#f3c2c0}.cls-5{fill:#fb9996;opacity:.5}.cls-6{fill:#fca2a3}</style></defs><path id="Прямоугольник_601" data-name="Прямоугольник 601" class="cls-1" d="M1322 4981v40h-68v-44a1.993 1.993 0 0 1 2-2h36.97" transform="translate(-1249 -4949)"/><path id="Прямоугольник_587" data-name="Прямоугольник 587" class="cls-2" d="M1267 5025h26a1 1 0 0 1 0 2h-26a1 1 0 0 1 0-2zm36 0h6a1 1 0 0 1 0 2h-6a1 1 0 0 1 0-2z" transform="translate(-1249 -4949)"/><rect id="Прямоугольник_587-2" data-name="Прямоугольник 587" class="cls-3" x="50" y="40" width="11" height="2" rx="1" ry="1"/><rect id="Прямоугольник_587-3" data-name="Прямоугольник 587" class="cls-3" x="29" y="56" width="21" height="2" rx="1" ry="1"/><rect id="Прямоугольник_587-4" data-name="Прямоугольник 587" class="cls-4" x="17" y="40" width="28" height="2" rx="1" ry="1"/><path id="Прямоугольник_587-5" data-name="Прямоугольник 587" class="cls-2" d="M1267 4997h15a1 1 0 0 1 0 2h-15a1 1 0 0 1 0-2zm22 0h6a1 1 0 0 1 0 2h-6a1 1 0 0 1 0-2z" transform="translate(-1249 -4949)"/><rect id="Прямоугольник_587-6" data-name="Прямоугольник 587" class="cls-5" x="51" y="48" width="10" height="2" rx="1" ry="1"/><rect id="Прямоугольник_587-7" data-name="Прямоугольник 587" class="cls-5" x="17" y="56" width="7" height="2" rx="1" ry="1"/><rect id="Прямоугольник_587-8" data-name="Прямоугольник 587" class="cls-5" x="54" y="56" width="7" height="2" rx="1" ry="1"/><rect id="Прямоугольник_597" data-name="Прямоугольник 597" class="cls-3" y="71" width="78" height="2" rx="1" ry="1"/><path class="cls-6" d="M1322.73 4976.49c.76.55.01-.02.02-.03.53-.95.19-4.17-.78-4.72l-.43-.24a14.545 14.545 0 0 0 0-7.18l.43-.25a.147.147 0 0 0 .04-.02 1.992 1.992 0 0 0 .72-2.73l-2.06-3.49a2.08 2.08 0 0 0-2.8-.73l-.37.2a15.344 15.344 0 0 0-6.83-3.93v-.56a2.034 2.034 0 0 0-2.05-2.02 1.553 1.553 0 0 1-1.03 1.01c-.26 0-6.76 2.19-9.95 6.04-1.12 1.34-1.12 3.17-.43 5.16.96 2.81.04 2.69-.79 7.54.11 1.55.83 3.97 2 5 .91.62 2.68.62 3.35.97a47.573 47.573 0 0 1 6.23 4.49c1.19.91 3.18.5 4.65.77 1.81-.77 2.73-2.28 4.13-3.66zm-12.71-3.48a6.04 6.04 0 1 1 6.08-6.04 6.071 6.071 0 0 1-6.08 6.04z" transform="translate(-1249 -4949)"/><path class="cls-1" d="M1325.08 4969.59l-.4-.24a14.161 14.161 0 0 0 .4-3.35 14.309 14.309 0 0 0-.4-3.36l.4-.23a1.887 1.887 0 0 0 .68-2.57l-1.87-3.26a1.881 1.881 0 0 0-2.57-.69l-.32.19a14.062 14.062 0 0 0-6.24-3.67v-.53a1.878 1.878 0 0 0-1.88-1.88h-3.75a1.878 1.878 0 0 0-1.88 1.88v.53a13.975 13.975 0 0 0-6.23 3.67l-.33-.19a1.872 1.872 0 0 0-2.56.69l-1.88 3.26a1.881 1.881 0 0 0 .69 2.57l.4.23a14.311 14.311 0 0 0-.41 3.36 14.162 14.162 0 0 0 .41 3.35l-.4.24a1.879 1.879 0 0 0-.69 2.57l1.88 3.26a1.869 1.869 0 0 0 2.56.68l.33-.18a13.975 13.975 0 0 0 6.23 3.67v.52a1.886 1.886 0 0 0 1.88 1.89h3.75a1.886 1.886 0 0 0 1.88-1.89v-.52a14.062 14.062 0 0 0 6.24-3.67l.32.18a1.878 1.878 0 0 0 2.57-.68l1.87-3.26a1.885 1.885 0 0 0-.68-2.57z" transform="translate(-1249 -4949)"/><circle class="cls-7" cx="62" cy="17" r="5.03"/></svg>