<svg id="Icon-4.svg" xmlns="http://www.w3.org/2000/svg" width="78" height="78" viewBox="0 0 78 78"><defs><style>.cls-1,.cls-4,.cls-5{fill:none;stroke:#bb241d}.cls-1,.cls-5{stroke-width:2px}.cls-1,.cls-2,.cls-3,.cls-4,.cls-5{fill-rule:evenodd}.cls-2{fill:#bb241d}.cls-3{fill:#fb9996}.cls-4{stroke-linejoin:round;stroke-width:2.1px}.cls-5{stroke-linecap:round}</style></defs><path id="Прямоугольник_601" data-name="Прямоугольник 601" class="cls-1" d="M1921.06 4974H1933a2 2 0 0 1 2 2v41h-68v-41a1.993 1.993 0 0 1 2-2h11.97" transform="translate(-1862 -4949)"/><path id="Прямоугольник_594" data-name="Прямоугольник 594" class="cls-1" d="M1939 5017v1c0 1.66-.35 3-2 3h-72c-1.66 0-2-1.34-2-3v-1h76z" transform="translate(-1862 -4949)"/><path id="Прямоугольник_587" data-name="Прямоугольник 587" class="cls-2" d="M1880 5025h26a1 1 0 0 1 0 2h-26a1 1 0 0 1 0-2zm36 0h6a1 1 0 0 1 0 2h-6a1 1 0 0 1 0-2z" transform="translate(-1862 -4949)"/><g id="Code"><path id="Прямоугольник_3" data-name="Прямоугольник 3" class="cls-3" d="M1886.25 4953h27.49a1.25 1.25 0 0 1 1.25 1.25v25.49a1.25 1.25 0 0 1-1.25 1.25l-28.74.01c0-3.34-.01-.57-.01-1.26v-25.49a1.253 1.253 0 0 1 1.26-1.25z" transform="translate(-1862 -4949)"/><path id="Прямоугольник_3-2" data-name="Прямоугольник 3" class="cls-1" d="M1885.24 4950h31.5a1.25 1.25 0 0 1 1.25 1.25v29.49a1.25 1.25 0 0 1-1.25 1.25h-31.5a1.25 1.25 0 0 1-1.25-1.25v-29.49a1.25 1.25 0 0 1 1.25-1.25z" transform="translate(-1862 -4949)"/><path id="Фигура_1" data-name="Фигура 1" class="cls-4" d="M1897.28 4995.31l3.72 3.69 3.76-3.71" transform="translate(-1862 -4949)"/><path id="Фигура_1-2" data-name="Фигура 1" class="cls-4" d="M1907.27 4969.7l3.68-3.72-3.7-3.76" transform="translate(-1862 -4949)"/><path id="Фигура_1-3" data-name="Фигура 1" class="cls-4" d="M1894.67 4962.27l-3.69 3.71 3.71 3.76" transform="translate(-1862 -4949)"/><path id="Фигура_2" data-name="Фигура 2" class="cls-5" d="M1903.76 4958.99l-5 13.98" transform="translate(-1862 -4949)"/></g></svg>