<svg id="Case_Icon" data-name="Case Icon" xmlns="http://www.w3.org/2000/svg" width="80" height="80" viewBox="0 0 80 80"><defs><style>.cls-1{fill:#bb241d}.cls-2{fill:#fff;fill-rule:evenodd}</style></defs><rect id="Прямоугольник_1642" data-name="Прямоугольник 1642" class="cls-1" width="80" height="80" rx="3" ry="3"/><path id="Case-Icon.svg" class="cls-2" d="M877 2279h-12v-6a3 3 0 0 0-3-3h-18a3 3 0 0 0-3 3v6h-12a3 3 0 0 0-3 3v28a3 3 0 0 0 3 3h48a3 3 0 0 0 3-3v-28a3 3 0 0 0-3-3zm-34-6a1 1 0 0 1 1-1h18a1 1 0 0 1 1 1v6h-20v-6zm22 8h3v30h-30v-30h27zm-37 29v-28a1 1 0 0 1 1-1h7v30h-7a1 1 0 0 1-1-1zm50 0a1 1 0 0 1-1 1h-7v-30h7a1 1 0 0 1 1 1v28z" transform="translate(-813 -2253)"/></svg>