<?xml version="1.0" encoding="utf-8"?>
<!-- Generator: Adobe Illustrator 19.0.1, SVG Export Plug-In . SVG Version: 6.00 Build 0)  -->
<svg version="1.1" id="Layer_1" xmlns="http://www.w3.org/2000/svg" xmlns:xlink="http://www.w3.org/1999/xlink" x="0px" y="0px"
	 viewBox="0 0 252.1 80" style="enable-background:new 0 0 252.1 80;" xml:space="preserve">
<g>
	<g>
		<path d="M98.9,1c-1-1-2.4-1.2-3.6-0.7l-0.2-0.2l-0.9,0.8c0,0,0,0-0.1,0.1l0,0l-2.1,2.1l0.8,0.8L92,4.8l1.7,1.7l-0.9,0.9l-1.7-1.7
			l-0.9,0.9l1.7,1.7L91,9.3l-1.7-1.7l-0.9,0.9l1.7,1.7l-0.9,0.9l-1.7-1.7l-0.9,0.9l1.7,1.7L87.3,13l-1.7-1.7l-1.2,1.2l1.7,1.7
			l-0.9,0.9l-1.7-1.7l-7.2,7.2L71,15.3l-3.3,1.7l4.5,4.5l-7.7,7.7c-11.7-3.3-22.8-1.6-29.4,0.1l-7.6-7.6l4.6-4.6l-3.3-1.7l-5.3,5.2
			l-7.2-7.2l-1.7,1.7l-0.9-0.9l1.7-1.7l-1.2-1.2L12.5,13l-0.9-0.9l1.7-1.7l-0.9-0.9l-1.7,1.7l-0.9-0.9l1.7-1.7l-0.9-0.9L8.9,9.4
			L7.9,8.4l1.7-1.7L8.8,5.8L7,7.5L6.1,6.6l1.7-1.7L6.9,4l0.8-0.8L5.6,1l0,0c0,0,0,0-0.1-0.1L4.7,0.1L4.5,0.3C3.4-0.2,1.9,0,0.9,1
			C0,2-0.3,3.4,0.3,4.6L0.1,4.8l3,3L3.9,7l16.6,16.7l-4.7,4.7l1.7,3.3l3-3l8.4,8.4v17c0.8,2.8,1.8,5.3,3.1,7.7L21,72.6l0.1,0.1h-0.3
			l0,6.4h0.8l0-6l0.1,0.1l10.7-10.7c1.4,2.6,3,4.9,4.8,6.9l-9.7,9.7h-6.7V80H28v-0.2l9.7-9.7c3.5,3.8,7.7,6.4,12.1,7.8
			c4.9-1.8,8.8-4.5,12-7.9l9.8,9.8V80h7.2v-0.8h-6.7l-9.7-9.8c1.8-2,3.5-4.4,4.9-6.9l10.8,10.8l0,5.8h0.8l0-6.4h-0.2l-11-11
			c1.2-2.2,2.2-4.6,3.2-7.1c0-5.5-0.1-12.5-0.1-17.5l8.6-8.6l3.1,3.1l1.7-3.3l-4.7-4.7L96.1,7l0.8,0.8l3-3l-0.2-0.2
			C100.1,3.4,99.9,1.9,98.9,1z M28.8,31.3c0,0,0,1.8,0,4.5L21.1,28l5.8-5.8l7.3,7.3C30.8,30.5,28.8,31.3,28.8,31.3z M49.7,73.3
			c-7.6-2.4-13.8-9.3-16.9-19.7c0-7.3,0-19.4,0-19.4s16.5-7.7,33.8,0c0,2.7,0.1,13,0.1,19.9C63.3,63.2,58.6,70,49.7,73.3z
			 M70.7,35.9c0-2,0-3.6,0-4.6c-1.7-0.8-3.5-1.4-5.2-2l7.3-7.3l5.8,5.8L70.7,35.9z"/>
	</g>
</g>
<path d="M52.7,51c1.2-0.9,1.9-2.3,1.9-3.7c0-2.6-2.1-4.7-4.7-4.7c-2.6,0-4.7,2.1-4.7,4.7c0,1.4,0.7,2.8,1.9,3.7
	c-0.2,1.1-0.6,3.9-1,5.9c0,0.2,0,0.5,0.2,0.7c0.2,0.2,0.4,0.3,0.6,0.3l0,0l2.9,0l2.9,0l0,0c0.2,0,0.5-0.1,0.6-0.3s0.2-0.4,0.2-0.7
	C53.3,54.9,52.8,52.1,52.7,51z M51.8,56.2h-1.9H48c1-5.9,1-5.9,0.6-6.3c0,0-0.1-0.1-0.1-0.1c-0.9-0.6-1.5-1.6-1.5-2.5
	c0-1.7,1.3-3,3-3c1.7,0,3,1.3,3,3c0,1-0.6,2-1.5,2.5c-0.1,0-0.1,0.1-0.1,0.1C50.9,50.4,50.8,50.4,51.8,56.2z"/>
<g>
	<g>
		<path d="M148.8,69.3h-2.7c-1.4,0-2.6-1.2-2.6-2.6s1.2-2.6,2.6-2.6h5.5v-2.4h-5.8c-2.8,0-5,2.3-5,5s2.2,5.2,5,5.2h2.5
			c1.6,0,2.8,1.1,2.8,2.7c0,1.5-1.3,2.6-2.8,2.6h-6.5v2.6h7c2.8,0,5.1-2.4,5.1-5.3C153.9,71.6,151.6,69.3,148.8,69.3z M159.6,70.9
			h7.5v-2.5h-7.5v-4.4h7.9v-2.5H157v18.1h10.7v-2.6h-8.1V70.9z M170.2,70.6c0,5.2,4.2,9.4,9.3,9.4c1.1,0,2.2-0.2,3.2-0.6v-2.9
			c-0.9,0.6-2,0.9-3.2,0.9c-3.5,0-6.4-3.1-6.4-6.8c0-3.8,2.9-6.8,6.4-6.8c1.2,0,2.3,0.3,3.2,0.9c0,0,0-3,0-3c-1-0.4-2.1-0.6-3.2-0.6
			C174.3,61.2,170.2,65.4,170.2,70.6z M196.2,73.9c0,1.9-1.6,3.6-3.6,3.6c-2,0-3.6-1.6-3.6-3.6V61.5h-2.6v12.3
			c0,3.4,2.8,6.1,6.2,6.1c3.5,0,6.3-2.7,6.3-6.1V61.5h-2.6L196.2,73.9L196.2,73.9z M215.6,68c0-3.7-3-6.4-6.8-6.4h-5.9v18.1h2.7
			v-5.3h3.2c2.6,0,4.1,2.6,4.1,4.6v0.8h2.7v-0.8c0-2.2-0.8-4.4-3-5.7C214,72.4,215.6,70.5,215.6,68z M209.1,72h-3.5v-8.2h3.5
			c2.1,0,3.8,2,3.8,4.1C212.8,70,211.2,72,209.1,72z M219.5,79.6h2.6V61.5h-2.6V79.6z M225.1,64.1h4.5v15.6h2.6V64.1h4.5v-2.5h-11.6
			L225.1,64.1L225.1,64.1z M249.2,61.5l-4,7.9l-4-7.9h-2.9l5.6,10.5v7.6h2.6V72l5.6-10.5H249.2z M146.5,22.7h-5v33.9h5V22.7z
			 M172,56.6h5v-1.4c0-4.1-1.5-8.3-5.7-10.7c2.7-1.4,5.7-5,5.7-9.8c0-7-5.5-12-12.7-12h-11v33.9h5v-9.9h6c5,0,7.7,4.8,7.7,8.5V56.6z
			 M164.9,42.3h-6.6V27.1h6.6c4,0,7,3.7,7,7.6C171.9,38.5,168.9,42.3,164.9,42.3z M198,37v4.6h12.5c-0.3,6.4-5.2,10.8-12.1,10.8
			c-6.6,0-12.1-5.7-12.1-12.7c0-7,5.4-12.7,12.1-12.7c4,0,7.6,2.1,9.8,5.3c0,0.1,4.1-3.1,4.1-3.1c-3.1-4.2-8.3-7-13.9-7
			c-9.7,0-17.4,7.9-17.4,17.6c0,9.7,7.8,17.5,17.4,17.5c10.1,0,17.4-7.9,17.4-17.5c0-0.9-0.1-1.8-0.2-2.7L198,37L198,37z M226,22.7
			h-5v33.9h5V22.7z M251.6,51.8h-13.9V22.7h-5v33.9h18.8V51.8z M114.6,63.1L99.1,22.7h-7.2L114.7,79l22.8-56.3h-6.8L114.6,63.1z"/>
	</g>
</g>
</svg>
