<?xml version="1.0" encoding="UTF-8" standalone="no"?>
<svg width="274px" height="113px" viewBox="0 0 274 113" version="1.1" xmlns="http://www.w3.org/2000/svg" xmlns:xlink="http://www.w3.org/1999/xlink" xmlns:sketch="http://www.bohemiancoding.com/sketch/ns">
    <!-- Generator: Sketch 3.5.1 (25234) - http://www.bohemiancoding.com/sketch -->
    <title>Group 4</title>
    <desc>Created with Sketch.</desc>
    <defs>
        <path id="path-1" d="M42.4420156,0.66468633 L42.4420156,0.66468633 L42.9961228,0.562727915 L43.5502335,0.664667211 L82.9970997,7.92167501 L85.50658,8.38334205 L85.50658,10.9360293 L85.50658,67.5527122 C85.50658,72.6708205 83.2900028,77.9986954 79.0345278,83.4375182 C75.4198885,88.0499886 70.376235,92.7055262 64.0336931,97.3046055 C57.5902152,101.966736 50.6334199,105.993254 44.3541967,109.09988 L42.9950012,109.772337 L41.6362682,109.098945 C35.3444463,105.980697 28.4042846,101.962877 21.9593386,97.3019308 C15.6133128,92.6959105 10.56676,88.0414006 6.95442377,83.4359649 C2.7079865,78.0100958 0.493419969,72.6739431 0.493419969,67.5527122 L0.493419969,10.9360293 L0.493419969,8.38343156 L3.00279636,7.92169413 L42.4420156,0.66468633 Z"></path>
    </defs>
    <g id="Page-1" stroke="none" stroke-width="1" fill="none" fill-rule="evenodd" sketch:type="MSPage">
        <g id="VirgilSecurity---404" sketch:type="MSArtboardGroup" transform="translate(-584.000000, -235.000000)">
            <g id="Group-4" sketch:type="MSLayerGroup" transform="translate(581.000000, 204.000000)">
                <text id="4" sketch:type="MSTextLayer" font-family="Proxima Nova" font-size="145" font-weight="bold" sketch:alignment="middle" fill="#BEC4C6">
                    <tspan x="0.2175" y="144">4</tspan>
                </text>
                <text id="4" sketch:type="MSTextLayer" font-family="Proxima Nova" font-size="145" font-weight="bold" sketch:alignment="middle" fill="#BEC4C6">
                    <tspan x="194.2175" y="144">4</tspan>
                </text>
                <g id="virgil-pass" transform="translate(99.000000, 31.000000)">
                    <mask id="mask-2" sketch:name="Mask" fill="white">
                        <use xlink:href="#path-1"></use>
                    </mask>
                    <use id="Mask" stroke="#424B54" stroke-width="7" sketch:type="MSShapeGroup" xlink:href="#path-1"></use>
                </g>
            </g>
        </g>
    </g>
</svg>