<?xml version="1.0" encoding="UTF-8" standalone="no"?>
<svg width="117px" height="151px" viewBox="0 0 117 151" version="1.1" xmlns="http://www.w3.org/2000/svg" xmlns:xlink="http://www.w3.org/1999/xlink" xmlns:sketch="http://www.bohemiancoding.com/sketch/ns">
    <!-- Generator: Sketch 3.3.3 (12072) - http://www.bohemiancoding.com/sketch -->
    <title>Shape + Group + C# Copy + Untitled-1</title>
    <desc>Created with Sketch.</desc>
    <defs>
        <path id="path-1" d="M54.2785216,2.84217094e-14 L0,9.99730727 L0,87.9928658 C0,93.995767 2.68520967,100.478961 7.99548994,107.270806 C12.702876,113.278224 19.3677889,119.430181 27.8022941,125.558049 C38.332646,133.180996 49.0674708,138.858683 54.2785216,141.443831 C59.4985933,138.858683 70.2334181,133.182501 80.760763,125.558049 C89.2012821,119.431687 95.8541672,113.27973 100.558546,107.270806 C105.873337,100.471432 108.567568,93.9972727 108.567568,87.9928658 L108.567568,9.99730727 L54.2785216,2.84217094e-14 L54.2785216,2.84217094e-14 Z"></path>
    </defs>
    <g id="Welcome" stroke="none" stroke-width="1" fill="none" fill-rule="evenodd" sketch:type="MSPage">
        <g id="VirgilSecurity---Apps" sketch:type="MSArtboardGroup" transform="translate(-337.000000, -273.000000)">
            <g id="V-Pass" sketch:type="MSLayerGroup" transform="translate(273.000000, 235.000000)">
                <g id="virgil-pass" transform="translate(50.000000, 37.000000)">
                    <g id="Shape-+-Group-+-C#-Copy-+-Untitled-1" transform="translate(14.000000, 0.000000)">
                        <g id="Shape-+-Group-+-C#-Copy">
                            <g id="Shape-+-Group">
                                <path d="M57.7320697,1.12520755 L57.7320697,1.12520755 L58.4946639,0.984748889 L59.2572629,1.12518121 L113.546309,11.1224885 L117,11.7584844 L117,15.2750851 L117,93.2706436 C117,100.321387 113.949419,107.661107 108.09279,115.153669 C103.118115,121.507842 96.176749,127.921345 87.4477781,134.257071 C78.5798933,140.679655 69.0055515,146.226616 60.3637234,150.506327 L58.4931204,151.432709 L56.6231539,150.505039 C47.9639867,146.209318 38.412537,140.674339 29.5426317,134.253386 C20.8088661,127.908098 13.8635098,121.496011 8.892005,115.151529 C3.04781382,107.676812 0,100.325689 0,93.2706436 L0,15.2750851 L0,11.7586077 L3.4535481,11.1225148 L57.7320697,1.12520755 Z" id="Path" fill="#9E0B0F" sketch:type="MSShapeGroup"></path>
                                <g id="Shape-+-Rectangle-215" transform="translate(4.216216, 5.277778)">
                                    <mask id="mask-2" sketch:name="Mask" fill="white">
                                        <use xlink:href="#path-1"></use>
                                    </mask>
                                    <use id="Mask" fill="#BB241D" sketch:type="MSShapeGroup" xlink:href="#path-1"></use>
                                    <rect id="Rectangle-215" fill="#DA322C" sketch:type="MSShapeGroup" mask="url(#mask-2)" x="-62.1891892" y="-69.6666667" width="117" height="231.166667"></rect>
                                </g>
                            </g>
                        </g>
                        <g id="Untitled-1" transform="translate(21.000000, 37.000000)" stroke="#2C302E" stroke-width="2" fill="#FFFFFF" sketch:type="MSShapeGroup">
                            <path d="M37.5862198,77.7967895 C36.5869225,77.7967895 35.6800577,77.2179474 35.2579496,76.3127368 L0.239409021,3.64957895 C-0.130320709,2.85418421 -0.0686990871,1.92536842 0.402706318,1.18642105 C0.874111724,0.447473684 1.69059821,0 2.56665226,0 L20.9627604,0 C21.9610306,0 22.8689225,0.578842105 23.2900036,1.48405263 L37.5862198,29.5927895 L51.882436,1.48405263 C52.3035171,0.578842105 53.211409,0 54.2096793,0 L72.6057874,0 C73.4818415,0 74.2983279,0.447473684 74.7697333,1.18642105 C75.2411388,1.92536842 75.3027604,2.85418421 74.9330306,3.64957895 L39.9134631,76.3127368 C39.492382,77.2179474 38.5844901,77.7967895 37.5862198,77.7967895 L37.5862198,77.7967895 Z M6.59157118,5.13363158 L37.5862198,69.1439211 L68.5808685,5.13363158 L55.8467604,5.13363158 L39.9134631,36.7626316 C39.492382,37.6678421 38.5844901,38.2466842 37.5862198,38.2466842 C36.5869225,38.2466842 35.6800577,37.6678421 35.2579496,36.7626316 L19.3256793,5.13363158 L6.59157118,5.13363158 L6.59157118,5.13363158 Z" id="Imported-Layers"></path>
                        </g>
                    </g>
                </g>
            </g>
        </g>
    </g>
</svg>