<?xml version="1.0" encoding="UTF-8" standalone="no"?>
<svg width="37px" height="37px" viewBox="0 0 37 37" version="1.1" xmlns="http://www.w3.org/2000/svg" xmlns:xlink="http://www.w3.org/1999/xlink" xmlns:sketch="http://www.bohemiancoding.com/sketch/ns">
    <!-- Generator: Sketch 3.3.3 (12072) - http://www.bohemiancoding.com/sketch -->
    <title>Shape</title>
    <desc>Created with Sketch.</desc>
    <defs>
        <linearGradient x1="0%" y1="0%" x2="101.999998%" y2="100.999999%" id="linearGradient-1">
            <stop stop-color="#DFE3E5" offset="0%"></stop>
            <stop stop-color="#C5CBCD" offset="100%"></stop>
        </linearGradient>
    </defs>
    <g id="Welcome" stroke="none" stroke-width="1" fill="none" fill-rule="evenodd" sketch:type="MSPage">
        <g id="VirgilSecurity---Apps" sketch:type="MSArtboardGroup" transform="translate(-348.000000, -675.000000)" fill="url(#linearGradient-1)">
            <g id="V-Pass" sketch:type="MSLayerGroup" transform="translate(273.000000, 235.000000)">
                <g id="Group" transform="translate(22.000000, 440.000000)" sketch:type="MSShapeGroup">
                    <g id="Shape">
                        <path d="M83.6832981,4.99445273 C83.5823702,4.8952446 83.4803116,4.79731221 83.3770471,4.70058054 C83.4786533,4.79828778 83.5808627,4.89622017 83.6832981,4.99445273 Z M53.8625984,14.8281397 C53.8625984,14.8281397 53.8106646,14.8914017 53.7325001,14.9968385 C53.7213445,15.0543972 53.7098121,15.1118809 53.6992595,15.1695897 C53.7484044,15.0333099 53.8025994,14.9178172 53.8625984,14.8281397 Z M59.0315559,6.51769525 C59.0650227,6.48385042 59.0977357,6.44940523 59.1315039,6.41578556 C60.6892916,4.86485181 62.5030547,3.64726335 64.5225179,2.79694013 C66.6128342,1.91667435 68.8338518,1.47031281 71.1236873,1.47031281 C73.2852335,1.47031281 75.3851979,1.86849612 77.3720234,2.65345605 C78.5325062,2.85307302 80.0793644,3.23744824 81.3681366,3.96687565 C78.4760499,1.92207751 74.940934,0.719798052 71.1236873,0.719798052 C66.1746758,0.719798052 61.7004553,2.74133255 58.4865149,5.99929151 C58.6360601,6.18022251 58.8161324,6.35469975 59.0315559,6.51769525 Z M65.3196903,19.7810417 C65.1963759,19.6787568 65.0909254,19.5694928 65.0010777,19.455501 C64.970852,19.7073486 64.9508775,19.9783323 64.9509529,20.2628991 C64.9508775,20.7930097 65.0174342,21.365295 65.1993909,21.9325524 C65.3815737,22.50011 65.6774983,23.0629397 66.1439226,23.5854709 C66.4551485,23.933825 66.8428806,24.2647689 67.3278472,24.5655452 L67.300712,24.6089956 C68.2116262,24.6254303 69.6940382,24.6080201 70.4452315,24.358724 C71.5758656,23.9835041 73.3848801,22.5576687 73.3848801,22.5576687 C73.8371337,22.1074049 74.3647629,22.3325368 74.8170166,22.3325368 C75.2692702,22.3325368 75.4200214,21.657141 74.8170166,20.9817453 C74.2140117,20.3063496 72.1034948,19.6309538 70.5206071,20.6815694 C68.9377194,21.732185 66.6764512,20.9067013 65.3196903,19.7810417 Z M66.4122598,9.87718871 C66.3114072,10.2512079 66.2239715,10.725861 66.2241976,11.2420134 C66.224273,11.7630437 66.3119348,12.323397 66.5580362,12.87467 C66.7555202,13.3168291 66.9419241,13.6411692 67.1114438,13.9015718 C67.2306127,14.0845289 67.3416409,14.2358176 67.4455839,14.3766751 C67.6577662,14.1822362 67.9058273,13.9871969 68.1086631,13.852568 C68.5609167,13.5523922 70.2945556,12.7269085 70.5206825,12.5017766 C70.7468093,12.2766446 71.1990629,11.0759411 70.8221849,10.7007212 C70.4453068,10.3255014 68.0332875,10.5506333 67.2795315,10.4005454 C66.9618986,10.3372833 66.6579842,10.1141776 66.4122598,9.87718871 L66.4122598,9.87718871 L66.4122598,9.87718871 Z M66.8990354,17.2200912 C66.901372,17.2260197 66.9025781,17.2294717 66.9025781,17.2294717 C66.9055177,17.2236933 66.9079297,17.2175397 66.910794,17.2116863 L66.8990354,17.2200912 L66.8990354,17.2200912 Z M89.213757,13.852493 C89.213757,14.4625254 88.6604248,15.3173513 88.553316,15.4769698 C88.5756273,15.4203116 88.6107523,15.2415569 88.6107523,14.6779767 C88.6107523,13.852493 88.8368789,11.7512618 87.7816207,9.42489869 C86.7263622,7.0985356 85.1434745,5.97287602 85.1434745,5.97287602 L85.1434745,6.49818383 C84.9173476,5.7477441 82.8068306,4.32190865 82.8068306,4.32190865 L82.8068306,5.07234838 C86.575611,8.52437105 86.9524888,10.9257781 86.9524888,10.9257781 C86.2741084,8.74950297 84.3143429,7.0985356 82.6560794,5.52261219 C80.9978161,3.9466888 77.5305383,3.12120513 77.5305383,3.12120513 C81.2239431,5.22243632 83.0329575,8.52437105 83.0329575,8.52437105 C81.1485674,6.72331575 79.6410553,6.87340369 79.6410553,6.87340369 C80.7716893,7.69888737 81.2993185,8.59941501 82.354577,10.2503824 C83.4098355,11.9013497 83.3344598,15.8036362 83.3344598,15.8036362 C82.8068306,14.5278887 81.7515721,14.0025809 81.7515721,14.0025809 C81.7515721,14.0025809 81.977699,16.2539001 82.1284501,17.5296476 C82.2792013,18.8053951 81.6008209,21.2068022 81.6008209,21.2068022 C81.6008209,20.3062745 81.0731916,20.0811426 81.0731916,20.0811426 C81.0731916,20.0811426 81.2239431,20.6064504 80.4701869,23.0078575 C79.7164309,25.4092645 78.2842944,26.2347482 78.0581676,26.1597043 C77.8320407,26.0846603 78.0581676,25.7094404 78.0581676,25.7094404 C78.0581676,25.7094404 77.6812895,25.4092645 77.1536603,26.2347482 C76.7086427,26.9309311 75.9419221,27.3069014 75.7127803,27.4075354 C75.9585801,27.268629 76.0230262,26.760056 76.0230262,26.760056 C76.0230262,26.760056 75.495397,27.0602319 73.0833776,27.4354517 C70.6713583,27.8106716 69.5407242,26.760056 69.5407242,26.760056 C69.766851,26.5349241 70.8221095,26.760056 70.8221095,26.760056 C70.8221095,26.5349241 69.6160998,26.1597043 68.4100901,26.0096163 C67.4296043,25.8875948 66.9542103,25.4348545 66.7267268,25.0717918 C66.2745485,24.7692145 65.8952585,24.4363195 65.5806407,24.0840631 C65.2200438,23.6804015 64.9446967,23.2514502 64.7393736,22.8161952 C64.3284258,21.9448596 64.1972722,21.0518364 64.1971968,20.262824 C64.1973476,19.5177875 64.3137275,18.8626536 64.4300321,18.3900267 C64.5464874,17.9175499 64.6633196,17.6274299 64.6685959,17.6144473 L64.6685959,17.6144473 L64.6846509,17.620901 C64.8262063,17.1872219 65.1041161,16.8385676 65.4330553,16.6964344 C65.3298661,16.6263433 65.2240387,16.5611301 65.1146687,16.5036464 C64.622466,16.2415928 64.0645358,16.1327791 63.5161783,16.2233572 C62.9666147,16.310033 62.440493,16.5811668 61.9728627,16.9370253 C61.5241518,17.2778751 61.1670222,17.7631844 60.9327548,18.2988483 C60.6968291,18.8363132 60.5786402,19.4294607 60.5787155,20.0256101 C60.5781879,20.6222096 60.6960754,21.2215858 60.9133832,21.7860666 C61.1300881,22.3512978 61.4447059,22.8815585 61.8249758,23.3616147 C62.2053211,23.8424215 62.6506402,24.2739243 63.1337224,24.6588248 C62.6299119,24.3011653 62.1583621,23.8932262 61.7456807,23.4274283 C61.3332254,22.9623808 60.9802414,22.4383488 60.722683,21.8647877 C60.4647476,21.2922022 60.3041976,20.6700126 60.269148,20.0343152 C60.233646,19.3992931 60.3232676,18.7516636 60.5497713,18.1454584 C60.7767273,17.5403789 61.1374749,16.974097 61.6509335,16.5355401 C61.8989947,16.3287189 62.1689901,16.1408088 62.4621258,15.9853177 C62.7548846,15.8297515 63.0731204,15.7084054 63.4080896,15.6401154 C63.7426066,15.5716753 64.0931031,15.5586927 64.4348561,15.6061205 C64.776986,15.6524977 65.1084125,15.757184 65.4152666,15.902244 C65.7226483,16.047379 66.0064375,16.231687 66.2664079,16.4412848 C66.3963555,16.5462714 66.5205745,16.6575616 66.6390649,16.7754557 C66.6983855,16.8343652 66.7561233,16.8949257 66.8126549,16.9576624 C66.8596893,17.0103433 66.903181,17.0602475 66.9502154,17.1196073 C67.2187787,16.4264261 67.0304905,15.2677472 66.9863957,15.0245297 C66.8442373,14.8241623 66.6425322,14.5714142 66.4152748,14.2106028 C66.243946,13.9383433 66.0586728,13.6043226 65.8690278,13.1793486 C65.5723494,12.5149092 65.47014,11.8460423 65.4702154,11.2418633 C65.4704416,10.5363749 65.6081528,9.91628661 65.7451856,9.46887448 C65.7875467,9.33094366 65.8298324,9.20944745 65.8683494,9.10686236 C66.2942969,7.2622065 68.3344884,5.44756823 68.3344884,5.44756823 C65.4702154,5.07234838 63.5104497,7.69888737 63.5104497,7.69888737 C63.5025353,7.69400951 63.4943947,7.68965694 63.4864049,7.68485415 C63.2832676,7.90901049 62.5947115,8.71078028 62.5305669,9.34985474 C62.5305669,9.34985474 62.5543855,8.20138179 62.842848,7.3984113 C61.7499771,7.05170817 60.4636924,7.2328643 59.8040051,7.36899406 L59.8083015,7.39285804 C59.1323331,7.5136038 58.5149315,7.77258054 57.9664232,8.09857156 C57.4181411,8.42433743 56.9398829,8.81681739 56.5468745,9.19699017 C55.7617622,9.9556847 55.3185536,10.6643249 55.3139557,10.6722045 L55.3139557,10.6722045 L55.3140311,10.6725047 L55.2927751,10.6594471 C53.9054871,12.66117 53.0334668,16.9294459 53.0334668,16.9294459 C53.184218,16.2540502 53.8625984,15.4285665 53.8625984,15.4285665 C53.1088424,16.554226 53.2595936,21.73226 53.2595936,21.73226 C53.2595936,20.9067764 53.7118472,19.9312047 53.7118472,19.9312047 C53.8625984,21.6572161 54.6163545,27.2104699 59.5157688,31.4129324 C64.4151831,35.6153947 68.5608413,35.9906146 68.5608413,35.9906146 C67.5809585,35.6904387 67.3548317,35.2401747 67.3548317,35.2401747 C70.5206071,36.5159224 72.4803728,36.2907904 72.4803728,36.2907904 C71.9527436,35.9906146 71.877368,35.7654826 71.877368,35.7654826 C75.2692702,35.9155705 79.7918065,34.7148669 80.8470649,33.9644274 C81.9023235,33.2139876 82.8068306,31.7131082 82.8068306,31.7131082 C85.5203525,30.4373606 87.4047426,27.8108217 87.9323719,26.4600302 C88.4600011,25.1092387 87.9323719,23.6834033 87.9323719,23.6834033 C87.9323719,23.6834033 87.9323719,23.6083593 89.213757,20.7566884 C90.4951424,17.9050175 89.213757,13.852493 89.213757,13.852493 L89.213757,13.852493 L89.213757,13.852493 Z M57.5658773,7.46279903 C57.8838116,7.27286273 58.2269967,7.10138728 58.5930206,6.95985434 C57.1418141,5.75652425 57.2545006,4.17189576 57.2545006,4.17189576 C55.802465,5.56771363 55.4481243,7.92349396 55.3738039,9.34812872 C55.3943061,9.32418969 55.4147329,9.30025067 55.4361395,9.27578633 C55.9273624,8.71325672 56.6443351,8.01377186 57.5658773,7.46279903 L57.5658773,7.46279903 L57.5658773,7.46279903 Z"></path>
                    </g>
                </g>
            </g>
        </g>
    </g>
</svg>