<?xml version="1.0" encoding="UTF-8" standalone="no"?>
<svg width="36px" height="36px" viewBox="0 0 36 36" version="1.1" xmlns="http://www.w3.org/2000/svg" xmlns:xlink="http://www.w3.org/1999/xlink" xmlns:sketch="http://www.bohemiancoding.com/sketch/ns">
    <!-- Generator: Sketch 3.4.3 (16618) - http://www.bohemiancoding.com/sketch -->
    <title>Oval</title>
    <desc>Created with Sketch.</desc>
    <defs>
        <linearGradient x1="0%" y1="0%" x2="101.999998%" y2="100.999999%" id="linearGradient-1">
            <stop stop-color="#9C9C9C" offset="0%"></stop>
            <stop stop-color="#4C4C4C" offset="100%"></stop>
        </linearGradient>
    </defs>
    <g id="Welcome" stroke="none" stroke-width="1" fill="none" fill-rule="evenodd" sketch:type="MSPage">
        <g id="VirgilSecurity---Apps" sketch:type="MSArtboardGroup" transform="translate(-1023.000000, -675.000000)" fill="url(#linearGradient-1)">
            <g id="V-Mail" sketch:type="MSLayerGroup" transform="translate(920.000000, 235.000000)">
                <g id="apple" transform="translate(103.000000, 440.000000)" sketch:type="MSShapeGroup">
                    <path d="M18.0453488,35.8257993 C27.9094113,35.8257993 35.905814,27.8293967 35.905814,17.9653342 C35.905814,8.10127172 27.9094113,0.104869116 18.0453488,0.104869116 C8.18128633,0.104869116 0.184883721,8.10127172 0.184883721,17.9653342 C0.184883721,27.8293967 8.18128633,35.8257993 18.0453488,35.8257993 L18.0453488,35.8257993 Z M19.1526977,10.8211482 C18.8312093,10.928311 18.4025581,10.9997528 17.7953023,11.0354738 C17.8310233,9.74952028 18.1525116,8.64217144 18.7954884,7.71342726 C19.4384651,6.78468307 20.510093,6.14170633 22.0103721,5.82021795 C22.0103721,5.85593888 22.046093,5.89165981 22.046093,5.96310167 C22.046093,6.03454353 22.081814,6.07026447 22.081814,6.1059854 L22.081814,6.24886912 L22.081814,6.39175284 C22.081814,6.92756679 21.9746512,7.49910167 21.7246047,8.14207842 C21.4745581,8.78505516 21.0816279,9.39231098 20.545814,9.92812493 C20.0814419,10.3567761 19.6170698,10.6782645 19.1526977,10.8211482 L19.1526977,10.8211482 Z M24.9394884,19.8585435 C24.3322326,19.0012412 24.0464651,18.0367761 24.0464651,17.0008691 C24.0464651,16.036404 24.3322326,15.1433807 24.8680465,14.3217993 C25.153814,13.8931482 25.653907,13.3930552 26.3326047,12.7857993 C25.8682326,12.2499854 25.4395814,11.8213342 24.9752093,11.4998459 C24.1536279,10.928311 23.2606047,10.6782645 22.2246977,10.6782645 C21.6174419,10.6782645 20.8673023,10.8211482 20.01,11.1069156 C19.1526977,11.3926831 18.5454419,11.5355668 18.1525116,11.5355668 C17.8667442,11.5355668 17.2594884,11.3926831 16.3664651,11.1426366 C15.4734419,10.89259 14.6875814,10.7497063 14.0803256,10.7497063 C12.6157674,10.7497063 11.4012558,11.3569621 10.4367907,12.6071947 C9.47232558,13.8574273 8.97223256,15.4648691 8.97223256,17.4295203 C8.97223256,19.5013342 9.6152093,21.680311 10.8654419,23.8950087 C12.1513953,26.1097063 13.4373488,27.2170552 14.7590233,27.2170552 C15.1876744,27.2170552 15.7592093,27.0741714 16.4736279,26.788404 C17.1523256,26.5026366 17.7953023,26.3597528 18.2953953,26.3597528 C18.8669302,26.3597528 19.509907,26.5026366 20.2243256,26.788404 C21.010186,27.0741714 21.6174419,27.2170552 22.0103721,27.2170552 C23.1177209,27.2170552 24.2250698,26.3597528 25.3324186,24.6808691 C26.0468372,23.6092412 26.5826512,22.5376133 26.9041395,21.4659854 C26.2254419,21.2516598 25.5467442,20.6801249 24.9394884,19.8585435 L24.9394884,19.8585435 Z" id="Oval"></path>
                </g>
            </g>
        </g>
    </g>
</svg>