<?xml version="1.0" encoding="UTF-8" standalone="no"?>
<svg width="184px" height="194px" viewBox="0 0 184 194" version="1.1" xmlns="http://www.w3.org/2000/svg" xmlns:xlink="http://www.w3.org/1999/xlink" xmlns:sketch="http://www.bohemiancoding.com/sketch/ns">
    <!-- Generator: Sketch 3.5.1 (25234) - http://www.bohemiancoding.com/sketch -->
    <title>Group 3</title>
    <desc>Created with Sketch.</desc>
    <defs></defs>
    <g id="Page-1" stroke="none" stroke-width="1" fill="none" fill-rule="evenodd" sketch:type="MSPage">
        <g id="VirgilSecurity---Coming-Soon" sketch:type="MSArtboardGroup" transform="translate(-627.000000, -161.000000)" stroke="#2C302E">
            <g id="Group-4" sketch:type="MSLayerGroup" transform="translate(431.000000, 151.000000)">
                <g id="Group-3" transform="translate(197.000000, 0.000000)" sketch:type="MSShapeGroup">
                    <g id="noun_17492_cc" transform="translate(0.000000, 123.000000)" stroke-width="3">
                        <g id="Group">
                            <g id="Shape">
                                <path d="M61.2946593,60.0038 L48.955022,68.3504 C47.7692418,69.7454 47.8731319,70.8812 47.8731319,70.8812 L47.8731319,79.4978 L66.5411099,79.4978 L69.4142088,76.454 L118.09389,76.454 L120.966989,79.4978 L139.638549,79.4978 L139.638549,70.8812 C139.638549,70.8812 139.74244,69.7454 138.554868,68.3504 L126.217022,60.0038 L61.2946593,60.0038 Z" fill="#888888"></path>
                                <path d="M115.170637,47.241 C115.170637,46.8288 115.172429,46.4112 115.176011,45.999 C115.840549,38.8224 122.564747,35.4996 130.11111,35.4564 L130.11111,0.8694 L48.963978,0.8694 L48.963978,37.8486 L55.681011,37.8504 C63.6966703,37.8504 70.8310549,41.5314 70.8310549,49.5828 C70.8310549,53.9622 68.4254615,57.7692 64.8734945,59.7618 L121.626154,59.7618 C117.72311,56.9826 115.170637,52.4124 115.170637,47.241 L115.170637,47.241 Z" fill="#A6A9A8"></path>
                                <path d="M48.7298352,5.6718 L37.901978,5.67 L37.901978,8.3232 L18.7700769,8.3232 C18.7700769,8.3232 2.50052747,8.2602 2.43067033,8.2602 C1.57447253,8.2602 0.883065934,8.955 0.883065934,9.8136 C0.883065934,10.134 0.979791209,10.4328 1.14637363,10.6812 C1.14637363,10.6812 8.81991209,33.3414 48.7262527,33.9732 L48.7262527,5.6718 L48.7298352,5.6718 Z" fill="#888888"></path>
                                <path d="M134.213758,0.81 L129.345253,0.81 L129.345253,35.4546 L132.739593,35.4546 L148.290868,22.0914 L158.455978,22.0914 L158.455978,11.4498 L134.213758,0.81 Z" fill="#888888"></path>
                            </g>
                        </g>
                    </g>
                    <g id="noun_192669_cc" transform="translate(118.001798, 74.001147) rotate(-22.000000) translate(-118.001798, -74.001147) translate(70.001798, 14.001147)">
                        <g id="Group" transform="translate(-0.000000, 30.000000)" stroke-width="3">
                            <g id="Group-2">
                                <path d="M36.3,25.1 L54.1,7.3 L46.9,0 L26.5,5.9 L0,32.4 L14.5,46.9 L28.4,33 L36.3,25.1 Z" id="Shape" fill="#424B54"></path>
                                <path d="M37.9,24 L30,31.9 L81.7,86.4 C84.7,89.6 89.7,89.7 92.8,86.6 C95.9,83.5 95.8,78.5 92.6,75.5 L37.9,24 Z" id="Shape-Copy" fill="#D8D8D8"></path>
                            </g>
                        </g>
                        <g id="Group-5" transform="translate(39.000000, 0.000000)" stroke-linecap="square">
                            <path d="M1.23902373,21.8107463 L21.3946672,1.6551019" id="Line" stroke-width="2"></path>
                            <path d="M14.7799779,18.9150844 L32.9522592,0.742802888" id="Line"></path>
                            <path d="M21.7799779,21.9150844 L32.3297197,11.3653424" id="Line" stroke-width="2"></path>
                        </g>
                    </g>
                </g>
            </g>
        </g>
    </g>
</svg>