<?xml version="1.0" encoding="UTF-8" standalone="no"?>
<svg width="36px" height="36px" viewBox="0 0 36 36" version="1.1" xmlns="http://www.w3.org/2000/svg" xmlns:xlink="http://www.w3.org/1999/xlink" xmlns:sketch="http://www.bohemiancoding.com/sketch/ns">
    <!-- Generator: Sketch 3.3.3 (12081) - http://www.bohemiancoding.com/sketch -->
    <title>Fill 183 + Path Copy</title>
    <desc>Created with Sketch.</desc>
    <defs></defs>
    <g id="Welcome" stroke="none" stroke-width="1" fill="none" fill-rule="evenodd" sketch:type="MSPage">
        <g id="VirgilSecurity-Landing-Page-New" sketch:type="MSArtboardGroup" transform="translate(-982.000000, -3664.000000)" fill="#FFFFFF">
            <g id="Group" sketch:type="MSLayerGroup" transform="translate(2.000000, 3403.000000)">
                <g id="Fill-183-+-Path-Copy" transform="translate(980.000000, 261.000000)" sketch:type="MSShapeGroup">
                    <path d="M17.5135135,0 C7.84118919,0 0,7.84118919 0,17.5135135 C0,27.1858378 7.84118919,35.027027 17.5135135,35.027027 C27.1858378,35.027027 35.027027,27.1858378 35.027027,17.5135135 C35.027027,7.84118919 27.1858378,0 17.5135135,0 L17.5135135,0 Z M21.5552432,12.3139459 L20.0899459,12.3149189 C18.9408649,12.3149189 18.7180541,12.8607568 18.7180541,13.6615135 L18.7180541,15.4284324 L21.4589189,15.4284324 L21.1018378,18.1965405 L18.7180541,18.1965405 L18.7180541,25.2972973 L15.8604324,25.2972973 L15.8604324,18.1965405 L13.4708108,18.1965405 L13.4708108,15.4284324 L15.8604324,15.4284324 L15.8604324,13.3881081 C15.8604324,11.0189189 17.3072432,9.72972973 19.4195676,9.72972973 C20.4314595,9.72972973 21.3012973,9.80464865 21.5552432,9.8387027 L21.5552432,12.3139459 L21.5552432,12.3139459 Z" id="Imported-Layers"></path>
                </g>
            </g>
        </g>
    </g>
</svg>