<?xml version="1.0" encoding="UTF-8" standalone="no"?>
<svg width="72px" height="93px" viewBox="0 0 72 93" version="1.1" xmlns="http://www.w3.org/2000/svg" xmlns:xlink="http://www.w3.org/1999/xlink" xmlns:sketch="http://www.bohemiancoding.com/sketch/ns">
    <!-- Generator: Sketch 3.5.2 (25235) - http://www.bohemiancoding.com/sketch -->
    <title>Group 14</title>
    <desc>Created with Sketch.</desc>
    <defs>
        <path id="path-1" d="M2.88,9.0432691 L2.88,57.0979489 C2.88,60.7964607 4.53243672,64.7908906 7.8003015,68.9754873 C10.6971545,72.676782 14.7986393,76.4671305 19.9891041,80.2426367 C26.4693206,84.9392921 33.0753667,88.4374331 36.2821671,90.0301958 C39.4945189,88.4374331 46.100565,84.9402198 52.5789311,80.2426367 C57.7730967,76.4680581 61.8671798,72.6777097 64.7621824,68.9754873 C68.0328228,64.7862524 69.6908108,60.7973884 69.6908108,57.0979489 L69.6908108,9.0432691 L36.2821671,2.88372093 L2.88,9.0432691 L2.88,9.0432691 Z"></path>
    </defs>
    <g id="Page-1" stroke="none" stroke-width="1" fill="none" fill-rule="evenodd" sketch:type="MSPage">
        <g id="Group-14" sketch:type="MSLayerGroup">
            <path d="M0,8.8224579 L0,8.8224579 L0,6.65588334 L2.12526037,6.26397334 L35.5274275,0.104425166 L35.9967163,0.0178856747 L36.466008,0.104408938 L69.8746516,6.26395711 L72,6.65580737 L72,8.8224579 L72,56.8771377 C72,61.2212469 70.1227194,65.7434003 66.5186397,70.3597231 C63.4573016,74.2746609 59.1856917,78.2261529 53.8140173,82.1297246 C48.3568574,86.0868122 42.4649548,89.5044097 37.1469067,92.1412281 L35.9957664,92.7119917 L34.8450178,92.1404346 C29.5162995,89.4937519 23.6384843,86.0835366 18.1800811,82.1274543 C12.8054561,78.2179913 8.53139067,74.2673716 5.47200308,70.3584047 C1.87557774,65.7530766 0,61.2238973 0,56.8771377 L0,8.8224579 Z" id="Shape" fill="#9E0B0F" sketch:type="MSShapeGroup"></path>
            <mask id="mask-2" sketch:name="Mask" fill="white">
                <use xlink:href="#path-1"></use>
            </mask>
            <use id="Mask" fill="#BB241D" sketch:type="MSShapeGroup" xlink:href="#path-1"></use>
            <rect id="Rectangle-217" fill="#DA322C" sketch:type="MSShapeGroup" mask="url(#mask-2)" x="-26.5945946" y="-18.8601399" width="62.9189189" height="124.216783"></rect>
            <g id="Group" mask="url(#mask-2)" stroke="#2C302E" stroke-width="1.3" fill="#FFFFFF" sketch:type="MSShapeGroup">
                <g transform="translate(21.000000, 37.000000)" id="Shape">
                    <path d="M2.18626075,11.2886161 L2.09656729,11.2886161 C0.946771999,11.2886161 0.00928819444,12.2184886 0.00928819444,13.3523875 L0.00928819444,22.3377051 C0.00928819444,23.4760587 0.946771999,24.4029157 2.09656729,24.4029157 L2.18778568,24.4029157 C3.33758098,24.4029157 4.27506478,23.4730432 4.27506478,22.3377051 L4.27506478,13.3523189 C4.27353985,12.2184886 3.33460044,11.2886161 2.18626075,11.2886161 L2.18626075,11.2886161 Z"></path>
                    <path d="M27.7866734,11.2886161 L27.6999605,11.2886161 C26.5501652,11.2886161 25.6097008,12.2184886 25.6097008,13.3523875 L25.6097008,22.3377051 C25.6097008,23.4760587 26.5516901,24.4029157 27.6999605,24.4029157 L27.7881983,24.4029157 C28.9394492,24.4029157 29.8754774,23.4730432 29.8754774,22.3377051 L29.8754774,13.3523189 C29.8754774,12.2184886 28.9364687,11.2886161 27.7866734,11.2886161 L27.7866734,11.2886161 Z"></path>
                    <path d="M5.27382294,25.8058799 C5.27382294,26.8495878 6.13651599,27.6996178 7.19211235,27.6996178 L9.24203073,27.6996178 L9.24203073,32.5530066 C9.24203073,33.6927994 10.1824951,34.6197249 11.3293098,34.6197249 L11.4190033,34.6197249 C12.5703235,34.6197249 13.5092629,33.6913602 13.5092629,32.5530066 L13.5092629,27.6996178 L16.3740471,27.6996178 L16.3740471,32.5530066 C16.3740471,33.6927994 17.317492,34.6197249 18.4643067,34.6197249 L18.5525446,34.6197249 C19.7037955,34.6197249 20.6412793,33.6913602 20.6412793,32.5530066 L20.6412793,27.6996178 L22.6926533,27.6996178 C23.7467247,27.6996178 24.6094871,26.8495878 24.6094871,25.8058799 L24.6094871,11.6182658 L5.27382294,11.6182658 L5.27382294,25.8058799 L5.27382294,25.8058799 Z"></path>
                    <path d="M19.7575838,3.01434115 L21.3858598,0.529289878 C21.4905252,0.372552088 21.4441536,0.158245543 21.2841748,0.0561980707 C21.125721,-0.0472886205 20.908904,-0.00438619088 20.8056942,0.15673779 L19.1176688,2.72759392 C17.8512859,2.21461519 16.4368464,1.92636021 14.9431106,1.92636021 C13.4479193,1.92636021 12.0364603,2.21461519 10.7670968,2.72759392 L9.08205198,0.15673779 C8.97891143,-0.00438619088 8.76056955,-0.0472886205 8.6005908,0.0561980707 C8.44061204,0.158177009 8.39424039,0.372552088 8.49890586,0.529289878 L10.1286374,3.01434115 C7.19058743,4.43800276 5.20949873,7.1211865 5.20949873,10.1990589 C5.20949873,10.3882819 5.22149021,10.5745579 5.23791783,10.7593262 L24.649759,10.7593262 C24.6661866,10.5745579 24.6766532,10.3882819 24.6766532,10.1990589 C24.6767225,7.1211865 22.6941089,4.43800276 19.7575838,3.01434115 L19.7575838,3.01434115 Z M10.4426338,7.4641318 C9.92679247,7.4641318 9.50813057,7.05313201 9.50813057,6.54166103 C9.50813057,6.03019006 9.92679247,5.62062948 10.4426338,5.62062948 C10.9614557,5.62062948 11.3771371,6.03012152 11.3771371,6.54166103 C11.3771371,7.05320054 10.9584752,7.4641318 10.4426338,7.4641318 L10.4426338,7.4641318 Z M19.4421318,7.4641318 C18.9262904,7.4641318 18.5076285,7.05313201 18.5076285,6.54166103 C18.5076285,6.03019006 18.9262904,5.62062948 19.4421318,5.62062948 C19.9594288,5.62062948 20.3751101,6.03012152 20.3751101,6.54166103 C20.3751101,7.05313201 19.9594288,7.4641318 19.4421318,7.4641318 L19.4421318,7.4641318 Z"></path>
                </g>
            </g>
            <path d="M22.6279297,16.8310547 L25.0766602,16.8310547 L25.0766602,24.5341797 C25.0766602,25.5413462 24.9881194,26.316078 24.8110352,26.8583984 C24.5730782,27.5667353 24.1414419,28.1353331 23.5161133,28.564209 C22.8907846,28.9930848 22.0662486,29.2075195 21.0424805,29.2075195 C19.8416281,29.2075195 18.9174837,28.8713413 18.2700195,28.1989746 C17.6225554,27.526608 17.2960612,26.5402083 17.2905273,25.2397461 L19.6064453,24.9741211 C19.6341147,25.6713902 19.73649,26.1638983 19.9135742,26.4516602 C20.1792005,26.8888368 20.5831679,27.1074219 21.1254883,27.1074219 C21.6733426,27.1074219 22.0607085,26.9510921 22.2875977,26.6384277 C22.5144868,26.3257634 22.6279297,25.6769255 22.6279297,24.6918945 L22.6279297,16.8310547 Z M29.4179688,22.8740234 L27.3012695,22.4921875 C27.5392265,21.6399697 27.9487276,21.0091166 28.5297852,20.5996094 C29.1108427,20.1901021 29.9741154,19.9853516 31.1196289,19.9853516 C32.1599987,19.9853516 32.9347305,20.1084786 33.4438477,20.3547363 C33.9529648,20.6009941 34.3112783,20.9136537 34.5187988,21.2927246 C34.7263194,21.6717955 34.8300781,22.3676707 34.8300781,23.3803711 L34.8051758,26.1030273 C34.8051758,26.8777708 34.8425289,27.4491355 34.9172363,27.8171387 C34.9919437,28.1851418 35.1316722,28.579425 35.3364258,29 L33.0288086,29 C32.9679359,28.8450513 32.8932296,28.6153987 32.8046875,28.3110352 C32.7659503,28.1726881 32.7382813,28.0813804 32.7216797,28.0371094 C32.3232402,28.4244811 31.8971377,28.7150055 31.4433594,28.9086914 C30.9895811,29.1023773 30.5053737,29.1992188 29.9907227,29.1992188 C29.083166,29.1992188 28.3679225,28.9529647 27.8449707,28.4604492 C27.3220189,27.9679337 27.0605469,27.3453814 27.0605469,26.5927734 C27.0605469,26.0947241 27.1795235,25.6506367 27.4174805,25.260498 C27.6554374,24.8703594 27.9888488,24.5715342 28.4177246,24.3640137 C28.8466005,24.1564931 29.4650025,23.9752612 30.2729492,23.8203125 C31.3631239,23.6155589 32.1184875,23.4246428 32.5390625,23.2475586 L32.5390625,23.0151367 C32.5390625,22.5668923 32.4283865,22.2473154 32.2070312,22.0563965 C31.985676,21.8654776 31.5678742,21.7700195 30.9536133,21.7700195 C30.5385721,21.7700195 30.2148449,21.8516431 29.9824219,22.0148926 C29.7499988,22.1781421 29.5618497,22.4645162 29.4179688,22.8740234 L29.4179688,22.8740234 Z M32.5390625,24.7666016 C32.2402329,24.8662114 31.7670931,24.9851881 31.1196289,25.1235352 C30.4721647,25.2618822 30.0488291,25.3974603 29.8496094,25.5302734 C29.5452459,25.7460948 29.3930664,26.0200179 29.3930664,26.3520508 C29.3930664,26.6785498 29.51481,26.9607735 29.7583008,27.1987305 C30.0017916,27.4366874 30.3116843,27.5556641 30.6879883,27.5556641 C31.1085633,27.5556641 31.5097637,27.4173191 31.8916016,27.140625 C32.1738295,26.9303375 32.3592118,26.6730158 32.4477539,26.3686523 C32.5086266,26.1694326 32.5390625,25.7903674 32.5390625,25.2314453 L32.5390625,24.7666016 Z M39.5532227,29 L36.0004883,20.1845703 L38.4492188,20.1845703 L40.109375,24.6835938 L40.5908203,26.1860352 C40.7180996,25.8041973 40.7983397,25.5524095 40.831543,25.4306641 C40.9090173,25.1816394 40.9920243,24.9326184 41.0805664,24.6835938 L42.7573242,20.1845703 L45.15625,20.1845703 L41.6533203,29 L39.5532227,29 Z M48.3271484,22.8740234 L46.2104492,22.4921875 C46.4484061,21.6399697 46.8579073,21.0091166 47.4389648,20.5996094 C48.0200224,20.1901021 48.8832951,19.9853516 50.0288086,19.9853516 C51.0691784,19.9853516 51.8439102,20.1084786 52.3530273,20.3547363 C52.8621445,20.6009941 53.2204579,20.9136537 53.4279785,21.2927246 C53.6354991,21.6717955 53.7392578,22.3676707 53.7392578,23.3803711 L53.7143555,26.1030273 C53.7143555,26.8777708 53.7517086,27.4491355 53.826416,27.8171387 C53.9011234,28.1851418 54.0408518,28.579425 54.2456055,29 L51.9379883,29 C51.8771156,28.8450513 51.8024093,28.6153987 51.7138672,28.3110352 C51.67513,28.1726881 51.647461,28.0813804 51.6308594,28.0371094 C51.2324199,28.4244811 50.8063174,28.7150055 50.3525391,28.9086914 C49.8987608,29.1023773 49.4145534,29.1992188 48.8999023,29.1992188 C47.9923457,29.1992188 47.2771022,28.9529647 46.7541504,28.4604492 C46.2311986,27.9679337 45.9697266,27.3453814 45.9697266,26.5927734 C45.9697266,26.0947241 46.0887032,25.6506367 46.3266602,25.260498 C46.5646171,24.8703594 46.8980285,24.5715342 47.3269043,24.3640137 C47.7557801,24.1564931 48.3741822,23.9752612 49.1821289,23.8203125 C50.2723036,23.6155589 51.0276672,23.4246428 51.4482422,23.2475586 L51.4482422,23.0151367 C51.4482422,22.5668923 51.3375662,22.2473154 51.1162109,22.0563965 C50.8948557,21.8654776 50.4770539,21.7700195 49.862793,21.7700195 C49.4477518,21.7700195 49.1240246,21.8516431 48.8916016,22.0148926 C48.6591785,22.1781421 48.4710294,22.4645162 48.3271484,22.8740234 L48.3271484,22.8740234 Z M51.4482422,24.7666016 C51.1494126,24.8662114 50.6762728,24.9851881 50.0288086,25.1235352 C49.3813444,25.2618822 48.9580088,25.3974603 48.7587891,25.5302734 C48.4544256,25.7460948 48.3022461,26.0200179 48.3022461,26.3520508 C48.3022461,26.6785498 48.4239897,26.9607735 48.6674805,27.1987305 C48.9109713,27.4366874 49.220864,27.5556641 49.597168,27.5556641 C50.017743,27.5556641 50.4189434,27.4173191 50.8007812,27.140625 C51.0830092,26.9303375 51.2683915,26.6730158 51.3569336,26.3686523 C51.4178063,26.1694326 51.4482422,25.7903674 51.4482422,25.2314453 L51.4482422,24.7666016 Z" id="Java" stroke="#2C302E" fill="#FFFFFF" sketch:type="MSShapeGroup"></path>
        </g>
    </g>
</svg>