<?xml version="1.0" encoding="UTF-8" standalone="no"?>
<svg width="72px" height="93px" viewBox="0 0 72 93" version="1.1" xmlns="http://www.w3.org/2000/svg" xmlns:xlink="http://www.w3.org/1999/xlink" xmlns:sketch="http://www.bohemiancoding.com/sketch/ns">
    <!-- Generator: Sketch 3.5.1 (25234) - http://www.bohemiancoding.com/sketch -->
    <title>Path + Rectangle 217 Copy</title>
    <desc>Created with Sketch.</desc>
    <defs>
        <path id="path-1" d="M2.88,9.0432691 L2.88,57.0979489 C2.88,60.7964607 4.53243672,64.7908906 7.8003015,68.9754873 C10.6971545,72.676782 14.7986393,76.4671305 19.9891041,80.2426367 C26.4693206,84.9392921 33.0753667,88.4374331 36.2821671,90.0301958 C39.4945189,88.4374331 46.100565,84.9402198 52.5789311,80.2426367 C57.7730967,76.4680581 61.8671798,72.6777097 64.7621824,68.9754873 C68.0328228,64.7862524 69.6908108,60.7973884 69.6908108,57.0979489 L69.6908108,9.0432691 L36.2821671,2.88372093 L2.88,9.0432691 L2.88,9.0432691 Z"></path>
    </defs>
    <g id="Page-1" stroke="none" stroke-width="1" fill="none" fill-rule="evenodd" sketch:type="MSPage">
        <g id="PHP-Copy-6" sketch:type="MSLayerGroup" transform="translate(-35.000000, 0.000000)">
            <g id="Path-+-Rectangle-217-Copy" transform="translate(35.000000, 0.000000)">
                <path d="M0,8.8224579 L0,8.8224579 L0,6.65588334 L2.12526037,6.26397334 L35.5274275,0.104425166 L35.9967163,0.0178856747 L36.466008,0.104408938 L69.8746516,6.26395711 L72,6.65580737 L72,8.8224579 L72,56.8771377 C72,61.2212469 70.1227194,65.7434003 66.5186397,70.3597231 C63.4573016,74.2746609 59.1856917,78.2261529 53.8140173,82.1297246 C48.3568574,86.0868122 42.4649548,89.5044097 37.1469067,92.1412281 L35.9957664,92.7119917 L34.8450178,92.1404346 C29.5162995,89.4937519 23.6384843,86.0835366 18.1800811,82.1274543 C12.8054561,78.2179913 8.53139067,74.2673716 5.47200308,70.3584047 C1.87557774,65.7530766 0,61.2238973 0,56.8771377 L0,8.8224579 Z" id="Shape" fill="#9E0B0F" sketch:type="MSShapeGroup"></path>
                <mask id="mask-2" sketch:name="Mask" fill="white">
                    <use xlink:href="#path-1"></use>
                </mask>
                <use id="Mask" fill="#BB241D" sketch:type="MSShapeGroup" xlink:href="#path-1"></use>
                <rect id="Rectangle-217" fill="#DA322C" sketch:type="MSShapeGroup" mask="url(#mask-2)" x="-26.5945946" y="-18.8601399" width="62.9189189" height="124.216783"></rect>
                <path d="M50.48449,48.0624789 C50.48449,44.252708 47.9165785,43.2381176 42.5103632,42.5217058 C37.047857,41.7968119 36.4924306,41.423273 36.4924306,40.1405175 C36.4924306,39.0815591 36.9629324,37.6683097 41.0087272,37.6683097 C44.6227406,37.6683097 45.9545275,38.4489897 46.5024701,40.8918364 C46.5506265,41.1215058 46.7595215,41.289843 46.9963993,41.289843 L49.2792766,41.289843 C49.421143,41.289843 49.5555256,41.2285108 49.6515132,41.127378 C49.7478261,41.019068 49.7992364,40.880092 49.7858958,40.7349174 C49.4325313,36.5274663 46.6443364,34.5667948 41.0087272,34.5667948 C35.9929699,34.5667948 33.0017368,36.6886263 33.0017368,40.2475225 C33.0017368,44.108186 35.9783277,45.1739953 40.7916977,45.6516032 C46.5506265,46.216642 46.9977009,47.0606116 46.9977009,48.1968876 C46.9977009,50.168325 45.4202509,51.0090322 41.7141545,51.0090322 C37.0592454,51.0090322 36.0352695,49.8371966 35.6919919,47.5157092 C35.6529461,47.266792 35.4407973,47.0841005 35.1866743,47.0841005 L32.9122569,47.0841005 C32.6304764,47.0841005 32.4040109,47.3095288 32.4040109,47.5920482 C32.4040109,50.5633954 34.016602,54.1063061 41.7141545,54.1063061 C47.2882666,54.1063061 50.48449,51.9048732 50.48449,48.0624789 L50.48449,48.0624789 Z M36.2806072,68.1288595 C35.6379785,68.1288595 34.9982783,67.9605223 34.4360189,67.6339612 L28.5622303,64.1494465 C27.6859777,63.6574844 28.1141799,63.4836012 28.4031187,63.3824684 C29.5735163,62.9756535 29.8100688,62.8816978 31.0588833,62.1711583 C31.189036,62.0980817 31.3611628,62.1261379 31.4952201,62.2047605 L36.0072867,64.8913046 C36.171279,64.9819979 36.4019745,64.9819979 36.5523008,64.8913046 L54.1434061,54.7114718 C54.3067477,54.6175161 54.4118459,54.4282999 54.4118459,54.2338639 L54.4118459,33.8797441 C54.4118459,33.6804146 54.3067477,33.4944607 54.1391761,33.3933279 L36.5552293,23.2223034 C36.3931892,23.1270428 36.1771358,23.1270428 36.0134689,23.2223034 L18.4340774,33.3965903 C18.263252,33.4944607 18.1552253,33.6862868 18.1552253,33.8797441 L18.1552253,54.2338639 C18.1552253,54.4282999 18.263252,54.6129488 18.4327758,54.7049471 L23.2513519,57.4968651 C25.8661184,58.8073505 27.4669959,57.2639334 27.4669959,55.7126866 L27.4669959,35.6166186 C27.4669959,35.332468 27.694763,35.1083446 27.9781704,35.1083446 L30.2086612,35.1083446 C30.4875132,35.1083446 30.7182088,35.332468 30.7182088,35.6166186 L30.7182088,55.7126866 C30.7182088,59.2118818 28.8179803,61.2182262 25.5098256,61.2182262 C24.4930081,61.2182262 23.6925694,61.2182262 21.4578486,60.1139212 L16.8449137,57.4511922 C15.7054273,56.7908928 15,55.5557676 15,54.2338639 L15,33.8797441 C15,32.5571879 15.7054273,31.322389 16.8449137,30.6650257 L34.4360189,20.4734484 C35.548824,19.8421839 37.0286595,19.8421839 38.1330046,20.4734484 L55.7221576,30.6650257 C56.8619693,31.3256513 57.5699997,32.5571879 57.5699997,33.8797441 L57.5699997,54.2338639 C57.5699997,55.5557676 56.8619693,56.7863255 55.7221576,57.4511922 L38.1330046,67.6339612 C37.5707452,67.9605223 36.9323465,68.1288595 36.2806072,68.1288595 L36.2806072,68.1288595 Z" id="Fill-1" stroke="#2C302E" stroke-width="1.296" fill="#FFFFFF" sketch:type="MSShapeGroup" mask="url(#mask-2)"></path>
            </g>
        </g>
    </g>
</svg>