<svg xmlns="http://www.w3.org/2000/svg" xmlns:xlink="http://www.w3.org/1999/xlink" width="465" height="250" viewBox="0 0 465 250" version="1.1">
  <title>
    Group
  </title>
  <desc>
    Created with Sketch.
  </desc>
  <defs>
    <path id="path-1" d="M86.69 23.96L86.69 23.96 86.69 23.75C86.74 23.1 86.77 22.35 86.77 21.55 86.81 16.78 85.66 9.54 78.52 7.78 67.64 5.11 58.62 1.02 58.62 1.02 51.69 2.67 47.86 6.69 43.9 6.83 39.95 6.97 35.87 3.23 28.45 0.57 28.38 0.61 19.09 5.12 8.25 7.79 1.09 9.55-0.05 16.81 0 21.58 0 22.21 0.02 22.8 0.04 23.34 0.04 23.34 0.04 23.56 0.04 23.95 0.04 24.31 0.04 25.18 0.08 26.26 13.14 32.28 27.8 35.66 43.31 35.66 58.86 35.66 73.57 32.26 86.66 26.2 86.7 25.16 86.7 24.31 86.69 23.96L86.69 23.96Z"/>
    <path d="M73.42 47.83C73.42 55.39 57.45 61.53 37.76 61.53 18.06 61.53 2.1 55.39 2.1 47.83L2.1 2.52 73.42 2.52 73.42 47.83Z" id="path-3"/>
    <path d="M72.72 23.63C72.72 31.2 56.76 37.33 37.06 37.33 17.36 37.33 1.4 31.2 1.4 23.63L1.4 1.51 72.72 1.51 72.72 23.63Z" id="path-5"/>
    <path d="M0 14.12L0 2.53 16.65 2.53C22.15 1.2 28.67 0.42 35.66 0.42 42.65 0.42 49.17 1.2 54.68 2.53L71.32 2.53 71.32 14.12C71.32 21.69 55.36 27.82 35.66 27.82 15.97 27.82 0 21.69 0 14.12Z" id="path-7"/>
    <path id="path-9" d="M15.38 0.31L0.25 3.06 0.25 24.48C0.25 26.12 1 27.9 2.48 29.77 3.79 31.42 5.65 33.11 8 34.79 10.94 36.88 13.93 38.44 15.38 39.15 16.84 38.44 19.83 36.88 22.77 34.79 25.12 33.11 26.97 31.42 28.29 29.77 29.77 27.9 30.52 26.12 30.52 24.48L30.52 3.06 15.38 0.31 15.38 0.31Z"/>
    <path id="path-11" d="M15.38 0.31L0.25 3.06 0.25 24.48C0.25 26.12 1 27.9 2.48 29.77 3.79 31.42 5.65 33.11 8 34.79 10.94 36.88 13.93 38.44 15.38 39.15 16.84 38.44 19.83 36.88 22.77 34.79 25.12 33.11 26.97 31.42 28.29 29.77 29.77 27.9 30.52 26.12 30.52 24.48L30.52 3.06 15.38 0.31 15.38 0.31Z"/>
    <path id="path-13" d="M2.8 11.18L2.8 11.18 2.8 60.13C2.8 64.76 6.55 68.52 11.18 68.52L108.39 68.52C113.02 68.52 116.77 64.76 116.77 60.13L116.77 11.18C116.77 6.56 113.02 2.8 108.39 2.8L11.18 2.8C6.55 2.8 2.8 6.55 2.8 11.18L2.8 11.18Z"/>
    <path id="path-15" d="M15.38 0.31L0.25 3.06 0.25 24.48C0.25 26.12 1 27.9 2.48 29.77 3.79 31.42 5.65 33.11 8 34.79 10.94 36.88 13.93 38.44 15.38 39.15 16.84 38.44 19.83 36.88 22.77 34.79 25.12 33.11 26.97 31.42 28.29 29.77 29.77 27.9 30.52 26.12 30.52 24.48L30.52 3.06 15.38 0.31 15.38 0.31Z"/>
    <path id="path-17" d="M21.33 0.44L0.34 4.26 0.34 34.09C0.34 36.39 1.38 38.87 3.43 41.46 5.25 43.76 7.83 46.12 11.09 48.46 15.16 51.37 19.31 53.55 21.33 54.53 23.34 53.55 27.49 51.38 31.56 48.46 34.82 46.12 37.4 43.76 39.21 41.46 41.27 38.86 42.31 36.39 42.31 34.09L42.31 4.26 21.33 0.44 21.33 0.44Z"/>
  </defs>
  <g id="Page-1" stroke="none" stroke-width="1" fill="none" fill-rule="evenodd">
    <g id="VirgilSecurity-Landing-Page-revised" transform="translate(-486.000000, -1845.000000)">
      <g id="Group" transform="translate(238.000000, 1846.000000)">
        <g transform="translate(248.000000, 0.000000)">
          <g transform="translate(179.706767, 0.000000)">
            <g id="Shape-+-Rectangle-95" transform="translate(0.000000, 59.428969)">
              <path d="M92.99 26.76C92.99 27.45 92.98 28.22 92.95 29.1L92.88 30.82 91.33 31.54C77.57 37.9 62.44 41.25 46.8 41.25 31.22 41.25 16.12 37.92 2.4 31.59L0.84 30.87 0.78 29.16C0.74 28.24 0.73 27.42 0.74 26.76 0.74 26.55 0.74 26.37 0.74 26.22 0.74 26.12 0.7 26.54 0.7 26.54L0.74 26.25C0.71 25.55 0.7 24.96 0.7 24.41 0.66 21.08 1.14 17.95 2.36 15.21 4.02 11.5 6.91 8.89 11.07 7.87 15.68 6.73 20.36 5.17 24.85 3.39 26.43 2.76 27.87 2.15 29.15 1.58 29.59 1.38 29.98 1.2 30.32 1.05 30.52 0.95 30.66 0.89 30.72 0.86L31.78 0.34 32.89 0.74C34.46 1.3 35.97 1.94 37.54 2.68 38.93 3.33 42.99 5.44 43.7 5.77 45.35 6.55 46.43 6.86 47.3 6.83 48.25 6.73 49.06 6.46 50.19 5.92 50.88 5.59 53.64 4.13 54.14 3.88 56.69 2.59 58.92 1.7 61.47 1.1L62.4 0.88 63.27 1.27C63.3 1.28 63.37 1.31 63.47 1.36 63.65 1.44 63.86 1.53 64.1 1.63 64.81 1.93 65.62 2.27 66.53 2.63 69.13 3.67 71.99 4.71 75 5.68 77.57 6.5 80.14 7.24 82.69 7.87 86.84 8.89 89.73 11.49 91.39 15.19 92.61 17.92 93.09 21.05 93.06 24.33 93.06 25.15 93.04 25.96 92.98 26.74L92.99 26.54 92.99 26.76Z" id="Shape" fill="#2C302E"/>
              <g id="Path-+-Rectangle-95-+-Rectangle-95-Copy" transform="translate(3.496241, 2.796657)">
                <mask id="mask-2" fill="white">
                  <use xlink:href="#path-1"/>
                </mask>
                <use id="Mask" fill="#FFFFFF" xlink:href="#path-1"/>
                <path d="M73.42-17.13L46.51 39.43 79.85 39.43 79.85-18.09 73.42-17.13Z" id="Path-1269-Copy" fill="#E1E2E2" mask="url(#mask-2)"/>
                <path d="M89.07-17.13L62.16 39.43 95.5 39.43 95.5-18.09 89.07-17.13Z" id="Path-1269" fill="#D8D8D8" mask="url(#mask-2)"/>
              </g>
            </g>
            <path d="M30.02 33.33C30.02 33.33 29.96 33.2 29.93 33.13 28.62 30.34 25.98 24.77 25.98 24.77L27.75 13.45 32.48 7.97 39.04 2.46 44.73 1.16 51.25 0.93 58.7 4.41 62.67 6.87 68.28 11.55 70 22.05 69.21 26.66 67.37 31.01 65.94 31.56 64.2 31.33 65.04 24.98 66.12 18.83 65.37 16.38 63.98 15.74 57.21 16.59 51.69 19.14 46.94 19.74 39.39 17.68 34.39 14.5 32.97 13.87 29.76 19.57 29.43 23.54 29.66 26.72 30.85 30.03 30.02 33.33Z" id="Path-536" fill="#EBECEC"/>
            <path d="M33.53 54.93C30.76 51.3 29.48 46.95 28.91 43.22 27.89 43.14 26.54 41.69 25.1 36.52 23.24 29.89 24.98 28.57 26.67 28.57 26.78 28.57 26.89 28.57 27 28.58 25.69 24.87 25.67 21.22 26.54 17.84 27.46 13.86 29.59 10.68 31.97 8.21 33.92 5.52 35.61 5.03 41.88 1.48 43.27 1.01 44.75 0.7 46.32 0.63 46.97 0.57 47.61 0.54 48.22 0.54 52.13 0.54 55.18 1.64 57.46 3.01 58.9 3.81 60.01 4.71 60.84 5.52 61.18 5.85 62.88 8.1 62.88 8.1 62.88 8.1 63.9 8.18 65.14 8.97 65.63 9.28 66.15 9.7 66.66 10.28 68.89 12.79 70.84 18.19 68.45 29.78 69.78 30.25 70.72 32.1 69.17 37.61 67.68 42.93 66.3 44.31 65.27 44.31 64.99 44.31 64.74 44.2 64.51 44.05 63.9 47.52 62.66 51.41 60.2 54.73 51.13 61.38 46.32 65.27 33.53 54.93Z" id="Shape-Copy-2" stroke="#2C302E" stroke-width="2.8"/>
            <path d="M27.64 28.93L30.2 33.72 31.33 33.1C31.33 33.1 28.48 23.84 29.63 20.45 30.78 17.06 33.33 13.86 33.33 13.86 33.33 13.86 44.04 22.91 52.19 18.82 60.34 14.73 65.28 16.32 65.28 16.32 65.28 16.32 66.47 19.73 65.87 22.52 65.28 25.31 64.35 31.29 64.35 31.29L66.71 31.62 68.18 28.74" id="Path-535" stroke="#2C302E" stroke-width="1.4"/>
            <path d="M40.91 48.59C40.91 48.59 45.3 50.76 47.55 50.76 49.73 50.76 54.19 48.59 54.19 48.59" id="Line" stroke="#2C302E" stroke-width="1.4" stroke-linecap="square"/>
          </g>
          <g transform="translate(189.496241, 158.710306)">
            <g id="Group-Copy-2">
              <g id="Oval-120-Copy-+-Rectangle-95-Copy-3-+-Rectangle-95-Copy-2" transform="translate(0.000000, 15.381616)">
                <path d="M37.76 63.62L37.76 63.62C16.98 63.62 0 57.1 0 47.83 0 38.56 16.98 32.03 37.76 32.03 58.53 32.03 75.52 38.56 75.52 47.83 75.52 57.1 58.53 63.62 37.76 63.62L37.76 63.62ZM2.1 0.42L73.42 0.42 75.52 0.42 75.52 2.52 75.52 47.83 74.79 47.83 73.85 47.83 2.1 49.93 0 49.93 0 47.83 0 2.52 0 0.42 2.1 0.42Z" id="Shape" fill="#2C302E"/>
                <mask id="mask-4" fill="white">
                  <use xlink:href="#path-3"/>
                </mask>
                <use id="Mask" fill="#EDEEEE" xlink:href="#path-3"/>
                <path d="M64.33 17.83L37.42 74.39 70.76 74.39 70.76 16.87 64.33 17.83Z" id="Path-1269-Copy-7" fill="#E1E2E2" mask="url(#mask-4)"/>
                <path d="M79.98 17.83L53.07 74.39 86.41 74.39 86.41 16.87 79.98 17.83Z" id="Path-1269-Copy-6" fill="#D8D8D8" mask="url(#mask-4)"/>
              </g>
              <g id="Oval-120-Copy-3-+-Rectangle-95-Copy-5-+-Rectangle-95-Copy-4" transform="translate(0.699248, 23.771588)">
                <path d="M37.06 38.38L37.06 38.38C16.83 38.38 0.35 32.05 0.35 23.63 0.35 15.22 16.83 8.89 37.06 8.89 57.3 8.89 73.77 15.22 73.77 23.63 73.77 32.05 57.3 38.38 37.06 38.38L37.06 38.38ZM1.4 0.46L1.4 0.46 72.72 0.46 73.77 0.46 73.77 1.51 73.77 23.63 73.77 24.68 72.72 24.68 1.4 24.68 0.35 24.68 0.35 23.63 0.35 1.51 0.35 0.46 1.4 0.46Z" id="Shape" fill="#2C302E"/>
                <mask id="mask-6" fill="white">
                  <use xlink:href="#path-5"/>
                </mask>
                <use id="Mask" fill="#EDEEEE" xlink:href="#path-5"/>
                <path d="M67.82-15.73L40.91 40.83 74.25 40.83 74.25-16.69 67.82-15.73Z" id="Path-1269-Copy-5" fill="#E1E2E2" mask="url(#mask-6)"/>
                <path d="M83.48-15.73L56.57 40.83 89.91 40.83 89.91-16.69 83.48-15.73Z" id="Path-1269-Copy-4" fill="#D8D8D8" mask="url(#mask-6)"/>
              </g>
              <g id="Oval-120-Copy-2-+-Rectangle-95-Copy-7-+-Rectangle-95-Copy-6" transform="translate(0.699248, 16.779944)">
                <path d="M37.06 29.57L37.06 29.57C16.83 29.57 0.35 23.24 0.35 14.82 0.35 6.4 16.83 0.07 37.06 0.07 57.3 0.07 73.77 6.4 73.77 14.82 73.77 23.24 57.3 29.57 37.06 29.57L37.06 29.57ZM1.4 2.18L1.4 2.18 72.72 2.18 73.77 2.18 73.77 3.23 73.77 14.82 73.77 15.87 72.72 15.87 1.4 15.87 0.35 15.87 0.35 14.82 0.35 3.23 0.35 2.18 1.4 2.18Z" id="Shape" fill="#2C302E"/>
                <g id="Path-+-Path-1269-Copy-3-+-Path-1269-Copy-2" transform="translate(1.398496, 0.699164)">
                  <mask id="mask-8" fill="white">
                    <use xlink:href="#path-7"/>
                  </mask>
                  <use id="Mask" fill="#EDEEEE" xlink:href="#path-7"/>
                  <path d="M62.23-16.43L35.32 40.13 68.66 40.13 68.66-17.39 62.23-16.43Z" id="Path-1269-Copy-3" fill="#E1E2E2" mask="url(#mask-8)"/>
                  <path d="M77.89-16.43L50.98 40.13 84.31 40.13 84.31-17.39 77.89-16.43Z" id="Path-1269-Copy-2" fill="#D8D8D8" mask="url(#mask-8)"/>
                </g>
              </g>
              <path d="M37.76 31.59L37.76 31.59C16.98 31.59 0 25.07 0 15.8 0 6.52 16.98 0 37.76 0 58.53 0 75.52 6.52 75.52 15.8 75.52 25.07 58.53 31.59 37.76 31.59L37.76 31.59Z" id="Shape" fill="#2C302E"/>
              <path d="M37.76 29.49C57.45 29.49 73.42 23.36 73.42 15.8 73.42 8.23 57.45 2.1 37.76 2.1 18.06 2.1 2.1 8.23 2.1 15.8 2.1 23.36 18.06 29.49 37.76 29.49L37.76 29.49Z" id="Path" fill="#EDEEEE"/>
            </g>
            <ellipse id="Oval-124" stroke="#2C302E" stroke-width="1.05" fill="#FFB0AD" cx="13.11" cy="34.23" rx="1.57" ry="1.58"/>
            <ellipse id="Oval-124-Copy" stroke="#2C302E" stroke-width="1.05" fill="#FFB0AD" cx="13.11" cy="50.04" rx="1.57" ry="1.58"/>
            <ellipse id="Oval-124-Copy-2" stroke="#2C302E" stroke-width="1.05" fill="#FFB0AD" cx="13.11" cy="65.84" rx="1.57" ry="1.58"/>
          </g>
          <g id="shield-copy-4" transform="translate(177.609023, 203.456825)">
            <g id="Mask-+-Rectangle-94">
              <path d="M17.74 0.7L17.74 0.7 18.18 0.62 18.62 0.7 33.75 3.45 35.76 3.81 35.76 5.86 35.76 27.27C35.76 29.54 34.8 31.82 33 34.09 31.53 35.94 29.51 37.77 26.98 39.58 24.45 41.39 21.72 42.95 19.25 44.15L18.18 44.67 17.1 44.15C14.63 42.94 11.91 41.39 9.37 39.58 6.85 37.77 4.83 35.93 3.36 34.09 1.56 31.82 0.6 29.54 0.6 27.27L0.6 5.86 0.6 3.81 2.61 3.45 17.74 0.7Z" id="Shape" fill="#9E0B0F"/>
              <g id="Path-+-Rectangle-94" transform="translate(2.796992, 2.796657)">
                <mask id="mask-10" fill="white">
                  <use xlink:href="#path-9"/>
                </mask>
                <use id="Mask" fill="#BB241D" xlink:href="#path-9"/>
                <rect id="Rectangle-94" fill="#DA322C" mask="url(#mask-10)" x="-21.83" y="-14.68" width="37.22" height="66.07"/>
              </g>
            </g>
            <path d="M18.23 28.5L11.73 11.61 8.71 11.61 18.25 35.15 27.79 11.61 24.95 11.61 18.23 28.5 18.23 28.5Z" id="Shape-Copy" fill="#FFFFFF"/>
          </g>
          <g transform="translate(0.000000, 144.727019)">
            <path d="M11.89 0.5L106.98 0.5 106.98 96.29C106.98 96.29 95.81 91.64 87.25 92.08 78.63 92.54 70.35 97.94 61.06 97.33 46.02 96.35 42.75 92.08 31.16 92.08 25.32 92.08 11.89 96.29 11.89 96.29L11.89 0.5Z" id="Rectangle-97-Copy" stroke="#2C302E" stroke-width="2.8" fill="#CBDBEA"/>
            <path d="M18.18 6.29L113.28 6.29 113.28 102.08C113.28 102.08 102.1 97.43 93.54 97.88 84.92 98.33 76.65 103.74 67.35 103.13 52.31 102.14 49.04 97.88 37.45 97.88 31.62 97.88 18.18 102.08 18.18 102.08L18.18 6.29Z" id="Rectangle-97" stroke="#2C302E" stroke-width="2.8" fill="#424B54"/>
            <text id="public-class-Hello1" font-family=".AppleSystemUIFont" font-size="7.7" font-weight="normal">
              <tspan x="25.17" y="22.38" fill="#F6A623">
                public class
              </tspan>
              <tspan x="70.54" y="22.38" fill="#000000"/>
              <tspan x="72.93" y="22.38" fill="#F8E81C">
                Hello1
              </tspan>
              <tspan x="97.75" y="22.38" fill="#000000"/>
              <tspan x="25.17" y="31.38" fill="#B8E986">
                {
              </tspan>
              <tspan x="28.49" y="31.38" fill="#000000"/>
              <tspan x="25.17" y="40.38" fill="#000000"/>
              <tspan x="29.95" y="40.38" fill="#F6A623">
                public static
              </tspan>
              <tspan x="77.05" y="40.38" fill="#000000"/>
              <tspan x="79.43" y="40.38" fill="#C07DFA">
                void 
              </tspan>
              <tspan x="25.17" y="49.38" fill="#C07DFA">
                Main()
              </tspan>
              <tspan x="49.3" y="49.38" fill="#000000"/>
              <tspan x="25.17" y="58.38" fill="#000000"/>
              <tspan x="25.17" y="67.38" fill="#B8E986">
                {
              </tspan>
              <tspan x="28.49" y="67.38" fill="#CB99F8">
                System.Console.Wr
              </tspan>
              <tspan x="25.17" y="76.38" fill="#CB99F8">
                iteLine
              </tspan>
              <tspan x="50.92" y="76.38" fill="#F8E81C">
                ("Hello, 
              </tspan>
              <tspan x="25.17" y="85.38" fill="#F8E81C">
                World!");
              </tspan>
              <tspan x="59.49" y="85.38" fill="#B8E986">
                }
              </tspan>
              <tspan x="62.8" y="85.38" fill="#000000"/>
              <tspan x="25.17" y="94.38" fill="#B8E986">
                }
              </tspan>
              <tspan x="28.49" y="94.38" fill="#000000"/>
            </text>
            <g id="shield-copy" transform="translate(0.000000, 58.729805)">
              <g id="Mask-+-Rectangle-94">
                <path d="M17.74 0.7L17.74 0.7 18.18 0.62 18.62 0.7 33.75 3.45 35.76 3.81 35.76 5.86 35.76 27.27C35.76 29.54 34.8 31.82 33 34.09 31.53 35.94 29.51 37.77 26.98 39.58 24.45 41.39 21.72 42.95 19.25 44.15L18.18 44.67 17.1 44.15C14.63 42.94 11.91 41.39 9.37 39.58 6.85 37.77 4.83 35.93 3.36 34.09 1.56 31.82 0.6 29.54 0.6 27.27L0.6 5.86 0.6 3.81 2.61 3.45 17.74 0.7Z" id="Shape" fill="#9E0B0F"/>
                <g id="Path-+-Rectangle-94" transform="translate(2.796992, 2.796657)">
                  <mask id="mask-12" fill="white">
                    <use xlink:href="#path-11"/>
                  </mask>
                  <use id="Mask" fill="#BB241D" xlink:href="#path-11"/>
                  <rect id="Rectangle-94" fill="#DA322C" mask="url(#mask-12)" x="-21.83" y="-14.68" width="37.22" height="66.07"/>
                </g>
              </g>
              <path d="M18.23 28.5L11.73 11.61 8.71 11.61 18.25 35.15 27.79 11.61 24.95 11.61 18.23 28.5 18.23 28.5Z" id="Shape-Copy" fill="#FFFFFF"/>
            </g>
          </g>
          <g transform="translate(334.240602, 158.011142)">
            <g id="Group-Copy" transform="translate(10.838346, 0.000000)">
              <path d="M0 11.18C0 5.01 5 0 11.18 0L108.39 0C114.57 0 119.57 5.01 119.57 11.18L119.57 60.13C119.57 66.31 114.57 71.31 108.39 71.31L11.18 71.31C5.01 71.31 0 66.3 0 60.13L0 11.18 0 11.18Z" id="Shape" fill="#2C302E"/>
              <mask id="mask-14" fill="white">
                <use xlink:href="#path-13"/>
              </mask>
              <use id="Mask" fill="#FFFFFF" xlink:href="#path-13"/>
              <g id="Rectangle-71-Copy-3-+-Rectangle-71-Copy-4-+-Rectangle-71-Copy-5" mask="url(#mask-14)" fill-opacity="0.18" fill="#424B54">
                <g transform="translate(-26.571429, 2.796657)">
                  <path d="M27.97 0L79.71 0 48.35 68.52 27.97 68.52 27.97 0Z" id="Rectangle-71-Copy-3" opacity="0.6"/>
                  <path d="M13.98 0L65.73 0 34.37 68.52 13.98 68.52 13.98 0Z" id="Rectangle-71-Copy-4" opacity="0.5"/>
                  <path d="M0 0L51.74 0 20.38 68.52 0 68.52 0 0Z" id="Rectangle-71-Copy-5" opacity="0.5"/>
                </g>
              </g>
              <rect id="Rectangle-81" stroke="#424B54" stroke-width="1.4" fill="#FFFFFF" mask="url(#mask-14)" x="50.35" y="13.98" width="55.24" height="12.58"/>
              <rect id="Rectangle-85" stroke="#424B54" stroke-width="1.4" mask="url(#mask-14)" x="69.23" y="48.94" width="36.36" height="12.58"/>
              <rect id="Rectangle-81-Copy" stroke="#424B54" stroke-width="1.4" fill="#FFFFFF" mask="url(#mask-14)" x="50.35" y="30.76" width="55.24" height="12.58"/>
            </g>
            <text id="Login" font-family=".AppleSystemUIFont" font-size="7" font-weight="normal" fill="#2C302E">
              <tspan x="23.42" y="23.78">
                Login
              </tspan>
            </text>
            <text id="root" font-family=".AppleSystemUIFont" font-size="7" font-weight="normal" fill="#2C302E">
              <tspan x="64.68" y="23.78">
                root
              </tspan>
            </text>
            <text id="Password" font-family=".AppleSystemUIFont" font-size="7" font-weight="normal" fill="#2C302E">
              <tspan x="23.42" y="41.26">
                Password
              </tspan>
            </text>
            <text id="Sign-In" font-family=".AppleSystemUIFont" font-size="7" font-weight="normal" fill="#2C302E">
              <tspan x="84.96" y="59.44">
                Sign In
              </tspan>
            </text>
            <text id="*******" font-family=".AppleSystemUIFont" font-size="7" font-weight="normal" fill="#2C302E">
              <tspan x="65.38" y="41.26">
                *******
              </tspan>
            </text>
            <g id="shield-copy-5" transform="translate(0.000000, 45.445682)">
              <g id="Mask-+-Rectangle-94">
                <path d="M17.74 0.7L17.74 0.7 18.18 0.62 18.62 0.7 33.75 3.45 35.76 3.81 35.76 5.86 35.76 27.27C35.76 29.54 34.8 31.82 33 34.09 31.53 35.94 29.51 37.77 26.98 39.58 24.45 41.39 21.72 42.95 19.25 44.15L18.18 44.67 17.1 44.15C14.63 42.94 11.91 41.39 9.37 39.58 6.85 37.77 4.83 35.93 3.36 34.09 1.56 31.82 0.6 29.54 0.6 27.27L0.6 5.86 0.6 3.81 2.61 3.45 17.74 0.7Z" id="Shape" fill="#9E0B0F"/>
                <g id="Path-+-Rectangle-94" transform="translate(2.796992, 2.796657)">
                  <mask id="mask-16" fill="white">
                    <use xlink:href="#path-15"/>
                  </mask>
                  <use id="Mask" fill="#BB241D" xlink:href="#path-15"/>
                  <rect id="Rectangle-94" fill="#DA322C" mask="url(#mask-16)" x="-21.83" y="-14.68" width="37.22" height="66.07"/>
                </g>
              </g>
              <path d="M18.23 28.5L11.73 11.61 8.71 11.61 18.25 35.15 27.79 11.61 24.95 11.61 18.23 28.5 18.23 28.5Z" id="Shape-Copy" fill="#FFFFFF"/>
            </g>
          </g>
          <path d="M54.44 104.87L203.15 104.87 203.15 145.92" id="Line-Copy" stroke="#2C302E" stroke-width="1.4" stroke-linecap="square" transform="translate(128.797734, 125.397513) scale(-1, 1) translate(-128.797734, -125.397513) "/>
          <path d="M250.93 104.87L407.33 104.87 407.33 159.9" id="Line-Copy-2" stroke="#2C302E" stroke-width="1.4" stroke-linecap="square"/>
          <path d="M227.63 104.87L227.63 159.9" id="Line-Copy-3" stroke="#2C302E" stroke-width="1.4" stroke-linecap="square"/>
          <g id="shield" transform="translate(202.781955, 73.412256)">
            <g id="Mask-+-Rectangle-94">
              <path d="M24.21 0.56L24.21 0.56 24.82 0.45 25.44 0.56 46.42 4.39 49.23 4.9 49.23 7.76 49.23 37.59C49.23 40.74 47.9 43.92 45.4 47.09 43.36 49.66 40.56 52.22 37.05 54.74 33.53 57.26 29.75 59.43 26.33 61.11L24.82 61.85 23.31 61.11C19.88 59.42 16.11 57.26 12.59 54.74 9.08 52.22 6.28 49.66 4.24 47.08 1.75 43.93 0.41 40.74 0.41 37.59L0.41 7.76 0.41 4.9 3.23 4.39 24.21 0.56Z" id="Shape" fill="#9E0B0F"/>
              <g id="Path-+-Rectangle-94" transform="translate(3.496241, 3.495822)">
                <mask id="mask-18" fill="white">
                  <use xlink:href="#path-17"/>
                </mask>
                <use id="Mask" fill="#BB241D" xlink:href="#path-17"/>
                <rect id="Rectangle-94" fill="#DA322C" mask="url(#mask-18)" x="-30.27" y="-20.45" width="51.6" height="92.03"/>
              </g>
            </g>
            <path d="M24.89 39.3L15.88 15.77 11.7 15.77 24.92 48.55 38.14 15.77 34.21 15.77 24.89 39.3 24.89 39.3Z" id="Shape-Copy" fill="#FFFFFF"/>
          </g>
          <rect id="Rectangle-273" fill="#2C302E" x="262.92" y="216.04" width="2.1" height="6.99"/>
        </g>
      </g>
    </g>
  </g>
</svg>
