<?xml version="1.0" encoding="UTF-8" standalone="no"?>
<svg width="622px" height="352px" viewBox="0 0 622 352" version="1.1" xmlns="http://www.w3.org/2000/svg" xmlns:xlink="http://www.w3.org/1999/xlink" xmlns:sketch="http://www.bohemiancoding.com/sketch/ns">
    <!-- Generator: Sketch 3.3.3 (12081) - http://www.bohemiancoding.com/sketch -->
    <title>Group Copy 3</title>
    <desc>Created with Sketch.</desc>
    <defs>
        <path id="path-1" d="M21.9979018,0.448784811 L0.35483871,4.37516722 L0.35483871,35.0074545 C0.35483871,37.365058 1.42554146,39.9112933 3.54296705,42.5787498 C5.41999409,44.9381272 8.07756704,47.3542715 11.4407487,49.7609547 C15.63963,52.7548213 19.920043,54.984699 21.9979018,56 C24.0793575,54.984699 28.3597705,52.7554126 32.5574528,49.7609547 C35.9230325,47.3548628 38.5758094,44.9387185 40.4516375,42.5787498 C42.5708616,39.9083367 43.6451613,37.3656493 43.6451613,35.0074545 L43.6451613,4.37516722 L21.9979018,0.448784811 L21.9979018,0.448784811 Z"></path>
        <path id="path-3" d="M21.9979018,0.448784811 L0.35483871,4.37516722 L0.35483871,35.0074545 C0.35483871,37.365058 1.42554146,39.9112933 3.54296705,42.5787498 C5.41999409,44.9381272 8.07756704,47.3542715 11.4407487,49.7609547 C15.63963,52.7548213 19.920043,54.984699 21.9979018,56 C24.0793575,54.984699 28.3597705,52.7554126 32.5574528,49.7609547 C35.9230325,47.3548628 38.5758094,44.9387185 40.4516375,42.5787498 C42.5708616,39.9083367 43.6451613,37.3656493 43.6451613,35.0074545 L43.6451613,4.37516722 L21.9979018,0.448784811 L21.9979018,0.448784811 Z"></path>
        <path id="path-5" d="M91.2511814,25.2771631 C91.2526534,25.650383 91.2526534,26.5384397 91.2114374,27.6418723 C77.4349894,34.0293901 61.9510214,37.6170213 45.5838534,37.6170213 C29.2652614,37.6170213 13.8254534,34.0515177 0.0813893896,27.6994043 C0.0387013896,26.5605674 0.0372293896,25.6430071 0.0387013896,25.2683121 C0.0372293896,24.8596879 0.0401733896,24.6177589 0.0401733896,24.6177589 C0.0166213896,24.052766 -0.00251461039,23.428766 0.00190138961,22.7664113 C-0.0555066104,17.7360567 1.15006139,10.0710355 8.68081339,8.21378723 C20.0902854,5.39619858 29.8761414,0.64022695 29.9453254,0.606297872 C37.755896,3.41185833 42.0508881,7.35078421 46.2089212,7.20395238 C50.3762097,7.05679371 54.4059287,2.81881709 61.6993094,1.07687943 C61.6993094,1.07687943 71.1966534,5.38587234 82.6473414,8.21231206 C90.1604294,10.0680851 91.3777734,17.6991773 91.3277254,22.7295319 C91.3321414,23.5807092 91.2997574,24.3669787 91.2511814,25.0529362 L91.2511814,25.2771631 Z"></path>
        <path id="path-7" d="M21.9979018,0.448784811 L0.35483871,4.37516722 L0.35483871,35.0074545 C0.35483871,37.365058 1.42554146,39.9112933 3.54296705,42.5787498 C5.41999409,44.9381272 8.07756704,47.3542715 11.4407487,49.7609547 C15.63963,52.7548213 19.920043,54.984699 21.9979018,56 C24.0793575,54.984699 28.3597705,52.7554126 32.5574528,49.7609547 C35.9230325,47.3548628 38.5758094,44.9387185 40.4516375,42.5787498 C42.5708616,39.9083367 43.6451613,37.3656493 43.6451613,35.0074545 L43.6451613,4.37516722 L21.9979018,0.448784811 L21.9979018,0.448784811 Z"></path>
        <path id="path-9" d="M30.4970911,0.62509313 L0.491935484,6.09398291 L0.491935484,48.7603831 C0.491935484,52.0441879 1.97631884,55.5907299 4.91184068,59.3061158 C7.51408272,62.5923914 11.1984452,65.9577353 15.8610379,69.3099012 C21.6822143,73.4799297 27.6164233,76.5858308 30.4970911,78 C33.3827456,76.5858308 39.3169545,73.4807533 45.1364687,69.3099012 C49.8023859,65.9585589 53.4800994,62.593215 56.0806792,59.3061158 C59.0186944,55.5866118 60.5080645,52.0450115 60.5080645,48.7603831 L60.5080645,6.09398291 L30.4970911,0.62509313 L30.4970911,0.62509313 Z"></path>
    </defs>
    <g id="Welcome" stroke="none" stroke-width="1" fill="none" fill-rule="evenodd" sketch:type="MSPage">
        <g id="Comixes" sketch:type="MSArtboardGroup" transform="translate(-153.000000, -83.000000)">
            <g id="Group-Copy-3" sketch:type="MSLayerGroup" transform="translate(153.000000, 83.000000)">
                <g id="Group">
                    <g transform="translate(243.000000, 0.000000)" sketch:type="MSShapeGroup">
                        <path d="M19.5,33.5 L19.5,19.5" id="Line" stroke="#2C302E" stroke-linecap="square"></path>
                        <path d="M29,33.5 L29,5.48214856" id="Line-Copy-11" stroke="#424B54" stroke-width="2" stroke-linecap="square"></path>
                        <path d="M4,34 L4,34 L45,34 L49,34 L49,38 L49,134 L49,138 L45,138 L4,138 L0,138 L0,134 L0,38 L0,34 L4,34 Z" id="Shape" fill="#2C302E"></path>
                        <path d="M4,38 L4,38 L4,134 L45,134 L45,38 L4,38 Z" id="Path" fill="#D8D8D8"></path>
                        <path d="M104,52 L104,52 L133,52 L137,52 L137,56 L137,133 L137,137 L133,137 L104,137 L100,137 L100,133 L100,56 L100,52 L104,52 Z" id="Shape" fill="#2C302E"></path>
                        <path d="M104,56 L104,56 L104,133 L133,133 L133,56 L104,56 Z" id="Path" fill="#CBDBEA"></path>
                        <path d="M113.5,56.5 L113.5,132.664299" id="Line" stroke="#2C302E" stroke-linecap="square"></path>
                        <path d="M123.5,56.5 L123.5,132.664299" id="Line-Copy-13" stroke="#2C302E" stroke-linecap="square"></path>
                        <rect id="Rectangle-144" stroke="#2C302E" stroke-width="2" fill="#CBDBEA" x="13" y="45" width="25" height="11"></rect>
                        <rect id="Rectangle-144-Copy" stroke="#2C302E" stroke-width="2" fill="#CBDBEA" x="13" y="65" width="25" height="11"></rect>
                        <rect id="Rectangle-144-Copy-2" stroke="#2C302E" stroke-width="2" fill="#CBDBEA" x="13" y="85" width="25" height="11"></rect>
                        <rect id="Rectangle-144-Copy-3" stroke="#2C302E" stroke-width="2" fill="#CBDBEA" x="13" y="105" width="25" height="11"></rect>
                        <path d="M50,0 L50,0 L100,0 L105,0 L105,5 L105,133 L105,138 L100,138 L50,138 L45,138 L45,133 L45,5 L45,0 L50,0 Z" id="Shape" fill="#2C302E"></path>
                        <path d="M50,5 L50,5 L50,133 L100,133 L100,5 L50,5 Z" id="Path" fill="#D8D8D8"></path>
                        <path d="M61,3 L90,3 L90,135 L61,135 L61,3 L61,3 Z" id="Shape" fill="#2C302E"></path>
                        <path d="M61,5 L63,5 L63,135 L61,133 L90,133 L88,135 L88,5 L90,5 L61,5 Z" id="Path" fill="#F6EBC0"></path>
                        <rect id="Rectangle-142" fill="#EBD889" x="75" y="5" width="13" height="128"></rect>
                        <path d="M62.5,16.5 L88.5192242,16.5" id="Line-Copy-12" stroke="#2C302E" stroke-linecap="square"></path>
                        <path d="M62.5,29.5 L88.5192242,29.5" id="Line-Copy-4" stroke="#2C302E" stroke-linecap="square"></path>
                        <path d="M62.5,42.5 L88.5192242,42.5" id="Line-Copy-6" stroke="#2C302E" stroke-linecap="square"></path>
                        <path d="M62.5,55.5 L88.5192242,55.5" id="Line-Copy-5" stroke="#2C302E" stroke-linecap="square"></path>
                        <path d="M62.5,68.5 L88.5192242,68.5" id="Line-Copy-8" stroke="#2C302E" stroke-linecap="square"></path>
                        <path d="M62.5,81.5 L88.5192242,81.5" id="Line-Copy-7" stroke="#2C302E" stroke-linecap="square"></path>
                        <path d="M62.5,94.5 L88.5192242,94.5" id="Line-Copy-10" stroke="#2C302E" stroke-linecap="square"></path>
                        <path d="M62.5,107.5 L88.5192242,107.5" id="Line-Copy-9" stroke="#2C302E" stroke-linecap="square"></path>
                    </g>
                    <g transform="translate(259.000000, 241.000000)" stroke="#2C302E" sketch:type="MSShapeGroup">
                        <rect id="Rectangle-148" stroke-width="4" fill="#FFFFFF" x="0.759072897" y="0" width="115.114504" height="81"></rect>
                        <polygon id="Triangle-1" stroke-width="2" fill="#EDEEEE" transform="translate(58.316325, 30.866080) scale(1, -1) translate(-58.316325, -30.866080) " points="58.3163248 1.20468771 115.873577 60.5274725 0.759072897 60.5274725 "></polygon>
                        <path d="M39.4045802,40.5321078 L4.87022901,77.0510609" id="Line" stroke-width="2" stroke-linecap="square"></path>
                        <path d="M77.480916,40.5321078 L112.015267,77.0510609" id="Line-Copy-14" stroke-width="2" stroke-linecap="square"></path>
                    </g>
                    <g id="shield-copy-3" transform="translate(236.500000, 288.000000)">
                        <g id="Mask-+-Rectangle-94">
                            <path d="M25.3731459,1.00499619 L25.3731459,1.00499619 L25.9978412,0.891666908 L26.6225404,1.00497492 L48.2697999,4.93135733 L51.1451613,5.4528907 L51.1451613,8.37516722 L51.1451613,39.0074545 C51.1451613,42.2452648 49.7669946,45.5112747 47.191544,48.7565725 C45.0924276,51.3974591 42.2013737,54.0284865 38.5900392,56.6102691 C34.9616531,59.1986139 31.0611202,61.4244284 27.5323316,63.1457153 L25.9965739,63.8948335 L24.4613272,63.1446683 C20.9261503,61.4172801 17.0353227,59.19649 13.4039441,56.6072553 C9.79281267,54.0231399 6.90066209,51.3932073 4.80165438,48.7548024 C2.23176995,45.5173545 0.85483871,42.2462354 0.85483871,39.0074545 L0.85483871,8.37516722 L0.85483871,5.45299182 L3.73008282,4.9313786 L25.3731459,1.00499619 Z" id="Shape" fill="#9E0B0F" sketch:type="MSShapeGroup"></path>
                            <g id="Path-+-Rectangle-94" transform="translate(4.000000, 4.000000)">
                                <mask id="mask-2" sketch:name="Mask" fill="white">
                                    <use xlink:href="#path-1"></use>
                                </mask>
                                <use id="Mask" fill="#BB241D" sketch:type="MSShapeGroup" xlink:href="#path-1"></use>
                                <rect id="Rectangle-94" fill="#DA322C" sketch:type="MSShapeGroup" mask="url(#mask-2)" x="-31.2258065" y="-21" width="53.2258065" height="94.5"></rect>
                            </g>
                        </g>
                        <path d="M26.0640692,40.7635791 L16.7760065,16.6 L12.4610797,16.6 L26.1006363,50.2681639 L39.740193,16.6 L35.6812364,16.6 L26.0640692,40.7635791 L26.0640692,40.7635791 Z" id="Shape-Copy" fill="#FFFFFF" sketch:type="MSShapeGroup"></path>
                    </g>
                    <g transform="translate(0.000000, 241.000000)">
                        <path d="M7,0.0198986132 L85,0.0198986132 L85,24.3037109 L7,24.3037109 L7,0.0198986132 L7,0.0198986132 Z" id="Shape" fill="#2C302E" sketch:type="MSShapeGroup"></path>
                        <path d="M7,4.01989861 L11,4.01989861 L11,20.3037109 L7,20.3037109 L81,20.3037109 L81,24.3037109 L81,0.0198986132 L81,4.01989861 L7,4.01989861 Z" id="Path" fill="#FACB63" sketch:type="MSShapeGroup"></path>
                        <path d="M29,29.0198986 L121,29.0198986 L121,53.3037109 L29,53.3037109 L29,29.0198986 L29,29.0198986 Z" id="Shape" fill="#2C302E" sketch:type="MSShapeGroup"></path>
                        <path d="M29,33.0198986 L33,33.0198986 L33,53.3037109 L29,49.3037109 L121,49.3037109 L117,49.3037109 L117,33.0198986 L121,33.0198986 L29,33.0198986 Z" id="Path" fill="#CBDBEA" sketch:type="MSShapeGroup"></path>
                        <path d="M61,59.3037109 L153,59.3037109 L153,83.5875233 L61,83.5875233 L61,59.3037109 L61,59.3037109 Z" id="Shape" fill="#2C302E" sketch:type="MSShapeGroup"></path>
                        <path d="M61,63.3037109 L65,63.3037109 L65,83.5875233 L65,79.5875233 L149,79.5875233 L149,83.5875233 L149,59.3037109 L149,63.3037109 L61,63.3037109 Z" id="Path" fill="#C2EC98" sketch:type="MSShapeGroup"></path>
                        <g id="shield-copy" transform="translate(0.000000, 42.000000)">
                            <g id="Mask-+-Rectangle-94">
                                <path d="M25.3731459,1.00499619 L25.3731459,1.00499619 L25.9978412,0.891666908 L26.6225404,1.00497492 L48.2697999,4.93135733 L51.1451613,5.4528907 L51.1451613,8.37516722 L51.1451613,39.0074545 C51.1451613,42.2452648 49.7669946,45.5112747 47.191544,48.7565725 C45.0924276,51.3974591 42.2013737,54.0284865 38.5900392,56.6102691 C34.9616531,59.1986139 31.0611202,61.4244284 27.5323316,63.1457153 L25.9965739,63.8948335 L24.4613272,63.1446683 C20.9261503,61.4172801 17.0353227,59.19649 13.4039441,56.6072553 C9.79281267,54.0231399 6.90066209,51.3932073 4.80165438,48.7548024 C2.23176995,45.5173545 0.85483871,42.2462354 0.85483871,39.0074545 L0.85483871,8.37516722 L0.85483871,5.45299182 L3.73008282,4.9313786 L25.3731459,1.00499619 Z" id="Shape" fill="#9E0B0F" sketch:type="MSShapeGroup"></path>
                                <g id="Path-+-Rectangle-94" transform="translate(4.000000, 4.000000)">
                                    <mask id="mask-4" sketch:name="Mask" fill="white">
                                        <use xlink:href="#path-3"></use>
                                    </mask>
                                    <use id="Mask" fill="#BB241D" sketch:type="MSShapeGroup" xlink:href="#path-3"></use>
                                    <rect id="Rectangle-94" fill="#DA322C" sketch:type="MSShapeGroup" mask="url(#mask-4)" x="-31.2258065" y="-21" width="53.2258065" height="94.5"></rect>
                                </g>
                            </g>
                            <path d="M26.0640692,40.7635791 L16.7760065,16.6 L12.4610797,16.6 L26.1006363,50.2681639 L39.740193,16.6 L35.6812364,16.6 L26.0640692,40.7635791 L26.0640692,40.7635791 Z" id="Shape-Copy" fill="#FFFFFF" sketch:type="MSShapeGroup"></path>
                        </g>
                        <path d="M84.7949219,5.88476562 L104.659712,5.88476562 L104.659712,25" id="Path-715" stroke="#2C302E" stroke-width="2" sketch:type="MSShapeGroup"></path>
                        <path id="Path-715-decoration-1" d="M104.659712,25 L107.659712,14.2 L101.659712,14.2 L104.659712,25 Z" stroke="#2C302E" stroke-width="2"></path>
                        <path d="M119.794922,36.8847656 L139.659712,36.8847656 L139.659712,56" id="Path-715-Copy" stroke="#2C302E" stroke-width="2" sketch:type="MSShapeGroup"></path>
                        <path id="Path-715-Copy-decoration-1" d="M139.659712,56 L142.659712,45.2 L136.659712,45.2 L139.659712,56 Z" stroke="#2C302E" stroke-width="2"></path>
                    </g>
                    <g transform="translate(494.000000, 220.000000)">
                        <g id="Group-Copy" transform="translate(32.000000, 0.000000)">
                            <g id="Shape-+-Rectangle-95" transform="translate(0.000000, 65.645390)">
                                <mask id="mask-6" sketch:name="Mask" fill="white">
                                    <use xlink:href="#path-5"></use>
                                </mask>
                                <use id="Mask" stroke="#2C302E" stroke-width="4" fill="#424B54" sketch:type="MSShapeGroup" xlink:href="#path-5"></use>
                                <text id="005132" sketch:type="MSTextLayer" mask="url(#mask-6)" font-family="Consolas" font-size="11" font-weight="normal" fill="#FFFFFF">
                                    <tspan x="47" y="25">005132</tspan>
                                </text>
                            </g>
                            <path d="M27.9194844,35.1564716 C27.9194844,35.1564716 27.8556481,35.0208893 27.82373,34.9530981 C26.4392314,32.0125504 23.6702344,26.131455 23.6702344,26.131455 L25.5235313,14.192459 L30.50375,8.40843861 L37.4098594,2.59272496 L43.401,1.22739362 L50.2621875,0.979249778 L58.1026719,4.65746897 L62.2843594,7.24695257 L68.1835,12.182818 L69.9969063,23.261414 L69.1660313,28.1241689 L67.2286406,32.7153701 L65.7307656,33.2995346 L63.8932813,33.0474291 L64.7802188,26.3543883 L65.9187188,19.8698748 L65.1237813,17.2753491 L63.6657969,16.6029477 L56.53975,17.4993628 L50.7290156,20.19293 L45.7283125,20.8217531 L37.7843281,18.6482436 L32.5126563,15.2977615 L31.0226875,14.6293218 L27.6398906,20.6488808 L27.292375,24.8356328 L27.5439375,28.1857547 L28.7862969,31.6810173 L27.9194844,35.1564716 Z" id="Path-536" fill="#424B54" sketch:type="MSShapeGroup"></path>
                            <path d="M31.6116294,57.9464397 C28.7000134,54.121305 27.3472454,49.5320284 26.7466694,45.593305 C25.6750534,45.5062695 24.2589894,43.9779858 22.7384134,38.530156 C20.7865414,31.5378156 22.6103494,30.134922 24.3885254,30.134922 C24.5062854,30.134922 24.6240454,30.1408227 24.7403334,30.1526241 C23.3640134,26.2375035 23.3360454,22.3843404 24.2575174,18.8203121 C25.2275654,14.6234326 27.4650054,11.2629787 29.9747654,8.66371631 C32.0192346,5.82689297 33.8017346,5.30177847 40.3994694,1.56516312 C41.8641094,1.06212766 43.4214854,0.73906383 45.0715974,0.660879433 C45.7634374,0.600397163 46.4317254,0.570893617 47.0779334,0.570893617 C51.1936454,0.570893617 54.4026054,1.73185816 56.7990214,3.17163121 C58.3138078,4.01865469 59.4845932,4.96603907 60.3602903,5.8268928 C60.7142509,6.1748537 62.5089094,8.55012766 62.5089094,8.55012766 C62.5089094,8.55012766 63.5814061,8.62654184 64.8873958,9.46159686 C65.4015983,9.79038005 65.9519971,10.2367681 66.4873828,10.8424011 C68.8295274,13.4918554 70.8843555,19.1889207 68.3645254,31.4198014 C69.7658694,31.9110355 70.7535814,33.8597447 69.1299654,39.6748936 C67.5622854,45.2923688 66.1064774,46.7424681 65.0230854,46.7424681 C64.7257414,46.7424681 64.4578374,46.633305 64.2223174,46.4710355 C63.5805254,50.1294752 62.2689734,54.2363688 59.6826694,57.7354894 C50.1421551,64.7514945 45.071597,68.8550517 31.6116294,57.9464397 Z" id="Shape-Copy-2" stroke="#2C302E" stroke-width="4" sketch:type="MSShapeGroup"></path>
                            <path d="M25.4171562,30.5170102 L28.1085156,35.5742465 L29.2930156,34.9202128 C29.2930156,34.9202128 26.2933125,25.1507646 27.5036875,21.5723072 C28.7140625,17.9938497 31.3993125,14.6206782 31.3993125,14.6206782 C31.3993125,14.6206782 42.673625,24.1736758 51.252625,19.8551086 C59.831625,15.5365414 65.0278281,17.2209663 65.0278281,17.2209663 C65.0278281,17.2209663 66.2806094,20.8188719 65.6542187,23.7616633 C65.0278281,26.7044548 64.0478125,33.0096133 64.0478125,33.0096133 L66.5321719,33.3614805 L68.0861094,30.3160461" id="Path-535" stroke="#2C302E" stroke-width="2" sketch:type="MSShapeGroup"></path>
                        </g>
                        <g id="shield-copy-2" transform="translate(0.500000, 68.000000)">
                            <g id="Mask-+-Rectangle-94">
                                <path d="M25.3731459,1.00499619 L25.3731459,1.00499619 L25.9978412,0.891666908 L26.6225404,1.00497492 L48.2697999,4.93135733 L51.1451613,5.4528907 L51.1451613,8.37516722 L51.1451613,39.0074545 C51.1451613,42.2452648 49.7669946,45.5112747 47.191544,48.7565725 C45.0924276,51.3974591 42.2013737,54.0284865 38.5900392,56.6102691 C34.9616531,59.1986139 31.0611202,61.4244284 27.5323316,63.1457153 L25.9965739,63.8948335 L24.4613272,63.1446683 C20.9261503,61.4172801 17.0353227,59.19649 13.4039441,56.6072553 C9.79281267,54.0231399 6.90066209,51.3932073 4.80165438,48.7548024 C2.23176995,45.5173545 0.85483871,42.2462354 0.85483871,39.0074545 L0.85483871,8.37516722 L0.85483871,5.45299182 L3.73008282,4.9313786 L25.3731459,1.00499619 Z" id="Shape" fill="#9E0B0F" sketch:type="MSShapeGroup"></path>
                                <g id="Path-+-Rectangle-94" transform="translate(4.000000, 4.000000)">
                                    <mask id="mask-8" sketch:name="Mask" fill="white">
                                        <use xlink:href="#path-7"></use>
                                    </mask>
                                    <use id="Mask" fill="#BB241D" sketch:type="MSShapeGroup" xlink:href="#path-7"></use>
                                    <rect id="Rectangle-94" fill="#DA322C" sketch:type="MSShapeGroup" mask="url(#mask-8)" x="-31.2258065" y="-21" width="53.2258065" height="94.5"></rect>
                                </g>
                            </g>
                            <path d="M26.0640692,40.7635791 L16.7760065,16.6 L12.4610797,16.6 L26.1006363,50.2681639 L39.740193,16.6 L35.6812364,16.6 L26.0640692,40.7635791 L26.0640692,40.7635791 Z" id="Shape-Copy" fill="#FFFFFF" sketch:type="MSShapeGroup"></path>
                        </g>
                    </g>
                    <path d="M69.8572289,147 L282.53199,147 L282.53199,242.706829" id="Line-Copy" stroke="#2C302E" stroke-width="2" stroke-linecap="square" sketch:type="MSShapeGroup" transform="translate(176.194609, 194.853415) scale(-1, 1) translate(-176.194609, -194.853415) "></path>
                    <path d="M350.857229,147 L571.997228,147 L571.997228,221.709999" id="Line-Copy-2" stroke="#2C302E" stroke-width="2" stroke-linecap="square" sketch:type="MSShapeGroup"></path>
                    <path d="M317.53199,147 L317.53199,240" id="Line-Copy-3" stroke="#2C302E" stroke-width="2" stroke-linecap="square" sketch:type="MSShapeGroup"></path>
                    <g id="shield" transform="translate(282.000000, 102.000000)">
                        <g id="Mask-+-Rectangle-94">
                            <path d="M34.6184675,0.804510115 L34.6184675,0.804510115 L35.4970059,0.644383308 L36.3755498,0.804480071 L66.3865232,6.27336985 L70.4080645,7.00621399 L70.4080645,11.0939829 L70.4080645,53.7603831 C70.4080645,58.2714789 68.4963662,62.8230833 64.9234748,67.3463332 C62.0112567,71.0273392 58.0005435,74.6944177 52.9909021,78.2926402 C47.9581014,81.8996539 42.5480867,85.0013045 37.6534099,87.4000329 L35.495225,88.4576919 L33.3377639,87.3985573 C28.4342477,84.9913371 23.0377054,81.8966943 18.0006996,78.2884015 C12.9913952,74.6869676 8.97917028,71.0214239 6.0670843,67.3438531 C2.50191684,62.8315472 0.591935484,58.27283 0.591935484,53.7603831 L0.591935484,11.0939829 L0.591935484,7.00635608 L4.6133119,6.2733999 L34.6184675,0.804510115 Z" id="Shape" fill="#9E0B0F" sketch:type="MSShapeGroup"></path>
                            <g id="Path-+-Rectangle-94" transform="translate(5.000000, 5.000000)">
                                <mask id="mask-10" sketch:name="Mask" fill="white">
                                    <use xlink:href="#path-9"></use>
                                </mask>
                                <use id="Mask" fill="#BB241D" sketch:type="MSShapeGroup" xlink:href="#path-9"></use>
                                <rect id="Rectangle-94" fill="#DA322C" sketch:type="MSShapeGroup" mask="url(#mask-10)" x="-43.2903226" y="-29.25" width="73.7903226" height="131.625"></rect>
                            </g>
                        </g>
                        <path d="M35.5888232,56.2064137 L22.7121908,22.55 L16.7301333,22.55 L35.6395186,69.4449425 L54.5489039,22.55 L48.9217142,22.55 L35.5888232,56.2064137 L35.5888232,56.2064137 Z" id="Shape-Copy" fill="#FFFFFF" sketch:type="MSShapeGroup"></path>
                    </g>
                </g>
                <path d="M565,268.817743 C565,268.817743 569.631408,271.107422 572,271.107422 C574.298074,271.107422 579,268.817743 579,268.817743" id="Line-Copy-15" stroke="#2C302E" stroke-width="2" stroke-linecap="square" sketch:type="MSShapeGroup" transform="translate(572.000000, 269.962582) scale(1, -1) translate(-572.000000, -269.962582) "></path>
                <g id="Path-723-+-Path-725-+-Path-725-Copy" transform="translate(554.000000, 249.000000)" sketch:type="MSShapeGroup">
                    <path d="M18.3984375,10.2523916 C17.0689509,11.2060778 15.1462828,12 12.4294081,12 C5.62673029,12 0.796875,4.98498212 0.796875,4.98498212 C0.796875,4.98498212 2.24893207,0 11.5492169,0 C14.8391478,0 16.991075,0.878783353 18.3984375,2.01461932 C19.8058,0.878783353 21.9577272,0 25.2476581,0 C34.5479429,0 36,4.98498212 36,4.98498212 C36,4.98498212 31.1701447,12 24.3674669,12 C21.6505922,12 19.7279241,11.2060778 18.3984375,10.2523916 Z" id="Path-723" stroke="#2C302E" fill="#2C302E"></path>
                    <path d="M6.17001493,5.19076164 C6.17001493,5.19076164 8.22740555,2.05916997 11.1683382,3.6249658 C14.1092708,5.19076164 14.8393555,6.51873189 14.8393555,6.51873189 C14.8393555,6.51873189 12.3654379,8.83321332 10.0675644,7.67597259 C7.76969095,6.51873186 6.17001493,5.19076164 6.17001493,5.19076164 Z" id="Path-725" fill="#FFFFFF"></path>
                    <path d="M22.1700149,5.19076164 C22.1700149,5.19076164 24.2274056,2.05916997 27.1683382,3.6249658 C30.1092708,5.19076164 30.8393555,6.51873189 30.8393555,6.51873189 C30.8393555,6.51873189 28.3654379,8.83321332 26.0675644,7.67597259 C23.7696909,6.51873186 22.1700149,5.19076164 22.1700149,5.19076164 Z" id="Path-725-Copy" fill="#FFFFFF" transform="translate(26.504685, 5.593271) scale(-1, 1) translate(-26.504685, -5.593271) "></path>
                </g>
            </g>
        </g>
    </g>
</svg>