<?xml version="1.0" encoding="UTF-8" standalone="no"?>
<svg width="613px" height="334px" viewBox="0 0 613 334" version="1.1" xmlns="http://www.w3.org/2000/svg" xmlns:xlink="http://www.w3.org/1999/xlink" xmlns:sketch="http://www.bohemiancoding.com/sketch/ns">
    <!-- Generator: Sketch 3.3.3 (12081) - http://www.bohemiancoding.com/sketch -->
    <title>Group Copy 4</title>
    <desc>Created with Sketch.</desc>
    <defs>
        <path d="M34.75,47 L74.9916303,47 C82.1749935,47 88,41.1803606 88,34.0014716 L88,12.9985284 C88,5.82207036 82.1759545,0 74.9916303,0 L13.0083697,0 C5.82500651,0 0,5.81963941 0,12.9985284 L0,34.0014716 C0,41.1779296 5.82404549,47 13.0083697,47 L13.9166667,47 L18.5,62 L34.75,47 Z" id="path-1"></path>
        <path id="path-3" d="M21.9979018,0.448784811 L0.35483871,4.37516722 L0.35483871,35.0074545 C0.35483871,37.365058 1.42554146,39.9112933 3.54296705,42.5787498 C5.41999409,44.9381272 8.07756704,47.3542715 11.4407487,49.7609547 C15.63963,52.7548213 19.920043,54.984699 21.9979018,56 C24.0793575,54.984699 28.3597705,52.7554126 32.5574528,49.7609547 C35.9230325,47.3548628 38.5758094,44.9387185 40.4516375,42.5787498 C42.5708616,39.9083367 43.6451613,37.3656493 43.6451613,35.0074545 L43.6451613,4.37516722 L21.9979018,0.448784811 L21.9979018,0.448784811 Z"></path>
        <path id="path-5" d="M21.9979018,0.448784811 L0.35483871,4.37516722 L0.35483871,35.0074545 C0.35483871,37.365058 1.42554146,39.9112933 3.54296705,42.5787498 C5.41999409,44.9381272 8.07756704,47.3542715 11.4407487,49.7609547 C15.63963,52.7548213 19.920043,54.984699 21.9979018,56 C24.0793575,54.984699 28.3597705,52.7554126 32.5574528,49.7609547 C35.9230325,47.3548628 38.5758094,44.9387185 40.4516375,42.5787498 C42.5708616,39.9083367 43.6451613,37.3656493 43.6451613,35.0074545 L43.6451613,4.37516722 L21.9979018,0.448784811 L21.9979018,0.448784811 Z"></path>
        <path id="path-7" d="M21.9979018,0.448784811 L0.35483871,4.37516722 L0.35483871,35.0074545 C0.35483871,37.365058 1.42554146,39.9112933 3.54296705,42.5787498 C5.41999409,44.9381272 8.07756704,47.3542715 11.4407487,49.7609547 C15.63963,52.7548213 19.920043,54.984699 21.9979018,56 C24.0793575,54.984699 28.3597705,52.7554126 32.5574528,49.7609547 C35.9230325,47.3548628 38.5758094,44.9387185 40.4516375,42.5787498 C42.5708616,39.9083367 43.6451613,37.3656493 43.6451613,35.0074545 L43.6451613,4.37516722 L21.9979018,0.448784811 L21.9979018,0.448784811 Z"></path>
        <path id="path-9" d="M30.4970911,0.62509313 L0.491935484,6.09398291 L0.491935484,48.7603831 C0.491935484,52.0441879 1.97631884,55.5907299 4.91184068,59.3061158 C7.51408272,62.5923914 11.1984452,65.9577353 15.8610379,69.3099012 C21.6822143,73.4799297 27.6164233,76.5858308 30.4970911,78 C33.3827456,76.5858308 39.3169545,73.4807533 45.1364687,69.3099012 C49.8023859,65.9585589 53.4800994,62.593215 56.0806792,59.3061158 C59.0186944,55.5866118 60.5080645,52.0450115 60.5080645,48.7603831 L60.5080645,6.09398291 L30.4970911,0.62509313 L30.4970911,0.62509313 Z"></path>
    </defs>
    <g id="Welcome" stroke="none" stroke-width="1" fill="none" fill-rule="evenodd" sketch:type="MSPage">
        <g id="Comixes" sketch:type="MSArtboardGroup" transform="translate(-153.000000, -801.000000)">
            <g id="Group-Copy-4" sketch:type="MSLayerGroup" transform="translate(153.000000, 801.000000)">
                <g id="Group">
                    <g id="Oval-139-+-Rectangle-95-+-Rectangle-95-Copy" transform="translate(227.000000, 0.500000)" fill="#282B28" sketch:type="MSShapeGroup">
                        <path d="M83.2802244,122.452 C81.6502244,122.452 79.9972244,122.365 78.3672244,122.194 C65.2562244,120.816 53.4412244,113.996 45.6882244,103.391 C41.8792244,104.176 37.9332244,104.368 34.0302244,103.959 C13.1912244,101.769 -1.97977561,83.034 0.210224392,62.195 C2.12322439,43.995 16.9512244,29.684 35.0272244,28.278 C42.2602244,11.297 59.2302244,0 77.7652244,0 C79.3952244,0 81.0482244,0.087 82.6792244,0.258 C94.5152244,1.502 105.162224,7.06 112.904224,15.984 C117.872224,12.994 123.687224,11.697 129.528224,12.311 C141.322224,13.551 150.753224,22.223 153.058224,33.683 C168.846224,36.705 180.084224,51.617 178.384224,67.797 C176.702224,83.805 163.326224,95.88 147.260224,95.91 C142.224224,106.532 131.607224,113.301 119.746224,113.301 C118.676224,113.301 117.591224,113.245 116.522224,113.132 C115.050224,112.978 113.587224,112.716 112.158224,112.353 C103.949224,118.875 93.7482244,122.452 83.2802244,122.452 L83.2802244,122.452 Z M47.8522244,97.722 L48.8362244,99.178 C55.7232244,109.361 66.6772244,115.938 78.8892244,117.221 C90.0902244,118.399 101.373224,114.925 109.967224,107.685 L111.003224,106.812 L112.301224,107.205 C113.839224,107.669 115.435224,107.991 117.045224,108.16 C117.942224,108.254 118.850224,108.301 119.746224,108.301 C130.149224,108.301 139.408224,102.07 143.333224,92.426 L144.003224,90.777 L145.781224,90.872 C159.923224,91.635 171.947224,81.218 173.412224,67.275 C174.896224,53.146 164.647224,40.167 150.565224,38.345 L148.656224,38.097 L148.407224,36.188 C147.096224,26.121 139.118224,18.347 129.004224,17.284 C123.612224,16.718 118.258224,18.15 113.877224,21.332 L111.931224,22.745 L110.444224,20.854 C103.451224,11.961 93.4042244,6.413 82.1572244,5.231 C80.6992244,5.078 79.2212244,5 77.7652244,5 C60.7402244,5 45.1942244,15.683 39.0822244,31.582 L38.4882244,33.127 L36.8342244,33.184 C20.5012244,33.74 6.89422439,46.437 5.18322439,62.718 C3.28122439,80.814 16.4562244,97.084 34.5522244,98.987 C38.4522244,99.397 42.3892244,99.114 46.1492244,98.156 L47.8522244,97.722 L47.8522244,97.722 Z" id="Imported-Layers"></path>
                    </g>
                    <g id="cloud" transform="translate(231.000000, 11.000000)" sketch:type="MSShapeGroup">
                        <path d="M34.0527344,15.7099609 C34.0527344,15.7099609 81.5947266,3.58691392 115.228516,33.4003905 C148.862305,63.2138672 135.551758,94.6259746 135.551758,94.6259746" id="Path-754" stroke="#2C302E"></path>
                        <path d="M102.347656,0.203125 C102.347656,0.203125 72.7416038,31.6347656 83.2604601,64.2988281 C93.7793163,96.9628906 101.115187,100.261719 101.115187,100.261719" id="Path-755" stroke="#2C302E" stroke-width="2"></path>
                        <circle id="Oval-145" fill="#2C302E" cx="81" cy="51" r="6"></circle>
                        <circle id="Oval-145-Copy" fill="#2C302E" cx="31" cy="53" r="6"></circle>
                        <circle id="Oval-145-Copy-2" fill="#2C302E" cx="135" cy="62" r="5"></circle>
                        <circle id="Oval-145-Copy-3" fill="#2C302E" cx="75" cy="16" r="5"></circle>
                        <circle id="Oval-145-Copy-4" fill="#2C302E" cx="132" cy="29" r="4"></circle>
                        <path d="M144,12.9746094 C144,12.9746094 102.633793,71.2890625 54.082627,71.2890625 C5.53146081,71.2890625 0,51.9912109 0,51.9912109" id="Path-756" stroke="#2C302E" stroke-width="2"></path>
                        <path d="M32.3994139,18.6865234 C32.3994139,18.6865234 20.4570313,44.5087891 37.875,65.171875 C55.2929687,85.8349609 128.308593,99.3027344 128.308593,99.3027344" id="Path-757" stroke="#2C302E"></path>
                    </g>
                    <path d="M283.616477,298.177419 L316.000233,298.177419 C323.177284,298.177419 329,292.35585 329,285.174581 L329,271.002838 C329,263.820673 323.179806,258 316.000233,258 L266.999767,258 C259.822716,258 254,263.821569 254,271.002838 L254,285.174581 C254,291.967588 259.206558,297.542646 265.845394,298.126862 L269.767045,311 L283.616477,298.177419 Z" id="Rectangle-144-Copy-4" stroke="#2C302E" stroke-width="4" fill="#FFFFFF" sketch:type="MSShapeGroup"></path>
                    <g id="Rectangle-144-+-Rectangle-95-Copy-3-+-Rectangle-95-Copy-2" transform="translate(285.000000, 223.000000)">
                        <mask id="mask-2" sketch:name="Mask" fill="white">
                            <use xlink:href="#path-1"></use>
                        </mask>
                        <use id="Mask" stroke="#2C302E" stroke-width="4" fill="#FFFFFF" sketch:type="MSShapeGroup" transform="translate(44.000000, 31.000000) scale(-1, 1) translate(-44.000000, -31.000000) " xlink:href="#path-1"></use>
                    </g>
                    <g id="shield-copy-3" transform="translate(236.500000, 270.000000)">
                        <g id="Mask-+-Rectangle-94">
                            <path d="M25.3731459,1.00499619 L25.3731459,1.00499619 L25.9978412,0.891666908 L26.6225404,1.00497492 L48.2697999,4.93135733 L51.1451613,5.4528907 L51.1451613,8.37516722 L51.1451613,39.0074545 C51.1451613,42.2452648 49.7669946,45.5112747 47.191544,48.7565725 C45.0924276,51.3974591 42.2013737,54.0284865 38.5900392,56.6102691 C34.9616531,59.1986139 31.0611202,61.4244284 27.5323316,63.1457153 L25.9965739,63.8948335 L24.4613272,63.1446683 C20.9261503,61.4172801 17.0353227,59.19649 13.4039441,56.6072553 C9.79281267,54.0231399 6.90066209,51.3932073 4.80165438,48.7548024 C2.23176995,45.5173545 0.85483871,42.2462354 0.85483871,39.0074545 L0.85483871,8.37516722 L0.85483871,5.45299182 L3.73008282,4.9313786 L25.3731459,1.00499619 Z" id="Shape" fill="#9E0B0F" sketch:type="MSShapeGroup"></path>
                            <g id="Path-+-Rectangle-94" transform="translate(4.000000, 4.000000)">
                                <mask id="mask-4" sketch:name="Mask" fill="white">
                                    <use xlink:href="#path-3"></use>
                                </mask>
                                <use id="Mask" fill="#BB241D" sketch:type="MSShapeGroup" xlink:href="#path-3"></use>
                                <rect id="Rectangle-94" fill="#DA322C" sketch:type="MSShapeGroup" mask="url(#mask-4)" x="-31.2258065" y="-21" width="53.2258065" height="94.5"></rect>
                            </g>
                        </g>
                        <path d="M26.0640692,40.7635791 L16.7760065,16.6 L12.4610797,16.6 L26.1006363,50.2681639 L39.740193,16.6 L35.6812364,16.6 L26.0640692,40.7635791 L26.0640692,40.7635791 Z" id="Shape-Copy" fill="#FFFFFF" sketch:type="MSShapeGroup"></path>
                    </g>
                    <g id="Imported-Layers-Copy" transform="translate(19.000000, 204.000000)" sketch:type="MSShapeGroup">
                        <path d="M51.536,99.731 L13.535,80.357 L13.535,20.968 L50.864,0.419 L89.535,20.759 L89.535,80.34 L51.536,99.731 L51.536,99.731 Z M17.6723309,78.0057217 L51.5339739,95.2685 L85.3976691,77.9872512 L85.3976691,23.0897077 L50.9018707,4.9465 L17.6723309,23.2384982 L17.6723309,78.0057217 L17.6723309,78.0057217 Z" id="Fill-1" fill="#2C302E"></path>
                        <path d="M36.986,60.143 L4.277,41.486 L14.721,24.244 L47.43,42.901 L36.986,60.143" id="Fill-2" fill="#FFFFFF"></path>
                        <path d="M37.901,63.564 L0.75,42.374 L13.806,20.822 L50.956,42.013 L37.901,63.564 L37.901,63.564 Z" id="Fill-3" fill="#2C302E"></path>
                        <path d="M6.3882041,40.4717746 L36.8723954,57.8605 L45.3197959,43.9152254 L14.8356046,26.5265 L6.3882041,40.4717746 L6.3882041,40.4717746 Z" id="Path" fill="#D8D8D8"></path>
                        <path d="M65.369,60.092 L99.112,41.435 L88.337,24.193 L54.594,42.85 L65.369,60.092" id="Fill-4" fill="#FFFFFF"></path>
                        <path d="M50.956,41.962 L89.281,20.772 L102.75,42.323 L64.424,63.514 L50.956,41.962 L50.956,41.962 Z" id="Fill-5" fill="#2C302E"></path>
                        <path d="M56.9685,43.847331 L65.5978388,57.6557682 L96.7365,40.437669 L88.108229,26.6292318 L56.9685,43.847331 Z" id="Path" fill="#D8D8D8"></path>
                        <path d="M49.918,6.097 L51.918,6.097 L51.918,42.013 L49.918,42.013 L49.918,6.097 Z" id="Fill-6" fill="#1A1918"></path>
                        <path d="M48.418,42.013 L52.418,42.013 L52.418,95.25 L48.418,95.25 L48.418,42.013 Z" id="Fill-7" fill="#2C302E"></path>
                    </g>
                    <g transform="translate(0.000000, 265.000000)" id="shield-copy">
                        <g>
                            <g id="Mask-+-Rectangle-94">
                                <path d="M25.3731459,1.00499619 L25.3731459,1.00499619 L25.9978412,0.891666908 L26.6225404,1.00497492 L48.2697999,4.93135733 L51.1451613,5.4528907 L51.1451613,8.37516722 L51.1451613,39.0074545 C51.1451613,42.2452648 49.7669946,45.5112747 47.191544,48.7565725 C45.0924276,51.3974591 42.2013737,54.0284865 38.5900392,56.6102691 C34.9616531,59.1986139 31.0611202,61.4244284 27.5323316,63.1457153 L25.9965739,63.8948335 L24.4613272,63.1446683 C20.9261503,61.4172801 17.0353227,59.19649 13.4039441,56.6072553 C9.79281267,54.0231399 6.90066209,51.3932073 4.80165438,48.7548024 C2.23176995,45.5173545 0.85483871,42.2462354 0.85483871,39.0074545 L0.85483871,8.37516722 L0.85483871,5.45299182 L3.73008282,4.9313786 L25.3731459,1.00499619 Z" id="Shape" fill="#9E0B0F" sketch:type="MSShapeGroup"></path>
                                <g id="Path-+-Rectangle-94" transform="translate(4.000000, 4.000000)">
                                    <mask id="mask-6" sketch:name="Mask" fill="white">
                                        <use xlink:href="#path-5"></use>
                                    </mask>
                                    <use id="Mask" fill="#BB241D" sketch:type="MSShapeGroup" xlink:href="#path-5"></use>
                                    <rect id="Rectangle-94" fill="#DA322C" sketch:type="MSShapeGroup" mask="url(#mask-6)" x="-31.2258065" y="-21" width="53.2258065" height="94.5"></rect>
                                </g>
                            </g>
                            <path d="M26.0640692,40.7635791 L16.7760065,16.6 L12.4610797,16.6 L26.1006363,50.2681639 L39.740193,16.6 L35.6812364,16.6 L26.0640692,40.7635791 L26.0640692,40.7635791 Z" id="Shape-Copy" fill="#FFFFFF" sketch:type="MSShapeGroup"></path>
                        </g>
                    </g>
                    <g id="hand" transform="translate(527.000000, 215.000000)" sketch:type="MSShapeGroup">
                        <rect id="Rectangle-147" fill="#CBDBEA" x="3" y="34" width="17" height="46" rx="3"></rect>
                        <path d="M16.6,76.6106061 C17.1646659,76.6106061 17.6435265,76.3910527 17.8761052,76.1002293 L20.9815581,72.2170763 L24.1094032,76.0822154 C25.5396438,77.8495917 27.6972078,78.8742424 30.1771429,78.8742424 L41.7428571,78.8742424 L42.8742857,78.8742424 L61.1028571,78.8742424 L65.3771429,78.8742424 L66.76,78.8742424 C72.8236239,78.8742424 76.2734555,76.0506809 77.0150205,70.6784316 L81.8685683,40.3681836 L81.8685714,39.6136364 C81.8685714,35.2329877 78.3293121,31.6666667 73.9257143,31.6666667 L71.16,31.6666667 L61.1028571,31.6666667 L55.32,31.6666667 L51.32,31.6666667 L51.32,27.6666667 L51.32,14.3363636 C51.32,9.85353416 50.1792424,7.04454848 48.0545732,5.49137005 C46.6027679,4.42870765 44.6794893,3.97425485 42.4847238,4.04507812 C41.6476053,4.07209124 40.8336214,4.17489257 40.1011194,4.32515357 C39.8428152,4.37814052 39.616154,4.43287069 39.4402733,4.48185975 C39.4618478,4.47139048 39.5370048,4.44393176 39.7607757,4.3320078 L39.5064714,4.45920375 L39.2367316,4.54914796 L37.7281602,5.05217826 L40.3204344,4.196167 L40.4628571,17.7318182 C40.4628571,24.361647 37.169442,29.5638303 31.8782093,33.354802 C28.7771489,35.5765965 25.2913984,37.0673944 23.2275998,37.5835217 L21.9937209,37.8592304 L19.4329666,38.4284829 L17.8903847,36.3067024 C17.6412522,35.9640273 17.0842828,35.6909091 16.4742857,35.6909091 L5.78857143,35.6909091 C4.78618429,35.6909091 4.00571429,36.4834772 4.00571429,37.4757576 L4.00571429,74.7 L0.00571428571,74.7 L4.00297551,74.5520043 C4.04814205,75.771921 4.89905179,76.6106061 5.91428571,76.6106061 L16.6,76.6106061 Z M21,78.5984848 L19.3111252,79.9651986 C18.5017107,80.3814373 17.5699462,80.6106061 16.6,80.6106061 L5.91428571,80.6106061 C2.77142857,80.6106061 0.131428571,78.0954545 0.00571428571,74.7 L0.00571428571,37.4757576 C0.00571428571,34.3318182 2.52,31.6909091 5.78857143,31.6909091 L16.4742857,31.6909091 C18.36,31.6909091 20.12,32.5712121 21.1257143,33.9545455 L22.2571429,33.7030303 C22.76,33.5772727 36.4628571,29.5530303 36.4628571,17.7318182 L36.4628571,1.25757576 L37.9714286,0.754545455 C38.2228571,0.628787879 45.2628571,-1.50909091 50.4171429,2.26363636 C53.6857143,4.6530303 55.32,8.67727273 55.32,14.3363636 L55.32,27.6666667 L61.1028571,27.6666667 L71.16,27.6666667 L73.9257143,27.6666667 C80.5885714,27.6666667 85.8685714,33.0742424 85.8685714,39.6136364 L85.8685714,40.3681818 L80.9657143,71.3045455 C79.96,78.5984848 74.8057143,82.8742424 66.76,82.8742424 L65.3771429,82.8742424 L61.1028571,82.8742424 L42.8742857,82.8742424 L41.7428571,82.8742424 L30.1771429,82.8742424 C27.8958704,82.8742424 25.798585,82.2760788 24.0243998,81.2189125 L21,78.5984848 Z" id="Shape" fill="#2C302E"></path>
                        <path d="M81.3428571,42.7575758 L67.4572604,42.7575758" id="Line" stroke="#2C302E" stroke-width="2" stroke-linecap="square"></path>
                        <path d="M80.0857143,54.0757576 L66.2001176,54.0757576" id="Line-Copy-17" stroke="#2C302E" stroke-width="2" stroke-linecap="square"></path>
                        <path d="M77.5714286,65.3939394 L63.6858319,65.3939394" id="Line-Copy-18" stroke="#2C302E" stroke-width="2" stroke-linecap="square"></path>
                        <path d="M19,38.3560606 L19,73.5000007 L19,75.0000007 L22,75.0000007 L22,73.5000007 L22,38.3560606 L22,36.8560606 L19,36.8560606 L19,38.3560606 L19,38.3560606 Z" id="Shape" fill="#2C302E"></path>
                    </g>
                    <g transform="translate(491.000000, 270.000000)" id="shield-copy-2">
                        <g transform="translate(0.500000, 0.000000)">
                            <g id="Mask-+-Rectangle-94">
                                <path d="M25.3731459,1.00499619 L25.3731459,1.00499619 L25.9978412,0.891666908 L26.6225404,1.00497492 L48.2697999,4.93135733 L51.1451613,5.4528907 L51.1451613,8.37516722 L51.1451613,39.0074545 C51.1451613,42.2452648 49.7669946,45.5112747 47.191544,48.7565725 C45.0924276,51.3974591 42.2013737,54.0284865 38.5900392,56.6102691 C34.9616531,59.1986139 31.0611202,61.4244284 27.5323316,63.1457153 L25.9965739,63.8948335 L24.4613272,63.1446683 C20.9261503,61.4172801 17.0353227,59.19649 13.4039441,56.6072553 C9.79281267,54.0231399 6.90066209,51.3932073 4.80165438,48.7548024 C2.23176995,45.5173545 0.85483871,42.2462354 0.85483871,39.0074545 L0.85483871,8.37516722 L0.85483871,5.45299182 L3.73008282,4.9313786 L25.3731459,1.00499619 Z" id="Shape" fill="#9E0B0F" sketch:type="MSShapeGroup"></path>
                                <g id="Path-+-Rectangle-94" transform="translate(4.000000, 4.000000)">
                                    <mask id="mask-8" sketch:name="Mask" fill="white">
                                        <use xlink:href="#path-7"></use>
                                    </mask>
                                    <use id="Mask" fill="#BB241D" sketch:type="MSShapeGroup" xlink:href="#path-7"></use>
                                    <rect id="Rectangle-94" fill="#DA322C" sketch:type="MSShapeGroup" mask="url(#mask-8)" x="-31.2258065" y="-21" width="53.2258065" height="94.5"></rect>
                                </g>
                            </g>
                            <path d="M26.0640692,40.7635791 L16.7760065,16.6 L12.4610797,16.6 L26.1006363,50.2681639 L39.740193,16.6 L35.6812364,16.6 L26.0640692,40.7635791 L26.0640692,40.7635791 Z" id="Shape-Copy" fill="#FFFFFF" sketch:type="MSShapeGroup"></path>
                        </g>
                    </g>
                    <path d="M69.8572289,129 L282.53199,129 L282.53199,218.706829" id="Line-Copy" stroke="#2C302E" stroke-width="2" stroke-linecap="square" sketch:type="MSShapeGroup" transform="translate(176.194609, 173.853415) scale(-1, 1) translate(-176.194609, -173.853415) "></path>
                    <path d="M350.857229,129 L571.997228,129 L571.997228,217.709999" id="Line-Copy-2" stroke="#2C302E" stroke-width="2" stroke-linecap="square" sketch:type="MSShapeGroup"></path>
                    <path d="M317.53199,129 L317.53199,222" id="Line-Copy-3" stroke="#2C302E" stroke-width="2" stroke-linecap="square" sketch:type="MSShapeGroup"></path>
                    <g id="shield" transform="translate(282.000000, 84.000000)">
                        <g id="Mask-+-Rectangle-94">
                            <path d="M34.6184675,0.804510115 L34.6184675,0.804510115 L35.4970059,0.644383308 L36.3755498,0.804480071 L66.3865232,6.27336985 L70.4080645,7.00621399 L70.4080645,11.0939829 L70.4080645,53.7603831 C70.4080645,58.2714789 68.4963662,62.8230833 64.9234748,67.3463332 C62.0112567,71.0273392 58.0005435,74.6944177 52.9909021,78.2926402 C47.9581014,81.8996539 42.5480867,85.0013045 37.6534099,87.4000329 L35.495225,88.4576919 L33.3377639,87.3985573 C28.4342477,84.9913371 23.0377054,81.8966943 18.0006996,78.2884015 C12.9913952,74.6869676 8.97917028,71.0214239 6.0670843,67.3438531 C2.50191684,62.8315472 0.591935484,58.27283 0.591935484,53.7603831 L0.591935484,11.0939829 L0.591935484,7.00635608 L4.6133119,6.2733999 L34.6184675,0.804510115 Z" id="Shape" fill="#9E0B0F" sketch:type="MSShapeGroup"></path>
                            <g id="Path-+-Rectangle-94" transform="translate(5.000000, 5.000000)">
                                <mask id="mask-10" sketch:name="Mask" fill="white">
                                    <use xlink:href="#path-9"></use>
                                </mask>
                                <use id="Mask" fill="#BB241D" sketch:type="MSShapeGroup" xlink:href="#path-9"></use>
                                <rect id="Rectangle-94" fill="#DA322C" sketch:type="MSShapeGroup" mask="url(#mask-10)" x="-43.2903226" y="-29.25" width="73.7903226" height="131.625"></rect>
                            </g>
                        </g>
                        <path d="M35.5888232,56.2064137 L22.7121908,22.55 L16.7301333,22.55 L35.6395186,69.4449425 L54.5489039,22.55 L48.9217142,22.55 L35.5888232,56.2064137 L35.5888232,56.2064137 Z" id="Shape-Copy" fill="#FFFFFF" sketch:type="MSShapeGroup"></path>
                    </g>
                </g>
            </g>
        </g>
    </g>
</svg>