<svg xmlns="http://www.w3.org/2000/svg" xmlns:xlink="http://www.w3.org/1999/xlink" width="419" height="249" viewBox="0 0 419 249" version="1.1">
  <title>
    Group Copy 6
  </title>
  <desc>
    Created with Sketch.
  </desc>
  <defs>
    <path id="path-1" d="M86.73 23.94L86.73 23.94 86.73 23.73C86.77 23.08 86.8 22.33 86.8 21.53 86.85 16.76 85.69 9.54 78.55 7.78 67.67 5.1 58.64 1.02 58.64 1.02 51.71 2.67 47.88 6.68 43.92 6.82 39.97 6.96 35.88 3.23 28.46 0.57 28.39 0.61 19.09 5.11 8.25 7.78 1.09 9.54-0.05 16.8 0 21.56 0 22.19 0.02 22.78 0.04 23.32 0.04 23.32 0.04 23.55 0.04 23.93 0.04 24.29 0.04 25.16 0.08 26.23 13.14 32.25 27.81 35.63 43.32 35.63 58.88 35.63 73.59 32.23 86.69 26.18 86.73 25.14 86.73 24.29 86.73 23.94L86.73 23.94Z"/>
    <rect id="path-3" x="0" y="0" width="91.86" height="49.84"/>
    <path id="path-5" d="M15.39 0.31L0.25 3.06 0.25 24.46C0.25 26.1 1 27.88 2.48 29.75 3.79 31.39 5.65 33.08 8 34.76 10.94 36.85 13.93 38.41 15.39 39.12 16.84 38.41 19.84 36.85 22.77 34.76 25.13 33.08 26.98 31.39 28.3 29.75 29.78 27.88 30.53 26.1 30.53 24.46L30.53 3.06 15.39 0.31 15.39 0.31Z"/>
    <path id="path-7" d="M15.39 0.31L0.25 3.06 0.25 24.46C0.25 26.1 1 27.88 2.48 29.75 3.79 31.39 5.65 33.08 8 34.76 10.94 36.85 13.93 38.41 15.39 39.12 16.84 38.41 19.84 36.85 22.77 34.76 25.13 33.08 26.98 31.39 28.3 29.75 29.78 27.88 30.53 26.1 30.53 24.46L30.53 3.06 15.39 0.31 15.39 0.31Z"/>
    <path id="path-9" d="M15.39 0.31L0.25 3.06 0.25 24.46C0.25 26.1 1 27.88 2.48 29.75 3.79 31.39 5.65 33.08 8 34.76 10.94 36.85 13.93 38.41 15.39 39.12 16.84 38.41 19.84 36.85 22.77 34.76 25.13 33.08 26.98 31.39 28.3 29.75 29.78 27.88 30.53 26.1 30.53 24.46L30.53 3.06 15.39 0.31 15.39 0.31Z"/>
    <path id="path-11" d="M21.33 0.44L0.34 4.26 0.34 34.06C0.34 36.36 1.38 38.84 3.44 41.43 5.26 43.73 7.83 46.08 11.09 48.42 15.17 51.33 19.32 53.5 21.33 54.49 23.35 53.5 27.5 51.33 31.57 48.42 34.84 46.08 37.41 43.73 39.23 41.43 41.28 38.83 42.33 36.36 42.33 34.06L42.33 4.26 21.33 0.44 21.33 0.44Z"/>
  </defs>
  <g id="Page-1" stroke="none" stroke-width="1" fill="none" fill-rule="evenodd">
    <g id="Comixes-Copy" transform="translate(-252.000000, -1954.000000)">
      <g id="Group-Copy-6" transform="translate(252.000000, 1955.000000)">
        <g id="Group" transform="translate(170.677796, 0.000000)">
          <g id="Shape-+-Rectangle-95" transform="translate(0.000000, 59.380282)">
            <path d="M93.02 26.74C93.02 27.43 93.01 28.2 92.98 29.08L92.92 30.79 91.36 31.51C77.6 37.87 62.46 41.22 46.82 41.22 31.23 41.22 16.13 37.89 2.4 31.57L0.84 30.85 0.78 29.13C0.74 28.22 0.73 27.4 0.74 26.74 0.74 26.53 0.74 26.35 0.74 26.2 0.74 26.1 0.7 26.52 0.7 26.52L0.74 26.23C0.71 25.53 0.7 24.94 0.7 24.39 0.66 21.07 1.14 17.93 2.36 15.2 4.02 11.49 6.92 8.88 11.08 7.86 15.69 6.73 20.37 5.17 24.86 3.39 26.44 2.76 27.88 2.15 29.16 1.58 29.6 1.38 30 1.2 30.33 1.05 30.53 0.95 30.67 0.89 30.73 0.86L31.79 0.34 32.9 0.74C34.48 1.3 35.99 1.94 37.55 2.67 38.94 3.33 43.01 5.44 43.71 5.77 45.37 6.55 46.44 6.86 47.32 6.82 48.27 6.73 49.08 6.45 50.21 5.91 50.9 5.58 53.66 4.12 54.16 3.87 56.71 2.58 58.95 1.7 61.49 1.1L62.42 0.87 63.29 1.27C63.32 1.28 63.39 1.31 63.49 1.36 63.67 1.44 63.88 1.53 64.13 1.63 64.83 1.93 65.64 2.27 66.55 2.63 69.16 3.67 72.01 4.7 75.03 5.67 77.6 6.5 80.17 7.23 82.72 7.86 86.87 8.88 89.76 11.48 91.42 15.18 92.64 17.9 93.13 21.03 93.09 24.31 93.1 25.13 93.07 25.94 93.01 26.72L93.02 26.52 93.02 26.74Z" id="Shape" fill="#2C302E"/>
            <g id="Path-+-Rectangle-95-+-Rectangle-95-Copy" transform="translate(3.497496, 2.794366)">
              <mask id="mask-2" fill="white">
                <use xlink:href="#path-1"/>
              </mask>
              <use id="Mask" fill="#FFFFFF" xlink:href="#path-1"/>
              <path d="M73.44-17.12L46.52 39.4 79.87 39.4 79.87-18.08 73.44-17.12Z" id="Path-1269-Copy" fill="#E1E2E2" mask="url(#mask-2)"/>
              <path d="M89.11-17.12L62.19 39.4 95.54 39.4 95.54-18.08 89.11-17.12Z" id="Path-1269" fill="#D8D8D8" mask="url(#mask-2)"/>
            </g>
          </g>
          <path d="M30.03 33.3C30.03 33.3 29.97 33.17 29.94 33.11 28.63 30.32 25.99 24.75 25.99 24.75L27.76 13.44 32.49 7.96 39.05 2.46 44.75 1.16 51.27 0.93 58.72 4.41 62.69 6.86 68.3 11.54 70.02 22.03 69.23 26.64 67.39 30.99 65.97 31.54 64.22 31.3 65.07 24.96 66.15 18.82 65.39 16.36 64.01 15.73 57.23 16.57 51.71 19.13 46.96 19.72 39.41 17.66 34.4 14.49 32.98 13.86 29.77 19.56 29.44 23.52 29.68 26.7 30.86 30.01 30.03 33.3Z" id="Path-536" fill="#EBECEC"/>
          <path d="M33.54 54.88C30.77 51.26 29.49 46.91 28.92 43.18 27.9 43.1 26.55 41.65 25.11 36.49 23.25 29.87 24.99 28.54 26.68 28.54 26.79 28.54 26.9 28.55 27.01 28.56 25.7 24.85 25.68 21.2 26.55 17.83 27.47 13.85 29.6 10.67 31.99 8.21 33.93 5.52 35.62 5.02 41.89 1.48 43.29 1.01 44.77 0.7 46.33 0.63 46.99 0.57 47.63 0.54 48.24 0.54 52.15 0.54 55.2 1.64 57.48 3 58.92 3.81 60.03 4.7 60.86 5.52 61.2 5.85 62.91 8.1 62.91 8.1 62.91 8.1 63.93 8.17 65.17 8.96 65.66 9.27 66.18 9.7 66.69 10.27 68.91 12.78 70.87 18.17 68.47 29.76 69.8 30.22 70.74 32.07 69.2 37.58 67.71 42.9 66.33 44.27 65.3 44.27 65.01 44.27 64.76 44.17 64.53 44.01 63.92 47.48 62.68 51.37 60.22 54.68 51.15 61.33 46.33 65.21 33.54 54.88Z" id="Shape-Copy-2" stroke="#2C302E" stroke-width="2.8"/>
          <path d="M27.65 28.9L30.21 33.69 31.34 33.07C31.34 33.07 28.49 23.82 29.64 20.43 30.79 17.04 33.34 13.85 33.34 13.85 33.34 13.85 44.05 22.9 52.21 18.81 60.36 14.72 65.3 16.31 65.3 16.31 65.3 16.31 66.49 19.72 65.9 22.51 65.3 25.29 64.37 31.26 64.37 31.26L66.73 31.6 68.21 28.71" id="Path-535" stroke="#2C302E" stroke-width="1.4"/>
          <path d="M40.92 48.55C40.92 48.55 45.32 50.72 47.57 50.72 49.75 50.72 54.21 48.55 54.21 48.55" id="Line" stroke="#2C302E" stroke-width="1.4" stroke-linecap="square"/>
        </g>
        <g id="Group-Copy-7-+-ipad-+-iphone-Copy" transform="translate(16.787980, 156.484507)">
          <g id="Group-Copy-7" transform="translate(149.018057, 3.263042)">
            <path d="M43.03 69.09L62.43 69.09 66.91 79.29 38.56 79.29 43.03 69.09Z" id="Rectangle-66" stroke="#2C302E" stroke-width="1.26" fill="#FFFFFF"/>
            <rect id="Rectangle-67" stroke="#2C302E" stroke-width="1.26" fill="#D8D8D8" x="37.42" y="77.02" width="30.62" height="2.27"/>
            <rect id="Rectangle-63" stroke="#2C302E" stroke-width="2.52" fill="#FFFFFF" x="0" y="0" width="105.47" height="70.22" rx="5.04"/>
            <g id="Rectangle-64-+-Rectangle-67" transform="translate(6.804326, 6.795919)">
              <mask id="mask-4" fill="white">
                <use xlink:href="#path-3"/>
              </mask>
              <use id="Mask" stroke="#2C302E" stroke-width="1.26" fill="#FFFFFF" xlink:href="#path-3"/>
            </g>
            <ellipse id="Oval-116" stroke="#2C302E" stroke-width="1.26" fill="#FFFFFF" cx="53.3" cy="62.3" rx="2.27" ry="2.27"/>
            <ellipse id="Oval-116-Copy" fill="#2C302E" cx="52.73" cy="3.96" rx="0.57" ry="0.57"/>
            <path d="M6.8 6.8L44.23 6.8 21.55 56.63 6.8 56.63 6.8 6.8Z" id="Rectangle-71" opacity="0.6" fill-opacity="0.18" fill="#424B54"/>
          </g>
          <g id="ipad" transform="translate(0.117281, 0.438163)">
            <rect id="Rectangle-67" stroke="#2C302E" stroke-width="2.52" fill="#FFFFFF" x="0" y="0" width="53.14" height="67.04" rx="5.04"/>
            <path d="M25.17 60.75C25.17 59.6 26.11 58.66 27.27 58.66 28.43 58.66 29.37 59.6 29.37 60.75 29.37 61.91 28.43 62.85 27.27 62.85 26.11 62.85 25.17 61.91 25.17 60.75Z" id="Shape" fill="#2C302E"/>
            <path d="M26.57 60.75C26.57 60.37 26.88 60.05 27.27 60.05 27.65 60.05 27.97 60.37 27.97 60.75 27.97 61.14 27.65 61.45 27.27 61.45 26.88 61.45 26.57 61.14 26.57 60.75Z" id="Shape-Copy-3" fill="#FFFFFF"/>
            <rect id="Rectangle-68" stroke="#2C302E" stroke-width="1.26" fill="#FFFFFF" x="5.59" y="5.59" width="41.95" height="51.67"/>
            <path d="M6.99 5.59L34.96 5.59 12.08 55.86 6.99 55.86 6.99 5.59Z" id="Rectangle-71-Copy" opacity="0.6" fill-opacity="0.18" fill="#424B54"/>
          </g>
          <g id="iphone" transform="translate(360.904620, 3.961633)">
            <path d="M2.52 5.02L2.52 5.02 2.52 54.97C2.52 56.35 3.64 57.48 5.03 57.48L36.16 57.48C37.54 57.48 38.67 56.35 38.67 54.97L38.67 5.02C38.67 3.64 37.54 2.51 36.16 2.51L5.03 2.51C3.65 2.51 2.52 3.64 2.52 5.02L2.52 5.02ZM0 5.02C0 2.25 2.26 0 5.03 0L36.16 0C38.94 0 41.19 2.25 41.19 5.02L41.19 54.97C41.19 57.74 38.93 59.99 36.16 59.99L5.03 59.99C2.25 59.99 0 57.74 0 54.97L0 5.02 0 5.02Z" id="Shape" fill="#2C302E"/>
            <path d="M19.74 54.85L19.74 54.85C18.31 54.85 17.16 53.7 17.16 52.28 17.16 50.86 18.31 49.71 19.74 49.71 21.16 49.71 22.31 50.86 22.31 52.28 22.31 53.7 21.16 54.85 19.74 54.85L19.74 54.85Z" id="Shape" fill="#2C302E"/>
            <path d="M19.74 53.13L19.74 53.13C19.26 53.13 18.88 52.75 18.88 52.28 18.88 51.8 19.26 51.42 19.74 51.42 20.21 51.42 20.59 51.8 20.59 52.28 20.59 52.75 20.21 53.13 19.74 53.13L19.74 53.13Z" id="Shape-Copy-4" fill="#FFFFFF"/>
            <path d="M19.74 6L21.45 6" id="Line" stroke="#2C302E" stroke-width="1.26" stroke-linecap="square"/>
            <rect id="Rectangle-70" stroke="#2C302E" stroke-width="1.26" fill="#FFFFFF" x="6.86" y="8.57" width="27.46" height="39.42"/>
            <path d="M8.58 10.28L27.46 10.28 12.01 47.99 8.58 47.99 8.58 10.28Z" id="Rectangle-71-Copy-2" opacity="0.6" fill-opacity="0.18" fill="#424B54"/>
          </g>
        </g>
        <g id="shield-copy-4" transform="translate(158.086811, 203.290141)">
          <g id="Mask-+-Rectangle-94">
            <path d="M17.75 0.7L17.75 0.7 18.19 0.62 18.62 0.7 33.76 3.45 35.78 3.81 35.78 5.85 35.78 27.25C35.78 29.51 34.81 31.79 33.01 34.06 31.54 35.91 29.52 37.74 26.99 39.55 24.46 41.36 21.73 42.91 19.26 44.11L18.18 44.64 17.11 44.11C14.64 42.91 11.92 41.35 9.38 39.55 6.85 37.74 4.83 35.9 3.36 34.06 1.56 31.8 0.6 29.51 0.6 27.25L0.6 5.85 0.6 3.81 2.61 3.45 17.75 0.7Z" id="Shape" fill="#9E0B0F"/>
            <g id="Path-+-Rectangle-94" transform="translate(2.797997, 2.794366)">
              <mask id="mask-6" fill="white">
                <use xlink:href="#path-5"/>
              </mask>
              <use id="Mask" fill="#BB241D" xlink:href="#path-5"/>
              <rect id="Rectangle-94" fill="#DA322C" mask="url(#mask-6)" x="-21.84" y="-14.67" width="37.23" height="66.02"/>
            </g>
          </g>
          <path d="M18.23 28.48L11.73 11.6 8.72 11.6 18.26 35.12 27.8 11.6 24.96 11.6 18.23 28.48 18.23 28.48Z" id="Shape-Copy" fill="#FFFFFF"/>
        </g>
        <g id="shield-copy-6" transform="translate(0.000000, 203.290141)">
          <g id="Mask-+-Rectangle-94">
            <path d="M17.75 0.7L17.75 0.7 18.19 0.62 18.62 0.7 33.76 3.45 35.78 3.81 35.78 5.85 35.78 27.25C35.78 29.51 34.81 31.79 33.01 34.06 31.54 35.91 29.52 37.74 26.99 39.55 24.46 41.36 21.73 42.91 19.26 44.11L18.18 44.64 17.11 44.11C14.64 42.91 11.92 41.35 9.38 39.55 6.85 37.74 4.83 35.9 3.36 34.06 1.56 31.8 0.6 29.51 0.6 27.25L0.6 5.85 0.6 3.81 2.61 3.45 17.75 0.7Z" id="Shape" fill="#9E0B0F"/>
            <g id="Path-+-Rectangle-94" transform="translate(2.797997, 2.794366)">
              <mask id="mask-8" fill="white">
                <use xlink:href="#path-7"/>
              </mask>
              <use id="Mask" fill="#BB241D" xlink:href="#path-7"/>
              <rect id="Rectangle-94" fill="#DA322C" mask="url(#mask-8)" x="-21.84" y="-14.67" width="37.23" height="66.02"/>
            </g>
          </g>
          <path d="M18.23 28.48L11.73 11.6 8.72 11.6 18.26 35.12 27.8 11.6 24.96 11.6 18.23 28.48 18.23 28.48Z" id="Shape-Copy" fill="#FFFFFF"/>
        </g>
        <g id="shield-copy-5" transform="translate(353.247078, 203.290141)">
          <g id="Mask-+-Rectangle-94">
            <path d="M17.75 0.7L17.75 0.7 18.19 0.62 18.62 0.7 33.76 3.45 35.78 3.81 35.78 5.85 35.78 27.25C35.78 29.51 34.81 31.79 33.01 34.06 31.54 35.91 29.52 37.74 26.99 39.55 24.46 41.36 21.73 42.91 19.26 44.11L18.18 44.64 17.11 44.11C14.64 42.91 11.92 41.35 9.38 39.55 6.85 37.74 4.83 35.9 3.36 34.06 1.56 31.8 0.6 29.51 0.6 27.25L0.6 5.85 0.6 3.81 2.61 3.45 17.75 0.7Z" id="Shape" fill="#9E0B0F"/>
            <g id="Path-+-Rectangle-94" transform="translate(2.797997, 2.794366)">
              <mask id="mask-10" fill="white">
                <use xlink:href="#path-9"/>
              </mask>
              <use id="Mask" fill="#BB241D" xlink:href="#path-9"/>
              <rect id="Rectangle-94" fill="#DA322C" mask="url(#mask-10)" x="-21.84" y="-14.67" width="37.23" height="66.02"/>
            </g>
          </g>
          <path d="M18.23 28.48L11.73 11.6 8.72 11.6 18.26 35.12 27.8 11.6 24.96 11.6 18.23 28.48 18.23 28.48Z" id="Shape-Copy" fill="#FFFFFF"/>
        </g>
        <path d="M45.37 104.79L194.13 104.79 194.13 157.68" id="Line-Copy" stroke="#2C302E" stroke-width="1.4" stroke-linecap="square" transform="translate(119.750486, 131.232808) scale(-1, 1) translate(-119.750486, -131.232808) "/>
        <path d="M241.93 104.79L398.39 104.79 398.39 159.77" id="Line-Copy-2" stroke="#2C302E" stroke-width="1.4" stroke-linecap="square"/>
        <path d="M218.62 104.79L218.62 159.77" id="Line-Copy-3" stroke="#2C302E" stroke-width="1.4" stroke-linecap="square"/>
        <g id="shield" transform="translate(193.761269, 73.352113)">
          <g id="Mask-+-Rectangle-94">
            <path d="M24.22 0.56L24.22 0.56 24.83 0.45 25.44 0.56 46.44 4.38 49.25 4.89 49.25 7.75 49.25 37.56C49.25 40.71 47.91 43.89 45.41 47.05 43.38 49.62 40.57 52.18 37.07 54.69 33.55 57.21 29.76 59.38 26.34 61.06L24.83 61.8 23.32 61.06C19.89 59.37 16.11 57.21 12.59 54.69 9.09 52.18 6.28 49.61 4.24 47.05 1.75 43.89 0.41 40.71 0.41 37.56L0.41 7.75 0.41 4.89 3.23 4.38 24.22 0.56Z" id="Shape" fill="#9E0B0F"/>
            <g id="Path-+-Rectangle-94" transform="translate(3.497496, 3.492958)">
              <mask id="mask-12" fill="white">
                <use xlink:href="#path-11"/>
              </mask>
              <use id="Mask" fill="#BB241D" xlink:href="#path-11"/>
              <rect id="Rectangle-94" fill="#DA322C" mask="url(#mask-12)" x="-30.28" y="-20.43" width="51.62" height="91.95"/>
            </g>
          </g>
          <path d="M24.89 39.27L15.89 15.75 11.7 15.75 24.93 48.51 38.16 15.75 34.22 15.75 24.89 39.27 24.89 39.27Z" id="Shape-Copy" fill="#FFFFFF"/>
        </g>
      </g>
    </g>
  </g>
</svg>
