<?xml version="1.0" encoding="UTF-8" standalone="no"?>
<svg width="665px" height="280px" viewBox="0 0 665 280" version="1.1" xmlns="http://www.w3.org/2000/svg" xmlns:xlink="http://www.w3.org/1999/xlink" xmlns:sketch="http://www.bohemiancoding.com/sketch/ns">
    <!-- Generator: Sketch 3.5.1 (25234) - http://www.bohemiancoding.com/sketch -->
    <title>virgil-stack</title>
    <desc>Created with Sketch.</desc>
    <defs>
        <linearGradient x1="-1.11022302e-14%" y1="37.8019856%" x2="100%" y2="37.8019869%" id="linearGradient-1">
            <stop stop-color="#DA322C" offset="0%"></stop>
            <stop stop-color="#DA322C" offset="48.9058514%"></stop>
            <stop stop-color="#BB241D" offset="50.2331792%"></stop>
            <stop stop-color="#BB241D" offset="100%"></stop>
        </linearGradient>
        <path id="path-2" d="M36.9422366,0.725462762 L36.9422366,0.725462762 L37.4302138,0.634903889 L37.9181941,0.725445781 L72.6572705,7.1710781 L74.8672566,7.5811281 L74.8672566,9.8484101 L74.8672566,60.1350202 C74.8672566,64.6808944 72.9152171,69.413082 69.1676121,74.2438129 C65.9843622,78.3405825 61.542644,82.475604 55.9570534,86.5604797 C50.282573,90.7013567 44.156037,94.2776867 38.6262083,97.0369739 L37.4292261,97.6342469 L36.2326513,97.0361435 C30.6917274,94.2665339 24.5798399,90.697929 18.9040666,86.5581039 C13.3154078,82.4670634 8.87113631,78.3329547 5.6899147,74.2424333 C1.95026888,69.4232078 0,64.6836678 0,60.1350202 L0,9.8484101 L0,7.5812076 L2.20989463,7.17109508 L36.9422366,0.725462762 Z"></path>
        <path id="path-4" d="M37.007737,0.725462762 L37.007737,0.725462762 L37.4965794,0.634903889 L37.985425,0.725445781 L72.7860954,7.1710781 L75,7.5811281 L75,9.8484101 L75,60.1350202 C75,64.6808944 73.0444994,69.413082 69.2902497,74.2438129 C66.1013558,78.3405825 61.6517622,82.475604 56.056268,86.5604797 C50.3717265,90.7013567 44.2343279,94.2776867 38.6946945,97.0369739 L37.49559,97.6342469 L36.2968935,97.0361435 C30.7461453,94.2665339 24.6234212,90.697929 18.9375844,86.5581039 C13.3390167,82.4670634 8.88686528,78.3329547 5.70000321,74.2424333 C1.95372681,69.4232078 0,64.6836678 0,60.1350202 L0,9.8484101 L0,7.5812076 L2.21381288,7.17109508 L37.007737,0.725462762 Z"></path>
        <path id="path-6" d="M37.1800482,0.725462762 L37.1800482,0.725462762 L37.6711667,0.634903889 L38.1622883,0.725445781 L73.1249937,7.1710781 L75.3492063,7.5811281 L75.3492063,9.8484101 L75.3492063,60.1350202 C75.3492063,64.6808944 73.3846007,69.413082 69.612871,74.2438129 C66.4091293,78.3405825 61.938818,82.475604 56.3172707,86.5604797 C50.6062615,90.7013567 44.4402867,94.2776867 38.8748603,97.0369739 L37.6701726,97.6342469 L36.465895,97.0361435 C30.889302,94.2665339 24.7380699,90.697929 19.0257594,86.5581039 C13.4011243,82.4670634 8.92824328,78.3329547 5.7265429,74.2424333 C1.96282353,69.4232078 0,64.6836678 0,60.1350202 L0,9.8484101 L0,7.5812076 L2.22412059,7.17109508 L37.1800482,0.725462762 Z"></path>
    </defs>
    <g id="Page-1" stroke="none" stroke-width="1" fill="none" fill-rule="evenodd" sketch:type="MSPage">
        <g id="VirgilSecurity---What-is-Virgil" sketch:type="MSArtboardGroup" transform="translate(-387.000000, -222.000000)">
            <g id="virgil-stack" sketch:type="MSLayerGroup" transform="translate(388.000000, 224.000000)">
                <g id="V-Pass-+-V-Pass-Copy" transform="translate(15.000000, 0.000000)">
                    <g id="V-Pass" transform="translate(221.000000, 0.000000)">
                        <g id="virgil-pass-copy">
                            <g id="Group-6" transform="translate(39.000000, 0.000000)">
                                <g id="Shape-+-Group-+-C#-Copy-+-Untitled-1" transform="translate(15.132743, 0.000000)">
                                    <g id="Shape-+-Group-+-C#-Copy-3">
                                        <g id="Shape-+-Group">
                                            <mask id="mask-3" sketch:name="Mask" fill="white">
                                                <use xlink:href="#path-2"></use>
                                            </mask>
                                            <use id="Mask" stroke="#2C302E" stroke-width="2.4" fill="url(#linearGradient-1)" sketch:type="MSShapeGroup" xlink:href="#path-2"></use>
                                        </g>
                                    </g>
                                </g>
                                <g id="private-key-copy" transform="translate(0.000000, 16.065574)" stroke="#2C302E" sketch:type="MSShapeGroup">
                                    <path d="M25.6506336,8.11962782 L71.6814159,8.11962782 L71.6814159,15.2020985 L67.3118754,19.6554593 L63.0049767,19.6554593 L60.2352499,16.8326011 L55.0229537,16.8326011 L52.7368621,19.1625465 L48.127703,19.1625465 L44.7065123,15.6757275 L35.3252505,15.6757275 L32.5919115,18.4614997 L25.9441746,18.4614997 C24.0363412,23.6323338 19.1390945,27.3114754 13.398712,27.3114754 C5.99880772,27.3114754 0,21.1975934 0,13.6557377 C0,6.11388202 5.99880772,0 13.398712,0 C18.8649656,0 23.5666875,3.33614088 25.6506336,8.11962782 Z" id="Oval-248" stroke-width="2.4" fill="#FACB63"></path>
                                    <ellipse id="Oval" stroke-width="1.71428571" fill="#FFFFFF" cx="9.41391118" cy="14.0248117" rx="4.34552823" ry="4.4288879"></ellipse>
                                    <path d="M70.4013906,11.6726434 L47.3795704,11.6726434" id="Line" stroke-width="0.8" stroke-linecap="square"></path>
                                </g>
                                <path d="M56.6995211,89.1173443 L56.6995211,84.2698978 L53.7866123,84.2698978 C52.1359639,84.2698978 50.7766065,82.8009747 50.7766065,80.6955182 L50.7766065,72.2736921 C50.7766065,70.2171997 50.1454762,68.5524201 48.5433764,67.8669226 C50.1454762,67.1814251 50.7766065,65.5166456 50.7766065,63.4601531 L50.7766065,55.038327 C50.7766065,52.8349423 52.1359639,51.4639474 53.7866123,51.4639474 L56.6995211,51.4639474 L56.6995211,46.6165009 L53.7866123,46.6165009 C49.4657975,46.6165009 45.5333706,49.7991678 45.5333706,55.038327 L45.5333706,62.6277633 C45.5333706,64.4394352 44.7080464,65.8593943 43.0088496,65.8593943 L43.0088496,69.8744509 C44.7080464,69.8744509 45.5333706,71.29441 45.5333706,73.1060819 L45.5333706,80.7444823 C45.5333706,85.9836415 49.4657975,89.1173443 53.7866123,89.1173443 L56.6995211,89.1173443 Z M70.7785805,89.1173443 L73.6914894,89.1173443 C78.0123041,89.1173443 81.9447311,85.9836415 81.9447311,80.7444823 L81.9447311,73.1060819 C81.9447311,71.29441 82.7700552,69.8744509 84.4692521,69.8744509 L84.4692521,65.8593943 C82.7700552,65.8593943 81.9447311,64.4394352 81.9447311,62.6277633 L81.9447311,55.038327 C81.9447311,49.7991678 78.0123041,46.6165009 73.6914894,46.6165009 L70.7785805,46.6165009 L70.7785805,51.4639474 L73.6914894,51.4639474 C75.3421377,51.4639474 76.7014952,52.8349423 76.7014952,55.038327 L76.7014952,63.4601531 C76.7014952,65.5166456 77.3326254,67.1814251 78.9347253,67.8669226 C77.3326254,68.5524201 76.7014952,70.2171997 76.7014952,72.2736921 L76.7014952,80.6955182 C76.7014952,82.8009747 75.3421377,84.2698978 73.6914894,84.2698978 L70.7785805,84.2698978 L70.7785805,89.1173443 Z" id="{-}" stroke="#2C302E" stroke-width="2.4" fill="#FFFFFF" sketch:type="MSShapeGroup"></path>
                            </g>
                            <text id="Virgil-Keys-API" sketch:type="MSTextLayer" font-family="Proxima Nova, sans-serif" font-size="20" font-weight="bold" sketch:alignment="middle" line-spacing="28" fill="#1F363D">
                                <tspan x="45.76" y="138">Virgil Keys</tspan>
                                <tspan x="78.17" y="166">API</tspan>
                            </text>
                        </g>
                    </g>
                    <g id="V-Pass-Copy-2" transform="translate(489.000000, 0.000000)">
                        <g id="virgil-pass-copy">
                            <g id="Shape-+-Group-+-C#-Copy-+-Untitled-1" transform="translate(21.000000, 0.000000)">
                                <g id="Shape-+-Group-+-C#-Copy-3">
                                    <g id="Shape-+-Group">
                                        <mask id="mask-5" sketch:name="Mask" fill="white">
                                            <use xlink:href="#path-4"></use>
                                        </mask>
                                        <use id="Mask" stroke="#2C302E" stroke-width="2.4" fill="url(#linearGradient-1)" sketch:type="MSShapeGroup" xlink:href="#path-4"></use>
                                    </g>
                                </g>
                            </g>
                            <text id="Virgil-Crypto-Librar" sketch:type="MSTextLayer" font-family="Proxima Nova, sans-serif" font-size="20" font-weight="bold" sketch:alignment="middle" line-spacing="28" fill="#1F363D">
                                <tspan x="0.49" y="138">Virgil Crypto</tspan>
                                <tspan x="26.2" y="166">Library</tspan>
                            </text>
                        </g>
                        <g id="noun_18125_cc-+-noun_18125_cc-copy" transform="translate(9.000000, 11.000000)" stroke="#2C302E" sketch:type="MSShapeGroup">
                            <g id="noun_18125_cc" transform="translate(39.680516, 0.000000)">
                                <path d="M33.1805628,0 L26.2897628,0 L24.9647689,0 C24.0818111,0 23.1280558,0.666137278 22.8284699,1.50473003 L22.3829513,2.75181346 L20.8801446,6.98083187 C20.5555286,7.10739391 20.2304267,7.24051483 19.9104273,7.38383845 L15.8588021,5.45164174 L14.6613195,4.88402503 C13.8633334,4.50577296 12.7154873,4.69991813 12.0848464,5.33034325 L11.147011,6.2678576 L6.27436986,11.1347876 L5.33664465,12.0737331 C4.71175731,12.6994336 4.5088031,13.8462217 4.89102321,14.6513537 L5.45942827,15.8486771 L7.38549921,19.906193 C7.24530205,20.2258775 7.11215118,20.545805 6.98726151,20.8688904 L2.75899275,22.3747601 L1.50865576,22.817096 C0.675448192,23.1118626 -7.10542736e-15,24.0596476 -7.10542736e-15,24.9519849 L-7.10542736e-15,26.2789926 L-7.10542736e-15,33.1699436 L-7.10542736e-15,34.497832 C-7.10542736e-15,35.3827188 0.667875183,36.3366906 1.50865576,36.6345805 L2.75899275,37.077577 L6.98726151,38.5817462 C7.11215118,38.9011878 7.24530205,39.2279171 7.38549921,39.5444437 L5.45942827,43.5985587 L4.89091309,44.7964325 C4.51206231,45.5946793 4.70583475,46.7429769 5.33640167,47.3739203 L6.27412688,48.3122052 L11.147254,53.1825361 L12.0850893,54.1186193 C12.71005,54.7424124 13.8563235,54.9448419 14.6615625,54.5630779 L15.8590451,53.9953511 L19.9106702,52.0682557 C20.2321275,52.206235 20.5555286,52.3395989 20.8803876,52.4664039 L22.3831943,56.6971227 L22.8287128,57.9440961 C23.1256004,58.7750621 24.0744406,59.4486932 24.965942,59.4486932 L26.2917066,59.4486932 L33.1822636,59.4486932 L34.5064867,59.4486932 C35.3889309,59.4486932 36.3422698,58.7826148 36.6418557,57.9440961 L37.0873743,56.6971227 L38.590181,52.4664039 C38.9167408,52.3398418 39.2401418,52.206478 39.5596553,52.0682557 L43.6115235,53.9953511 L44.8090061,54.5630779 C45.6069922,54.9414033 46.7547794,54.7480821 47.3853463,54.1186193 L48.3230716,53.1825361 L53.1978995,48.3122052 L54.1356247,47.3739203 C54.7605121,46.7486599 54.9629957,45.6019346 54.5801833,44.7964325 L54.0108973,43.5985587 L52.0850693,39.5444437 C52.2250235,39.2247591 52.3581744,38.9014307 52.4850079,38.5817462 L56.7132766,37.077577 L57.9635035,36.6345805 C58.7966377,36.3393737 59.4720264,35.3907615 59.4720264,34.497832 L59.4720264,33.1699436 L59.4720264,26.2789926 L59.4720264,24.9519849 C59.4720264,24.0676849 58.80421,23.1145418 57.9635035,22.817096 L56.7132766,22.3747601 L52.4850079,20.8688904 C52.3584174,20.545805 52.2252665,20.2224766 52.0850693,19.906193 L54.0108973,15.8486771 L54.5801833,14.6514638 C54.9595477,13.8536571 54.7661917,12.7053635 54.1356247,12.073976 L53.1978995,11.1350305 L48.3228286,6.2678576 L47.3851034,5.33034325 C46.760216,4.70559644 45.6140609,4.50233503 44.808896,4.88402503 L43.6115235,5.45164174 L39.5596553,7.38383845 C39.238441,7.24075775 38.9167408,7.10739391 38.590181,6.98083187 L37.0873743,2.75181346 L36.6410849,1.50473003 C36.3436837,0.673690581 35.3952506,0 34.5047858,0 L33.1805628,0 Z" id="Shape" stroke-width="2.4" stroke-linejoin="round" fill="#A6A9A8"></path>
                                <ellipse id="Oval-89" stroke-width="1.6" fill="#FFFFFF" cx="30.1934903" cy="29.2719523" rx="7.31963402" ry="7.31798806"></ellipse>
                                <path d="M30.1934903,41.1636829 C36.762589,41.1636829 42.0878956,35.8395737 42.0878956,29.2719523 C42.0878956,22.7043308 36.762589,17.3802217 30.1934903,17.3802217 C23.6243917,17.3802217 18.299085,22.7043308 18.299085,29.2719523 C18.299085,35.8395737 23.6243917,41.1636829 30.1934903,41.1636829 Z" id="Oval-89" stroke-width="0.8"></path>
                            </g>
                            <g id="noun_18125_cc-copy" transform="translate(24.574540, 49.670236) rotate(-14.000000) translate(-24.574540, -49.670236) translate(4.574540, 29.963714)">
                                <path d="M21.9502185,-3.90798505e-14 L17.3916892,-3.90798505e-14 L17.0547842,-3.90798505e-14 C16.1726445,-3.90798505e-14 15.2153642,0.677861106 14.9204648,1.50333566 L14.8071832,1.82043044 L13.8130187,4.61808877 C13.5982728,4.70181443 13.3832054,4.78987904 13.1715134,4.88469313 L10.4912075,3.60647069 L10.1867247,3.4621433 C9.38947806,3.08424174 8.23341486,3.28748462 7.61263907,3.90804794 L7.37417653,4.14642887 L4.15073698,7.36609024 L3.91230244,7.60483506 C3.28799416,8.22995577 3.09085294,9.38752991 3.46709394,10.1800671 L3.61162178,10.4845094 L4.88579179,13.1687123 C4.79304597,13.3801959 4.70496155,13.5918402 4.62234223,13.8055737 L1.82517982,14.8017644 L1.50725776,14.9142367 C0.674822283,15.2087302 8.13571432e-13,16.1687689 8.13571432e-13,17.0471473 L8.13571432e-13,17.3845643 L8.13571432e-13,21.9431934 L8.13571432e-13,22.2808344 C8.13571432e-13,23.1649013 0.679629598,24.1223729 1.50725776,24.4156029 L1.82517982,24.5282432 L4.62234223,25.523309 C4.70496155,25.7346319 4.79304597,25.9507759 4.88579179,26.1601704 L3.61162178,28.8421234 L3.46706594,29.1467057 C3.08856621,29.9442129 3.2914388,31.1007316 3.9121417,31.721805 L4.15057624,31.9603819 L7.37433727,35.1822931 L7.61279981,35.4203101 C8.2371814,36.0435252 9.39424289,36.2401489 10.1868854,35.8643569 L10.4913683,35.7200015 L13.1716742,34.4451538 C13.3843305,34.5364324 13.5982728,34.6246577 13.8131795,34.7085441 L14.8073439,37.5073273 L14.9206255,37.8243941 C15.2172379,38.6545902 16.1783186,39.3275971 17.0558741,39.3275971 L17.3929751,39.3275971 L21.9513436,39.3275971 L22.2880526,39.3275971 C23.1696791,39.3275971 24.1265434,38.6497958 24.4214429,37.8243941 L24.5347245,37.5073273 L25.528889,34.7085441 C25.7449208,34.6248184 25.9588631,34.5365931 26.1702335,34.4451538 L28.8507002,35.7200015 L29.155183,35.8643569 C29.9524296,36.2423317 31.108433,36.0399262 31.7291359,35.4203101 L31.9675704,35.1822931 L35.1924566,31.9603819 L35.4308912,31.721805 C36.0551994,31.0971241 36.2518618,29.9396073 35.8750377,29.1467057 L35.7302859,28.8421234 L34.4562766,26.1601704 C34.5488617,25.9486868 34.6369461,25.7347926 34.7208514,25.523309 L37.5180138,24.5282432 L37.8359078,24.4156029 C38.66827,24.1206697 39.3430328,23.1597958 39.3430328,22.2808344 L39.3430328,21.9431934 L39.3430328,17.3845643 L39.3430328,17.0471473 C39.3430328,16.1636668 38.6634631,15.2070295 37.8359078,14.9142367 L37.5180138,14.8017644 L34.7208514,13.8055737 C34.6371069,13.5918402 34.5490225,13.3779461 34.4562766,13.1687123 L35.7302859,10.4845094 L35.8750377,10.1800951 C36.2540506,9.38302771 36.051594,8.2265064 35.4308912,7.60499577 L35.1924566,7.36625094 L31.9674097,4.14642887 L31.7289751,3.90804794 C31.1046669,3.28388005 29.9477246,3.08642413 29.155155,3.4621433 L28.8507002,3.60647069 L26.1702335,4.88469313 C25.9577379,4.79003974 25.7449208,4.70181443 25.528889,4.61808877 L24.5347245,1.82043044 L24.4212469,1.50333566 C24.1241213,0.673066301 23.1634626,-3.90798505e-14 22.2869275,-3.90798505e-14 L21.9502185,-3.90798505e-14 Z" id="Shape" stroke-width="2.4" fill="#A6A9A8"></path>
                                <ellipse id="Oval-89" stroke-width="1.6" fill="#FFFFFF" cx="19.9741551" cy="19.3645223" rx="4.84221943" ry="4.84113057"></ellipse>
                                <ellipse id="Oval-89" stroke-width="0.8" cx="19.9741551" cy="19.3645223" rx="8.41757912" ry="8.41568627"></ellipse>
                            </g>
                        </g>
                    </g>
                    <g id="V-Pass-Copy">
                        <g id="virgil-pass">
                            <g id="Shape-+-Group-+-C#-Copy-+-Untitled-1" transform="translate(22.000000, 0.000000)">
                                <g id="Shape-+-Group-+-C#-Copy" transform="translate(11.222222, 0.000000)">
                                    <g id="Shape-+-Group">
                                        <mask id="mask-7" sketch:name="Mask" fill="white">
                                            <use xlink:href="#path-6"></use>
                                        </mask>
                                        <use id="Mask" stroke="#2C302E" stroke-width="2.4" fill="url(#linearGradient-1)" sketch:type="MSShapeGroup" xlink:href="#path-6"></use>
                                    </g>
                                </g>
                                <g id="private-key-copy" transform="translate(64.928571, 32.131148) scale(-1, 1) translate(-64.928571, -32.131148) translate(28.857143, 18.475410)" stroke="#2C302E" sketch:type="MSShapeGroup">
                                    <path d="M25.8157568,8.11962782 L72.1428571,8.11962782 L72.1428571,15.2020985 L67.7451882,19.6554593 L63.4105643,19.6554593 L60.6230076,16.8326011 L55.3771579,16.8326011 L53.0763498,19.1625465 L48.4375198,19.1625465 L44.9943055,15.6757275 L35.5526529,15.6757275 L32.8017184,18.4614997 L26.1111874,18.4614997 C24.1910725,23.6323338 19.2623003,27.3114754 13.4849648,27.3114754 C6.03742438,27.3114754 0,21.1975934 0,13.6557377 C0,6.11388202 6.03742438,0 13.4849648,0 C18.9864067,0 23.7183955,3.33614088 25.8157568,8.11962782 Z" id="Oval-248" stroke-width="2.4" fill="#FACB63"></path>
                                    <ellipse id="Oval" stroke-width="1.71428571" fill="#FFFFFF" cx="9.47451219" cy="14.0248117" rx="4.37350209" ry="4.4288879"></ellipse>
                                    <path d="M70.8545918,11.6726434 L47.6845711,11.6726434" id="Line" stroke-width="0.8" stroke-linecap="square"></path>
                                </g>
                                <g id="private-key-copy-2" transform="translate(0.000000, 43.377049)" stroke="#2C302E" sketch:type="MSShapeGroup">
                                    <path d="M25.8157568,8.11962782 L72.1428571,8.11962782 L72.1428571,15.2020985 L67.7451882,19.6554593 L63.4105643,19.6554593 L60.6230076,16.8326011 L55.3771579,16.8326011 L53.0763498,19.1625465 L48.4375198,19.1625465 L44.9943055,15.6757275 L35.5526529,15.6757275 L32.8017184,18.4614997 L26.1111874,18.4614997 C24.1910725,23.6323338 19.2623003,27.3114754 13.4849648,27.3114754 C6.03742438,27.3114754 0,21.1975934 0,13.6557377 C0,6.11388202 6.03742438,0 13.4849648,0 C18.9864067,0 23.7183955,3.33614088 25.8157568,8.11962782 Z" id="Oval-248" stroke-width="2.4" fill="#FFFFFF"></path>
                                    <ellipse id="Oval" stroke-width="1.71428571" fill="#FFFFFF" cx="9.47451219" cy="14.0248117" rx="4.37350209" ry="4.4288879"></ellipse>
                                    <path d="M70.8545918,11.647541 L46.0394294,11.647541" id="Line" stroke-width="0.8" stroke-linecap="square"></path>
                                </g>
                            </g>
                            <text id="Virgil-Keys-Services" sketch:type="MSTextLayer" font-family="Proxima Nova, sans-serif" font-size="20" font-weight="bold" sketch:alignment="middle" line-spacing="28" fill="#1F363D">
                                <tspan x="22.26" y="138">Virgil Keys </tspan>
                                <tspan x="32.42" y="166">Services</tspan>
                            </text>
                        </g>
                    </g>
                </g>
                <g id="Group-7" transform="translate(0.000000, 169.000000)">
                    <text id="Virgil-Security-Stac" sketch:type="MSTextLayer" font-family="Proxima Nova, sans-serif" font-size="20" font-weight="bold" sketch:alignment="middle" line-spacing="28" fill="#DA322C">
                        <tspan x="240.87" y="105">Virgil Security Stack</tspan>
                    </text>
                    <path d="M330.585105,0.443936946 C336.499716,0.443936946 340.347176,27.7864323 409.338993,27.7864323 C478.330811,27.7864323 421.032962,27.7864323 612.172711,27.7864323 C611.14641,27.1950676 660.223808,27.7864326 662.954935,69.317446" id="Path-5-Copy" stroke="#DA322C" stroke-width="2" sketch:type="MSShapeGroup" transform="translate(496.770020, 34.880691) scale(1, -1) translate(-496.770020, -34.880691) "></path>
                    <path d="M331.458401,0.443936946 C325.888449,0.443936946 322.896396,27.7864323 257.924903,27.7864323 C192.95341,27.7864323 47.9182208,27.7864323 47.9182208,27.7864323 C47.9182208,27.7864323 -2.47678583,27.7864326 0.0952031462,69.317446" id="Path-5-Copy-2" stroke="#DA322C" stroke-width="2" sketch:type="MSShapeGroup" transform="translate(165.729201, 34.880691) scale(1, -1) translate(-165.729201, -34.880691) "></path>
                </g>
            </g>
        </g>
    </g>
</svg>