<svg xmlns="http://www.w3.org/2000/svg" width="22.25" height="18" viewBox="0 0 22.25 18">
  <metadata><?xpacket begin="﻿" id="W5M0MpCehiHzreSzNTczkc9d"?>
<x:xmpmeta xmlns:x="adobe:ns:meta/" x:xmptk="Adobe XMP Core 5.6-c138 79.159824, 2016/09/14-01:09:01        ">
   <rdf:RDF xmlns:rdf="http://www.w3.org/1999/02/22-rdf-syntax-ns#">
      <rdf:Description rdf:about=""/>
   </rdf:RDF>
</x:xmpmeta>
                                                                                                    
                                                                                                    
                                                                                                    
                                                                                                    
                                                                                                    
                                                                                                    
                                                                                                    
                                                                                                    
                                                                                                    
                                                                                                    
                                                                                                    
                                                                                                    
                                                                                                    
                                                                                                    
                                                                                                    
                                                                                                    
                                                                                                    
                                                                                                    
                                                                                                    
                                                                                                    
                           
<?xpacket end="w"?></metadata>
<defs>
    <style>
      .cls-1 {
        fill: #1da1f2;
        fill-rule: evenodd;
      }
    </style>
  </defs>
  <path id="TW" class="cls-1" d="M3159.24,6210.13a9.035,9.035,0,0,1-2.59.71,5.691,5.691,0,0,0,1.99-2.51,9,9,0,0,1-2.87,1.1,4.709,4.709,0,0,0-3.39-1.43,4.448,4.448,0,0,0-4.42,4.54,8.9,8.9,0,0,0,.06,1.47,12.124,12.124,0,0,1-9.43-4.71,2.8,2.8,0,0,0-.61,1.75c0,1.57,1.35,3.03,2.03,3.94-0.75-.03-1.21-0.01-2.04-0.04v0.06c0,2.2,2.34,3,4.03,3.98-0.51-.02-1.28.01-1.69,0.01a4.739,4.739,0,0,1-.85-0.05,4.81,4.81,0,0,0,4.5,3.06,9.915,9.915,0,0,1-5.89,2.01,7.834,7.834,0,0,1-1.08-.07,12.714,12.714,0,0,0,6.92,2.04,13.013,13.013,0,0,0,13.09-12.92c0-.2,0-0.4-0.01-0.59A9.144,9.144,0,0,0,3159.24,6210.13Z" transform="translate(-3137 -6208)"/>
</svg>
