<svg xmlns="http://www.w3.org/2000/svg" width="18" height="15.97" viewBox="0 0 18 15.97">
  <defs>
    <style>
      .cls-1 {
        fill: #bb241d;
        fill-rule: evenodd;
      }
    </style>
  </defs>
  <path id="Documentation-Icon.svg" class="cls-1" d="M1253,1086.02l-7.47,1.88-6.53-1.88a2,2,0,0,0-2,2.01v10.07c0,1.11.99,1.55,2,2.02l6,1.72,0.53,0.16,0.47-.12,7-1.76c1.01-.47,2-0.91,2-2.02v-10.07A2,2,0,0,0,1253,1086.02Zm0,11.85c-0.17.1-.45,0.23-0.67,0.35l-5.33,1.33v-9.95l6-1.51v9.78h0Z" transform="translate(-1237 -1086.03)"/>
</svg>
