<svg xmlns="http://www.w3.org/2000/svg" width="25" height="24" viewBox="0 0 25 24">
  <metadata><?xpacket begin="﻿" id="W5M0MpCehiHzreSzNTczkc9d"?>
<x:xmpmeta xmlns:x="adobe:ns:meta/" x:xmptk="Adobe XMP Core 5.6-c138 79.159824, 2016/09/14-01:09:01        ">
   <rdf:RDF xmlns:rdf="http://www.w3.org/1999/02/22-rdf-syntax-ns#">
      <rdf:Description rdf:about=""/>
   </rdf:RDF>
</x:xmpmeta>
                                                                                                    
                                                                                                    
                                                                                                    
                                                                                                    
                                                                                                    
                                                                                                    
                                                                                                    
                                                                                                    
                                                                                                    
                                                                                                    
                                                                                                    
                                                                                                    
                                                                                                    
                                                                                                    
                                                                                                    
                                                                                                    
                                                                                                    
                                                                                                    
                                                                                                    
                                                                                                    
                           
<?xpacket end="w"?></metadata>
<defs>
    <style>
      .cls-1 {
        fill: #6e5494;
        fill-rule: evenodd;
      }
    </style>
  </defs>
  <path id="GH" class="cls-1" d="M3099.49,6205a12.283,12.283,0,0,0-3.95,23.98,1.342,1.342,0,0,0,1.44-.58c0-.29.01-0.96,0-1.98-3.48,0-4.32-1.75-4.32-1.75a3.05,3.05,0,0,0-1.19-1.7c-1.14-.77.08-1,0.08-1a2.884,2.884,0,0,1,2,1.24,2.609,2.609,0,0,0,3.56,1.02c0.11-.8.86-0.97,0.86-2.21-3.99,0-6.02-2.02-6.02-5.36a4.949,4.949,0,0,1,1.29-3.4,4.332,4.332,0,0,1,.12-3.25s1.05-.24,3.44,1.35a9.3,9.3,0,0,1,2.69-.38,9.006,9.006,0,0,1,2.66.38c2.39-1.59,3.44-1.35,3.44-1.35a4.332,4.332,0,0,1,.12,3.25,4.949,4.949,0,0,1,1.29,3.4c0,3.35-2.05,5.35-5.99,5.35,0,1.21.99,1.84,0.99,2.99v3.4a0.722,0.722,0,0,0,.98.57c4.97-1.63,9.02-6.23,9.02-11.67A12.408,12.408,0,0,0,3099.49,6205Z" transform="translate(-3087 -6205)"/>
</svg>
