<svg xmlns="http://www.w3.org/2000/svg" width="22" height="22" viewBox="0 0 22 22">
  <metadata><?xpacket begin="﻿" id="W5M0MpCehiHzreSzNTczkc9d"?>
<x:xmpmeta xmlns:x="adobe:ns:meta/" x:xmptk="Adobe XMP Core 5.6-c138 79.159824, 2016/09/14-01:09:01        ">
   <rdf:RDF xmlns:rdf="http://www.w3.org/1999/02/22-rdf-syntax-ns#">
      <rdf:Description rdf:about=""/>
   </rdf:RDF>
</x:xmpmeta>
                                                                                                    
                                                                                                    
                                                                                                    
                                                                                                    
                                                                                                    
                                                                                                    
                                                                                                    
                                                                                                    
                                                                                                    
                                                                                                    
                                                                                                    
                                                                                                    
                                                                                                    
                                                                                                    
                                                                                                    
                                                                                                    
                                                                                                    
                                                                                                    
                                                                                                    
                                                                                                    
                           
<?xpacket end="w"?></metadata>
<defs>
    <style>
      .cls-1 {
        fill: #0077b5;
        fill-rule: evenodd;
      }
    </style>
  </defs>
  <path id="IN" class="cls-1" d="M3204.43,6206h-18.88a1.532,1.532,0,0,0-1.55,1.52v18.95a1.541,1.541,0,0,0,1.55,1.53h18.88a1.549,1.549,0,0,0,1.56-1.53v-18.95A1.541,1.541,0,0,0,3204.43,6206ZM3191,6225.02h-3v-10.03h3v10.03Zm11.98-.03h-3v-4.62c0-1.33-.38-2.68-1.99-2.68-1.63,0-2.02,1.34-1.99,2.59v4.71h-3.03v-10h3.04v1.6h0.04a3.5,3.5,0,0,1,3.07-1.63c3.08,0,3.86,1.05,3.86,4.81v5.22ZM3189.5,6210a1.5,1.5,0,1,1-1.5,1.5A1.5,1.5,0,0,1,3189.5,6210Z" transform="translate(-3184 -6206)"/>
</svg>
