<svg id="Medium" xmlns="http://www.w3.org/2000/svg" width="26.03" height="22" viewBox="0 0 26.03 22">
  <metadata><?xpacket begin="﻿" id="W5M0MpCehiHzreSzNTczkc9d"?>
<x:xmpmeta xmlns:x="adobe:ns:meta/" x:xmptk="Adobe XMP Core 5.6-c138 79.159824, 2016/09/14-01:09:01        ">
   <rdf:RDF xmlns:rdf="http://www.w3.org/1999/02/22-rdf-syntax-ns#">
      <rdf:Description rdf:about=""/>
   </rdf:RDF>
</x:xmpmeta>
                                                                                                    
                                                                                                    
                                                                                                    
                                                                                                    
                                                                                                    
                                                                                                    
                                                                                                    
                                                                                                    
                                                                                                    
                                                                                                    
                                                                                                    
                                                                                                    
                                                                                                    
                                                                                                    
                                                                                                    
                                                                                                    
                                                                                                    
                                                                                                    
                                                                                                    
                                                                                                    
                           
<?xpacket end="w"?></metadata>
<defs>
    <style>
      .cls-1 {
        fill: #e5e5e5;
      }

      .cls-1, .cls-2 {
        fill-rule: evenodd;
      }

      .cls-2 {
        fill: #fff;
      }
    </style>
  </defs>
  <path class="cls-1" d="M3129.31,3380.96l-8.33-3.96,0.01-17.46a0.546,0.546,0,0,1,.8-0.49l7.87,3.65a0.581,0.581,0,0,1,.32.49v17.35A0.485,0.485,0,0,1,3129.31,3380.96Z" transform="translate(-3103.97 -3359)"/>
  <path class="cls-2" d="M3121.61,3377.22l-8.92-4.35,8.33-13.6a0.524,0.524,0,0,1,.7-0.21l7.98,3.6a0.573,0.573,0,0,1,.24.77Z" transform="translate(-3103.97 -3359)"/>
  <path class="cls-1" d="M3121.32,3377.01l-8.63-4.14-7.97-12.92a0.436,0.436,0,0,1,.57-0.6l7.4,3.54Z" transform="translate(-3103.97 -3359)"/>
  <path class="cls-2" d="M3112.31,3380.96l-8.33-3.96,0.01-17.46a0.546,0.546,0,0,1,.8-0.49l7.87,3.65a0.581,0.581,0,0,1,.32.49v17.35A0.485,0.485,0,0,1,3112.31,3380.96Z" transform="translate(-3103.97 -3359)"/>
</svg>
