<svg xmlns="http://www.w3.org/2000/svg" width="22" height="22" viewBox="0 0 22 22">
  <metadata><?xpacket begin="﻿" id="W5M0MpCehiHzreSzNTczkc9d"?>
<x:xmpmeta xmlns:x="adobe:ns:meta/" x:xmptk="Adobe XMP Core 5.6-c138 79.159824, 2016/09/14-01:09:01        ">
   <rdf:RDF xmlns:rdf="http://www.w3.org/1999/02/22-rdf-syntax-ns#">
      <rdf:Description rdf:about=""/>
   </rdf:RDF>
</x:xmpmeta>
                                                                                                    
                                                                                                    
                                                                                                    
                                                                                                    
                                                                                                    
                                                                                                    
                                                                                                    
                                                                                                    
                                                                                                    
                                                                                                    
                                                                                                    
                                                                                                    
                                                                                                    
                                                                                                    
                                                                                                    
                                                                                                    
                                                                                                    
                                                                                                    
                                                                                                    
                                                                                                    
                           
<?xpacket end="w"?></metadata>
<defs>
    <style>
      .cls-1 {
        fill: #bb241d;
        fill-rule: evenodd;
      }
    </style>
  </defs>
  <path id="IN" class="cls-1" d="M380.431,1534.99H361.554a1.55,1.55,0,0,0-1.56,1.53v18.95a1.55,1.55,0,0,0,1.56,1.53h18.877a1.551,1.551,0,0,0,1.562-1.53v-18.95A1.551,1.551,0,0,0,380.431,1534.99ZM367,1554.02H364v-10.03H367v10.03Zm11.983-.03h-3.008v-4.62c0-1.33-.372-2.68-1.986-2.68-1.63,0-2.016,1.34-1.985,2.59v4.71h-3.037v-10h3.043v1.6h0.043a3.483,3.483,0,0,1,3.067-1.63c3.083,0,3.863,1.05,3.863,4.81v5.22ZM365.5,1539a1.5,1.5,0,1,1-1.5,1.5A1.5,1.5,0,0,1,365.5,1539Z" transform="translate(-360 -1535)"/>
</svg>
