<svg xmlns="http://www.w3.org/2000/svg" width="40" height="54" viewBox="0 0 40 54">
  <defs>
    <style>
      .cls-1 {
        fill: #333;
        fill-rule: evenodd;
      }
    </style>
  </defs>
  <path id="Cryptogram-Icon.svg" class="cls-1" d="M1796,2063h-25.01a3,3,0,0,0-3,3v48.01a3.007,3.007,0,0,0,3,2.99H1805a3,3,0,0,0,3-3v-39Zm9.17,12H1796v-9.17Zm-0.17,40h-34.01a1,1,0,0,1-1-1v-48a1,1,0,0,1,1-1H1794v12h12v37A1,1,0,0,1,1805,2115Zm-25-23h16v2h-16v-2Zm0,4h16v2h-16v-2Zm0,4h16v2h-16v-2Zm11-15-7,5v-4a1,1,0,0,1,1-1h6a1,1,0,0,1,1,1v4h2v-4a3,3,0,0,0-3-3h-6a3,3,0,0,0-3,3v4h2Z" transform="translate(-1768 -2063)"/>
</svg>
