<svg xmlns="http://www.w3.org/2000/svg" width="797" height="240" viewBox="0 0 797 240">
  <metadata><?xpacket begin="﻿" id="W5M0MpCehiHzreSzNTczkc9d"?>
<x:xmpmeta xmlns:x="adobe:ns:meta/" x:xmptk="Adobe XMP Core 5.6-c140 79.160451, 2017/05/06-01:08:21        ">
   <rdf:RDF xmlns:rdf="http://www.w3.org/1999/02/22-rdf-syntax-ns#">
      <rdf:Description rdf:about=""/>
   </rdf:RDF>
</x:xmpmeta>
                                                                                                    
                                                                                                    
                                                                                                    
                                                                                                    
                                                                                                    
                                                                                                    
                                                                                                    
                                                                                                    
                                                                                                    
                                                                                                    
                                                                                                    
                                                                                                    
                                                                                                    
                                                                                                    
                                                                                                    
                                                                                                    
                                                                                                    
                                                                                                    
                                                                                                    
                                                                                                    
                           
<?xpacket end="w"?></metadata>
<defs>
    <style>
      .cls-1 {
        fill: #fff;
        opacity: 0;
      }

      .cls-2 {
        fill: #d9d9d9;
        fill-rule: evenodd;
      }
    </style>
  </defs>
  <rect id="BG" class="cls-1" width="797" height="240"/>
  <path id="Logo" class="cls-2" d="M561.546,47.04h-42.2a2.064,2.064,0,0,0-1.918,1.92V73.44a2.064,2.064,0,0,0,1.918,1.92h42.2a2.064,2.064,0,0,0,1.918-1.92V48.96C563.944,48,562.985,47.04,561.546,47.04Zm-0.479,36.48H479.543a3.943,3.943,0,0,0-2.877,1.92l-10.55,39.84-0.48,1.92L453.168,84.48a3.238,3.238,0,0,0-2.877-1.92h-31.65a3.943,3.943,0,0,0-2.878,1.92l-11.989,39.84-0.479,1.92-0.48-.96-4.8-19.68-5.276-19.68A3.236,3.236,0,0,0,389.867,84h-63.78V49.44a2.362,2.362,0,0,0-2.877-1.92L282.928,60c-1.439.48-1.918,0.961-1.918,1.92v21.6H270.46a2.064,2.064,0,0,0-1.918,1.92V116.16a2.064,2.064,0,0,0,1.918,1.92h10.55v37.44c0,26.4,14.386,38.88,40.762,38.88,11.029,0,21.579-2.4,28.772-6.24V156.48c0-1.44-1.438-1.92-2.4-1.92a26.118,26.118,0,0,1-11.509,2.4c-7.194,0-11.03-2.88-11.03-11.04V118.56h23.018a2.064,2.064,0,0,0,1.918-1.92V90.72L380.756,191.04a3.239,3.239,0,0,0,2.877,1.92H417.2a3.941,3.941,0,0,0,2.877-1.92l14.387-44.64,7.193,23.04,6.714,21.12a3.236,3.236,0,0,0,2.877,1.92h33.568a3.945,3.945,0,0,0,2.878-1.92l30.691-100.8v100.8a2.064,2.064,0,0,0,1.918,1.92h40.762a2.064,2.064,0,0,0,1.918-1.92V85.92a2.2,2.2,0,0,0-1.918-2.4h0Zm53.709-36.48H574.015a2.064,2.064,0,0,0-1.919,1.92v141.6a2.064,2.064,0,0,0,1.919,1.92h40.761a2.064,2.064,0,0,0,1.918-1.92V48.96A2.064,2.064,0,0,0,614.776,47.04Zm54.189,0h-42.2a2.064,2.064,0,0,0-1.918,1.92V73.44a2.064,2.064,0,0,0,1.918,1.92h42.2a2.065,2.065,0,0,0,1.919-1.92V48.96C671.363,48,670.4,47.04,668.965,47.04Zm-0.479,36.48H627.724a2.064,2.064,0,0,0-1.918,1.92V190.56a2.064,2.064,0,0,0,1.918,1.92h40.762a2.064,2.064,0,0,0,1.918-1.92V85.92A2.2,2.2,0,0,0,668.486,83.52Zm67.616-2.4c-35.966,0-61.382,26.4-61.382,57.12v0.48c0,30.72,25.416,56.64,60.9,56.64,35.966,0,61.382-26.4,61.382-57.12v-0.48C797.005,107.04,771.589,81.12,736.1,81.12Zm17.264,57.12c0,10.56-7.193,18.72-17.264,18.72s-17.743-8.64-17.743-19.2v-0.48c0-10.56,7.193-18.72,17.264-18.72S753.366,127.2,753.366,138.24ZM119.881,0A120,120,0,1,0,239.769,120,119.987,119.987,0,0,0,119.881,0Zm0,208.32A88.32,88.32,0,1,1,208.118,120,88.046,88.046,0,0,1,119.881,208.32ZM149.613,65.28a24.96,24.96,0,1,1-24.936,24.96A24.949,24.949,0,0,1,149.613,65.28Zm0,59.52a24.96,24.96,0,1,1-24.936,24.96A24.949,24.949,0,0,1,149.613,124.8Zm-59.464,0a24.96,24.96,0,1,1-24.937,24.96A24.949,24.949,0,0,1,90.149,124.8Zm0-59.52A24.96,24.96,0,1,1,65.212,90.24,24.949,24.949,0,0,1,90.149,65.28Z"/>
</svg>
