<svg xmlns="http://www.w3.org/2000/svg" width="57.969" height="58" viewBox="0 0 57.969 58">
  <defs>
    <style>
      .cls-1 {
        fill: #fff;
        fill-rule: evenodd;
      }
    </style>
  </defs>
  <path id="Open_Source.svg" data-name="Open Source.svg" class="cls-1" d="M893,1617a26,26,0,1,0,26,26A26,26,0,0,0,893,1617Zm-8.71,48.36,5.99-15.95a7,7,0,1,1,5.44,0l5.98,15.95A23.923,23.923,0,0,1,884.29,1665.36Zm19.25-.8-5.32-14.27a8.977,8.977,0,1,0-10.45,0l-5.32,14.27A24.005,24.005,0,1,1,903.54,1664.56ZM923.966,1644a1,1,0,0,1-1-1,29.678,29.678,0,0,0-5.759-17.63,1,1,0,0,1,.223-1.4,1.02,1.02,0,0,1,1.405.22,31.7,31.7,0,0,1,6.141,18.81A1,1,0,0,1,923.966,1644Zm-54.859-20.15a0.961,0.961,0,0,1-.653-0.24,1,1,0,0,1-.111-1.41,32.317,32.317,0,0,1,41.427-6.39,1,1,0,0,1,.321,1.38,1.018,1.018,0,0,1-1.384.32,30.292,30.292,0,0,0-38.835,5.99A0.977,0.977,0,0,1,869.107,1623.85Z" transform="translate(-867 -1611)"/>
</svg>
