<svg xmlns="http://www.w3.org/2000/svg" width="60" height="60" viewBox="0 0 60 60">
  <defs>
    <style>
      .cls-1 {
        fill: #fff;
        fill-rule: evenodd;
      }
    </style>
  </defs>
  <path id="Processor_Icon.svg" data-name="Processor Icon.svg" class="cls-1" d="M1756,1501a1,1,0,0,1,1,1v38a1,1,0,0,1-1,1h-38a1,1,0,0,1-1-1v-38a1,1,0,0,1,1-1h38m0-2h-38a3,3,0,0,0-3,3v38a3,3,0,0,0,3,3h38a3,3,0,0,0,3-3v-38a3,3,0,0,0-3-3h0Zm-10,13a1,1,0,0,1,1,1v16a1,1,0,0,1-1,1h-18a1,1,0,0,1-1-1v-16a1,1,0,0,1,1-1h18m0-2h-18a3,3,0,0,0-3,3v16a3,3,0,0,0,3,3h18a3,3,0,0,0,3-3v-16a3,3,0,0,0-3-3h0Zm-17-19h0a1,1,0,0,1,1,1v4a1,1,0,0,1-1,1h0a1,1,0,0,1-1-1v-4A1,1,0,0,1,1729,1491Zm8,0h0a1,1,0,0,1,1,1v4a1,1,0,0,1-1,1h0a1,1,0,0,1-1-1v-4A1,1,0,0,1,1737,1491Zm8,0h0a1,1,0,0,1,1,1v4a1,1,0,0,1-1,1h0a1,1,0,0,1-1-1v-4A1,1,0,0,1,1745,1491Zm-16,54h0a1,1,0,0,1,1,1v4a1,1,0,0,1-1,1h0a1,1,0,0,1-1-1v-4A1,1,0,0,1,1729,1545Zm8,0h0a1,1,0,0,1,1,1v4a1,1,0,0,1-1,1h0a1,1,0,0,1-1-1v-4A1,1,0,0,1,1737,1545Zm8,0h0a1,1,0,0,1,1,1v4a1,1,0,0,1-1,1h0a1,1,0,0,1-1-1v-4A1,1,0,0,1,1745,1545Zm17-21h4a1,1,0,0,1,1,1h0a1,1,0,0,1-1,1h-4a1,1,0,0,1-1-1h0A1,1,0,0,1,1762,1524Zm0-8h4a1,1,0,0,1,1,1h0a1,1,0,0,1-1,1h-4a1,1,0,0,1-1-1h0A1,1,0,0,1,1762,1516Zm-54,8h4a1,1,0,0,1,1,1h0a1,1,0,0,1-1,1h-4a1,1,0,0,1-1-1h0A1,1,0,0,1,1708,1524Zm0-8h4a1,1,0,0,1,1,1h0a1,1,0,0,1-1,1h-4a1,1,0,0,1-1-1h0A1,1,0,0,1,1708,1516Z" transform="translate(-1707 -1491)"/>
</svg>
