<svg xmlns="http://www.w3.org/2000/svg" width="59.79" height="60" viewBox="0 0 59.79 60">
  <defs>
    <style>
      .cls-1 {
        fill: #fff;
        fill-rule: evenodd;
      }
    </style>
  </defs>
  <path id="Global_Icon.svg" data-name="Global Icon.svg" class="cls-1" d="M1739.96,1643a1,1,0,0,1-.7-0.29l-3.99-4a1.008,1.008,0,0,1,0-1.42,1,1,0,0,1,1.41,0l3.99,4a1.008,1.008,0,0,1,0,1.42A1.024,1.024,0,0,1,1739.96,1643Zm-7.62,6.94-0.7-1.88,7.97-3,0.7,1.88Zm4.65-36.94a28.731,28.731,0,0,1,3.7.24l0.59,2.49c0.82,3.38,3.32,5.56,6.39,5.56h0.05a7.833,7.833,0,0,0,4-1.22l2.16-1.34a28.387,28.387,0,0,1,5.27,5.29l-1.27,2.08a6.673,6.673,0,0,0,4.36,10.59l2.37,0.57a27.481,27.481,0,0,1,0,7.47l-2.38.57a6.691,6.691,0,0,0-4.36,10.59l1.27,2.09a27.686,27.686,0,0,1-5.26,5.28l-2.14-1.32a7.846,7.846,0,0,0-4.01-1.24h-0.06c-3.07,0-5.58,2.19-6.39,5.57l-0.59,2.49a28.924,28.924,0,0,1-3.72.24,28.426,28.426,0,0,1-3.71-.24l-0.61-2.49c-0.81-3.38-3.31-5.57-6.37-5.57h-0.06a7.851,7.851,0,0,0-4.02,1.24l-2.14,1.32a28.033,28.033,0,0,1-5.27-5.28l1.28-2.09a6.746,6.746,0,0,0,1.25-3.1,6.678,6.678,0,0,0-5.61-7.49l-2.38-.57a28.306,28.306,0,0,1,0-7.47l2.41-.58a7.023,7.023,0,0,0,5.1-3.96l0.03-.08,0.03-.08a7.081,7.081,0,0,0-.81-6.42l-1.3-2.12a28.088,28.088,0,0,1,5.27-5.29l2.12,1.31a7.9,7.9,0,0,0,4.1,1.25c3.06,0,5.56-2.18,6.37-5.56l0.61-2.49a28.769,28.769,0,0,1,3.71-.24h0.02m-6.99,29a8,8,0,1,0-7.97-8,8,8,0,0,0,7.97,8m15.94,10a7,7,0,1,0-6.97-7,6.995,6.995,0,0,0,6.97,7m-17.93,3a5,5,0,1,0-4.98-5,5,5,0,0,0,4.98,5m8.98-44h-0.02a30.508,30.508,0,0,0-4.67.36,1.028,1.028,0,0,0-.83.77l-0.75,3.13c-0.6,2.48-2.3,4.03-4.44,4.03a5.861,5.861,0,0,1-3.02-.93l-2.73-1.68a0.993,0.993,0,0,0-.5-0.14H1720a1.068,1.068,0,0,0-.6.19,30.079,30.079,0,0,0-6.6,6.63,1.048,1.048,0,0,0-.05,1.14l1.67,2.73a5.1,5.1,0,0,1,.61,4.65,5,5,0,0,1-3.7,2.84l-3.11.75a1.027,1.027,0,0,0-.77.84,30.665,30.665,0,0,0,0,9.37,1.027,1.027,0,0,0,.77.84l3.11,0.75a4.672,4.672,0,0,1,4.01,5.26,4.584,4.584,0,0,1-.92,2.23l-1.67,2.74a1.048,1.048,0,0,0,.05,1.14,30.033,30.033,0,0,0,6.6,6.62,1.006,1.006,0,0,0,.6.2h0.01a0.98,0.98,0,0,0,.52-0.15l2.73-1.67a5.78,5.78,0,0,1,3.02-.94c2.14,0,3.84,1.55,4.44,4.04l0.75,3.12a1.053,1.053,0,0,0,.83.78,30.47,30.47,0,0,0,9.34,0,1.053,1.053,0,0,0,.83-0.78l0.75-3.12c0.6-2.49,2.3-4.04,4.45-4.04a5.866,5.866,0,0,1,3.01.94l2.73,1.67a0.988,0.988,0,0,0,.53.15h0a0.956,0.956,0,0,0,.59-0.2,29.864,29.864,0,0,0,6.61-6.62,1.011,1.011,0,0,0,.05-1.14l-1.68-2.74a4.691,4.691,0,0,1,3.09-7.49l3.12-.75a1.041,1.041,0,0,0,.77-0.84,30.047,30.047,0,0,0,0-9.37,1.027,1.027,0,0,0-.77-0.84l-3.11-.75a4.671,4.671,0,0,1-3.08-7.49l1.66-2.73a1.011,1.011,0,0,0-.05-1.14,29.7,29.7,0,0,0-6.61-6.63,1,1,0,0,0-.58-0.19h-0.04a0.966,0.966,0,0,0-.5.14l-2.73,1.68a5.855,5.855,0,0,1-3.01.93c-2.14,0-3.85-1.55-4.45-4.03l-0.75-3.13a1.028,1.028,0,0,0-.83-0.77,30.249,30.249,0,0,0-4.65-.36h0Zm-6.99,29a6,6,0,1,1,5.98-6,5.994,5.994,0,0,1-5.98,6h0Zm15.94,10a5,5,0,1,1,4.98-5,4.991,4.991,0,0,1-4.98,5h0Zm-17.93,3a3,3,0,1,1,2.99-3,2.994,2.994,0,0,1-2.99,3h0Z" transform="translate(-1707.09 -1611)"/>
</svg>
