<svg xmlns="http://www.w3.org/2000/svg" width="61.437" height="58.09" viewBox="0 0 61.437 58.09">
  <defs>
    <style>
      .cls-1 {
        fill: #fff;
        fill-rule: evenodd;
      }
    </style>
  </defs>
  <path id="Box_Icon.svg" data-name="Box Icon.svg" class="cls-1" d="M928.674,1509.35l-3.706-7.15a1.009,1.009,0,0,0-.615-0.74l-25.977-10.45a0.957,0.957,0,0,0-.706,0L871.7,1501.46a1.013,1.013,0,0,0-.616.74l-3.706,7.15a0.984,0.984,0,0,0,.013.77,1.016,1.016,0,0,0,.562.54l4.1,1.41v19.66a1,1,0,0,0,.645.94l24.976,9.32a0.877,0.877,0,0,0,.354.07,0.868,0.868,0,0,0,.352-0.07l24.975-9.32a1,1,0,0,0,.648-0.94v-19.69l4.1-1.38a1.02,1.02,0,0,0,.564-0.54A0.993,0.993,0,0,0,928.674,1509.35Zm-30.65-16.34,23.122,9.38-23.122,8.39-23.1-8.4Zm-25.388,10.67,24.078,8.62-3.823,5.67-23.077-8.96Zm1.342,9.25,18.918,7.05a1.086,1.086,0,0,0,.353.06,0.994,0.994,0,0,0,.927-0.62l2.849-4.55v24.5a0.961,0.961,0,0,0,.035.25l-23.082-8.58v-18.11ZM922,1531.04l-23.012,8.58a0.961,0.961,0,0,0,.035-0.25v-24.5l2.85,4.48a1,1,0,0,0,.926.63,1.086,1.086,0,0,0,.353-0.07L922,1512.95v18.09Zm-18.979-13.07-3.687-5.67,24.079-8.62,2.618,5.26Zm-5.034,31.06a1.9,1.9,0,0,1-.705-0.13l-24.974-9.32a1,1,0,1,1,.7-1.87l24.975,9.32,4.335-1.61a1,1,0,1,1,.7,1.87l-4.329,1.61A1.86,1.86,0,0,1,897.986,1549.03Zm12.175-4.47a1,1,0,0,1-.35-1.94l13.153-4.91a1,1,0,0,1,.7,1.87l-13.153,4.91A1.079,1.079,0,0,1,910.161,1544.56Z" transform="translate(-867.313 -1490.94)"/>
</svg>
