<svg xmlns="http://www.w3.org/2000/svg" width="48" height="63" viewBox="0 0 48 63">
  <defs>
    <style>
      .cls-1 {
        fill: #fff;
        fill-rule: evenodd;
      }
    </style>
  </defs>
  <path id="Book_Icon.svg" data-name="Book Icon.svg" class="cls-1" d="M1313,1649h-16a1,1,0,0,0,0,2h16A1,1,0,0,0,1313,1649Zm0,8h-16a1,1,0,0,0,0,2h16A1,1,0,0,0,1313,1657Zm6,0h-0.01a1,1,0,1,0,0,2A1,1,0,0,0,1319,1657Zm-6-16h-16a1,1,0,0,0,0,2h16A1,1,0,0,0,1313,1641Zm21-19a1,1,0,0,0-1,1v32a1,1,0,0,0,2,0v-32A1,1,0,0,0,1334,1622Zm0,40a1,1,0,0,0-1,1v8a1,1,0,0,0,2,0v-8A1,1,0,0,0,1334,1662Zm-15-13h-0.01a1,1,0,1,0,0,2A1,1,0,0,0,1319,1649Zm7-29-31-9a3,3,0,0,0-3,3v6h-2a3,3,0,0,0-3,3v48a3,3,0,0,0,3,3h36a3,3,0,0,0,3-3v-48A3,3,0,0,0,1326,1620Zm-32-6a0.988,0.988,0,0,1,.8-0.98l24.05,6.98H1294v-6Zm2,8h8v9a1,1,0,0,1-1,1h-6a1,1,0,0,1-1-1v-9Zm31,49a1,1,0,0,1-1,1h-36a1,1,0,0,1-1-1v-48a1,1,0,0,1,1-1h4v9a3,3,0,0,0,3,3h6a3,3,0,0,0,3-3v-9h20a1,1,0,0,1,1,1v48Zm-8-30h-0.01a1,1,0,1,0,0,2A1,1,0,0,0,1319,1641Z" transform="translate(-1287 -1611)"/>
</svg>
